<svg width="80" height="80" viewBox="0 0 80 80" fill="none" xmlns="http://www.w3.org/2000/svg">
<mask id="mask0_1832_17637" style="mask-type:luminance" maskUnits="userSpaceOnUse" x="0" y="29" width="80" height="22">
<path d="M80 29.5H0V50.5H80V29.5Z" fill="white"/>
</mask>
<g mask="url(#mask0_1832_17637)">
<path d="M58.9512 40.0234H56.3203V42.6543H58.9512V40.0234Z" fill="white"/>
<path d="M77.3692 40.0234H74.7383V42.6543H77.3692V40.0234Z" fill="white"/>
<path d="M74.7404 34.7617H72.1094V37.3927H74.7404V34.7617Z" fill="white"/>
<path d="M72.1075 37.3926H69.4766V40.0236H72.1075V37.3926Z" fill="white"/>
<path d="M61.5841 42.6543H58.9531V45.2853H61.5841V42.6543Z" fill="white"/>
<path d="M74.7404 42.6543H72.1094V45.2853H74.7404V42.6543Z" fill="white"/>
<path d="M69.4762 47.9165V50.5474H0V32.1309H2.63094V47.9165H61.5834V45.2855H64.2144V47.9165H69.4762Z" fill="white"/>
<path d="M72.1075 45.2852H69.4766V47.9162H72.1075V45.2852Z" fill="white"/>
<path d="M79.9982 32.1309H77.3672V40.0237H79.9982V32.1309Z" fill="white"/>
<path d="M77.3694 29.5H69.4766V32.1309H77.3694V29.5Z" fill="white"/>
<path d="M69.4766 32.1309H64.2148V34.7618H69.4766V32.1309Z" fill="white"/>
<path d="M64.2163 29.5V32.1309H56.3235V40.0238H53.6925V32.1309H2.63281V29.5H64.2163Z" fill="white"/>
<path d="M21.5354 36.5157V35.6387H15.3965V36.5157H14.5195V43.5315H15.3965V44.4084H21.5354V43.5315H22.4124V36.5157H21.5354ZM20.6584 42.6545H16.2735V37.3926H20.6584V42.6545Z" fill="white"/>
<path d="M49.3048 36.5157V35.6387H42.2891V44.4084H44.0429V40.9005H49.3048V40.0236H50.1819V36.5157H49.3048ZM48.4279 39.1466H44.0429V37.3926H48.4279V39.1466Z" fill="white"/>
<path d="M40.924 35.6387V44.4084H39.1701V40.9005H34.785V44.4084H33.0312V35.6387H34.785V39.1466H39.1701V35.6387H40.924Z" fill="white"/>
<path d="M30.7892 36.5157V35.6387H24.6504V36.5157H23.7734V43.5315H24.6504V44.4084H30.7892V43.5315H31.6661V36.5157H30.7892ZM29.9123 42.6545H25.5274V37.3926H29.9123V42.6545Z" fill="white"/>
<path d="M13.1565 42.6545V44.4084H6.14062V42.6545H8.77157V39.1466H7.01759V37.3926H7.8946V36.5157H8.77157V35.6387H10.5256V42.6545H13.1565Z" fill="white"/>
</g>
</svg>
