<svg width="58" height="80" viewBox="0 0 58 80" fill="none" xmlns="http://www.w3.org/2000/svg">
<path fill-rule="evenodd" clip-rule="evenodd" d="M4.35647 0H53.2906C55.6884 0 57.6471 1.98079 57.6471 4.40555V75.5945C57.6471 78.0192 55.6884 80 53.2906 80H4.35647C1.95871 80 0 78.0192 0 75.5945V4.40555C0 1.98079 1.95871 0 4.35647 0ZM32.7409 54.762C38.9379 51.1932 41.7747 47.0779 42.1293 40.2647C39.6133 48.5976 35.9324 52.6275 32.7409 54.762ZM11.5834 44.7557C12.4615 56.7086 25.2269 57.7332 28.8405 64.4781C32.4539 57.7161 45.2193 56.6915 46.0974 44.7557L46.5026 35.9445C37.7728 31.3512 19.9248 31.3512 11.1951 35.9445L11.5834 44.7557ZM26.5271 24.1452C23.1669 24.2988 19.7898 24.7769 16.4295 25.6136C12.6641 26.5528 9.38835 28.8239 9.38835 32.7342C9.38835 33.9979 9.726 35.1932 10.3001 36.2348L10.2664 35.4152L10.7729 35.1591C11.2288 34.92 11.7186 34.7151 12.1913 34.5101C13.4071 33.9979 14.6735 33.5709 15.9399 33.2124C23.3695 31.0949 34.3113 31.0949 41.7409 33.2124C43.0073 33.5709 44.2738 34.0149 45.4895 34.5101C45.9622 34.698 46.452 34.92 46.9079 35.1591L47.4145 35.4152L47.3807 36.2348C47.9548 35.1932 48.2925 33.9979 48.2925 32.7342C48.2925 28.8239 45.0167 26.5187 41.2513 25.6136C37.6715 24.7599 34.0918 24.2476 30.5121 24.1281C31.2551 23.1719 32.4033 22.5571 33.5514 21.9594C36.0842 20.6105 38.5495 19.2956 38.8535 15.5219C34.1593 16.1195 36.5233 15.8975 31.8967 18.7833C29.6678 19.9787 27.3882 21.1911 26.5271 24.1452Z" fill="url(#paint0_linear_1710_16)"/>
<defs>
<linearGradient id="paint0_linear_1710_16" x1="54.8294" y1="3.13665" x2="2.64306" y2="75.5146" gradientUnits="userSpaceOnUse">
<stop stop-color="#F8B900"/>
<stop offset="1" stop-color="#E67508"/>
</linearGradient>
</defs>
</svg>
