<svg width="80" height="80" fill="none" xmlns="http://www.w3.org/2000/svg"><path d="M50.247 53.771H24.018L20.084 66.23c-1.312 2.622-1.968 5.246-1.968 6.556 0 1.312.656 2.623 1.311 3.28 1.312.656 3.28 1.31 6.558 1.967V80H5v-1.969c2.622-.656 4.59-1.312 5.246-2.624 1.967-1.965 3.935-5.244 5.902-11.146L39.098 0h1.967l22.951 64.918c1.312 5.246 3.28 8.525 4.591 10.492 1.967 1.31 3.934 1.966 6.557 2.623V80H48.935v-1.969c2.623-.656 4.59-.656 5.245-1.967 1.313-.656 1.313-1.967 1.313-3.279 0-1.31-.656-3.934-1.968-7.869L50.247 53.77v.001Zm-1.967-3.934L37.132 18.36 25.985 49.837H48.28Z" fill="#fff"/></svg>