<svg width="74" height="80" viewBox="0 0 74 80" fill="none" xmlns="http://www.w3.org/2000/svg">
<path d="M37.148 30.2129C31.5363 30.2129 26.9878 34.7614 26.9878 40.3731C26.9878 45.9848 31.5363 50.5333 37.148 50.5333C42.7597 50.5333 47.3082 45.9848 47.3082 40.3731C47.3082 34.7614 42.7597 30.2129 37.148 30.2129V30.2129ZM40.3657 44.6963L37.0283 42.2741L33.6909 44.6963L34.9653 40.7744L31.6278 38.3523L35.7539 38.296L37.0283 34.4305L38.3027 38.3523H42.4288L39.0913 40.7744L40.3657 44.6963V44.6963Z" fill="#EDEDED"/>
<path d="M37.148 50.8361C31.3814 50.8361 26.6921 46.1468 26.6921 40.3802C26.6921 34.6136 31.3814 29.9243 37.148 29.9243C42.9146 29.9243 47.6039 34.6136 47.6039 40.3802C47.6039 46.1468 42.9146 50.8361 37.148 50.8361ZM37.148 30.5158C31.7123 30.5158 27.2835 34.9375 27.2835 40.3802C27.2835 45.8229 31.7053 50.2447 37.148 50.2447C42.5907 50.2447 47.0124 45.8229 47.0124 40.3802C47.0124 34.9375 42.5907 30.5158 37.148 30.5158ZM40.929 45.485L37.0283 42.6474L33.1276 45.485L34.6203 40.8942L30.7336 38.0708L35.5426 38.0074L37.0353 33.48L38.521 38.0637H43.3441L39.4434 40.9013L40.9361 45.492L40.929 45.485ZM37.0283 41.9152L39.8024 43.9289L38.7463 40.6689L41.5205 38.6552H38.0915L37.0283 35.3881L35.9721 38.5918L32.5291 38.6411L35.3173 40.6689L34.2612 43.9289L37.0353 41.9152H37.0283Z" fill="#EDEDED"/>
<path d="M36.641 29.6284C31.0293 29.6284 26.4808 34.1769 26.4808 39.7886C26.4808 45.4003 31.0293 49.9488 36.641 49.9488C42.2527 49.9488 46.8012 45.4003 46.8012 39.7886C46.8012 34.1769 42.2527 29.6284 36.641 29.6284V29.6284ZM39.8588 44.1118L36.5213 41.6897L33.1839 44.1118L34.4583 40.1899L31.1209 37.7678L35.2469 37.7115L36.5213 33.846L37.7957 37.7678H41.9218L38.5843 40.1899L39.8588 44.1118V44.1118Z" fill="white"/>
<path d="M36.6411 50.2517C30.8745 50.2517 26.1852 45.5623 26.1852 39.7958C26.1852 34.0292 30.8745 29.3398 36.6411 29.3398C42.4077 29.3398 47.097 34.0292 47.097 39.7958C47.097 45.5623 42.4077 50.2517 36.6411 50.2517ZM36.6411 29.9313C31.2054 29.9313 26.7766 34.353 26.7766 39.7958C26.7766 45.2385 31.1984 49.6602 36.6411 49.6602C42.0838 49.6602 46.5055 45.2385 46.5055 39.7958C46.5055 34.353 42.0838 29.9313 36.6411 29.9313ZM40.4221 44.9005L36.5214 42.063L32.6206 44.9005L34.1133 40.3097L30.2267 37.4863L35.0357 37.4229L36.5284 32.8956L38.0141 37.4793H42.8371L38.9364 40.3168L40.4291 44.9075L40.4221 44.9005ZM36.5214 41.3307L39.2955 43.3444L38.2394 40.0844L41.0135 38.0707H37.5846L36.5214 34.8037L35.4652 38.0073L32.0222 38.0566L34.8104 40.0844L33.7542 43.3444L36.5284 41.3307H36.5214Z" fill="#EDEDED"/>
<path fill-rule="evenodd" clip-rule="evenodd" d="M54.9124 14.0822C55.9334 12.1178 58.3555 11.3573 60.3199 12.3783C62.2844 13.3992 63.0448 15.8213 62.0239 17.7858C61.0029 19.7502 58.5808 20.5107 56.6164 19.4897C54.6519 18.4688 53.8915 16.0467 54.9124 14.0822V14.0822ZM28.8537 25.038C37.4226 20.0882 46.0478 16.8986 53.3845 15.6383C53.3564 16.103 53.3845 16.5677 53.4902 17.0324C50.3147 17.5886 46.9279 18.518 43.3793 19.7925C38.7815 21.4541 34.1344 23.6298 29.5578 26.2702C28.0228 27.1574 26.5231 28.0868 25.0726 29.0373C25.1501 28.4177 25.2416 27.7981 25.3331 27.1855C26.4808 26.4533 27.6426 25.7351 28.8537 25.0451V25.038ZM63.5236 16.6803C63.594 16.2086 63.594 15.7157 63.5306 15.2299C67.5722 15.7721 70.5998 17.3352 72.1348 19.9896C73.381 22.1442 73.5007 24.8057 72.6699 27.7559H69.776C70.9519 24.7353 71.0504 22.1371 69.9591 20.2501C68.8889 18.3983 66.6498 17.1803 63.5306 16.6733L63.5236 16.6803ZM48.9839 49.5055C48.829 50.8856 48.6459 52.2375 48.4277 53.5753C47.6743 54.04 46.9068 54.4976 46.1253 54.9483C26.9948 65.9956 7.61796 68.2487 2.85119 59.9896C1.54861 57.7294 1.4782 54.913 2.44986 51.8009H3.97776C3.16804 54.3638 3.20324 56.5747 4.16082 58.2364C5.9774 61.3837 11.1525 62.6863 18.3414 61.8062C22.1506 61.3344 26.3189 60.2924 30.7266 58.7011C35.3243 57.0394 39.9714 54.8638 44.5481 52.2234C46.0619 51.3503 47.5405 50.435 48.9698 49.4985L48.9839 49.5055Z" fill="#EDEDED"/>
<path fill-rule="evenodd" clip-rule="evenodd" d="M43.2525 74.1982C43.6327 74.4939 44.0482 74.7474 44.5058 74.9305C42.0133 78.1623 39.1406 80 36.0848 80C26.5442 80 18.8132 62.0947 18.8132 40C18.8132 17.9053 26.5372 0 36.0777 0C45.6183 0 53.3493 17.9053 53.3493 40C53.3493 49.8997 51.8003 58.9544 49.2233 65.9461C48.8361 65.6927 48.4136 65.4885 47.963 65.3476C49.0684 62.32 49.9626 58.9262 50.6315 55.2156C51.4976 50.3996 51.9341 45.2878 51.9341 40.007C51.9341 34.7263 51.4905 29.6075 50.6315 24.7985C49.8077 20.1866 48.6178 16.0535 47.1251 12.526C44.2946 5.85108 40.584 2.02781 36.9438 2.02781C33.3036 2.02781 29.593 5.85108 26.7625 12.526C25.2627 16.0606 24.0799 20.1866 23.2561 24.7985C22.39 29.6145 21.9535 34.7263 21.9535 40.007C21.9535 45.2878 22.397 50.4066 23.2561 55.2156C24.0799 59.8275 25.2698 63.9606 26.7625 67.4881C29.593 74.163 33.3036 77.9863 36.9438 77.9863C39.0843 77.9863 41.2529 76.6626 43.2525 74.2052V74.1982ZM46.421 66.1926C44.2031 66.1926 42.4076 67.988 42.4076 70.2059C42.4076 72.4239 44.2031 74.2193 46.421 74.2193C48.6389 74.2193 50.4344 72.4239 50.4344 70.2059C50.4344 67.988 48.6389 66.1926 46.421 66.1926Z" fill="#EDEDED"/>
<path d="M24.7769 18.1589C24.9107 17.7083 25.0444 17.2647 25.1782 16.8281C27.9031 17.5745 30.7477 18.5391 33.6486 19.729C33.0853 20.0036 32.515 20.2853 31.9587 20.574C31.2757 20.3064 30.5857 20.0388 29.9028 19.7995C28.1495 19.1658 26.4386 18.6236 24.7769 18.1659V18.1589ZM22.228 16.0959C21.4395 15.9269 20.6649 15.765 19.9045 15.6382C19.9327 16.1029 19.9045 16.5676 19.7989 17.0323C20.4608 17.152 21.1367 17.2858 21.8197 17.4337C21.9534 16.983 22.0872 16.5395 22.228 16.1029V16.0959ZM29.8323 56.4198C29.8323 56.4198 29.8746 56.4057 29.8957 56.3986C31.1631 55.941 32.4375 55.4411 33.7119 54.8989C32.0432 54.0681 30.3815 53.1739 28.7269 52.2233C27.4384 51.477 26.1781 50.7095 24.9459 49.9139C25.1008 51.2869 25.2909 52.6317 25.5162 53.9624C26.0584 54.2934 26.6005 54.6173 27.1568 54.9412C28.0439 55.4551 28.9381 55.941 29.8253 56.4198H29.8323ZM48.8501 29.4456C48.7727 28.826 48.6882 28.2064 48.6037 27.5939C47.2588 26.7208 45.8718 25.8618 44.4354 25.0309C43.3581 24.4113 42.2809 23.8128 41.2036 23.2425C40.6333 23.4749 40.07 23.7143 39.4997 23.9607C40.9149 24.6789 42.3231 25.4463 43.7243 26.2561C45.4916 27.277 47.2025 28.3402 48.8501 29.4456ZM70.8392 51.7938H69.3113C70.121 54.3567 70.0858 56.5676 69.1282 58.2293C67.3117 61.3766 62.1365 62.6792 54.9476 61.7991C51.4553 61.3696 47.6602 60.4543 43.6539 59.0813C42.3653 59.7502 41.0768 60.3839 39.7883 60.9823C54.1872 66.4743 66.7343 66.411 70.4449 59.9896C71.7545 57.7294 71.8179 54.913 70.8462 51.8009L70.8392 51.7938ZM9.75841 15.2369C5.71687 15.779 2.68923 17.3421 1.15429 19.9966C-0.0919696 22.1511 -0.211667 24.8127 0.619173 27.7628H3.51303C2.33718 24.7422 2.23861 22.1441 3.32996 20.2571C4.4002 18.4053 6.63924 17.1872 9.75841 16.6803C9.688 16.2085 9.688 15.7157 9.75137 15.2298L9.75841 15.2369ZM18.3273 14.0188C17.2641 12.0684 14.835 11.3573 12.8846 12.4134C10.9343 13.4766 10.2231 15.9058 11.2793 17.8561C12.3425 19.8065 14.7716 20.5176 16.722 19.4615C18.6723 18.4053 19.3835 15.9691 18.3273 14.0188V14.0188Z" fill="white"/>
</svg>
