<svg width="80" height="80" viewBox="0 0 80 80" fill="none" xmlns="http://www.w3.org/2000/svg">
<g clip-path="url(#clip0_3615_218)">
<g clip-path="url(#clip1_3615_218)">
<path d="M40 80C62.0914 80 80 62.0914 80 40C80 17.9086 62.0914 0 40 0C17.9086 0 0 17.9086 0 40C0 62.0914 17.9086 80 40 80Z" fill="#FFD000"/>
<path d="M54.4779 32.2889C54.4779 35.1209 53.1139 37.8489 49.7039 39.3709C54.0049 40.6829 55.5789 45.2459 55.5789 47.5539C55.5789 55.7369 49.4409 58.3599 41.8349 58.3599H24.4189V21.6399H41.8349C49.0749 21.6399 54.4779 24.8919 54.4779 32.2889ZM31.2389 36.3799H41.8349C46.1889 36.3799 47.6059 34.5439 47.6059 32.4459C47.6059 30.7669 46.2419 27.9349 41.8349 27.9349H31.2389V36.3809V36.3799ZM31.2389 51.9079H41.8349C44.6679 51.9079 48.7069 50.9639 48.7069 47.5019C48.7069 44.0399 44.6679 42.4659 41.8349 42.4659H31.2389V51.9079Z" fill="black"/>
</g>
</g>
<defs>
<clipPath id="clip0_3615_218">
<rect width="80" height="80" fill="white"/>
</clipPath>
<clipPath id="clip1_3615_218">
<rect width="80" height="80" fill="white"/>
</clipPath>
</defs>
</svg>
