<svg width="80" height="80" viewBox="0 0 80 80" fill="none" xmlns="http://www.w3.org/2000/svg">
<g clip-path="url(#clip0_679_619)">
<path d="M55.5622 10H44.9222C42.7666 10 41.019 11.7475 41.019 13.9032V24.5431C41.019 26.6988 42.7666 28.4463 44.9222 28.4463H55.5622C57.7179 28.4463 59.4654 26.6988 59.4654 24.5431V13.9032C59.4654 11.7475 57.7179 10 55.5622 10Z" fill="white"/>
<path d="M53.959 22.288C53.5497 20.685 53.2082 19.8947 52.5055 19.5419C52.8696 19.3754 54.2751 18.7094 54.2751 16.8693C54.2751 15.4609 53.4651 14.6651 52.4857 14.2304C51.4387 13.7676 50.3436 13.7676 49.703 13.7676C48.4217 13.7676 46.9146 13.9284 46.415 13.999V24.67H48.1761V20.1769H50.0021C50.6597 20.1769 51.2072 20.366 51.5177 20.7329C51.831 21.1027 51.9918 21.653 52.1217 22.2824C52.3136 23.2081 52.6692 24.3172 52.9599 24.67H54.9637C54.5516 24.1168 54.1763 23.1262 53.9618 22.288H53.959ZM50.1545 18.6614H48.1733V15.4581C48.5261 15.4101 48.8958 15.3424 49.5534 15.3424C50.2872 15.3424 52.4829 15.3226 52.4829 17.0301C52.4829 18.5541 50.5779 18.6614 50.1545 18.6614Z" fill="black"/>
<path d="M35.0524 10H24.4125C22.2568 10 20.5093 11.7475 20.5093 13.9032V24.5431C20.5093 26.6988 22.2568 28.4463 24.4125 28.4463H35.0524C37.2081 28.4463 38.9556 26.6988 38.9556 24.5431V13.9032C38.9556 11.7475 37.2081 10 35.0524 10Z" fill="white"/>
<path d="M32.7524 24.67H34.6404L30.5849 13.7676H28.8774L24.8218 24.67H26.7099L27.9065 21.2805H31.5557L32.7524 24.67ZM28.4427 19.7593L29.7128 16.1552C29.7128 16.1552 29.7184 16.1439 29.7297 16.1439C29.741 16.1439 29.7466 16.1552 29.7466 16.1552L31.0167 19.7593H28.4399H28.4427Z" fill="black"/>
<path d="M55.5622 51.0189H44.9222C42.7666 51.0189 41.019 52.7664 41.019 54.9221V65.5621C41.019 67.7177 42.7666 69.4653 44.9222 69.4653H55.5622C57.7179 69.4653 59.4654 67.7177 59.4654 65.5621V54.9221C59.4654 52.7664 57.7179 51.0189 55.5622 51.0189Z" fill="white"/>
<path d="M52.4967 54.7922V62.4773L47.9952 54.7922H46.2341V65.6947H47.9952V58.0096L52.4967 65.6947H54.2578V54.7922H52.4967Z" fill="black"/>
<path d="M76.0995 51.0189H65.4596C63.3039 51.0189 61.5564 52.7664 61.5564 54.9221V65.5621C61.5564 67.7177 63.3039 69.4653 65.4596 69.4653H76.0995C78.2552 69.4653 80.0027 67.7177 80.0027 65.5621V54.9221C80.0027 52.7664 78.2552 51.0189 76.0995 51.0189Z" fill="white"/>
<path d="M71.3045 59.7623V61.323H73.5482V63.9138C73.0797 64.0662 72.5322 64.1509 71.9 64.1509C69.0016 64.1509 67.8981 62.3954 67.8981 60.242C67.8981 58.0886 69.3995 56.3332 71.9 56.3332C72.9161 56.3332 73.8022 56.542 74.5219 56.923L75.0666 55.4329C74.1071 54.9333 73.1305 54.7922 71.9 54.7922C68.2113 54.7922 65.9958 57.242 65.9958 60.2449C65.9958 63.2477 67.6215 65.6975 71.9 65.6975C73.314 65.6975 74.4373 65.4294 75.3093 64.9637V59.7651H71.3045V59.7623Z" fill="black"/>
<path d="M14.5431 10H3.9032C1.74752 10 0 11.7475 0 13.9032V24.5431C0 26.6988 1.74752 28.4463 3.9032 28.4463H14.5431C16.6988 28.4463 18.4463 26.6988 18.4463 24.5431V13.9032C18.4463 11.7475 16.6988 10 14.5431 10Z" fill="white"/>
<path d="M11.7379 18.89C11.9157 18.7827 13.1039 18.1026 13.0898 16.6999C13.0785 15.6952 12.6495 14.9162 11.7548 14.3715C10.9674 13.8918 9.84414 13.7676 8.48099 13.7676C6.44331 13.7676 5.30029 14.0413 5.30029 14.0413V24.4809C5.30029 24.4809 6.06513 24.67 8.00403 24.67C9.10753 24.67 10.6739 24.6305 11.5375 24.2551C12.6325 23.7782 13.5554 22.923 13.5554 21.4216C13.5554 19.429 11.8875 18.9493 11.7379 18.8928V18.89ZM7.06139 15.3537C7.71051 15.3085 8.00967 15.2718 8.56566 15.2718C9.30791 15.2718 11.2891 15.2775 11.2891 16.7422C11.2891 18.207 9.31356 18.286 8.88457 18.286H7.06421V15.3565L7.06139 15.3537ZM8.38221 23.1206C7.75567 23.1206 7.06139 23.0782 7.06139 23.0782V19.8242H8.88175C9.35871 19.8242 11.7068 19.8242 11.7068 21.3933C11.7068 23.0641 9.38411 23.1234 8.38221 23.1234V23.1206Z" fill="black"/>
<path d="M55.5622 30.5094H44.9222C42.7666 30.5094 41.019 32.2569 41.019 34.4126V45.0525C41.019 47.2082 42.7666 48.9557 44.9222 48.9557H55.5622C57.7179 48.9557 59.4654 47.2082 59.4654 45.0525V34.4126C59.4654 32.2569 57.7179 30.5094 55.5622 30.5094Z" fill="white"/>
<path d="M53.959 42.7978C53.5497 41.1947 53.2082 40.4045 52.5055 40.0517C52.8696 39.8852 54.2751 39.2191 54.2751 37.379C54.2751 35.9707 53.4651 35.1748 52.4857 34.7402C51.4387 34.2773 50.3436 34.2773 49.703 34.2773C48.4217 34.2773 46.9146 34.4382 46.415 34.5088V45.1826H48.1761V40.6895H50.0021C50.6597 40.6895 51.2072 40.8786 51.5177 41.2455C51.831 41.6152 51.9918 42.1656 52.1217 42.7949C52.3136 43.7207 52.6692 44.8298 52.9599 45.1826H54.9637C54.5516 44.6294 54.1763 43.6388 53.9618 42.8006L53.959 42.7978ZM50.1545 39.1712H48.1733V35.9679C48.5261 35.9199 48.8958 35.8522 49.5534 35.8522C50.2872 35.8522 52.4829 35.8324 52.4829 37.5399C52.4829 39.0639 50.5779 39.1712 50.1545 39.1712Z" fill="black"/>
<path d="M35.0524 30.5094H24.4125C22.2568 30.5094 20.5093 32.2569 20.5093 34.4126V45.0525C20.5093 47.2082 22.2568 48.9557 24.4125 48.9557H35.0524C37.2081 48.9557 38.9556 47.2082 38.9556 45.0525V34.4126C38.9556 32.2569 37.2081 30.5094 35.0524 30.5094Z" fill="white"/>
<path d="M32.7524 45.1798H34.6404L30.5849 34.2773H28.8774L24.8218 45.1798H26.7099L27.9065 41.7902H31.5557L32.7524 45.1798ZM28.4427 40.269L29.7128 36.665C29.7128 36.665 29.7184 36.6537 29.7297 36.6537C29.741 36.6537 29.7466 36.665 29.7466 36.665L31.0167 40.269H28.4399H28.4427Z" fill="black"/>
<path d="M76.0995 30.5094H65.4596C63.3039 30.5094 61.5564 32.2569 61.5564 34.4126V45.0525C61.5564 47.2082 63.3039 48.9557 65.4596 48.9557H76.0995C78.2552 48.9557 80.0027 47.2082 80.0027 45.0525V34.4126C80.0027 32.2569 78.2552 30.5094 76.0995 30.5094Z" fill="white"/>
<path d="M73.7997 45.1798H75.6878L71.6322 34.2773H69.9247L65.8691 45.1798H67.7572L68.9539 41.7902H72.6031L73.7997 45.1798ZM69.4901 40.269L70.7601 36.665C70.7601 36.665 70.7658 36.6537 70.7771 36.6537C70.7884 36.6537 70.794 36.665 70.794 36.665L72.064 40.269H69.4873H69.4901Z" fill="black"/>
<path d="M14.5431 30.5094H3.9032C1.74752 30.5094 0 32.2569 0 34.4126V45.0525C0 47.2082 1.74752 48.9557 3.9032 48.9557H14.5431C16.6988 48.9557 18.4463 47.2082 18.4463 45.0525V34.4126C18.4463 32.2569 16.6988 30.5094 14.5431 30.5094Z" fill="white"/>
<path d="M11.7379 39.3998C11.9157 39.2925 13.1039 38.6123 13.0898 37.2097C13.0785 36.205 12.6495 35.426 11.7548 34.8813C10.9674 34.4015 9.84414 34.2773 8.48099 34.2773C6.44331 34.2773 5.30029 34.5511 5.30029 34.5511V44.9935C5.30029 44.9935 6.06513 45.1826 8.00403 45.1826C9.10753 45.1826 10.6739 45.1431 11.5375 44.7677C12.6325 44.2908 13.5554 43.4356 13.5554 41.9342C13.5554 39.9416 11.8875 39.4619 11.7379 39.4054V39.3998ZM7.06139 35.8635C7.71051 35.8183 8.00967 35.7816 8.56566 35.7816C9.30791 35.7816 11.2891 35.7873 11.2891 37.252C11.2891 38.7168 9.31356 38.7958 8.88457 38.7958H7.06421V35.8663L7.06139 35.8635ZM8.38221 43.6303C7.75567 43.6303 7.06139 43.588 7.06139 43.588V40.3339H8.88175C9.35871 40.3339 11.7068 40.3339 11.7068 41.9031C11.7068 43.5739 9.38411 43.6332 8.38221 43.6332V43.6303Z" fill="black"/>
<path d="M35.0524 51.0189H24.4125C22.2568 51.0189 20.5093 52.7664 20.5093 54.9221V65.5621C20.5093 67.7177 22.2568 69.4653 24.4125 69.4653H35.0524C37.2081 69.4653 38.9556 67.7177 38.9556 65.5621V54.9221C38.9556 52.7664 37.2081 51.0189 35.0524 51.0189Z" fill="white"/>
<path d="M32.7524 65.6889H34.6404L30.5849 54.7865H28.8774L24.8218 65.6889H26.7099L27.9065 62.2994H31.5557L32.7524 65.6889ZM28.4427 60.7782L29.7128 57.1741C29.7128 57.1741 29.7184 57.1628 29.7297 57.1628C29.741 57.1628 29.7466 57.1741 29.7466 57.1741L31.0167 60.7782H28.4399H28.4427Z" fill="black"/>
<path d="M14.5431 51.0189H3.9032C1.74752 51.0189 0 52.7664 0 54.9221V65.5621C0 67.7177 1.74752 69.4653 3.9032 69.4653H14.5431C16.6988 69.4653 18.4463 67.7177 18.4463 65.5621V54.9221C18.4463 52.7664 16.6988 51.0189 14.5431 51.0189Z" fill="white"/>
<path d="M11.7379 59.9118C11.9157 59.8046 13.1039 59.1244 13.0898 57.7218C13.0785 56.717 12.6495 55.9381 11.7548 55.3934C10.9674 54.9136 9.84414 54.7894 8.48099 54.7894C6.44331 54.7894 5.30029 55.0632 5.30029 55.0632V65.5056C5.30029 65.5056 6.06513 65.6947 8.00403 65.6947C9.10753 65.6947 10.6739 65.6552 11.5375 65.2798C12.6325 64.8028 13.5554 63.9477 13.5554 62.4462C13.5554 60.4537 11.8875 59.9739 11.7379 59.9175V59.9118ZM7.06139 56.3755C7.71051 56.3304 8.00967 56.2937 8.56566 56.2937C9.30791 56.2937 11.2891 56.2993 11.2891 57.7641C11.2891 59.2289 9.31356 59.3079 8.88457 59.3079H7.06421V56.3784L7.06139 56.3755ZM8.38221 64.1424C7.75567 64.1424 7.06139 64.1001 7.06139 64.1001V60.846H8.88175C9.35871 60.846 11.7068 60.846 11.7068 62.4152C11.7068 64.086 9.38411 64.1452 8.38221 64.1452V64.1424Z" fill="black"/>
</g>
<defs>
<clipPath id="clip0_679_619">
<rect width="80" height="80" fill="white"/>
</clipPath>
</defs>
</svg>
