<svg width="216" height="76" viewBox="0 0 216 76" fill="none" xmlns="http://www.w3.org/2000/svg">
<g clip-path="url(#clip0_4695_550)">
<path opacity="0.992" fill-rule="evenodd" clip-rule="evenodd" d="M117.541 0C117.566 0 117.591 0 117.616 0C123.081 8.02809 128.564 16.0473 134.062 24.0578C138.512 20.9256 142.979 17.8441 147.465 14.8133C146.038 19.5042 144.602 24.1945 143.158 28.8842C143.224 28.9399 143.298 28.9771 143.381 28.9955C152.319 30.0416 161.254 31.1059 170.186 32.1884C160.47 35.6415 150.756 39.0942 141.042 42.5466C142.366 53.5365 143.715 64.5259 145.089 75.5146C145.064 75.5146 145.039 75.5146 145.015 75.5146C139.512 66.9051 133.993 58.3042 128.456 49.712C128.382 49.6624 128.308 49.6624 128.234 49.712C123.89 52.6696 119.546 55.6274 115.202 58.5851C116.527 53.98 117.875 49.3763 119.249 44.7742C110.187 43.7095 101.129 42.6205 92.0728 41.5071C101.795 37.9735 111.522 34.4466 121.254 30.9261C119.971 20.6259 118.734 10.3172 117.541 0Z" fill="#E81039"/>
<path opacity="0.992" fill-rule="evenodd" clip-rule="evenodd" d="M29.4043 40.319C33.1991 40.1201 36.7879 40.8749 40.1709 42.5837C44.6134 45.1641 47.0142 49.0377 47.3733 54.2042C43.8831 54.2289 40.3932 54.2042 36.9038 54.13C36.3685 51.1817 34.6112 49.511 31.6318 49.1179C28.0434 48.9128 25.6796 50.5092 24.5407 53.9072C23.9613 56.1697 24.085 58.3972 24.912 60.5899C26.4486 63.5549 28.8865 64.78 32.2259 64.2654C34.8937 63.6643 36.453 62.0184 36.9038 59.3276C40.3932 59.2534 43.8831 59.2286 47.3733 59.2534C46.7017 66.0512 43.0882 70.4197 36.5325 72.3589C32.0698 73.5438 27.6641 73.3706 23.3156 71.8391C18.6533 69.9491 15.5224 66.6201 13.9226 61.8522C13.0398 58.6235 12.9903 55.3812 13.7741 52.1251C15.4407 46.6964 18.9677 43.0704 24.3551 41.2472C26.0119 40.7361 27.695 40.4267 29.4043 40.319Z" fill="#E81039"/>
<path opacity="0.993" fill-rule="evenodd" clip-rule="evenodd" d="M66.3072 40.319C70.225 40.0952 73.9128 40.8995 77.3708 42.7322C82.5589 45.9142 85.1822 50.5797 85.2416 56.7288C85.1391 63.1876 82.293 67.9769 76.7026 71.0966C73.3921 72.6794 69.9022 73.3477 66.233 73.1014C61.2157 72.9405 56.9957 71.0471 53.573 67.4211C50.647 63.8142 49.4094 59.6808 49.8603 55.021C50.5435 48.9607 53.625 44.617 59.1048 41.9897C61.4173 41.0102 63.8181 40.4533 66.3072 40.319ZM67.421 49.1551C71.2671 49.3995 73.507 51.429 74.1409 55.2437C74.5166 57.6728 74.0215 59.9004 72.6558 61.9265C70.8411 63.9308 68.6011 64.6609 65.936 64.1169C63.3769 63.4389 61.7557 61.8177 61.0724 59.2534C60.5193 56.9227 60.7421 54.6704 61.7407 52.4964C63.0181 50.3414 64.9115 49.2276 67.421 49.1551Z" fill="#E81039"/>
<path opacity="0.991" fill-rule="evenodd" clip-rule="evenodd" d="M154.593 40.319C158.123 40.2609 161.439 41.0653 164.543 42.7322C168.845 45.3299 171.146 49.1539 171.449 54.2042C167.959 54.2042 164.469 54.2042 160.979 54.2042C160.614 51.4258 159.054 49.7551 156.301 49.1922C151.831 48.7617 149.195 50.7541 148.393 55.1695C148.046 57.4656 148.442 59.6189 149.581 61.6295C151.325 63.9274 153.627 64.7937 156.487 64.2283C159.144 63.613 160.642 61.9546 160.979 59.2534C164.469 59.2534 167.959 59.2534 171.449 59.2534C170.954 65.452 167.811 69.672 162.019 71.9134C157.893 73.3051 153.71 73.5031 149.47 72.5074C148.698 72.2914 147.943 72.0315 147.205 71.7278C146.005 62.5747 144.83 53.4169 143.678 44.2544C147.317 42.926 150.956 41.6142 154.593 40.319Z" fill="#E81039"/>
<path opacity="0.992" fill-rule="evenodd" clip-rule="evenodd" d="M185.408 40.319C187.972 40.2402 190.398 40.7723 192.685 41.9155C195.094 43.3288 196.542 45.4202 197.028 48.1898C197.74 51.9703 196.688 55.1508 193.873 57.7312C193.317 58.1946 192.748 58.6401 192.165 59.0678C190.234 60.2558 188.304 61.4438 186.373 62.6319C185.744 63.0876 185.249 63.6569 184.888 64.3397C188.898 64.3768 192.907 64.3892 196.917 64.3768C196.917 66.9261 196.917 69.4755 196.917 72.0248C189.022 72.0248 181.126 72.0248 173.231 72.0248C173.1 69.0646 173.534 66.1935 174.53 63.4115C175.607 61.0248 177.203 59.0571 179.319 57.5085C179.988 57.0382 180.656 56.5679 181.324 56.0977C183.045 55.1016 184.752 54.0868 186.447 53.0533C187.036 52.6138 187.518 52.0816 187.895 51.4569C188.435 49.4418 187.667 48.328 185.594 48.1155C183.46 48.3817 182.432 49.5944 182.512 51.7539C179.344 51.7539 176.176 51.7539 173.008 51.7539C173.413 45.5199 176.68 41.7949 182.809 40.5789C183.684 40.4598 184.55 40.3732 185.408 40.319Z" fill="#E81039"/>
<path opacity="0.997" fill-rule="evenodd" clip-rule="evenodd" d="M0 41.1358C3.44036 41.1358 6.88072 41.1358 10.3211 41.1358C10.3211 51.4322 10.3211 61.7284 10.3211 72.0248C6.88072 72.0248 3.44036 72.0248 0 72.0248C0 61.7284 0 51.4322 0 41.1358Z" fill="#E81039"/>
<path opacity="0.992" fill-rule="evenodd" clip-rule="evenodd" d="M216 41.1358C216 51.4322 216 61.7284 216 72.0248C212.757 72.0248 209.515 72.0248 206.273 72.0248C206.285 66.3073 206.273 60.5898 206.235 54.8725C204.163 56.1672 201.898 56.7612 199.441 56.6545C199.441 53.734 199.441 50.8133 199.441 47.8928C201.621 47.8676 203.651 47.3107 205.53 46.2221C207.288 44.9466 208.427 43.2512 208.946 41.1358C211.297 41.1358 213.648 41.1358 216 41.1358Z" fill="#E81039"/>
<path opacity="0.993" fill-rule="evenodd" clip-rule="evenodd" d="M87.3208 43.5119C91.8294 44.0087 96.3336 44.5408 100.835 45.1083C103.4 49.6321 105.937 54.1739 108.446 58.7336C108.483 54.5013 108.495 50.2689 108.483 46.0365C111.021 46.2841 113.546 46.5935 116.056 46.9646C114.292 52.7896 112.535 58.6184 110.785 64.4511C110.822 64.5269 110.871 64.5393 110.933 64.4882C113.197 62.9229 115.474 61.376 117.764 59.8474C117.839 63.9063 117.863 67.9654 117.839 72.0248C113.977 72.0495 110.116 72.0248 106.255 71.9506C103.05 66.1836 99.8449 60.4167 96.6395 54.6498C96.6023 60.4414 96.5897 66.233 96.6023 72.0248C93.5083 72.0248 90.4149 72.0248 87.3208 72.0248C87.3208 62.5205 87.3208 53.0162 87.3208 43.5119Z" fill="#E81039"/>
<path opacity="0.995" fill-rule="evenodd" clip-rule="evenodd" d="M127.64 53.0905C129.667 56.1713 131.684 59.2651 133.692 62.372C133.729 65.5895 133.741 68.8071 133.729 72.0248C130.289 72.0248 126.848 72.0248 123.408 72.0248C123.395 66.6786 123.408 61.3324 123.445 55.9863C124.855 55.0285 126.253 54.0632 127.64 53.0905Z" fill="#E81039"/>
</g>
<defs>
<clipPath id="clip0_4695_550">
<rect width="216" height="76" fill="white"/>
</clipPath>
</defs>
</svg>
