<svg width="80" height="80" viewBox="0 0 80 80" fill="none" xmlns="http://www.w3.org/2000/svg">
<path d="M56.8719 40C56.8719 49.3899 49.3174 57 40.0004 57C30.6833 57 23.1289 49.388 23.1289 40C23.1289 30.612 30.6814 23 40.0004 23C49.3193 23 56.8719 30.612 56.8719 40ZM40.0004 32.4515C35.864 32.4515 32.5089 35.8302 32.5089 40C32.5089 44.1679 35.8621 47.5485 40.0004 47.5485C44.1368 47.5485 47.4918 44.1698 47.4918 40C47.4918 35.8321 44.1386 32.4515 40.0004 32.4515Z" fill="url(#paint0_linear_1832_24042)"/>
<path d="M8.73672 26.8021C7.71104 24.4809 5.01243 23.4367 2.70919 24.4701C0.405954 25.5033 -0.629718 28.2227 0.395962 30.544L10.4069 53.2001C11.4327 55.5214 14.1312 56.5655 16.4344 55.5322C18.7377 54.4989 19.7733 51.7795 18.7477 49.4583L8.73672 26.8021Z" fill="url(#paint1_linear_1832_24042)"/>
<path d="M69.5922 26.8041C68.5665 24.4828 65.8679 23.4387 63.5647 24.472C61.2615 25.5053 60.2258 28.2246 61.2514 30.5459L71.2624 53.2021C72.288 55.5233 74.9867 56.5674 77.2899 55.5342C79.5931 54.5008 80.6288 51.7815 79.6032 49.4603L69.5922 26.8041Z" fill="url(#paint2_linear_1832_24042)"/>
<defs>
<linearGradient id="paint0_linear_1832_24042" x1="40.0004" y1="57.5372" x2="40.0004" y2="25.293" gradientUnits="userSpaceOnUse">
<stop stop-color="#FF8C1A"/>
<stop offset="1" stop-color="#F7AD1C"/>
</linearGradient>
<linearGradient id="paint1_linear_1832_24042" x1="9.56985" y1="57.5373" x2="9.56985" y2="25.293" gradientUnits="userSpaceOnUse">
<stop stop-color="#FF8C1A"/>
<stop offset="1" stop-color="#F7AD1C"/>
</linearGradient>
<linearGradient id="paint2_linear_1832_24042" x1="70.4281" y1="57.5392" x2="70.4281" y2="25.2949" gradientUnits="userSpaceOnUse">
<stop stop-color="#FF8C1A"/>
<stop offset="1" stop-color="#F7AD1C"/>
</linearGradient>
</defs>
</svg>
