<?xml version="1.0" encoding="UTF-8"?>
<!DOCTYPE svg PUBLIC "-//W3C//DTD SVG 1.0//EN" "http://www.w3.org/TR/2001/REC-SVG-20010904/DTD/svg10.dtd">
<!-- Creator: CorelDRAW X6 -->
<svg xmlns="http://www.w3.org/2000/svg" xml:space="preserve" width="3in" height="3in" version="1.0" style="shape-rendering:geometricPrecision; text-rendering:geometricPrecision; image-rendering:optimizeQuality; fill-rule:evenodd; clip-rule:evenodd"
viewBox="0 0 3000 3000"
 xmlns:xlink="http://www.w3.org/1999/xlink">
 <defs>
  <style type="text/css">
   <![CDATA[
    .fil0 {fill:#09A2DD}
   ]]>
  </style>
 </defs>
 <g id="Layer_x0020_1">
  <metadata id="CorelCorpID_0Corel-Layer"/>
  <path class="fil0" d="M1500 31c647,0 1197,419 1393,1000 -344,-123 -698,-192 -1075,-182l5 175c394,-10 762,65 1121,199 17,90 26,182 26,277 0,812 -658,1469 -1469,1469 -99,0 -196,-10 -290,-29 278,-237 515,-508 695,-840l-154 -84c-188,346 -438,627 -733,871 -575,-199 -988,-746 -988,-1388 0,-372 138,-712 367,-971 66,359 183,700 380,1021l150 -92c-206,-336 -324,-692 -388,-1070 258,-223 594,-358 961,-358z"/>
 </g>
</svg>
