<?xml version="1.0" encoding="utf-8"?>
<!-- Generator: Adobe Illustrator 27.5.0, SVG Export Plug-In . SVG Version: 6.00 Build 0)  -->
<svg version="1.1" id="Layer_1" xmlns="http://www.w3.org/2000/svg" xmlns:xlink="http://www.w3.org/1999/xlink" x="0px" y="0px"
	 width="615.6px" height="471.8px" viewBox="0 0 615.6 471.8" style="enable-background:new 0 0 615.6 471.8;" xml:space="preserve"
	>
<style type="text/css">
	.st0{fill:#FFFFFF;}
</style>
<path class="st0" d="M402.2,193.5c8.8-11.6,17.4-22.7,25.3-33.6h135.4l52.7-68.4H474c30.4-49.1,43.7-82.5,34.9-90
	c-1.9-1.7-5.4-1.9-9.6-0.6c-10.5,3-23.4,12.2-32.4,19.1c-9.2,6.9-19.7,15.6-31.3,25.7c-25.5,22.5-24.4,21.9-1.5,2.6
	C447,37.5,457.3,30,465,26.1c2.4-1.1,4.3-1.9,6.2-2.4c2.8-0.6,4.7-0.6,6,0.4c6.2,5.1-5.6,30.2-30,67.3
	c-28.1,42.9-73.3,102.2-126.8,165.4l-3.9,4.5c-29.1,34.3-57.6,66-83.8,93.4h169.5v-96.4h148.7l49.5-64.1H402.2V193.5z"/>
<path class="st0" d="M321.2,201.2c3.2-4.5,6-9.9,8.1-15.9c2.1-6,3.2-13.1,3.2-20.8c0-12-2.4-22.7-7.3-31.7
	c-4.9-9-11.8-16.7-20.8-22.7c-9-6.2-19.9-10.7-32.6-13.7c-12.6-3-27-4.5-42.6-4.5l-176.3,0L0,160.2l232.9,0c5.8,0,10.9,1.3,15.6,3.6
	c4.7,2.4,7.1,6.9,7.1,13.3c0,6.9-2.4,11.6-6.9,13.9c-4.5,2.6-9.9,3.6-15.9,3.6h-63.9v0H0v160.1h169.3v0h15.4
	c-4.5,4.5-9.9,10.1-15.6,15.9v0c-21.6,21.6-50.6,49.1-73.1,61.7c-2.1,1.1-4.1,2.1-5.8,2.8c-4.3,1.7-7.3,1.9-9,0.4
	c-9.6-8.4,30.2-59.6,30.2-59.6c-28.9,31.7-60.6,83.1-47.4,94.3c2.6,2.1,6.9,1.9,12.9-0.4c5.4-2.1,12-5.8,19.7-11.1
	c3-2.1,6.2-4.3,9.4-6.9c16.9-12.6,38.4-30.4,63-52.9v0c14.6-13.3,30.2-28.1,46.5-44.1c30.2-30,62.8-64.5,94.9-102
	c4.5-5.4,9-10.5,13.3-15.9c-1.3-1.3-2.6-2.8-3.9-3.9c-4.7-4.5-9.9-7.9-15.6-10.7c-2.6-1.1-4.9-2.1-7.7-3c4.5-1.5,8.8-3.9,13.3-6.9
	C314.1,209.5,318,205.7,321.2,201.2 M250.7,282.4c-3.9,3.2-10.3,4.7-19.3,4.7h-62.4v0H81.7v-36.2h87.6v0h62.1c9,0,15.4,1.5,19.3,4.5
	c3.9,3,6,7.5,6,13.3C256.7,274.7,254.8,279.4,250.7,282.4"/>
</svg>
