<svg width="78" height="80" fill="none" xmlns="http://www.w3.org/2000/svg"><path d="M39 80c21.54 0 39-17.909 39-40S60.54 0 39 0 0 17.909 0 40s17.46 40 39 40Z" fill="url(#a)"/><path fill-rule="evenodd" clip-rule="evenodd" d="M36.124 55.933h5.18c.2 0 .363-.163.363-.364V31.627h3.619c2.428-4.45 6.762-6.125 6.762-6.125H26.905s3.762 1.197 5.143 6.125h3.714v23.942c0 .201.162.364.362.364Z" fill="#000"/><path fill-rule="evenodd" clip-rule="evenodd" d="m64.714 33.732 2.477-4.785s-3.334-3.349-9.239-3.349c-8.571 0-13.333 6.794-13.619 15.694-.276 8.708 5.62 14.928 13.143 15.024 7.524.095 10.857-3.637 10.857-3.637V39.225a.522.522 0 0 0-.514-.526l-8.486-.173a.518.518 0 0 0-.533.517l-.076 4.584a.52.52 0 0 0 .524.536h2.657a.53.53 0 0 1 .524.526v5.024S50.752 54.88 50.524 40.43c-.095-6.03 4.095-9.091 7.714-9.283 3.371-.181 6.476 2.584 6.476 2.584Z" fill="#000"/><path d="M39.01.297C17.629.297.294 18.067.294 40c0 21.933 17.334 39.703 38.715 39.703 21.38 0 38.714-17.77 38.714-39.703C77.724 18.067 60.39.297 39.009.297Zm0 2.296C59.151 2.593 75.476 19.34 75.476 40c0 7.282-2.028 14.077-5.533 19.828-1.438.823-6.248 2.976-17.19 2.823-13.048-.182-16.972-3.187-29.067-3.187-6.953 0-12.724 1.876-14.257 2.421C5.095 55.732 2.543 48.172 2.543 40c0-20.66 16.324-37.407 36.467-37.407ZM22.267 63.55c6.21 0 21.047 7.187 34.895 8.91a35.862 35.862 0 0 1-10.59 4.152C30.408 66.517 23.666 63.55 22.266 63.55Zm12.18 13.57c-6.666-.852-12.77-3.55-17.818-7.589 1.542-.172 6.142.68 9.428 2.287 2.581 1.254 5.581 2.967 8.39 5.302Zm27.81-8.288c-9.99.718-24.305-5.406-33.276-6.612 9.78-.66 26.771 4.603 39.543-.23a37.785 37.785 0 0 1-6.267 6.842Z" fill="#000"/><path d="M28.095 38.9c1.81-1.436 2.81-2.536 2.81-5.886 0-3.636-3.524-7.512-10.048-7.512-7.905 0-10 5.168-10 5.168v22.2s3.905 3.063 9.62 3.063c3.342 0 12.332.096 12.332-9.904 0-4.115-3.095-5.79-4.714-7.13Zm-10.571-5.264s.81-2.344 3.238-2.392c1.905-.038 3.524 1.244 3.524 2.775 0 1.723-1.286 2.967-2.524 2.967-1.057 0-2.914.124-3.829.105a.416.416 0 0 1-.41-.421v-3.034Zm8.19 14.115c-.476 3.637-6.762 2.68-8 1.79a.399.399 0 0 1-.19-.335v-6.68c0-.21.171-.383.38-.383 0 0 5.715-.765 7.43 1.675.552.794.58 2.412.38 3.933Z" fill="#000"/><path fill-rule="evenodd" clip-rule="evenodd" d="m39.19 3.206 2.44 6.544 6.942.306-5.447 4.345 1.866 6.727-5.8-3.856-5.79 3.856 1.857-6.727-5.447-4.345 6.952-.306 2.428-6.545Zm-16.828 9.071 1.571 2.986 3.353-.296-2.334 2.42 1.315 3.11-3.02-1.483-2.542 2.22.476-3.34-2.886-1.74 3.305-.585.762-3.292Zm-11.476 8.469 1.38 1.589 2-.65-1.085 1.808 1.238 1.713-2.048-.479-1.238 1.713-.18-2.105-2-.65 1.933-.824v-2.115Zm56.733 0-1.38 1.589-2-.65 1.085 1.808-1.238 1.713 2.047-.479 1.238 1.713.181-2.105 2-.65-1.933-.824v-2.115Zm-11.352-8.469-1.581 2.986-3.343-.296 2.333 2.42-1.314 3.11 3.019-1.483 2.533 2.22-.466-3.34 2.885-1.74-3.314-.585-.752-3.292Z" fill="#000"/><defs><linearGradient id="a" x1="0" y1="40" x2="78" y2="40" gradientUnits="userSpaceOnUse"><stop stop-color="#B80101"/><stop offset="1" stop-color="#FD1515"/></linearGradient></defs></svg>