<svg width="80" height="80" viewBox="0 0 80 80" fill="none" xmlns="http://www.w3.org/2000/svg">
<path fill-rule="evenodd" clip-rule="evenodd" d="M52.2461 31.3153C52.2279 33.9084 51.5182 36.2488 50.1291 38.3455H26.8199L26.8047 0L39.0685 0.0060164C42.5137 0.0090246 45.4898 1.15515 47.9968 3.44439C50.5069 5.73663 51.908 8.56434 52.2035 11.9245C52.234 12.2734 52.237 12.6495 52.2158 13.0556L52.2461 31.3153ZM43.3544 12.7036C43.2508 11.5455 42.7909 10.5889 41.9685 9.8338C41.146 9.08175 40.156 8.69971 38.9924 8.69971H35.5045L35.5106 35.6562H38.9984C40.22 35.6592 41.2587 35.238 42.1147 34.3987C42.9706 33.5595 43.4031 32.5306 43.4154 31.3123L43.3849 13.0526C43.3803 12.9938 43.375 12.9358 43.3697 12.8778C43.3643 12.82 43.359 12.7622 43.3544 12.7036ZM51.0425 41.6543C52.194 43.4171 52.8672 45.3905 53.059 47.5744H53.056C53.0865 47.9234 53.0895 48.2994 53.0682 48.7055L53.0986 66.9653C53.0651 70.5601 51.7735 73.6315 49.2239 76.1794C46.6743 78.7273 43.5885 79.9998 39.9697 79.9998L26.8316 79.9938L26.8164 41.6543H51.0425ZM42.9671 70.0457C43.8231 69.2064 44.2556 68.1776 44.2647 66.9593H44.2678L44.3257 48.6995C44.3212 48.6409 44.3158 48.583 44.3105 48.5251L44.3105 48.5251C44.3051 48.4672 44.2998 48.4093 44.2952 48.3506C44.1916 47.1924 43.7287 46.2358 42.9001 45.4807C42.0715 44.7287 41.1028 44.3497 39.988 44.3466H35.5924L35.5802 71.3061H39.9392C41.0998 71.3061 42.1111 70.885 42.9671 70.0457ZM8 25.0947V55.1646L23.3648 40.1296L8 25.0947ZM72.0016 55.111V25.041L56.6367 40.076L72.0016 55.111Z" fill="white"/>
</svg>
