<svg width="80" height="80" viewBox="0 0 80 80" fill="none" xmlns="http://www.w3.org/2000/svg">
<path d="M14.0938 38.5469L14.1721 39.0141C14.1823 38.794 14.1482 38.6519 14.0938 38.5469Z" fill="white"/>
<path d="M79.2428 59.2135C77.7312 54.6435 72.3253 52.17 70.7065 51.5201C68.3504 50.5773 65.9641 50.2405 63.6582 50.2982V49.5191C63.6582 44.7041 61.4799 40.4067 58.0681 37.5858C58.8387 36.2178 59.3954 34.7105 59.6934 33.1077C58.0681 34.2205 55.3935 35.6156 49.1497 37.1876C38.0562 39.9779 35.5225 42.3292 35.5225 42.3292C34.7483 42.8498 34.1048 43.5405 33.5753 44.3233C33.8166 43.173 34.6712 42.1455 34.6712 42.1455C34.6712 42.1455 32.6536 43.1595 31.7487 45.8001C30.9879 48.0116 31.3599 49.7131 31.4136 49.9274C30.8572 47.9742 30.9109 46.188 31.5744 44.5953C33.8032 39.2395 42.3795 36.7828 46.9881 35.4625C47.665 35.2685 48.2514 35.1018 48.744 34.9452C49.0156 34.8602 55.3666 32.8491 55.712 31.1648C55.7821 30.8177 55.6716 30.4706 55.4069 30.2427C54.998 29.8854 54.3879 29.8174 52.4812 30.5353C51.2779 30.9879 50.7718 30.8314 50.6107 30.7429C50.4566 30.6578 50.4167 30.5285 50.4134 30.5285L50.3596 29.3851L49.2569 29.8581C45.8084 31.3383 44.8999 31.0559 44.7527 30.9879C44.7527 30.9471 44.7592 30.8789 44.7694 30.845L45.2551 29.586L43.9282 29.6847C41.9844 29.8309 40.5196 29.4498 39.5711 28.5482C41.3071 28.9395 43.5225 28.8918 45.282 27.7008C46.1265 27.1291 46.6729 27.1496 46.8001 27.2823C46.8642 27.3742 46.9278 27.7179 46.9278 27.9697V29.1504L48.0304 28.7761C53.9422 26.7651 58.5541 29.6166 58.5973 29.6438L58.9594 29.8752L59.355 29.7152C63.018 28.2283 67.3114 23.7639 67.4925 23.5734L68.2232 22.8111L67.3281 22.2565C65.2334 20.9566 62.7232 19.8338 59.9414 18.9218V16.4616C59.9414 8.47541 53.5634 2 45.6975 2H25.4144V17.5369C12.8664 14.876 2.21534 20.1297 1.73943 20.3714L0 21.2493L1.82321 21.9332C9.9707 24.9855 13.1781 28.9088 14.036 30.1576C12.4039 32.839 11.7302 36.5445 11.5559 37.664C0.94177 47.0793 0.630082 56.134 0.620026 56.5186L0.579808 58.4613L2.01425 57.1752C6.39129 53.2452 11.1772 53.3337 11.2208 53.3436L12.1223 53.3744L12.0855 52.459C12.0486 51.5777 12.1056 50.7575 12.2095 50.0229C14.3712 59.7172 23.1421 67.1453 33.1631 67.1453C33.3306 67.1453 33.4982 67.1453 33.6658 67.1387C39.5677 66.9921 42.4231 66.019 45.185 65.0763C47.0884 64.4263 49.0425 63.7664 52.0889 63.3682C51.7403 65.0559 50.2625 66.3321 48.496 66.3321H45.7546C40.8279 67.7441 37.4261 68.0503 34.078 68.0503C33.277 68.0503 32.4793 68.0332 31.6616 68.0096C29.5166 67.9448 27.4085 67.5739 25.4211 66.924V78H48.496C56.4427 78 62.9544 71.7934 63.6015 63.8956C69.1178 65.563 71.1155 69.0677 71.2227 69.265L72.6002 71.8307L72.7943 68.9149C73.1062 64.2428 71.2929 61.3606 70.2107 60.0744C74.0213 57.7197 77.8286 60.0981 77.9995 60.2073L80 61.5001L79.246 59.2168L79.2428 59.2135ZM48.496 45.793C50.5206 45.793 52.166 47.4638 52.166 49.5191V53.4154C50.3025 54.3271 48.8145 55.2324 47.8762 55.8038C47.5712 55.9911 47.3266 56.1407 47.152 56.2362C42.4333 58.87 39.5845 58.4717 37.8887 57.3147C37.4898 57.1005 37.1681 56.818 36.91 56.4912C36.7525 56.2906 36.6184 56.0763 36.5011 55.8482C36.1425 55.144 35.9817 54.3441 35.918 53.6435C35.8241 52.6223 35.9314 51.8161 35.9314 51.8161C36.1459 53.092 36.5414 53.8474 36.91 54.2967V51.0607C41.1395 50.8937 43.4691 53.1194 43.5726 53.2249L44.8498 54.4974L44.9974 52.687C45.2217 49.9174 44.5884 47.6 43.1204 45.793H48.496ZM50.0815 22.6648L49.1497 22.0829L47.3498 20.9634C47.9399 20.8988 48.5564 20.9021 49.1497 20.9362C51.0365 21.0485 52.7189 21.5181 52.7189 21.5181L50.0847 22.6648H50.0815ZM36.2129 14.8011V12.9534H45.7012C47.6014 12.9534 49.1497 14.522 49.1497 16.4548V16.6147C47.2593 16.4003 45.3322 16.2677 43.392 16.2302C35.251 16.0805 29.034 17.7275 27.7303 18.1051C31.179 16.1962 34.078 15.2604 36.2162 14.8011H36.2129ZM2.62422 54.477C2.64768 54.3815 2.67114 54.2797 2.6946 54.1776C2.6946 54.1705 2.6946 54.1638 2.69795 54.1606C2.72142 54.065 2.74823 53.9633 2.77504 53.8611C2.77839 53.8474 2.78174 53.8337 2.78509 53.8204C2.8119 53.7248 2.83537 53.6265 2.86553 53.5276C2.87223 53.5072 2.87893 53.4869 2.88228 53.4662C2.9091 53.371 2.93591 53.2759 2.96607 53.1771C2.97278 53.1497 2.98283 53.1226 2.99288 53.0952C3.02305 53.0002 3.04986 52.9083 3.08002 52.8096C3.09008 52.7755 3.10348 52.7414 3.11354 52.7074C3.1437 52.6156 3.17387 52.5205 3.20738 52.425C3.22079 52.3876 3.23419 52.3469 3.2476 52.3095C3.28111 52.2173 3.31128 52.1222 3.34479 52.0304C3.36155 51.9827 3.37831 51.9349 3.39842 51.8875C3.43193 51.7991 3.46545 51.707 3.49896 51.6185C3.51907 51.5641 3.54253 51.5097 3.56264 51.4553C3.59616 51.3668 3.62967 51.2783 3.66654 51.1899C3.69 51.1321 3.71681 51.0707 3.74027 51.0096C3.77714 50.9245 3.81065 50.8361 3.84752 50.7476C3.87433 50.6828 3.90449 50.6184 3.93129 50.5503C3.96819 50.4651 4.00505 50.38 4.04526 50.2916C4.07543 50.2235 4.10895 50.1521 4.14243 50.0806C4.18268 49.9954 4.21954 49.9103 4.25975 49.8251C4.29326 49.7505 4.33013 49.6757 4.36699 49.601C4.40724 49.5158 4.44744 49.4339 4.48765 49.3488C4.52786 49.2708 4.5681 49.1889 4.60831 49.1075C4.64851 49.0257 4.69211 48.9406 4.73565 48.8592C4.77925 48.7741 4.82614 48.6856 4.87307 48.6004C4.91662 48.5187 4.95687 48.4405 5.00042 48.3588C5.0507 48.2704 5.10098 48.1785 5.15125 48.0867C5.1948 48.0049 5.2384 47.9268 5.28529 47.845C5.33895 47.7533 5.39257 47.6611 5.4462 47.566C5.49309 47.4841 5.54002 47.4027 5.5903 47.3209C5.64727 47.2258 5.70758 47.127 5.76793 47.0285C5.81486 46.9501 5.86175 46.872 5.91203 46.7935C5.97573 46.6913 6.04276 46.5896 6.10642 46.4874C6.15669 46.4089 6.20697 46.3309 6.25725 46.2524C6.32429 46.1506 6.39467 46.0451 6.46505 45.9396C6.51867 45.8612 6.56895 45.7831 6.62257 45.7046C6.6963 45.5991 6.77002 45.4902 6.84709 45.3848C6.90071 45.3067 6.95434 45.2282 7.01134 45.1502C7.08841 45.0413 7.16886 44.9321 7.24928 44.8234C7.30624 44.7452 7.36325 44.6667 7.42356 44.5887C7.50401 44.4798 7.59115 44.3706 7.67491 44.2619C7.73526 44.1838 7.79557 44.102 7.85926 44.0239C7.9464 43.9113 8.04023 43.7958 8.13071 43.6833C8.19106 43.6053 8.25137 43.5305 8.31507 43.4521C8.41224 43.333 8.50945 43.2173 8.61001 43.0982C8.67366 43.0233 8.73401 42.9485 8.79766 42.8736C8.89822 42.7545 9.00212 42.6354 9.10602 42.5197C9.17306 42.4449 9.23671 42.3666 9.30375 42.2918C9.40765 42.1761 9.51489 42.0604 9.61879 41.9447C9.69251 41.8664 9.7629 41.7848 9.83662 41.7064C9.94391 41.5907 10.0545 41.4751 10.1651 41.3594C10.2421 41.2778 10.3159 41.1994 10.393 41.1178C10.507 41.0022 10.6242 40.883 10.7415 40.7673C10.822 40.6856 10.8991 40.6074 10.9795 40.5257C11.1001 40.4032 11.2275 40.2842 11.3515 40.1616C11.4319 40.0834 11.5091 40.0086 11.5895 39.9302C11.7269 39.7975 11.871 39.6648 12.0151 39.5321C12.0855 39.4641 12.1559 39.3994 12.2296 39.3314C12.4475 39.134 12.672 38.9333 12.8966 38.7325L13.1379 38.5216L13.1781 38.2017C13.1781 38.2017 13.1781 38.1779 13.1881 38.1404V38.1336C13.1915 38.1098 13.1982 38.0723 13.2015 38.035C13.2015 38.0213 13.2049 38.0043 13.2082 37.9873C13.2116 37.9566 13.2183 37.926 13.225 37.8921C13.225 37.8716 13.2317 37.8512 13.2351 37.8274C13.2418 37.7866 13.2485 37.7423 13.2585 37.6981C13.2619 37.6742 13.2652 37.6539 13.2686 37.63C13.2786 37.5654 13.292 37.494 13.3054 37.419C13.3054 37.4088 13.3088 37.3986 13.3121 37.3884C13.3189 37.3884 13.3222 37.3816 13.3289 37.3783C13.3456 37.2626 13.3624 37.1468 13.3792 37.0345C13.3792 37.0243 13.3792 37.0175 13.3825 37.0073C13.3993 36.9155 13.4194 36.8201 13.4395 36.7181C13.4395 36.7181 13.4395 36.7113 13.4395 36.7079C13.4596 36.6126 13.4797 36.5105 13.5032 36.4084C13.5065 36.388 13.5099 36.371 13.5166 36.3506C13.5635 36.1328 13.6205 35.9014 13.6808 35.6598C13.6875 35.6326 13.6942 35.6088 13.7009 35.5816C13.7244 35.4829 13.7512 35.3842 13.778 35.2855C13.7847 35.2583 13.7914 35.231 13.7981 35.2038C13.8316 35.0813 13.8652 34.9554 13.902 34.8295C13.9087 34.8091 13.9154 34.7887 13.9188 34.7683C13.9489 34.6628 13.9824 34.554 14.0126 34.4484C14.0227 34.4111 14.036 34.3736 14.0461 34.3396C14.0796 34.2307 14.1132 34.1218 14.15 34.0129C14.1567 33.9925 14.1634 33.9686 14.1701 33.9483C14.2137 33.8189 14.2573 33.693 14.3008 33.5638C14.3142 33.5297 14.3276 33.4923 14.3377 33.4583C14.3746 33.3596 14.4114 33.2609 14.4483 33.1622C14.4617 33.1248 14.4751 33.0874 14.4919 33.0499C14.5421 32.9206 14.5924 32.7948 14.646 32.6654C14.6527 32.6518 14.6594 32.6349 14.6661 32.6212C14.7131 32.5089 14.7633 32.3966 14.8136 32.2843C14.8304 32.2469 14.8471 32.2094 14.8639 32.172C14.9108 32.0699 14.9577 31.9712 15.008 31.8725C15.0214 31.8453 15.0348 31.8181 15.0482 31.791C15.1085 31.6684 15.1722 31.5493 15.2359 31.4302C15.2527 31.403 15.266 31.3758 15.2828 31.3452C15.3364 31.2533 15.3867 31.1614 15.4437 31.0729C15.4638 31.0389 15.4839 31.0083 15.504 30.9742C15.5744 30.862 15.6448 30.7497 15.7219 30.6408L16.0134 30.2189L15.9799 30.1508C17.153 28.2827 17.8233 26.5881 16.7441 25.3631C15.4772 23.9204 8.65021 21.8311 4.63848 21.2322C4.53793 21.188 4.44071 21.1438 4.33686 21.0995C4.45413 21.0553 4.57479 21.0076 4.70214 20.9634C4.75241 20.9431 4.80938 20.926 4.85966 20.9056C4.93677 20.8784 5.01384 20.8477 5.09429 20.8205C5.16129 20.7967 5.23167 20.7729 5.2987 20.749C5.36909 20.7252 5.43947 20.698 5.51319 20.6742C5.59365 20.647 5.68079 20.6163 5.76458 20.5891C5.82824 20.5687 5.89193 20.5448 5.95897 20.5245C6.05279 20.4938 6.15001 20.4633 6.24718 20.4293C6.30753 20.4088 6.36784 20.3883 6.43153 20.3714C6.53543 20.3373 6.64602 20.3033 6.75326 20.2727C6.81023 20.2557 6.86719 20.2386 6.92754 20.2182C7.04486 20.1842 7.16548 20.1467 7.28948 20.1127C7.34314 20.0992 7.39338 20.0822 7.447 20.0685C7.57773 20.031 7.70843 19.9937 7.8425 19.9563C7.89278 19.9426 7.93967 19.929 7.98995 19.9153C8.13071 19.878 8.27486 19.8406 8.41897 19.7997C8.46252 19.7894 8.50611 19.7759 8.553 19.7656C8.70718 19.7248 8.86136 19.6874 9.01888 19.65C9.05574 19.6397 9.09595 19.6329 9.13281 19.6227C9.3004 19.5819 9.46796 19.541 9.63889 19.5037C9.66907 19.4968 9.69586 19.49 9.72603 19.4832C9.907 19.4425 10.0914 19.4015 10.2791 19.3608C10.2958 19.3573 10.3159 19.354 10.3327 19.3505C10.5337 19.3097 10.7349 19.2654 10.9393 19.2281C10.9393 19.2281 10.946 19.2281 10.9493 19.2281C14.1299 18.6087 17.9875 18.2548 22.1333 18.7313C22.8136 18.8095 23.4973 18.9082 24.1911 19.0307C24.1911 19.0307 24.1911 19.0307 24.1944 19.0307C24.4827 19.0817 24.7709 19.1396 25.0625 19.2008C25.0625 19.2008 25.0658 19.2008 25.0692 19.2008C25.1865 19.2246 25.3004 19.2553 25.4177 19.2791C25.5149 19.2995 25.6121 19.3233 25.706 19.3438C25.7831 19.3608 25.8601 19.3811 25.9372 19.3982C25.7596 19.4935 25.5887 19.5922 25.4177 19.6908C23.7219 20.6708 22.2372 21.9162 21.339 23.5052C22.4651 22.3075 23.9129 21.5181 25.4177 20.8954C26.0177 20.647 26.6243 20.4224 27.2276 20.2114C29.2653 19.5207 31.5845 19.0511 33.6892 18.5951C33.7462 18.5849 33.8065 18.5781 33.8635 18.5679C34.0713 18.5372 34.2824 18.5067 34.497 18.476C34.5975 18.4624 34.6947 18.4488 34.7952 18.4352C35.1136 18.3944 35.4387 18.3502 35.7738 18.3127C35.7839 18.3127 35.7973 18.3127 35.8074 18.3093C35.9381 18.2957 36.0789 18.2821 36.2129 18.265C36.4308 18.2413 36.6453 18.2174 36.8698 18.1936C36.9134 18.1903 36.9536 18.1868 36.9972 18.18C37.3558 18.146 37.7211 18.1153 38.0931 18.0847C38.1233 18.0847 38.1534 18.0813 38.1836 18.0779C38.5489 18.0507 38.9242 18.0269 39.3063 18.0064C39.3332 18.0064 39.3599 18.0064 39.3868 18.0031C39.7621 17.9826 40.1476 17.9656 40.5363 17.9554C40.6067 17.9554 40.677 17.952 40.7476 17.9487C41.1297 17.9384 41.5183 17.9282 41.9106 17.9247C41.9774 17.9247 42.0443 17.9247 42.1148 17.9247C42.5271 17.9247 42.9426 17.9247 43.3651 17.9316C43.7741 17.9384 44.1928 17.952 44.6218 17.969C44.8934 17.9792 45.1715 17.9962 45.4496 18.0132C45.6107 18.0234 45.7681 18.0269 45.9287 18.0405C46.2941 18.0643 46.6696 18.0949 47.0448 18.1256C47.1219 18.1324 47.1989 18.1358 47.276 18.1426C47.8897 18.197 48.5197 18.265 49.153 18.3433C52.679 18.7653 56.4459 19.524 59.9483 20.715C61.8754 21.3717 63.7218 22.1543 65.401 23.0833C65.4177 23.0936 65.4344 23.1004 65.4512 23.1106C64.6503 22.92 62.7835 22.5219 59.9483 22.1816C58.2756 21.9809 56.2649 21.8005 53.9325 21.695L55.4302 21.1914C55.4302 21.1914 52.776 20.2352 49.153 19.8541C47.7319 19.7044 46.1603 19.6397 44.5415 19.7589L46.0462 21.661C44.7091 21.7052 43.3112 21.7767 41.8535 21.8822C39.9398 22.0183 38.0495 22.4266 36.2196 23.0527C35.3952 23.3351 34.5807 23.6549 33.7864 24.0225C33.3775 22.6171 32.5665 21.3241 31.4873 20.3883C32.0637 21.7699 32.3821 23.2263 32.4324 24.6929C31.9867 23.5019 31.2527 22.4164 30.3176 21.6031C30.8237 22.8179 31.1253 24.0905 31.2259 25.3802C31.2158 25.387 31.2091 25.3904 31.1991 25.3971C30.8371 23.849 29.9791 22.4027 28.8061 21.3819C29.463 22.9642 29.7881 24.6452 29.7546 26.3295C29.3088 26.6391 28.8698 26.959 28.4408 27.2925C27.9951 26.3738 27.3717 25.5469 26.6176 24.8901C27.0466 25.9212 27.3314 26.9965 27.4689 28.0854C26.755 28.691 26.0746 29.3376 25.4278 30.0079C23.6616 31.8352 22.15 33.8801 20.9837 36.0614C17.8333 41.9548 16.7776 49.2538 18.4969 55.3956C18.4969 55.3956 14.1333 50.8801 13.9355 41.2233C12.5681 41.9243 7.1521 45.1602 2.63092 54.477H2.62422Z" fill="white"/>
</svg>
