<svg width="83" height="80" viewBox="0 0 83 80" fill="none" xmlns="http://www.w3.org/2000/svg">
<path d="M55.012 0.350524C73.4888 -2.70735 87.7047 14.781 80.0069 31.7955L64.8434 66.8981C57.6646 82.7675 36.7686 84.5219 25.9481 70.5116L4.99587 43.3824C-5.82469 29.3718 1.86463 9.14611 19.0974 6.29491L55.012 0.350524Z" fill="#069BE8"/>
<path d="M45.8991 56.9009C41.9297 56.9009 38.3313 56.043 35.1039 54.3273C31.9136 52.5744 29.391 50.1687 27.5361 47.1103C25.7183 44.0145 24.8094 40.527 24.8094 36.6482C24.8094 32.7693 25.7183 29.3004 27.5361 26.242C29.391 23.1465 31.9136 20.7406 35.1039 19.0251C38.3313 17.272 41.9483 16.3955 45.9548 16.3955C49.3305 16.3955 52.3725 16.9923 55.0805 18.1858C57.8258 19.3793 60.1257 21.0951 61.9804 23.3328L56.1935 28.7037C53.5595 25.6453 50.2949 24.1161 46.3998 24.1161C43.9887 24.1161 41.8371 24.6569 39.945 25.7387C38.0532 26.7828 36.5692 28.2563 35.4934 30.1583C34.4548 32.0606 33.9355 34.2237 33.9355 36.6482C33.9355 39.0727 34.4548 41.2358 35.4934 43.1381C36.5692 45.0401 38.0532 46.5321 39.945 47.6137C41.8371 48.6581 43.9887 49.1803 46.3998 49.1803C50.2949 49.1803 53.5595 47.6323 56.1935 44.5367L61.9804 49.9076C60.1257 52.1827 57.8258 53.917 55.0805 55.1106C52.3353 56.3041 49.2748 56.9009 45.8991 56.9009Z" fill="white"/>
</svg>
