<svg width="86" height="44" viewBox="0 0 86 44" fill="none" xmlns="http://www.w3.org/2000/svg">
<g filter="url(#filter0_ddd_3451_247)">
<path d="M27.0208 2H22.0718C18.4149 2 17.2203 3.01551 15.8307 7.3448C14.8799 10.3112 14.2461 13.6516 14.2461 15.5758C14.2461 17.1257 14.5874 18.2215 15.3188 18.9698C16.0745 19.718 16.879 20.0119 20.4383 20.0119C23.2419 19.9852 24.3878 20.2792 24.7047 18.6223L25.363 15.843H24.9973C24.5097 16.725 24.0465 16.9922 22.7544 16.9922H20.414C19.4388 16.9922 19.195 16.9387 18.8294 16.7516C18.293 16.4309 18.0249 15.843 18.0249 15.0413C18.0249 14.5335 18.098 13.5447 18.293 12.5293C18.7075 10.1775 19.1219 8.52061 19.7314 6.94393C20.414 5.20687 20.9991 4.80602 22.9738 4.80602H25.0216C26.1674 4.80602 26.4112 4.64568 26.6306 3.68361L27.0208 2ZM33.5825 2.96206C33.6069 2.775 33.6312 2.61465 33.6312 2.53448C33.6312 2.18707 33.3631 2 32.8267 2H29.4624L29.3893 2.37413C29.7306 2.50775 29.8525 2.6681 29.8525 2.96206C29.8525 3.17585 29.8281 3.41637 29.7306 3.7905L26.4638 18.7292C26.3907 18.9964 26.3907 19.1301 26.3907 19.2637C26.3907 19.6645 26.6101 19.8249 27.1708 19.8249H34.2895C35.2159 19.8249 35.5084 19.5844 35.7279 18.5689L36.2885 16.0301H35.8985C35.5572 16.6982 35.3865 16.8051 34.6308 16.8051H30.5595L33.5825 2.96206ZM46.5647 15.362L46.6622 18.8361C46.6866 19.6111 46.8329 19.8249 47.3693 19.8249H50.7092L50.758 19.4775C50.3435 19.2905 50.2948 19.1835 50.2703 18.4887L49.7583 2.96206C49.734 2.13362 49.6121 2 48.9295 2H44.5657L44.4925 2.37413C44.8338 2.53448 44.9313 2.64138 44.9313 2.8819C44.9313 3.01551 44.8582 3.20258 44.7363 3.44309L36.5693 18.4352C36.3743 18.8094 36.2768 19.0499 36.2768 19.237C36.2768 19.6111 36.5449 19.8249 37.0325 19.8249H40.2993L40.3724 19.4775C39.958 19.3973 39.7873 19.2637 39.7873 18.9698C39.7873 18.8094 39.8605 18.6223 39.9824 18.3818L41.5182 15.362H46.5647ZM46.5159 12.6628H42.8835L46.3453 5.79481L46.5159 12.6628ZM67.1102 19.8249L74.1557 3.44309C74.3508 2.96206 74.4239 2.72155 74.4239 2.53448C74.4239 2.18707 74.1557 2 73.6437 2H70.4744L70.4013 2.37413C70.6207 2.50775 70.7183 2.6681 70.7183 2.90862C70.7183 3.01551 70.6939 3.20258 70.6207 3.36293L66.3788 14.106V2H62.7707L57.578 14.2128L57.6755 3.12241C57.6755 2.24051 57.4804 2 56.676 2H53.6285L53.5798 2.37413C54.043 2.58793 54.1162 2.74827 54.1162 3.36293V18.4887C54.1162 19.5309 54.3356 19.8249 55.0913 19.8249H58.2362L62.917 8.76114V18.6491C62.917 19.5844 63.1364 19.8249 63.9409 19.8249H67.1102Z" fill="url(#paint0_linear_3451_247)"/>
</g>
<g filter="url(#filter1_ddd_3451_247)">
<path d="M14.1775 30.9775C14.8956 30.6627 15.3025 30.3216 15.7333 29.6919C16.2838 28.7999 16.6667 27.3044 16.6667 25.9925C16.6667 24.1297 15.6136 23.2376 13.3877 23.2376H6.03971L5.96791 23.6049C6.27904 23.7099 6.42266 23.8936 6.42266 24.2084C6.42266 24.3921 6.37484 24.6282 6.30304 24.9955L3.09572 39.662C3.0479 39.8456 3 40.0818 3 40.1867C3 40.5802 3.23933 40.7377 3.78988 40.7377H11.066C13.1004 40.7377 14.1296 40.1343 14.8716 38.4813C15.3982 37.3531 15.9247 34.7556 15.9247 33.4176C15.9247 32.1319 15.4461 31.4498 14.1775 30.9775ZM8.88791 29.6657L9.7017 25.8613H11.5447C12.3585 25.8613 12.7654 25.9138 12.9568 25.9925C13.292 26.1499 13.4595 26.491 13.4595 26.9633C13.4595 27.6979 13.1244 28.7736 12.7414 29.1409C12.3825 29.5083 11.9516 29.6394 10.8985 29.6657H10.1804H8.88791ZM7.11681 37.7729L8.26565 32.4468H10.5395C11.9276 32.4468 12.3825 32.7879 12.3825 33.7586C12.3825 34.6507 11.9994 36.1987 11.5687 36.9333C11.2336 37.5368 10.6831 37.7729 9.58207 37.7729H7.11681ZM24.1225 24.1822C24.1469 23.9985 24.1705 23.8411 24.1705 23.7624C24.1705 23.395 23.9313 23.2376 23.4048 23.2376H20.0778L20.006 23.6049C20.3171 23.7099 20.4608 23.8936 20.4608 24.2084C20.4608 24.3921 20.4369 24.602 20.3411 24.9955L17.828 36.5135C17.6844 37.1432 17.7083 37.5892 17.7083 37.9566C17.7083 38.6649 17.9237 39.2946 18.3545 39.8456C19.0486 40.6852 20.5326 41 23.0696 41C25.2236 41 26.8516 40.6852 27.8088 39.9243C28.718 39.2159 29.1254 38.4026 29.628 36.1725L32.2124 24.3133C32.2368 24.1559 32.2847 23.8936 32.2847 23.7886C32.2847 23.395 32.0692 23.2376 31.5187 23.2376H28.2398L28.1438 23.6049C28.4553 23.7099 28.5984 23.8936 28.5984 24.2084C28.5984 24.3921 28.5748 24.6282 28.4789 24.9955L26.1572 35.6477C25.7506 37.5368 25.2 37.9828 23.4766 37.9828C22.0165 37.9828 21.4182 37.6679 21.4182 36.8546C21.4182 36.6709 21.4661 36.3299 21.5379 36.015L24.1225 24.1822ZM32.6637 36.6447H32.2807L31.6342 39.6095C31.6106 39.7669 31.5862 39.9505 31.5862 40.0555C31.5862 40.5277 31.8261 40.7377 32.4002 40.7377H38.3123C40.5624 40.7377 41.9742 39.6095 42.6922 37.2219C43.0509 36.0937 43.3623 34.2834 43.3623 33.4176C43.3623 32.027 42.7882 31.1874 41.4952 30.6889L39.1499 29.7706C38.0968 29.3771 37.7617 29.036 37.7617 28.3801C37.7617 27.8553 38.0008 26.9633 38.2643 26.5435C38.5993 26.045 39.0539 25.8613 40.107 25.8613H42.7882C43.6494 25.8613 43.8893 25.6777 44.0804 24.7594L44.4154 23.2376H39.341C37.4267 23.2376 36.3492 23.6574 35.5839 24.6807C34.8415 25.6777 34.0283 28.4325 34.0283 29.9543C34.0283 30.5578 34.1478 31.0825 34.4105 31.5285C34.7455 32.0532 35.0814 32.3156 36.0385 32.6829L38.2407 33.5225C39.2458 33.9161 39.4849 34.2047 39.4849 34.9918C39.4849 35.4902 39.341 36.1987 39.1263 36.6709C38.7433 37.4581 38.1447 37.7729 36.9241 37.7729H34.2673C32.9743 37.7729 32.6873 37.5368 32.6637 36.6447ZM53.164 25.8613H56.0119C56.9219 25.8613 57.2089 25.6514 57.4 24.8381L57.9026 22.503H57.5919C57.2805 23.1064 56.9698 23.2376 55.9639 23.2376H47.3959C46.3907 23.2376 46.2232 23.2376 46.0313 24.1559L45.4808 26.596H45.8158C46.1029 26.0187 46.3428 25.8613 46.9884 25.8613H49.5736L46.5583 39.662C46.5103 39.8981 46.4859 40.0555 46.4859 40.1605C46.4859 40.5802 46.7014 40.7377 47.2519 40.7377H50.5552L50.6503 40.3966C50.3397 40.2917 50.1958 40.0818 50.1958 39.7669C50.1958 39.6095 50.2437 39.3209 50.3153 38.9798L53.164 25.8613ZM60.3097 37.7729L61.1953 33.7324C61.4108 32.7617 61.7223 32.4993 62.655 32.4993H66.2218C66.8675 32.4993 67.1074 32.2894 67.2505 31.686L67.6815 29.6919H62.0809L62.9185 25.8613H67.7059C68.6386 25.8613 68.9501 25.6514 69.1176 24.943L69.5006 23.2376H59.233L59.1606 23.6049C59.4721 23.7099 59.6152 23.8936 59.6152 24.2084C59.6152 24.3921 59.5681 24.6282 59.4957 24.9955L56.2884 39.662C56.2412 39.8456 56.1932 40.0818 56.1932 40.1867C56.1932 40.5802 56.4323 40.7377 56.9828 40.7377H64.9767C66.0298 40.7377 66.2454 40.554 66.4853 39.4258L67.0358 36.9595H66.7243C66.3177 37.6679 66.0778 37.7729 64.8092 37.7729H60.3097ZM81.4679 37.7729H80.8694C80.3188 37.7729 80.1513 37.6155 79.9602 37.0645L78.572 32.8141C80.1513 32.578 80.9889 32.1057 81.7314 30.9775C82.5446 29.7706 83 28.1177 83 26.491C83 25.2841 82.7121 24.4708 82.1144 23.946C81.5395 23.4213 80.8694 23.2376 79.4576 23.2376H71.8939L71.8224 23.6049C72.133 23.7099 72.277 23.8936 72.277 24.2084C72.277 24.3921 72.229 24.6282 72.1574 24.9955L68.9501 39.662C68.9021 39.8718 68.8785 40.0555 68.8785 40.1867C68.8785 40.5802 69.0932 40.7377 69.6438 40.7377H72.9471L73.043 40.3966C72.7315 40.2917 72.5884 40.0818 72.5884 39.7669C72.5884 39.6095 72.6356 39.3209 72.708 38.9798L74.0481 32.8141H75.2924L77.0635 39.6882C77.279 40.5015 77.5425 40.7377 78.3086 40.7377H79.8407C80.6303 40.7377 80.8694 40.5277 81.0613 39.662L81.4679 37.7729ZM74.6223 30.2429L75.5802 25.8613H77.6141C78.9307 25.8613 79.3617 26.2024 79.3617 27.1994C79.3617 28.3538 78.9307 29.4296 78.2842 29.8755C77.902 30.138 77.3986 30.2429 76.5374 30.2429H74.6223Z" fill="url(#paint1_linear_3451_247)"/>
</g>
<defs>
<filter id="filter0_ddd_3451_247" x="12.5343" y="0.716124" width="63.6015" height="21.4405" filterUnits="userSpaceOnUse" color-interpolation-filters="sRGB">
<feFlood flood-opacity="0" result="BackgroundImageFix"/>
<feColorMatrix in="SourceAlpha" type="matrix" values="0 0 0 0 0 0 0 0 0 0 0 0 0 0 0 0 0 0 127 0" result="hardAlpha"/>
<feOffset dy="0.427961"/>
<feGaussianBlur stdDeviation="0.855918"/>
<feComposite in2="hardAlpha" operator="out"/>
<feColorMatrix type="matrix" values="0 0 0 0 0 0 0 0 0 0 0 0 0 0 0 0 0 0 0.45 0"/>
<feBlend mode="normal" in2="BackgroundImageFix" result="effect1_dropShadow_3451_247"/>
<feColorMatrix in="SourceAlpha" type="matrix" values="0 0 0 0 0 0 0 0 0 0 0 0 0 0 0 0 0 0 127 0" result="hardAlpha"/>
<feOffset dy="0.427961"/>
<feComposite in2="hardAlpha" operator="out"/>
<feColorMatrix type="matrix" values="0 0 0 0 1 0 0 0 0 1 0 0 0 0 1 0 0 0 0.25 0"/>
<feBlend mode="normal" in2="effect1_dropShadow_3451_247" result="effect2_dropShadow_3451_247"/>
<feColorMatrix in="SourceAlpha" type="matrix" values="0 0 0 0 0 0 0 0 0 0 0 0 0 0 0 0 0 0 127 0" result="hardAlpha"/>
<feOffset dy="-0.855918"/>
<feComposite in2="hardAlpha" operator="out"/>
<feColorMatrix type="matrix" values="0 0 0 0 1 0 0 0 0 1 0 0 0 0 1 0 0 0 0.25 0"/>
<feBlend mode="normal" in2="effect2_dropShadow_3451_247" result="effect3_dropShadow_3451_247"/>
<feBlend mode="normal" in="SourceGraphic" in2="effect3_dropShadow_3451_247" result="shape"/>
</filter>
<filter id="filter1_ddd_3451_247" x="0.85888" y="20.8972" width="84.2822" height="22.7792" filterUnits="userSpaceOnUse" color-interpolation-filters="sRGB">
<feFlood flood-opacity="0" result="BackgroundImageFix"/>
<feColorMatrix in="SourceAlpha" type="matrix" values="0 0 0 0 0 0 0 0 0 0 0 0 0 0 0 0 0 0 127 0" result="hardAlpha"/>
<feOffset dy="0.535282"/>
<feGaussianBlur stdDeviation="1.07056"/>
<feComposite in2="hardAlpha" operator="out"/>
<feColorMatrix type="matrix" values="0 0 0 0 0 0 0 0 0 0 0 0 0 0 0 0 0 0 0.45 0"/>
<feBlend mode="normal" in2="BackgroundImageFix" result="effect1_dropShadow_3451_247"/>
<feColorMatrix in="SourceAlpha" type="matrix" values="0 0 0 0 0 0 0 0 0 0 0 0 0 0 0 0 0 0 127 0" result="hardAlpha"/>
<feOffset dy="0.535282"/>
<feComposite in2="hardAlpha" operator="out"/>
<feColorMatrix type="matrix" values="0 0 0 0 1 0 0 0 0 1 0 0 0 0 1 0 0 0 0.25 0"/>
<feBlend mode="normal" in2="effect1_dropShadow_3451_247" result="effect2_dropShadow_3451_247"/>
<feColorMatrix in="SourceAlpha" type="matrix" values="0 0 0 0 0 0 0 0 0 0 0 0 0 0 0 0 0 0 127 0" result="hardAlpha"/>
<feOffset dy="-1.07056"/>
<feComposite in2="hardAlpha" operator="out"/>
<feColorMatrix type="matrix" values="0 0 0 0 1 0 0 0 0 1 0 0 0 0 1 0 0 0 0.25 0"/>
<feBlend mode="normal" in2="effect2_dropShadow_3451_247" result="effect3_dropShadow_3451_247"/>
<feBlend mode="normal" in="SourceGraphic" in2="effect3_dropShadow_3451_247" result="shape"/>
</filter>
<linearGradient id="paint0_linear_3451_247" x1="84.2133" y1="0.558376" x2="84.2133" y2="21.3862" gradientUnits="userSpaceOnUse">
<stop stop-color="#144B94"/>
<stop offset="0.179319" stop-color="#0155BB"/>
<stop offset="0.277877" stop-color="#0471FF"/>
<stop offset="0.463542" stop-color="#0E4693"/>
<stop offset="0.489583" stop-color="#2EB1FF"/>
<stop offset="0.651042" stop-color="#85C1FE"/>
<stop offset="0.748061" stop-color="#31708A"/>
<stop offset="0.968808" stop-color="#053C80"/>
<stop offset="0.997208" stop-color="#006988"/>
</linearGradient>
<linearGradient id="paint1_linear_3451_247" x1="13.815" y1="21.8223" x2="13.815" y2="42.2705" gradientUnits="userSpaceOnUse">
<stop stop-color="#144B94"/>
<stop offset="0.179319" stop-color="#0155BB"/>
<stop offset="0.277877" stop-color="#0471FF"/>
<stop offset="0.463542" stop-color="#0E4693"/>
<stop offset="0.489583" stop-color="#2EB1FF"/>
<stop offset="0.651042" stop-color="#85C1FE"/>
<stop offset="0.748061" stop-color="#31708A"/>
<stop offset="0.968808" stop-color="#053C80"/>
<stop offset="0.997208" stop-color="#006988"/>
</linearGradient>
</defs>
</svg>
