<svg id="eZn7Vocvqw51" xmlns="http://www.w3.org/2000/svg" xmlns:xlink="http://www.w3.org/1999/xlink" viewBox="0 0 500 500" shape-rendering="geometricPrecision" text-rendering="geometricPrecision" project-id="2171d51d91ef4ead9d8609181386c262" export-id="084fcec3d3454e79903bef920e22c4bc" cached="false">
<style><![CDATA[
#eZn7Vocvqw536_ts {animation: eZn7Vocvqw536_ts__ts 2000ms linear infinite normal forwards}@keyframes eZn7Vocvqw536_ts__ts { 0% {transform: translate(256.381559px,466.520944px) scale(2.744252,2.744252);animation-timing-function: cubic-bezier(0.455,0.03,0.515,0.955)} 38% {transform: translate(256.381559px,466.520944px) scale(2.5,2.9);animation-timing-function: cubic-bezier(0.455,0.03,0.515,0.955)} 99% {transform: translate(256.381559px,466.520944px) scale(2.744252,2.744252)} 100% {transform: translate(256.381559px,466.520944px) scale(2.744252,2.744252)}} #eZn7Vocvqw539_ts {animation: eZn7Vocvqw539_ts__ts 2000ms linear infinite normal forwards}@keyframes eZn7Vocvqw539_ts__ts { 0% {transform: translate(343.599995px,346px) scale(1.03,0.9);animation-timing-function: cubic-bezier(0.645,0.045,0.355,1)} 47.5% {transform: translate(343.599995px,346px) scale(1,1);animation-timing-function: cubic-bezier(0.645,0.045,0.355,1)} 91.5% {transform: translate(343.599995px,346px) scale(1.03,0.9)} 100% {transform: translate(343.599995px,346px) scale(1.03,0.9)}} #eZn7Vocvqw552_ts {animation: eZn7Vocvqw552_ts__ts 2000ms linear infinite normal forwards}@keyframes eZn7Vocvqw552_ts__ts { 0% {transform: translate(344.274572px,365.93403px) scale(1,1);animation-timing-function: cubic-bezier(0.445,0.05,0.55,0.95)} 47.5% {transform: translate(344.274572px,365.93403px) scale(1.1,1.2);animation-timing-function: cubic-bezier(0.445,0.05,0.55,0.95)} 91.5% {transform: translate(344.274572px,365.93403px) scale(1,1)} 100% {transform: translate(344.274572px,365.93403px) scale(1,1)}} #eZn7Vocvqw592_ts {animation: eZn7Vocvqw592_ts__ts 2000ms linear infinite normal forwards}@keyframes eZn7Vocvqw592_ts__ts { 0% {transform: translate(302.300003px,362.200012px) scale(1,1)} 13.5% {transform: translate(302.300003px,362.200012px) scale(1,1)} 17.5% {transform: translate(302.300003px,362.200012px) scale(1,1)} 58% {transform: translate(302.300003px,362.200012px) scale(1.1,1.1)} 62% {transform: translate(302.300003px,362.200012px) scale(1.1,1.1)} 80.5% {transform: translate(302.300003px,362.200012px) scale(1,1)} 84.5% {transform: translate(302.300003px,362.200012px) scale(1,1)} 96.5% {transform: translate(302.300003px,362.200012px) scale(1,1)} 100% {transform: translate(302.300003px,362.200012px) scale(1,1)}} #eZn7Vocvqw5118_ts {animation: eZn7Vocvqw5118_ts__ts 2000ms linear infinite normal forwards}@keyframes eZn7Vocvqw5118_ts__ts { 0% {transform: translate(342.020401px,352.600021px) scale(1,1)} 17.5% {transform: translate(342.020401px,352.600021px) scale(1,1)} 62% {transform: translate(342.020401px,352.600021px) scale(1.1,1.1)} 84.5% {transform: translate(342.020401px,352.600021px) scale(1,1)} 100% {transform: translate(342.020401px,352.600021px) scale(1,1)}} #eZn7Vocvqw5157_ts {animation: eZn7Vocvqw5157_ts__ts 2000ms linear infinite normal forwards}@keyframes eZn7Vocvqw5157_ts__ts { 0% {transform: translate(327.449997px,349.600006px) scale(1,1)} 10.5% {transform: translate(327.449997px,349.600006px) scale(1,1)} 16% {transform: translate(327.449997px,349.600006px) scale(1,1)} 60.5% {transform: translate(327.449997px,349.600006px) scale(1.1,1.1)} 83% {transform: translate(327.449997px,349.600006px) scale(1,1)} 100% {transform: translate(327.449997px,349.600006px) scale(1,1)}} #eZn7Vocvqw5205_ts {animation: eZn7Vocvqw5205_ts__ts 2000ms linear infinite normal forwards}@keyframes eZn7Vocvqw5205_ts__ts { 0% {transform: translate(320.820254px,367.166696px) scale(1,1)} 0.5% {transform: translate(320.820254px,367.166696px) scale(1,1)} 10.5% {transform: translate(320.820254px,367.166696px) scale(1,1)} 55% {transform: translate(320.820254px,367.166696px) scale(1.1,1.1)} 77.5% {transform: translate(320.820254px,367.166696px) scale(1,1)} 100% {transform: translate(320.820254px,367.166696px) scale(1,1)}} #eZn7Vocvqw5231_ts {animation: eZn7Vocvqw5231_ts__ts 2000ms linear infinite normal forwards}@keyframes eZn7Vocvqw5231_ts__ts { 0% {transform: translate(348.400009px,357.300003px) scale(1,1)} 0.5% {transform: translate(348.400009px,357.300003px) scale(1,1)} 13.5% {transform: translate(348.400009px,357.300003px) scale(1,1)} 15% {transform: translate(348.400009px,357.300003px) scale(1,1)} 17.5% {transform: translate(348.400009px,357.300003px) scale(1,1)} 58% {transform: translate(348.400009px,357.300003px) scale(1.1,1.1)} 59.5% {transform: translate(348.400009px,357.300003px) scale(1.1,1.1)} 62% {transform: translate(348.400009px,357.300003px) scale(1.1,1.1)} 80.5% {transform: translate(348.400009px,357.300003px) scale(1,1)} 82% {transform: translate(348.400009px,357.300003px) scale(1,1)} 84.5% {transform: translate(348.400009px,357.300003px) scale(1,1)} 100% {transform: translate(348.400009px,357.300003px) scale(1,1)}} #eZn7Vocvqw5267_ts {animation: eZn7Vocvqw5267_ts__ts 2000ms linear infinite normal forwards}@keyframes eZn7Vocvqw5267_ts__ts { 0% {transform: translate(380.350006px,355.5px) scale(1,1)} 0.5% {transform: translate(380.350006px,355.5px) scale(1,1)} 11% {transform: translate(380.350006px,355.5px) scale(1,1)} 55.5% {transform: translate(380.350006px,355.5px) scale(1.1,1.1)} 78% {transform: translate(380.350006px,355.5px) scale(1,1)} 100% {transform: translate(380.350006px,355.5px) scale(1,1)}} #eZn7Vocvqw5277_ts {animation: eZn7Vocvqw5277_ts__ts 2000ms linear infinite normal forwards}@keyframes eZn7Vocvqw5277_ts__ts { 0% {transform: translate(365.345886px,359.598038px) scale(1,1)} 44.5% {transform: translate(365.345886px,359.598038px) scale(1.1,1.1)} 89% {transform: translate(365.345886px,359.598038px) scale(1,1)} 100% {transform: translate(365.345886px,359.598038px) scale(1,1)}} #eZn7Vocvqw5295_tr {animation: eZn7Vocvqw5295_tr__tr 2000ms linear infinite normal forwards}@keyframes eZn7Vocvqw5295_tr__tr { 0% {transform: translate(309.328567px,484.082149px) rotate(114.133601deg)} 31.5% {transform: translate(309.328567px,484.082149px) rotate(114.133601deg)} 72.5% {transform: translate(309.328567px,484.082149px) rotate(-100deg)} 100% {transform: translate(309.328567px,484.082149px) rotate(-100deg)}} #eZn7Vocvqw5295_ts {animation: eZn7Vocvqw5295_ts__ts 2000ms linear infinite normal forwards}@keyframes eZn7Vocvqw5295_ts__ts { 0% {transform: scale(0.3,0.3)} 31.5% {transform: scale(0.3,0.3)} 73% {transform: scale(1,1)} 100% {transform: scale(1,1)}} #eZn7Vocvqw5295 {animation: eZn7Vocvqw5295_c_o 2000ms linear infinite normal forwards}@keyframes eZn7Vocvqw5295_c_o { 0% {opacity: 0} 31.5% {opacity: 0} 44% {opacity: 1} 57% {opacity: 1} 72% {opacity: 0} 100% {opacity: 0}} #eZn7Vocvqw5297_tr {animation: eZn7Vocvqw5297_tr__tr 2000ms linear infinite normal forwards}@keyframes eZn7Vocvqw5297_tr__tr { 0% {transform: translate(309.328567px,484.082149px) rotate(114.133601deg)} 27.5% {transform: translate(309.328567px,484.082149px) rotate(114.133601deg)} 68.5% {transform: translate(309.328567px,484.082149px) rotate(-100deg)} 100% {transform: translate(309.328567px,484.082149px) rotate(-100deg)}} #eZn7Vocvqw5297_ts {animation: eZn7Vocvqw5297_ts__ts 2000ms linear infinite normal forwards}@keyframes eZn7Vocvqw5297_ts__ts { 0% {transform: scale(0.3,0.3)} 27.5% {transform: scale(0.3,0.3)} 69% {transform: scale(1,1)} 100% {transform: scale(1,1)}} #eZn7Vocvqw5297 {animation: eZn7Vocvqw5297_c_o 2000ms linear infinite normal forwards}@keyframes eZn7Vocvqw5297_c_o { 0% {opacity: 0} 27.5% {opacity: 0} 40% {opacity: 1} 53% {opacity: 1} 68% {opacity: 0} 100% {opacity: 0}} #eZn7Vocvqw5299_tr {animation: eZn7Vocvqw5299_tr__tr 2000ms linear infinite normal forwards}@keyframes eZn7Vocvqw5299_tr__tr { 0% {transform: translate(309.328567px,484.082149px) rotate(114.133601deg)} 23% {transform: translate(309.328567px,484.082149px) rotate(114.133601deg)} 64% {transform: translate(309.328567px,484.082149px) rotate(-100deg)} 100% {transform: translate(309.328567px,484.082149px) rotate(-100deg)}} #eZn7Vocvqw5299_ts {animation: eZn7Vocvqw5299_ts__ts 2000ms linear infinite normal forwards}@keyframes eZn7Vocvqw5299_ts__ts { 0% {transform: scale(0.3,0.3)} 23% {transform: scale(0.3,0.3)} 64.5% {transform: scale(1,1)} 100% {transform: scale(1,1)}} #eZn7Vocvqw5299 {animation: eZn7Vocvqw5299_c_o 2000ms linear infinite normal forwards}@keyframes eZn7Vocvqw5299_c_o { 0% {opacity: 0} 23% {opacity: 0} 35.5% {opacity: 1} 48.5% {opacity: 1} 63.5% {opacity: 0} 100% {opacity: 0}} #eZn7Vocvqw5301_tr {animation: eZn7Vocvqw5301_tr__tr 2000ms linear infinite normal forwards}@keyframes eZn7Vocvqw5301_tr__tr { 0% {transform: translate(309.328567px,484.082149px) rotate(114.133601deg)} 11% {transform: translate(309.328567px,484.082149px) rotate(114.133601deg)} 52% {transform: translate(309.328567px,484.082149px) rotate(-100deg)} 100% {transform: translate(309.328567px,484.082149px) rotate(-100deg)}} #eZn7Vocvqw5301_ts {animation: eZn7Vocvqw5301_ts__ts 2000ms linear infinite normal forwards}@keyframes eZn7Vocvqw5301_ts__ts { 0% {transform: scale(0.3,0.3)} 11% {transform: scale(0.3,0.3)} 52.5% {transform: scale(1,1)} 100% {transform: scale(1,1)}} #eZn7Vocvqw5301 {animation: eZn7Vocvqw5301_c_o 2000ms linear infinite normal forwards}@keyframes eZn7Vocvqw5301_c_o { 0% {opacity: 0} 11% {opacity: 0} 23.5% {opacity: 1} 36.5% {opacity: 1} 51.5% {opacity: 0} 100% {opacity: 0}} #eZn7Vocvqw5303_to {animation: eZn7Vocvqw5303_to__to 2000ms linear infinite normal forwards}@keyframes eZn7Vocvqw5303_to__to { 0% {transform: translate(343.368164px,320.175926px);animation-timing-function: cubic-bezier(0.645,0.045,0.355,1)} 47.5% {transform: translate(343.368164px,305.600006px);animation-timing-function: cubic-bezier(0.645,0.045,0.355,1)} 91.5% {transform: translate(343.368164px,320.175926px)} 100% {transform: translate(343.368164px,320.175926px)}} #eZn7Vocvqw5303_ts {animation: eZn7Vocvqw5303_ts__ts 2000ms linear infinite normal forwards}@keyframes eZn7Vocvqw5303_ts__ts { 0% {transform: scale(1,1.2);animation-timing-function: cubic-bezier(0.645,0.045,0.355,1)} 47.5% {transform: scale(1,1);animation-timing-function: cubic-bezier(0.645,0.045,0.355,1)} 91.5% {transform: scale(1,1.2)} 100% {transform: scale(1,1.2)}}
]]></style>
<defs><path id="eZn7Vocvqw517" d="M354.5,346.8c-3.5,1.5-5.2,5.6-3.7,9.2c1.5,3.5,5.6,5.2,9.2,3.7c3.5-1.5,5.2-5.6,3.7-9.2s-5.6-5.2-9.2-3.7Z"/><path id="eZn7Vocvqw518" d="M388.5,360.3c.1-3.9-2.9-7.1-6.7-7.2s-7.1,2.9-7.2,6.7c-.1,3.9,2.9,7.1,6.7,7.2c3.8.2,7-2.8,7.2-6.7Z"/><path id="eZn7Vocvqw519" d="M303.9,350.9c-1.9,3.4-.7,7.6,2.6,9.5c3.4,1.9,7.6.7,9.5-2.6c1.9-3.4.7-7.6-2.6-9.5-3.4-1.9-7.6-.7-9.5,2.6Z"/><path id="eZn7Vocvqw520" d="M305.8,356.1c-3.3-1.9-7.6-.7-9.5,2.6s-.7,7.6,2.6,9.5s7.6.7,9.5-2.6.8-7.6-2.6-9.5Z"/><path id="eZn7Vocvqw521" d="M321.9,360.2c3.8.8,7.5-1.6,8.3-5.4s-1.6-7.5-5.4-8.3-7.5,1.6-8.3,5.4s1.7,7.5,5.4,8.3Z"/><path id="eZn7Vocvqw522" d="M336.8,348c-2.5,2.9-2.2,7.3.7,9.9c2.9,2.5,7.3,2.2,9.9-.7c2.5-2.9,2.2-7.3-.7-9.9-3-2.5-7.4-2.2-9.9.7Z"/><path id="eZn7Vocvqw523" d="M386.5,357.4c-3.9,0-7,3.1-7,7s3.1,7,7,7s7-3.1,7-7-3.2-7-7-7Z"/><path id="eZn7Vocvqw524" d="M373.1,343.5c-3.3.4-5.3,3.4-4.5,6.7.9,3.3,4.3,5.6,7.6,5.2s5.3-3.4,4.5-6.7c-.9-3.3-4.3-5.6-7.6-5.2Z"/><path id="eZn7Vocvqw525" d="M334.8,352.5c-3.7.7-5.7,4.2-4.5,7.8s5.1,6,8.8,5.3s5.7-4.2,4.5-7.8-5.2-6-8.8-5.3Z"/><path id="eZn7Vocvqw526" d="M316,349.5c-3.3-.8-6.2,1.4-6.5,4.7-.3,3.4,2,6.7,5.3,7.5s6.2-1.4,6.5-4.7c.4-3.4-2-6.7-5.3-7.5Z"/><path id="eZn7Vocvqw527" d="M327.1,364.9c1.2-3.7-.9-7.6-4.5-8.8-3.7-1.2-7.6.9-8.8,4.5s.9,7.6,4.5,8.8s7.7-.9,8.8-4.5Z"/><path id="eZn7Vocvqw528" d="M363.2,365.7c.6-3.8-2.1-7.4-5.9-7.9-3.8-.6-7.4,2.1-7.9,5.9-.6,3.8,2.1,7.4,5.9,7.9c3.8.6,7.4-2,7.9-5.9Z"/><path id="eZn7Vocvqw529" d="M352.1,370.7c.6-3.8-2.1-7.4-5.9-7.9-3.8-.6-7.4,2.1-7.9,5.9-.6,3.8,2.1,7.4,5.9,7.9s7.3-2.1,7.9-5.9Z"/><path id="eZn7Vocvqw530" d="M358.3,357.4c-1.2,3.6.9,7.1,4.5,7.8c3.7.7,7.6-1.7,8.8-5.3s-.9-7.1-4.5-7.8c-3.7-.6-7.7,1.7-8.8,5.3Z"/><path id="eZn7Vocvqw531" d="M262.5,408c-2.4,1.6-2.4,4.2,0,5.7s6.3,1.5,8.7-.1s2.4-4.2,0-5.7c-2.4-1.6-6.3-1.5-8.7.1Z"/><path id="eZn7Vocvqw532" d="M417.6,392.9c-2.5,1.4-2.7,4-.4,5.7s6.2,2,8.7.6s2.7-4,.4-5.7-6.2-2-8.7-.6Z"/><path id="eZn7Vocvqw533" d="M390.8,418.6c-4.3.6-6.8,3.4-5.8,6.3c1.1,2.9,5.5,4.8,9.7,4.2s6.8-3.4,5.8-6.3c-1.1-2.9-5.5-4.8-9.7-4.2Z"/><path id="eZn7Vocvqw534" d="M390.8,411.9c-4.3.6-6.8,3.4-5.8,6.3c1.1,2.9,5.5,4.8,9.7,4.2s6.8-3.4,5.8-6.3-5.4-4.8-9.7-4.2Z"/><linearGradient id="eZn7Vocvqw5160-fill" x1="322.934" y1="343.35" x2="331.955" y2="343.35" spreadMethod="pad" gradientUnits="userSpaceOnUse" gradientTransform="translate(0 0)"><stop id="eZn7Vocvqw5160-fill-0" offset="0%" stop-color="#69afe0"/><stop id="eZn7Vocvqw5160-fill-1" offset="0%" stop-color="#60addf"/><stop id="eZn7Vocvqw5160-fill-2" offset="25.6%" stop-color="#46a6dc"/><stop id="eZn7Vocvqw5160-fill-3" offset="45.87%" stop-color="#1d9bd7"/><stop id="eZn7Vocvqw5160-fill-4" offset="58.43%" stop-color="#0094d3"/><stop id="eZn7Vocvqw5160-fill-5" offset="100%" stop-color="#007fc3"/></linearGradient><linearGradient id="eZn7Vocvqw5305-fill" x1="0.522124" y1="0" x2="0.516814" y2="1.160839" spreadMethod="pad" gradientUnits="objectBoundingBox" gradientTransform="translate(0 0)"><stop id="eZn7Vocvqw5305-fill-0" offset="0%" stop-color="#d100f5"/><stop id="eZn7Vocvqw5305-fill-1" offset="100%" stop-color="#620171"/></linearGradient><linearGradient id="eZn7Vocvqw5306-fill" x1="0.444105" y1="0.003343" x2="0.449346" y2="0.967456" spreadMethod="pad" gradientUnits="objectBoundingBox" gradientTransform="translate(0 0)"><stop id="eZn7Vocvqw5306-fill-0" offset="0%" stop-color="#ffdb77"/><stop id="eZn7Vocvqw5306-fill-1" offset="100%" stop-color="#ff9e00"/></linearGradient><linearGradient id="eZn7Vocvqw5314-fill" x1="0.506238" y1="0.878108" x2="0.506238" y2="0.104783" spreadMethod="pad" gradientUnits="objectBoundingBox" gradientTransform="translate(0 0)"><stop id="eZn7Vocvqw5314-fill-0" offset="1%" stop-color="#5d006d"/><stop id="eZn7Vocvqw5314-fill-1" offset="100%" stop-color="#da00ff"/></linearGradient></defs><g transform="matrix(1.136311 0 0 1.136311-34.280641-25.947728)"><g id="eZn7Vocvqw536_ts" transform="translate(256.381559,466.520944) scale(2.744252,2.744252)"><g transform="translate(-346.599999,-435.614959)"><g><g><g id="eZn7Vocvqw539_ts" transform="translate(343.599995,346) scale(1.03,0.9)"><g transform="translate(-343.599995,-346)"><polygon points="283.8,316.1 302.9,344.5 385.3,344.5 402.1,315.2" fill="#5d066b"/><rect width="82.400002" height="42.599998" rx="0" ry="0" transform="translate(302.899994 301.899994)" fill="#490854"/><g><g><polygon points="301.9,346.2 283,317.8 286.8,317.8 305.9,346.2" fill="#894919"/><polygon points="386.5,346.2 404,316.8 400.2,316.8 382.4,346.2" fill="#894919"/></g><rect width="83.400002" height="3.3" rx="0" ry="0" transform="translate(301.899994 342.799988)" fill="#894919"/></g><rect width="94.300003" height="22.200001" rx="0" ry="0" transform="translate(297.100006 352.100006)" fill="#230202"/><rect width="84.599998" height="11.9" rx="0" ry="0" transform="translate(301.899994 346.200012)" fill="#b76623"/></g></g></g><g><polygon points="282.7,364.7 301.9,346.2 301.9,358.1 294.8,364.4" fill="#ce7728"/><polygon points="405,364.8 386.5,346.2 386.5,358.1 392.8,364.4" fill="#ce7728"/></g><g id="eZn7Vocvqw552_ts" transform="translate(344.274572,365.93403) scale(1,1)"><g transform="translate(-344.274572,-371.4)"><g><g><path d="M361,361.9c-4.8,2.1-10.4-.2-12.5-5s.2-10.4,5-12.5s10.4.2,12.5,5c2.1,4.9-.2,10.5-5,12.5Z" fill="#fdbb00"/><path d="M354.5,346.8c-3.5,1.5-5.2,5.6-3.7,9.2c1.5,3.5,5.6,5.2,9.2,3.7c3.5-1.5,5.2-5.6,3.7-9.2s-5.6-5.2-9.2-3.7Z" fill="#ffd85c"/><g><g><g clip-path="url(#eZn7Vocvqw561)"><path d="M352.7,360.2l9.2-14c0,0,6.4,5.6,2.4,11.1-4,5.6-11.6,2.9-11.6,2.9Z" fill="#fbcc1c"/><clipPath id="eZn7Vocvqw561"><use width="13.993866" height="14.007965" xlink:href="#eZn7Vocvqw517"/></clipPath></g></g></g></g><line x1="355" y1="361" x2="356.1" y2="361.3" fill="none" stroke="#fffcff" stroke-width="1.0671" stroke-linecap="round" stroke-linejoin="round" stroke-miterlimit="10"/><path d="" fill="none" stroke="#fffcff" stroke-width="1.0671" stroke-linecap="round" stroke-linejoin="round" stroke-miterlimit="10"/><path d="M356.5,345c0,0,1.7-.5,3.5.6" fill="none" stroke="#fffcff" stroke-width="1.0671" stroke-linecap="round" stroke-linejoin="round" stroke-miterlimit="10"/></g><g transform="translate(-9.14267 7.474434)"><g><path d="M372,359.7c.2-5.2,4.6-9.3,9.8-9.1s9.3,4.6,9.1,9.8-4.6,9.3-9.8,9.1-9.3-4.6-9.1-9.8Z" fill="#fdbb00"/><path d="M388.5,360.3c.1-3.9-2.9-7.1-6.7-7.2s-7.1,2.9-7.2,6.7c-.1,3.9,2.9,7.1,6.7,7.2c3.8.2,7-2.8,7.2-6.7Z" fill="#ffd85c"/><g><g><g clip-path="url(#eZn7Vocvqw574)"><path d="M377.1,352.9l8.7,14.3c0,0-7.8,3.4-11.1-2.6-3.2-6,2.4-11.7,2.4-11.7Z" fill="#fbcc1c"/><clipPath id="eZn7Vocvqw574"><use width="13.904877" height="13.911926" xlink:href="#eZn7Vocvqw518"/></clipPath></g></g></g></g><line x1="375.4" y1="354.6" x2="374.7" y2="355.5" fill="none" stroke="#fffcff" stroke-width="1.0671" stroke-linecap="round" stroke-linejoin="round" stroke-miterlimit="10"/><path d="" fill="none" stroke="#fffcff" stroke-width="1.0671" stroke-linecap="round" stroke-linejoin="round" stroke-miterlimit="10"/><path d="M389.3,362.9c0,0-.3,1.8-2,2.9" fill="none" stroke="#fffcff" stroke-width="1.0671" stroke-linecap="round" stroke-linejoin="round" stroke-miterlimit="10"/></g><g><g><path d="M318.2,359c-2.6,4.6-8.4,6.2-12.9,3.6s-6.2-8.4-3.6-12.9s8.4-6.2,12.9-3.6c4.6,2.6,6.2,8.4,3.6,12.9Z" fill="#fdbb00"/><path d="M303.9,350.9c-1.9,3.4-.7,7.6,2.6,9.5c3.4,1.9,7.6.7,9.5-2.6c1.9-3.4.7-7.6-2.6-9.5-3.4-1.9-7.6-.7-9.5,2.6Z" fill="#ffd85c"/><g><g><g clip-path="url(#eZn7Vocvqw587)"><path d="M310.5,362.7L309.3,346c0,0,8.5.6,8.6,7.4.3,6.8-7.4,9.3-7.4,9.3Z" fill="#fbcc1c"/><clipPath id="eZn7Vocvqw587"><use width="13.909088" height="13.909088" xlink:href="#eZn7Vocvqw519"/></clipPath></g></g></g></g><line x1="312.9" y1="362" x2="313.9" y2="361.5" fill="none" stroke="#fffcff" stroke-width="1.0671" stroke-linecap="round" stroke-linejoin="round" stroke-miterlimit="10"/><path d="" fill="none" stroke="#fffcff" stroke-width="1.0671" stroke-linecap="round" stroke-linejoin="round" stroke-miterlimit="10"/><path d="M304.3,348.3c0,0,1.1-1.5,3.1-1.7" fill="none" stroke="#fffcff" stroke-width="1.0671" stroke-linecap="round" stroke-linejoin="round" stroke-miterlimit="10"/></g><g id="eZn7Vocvqw592_ts" transform="translate(302.300003,362.200012) scale(1,1)"><g transform="translate(-302.300003,-362.200012)"><g><path d="M297.6,370.4c-4.5-2.6-6.1-8.4-3.5-12.9s8.4-6.1,12.9-3.5s6.1,8.4,3.5,12.9c-2.5,4.5-8.3,6.1-12.9,3.5Z" fill="#fdbb00"/><path d="M305.8,356.1c-3.3-1.9-7.6-.7-9.5,2.6s-.7,7.6,2.6,9.5s7.6.7,9.5-2.6.8-7.6-2.6-9.5Z" fill="#ffd85c"/><g><g><g clip-path="url(#eZn7Vocvqw5100)"><path d="M294,362.7l16.7-1.1c0,0-.6,8.5-7.5,8.6-6.8.2-9.2-7.5-9.2-7.5Z" fill="#fbcc1c"/><clipPath id="eZn7Vocvqw5100"><use width="13.930603" height="13.909058" xlink:href="#eZn7Vocvqw520"/></clipPath></g></g></g></g><line x1="294.7" y1="365" x2="295.2" y2="366.1" fill="none" stroke="#fffcff" stroke-width="1.0671" stroke-linecap="round" stroke-linejoin="round" stroke-miterlimit="10"/><path d="" fill="none" stroke="#fffcff" stroke-width="1.0671" stroke-linecap="round" stroke-linejoin="round" stroke-miterlimit="10"/><path d="M308.4,356.5c0,0,1.5,1.1,1.7,3.1" fill="none" stroke="#fffcff" stroke-width="1.0671" stroke-linecap="round" stroke-linejoin="round" stroke-miterlimit="10"/></g></g><g><g><path d="M325.4,344.1c5.1,1.1,8.4,6.1,7.3,11.3-1.1,5.1-6.1,8.4-11.3,7.3s-8.4-6.1-7.3-11.3c1.1-5.1,6.2-8.4,11.3-7.3Z" fill="#fdbb00"/><path d="M321.9,360.2c3.8.8,7.5-1.6,8.3-5.4s-1.6-7.5-5.4-8.3-7.5,1.6-8.3,5.4s1.7,7.5,5.4,8.3Z" fill="#ffd85c"/><g><g><g clip-path="url(#eZn7Vocvqw5113)"><path d="M331.2,350.4l-15.6,6.1c0,0-2-8.2,4.5-10.5c6.5-2.2,11.1,4.4,11.1,4.4Z" fill="#fbcc1c"/><clipPath id="eZn7Vocvqw5113"><use width="14.003082" height="14.007385" xlink:href="#eZn7Vocvqw521"/></clipPath></g></g></g></g><line x1="329.8" y1="348.4" x2="329.1" y2="347.5" fill="none" stroke="#fffcff" stroke-width="1.0671" stroke-linecap="round" stroke-linejoin="round" stroke-miterlimit="10"/><path d="" fill="none" stroke="#fffcff" stroke-width="1.0671" stroke-linecap="round" stroke-linejoin="round" stroke-miterlimit="10"/><path d="M319.3,360.6c0,0-1.7-.6-2.5-2.5" fill="none" stroke="#fffcff" stroke-width="1.0671" stroke-linecap="round" stroke-linejoin="round" stroke-miterlimit="10"/></g><g id="eZn7Vocvqw5118_ts" transform="translate(342.020401,352.600021) scale(1,1)"><g transform="translate(-342.020401,-352.600021)"><g><path d="M349.2,358.8c-3.4,4-9.4,4.4-13.4,1s-4.4-9.4-1-13.4s9.4-4.4,13.4-1s4.5,9.5,1,13.4Z" fill="#fdbb00"/><path d="M336.8,348c-2.5,2.9-2.2,7.3.7,9.9c2.9,2.5,7.3,2.2,9.9-.7c2.5-2.9,2.2-7.3-.7-9.9-3-2.5-7.4-2.2-9.9.7Z" fill="#ffd85c"/><g><g><g clip-path="url(#eZn7Vocvqw5126)"><path d="M341,360.9l2.1-16.6c0,0,8.2,2.2,7,9-1.1,6.7-9.1,7.6-9.1,7.6Z" fill="#fbcc1c"/><clipPath id="eZn7Vocvqw5126"><use width="13.984711" height="13.98468" xlink:href="#eZn7Vocvqw522"/></clipPath></g></g></g></g><line x1="343.4" y1="360.7" x2="344.5" y2="360.4" fill="none" stroke="#fffcff" stroke-width="1.0671" stroke-linecap="round" stroke-linejoin="round" stroke-miterlimit="10"/><path d="" fill="none" stroke="#fffcff" stroke-width="1.0671" stroke-linecap="round" stroke-linejoin="round" stroke-miterlimit="10"/><path d="M337.7,345.6c0,0,1.3-1.2,3.4-1" fill="none" stroke="#fffcff" stroke-width="1.0671" stroke-linecap="round" stroke-linejoin="round" stroke-miterlimit="10"/></g></g><g><g><path d="M386.5,373.9c-5.2,0-9.5-4.3-9.5-9.5s4.3-9.5,9.5-9.5s9.5,4.3,9.5,9.5-4.3,9.5-9.5,9.5Z" fill="#fdbb00"/><path d="M386.5,357.4c-3.9,0-7,3.1-7,7s3.1,7,7,7s7-3.1,7-7-3.2-7-7-7Z" fill="#ffd85c"/><g><g><g clip-path="url(#eZn7Vocvqw5139)"><path d="M379.5,369l14-9.2c0,0,3.6,7.7-2.2,11.2-5.9,3.5-11.8-2-11.8-2Z" fill="#fbcc1c"/><clipPath id="eZn7Vocvqw5139"><use width="14" height="14" xlink:href="#eZn7Vocvqw523"/></clipPath></g></g></g></g><line x1="381.3" y1="370.7" x2="382.2" y2="371.3" fill="none" stroke="#fffcff" stroke-width="1.0671" stroke-linecap="round" stroke-linejoin="round" stroke-miterlimit="10"/><path d="" fill="none" stroke="#fffcff" stroke-width="1.0671" stroke-linecap="round" stroke-linejoin="round" stroke-miterlimit="10"/><path d="M389,356.5c0,0,1.8.2,3,1.9" fill="none" stroke="#fffcff" stroke-width="1.0671" stroke-linecap="round" stroke-linejoin="round" stroke-miterlimit="10"/></g><g><path d="M376,359.2c-4.5.6-9.1-2.6-10.3-7-1.2-4.5,1.6-8.5,6.1-9.1s9.1,2.6,10.3,7-1.6,8.5-6.1,9.1Z" fill="#eb8e1c"/><path d="M376.8,357.5c-4.5.6-9.1-2.6-10.3-7s1.6-8.5,6.1-9.1s9.1,2.6,10.3,7c1.1,4.5-1.6,8.6-6.1,9.1Z" fill="#fdbb00"/><path d="M373.1,343.5c-3.3.4-5.3,3.4-4.5,6.7.9,3.3,4.3,5.6,7.6,5.2s5.3-3.4,4.5-6.7c-.9-3.3-4.3-5.6-7.6-5.2Z" fill="#ffd85c"/><g><g><g clip-path="url(#eZn7Vocvqw5152)"><path d="M369.6,354.1l10-9.4c0,0,4.8,6.1.6,9.8s-10.6-.4-10.6-.4Z" fill="#fbcc1c"/><clipPath id="eZn7Vocvqw5152"><use width="12.452148" height="11.990356" xlink:href="#eZn7Vocvqw524"/></clipPath></g></g></g><line x1="371.5" y1="355.4" x2="372.5" y2="355.9" fill="none" stroke="#fffcff" stroke-width="0.9299" stroke-linecap="round" stroke-linejoin="round" stroke-miterlimit="10"/><path d="" fill="none" stroke="#fffcff" stroke-width="0.9299" stroke-linecap="round" stroke-linejoin="round" stroke-miterlimit="10"/><path d="M375,342.5c0,0,1.6,0,3,1.3" fill="none" stroke="#fffcff" stroke-width="0.9299" stroke-linecap="round" stroke-linejoin="round" stroke-miterlimit="10"/></g><g id="eZn7Vocvqw5157_ts" transform="translate(327.449997,349.600006) scale(1,1)"><g transform="translate(-327.449997,-349.600006)"><path d="M331.9,341.9h-8.9l-4.5,5.2l9,10.2l9-10.2-4.6-5.2Z" fill="#29abe2"/><polygon points="325.2,344.5 322.9,341.9 318.4,347.1 318.5,347.1 322.8,347.1" fill="#29abe2"/><polygon points="327.3,341.9 327.4,341.9 329.6,344.8 332,341.9 322.9,341.9 325.2,344.7" fill="url(#eZn7Vocvqw5160-fill)"/><polygon points="322.9,352.2 327.4,357.3 325.1,352.2" fill="#29abe2"/><polygon points="327.4,357.3 332,352.2 329.7,352.2" fill="#29abe2"/><polygon points="332,341.9 329.6,344.6 331.9,347.1 336.4,347.1 336.5,347.1" fill="#29abe2"/><polygon points="322.8,347.1 318.5,347.1 322.9,352.2 324.4,350.6" fill="#00f"/><polygon points="330.4,350.5 332,352.2 336.4,347.1 331.9,347.1" fill="#00f"/><polygon points="324.4,350.5 322.9,352.2 325.1,352.2" opacity="0.8" fill="#29abe2"/><polygon points="329.7,352.2 332,352.2 330.4,350.4" opacity="0.8" fill="#29abe2"/><polygon points="327.4,347.1 325.2,344.5 322.8,347.1 327.4,347.1" fill="#ff9554"/><polygon points="327.4,347.1 325.2,344.5 322.8,347.1 327.4,347.1" fill="#008cd4"/><polygon points="327.3,341.9 325.2,344.5 327.4,347.1 329.6,344.7 327.4,341.9" fill="#ffaa3f"/><polygon points="327.3,341.9 325.2,344.5 327.4,347.1 329.6,344.7 327.4,341.9" opacity="0.9" fill="#29abe2"/><polygon points="327.5,347.1 331.9,347.1 329.6,344.6 327.4,347.1" fill="#ffdb54"/><polygon points="327.5,347.1 331.9,347.1 329.6,344.6 327.4,347.1" fill="#008cd4"/><polygon points="327.5,347.1 327.4,347 327.4,347.1" fill="#946400"/><polygon points="327.5,347.1 327.4,347 327.4,347.1" opacity="0.3" fill="#ff7b15"/><polygon points="322.8,347.1 324.4,350.6 327.4,347.1" fill="#006ae7"/><polygon points="330.4,350.5 331.9,347.1 327.5,347.1" fill="#006ae7"/><polygon points="327.5,347.1 327.4,347.1 324.4,350.5 327.4,357.3 330.4,350.4" fill="#43c3ef"/></g></g><g transform="translate(-.351641 4.076964)"><path d="M339.1,369.7c-5,.9-10.4-2.3-11.9-7.1-1.6-4.9,1.2-9.6,6.2-10.5s10.4,2.3,12,7.1-1.3,9.6-6.3,10.5Z" fill="#eb8e1c"/><path d="M339.8,367.8c-5,.9-10.4-2.3-11.9-7.1-1.6-4.9,1.2-9.6,6.2-10.5s10.4,2.3,12,7.1c1.4,4.9-1.3,9.6-6.3,10.5Z" fill="#fdbb00"/><path d="M334.8,352.5c-3.7.7-5.7,4.2-4.5,7.8s5.1,6,8.8,5.3s5.7-4.2,4.5-7.8-5.2-6-8.8-5.3Z" fill="#ffd85c"/><g><g><g clip-path="url(#eZn7Vocvqw5187)"><path d="M331.6,364.5l10.5-11.1c0,0,5.8,6.5,1.3,10.8-4.5,4.4-11.8.3-11.8.3Z" fill="#fbcc1c"/><clipPath id="eZn7Vocvqw5187"><use width="13.996216" height="13.342834" xlink:href="#eZn7Vocvqw525"/></clipPath></g></g></g><line x1="333.8" y1="365.8" x2="334.9" y2="366.2" fill="none" stroke="#fffcff" stroke-width="1.0373" stroke-linecap="round" stroke-linejoin="round" stroke-miterlimit="10"/><path d="" fill="none" stroke="#fffcff" stroke-width="1.0373" stroke-linecap="round" stroke-linejoin="round" stroke-miterlimit="10"/><path d="M336.9,351.2c0,0,1.8-.1,3.4,1.2" fill="none" stroke="#fffcff" stroke-width="1.0373" stroke-linecap="round" stroke-linejoin="round" stroke-miterlimit="10"/></g><g transform="translate(3.516412 0.679494)"><path d="M313.3,365.2c-4.4-1-7.7-5.6-7.2-10.2s4.4-7.5,8.9-6.4c4.4,1,7.7,5.6,7.2,10.2-.5,4.5-4.5,7.4-8.9,6.4Z" fill="#eb8e1c"/><path d="M314.6,363.9c-4.4-1-7.7-5.6-7.2-10.2s4.4-7.5,8.9-6.4c4.4,1,7.7,5.6,7.2,10.2s-4.5,7.4-8.9,6.4Z" fill="#fdbb00"/><path d="M316,349.5c-3.3-.8-6.2,1.4-6.5,4.7-.3,3.4,2,6.7,5.3,7.5s6.2-1.4,6.5-4.7c.4-3.4-2-6.7-5.3-7.5Z" fill="#ffd85c"/><g><g><g clip-path="url(#eZn7Vocvqw5200)"><path d="M309.1,358.2l12.7-5.3c0,0,2.4,7.4-2.9,9.3-5.3,2-9.8-4-9.8-4Z" fill="#fbcc1c"/><clipPath id="eZn7Vocvqw5200"><use width="11.869873" height="12.529602" xlink:href="#eZn7Vocvqw526"/></clipPath></g></g></g><line x1="310.4" y1="360.1" x2="311.1" y2="360.8" fill="none" stroke="#fffcff" stroke-width="0.9299" stroke-linecap="round" stroke-linejoin="round" stroke-miterlimit="10"/><path d="" fill="none" stroke="#fffcff" stroke-width="0.9299" stroke-linecap="round" stroke-linejoin="round" stroke-miterlimit="10"/><path d="M318.2,349.2c0,0,1.5.6,2.4,2.3" fill="none" stroke="#fffcff" stroke-width="0.9299" stroke-linecap="round" stroke-linejoin="round" stroke-miterlimit="10"/></g><g id="eZn7Vocvqw5205_ts" transform="translate(320.820254,367.166696) scale(1,1)"><g transform="translate(-320.468613,-362.749985)"><g><path d="M311.4,359.9c1.6-5,6.9-7.8,11.9-6.2s7.8,6.9,6.2,11.9-6.9,7.8-11.9,6.2-7.7-6.9-6.2-11.9Z" fill="#fdbb00"/><path d="M327.1,364.9c1.2-3.7-.9-7.6-4.5-8.8-3.7-1.2-7.6.9-8.8,4.5s.9,7.6,4.5,8.8s7.7-.9,8.8-4.5Z" fill="#ffd85c"/><g><g><g clip-path="url(#eZn7Vocvqw5213)"><path d="M318.2,354.7l4.6,16.1c0,0-8.4,1.2-10-5.5-1.6-6.6,5.4-10.6,5.4-10.6Z" fill="#fbcc1c"/><clipPath id="eZn7Vocvqw5213"><use width="13.977936" height="13.977997" xlink:href="#eZn7Vocvqw527"/></clipPath></g></g></g></g><line x1="316.1" y1="355.9" x2="315.2" y2="356.6" fill="none" stroke="#fffcff" stroke-width="1.0671" stroke-linecap="round" stroke-linejoin="round" stroke-miterlimit="10"/><path d="" fill="none" stroke="#fffcff" stroke-width="1.0671" stroke-linecap="round" stroke-linejoin="round" stroke-miterlimit="10"/><path d="M327.2,367.5c0,0-.8,1.6-2.7,2.3" fill="none" stroke="#fffcff" stroke-width="1.0671" stroke-linecap="round" stroke-linejoin="round" stroke-miterlimit="10"/></g></g><g><g><path d="M346.9,363.4c.8-5.2,5.6-8.8,10.8-8s8.8,5.6,8,10.8-5.6,8.8-10.8,8c-5.1-.8-8.7-5.7-8-10.8Z" fill="#fdbb00"/><path d="M363.2,365.7c.6-3.8-2.1-7.4-5.9-7.9-3.8-.6-7.4,2.1-7.9,5.9-.6,3.8,2.1,7.4,5.9,7.9c3.8.6,7.4-2,7.9-5.9Z" fill="#ffd85c"/><g><g><g clip-path="url(#eZn7Vocvqw5226)"><path d="M352.8,357.1l7.1,15.2c0,0-8.1,2.5-10.7-3.8-2.7-6.3,3.6-11.4,3.6-11.4Z" fill="#fbcc1c"/><clipPath id="eZn7Vocvqw5226"><use width="13.967102" height="13.969604" xlink:href="#eZn7Vocvqw528"/></clipPath></g></g></g></g><line x1="350.9" y1="358.7" x2="350.1" y2="359.5" fill="none" stroke="#fffcff" stroke-width="1.0671" stroke-linecap="round" stroke-linejoin="round" stroke-miterlimit="10"/><path d="" fill="none" stroke="#fffcff" stroke-width="1.0671" stroke-linecap="round" stroke-linejoin="round" stroke-miterlimit="10"/><path d="M363.8,368.3c0,0-.5,1.7-2.3,2.7" fill="none" stroke="#fffcff" stroke-width="1.0671" stroke-linecap="round" stroke-linejoin="round" stroke-miterlimit="10"/></g><g id="eZn7Vocvqw5231_ts" transform="translate(348.400009,357.300003) scale(1,1)"><g transform="translate(-348.400009,-357.300003)"><polygon points="344.3,364.5 355.6,359.4 354,353.6 346.8,350 346.8,350 346.8,350 346.8,350 346.8,350 341.3,352.3" fill="#34f7c9"/><polygon points="346.9,350 341.2,352.3 348.4,355.9" opacity="0.5" fill="#38d6ad"/><polygon points="354,353.6 346.8,350 348.4,355.8" opacity="0.5" fill="#92fcdb"/><polygon points="341.2,352.3 344.2,364.5 344.8,354.1" fill="#25b786"/><polygon points="344.2,364.5 355.6,359.4 352,357.6" fill="#25b786"/><polygon points="344.8,354.1 352,357.6 350.5,351.8" opacity="0.5" fill="#1ec696"/><polygon points="348.4,355.9 355.6,359.4 354,353.6" opacity="0.5" fill="#92fcdb"/><polygon points="344.8,354.1 352,357.6 344.2,364.5" fill="#1fcc92"/><polygon points="346.8,350 344.8,354.1 348.4,355.9" opacity="0.5" fill="#80f9e2"/><polygon points="354,353.6 352,357.6 348.4,355.9" opacity="0.5" fill="#38d6ad"/><polygon points="348.5,355.9 344.2,364.6 352,357.6" opacity="0.5" fill="#9afce9"/></g></g><g><polygon points="311.4,372.8 317.6,359.6 311.7,355.7 302.6,358 302.6,358 302.6,358 302.6,358 302.6,358 299.4,364.3" fill="#34f7c9"/><polygon points="302.6,358 299.4,364.3 308.5,362" opacity="0.5" fill="#38d6ad"/><polygon points="311.8,355.7 302.6,358 308.5,362" opacity="0.5" fill="#92fcdb"/><polygon points="299.4,364.3 311.3,373 303.9,363.2" fill="#25b786"/><polygon points="311.3,373 317.6,359.6 313.1,360.8" fill="#25b786"/><polygon points="303.9,363.2 313.1,360.8 307.2,356.8" opacity="0.5" fill="#1ec696"/><polygon points="308.5,362 317.6,359.6 311.7,355.6" opacity="0.5" fill="#92fcdb"/><polygon points="303.9,363.2 313.1,360.8 311.3,373" fill="#1fcc92"/><polygon points="302.6,358 303.9,363.2 308.5,362" opacity="0.5" fill="#80f9e2"/><polygon points="311.7,355.6 313.1,360.8 308.5,362" opacity="0.5" fill="#38d6ad"/><polygon points="308.6,362 311.4,373 313.1,360.8" opacity="0.5" fill="#9afce9"/></g><g><g><path d="M335.8,368.3c.8-5.2,5.6-8.8,10.8-8s8.8,5.6,8,10.8-5.6,8.8-10.8,8-8.8-5.7-8-10.8Z" fill="#fdbb00"/><path d="M352.1,370.7c.6-3.8-2.1-7.4-5.9-7.9-3.8-.6-7.4,2.1-7.9,5.9-.6,3.8,2.1,7.4,5.9,7.9s7.3-2.1,7.9-5.9Z" fill="#ffd85c"/><g><g><g clip-path="url(#eZn7Vocvqw5263)"><path d="M341.6,362.1l7.1,15.2c0,0-8.1,2.5-10.7-3.8-2.6-6.4,3.6-11.4,3.6-11.4Z" fill="#fbcc1c"/><clipPath id="eZn7Vocvqw5263"><use width="13.967072" height="13.945129" xlink:href="#eZn7Vocvqw529"/></clipPath></g></g></g></g><path d="" fill="none" stroke="#fffcff" stroke-width="1.0671" stroke-linecap="round" stroke-linejoin="round" stroke-miterlimit="10"/><path d="M352.6,373.3c0,0-.5,1.7-2.3,2.7" fill="none" stroke="#fffcff" stroke-width="1.0671" stroke-linecap="round" stroke-linejoin="round" stroke-miterlimit="10"/></g><g id="eZn7Vocvqw5267_ts" transform="translate(380.350006,355.5) scale(1,1)"><g transform="translate(-380.350006,-355.5)"><polygon points="386.5,351.8 386.5,351.8 378.9,347.7 378.9,347.7 372.7,349.9 375.4,363.3 388.1,358.2" fill="#e16aff"/><polygon points="378.9,347.6 380.4,354 386.6,351.8" opacity="0.7" fill="#da00ff"/><polygon points="378.8,347.7 372.6,350 380.3,354.1" opacity="0.7" fill="#e16aff"/><polygon points="372.6,350 375.4,363.4 376.5,352.1" fill="#da00ff"/><polygon points="380.3,354.1 388,358.2 386.5,351.8" opacity="0.5" fill="#f0f"/><polygon points="375.4,363.4 388,358.2 384.2,356.2" opacity="0.7" fill="#e594ff"/><polygon points="376.3,352 384,356.1 382.5,349.7" opacity="0.7" fill="#e594ff"/><polygon points="376.5,352.1 384.2,356.2 375.4,363.4" opacity="0.5" fill="#f0f"/><polygon points="380.3,354.1 375.4,363.4 376.5,352.1" opacity="0.7" fill="#e594ff"/></g></g><g id="eZn7Vocvqw5277_ts" transform="translate(365.345886,359.598038) scale(1,1)"><g transform="translate(-365.345886,-359.598038)"><path d="M356.6,358.8c1.6-4.9,7-8.1,12-7.1c5,.9,7.8,5.7,6.2,10.5s-7,8.1-11.9,7.1c-5.1-.9-7.9-5.6-6.3-10.5Z" fill="#eb8e1c"/><path d="M355.9,357c1.6-4.9,7-8.1,12-7.1c5,.9,7.8,5.7,6.2,10.5s-7,8.1-11.9,7.1c-5.2-.9-7.9-5.7-6.3-10.5Z" fill="#fdbb00"/><path d="M358.3,357.4c-1.2,3.6.9,7.1,4.5,7.8c3.7.7,7.6-1.7,8.8-5.3s-.9-7.1-4.5-7.8c-3.7-.6-7.7,1.7-8.8,5.3Z" fill="#ffd85c"/><g><g><g clip-path="url(#eZn7Vocvqw5285)"><path d="M370.2,364.2l-10.5-11.1c0,0-5.8,6.5-1.3,10.8s11.8.3,11.8.3Z" fill="#fbcc1c"/><clipPath id="eZn7Vocvqw5285"><use width="13.977997" height="13.316376" xlink:href="#eZn7Vocvqw530"/></clipPath></g></g></g><path d="" fill="none" stroke="#fffcff" stroke-width="1.0373" stroke-linecap="round" stroke-linejoin="round" stroke-miterlimit="10"/><path d="M365,350.8c0,0-1.8-.1-3.4,1.2" fill="none" stroke="#fffcff" stroke-width="1.0373" stroke-linecap="round" stroke-linejoin="round" stroke-miterlimit="10"/></g></g><g transform="matrix(-.11497 0 0 0.11497 359.745426 288.060726)"><g id="eZn7Vocvqw5295_tr" transform="translate(309.328567,484.082149) rotate(114.133601)"><g id="eZn7Vocvqw5295_ts" transform="scale(0.3,0.3)"><polygon id="eZn7Vocvqw5295" points="0,-143.163248 32.394145,-32.394145 143.163247,0 32.394145,32.394145 0,143.163247 -32.394145,32.394145 -143.163247,0 -32.394145,-32.394145 0,-143.163248" transform="translate(0,0)" opacity="0" fill="#fff" stroke-width="0"/></g></g></g><g transform="matrix(-.11497 0 0 0.11497 413.943511 294.474931)"><g id="eZn7Vocvqw5297_tr" transform="translate(309.328567,484.082149) rotate(114.133601)"><g id="eZn7Vocvqw5297_ts" transform="scale(0.3,0.3)"><polygon id="eZn7Vocvqw5297" points="0,-143.163248 32.394145,-32.394145 143.163247,0 32.394145,32.394145 0,143.163247 -32.394145,32.394145 -143.163247,0 -32.394145,-32.394145 0,-143.163248" transform="translate(0,0)" opacity="0" fill="#fff" stroke-width="0"/></g></g></g><g transform="matrix(-.11497 0 0 0.11497 339.995757 301.603249)"><g id="eZn7Vocvqw5299_tr" transform="translate(309.328567,484.082149) rotate(114.133601)"><g id="eZn7Vocvqw5299_ts" transform="scale(0.3,0.3)"><polygon id="eZn7Vocvqw5299" points="0,-143.163248 32.394145,-32.394145 143.163247,0 32.394145,32.394145 0,143.163247 -32.394145,32.394145 -143.163247,0 -32.394145,-32.394145 0,-143.163248" transform="translate(0,0)" opacity="0" fill="#fff" stroke-width="0"/></g></g></g><g transform="matrix(-.11497 0 0 0.11497 382.376705 294.845074)"><g id="eZn7Vocvqw5301_tr" transform="translate(309.328567,484.082149) rotate(114.133601)"><g id="eZn7Vocvqw5301_ts" transform="scale(0.3,0.3)"><polygon id="eZn7Vocvqw5301" points="0,-143.163248 32.394145,-32.394145 143.163247,0 32.394145,32.394145 0,143.163247 -32.394145,32.394145 -143.163247,0 -32.394145,-32.394145 0,-143.163248" transform="translate(0,0)" opacity="0" fill="#fff" stroke-width="0"/></g></g></g></g></g><g><g id="eZn7Vocvqw5303_to" transform="translate(343.368164,320.175926)"><g id="eZn7Vocvqw5303_ts" transform="scale(1,1.2)"><g transform="translate(-343.368164,-305.600006)"><g><path d="M297.4,286.1c0,0,44.2-2.2,90.6,0l6.1,1.3l3.5,28.9-113-.9l5.2-26.7l7.6-2.6Z" fill="url(#eZn7Vocvqw5305-fill)"/><path d="M399.6,287.5c-.9-1.5-2.5-2.4-4.2-2.4h-6.6c-.8,0-1.2.9-.8,1.5c10.1,14,6.8,26.9,6.8,26.9h-47.1-8.7-47.1c0,0-3.2-12.9,6.8-26.9.4-.6,0-1.5-.8-1.5h-6.6c-1.7,0-3.3.9-4.2,2.4-3,5.1-9.1,15.9-6.3,28.1.4,1.9,2.2,3.3,4.1,3.3h54.1h8.7h54.1c2,0,3.7-1.4,4.1-3.3c2.9-12.2-3.3-23-6.3-28.1Z" fill="url(#eZn7Vocvqw5306-fill)"/><polygon points="394.3,299.8 292.5,299.8 293.1,298 393.8,298" fill="#602000"/></g><g><path d="M349.9,310.7h-14.3c-2.1,0-3.8,1.7-3.8,3.8v7.8c0,2.1,1.7,3.8,3.8,3.8h14.3c2.1,0,3.8-1.7,3.8-3.8v-7.8c0-2.1-1.7-3.8-3.8-3.8Z" fill="#bc691e"/><path d="M349.9,309.5h-14.3c-2.1,0-3.8,1.7-3.8,3.8v7.8c0,2.1,1.7,3.8,3.8,3.8h14.3c2.1,0,3.8-1.7,3.8-3.8v-7.8c0-2.1-1.7-3.8-3.8-3.8Z" fill="#ef9a4d"/><g><circle r="2.4" transform="translate(342.799988 314.600006)" fill="#2b0101"/><polygon points="342.8,314.6 340.7,321.3 345.2,321.3" fill="#2b0101"/></g></g></g></g></g><rect width="104.199997" height="43.900002" rx="0" ry="0" transform="translate(290 368.200012)" fill="url(#eZn7Vocvqw5314-fill)"/><path d="M294.4,373.1l6.9,43.9h-8.4c-1.7,0-3.2-1.2-3.5-2.9l-7.5-41h12.5Z" fill="#fdbb00"/><path d="M393.2,373.1L386.3,417h8.4c1.7,0,3.2-1.2,3.5-2.9l7.5-41h-12.5Z" fill="#fdbb00"/><rect width="99.199997" height="8.7" rx="0" ry="0" transform="translate(293.5 408.299988)" fill="#fdbb00"/><path d="M405.7,373.1h-123.8v-6.9c0-1,.8-1.8,1.8-1.8h120c1.1,0,1.9.9,1.9,1.9l.1,6.8v0Z" fill="#ec902f"/><g><g><circle r="2.1" transform="translate(392 411.799988)" fill="#bc691e"/><path d="M397.3,397.2c0,1.2-1,2.1-2.1,2.1-1.2,0-2.1-1-2.1-2.1c0-1.2,1-2.1,2.1-2.1c1.2,0,2.1,1,2.1,2.1Z" fill="#bc691e"/><path d="M399.5,382.7c0,1.2-1,2.1-2.1,2.1-1.2,0-2.1-1-2.1-2.1c0-1.2,1-2.1,2.1-2.1s2.1.9,2.1,2.1Z" fill="#bc691e"/><path d="M401.2,369.1c0,1.2-1,2.1-2.1,2.1-1.2,0-2.1-1-2.1-2.1c0-1.2,1-2.1,2.1-2.1c1.1-.1,2.1.9,2.1,2.1Z" fill="#bc691e"/></g><g><circle r="2.1" transform="translate(294.899994 411.799988)" fill="#bc691e"/><circle r="2.1" transform="translate(314.100006 411.799988)" fill="#bc691e"/><circle r="2.1" transform="translate(333.200012 411.799988)" fill="#bc691e"/><circle r="2.1" transform="translate(352.299988 411.799988)" fill="#bc691e"/><circle r="2.1" transform="translate(371.399994 411.799988)" fill="#bc691e"/><path d="M302.9,368.8c0,1.2,1,2.1,2.1,2.1c1.2,0,2.1-1,2.1-2.1c0-1.2-1-2.1-2.1-2.1-1.1-.1-2.1.9-2.1,2.1Z" fill="#bc691e"/><circle r="2.1" transform="translate(324.100006 368.799988)" fill="#bc691e"/><circle r="2.1" transform="translate(342.799988 368.799988)" fill="#bc691e"/><circle r="2.1" transform="translate(362.399994 368.799988)" fill="#bc691e"/><circle r="2.1" transform="translate(381.700012 368.799988)" fill="#bc691e"/><path d="M289.6,397.2c0,1.2,1,2.1,2.1,2.1c1.2,0,2.1-1,2.1-2.1c0-1.2-1-2.1-2.1-2.1s-2.1,1-2.1,2.1Z" fill="#bc691e"/><path d="M287.4,382.7c0,1.2,1,2.1,2.1,2.1c1.2,0,2.1-1,2.1-2.1c0-1.2-1-2.1-2.1-2.1s-2.1.9-2.1,2.1Z" fill="#bc691e"/><path d="M285.8,369.1c0,1.2,1,2.1,2.1,2.1c1.2,0,2.1-1,2.1-2.1c0-1.2-1-2.1-2.1-2.1-1.2-.1-2.1.9-2.1,2.1Z" fill="#bc691e"/></g></g><rect width="92.400002" height="1.8" rx="0" ry="0" transform="translate(297.899994 391)" fill="#602000"/><path d="M405.7,373.1h-123.8v-6.9c0-1,.8-1.8,1.8-1.8h120c1.1,0,1.9.9,1.9,1.9l.1,6.8v0Z" fill="#f0a52b"/></g></g><g><g transform="translate(13.856737 1.090908)"><path d="M260.9,408.3c3.2-2.4,8.5-2.4,11.8-.1s3.3,6,0,8.4c-3.2,2.4-8.5,2.4-11.8.1-3.2-2.3-3.2-6.1,0-8.4Z" fill="#eb8e1c"/><path d="M260.9,407c3.2-2.2,8.5-2.2,11.8-.1s3.3,5.6,0,7.8c-3.2,2.2-8.5,2.2-11.8.1-3.2-2.2-3.2-5.7,0-7.8Z" fill="#fdbb00"/><path d="M262.5,408c-2.4,1.6-2.4,4.2,0,5.7s6.3,1.5,8.7-.1s2.4-4.2,0-5.7c-2.4-1.6-6.3-1.5-8.7.1Z" fill="#ffd85c"/><g><g><g clip-path="url(#eZn7Vocvqw5351)"><path d="M268.4,415.5l-3-9.5c0,0-7,1.7-5.5,5.6c1.4,3.8,8.5,3.9,8.5,3.9Z" fill="#fbcc1c"/><clipPath id="eZn7Vocvqw5351"><use width="12.300018" height="8.064056" xlink:href="#eZn7Vocvqw531"/></clipPath></g></g></g><line x1="266.2" y1="415.5" x2="265.2" y2="415.4" fill="none" stroke="#fffcff" stroke-width="0.763" stroke-linecap="round" stroke-linejoin="round" stroke-miterlimit="10"/><path d="" fill="none" stroke="#fffcff" stroke-width="0.763" stroke-linecap="round" stroke-linejoin="round" stroke-miterlimit="10"/><path d="M270.2,406.5c0,0-1.3-.6-3.1-.4" fill="none" stroke="#fffcff" stroke-width="0.763" stroke-linecap="round" stroke-linejoin="round" stroke-miterlimit="10"/></g><g transform="translate(21.844219 7.993406)"><path d="M260.9,408.3c3.2-2.4,8.5-2.4,11.8-.1s3.3,6,0,8.4c-3.2,2.4-8.5,2.4-11.8.1-3.2-2.3-3.2-6.1,0-8.4Z" fill="#eb8e1c"/><path d="M260.9,407c3.2-2.2,8.5-2.2,11.8-.1s3.3,5.6,0,7.8c-3.2,2.2-8.5,2.2-11.8.1-3.2-2.2-3.2-5.7,0-7.8Z" fill="#fdbb00"/><path d="M262.5,408c-2.4,1.6-2.4,4.2,0,5.7s6.3,1.5,8.7-.1s2.4-4.2,0-5.7c-2.4-1.6-6.3-1.5-8.7.1Z" fill="#ffd85c"/><g><g><g clip-path="url(#eZn7Vocvqw5364)"><path d="M268.4,415.5l-3-9.5c0,0-7,1.7-5.5,5.6c1.4,3.8,8.5,3.9,8.5,3.9Z" fill="#fbcc1c"/><clipPath id="eZn7Vocvqw5364"><use width="12.300018" height="8.064056" xlink:href="#eZn7Vocvqw531"/></clipPath></g></g></g><line x1="266.2" y1="415.5" x2="265.2" y2="415.4" fill="none" stroke="#fffcff" stroke-width="0.763" stroke-linecap="round" stroke-linejoin="round" stroke-miterlimit="10"/><path d="" fill="none" stroke="#fffcff" stroke-width="0.763" stroke-linecap="round" stroke-linejoin="round" stroke-miterlimit="10"/><path d="M270.2,406.5c0,0-1.3-.6-3.1-.4" fill="none" stroke="#fffcff" stroke-width="0.763" stroke-linecap="round" stroke-linejoin="round" stroke-miterlimit="10"/></g><g transform="translate(-12.771957 7.999988)"><path d="M416,393.1c3.4-2.1,8.7-1.7,11.8.8s2.8,6.3-.6,8.4-8.7,1.7-11.8-.8c-3.1-2.6-2.8-6.3.6-8.4Z" fill="#eb8e1c"/><path d="M416.1,391.8c3.4-1.9,8.7-1.5,11.8.8c3.1,2.4,2.8,5.9-.6,7.8s-8.7,1.5-11.8-.8c-3-2.4-2.8-5.9.6-7.8Z" fill="#fdbb00"/><path d="M417.6,392.9c-2.5,1.4-2.7,4-.4,5.7s6.2,2,8.7.6s2.7-4,.4-5.7-6.2-2-8.7-.6Z" fill="#ffd85c"/><g><g><g clip-path="url(#eZn7Vocvqw5377)"><path d="M422.8,400.9l-2.2-9.7c0,0-7.1,1.2-6,5.1c1.2,4,8.2,4.6,8.2,4.6Z" fill="#fbcc1c"/><clipPath id="eZn7Vocvqw5377"><use width="12.314087" height="8.073792" xlink:href="#eZn7Vocvqw532"/></clipPath></g></g></g><line x1="420.7" y1="400.8" x2="419.7" y2="400.6" fill="none" stroke="#fffcff" stroke-width="0.763" stroke-linecap="round" stroke-linejoin="round" stroke-miterlimit="10"/><path d="" fill="none" stroke="#fffcff" stroke-width="0.763" stroke-linecap="round" stroke-linejoin="round" stroke-miterlimit="10"/><path d="M425.4,392c0,0-1.2-.7-3-.7" fill="none" stroke="#fffcff" stroke-width="0.763" stroke-linecap="round" stroke-linejoin="round" stroke-miterlimit="10"/></g><g transform="matrix(.840594 0 0 0.840594 62.993946 67.020783)"><g><path d="M396.2,435.3c-5.7,1.2-11.9-1.1-13.8-5.1s1.2-8.3,7-9.6c5.7-1.2,11.9,1.1,13.8,5.1c1.8,4-1.3,8.3-7,9.6Z" fill="#eb8e1c"/><polygon points="381.9,428.3 381.9,423.5 403.8,424.2 403.6,428.9 392.7,434.5" fill="#eb8e1c"/><path d="M396.2,431.5c-5.7,1.2-11.9-1.1-13.8-5.1s1.2-8.3,7-9.6c5.7-1.2,11.9,1.1,13.8,5.1c1.9,4.1-1.2,8.4-7,9.6Z" fill="#fdbb00"/><path d="M390.8,418.6c-4.3.6-6.8,3.4-5.8,6.3c1.1,2.9,5.5,4.8,9.7,4.2s6.8-3.4,5.8-6.3c-1.1-2.9-5.5-4.8-9.7-4.2Z" fill="#ffd85c"/><g><g><g clip-path="url(#eZn7Vocvqw5392)"><path d="M386.3,428.4l12.9-9.1c0,0,6.2,5.2.7,8.8-5.5,3.5-13.6.3-13.6.3Z" fill="#fbcc1c"/><clipPath id="eZn7Vocvqw5392"><use width="15.933563" height="10.721466" xlink:href="#eZn7Vocvqw533"/></clipPath></g></g></g><line x1="389.4" y1="430.3" x2="390.6" y2="430.6" fill="none" stroke="#fffcff" stroke-width="1.0297" stroke-linecap="round" stroke-linejoin="round" stroke-miterlimit="10"/><path d="" fill="none" stroke="#fffcff" stroke-width="1.0297" stroke-linecap="round" stroke-linejoin="round" stroke-miterlimit="10"/><path d="M392.7,417.5c0,0,2-.2,4,.8" fill="none" stroke="#fffcff" stroke-width="1.0297" stroke-linecap="round" stroke-linejoin="round" stroke-miterlimit="10"/></g><g><path d="M396.2,428.5c-5.7,1.2-11.9-1.1-13.8-5.1s1.2-8.3,7-9.6c5.7-1.2,11.9,1.1,13.8,5.1c1.9,4.1-1.2,8.4-7,9.6Z" fill="#eb8e1c"/><polygon points="381.9,421.6 382,416.8 403.8,417.5 403.7,422.2 392.8,427.8" fill="#eb8e1c"/><path d="M396.3,424.8c-5.7,1.2-11.9-1.1-13.8-5.1s1.2-8.3,7-9.6c5.7-1.2,11.9,1.1,13.8,5.1c1.9,4.1-1.2,8.4-7,9.6Z" fill="#fdbb00"/><path d="M390.8,411.9c-4.3.6-6.8,3.4-5.8,6.3c1.1,2.9,5.5,4.8,9.7,4.2s6.8-3.4,5.8-6.3-5.4-4.8-9.7-4.2Z" fill="#ffd85c"/><g><g><g clip-path="url(#eZn7Vocvqw5406)"><path d="M386.4,421.7l12.9-9.1c0,0,6.2,5.2.7,8.8-5.5,3.5-13.6.3-13.6.3Z" fill="#fbcc1c"/><clipPath id="eZn7Vocvqw5406"><use width="15.933563" height="10.721466" xlink:href="#eZn7Vocvqw534"/></clipPath></g></g></g><line x1="389.5" y1="423.6" x2="390.7" y2="423.9" fill="none" stroke="#fffcff" stroke-width="1.0297" stroke-linecap="round" stroke-linejoin="round" stroke-miterlimit="10"/><path d="" fill="none" stroke="#fffcff" stroke-width="1.0297" stroke-linecap="round" stroke-linejoin="round" stroke-miterlimit="10"/><path d="M392.8,410.8c0,0,2-.2,4,.8" fill="none" stroke="#fffcff" stroke-width="1.0297" stroke-linecap="round" stroke-linejoin="round" stroke-miterlimit="10"/></g></g></g></g></g></g></svg>
