<svg xmlns="http://www.w3.org/2000/svg" viewBox="0 0 24 29">
    <path fill="#FCB515" d="M11.29,1.7a5.06,5.06,0,0,0-2,4.55A27.76,27.76,0,0,0,5.9,0a27.1,27.1,0,0,0,.69,7.09A5.07,5.07,0,0,0,2.4,4.45,8.57,8.57,0,0,1,6.05,9.11a9.88,9.88,0,0,1,4.87-1.48A8.63,8.63,0,0,1,11.29,1.7Z"/>
    <path fill="#FCB515" d="M2.26,15.07a10,10,0,0,1,15.39-4.35l-1.21.44A9,9,0,0,0,3.52,14.81C3.08,14.88,2.64,15,2.26,15.07ZM5.89,26.92a10,10,0,0,0,14.56-3.57l-1-.32A8.95,8.95,0,0,1,6.66,26.17Z"/>
    <path fill="#FFFFFF" d="M19.58,11.31a2.31,2.31,0,0,0-1.64,1.09,1.2,1.2,0,0,0,.2,1.45,2.21,2.21,0,0,0,1.19.25c.59,0,.72.06.82.19a.48.48,0,0,1,0,.42.79.79,0,0,1-.68.3c-.1,0-.27-.15-.27-.22l0-.08c0-.05-.07,0-.47.07L18.1,15C18,15,18,15,18,15.11a1.06,1.06,0,0,0,.64.77,1.25,1.25,0,0,0,.54.07,2.23,2.23,0,0,0,2.05-1.16l.14-.27v-.35a.85.85,0,0,0-.23-.73c-.23-.22-.54-.3-1.24-.33-.53,0-.75-.07-.84-.19a.38.38,0,0,1,.08-.51c.25-.25.68-.23.78,0,0,.06.05.11.07.11s1.1-.32,1.14-.35,0-.31-.16-.49A1.23,1.23,0,0,0,19.58,11.31Zm-3.95,1.2-.92.26L14,13l-.14,0v.23c0,.13.06.84.14,1.59s.14,1.6.17,1.88c0,.55.07.72.1.72l.41-.12.54-.15.13,0,0-.17c0-.1,0-.37-.05-.61s0-.5-.06-.6,0-.18,0-.19l.46-.15a2.46,2.46,0,0,0,1.25-.68,1.56,1.56,0,0,0,.45-1.13,1.08,1.08,0,0,0-.56-1,.89.89,0,0,0-.53-.12A1.62,1.62,0,0,0,15.63,12.51Zm.46.94a.67.67,0,0,1,.11.67.83.83,0,0,1-.52.38l-.35.11c-.24.08-.23.11-.28-.49s-.08-.51.28-.62A1.08,1.08,0,0,1,16.09,13.45Zm-4.9.3A3,3,0,0,0,8.85,16a3.05,3.05,0,0,0,0,1A1.79,1.79,0,0,0,10,18.35a2.06,2.06,0,0,0,.64.06,1.77,1.77,0,0,0,.71-.08,3,3,0,0,0,2-2.15,3.2,3.2,0,0,0,0-1.07A1.84,1.84,0,0,0,12.65,14,2.15,2.15,0,0,0,11.19,13.75Zm.62,1.11a1.31,1.31,0,0,1,.45,1.39,1.41,1.41,0,0,1-1.83,1,1,1,0,0,1-.46-.72,1.47,1.47,0,0,1,.77-1.65,1.2,1.2,0,0,1,.69-.16A.77.77,0,0,1,11.81,14.86Zm-5.12.26-.7.2-1,.27-.39.13a.73.73,0,0,0,0,.25c0,.13,0,.46.07.74C4.89,18.65,5,20,5,20s0,.08,0,.08,1-.28,1-.3a1.88,1.88,0,0,0,0-.51A5.07,5.07,0,0,1,6,18.14s.07,0,.13,0,.11,0,.62.65c.29.36.53.66.55.67a12.67,12.67,0,0,0,1.23-.34s-.25-.33-.57-.72-.58-.71-.58-.71a1.15,1.15,0,0,1,.19-.15,1.64,1.64,0,0,0,.67-1.28,1.17,1.17,0,0,0-.38-.91.92.92,0,0,0-.73-.22A1.9,1.9,0,0,0,6.69,15.12Zm.22,1a.46.46,0,0,1,.21.42.63.63,0,0,1-.47.63,4,4,0,0,1-.71.19,7.12,7.12,0,0,1-.1-.92v-.13l.25-.07a2.17,2.17,0,0,1,.64-.15A.52.52,0,0,1,6.91,16.1Zm-4.68.36a4.83,4.83,0,0,0-.87.21l-.85.24a5,5,0,0,0-.5.16,1.44,1.44,0,0,0,0,.42c.09,1,.28,3,.32,3.42s.06.59.11.56S1.32,21.2,2,21a3.26,3.26,0,0,0,1.52-.87,2.47,2.47,0,0,0,.74-1.93,3,3,0,0,0-.07-.52,1.6,1.6,0,0,0-1.09-1.17A2.41,2.41,0,0,0,2.23,16.46Zm19,.26a2.54,2.54,0,0,0-1.56,1,1.5,1.5,0,0,0-.16,1.18c.17.47.47.61,1.46.65.67,0,.79.07.86.25s-.2.66-.62.66a.34.34,0,0,1-.38-.24c0-.05,0-.1-.05-.1s-1.14.32-1.16.34a1.19,1.19,0,0,0,.18.51.84.84,0,0,0,.46.36,2.29,2.29,0,0,0,2.58-1A1.38,1.38,0,0,0,23,19.22c-.15-.49-.45-.63-1.37-.68-.75,0-.92-.1-1-.31s.22-.57.56-.57a.35.35,0,0,1,.35.19c0,.06.06.11.08.11l1.07-.3q.15,0,0-.42a1,1,0,0,0-1-.55A2.23,2.23,0,0,0,21.2,16.72Zm-18.75.77a.91.91,0,0,1,.62.72,1.51,1.51,0,0,1,0,.79,1.4,1.4,0,0,1-.67.86,3.08,3.08,0,0,1-.95.31,4,4,0,0,1-.07-.59c0-.31-.07-.78-.1-1s-.05-.56-.05-.67v-.19l.23-.07a3.54,3.54,0,0,1,.73-.17A1.26,1.26,0,0,1,2.45,17.49Zm15.64.19-.53.17a.12.12,0,0,0,0,.11c0,.08.23,2.4.23,2.51s-.11-.06-1.34-1.36c-.67-.7-.7-.72-.79-.71l-.5.14-.45.13a.06.06,0,0,0-.06,0s0,.42.07.89.1,1.08.12,1.34c.14,1.5.2,2.14.21,2.15a9.44,9.44,0,0,0,1.09-.31s0-.43-.07-.94c-.14-1.51-.15-1.59-.14-1.65a8.23,8.23,0,0,1,1,1c.55.58,1,1.06,1,1.06s1.07-.3,1.09-.32a3,3,0,0,0,0-.32c0-.16-.05-.53-.08-.82s-.07-.81-.11-1.18-.08-.89-.1-1.17c-.08-.85-.09-.91-.12-.91ZM13.45,19l-.51.16-.22.06,0,.13c0,.07,0,.36.06.65s.1,1.12.17,1.85.13,1.42.14,1.54a.83.83,0,0,0,0,.22,10.77,10.77,0,0,0,1.07-.31.68.68,0,0,0,0-.3c0-.4-.27-2.88-.32-3.49,0-.29-.05-.54-.06-.56S13.8,18.93,13.45,19Zm-1.86.55-.58.18s0,.38-.1.83-.1,1-.13,1.24-.06.6-.08.81a1.79,1.79,0,0,1-.06.37s0,0-.33-.86c-.12-.32-.32-.88-.45-1.24s-.23-.66-.23-.68-.05-.06-.2,0c-.58.16-1,.29-1,.31s-.12.69-.24,1.48a17.25,17.25,0,0,1-.29,1.86s-.16-.49-.46-1.46C7.18,21.64,7,21,7,21s-.06,0-.72.18a2.76,2.76,0,0,0-.44.14,4.84,4.84,0,0,0,.2.61c.12.32.31.8.4,1.06L7,24.66c.23.6.26.68.31.68l.46-.13L8.43,25,8.64,25s0-.15.06-.33c.11-.73.17-1.07.21-1.38s.08-.53.12-.78A4.53,4.53,0,0,1,9.12,22s0,0,.05.05.22.61.46,1.27.45,1.2.46,1.22.08,0,.81-.21l.51-.16a4.64,4.64,0,0,0,.14-.7c0-.37.14-.88.18-1.14s.12-.77.18-1.12.14-.83.17-1.06.08-.47.09-.55a.27.27,0,0,0,0-.15A3.21,3.21,0,0,0,11.59,19.58ZM2.75,22.06a1.94,1.94,0,0,0-1.2.91,1.5,1.5,0,0,0,0,1,1.13,1.13,0,0,0,.17.24l.1.1-.24.24A1.71,1.71,0,0,0,1,25.84a1,1,0,0,0,1.05,1A3,3,0,0,0,4.14,26a.47.47,0,0,1,.16-.12,1,1,0,0,1,.24.12l.19.12.17,0,1-.3c.05,0,.09,0,.07-.06l-.58-.36L4.86,25l0-.09c0-.06.1-.23.16-.39l.23-.59a2,2,0,0,0,.12-.34s-.15,0-.54.12l-.54.16-.11.24-.13.32,0,.09-.63-.39c-.62-.38-.82-.53-.9-.69a.36.36,0,0,1,.23-.51c.13-.06.16-.06.24,0a.33.33,0,0,1,.12.14l.06.1a5.56,5.56,0,0,0,.72-.19l.28-.08s0-.18,0-.33a.92.92,0,0,0-.49-.48A2,2,0,0,0,2.75,22.06Zm.26,3a4.08,4.08,0,0,1,.49.34c0,.05-.29.27-.53.37a.84.84,0,0,1-.67,0,.5.5,0,0,1-.14-.68,1.06,1.06,0,0,1,.32-.38Z"/>
</svg>