<svg width="80" height="80" fill="none" xmlns="http://www.w3.org/2000/svg"><path d="m51.38 28.913.003-.01.003-.008c.06-.215.12-.43.175-.643h14.341c.953 0 1.957.122 3.013.365 1.081.216 2.137.567 3.167 1.054 1.055.486 2.06 1.12 3.013 1.904.952.756 1.788 1.688 2.51 2.796.72 1.08 1.3 2.335 1.737 3.767.438 1.432.657 3.053.657 4.861v15.443c0 1.809-.22 3.43-.657 4.861-.437 1.458-1.017 2.728-1.737 3.809-.722 1.107-1.558 2.038-2.51 2.794a13.877 13.877 0 0 1-3.013 1.905 13.67 13.67 0 0 1-3.167 1.053c-1.055.243-2.06.365-3.012.365h-23.62V62.696h23.62c1.364 0 2.381-.366 3.05-1.094.67-.73 1.005-1.784 1.005-3.16V42.999c0-1.376-.335-2.417-1.004-3.119-.67-.729-1.687-1.094-3.052-1.094h-18.11c-1.237 0-2.215.406-2.936 1.216-.721.783-1.082 1.782-1.082 2.997v.118c0 1.378.35 2.432 1.044 3.16.695.73 1.711 1.095 3.05 1.095h18.035v10.533H47.791c-.952 0-1.956-.108-3.012-.324a16.329 16.329 0 0 1-3.167-1.094 15.258 15.258 0 0 1-2.973-1.863 12.755 12.755 0 0 1-2.51-2.796c-.722-1.107-1.301-2.377-1.739-3.808-.438-1.46-.656-3.093-.656-4.903V43c0-.234.006-.47.017-.71h.905c2.777-.122 5.407-.754 7.745-2.067 2.302-1.278 4.273-2.927 5.807-4.982a19.532 19.532 0 0 0 3.174-6.328h-.001Z" fill="url(#a)"/><path d="M34.297 42.29c-.097.349-.182.7-.255 1.052-.2 1.042-.304 2.1-.31 3.16v.118c0 1.809.22 3.444.657 4.902.438 1.432 1.017 2.7 1.738 3.809a12.752 12.752 0 0 0 2.51 2.795 15.267 15.267 0 0 0 2.974 1.863c1.056.486 2.111.85 3.166 1.094.991.21 2 .318 3.013.324h18.113V50.874H47.867c-1.338 0-2.355-.365-3.05-1.094-.696-.73-1.044-1.783-1.044-3.16v-.117c0-1.216.361-2.216 1.082-2.999.72-.81 1.7-1.216 2.935-1.216h18.113c1.364 0 2.38.366 3.05 1.094.67.703 1.005 1.743 1.005 3.12v15.442c0 1.377-.335 2.43-1.004 3.16-.67.728-1.687 1.094-3.052 1.094H42.284V76.73h23.62c.952 0 1.956-.121 3.012-.364a13.68 13.68 0 0 0 3.166-1.054 13.88 13.88 0 0 0 3.014-1.904c.952-.757 1.788-1.688 2.51-2.796.72-1.08 1.3-2.35 1.737-3.809.438-1.43.657-3.051.657-4.861v-15.44c0-1.81-.22-3.43-.657-4.862-.437-1.431-1.017-2.687-1.737-3.767-.722-1.108-1.558-2.04-2.51-2.795a13.88 13.88 0 0 0-3.014-1.905 13.68 13.68 0 0 0-3.166-1.053 13.438 13.438 0 0 0-3.012-.365H50.312a20.053 20.053 0 0 1-2.104 3.486c-1.534 2.056-3.506 3.704-5.808 4.983-2.337 1.313-4.967 1.944-7.745 2.066h-.357Z" fill="#fff"/><path d="M34.52 42.29a16.889 16.889 0 0 0-.479 1.79c-.2 1.041-.303 2.1-.309 3.16v.117c0 1.81.22 3.444.657 4.902.438 1.431 1.017 2.702 1.738 3.809a12.755 12.755 0 0 0 2.51 2.795 15.228 15.228 0 0 0 2.974 1.863 16.31 16.31 0 0 0 3.166 1.095c.991.21 2 .318 3.013.324h18.113V51.61H47.867c-1.338 0-2.355-.364-3.05-1.094-.696-.729-1.044-1.782-1.044-3.16v-.117c0-1.215.361-2.215 1.082-2.999.72-.81 1.7-1.215 2.935-1.215h18.113c1.364 0 2.38.364 3.05 1.094.67.702 1.005 1.742 1.005 3.12v15.44c0 1.378-.335 2.432-1.004 3.16-.67.73-1.687 1.095-3.052 1.095H42.284v10.534h23.62c.952 0 1.956-.122 3.012-.366a13.673 13.673 0 0 0 3.166-1.052 13.88 13.88 0 0 0 3.014-1.905c.952-.756 1.788-1.688 2.51-2.795.72-1.08 1.3-2.35 1.737-3.809.438-1.431.657-3.051.657-4.861V47.24c0-1.81-.22-3.431-.657-4.862-.437-1.431-1.017-2.688-1.737-3.768-.722-1.107-1.558-2.04-2.51-2.796a13.879 13.879 0 0 0-3.014-1.904 13.678 13.678 0 0 0-3.166-1.053 13.433 13.433 0 0 0-3.012-.365h-15.96a20.236 20.236 0 0 1-1.736 2.749c-1.534 2.056-3.506 3.704-5.808 4.983-2.337 1.313-4.967 1.944-7.745 2.066h-.134Z" fill="url(#b)"/><path d="M47.7 17.956c0 1.504-.25 3.133-.748 4.888a14.934 14.934 0 0 1-2.437 4.845c-1.1 1.477-2.554 2.717-4.363 3.72-1.782 1.002-3.957 1.504-6.525 1.504H14.073v-10.32h19.556c1.388 0 2.463-.446 3.223-1.337.76-.919 1.14-2.047 1.14-3.384 0-1.42-.433-2.534-1.298-3.341-.838-.808-1.86-1.212-3.066-1.212H14.073c-1.389 0-2.463.46-3.223 1.379-.76.89-1.14 2.005-1.14 3.341v15.165c0 1.449.42 2.577 1.257 3.384.866.808 1.928 1.212 3.185 1.212h15.895v10.36H14.072c-1.415 0-2.948-.265-4.599-.794-1.624-.53-3.144-1.38-4.56-2.548-1.389-1.198-2.554-2.745-3.498-4.638C.472 38.26 0 35.934 0 33.204V17.956c0-1.503.249-3.12.747-4.846a14.81 14.81 0 0 1 2.397-4.846c1.127-1.505 2.582-2.758 4.364-3.76C9.316 3.501 11.504 3 14.072 3h19.555c1.416 0 2.935.264 4.56.794 1.651.528 3.17 1.392 4.56 2.59 1.415 1.17 2.594 2.715 3.537 4.637.944 1.894 1.416 4.205 1.416 6.935Z" fill="url(#c)"/><path d="M47.7 22.011c0 1.505-.25 3.134-.748 4.888a14.952 14.952 0 0 1-2.437 4.846c-1.1 1.476-2.554 2.716-4.363 3.718-1.782 1.003-3.957 1.505-6.525 1.505H14.073v-10.32h19.556c1.388 0 2.463-.446 3.223-1.337.76-.92 1.14-2.047 1.14-3.384 0-1.42-.433-2.535-1.298-3.343-.838-.807-1.86-1.211-3.066-1.211H14.073c-1.389 0-2.463.459-3.223 1.378-.76.892-1.14 2.006-1.14 3.343v15.165c0 1.448.42 2.576 1.257 3.384.866.807 1.928 1.211 3.185 1.211h15.895v10.36H14.072c-1.415 0-2.948-.264-4.599-.793-1.624-.529-3.144-1.379-4.56-2.549-1.389-1.197-2.554-2.743-3.498-4.636C.472 42.314 0 39.988 0 37.259V22.011c0-1.504.249-3.12.747-4.845a14.809 14.809 0 0 1 2.397-4.846c1.127-1.505 2.582-2.758 4.364-3.761 1.808-1.002 3.996-1.503 6.564-1.503h19.555c1.416 0 2.935.264 4.56.793 1.651.53 3.17 1.393 4.56 2.59 1.415 1.17 2.594 2.716 3.537 4.638.944 1.893 1.416 4.205 1.416 6.934Z" fill="#fff"/><path d="M47.7 22.75c0 1.503-.25 3.131-.748 4.886a14.933 14.933 0 0 1-2.437 4.846c-1.1 1.477-2.554 2.717-4.363 3.719-1.782 1.002-3.957 1.504-6.525 1.504H14.073v-10.32h19.556c1.388 0 2.463-.444 3.223-1.336.76-.92 1.14-2.047 1.14-3.384 0-1.42-.433-2.534-1.298-3.342-.838-.807-1.86-1.211-3.066-1.211H14.073c-1.389 0-2.463.459-3.223 1.378-.76.89-1.14 2.006-1.14 3.342v15.165c0 1.448.42 2.576 1.257 3.384.866.807 1.928 1.211 3.185 1.211h15.895v10.361H14.072c-1.415 0-2.948-.265-4.599-.794-1.624-.529-3.144-1.379-4.56-2.548-1.389-1.198-2.554-2.744-3.498-4.637C.472 43.052 0 40.726 0 37.997V22.749c0-1.503.249-3.118.747-4.845a14.808 14.808 0 0 1 2.397-4.846c1.127-1.505 2.582-2.758 4.364-3.76 1.808-1.003 3.996-1.505 6.564-1.505h19.555c1.416 0 2.935.265 4.56.794 1.651.53 3.17 1.393 4.56 2.59 1.415 1.17 2.594 2.716 3.537 4.638.944 1.894 1.416 4.205 1.416 6.934Z" fill="url(#d)"/><path d="M14.01 37.798h16.038v2.805H14.01v-2.805Z" fill="#1B1C1B"/><defs><linearGradient id="a" x1="79.975" y1="36.773" x2="36.09" y2="35.997" gradientUnits="userSpaceOnUse"><stop stop-color="#505050"/><stop offset=".234" stop-color="#3D3B3E"/><stop offset=".776" stop-color="#3D3C3E"/><stop offset="1" stop-color="#5E5E60"/></linearGradient><linearGradient id="b" x1="-54.616" y1="31.617" x2="-54.616" y2="76.146" gradientUnits="userSpaceOnUse"><stop stop-color="#fff"/><stop offset=".672" stop-color="#999A9D"/><stop offset="1" stop-color="#CDCDCE"/></linearGradient><linearGradient id="c" x1="47.675" y1="11.555" x2="2.431" y2="10.733" gradientUnits="userSpaceOnUse"><stop stop-color="#D49B5B"/><stop offset=".109" stop-color="#EACFA7"/><stop offset=".385" stop-color="#C88134"/><stop offset=".609" stop-color="#C88031"/><stop offset=".839" stop-color="#E9D1AA"/><stop offset="1" stop-color="#CB8539"/></linearGradient><linearGradient id="d" x1="165.875" y1="7.035" x2="165.875" y2="52.953" gradientUnits="userSpaceOnUse"><stop stop-color="#fff"/><stop offset=".432" stop-color="#EBD3AE"/><stop offset=".776" stop-color="#D5A862"/><stop offset="1" stop-color="#C89037"/></linearGradient></defs></svg>