<svg width="80" height="80" viewBox="0 0 80 80" fill="none" xmlns="http://www.w3.org/2000/svg">
<path d="M41.662 52.1363C49.2602 52.1363 55.4198 45.9768 55.4198 38.3786C55.4198 30.7804 49.2602 24.6208 41.662 24.6208C34.0638 24.6208 27.9043 30.7804 27.9043 38.3786C27.9043 45.9768 34.0638 52.1363 41.662 52.1363Z" fill="#A6CE39"/>
<path fill-rule="evenodd" clip-rule="evenodd" d="M63.7075 49.1526C63.376 49.3183 62.8787 48.9868 63.2102 48.6553C70.172 40.5333 72.4925 30.9194 68.3486 23.7919C63.2102 15.0069 49.9498 13.1836 37.0208 17.8247C23.2631 22.7974 14.3122 33.24 16.1356 43.8484C19.7822 65.3966 62.5472 63.5733 77.4652 62.413C77.9625 62.413 77.9625 63.0761 77.631 63.0761C39.3414 71.8611 5.5272 66.5569 0.554522 47.3293C-4.2524 28.7646 23.4288 17.9905 35.8605 14.6754C52.9333 10.2 74.8131 10.3657 79.2885 22.7974C82.2721 30.7537 75.6419 41.0305 63.7075 49.1526Z" fill="#A6CE39"/>
</svg>
