<svg width="80" height="80" fill="none" xmlns="http://www.w3.org/2000/svg"><path fill-rule="evenodd" clip-rule="evenodd" d="M34.947 42.09V30H6.793l-2.501.055a5.81 5.81 0 0 0-2.309 1.196 5.563 5.563 0 0 0-1.891 2.886c-.116.463-.096 1.077-.078 1.662.006.211.014.42.014.616v4.84c0 .372-.004.736-.007 1.09-.021 2.492-.038 4.553 1.03 6.092.684.983 1.688 1.954 2.951 2.34.8.248 1.959.202 3.039.16.394-.014.778-.03 1.13-.03h51.38V45.52l6.597 5.324H79.91l-12.411-10.39 12.437-10.359H80l-13.852-.03-6.417 4.842-.096.097c-.009-1.648-.02-3.294-.03-4.94H49.536V42.09H34.947Zm23.6 1.282v6.586H8.325c-.331 0-.69.014-1.062.026-1.073.04-2.232.083-3.004-.186a5.007 5.007 0 0 1-2.308-1.861c-.946-1.348-.913-3.345-.88-5.552.007-.423.014-.854.014-1.29v-4.618c0-.173-.005-.354-.009-.538-.015-.598-.03-1.225.105-1.675a4.941 4.941 0 0 1 3.56-3.238l7.216-.031h22.03V43.05h16.547V31.026h8.08v6.03l7.921-5.999H77.18l-11.256 9.37h-.064l11.19 9.328.065.095h-10.55l-8.016-6.478h-.001Z" fill="#fff"/><path fill-rule="evenodd" clip-rule="evenodd" d="M26.93 32.18h5.805v12.122h17.83v4.522H26.93V32.181Zm24.727.097h5.676l.031 6.894.065-.064 9.49-6.83h6.936l-9.806 8.112.064.096 9.909 8.272h-7.297l-9.363-7.853h-.032v7.856h-5.672V32.277Zm-26.106-.096v4.49H12.308c-.87 0-3.826-.18-4.168.225-.24.284-.199.912-.191 1.434h17.573v4.4H7.914c0 .479-.062 1.118.161 1.38.333.393 3.308.192 4.2.192H25.55v4.49H9.71c-3.717 0-6.218.41-7.28-2.373-.479-1.244-.225-3.428-.225-5.035 0-3.53-.514-6.965 1.54-8.531 1.29-.983 4.164-.674 6.415-.674l15.39.002Z" fill="#fff"/></svg>