<svg width="80" height="80" viewBox="0 0 80 80" fill="none" xmlns="http://www.w3.org/2000/svg">
<path fill-rule="evenodd" clip-rule="evenodd" d="M18.4918 0H61.5082C67.3026 0 72 4.71279 72 10.5263V47.8947C72 65.626 57.6731 80 40 80C22.3269 80 8 65.626 8 47.8947V10.5263C8 4.71279 12.6973 0 18.4918 0Z" fill="black"/>
<path fill-rule="evenodd" clip-rule="evenodd" d="M18.4904 4.21094H61.5069C64.9835 4.21094 67.8018 7.03861 67.8018 10.5267V47.8952C67.8018 63.301 55.3539 75.7899 39.9986 75.7899C24.6433 75.7899 12.1953 63.301 12.1953 47.8952V10.5267C12.1953 7.03861 15.0137 4.21094 18.4904 4.21094Z" fill="#E67E17"/>
<path fill-rule="evenodd" clip-rule="evenodd" d="M18.4929 8.4209H61.5093C62.6682 8.4209 63.6076 9.36346 63.6076 10.5262V47.8946C63.6076 60.975 53.0387 71.5788 40.0011 71.5788C26.9635 71.5788 16.3945 60.975 16.3945 47.8946V10.5262C16.3945 9.36346 17.334 8.4209 18.4929 8.4209Z" fill="url(#paint0_radial_1832_24876)"/>
<path fill-rule="evenodd" clip-rule="evenodd" d="M39.9862 12.6318C40.6052 12.6318 41.1472 13.0485 41.3081 13.6482L43.8991 23.3013C43.9419 23.3264 43.9832 23.3546 44.0225 23.3859L51.4439 29.2892C52.1249 29.831 52.2393 30.8241 51.6993 31.5075C51.4008 31.8852 50.9466 32.1055 50.4661 32.1055L46.2564 32.1056C47.0272 35.4714 45.0102 38.8729 41.6585 39.7783C41.1131 39.9256 40.5509 40.0002 39.9862 40.0002C36.4335 40.0002 33.5536 37.1108 33.5536 33.5465C33.5536 33.0614 33.6081 32.5781 33.716 32.1057L29.5073 32.1055C28.6382 32.1055 27.9336 31.3985 27.9336 30.5265C27.9336 30.0444 28.1531 29.5888 28.5296 29.2892L35.951 23.3859C35.9898 23.355 36.0306 23.3271 36.0728 23.3022L38.6642 13.6482C38.8252 13.0485 39.3672 12.6318 39.9862 12.6318Z" fill="white"/>
<path fill-rule="evenodd" clip-rule="evenodd" d="M34.3721 25.6497C34.4778 25.4298 34.7203 25.3117 34.9578 25.3644C35.2408 25.4271 35.4194 25.7081 35.3569 25.9919L34.3331 30.6395C34.28 30.8806 34.0669 31.0523 33.8209 31.0523H32.6106C32.5317 31.0523 32.4539 31.0344 32.3828 31C32.1218 30.8737 32.0123 30.5591 32.1381 30.2973L34.3721 25.6497ZM39.7081 13.378C39.7885 13.381 39.8513 13.4488 39.8483 13.5294L39.3988 25.7048C39.3619 26.7053 38.7103 27.5778 37.7637 27.8944C37.603 27.9481 37.431 27.9576 37.2654 27.922C36.7538 27.812 36.4278 27.3067 36.5375 26.7933L39.2597 14.0477C39.3104 13.8102 39.4285 13.5925 39.5998 13.4207C39.6284 13.3919 39.6676 13.3765 39.7081 13.378Z" fill="#CCCCCC"/>
<path fill-rule="evenodd" clip-rule="evenodd" d="M39.9988 30.5262C35.8021 30.5262 34.2734 33.1578 34.2734 34.2104C34.8384 30.3507 36.7644 28.4209 40.0516 28.4209C43.3388 28.4209 45.2597 30.3507 45.8144 34.2104C45.8144 33.1578 44.1955 30.5262 39.9988 30.5262Z" fill="#FFBB33"/>
<path fill-rule="evenodd" clip-rule="evenodd" d="M40.0016 31.5791C43.1491 31.5791 45.0712 33.2785 45.2328 35.2633C47.3311 61.0527 56.2639 69.4738 62.0343 56.8422C62.0343 68.9475 48.9452 72.1013 40.0016 72.1054C31.0579 72.1013 17.9688 68.9475 17.9688 56.8422C23.7393 69.4738 32.672 61.0527 34.7704 35.2633C34.9319 33.2785 36.854 31.5791 40.0016 31.5791Z" fill="#E67E17"/>
<path fill-rule="evenodd" clip-rule="evenodd" d="M39.9981 36.3159C40.1706 36.3159 40.3516 36.2819 40.4542 36.3849C40.5558 36.4868 40.5228 36.6677 40.5228 36.8422C40.5228 44.3477 42.6595 50.4816 44.3736 55.3541C45.3979 58.2656 46.2932 60.6772 46.2932 62.6317C46.2932 64.5086 45.593 65.9727 44.559 67.0101C43.2771 68.2962 41.5113 68.9475 39.9981 68.9475C38.485 68.9475 36.7192 68.2962 35.4373 67.0101C34.4033 65.9727 33.7031 64.5086 33.7031 62.6317C33.7031 60.6772 34.5985 58.2656 35.6227 55.3541C37.3369 50.4816 39.4735 44.3477 39.4735 36.8422C39.4735 36.6677 39.4405 36.4868 39.5421 36.3849C39.6448 36.2819 39.8258 36.3159 39.9981 36.3159Z" fill="white" stroke="#FFD500" stroke-width="6"/>
<path fill-rule="evenodd" clip-rule="evenodd" d="M40.0012 33.1582C41.2076 33.1582 42.0793 33.5465 42.6829 34.1521C43.2807 34.7518 43.6735 35.6203 43.6734 36.8424C43.6734 43.927 45.7279 49.7073 47.3448 54.3032C48.5169 57.6351 49.4439 60.4036 49.4439 62.6318C49.4439 65.4775 48.349 67.6767 46.7877 69.2432C44.8802 71.1569 42.248 72.1055 40.0012 72.1055C37.7543 72.1055 35.1222 71.1569 33.2147 69.2432C31.6534 67.6767 30.5586 65.4775 30.5586 62.6318C30.5586 60.4036 31.4855 57.6351 32.6577 54.3032C34.2745 49.7073 36.3291 43.927 36.3291 36.8425C36.329 35.6203 36.7217 34.7518 37.3196 34.1521C37.9231 33.5465 38.7948 33.1582 40.0012 33.1582Z" stroke="#E67E17" stroke-width="6"/>
<path d="M37.9033 36.8426C37.9032 35.4391 38.6295 34.7373 40.0016 34.7373C41.3738 34.7373 42.1001 35.4391 42.1 36.8426C42.1 48.9479 47.8705 57.3689 47.8705 62.6321C47.8705 67.8952 43.4115 70.5268 40.0016 70.5268C36.5918 70.5268 32.1328 67.8952 32.1328 62.6321C32.1328 57.3689 37.9033 48.9479 37.9033 36.8426Z" stroke="#FFBB33" stroke-width="4"/>
<path fill-rule="evenodd" clip-rule="evenodd" d="M52.5424 17.788L49.9629 17.3617C49.6769 17.3145 49.4834 17.0436 49.5305 16.7568C49.5671 16.5342 49.7409 16.3597 49.9629 16.3231L52.5424 15.8967C53.4299 15.75 54.1255 15.0521 54.2717 14.1617L54.6967 11.5737C54.7438 11.2869 55.0137 11.0927 55.2995 11.1399C55.5214 11.1766 55.6953 11.3511 55.7319 11.5737L56.1568 14.1617C56.303 15.0521 56.9986 15.75 57.8862 15.8967L60.4657 16.3231C60.7516 16.3703 60.9452 16.6411 60.8981 16.9279C60.8615 17.1505 60.6876 17.325 60.4657 17.3617L57.8862 17.788C56.9986 17.9347 56.303 18.6327 56.1568 19.5231L55.7319 22.1111C55.6848 22.3979 55.4149 22.5921 55.129 22.5449C54.9071 22.5082 54.7332 22.3337 54.6967 22.1111L54.2717 19.5231C54.1255 18.6327 53.4299 17.9347 52.5424 17.788Z" fill="#FFD500"/>
<path fill-rule="evenodd" clip-rule="evenodd" d="M23.1575 22.0032L22.6155 21.9136C22.4311 21.8832 22.3062 21.7085 22.3366 21.5235C22.3601 21.3799 22.4723 21.2673 22.6155 21.2437L23.1575 21.1541C24.045 21.0074 24.7406 20.3095 24.8868 19.419L24.9761 18.8752C25.0065 18.6902 25.1806 18.565 25.365 18.5954C25.5082 18.6191 25.6203 18.7316 25.6439 18.8752L25.7332 19.419C25.8794 20.3095 26.575 21.0074 27.4625 21.1541L28.0045 21.2437C28.1889 21.2741 28.3138 21.4488 28.2834 21.6338C28.2598 21.7774 28.1477 21.89 28.0045 21.9136L27.4625 22.0032C26.575 22.1499 25.8794 22.8478 25.7332 23.7383L25.6439 24.2821C25.6135 24.4671 25.4394 24.5923 25.255 24.5619C25.1119 24.5382 24.9997 24.4256 24.9761 24.2821L24.8868 23.7383C24.7406 22.8478 24.045 22.1499 23.1575 22.0032Z" fill="#FFD500"/>
<path fill-rule="evenodd" clip-rule="evenodd" d="M25.8539 44.5606L25.5371 44.5083C25.3732 44.4812 25.2622 44.3259 25.2892 44.1614C25.3101 44.0338 25.4099 43.9338 25.5371 43.9127L25.8539 43.8604C26.7414 43.7137 27.437 43.0158 27.5833 42.1253L27.6355 41.8075C27.6625 41.643 27.8172 41.5317 27.9811 41.5587C28.1083 41.5798 28.2081 41.6798 28.229 41.8075L28.2813 42.1253C28.4275 43.0158 29.1231 43.7137 30.0106 43.8604L30.3274 43.9127C30.4913 43.9398 30.6023 44.0951 30.5753 44.2595C30.5544 44.3872 30.4546 44.4872 30.3274 44.5083L30.0106 44.5606C29.1231 44.7073 28.4275 45.4052 28.2813 46.2957L28.229 46.6135C28.202 46.778 28.0472 46.8893 27.8834 46.8622C27.7561 46.8412 27.6564 46.7412 27.6355 46.6135L27.5833 46.2957C27.437 45.4052 26.7414 44.7073 25.8539 44.5606Z" fill="#FFD500"/>
<defs>
<radialGradient id="paint0_radial_1832_24876" cx="0" cy="0" r="1" gradientUnits="userSpaceOnUse" gradientTransform="translate(6311.22 -1781.91) rotate(-90) scale(4736.84 8393.44)">
<stop stop-color="#C43E2F"/>
<stop offset="1" stop-color="#2B0E0A"/>
</radialGradient>
</defs>
</svg>
