<svg width="80" height="77" viewBox="0 0 80 77" fill="none" xmlns="http://www.w3.org/2000/svg">
<path d="M23.0581 34.0637C24.2228 30.9578 25.1287 27.7225 25.517 24.3577H25.2581C20.7287 24.3577 10.505 27.8519 3.38726 27.8519C2.7402 27.8519 1.96372 27.8519 1.31665 27.7225C4.81081 40.5344 4.55199 59.0405 3.77551 72.6289L3.64609 74.6996H12.4462C9.85794 67.9701 8.69322 60.8523 8.82263 53.7346V52.311C11.5403 51.9228 13.9992 50.6287 16.5874 53.9934L17.1051 44.2874C14.7756 45.9698 11.9286 46.6168 9.08146 46.2286C7.91674 43.3815 8.69322 36.3932 9.4697 33.2873C13.6109 31.9931 18.3992 30.5696 23.0581 34.0637ZM46.3525 33.2873L49.5879 32.3814L48.8114 27.4637C29.27 30.4402 26.5523 30.9578 26.5523 31.2166L27.717 37.4285L29.917 37.0402C30.4347 49.8522 27.5876 69.1348 25.517 74.6996L31.3406 76.6408L34.5759 59.817L42.5995 58.5229L45.4466 75.9937L52.3055 74.4407C47.129 61.7582 46.2231 37.9461 46.3525 33.2873ZM41.5642 51.2757C39.3642 51.664 37.1642 51.9228 34.8347 51.9228L34.7053 37.8167C34.8347 37.6873 35.0936 37.6873 35.223 37.6873C37.1642 37.2991 39.2348 37.0402 41.176 36.9108C41.176 41.8285 41.4348 46.358 41.4348 51.1463L41.5642 51.2757ZM79.4824 26.6872C77.5412 26.8166 75.7294 27.2048 73.9176 27.5931V29.0166C73.9176 37.4285 74.4352 49.9816 74.4352 58.6523C70.294 53.864 63.3057 39.6285 61.7527 31.7343H55.5409C56.835 46.4874 54.5056 59.0405 52.5644 69.1348L60.3292 71.076C59.5527 62.1464 60.588 58.6523 60.9762 49.3345C61.2351 49.9816 73.0117 68.8759 75.2117 72.8878H80C79.3529 57.7464 77.8 41.8285 79.4824 26.6872Z" fill="white"/>
<path d="M73.4 13.4869C72.8823 11.934 72.1058 11.8046 72.1058 11.8046C72.2352 12.4516 72.3647 12.9693 72.4941 13.6164C72.8823 15.4281 73.1411 17.2399 73.4 19.0517C73.5294 20.6047 73.7882 26.2989 73.9176 27.7224L76.1176 28.1107C76.1176 25.393 74.9529 20.087 74.6941 18.6635C74.3059 16.8517 73.9176 15.1693 73.4 13.4869Z" fill="white"/>
<path d="M78.8353 19.9576C78.9647 16.5929 78.5765 13.0987 77.8 9.86339C77.2823 7.92219 75.7294 6.49865 73.7882 5.98099C71.7175 5.85158 69.5175 6.36923 67.7057 7.40454C65.1175 8.82809 61.7527 10.381 59.1644 9.47515C56.4468 8.56926 54.1173 7.0163 52.0467 4.94568C50.2349 2.61624 47.6466 0.933868 44.6701 0.416214C41.3054 -0.230853 37.0347 -0.230852 34.5759 1.1927C31.2111 2.87507 28.6229 5.72217 27.1993 9.08692C25.5169 13.2281 25.7758 16.8517 24.9993 19.1812C24.4816 20.7341 22.6699 21.1224 19.5639 21.8988C17.6227 22.4165 8.82261 23.193 6.752 23.5812C4.55197 23.84 2.35194 24.7459 0.410742 26.0401C-0.753978 27.0754 0.928396 26.0401 0.928396 26.0401C2.74018 25.1342 4.8108 24.6165 6.88141 24.3577C11.6697 23.7106 16.3286 23.5812 20.3404 23.0636C23.5757 22.6753 25.5169 22.9342 26.0346 19.9576C26.5523 16.9811 27.0699 11.8046 27.9758 9.73398C28.8817 7.66337 31.47 3.52214 34.7053 2.35742C37.8112 1.45152 41.176 1.32211 44.2819 2.09859C46.7407 3.1339 49.0702 4.55744 50.882 6.36923C52.5644 8.05161 56.3173 10.6399 58.7762 10.7693C61.8821 11.1575 65.1175 10.381 67.8351 8.69867C69.5175 7.40454 71.847 7.0163 73.9176 7.66337C74.8235 8.18102 75.9882 9.08691 76.3764 12.0634C76.8941 15.8164 77.2823 19.8282 77.6706 22.9341C77.8 24.2283 78.0588 26.6871 78.1882 27.593L79.4823 26.8166C79.0941 24.3577 78.8353 22.2871 78.8353 19.9576Z" fill="white"/>
<path d="M30.1758 19.5694C31.3406 21.1224 35.223 25.9107 40.1407 26.5577C45.0584 27.2048 45.9643 23.5812 46.4819 22.9342C48.4231 19.6988 50.1055 16.3341 51.6585 12.8399C52.1761 11.4164 52.3055 8.05162 50.2349 9.34575C48.1643 10.6399 46.7408 11.934 45.0584 13.0987C43.6348 14.134 42.5995 15.0399 41.0466 16.0753C40.1407 16.7223 39.1054 17.1106 38.0701 17.1106C36.1289 17.1106 33.7994 16.5929 31.8582 16.4635C29.3994 16.3341 28.8817 18.0165 30.1758 19.5694Z" fill="white"/>
<path d="M34.5759 14.6517C37.0348 14.6517 38.0701 12.3222 37.9407 10.1222C37.8112 7.92217 36.7759 5.3339 34.0583 5.72214C32.8935 5.85156 31.3406 7.66334 31.3406 10.1222C31.3406 12.1928 32.3759 14.6517 34.5759 14.6517ZM41.4348 9.47513C41.9525 9.47513 42.3407 8.43983 43.6349 7.79276C45.0584 7.2751 46.4819 7.01628 48.0349 7.14569C49.329 7.01628 49.5879 6.75745 49.4585 6.2398C49.1996 5.3339 48.4231 4.81625 46.9996 4.68684C46.0937 4.55742 45.0584 4.68684 44.1525 5.07508C42.9878 5.59273 42.0819 6.36921 41.4348 7.53393C41.0466 8.56924 40.9172 9.47513 41.4348 9.47513Z" fill="white"/>
</svg>
