<svg width="80" height="80" viewBox="0 0 80 80" fill="none" xmlns="http://www.w3.org/2000/svg">
<path d="M75.2267 27.6529C74.7291 25.8219 74.0259 24.0533 73.1309 22.3808C72.4936 10.0349 57.9499 0.152614 39.9982 0C22.0525 0.152614 7.50076 10.0349 6.8655 22.3808C5.96898 24.0528 5.26521 25.8216 4.76774 27.6529C4.08498 30.0927 3.97614 30.9549 4.00384 33.3709C4.02759 37.2041 6.31138 40.5517 5.82849 44.5494C5.63059 46.1648 5.05074 47.7702 5.20509 49.4093C5.42873 51.8254 7.21777 53.8311 9.21855 55.2106C12.3988 57.4027 15.9472 59.1013 19.2166 61.1883C21.2885 62.5103 20.9977 64.3595 20.8294 66.8727C20.7701 67.8855 20.7582 71.5542 20.8413 72.5789C20.8946 73.1701 21.0047 73.7549 21.1698 74.325C21.9476 76.9551 24.0909 79.0541 26.8575 79.9143C27.0144 79.9605 27.1769 79.9845 27.3404 79.9856C27.754 79.9862 28.151 79.8225 28.4443 79.5305C28.7378 79.2385 28.9038 78.842 28.9059 78.4278V73.0764C29.8333 73.0764 30.7227 73.4454 31.3785 74.1021C32.0343 74.7589 32.4028 75.6497 32.4028 76.5786V78.0056C32.5096 79.833 32.9331 79.9995 35.1734 79.9995C35.2916 80.0015 35.4097 79.9975 35.5276 79.9876H36.4697C36.5123 79.9813 36.5552 79.9773 36.5983 79.9757C36.8264 79.9749 37.0523 79.9292 37.2628 79.841C37.4732 79.7528 37.6644 79.624 37.8252 79.4618C37.986 79.2997 38.1133 79.1074 38.1999 78.896C38.2865 78.6845 38.3306 78.4581 38.3298 78.2296V74.8324C38.3309 74.3925 38.4954 73.9688 38.7914 73.6438C39.0874 73.3187 39.4936 73.1158 39.9309 73.0744V73.0625C39.9553 73.0606 39.9798 73.0647 40.0022 73.0744C40.0239 73.0645 40.0478 73.0604 40.0714 73.0625V73.0744C40.5088 73.1158 40.9149 73.3187 41.2109 73.6438C41.507 73.9688 41.6714 74.3925 41.6725 74.8324V78.2276C41.6717 78.4561 41.7158 78.6826 41.8024 78.894C41.8891 79.1054 42.0164 79.2977 42.1771 79.4598C42.338 79.622 42.5291 79.7508 42.7396 79.839C42.9501 79.9272 43.1759 79.973 43.4041 79.9737C43.4471 79.9752 43.4902 79.9792 43.5327 79.9856H44.4748C44.5926 79.9955 44.7107 79.9995 44.8289 79.9975C47.0653 79.9975 47.4887 79.831 47.5996 78.0036V76.5766C47.5996 75.6477 47.968 74.7569 48.6238 74.1002C49.2796 73.4434 50.1691 73.0744 51.0965 73.0744V78.4258C51.0986 78.84 51.2645 79.2366 51.558 79.5285C51.8514 79.8205 52.2484 79.9842 52.6619 79.9836C52.8255 79.9826 52.9879 79.9585 53.1448 79.9123C55.9154 79.0521 58.0548 76.9532 58.8325 74.3231C58.9977 73.7529 59.1077 73.1682 59.161 72.5769C59.2441 71.5522 59.2323 67.8835 59.1729 66.8707C59.0087 64.3595 58.7138 62.5103 60.7878 61.1863C64.0492 59.0993 67.6035 57.4007 70.7838 55.2086C72.7846 53.8212 74.5736 51.8234 74.7993 49.4073C74.9516 47.7682 74.3737 46.1628 74.1739 44.5475C73.6909 40.5498 75.9748 37.2022 75.9986 33.369C76.0143 30.9549 75.9095 30.0927 75.2267 27.6529ZM34.6172 48.3826C34.2134 49.142 33.7319 49.8574 33.1805 50.5172C33.038 50.6817 32.9093 50.8463 32.7847 51.0246C32.4709 51.4776 32.1292 51.9105 31.7615 52.3209C30.6316 53.4764 29.0998 54.0551 27.5106 54.1958C25.6578 54.3778 23.7874 54.2015 22.0011 53.6766C19.9364 53.0282 18.1187 51.7639 16.791 50.0528C15.4634 48.3416 14.6892 46.2653 14.5718 44.1015C14.5599 43.9033 14.5599 43.7051 14.5599 43.5069C14.5571 41.8947 14.9201 40.3029 15.6216 38.8518C16.323 37.4006 17.3445 36.1281 18.6089 35.1302C19.8733 34.1324 21.3475 33.4353 22.9204 33.0916C24.4932 32.748 26.1234 32.7667 27.6879 33.1465C29.2524 33.5262 30.7103 34.257 31.9516 35.2837C33.1927 36.3103 34.1848 37.606 34.8527 39.0729C35.5207 40.5398 35.8471 42.1395 35.8074 43.7513C35.7676 45.363 35.3627 46.9446 34.6232 48.3767L34.6172 48.3826ZM43.412 61.7076C43.129 61.6838 42.9053 61.448 42.7174 61.2359C42.0821 60.5164 41.332 59.5373 40.3624 59.2539C40.1238 59.1846 39.8706 59.1846 39.6321 59.2539C38.6663 59.5373 37.9024 60.5164 37.277 61.2359C37.0791 61.448 36.8655 61.6838 36.5825 61.7076C35.4168 61.8246 36.2756 58.6296 37.1247 56.158C37.5838 54.8142 38.043 53.6805 38.1597 53.409C38.2902 53.1031 38.4437 52.8076 38.6188 52.525C38.792 52.2313 39.0066 51.9643 39.2561 51.7322C39.3609 51.6348 39.4749 51.5479 39.5964 51.4726C39.7209 51.3748 39.8737 51.3205 40.0319 51.318C40.1149 51.3231 40.1954 51.3476 40.2673 51.3893C40.35 51.4334 40.4288 51.4845 40.5029 51.5419C40.5859 51.6014 40.6691 51.6727 40.7502 51.7401L40.9046 51.8927C41.1361 52.1504 41.3355 52.4352 41.4983 52.741C41.6203 52.9549 41.7306 53.1752 41.8288 53.401C41.9456 53.6726 42.4047 54.8063 42.8638 56.1501C43.7187 58.6296 44.5776 61.8246 43.412 61.7076ZM65.4306 44.1015C65.3134 46.2656 64.5389 48.3423 63.2108 50.0535C61.8827 51.7647 60.0645 53.0288 57.9994 53.6766C56.213 54.2015 54.3426 54.3778 52.4898 54.1958C50.9066 54.0551 49.3689 53.4764 48.2388 52.3209C47.8712 51.9105 47.5295 51.4776 47.2157 51.0246C47.085 50.8463 46.9564 50.6817 46.8198 50.5172C46.2686 49.8574 45.787 49.142 45.3831 48.3826C44.6459 46.9509 44.2429 45.3702 44.2047 43.7597C44.1663 42.1493 44.4937 40.5512 45.1619 39.0859C45.8302 37.6206 46.822 36.3265 48.0626 35.301C49.303 34.2756 50.7598 33.5456 52.3231 33.1662C53.8863 32.7869 55.5151 32.7679 57.0867 33.1109C58.6583 33.4538 60.1317 34.1497 61.3956 35.1461C62.6595 36.1424 63.6809 37.4132 64.383 38.8625C65.0851 40.3119 65.4494 41.902 65.4484 43.5128C65.4425 43.713 65.4425 43.9132 65.4306 44.1015Z" fill="white"/>
</svg>
