<svg width="64" height="80" viewBox="0 0 64 80" fill="none" xmlns="http://www.w3.org/2000/svg">
<path d="M54.3166 31.4955C54.054 31.3719 55.6331 32.1538 53.0001 30.8373C49.3115 28.9929 44.5524 27.2168 44.6622 21.1828C44.6754 20.453 44.0501 20.7441 43.2359 21.6217C43.1807 21.6752 43.1224 21.7255 43.0614 21.7725C35.9951 27.9848 32.8087 32.4822 31.8375 39.1249C30.2902 49.7073 32.9304 51.0348 33.8389 50.6046C34.0085 50.5196 34.1561 50.3966 34.2703 50.2451C34.3844 50.0937 34.4621 49.9179 34.4972 49.7315C34.8177 48.2483 35.4669 43.1319 44.454 41.4239C53.33 55.9425 39.5252 64.7115 31.0855 64.7115C20.7812 64.7115 7.14145 51.1335 22.8873 34.6558C25.5725 31.8457 29.3605 29.1294 33.2524 23.2673C38.02 16.0861 38.8576 9.3004 34.0652 2.86918C31.6067 -0.429981 31.1815 -0.321984 31.2776 0.447697C31.6661 3.5613 31.569 2.60694 31.6067 3.51957C31.7934 8.04156 28.6171 10.2481 24.3659 12.8449L7.79971 22.3896C7.64208 22.4797 5.7632 23.5063 5.60554 23.5964C4.0696 24.4741 0 27.7654 0 32.7023C0 35.6584 0.0103317 57.4967 0.0103317 57.4967C-0.00158354 59.2904 0.458434 61.0557 1.34422 62.6154C2.23001 64.1752 3.51042 65.4745 5.05698 66.3832C7.25906 67.6864 22.7686 76.7114 25.6824 78.3415C25.854 78.4375 26.0561 78.5808 26.2309 78.6706C30.2902 80.7551 34.1883 80.1907 37.4213 78.3415C40.5995 76.5237 54.2562 69.028 59.0341 65.6152C62.106 63.421 63.3128 60.3491 63.2031 57.7161V43.1247C63.2031 38.0781 59.9118 34.1286 54.3166 31.4955Z" fill="url(#paint0_linear_2596_27)"/>
<defs>
<linearGradient id="paint0_linear_2596_27" x1="8.51463" y1="21.5863" x2="53.7312" y2="76.9174" gradientUnits="userSpaceOnUse">
<stop offset="0.03856" stop-color="#AA19AB"/>
<stop offset="0.92103" stop-color="#E00E52"/>
</linearGradient>
</defs>
</svg>
