<svg width="80" height="80" viewBox="0 0 80 80" fill="none" xmlns="http://www.w3.org/2000/svg">
<path d="M40.9922 4.66953C35.513 4.43975 27.1093 6.15057 21.6092 9.37795C12.4263 8.8599 13.8321 2.31741 7.55704 4.41886C2.99276 5.9375 0.0661842 9.8208 0.00142783 14.6671C-0.0737732 19.9458 2.81938 23.6327 9.19475 26.2877C9.10701 26.482 9.03181 26.6784 8.94617 26.8726C8.91274 26.9269 8.88141 26.9917 8.84799 27.0669C8.76025 27.305 8.65372 27.5432 8.54509 27.7813C8.44692 27.9881 8.35083 28.2033 8.2422 28.4101C8.23176 28.4435 8.22131 28.4644 8.20878 28.4957C6.93454 31.4933 3.58392 40.1352 5.86501 43.6863C6.82174 42.7296 8.50749 43.0199 9.2407 43.8346C9.2407 43.8346 9.13417 56.3514 15.9858 62.3299C16.788 61.5507 18.0267 60.8217 19.4618 62.1941C19.4618 62.1941 30.2134 71.4981 39.5425 75.0932H39.9081C44.3115 74.0362 60.5382 62.1941 60.5382 62.1941C61.9712 60.8217 63.212 61.5486 64.0142 62.3299C70.8658 56.3514 70.7593 43.8346 70.7593 43.8346C71.4925 43.0199 73.1783 42.7317 74.135 43.6863C76.414 40.1352 73.0655 31.4912 71.7912 28.4957C71.7808 28.4623 71.7703 28.4414 71.7578 28.4101C71.6492 28.2033 71.551 27.9881 71.4549 27.7813C71.3463 27.5432 71.2377 27.305 71.152 27.0669C71.1186 26.9917 71.0873 26.9269 71.0538 26.8726C70.9682 26.6784 70.8909 26.482 70.8052 26.2877C77.1785 23.6327 80.0738 19.9458 79.9986 14.6671C79.9338 9.8208 77.0072 5.9375 72.443 4.41886C66.1658 2.31532 67.4421 8.78887 58.3908 9.37795C52.8907 6.15057 45.5377 4.43975 40.0585 4.66953" fill="url(#paint0_linear_3743_1179)"/>
<path d="M1.55964 14.4916C1.48862 19.2815 5.03977 23.2044 10.9932 25.613C10.9117 25.7905 4.904 38.1465 7.0326 41.3676C7.92457 40.5007 10.5963 41.3112 11.2815 42.0507C11.2815 42.0507 11.1833 53.4039 17.5795 58.8288C18.3274 58.1228 19.4867 57.4606 20.8236 58.7056C20.8236 58.7056 31.9032 68.7721 40.0855 72.0538H39.9163C48.1007 68.7721 59.1782 58.7056 59.1782 58.7056C60.5172 57.4606 61.6745 58.1207 62.4223 58.8288C68.8186 53.406 68.7204 42.0507 68.7204 42.0507C69.4035 41.3133 72.0773 40.5007 72.9693 41.3676C75.0979 38.1465 69.3909 25.7592 69.3095 25.5816C75.2608 23.1731 78.5132 19.8288 78.4422 15.041" fill="#F2B80C"/>
<path d="M40.9316 8.21443C35.8159 8.00762 26.8356 10.0548 21.7011 12.9834C12.4012 12.4382 13.3788 6.07955 7.51941 7.98882C3.25802 9.36542 1.62239 8.99777 1.56182 13.3929C1.49079 18.1827 6.27441 22.3606 12.2257 24.7691C12.1443 24.9466 7.41287 35.926 8.08968 39.6192C8.98165 38.7523 11.6952 40.2145 12.3782 40.9519C12.3782 40.9519 12.0001 51.4446 17.5796 57.1807C18.2982 57.9181 19.4868 55.8125 20.8237 57.0575C20.8237 57.0575 31.9033 67.124 40.0856 70.4056H39.9164C48.1008 67.124 59.1783 57.0575 59.1783 57.0575C60.5173 55.8125 61.7895 57.9912 62.4224 57.1807C68.2672 49.7087 67.6238 40.9519 67.6238 40.9519C68.3069 40.2145 71.3212 38.9675 72.2132 39.8344C73.197 35.9928 67.7638 24.6542 67.9225 25.001C73.8738 22.5924 78.5133 18.73 78.4423 13.9401C78.3817 9.54507 76.7461 9.36333 72.4847 7.98673C66.6232 6.07955 67.6029 12.4361 58.3031 12.9813C53.1685 10.0527 45.168 8.00553 40.0522 8.21234" fill="url(#paint1_linear_3743_1179)"/>
<path d="M52.2473 48.6078C49.9809 43.7761 47.6789 38.9633 45.3852 34.142C44.253 31.7649 42.4085 30.4342 39.7493 30.4259C37.0442 30.4071 35.1621 31.7273 34.0111 34.1608C31.7175 38.9821 29.405 43.7949 27.1386 48.6266C25.6116 51.8477 27.055 55.1064 30.5372 55.9106C30.5372 55.9106 39.6094 52.3804 48.8695 55.9023C52.333 55.1148 53.766 51.8477 52.2494 48.6099L52.2473 48.6078ZM45.9179 46.4458C44.6249 47.7848 43.3068 49.0862 41.9761 50.3875C40.7123 51.6325 39.2041 51.8393 37.8568 50.6863C36.2274 49.3013 34.738 47.7555 33.2695 46.2014C32.5864 45.4807 32.8768 44.7036 33.6622 44.1417C35.488 42.8319 37.5476 42.2324 39.7661 42.2032C41.9385 42.2679 43.9334 42.8486 45.6839 44.1124C46.6678 44.8248 46.7514 45.5726 45.9179 46.4437V46.4458Z" fill="url(#paint2_linear_3743_1179)"/>
<path d="M30.6854 58.5407C32.3106 59.7251 33.9608 60.9053 35.6069 62.0877C36.4195 62.6705 37.7418 62.9963 39.649 62.9984C41.5896 63.0026 42.939 62.6788 43.7641 62.0835C45.4081 60.9012 47.0667 59.7209 48.6919 58.5365C49.7865 57.7469 48.7525 56.9489 46.2541 56.7505C46.2541 56.7505 39.7492 57.6153 33.1086 56.7526C30.6249 56.9448 29.5971 57.7469 30.6854 58.5407Z" fill="url(#paint3_linear_3743_1179)"/>
<path d="M47.5115 24.226V24.2678H47.4717L47.5115 24.226Z" fill="#F2B80C"/>
<path d="M64.4216 27.1526C64.3924 26.9771 64.3611 26.8037 64.3214 26.6282C64.2817 26.4235 64.2211 26.2272 64.1522 26.0329V26.0225C63.983 25.5921 63.7323 25.1806 63.4043 24.8109C63.1954 24.5644 62.9552 24.3388 62.6857 24.1445C62.3369 23.8667 61.9379 23.6202 61.4783 23.405C61.1796 23.2609 60.86 23.1168 60.5091 23.004L60.4986 22.9935C60.0391 22.8285 59.5398 22.6865 59.0009 22.5737C58.6312 22.4817 58.2531 22.4086 57.8541 22.3481C57.2942 22.2666 56.7156 22.1935 56.1077 22.1538C55.6879 22.1225 55.2596 22.1016 54.8105 22.0932C54.1713 22.0828 53.5238 22.0828 52.8532 22.1245C52.5942 22.135 52.3352 22.1454 52.074 22.1663C51.8443 22.1872 51.6145 22.2081 51.3847 22.2269C50.5867 22.2979 49.8285 22.4107 49.1496 22.5444C47.821 22.7909 46.764 23.1398 46.1958 23.5408H33.1798C32.6116 23.1398 31.5525 22.7909 30.2261 22.5444C29.5472 22.4107 28.7889 22.2979 27.9909 22.2269C27.7612 22.206 27.5314 22.1851 27.3016 22.1663C27.0426 22.1454 26.7835 22.135 26.5224 22.1245C25.854 22.0828 25.2043 22.0828 24.5651 22.0932C24.116 22.1036 23.6878 22.1245 23.2679 22.1538C22.66 22.1956 22.0793 22.2666 21.5216 22.3481C21.1226 22.4086 20.7424 22.4817 20.3747 22.5737C19.8358 22.6865 19.3366 22.8306 18.877 22.9935L18.8665 23.004C18.5177 23.1168 18.1981 23.2609 17.8994 23.405C17.4398 23.6202 17.0408 23.8667 16.692 24.1445C16.4225 24.3388 16.1823 24.5665 15.9734 24.8109C15.6433 25.1806 15.3948 25.5901 15.2256 26.0225V26.0329C15.1566 26.2272 15.096 26.4235 15.0564 26.6282C15.0167 26.8037 14.9874 26.9771 14.9561 27.1526C14.8663 27.7479 14.8161 28.3641 14.8057 28.9804C14.7848 29.4629 14.7952 29.935 14.8349 30.4175C14.8851 31.1967 14.9958 31.978 15.1545 32.7279C15.5932 34.8941 16.4016 36.8034 17.3312 37.8395C18.0999 38.7022 19.7063 39.7383 21.8934 40.0662C22.0333 40.0871 22.1837 40.108 22.3425 40.1185C22.6329 40.1498 22.9525 40.1707 23.2804 40.1707C23.5896 40.1707 23.9301 40.1498 24.2685 40.1185C24.6382 40.0767 25.0268 40.0161 25.4362 39.9138C25.666 39.872 25.8749 39.8218 26.1151 39.7383H26.1255C26.6937 39.5733 27.2828 39.3477 27.8928 39.051C28.252 38.8672 28.6218 38.6604 28.9915 38.4244C29.0312 38.393 29.0813 38.3721 29.121 38.3324C29.4009 38.157 29.6704 37.9627 29.9294 37.758C30.2992 37.4802 30.648 37.1835 30.9781 36.8556C31.2079 36.63 31.4376 36.3939 31.6465 36.1474C31.9557 35.7986 32.2356 35.4288 32.5051 35.0382C32.6952 34.7604 32.8748 34.4847 33.0336 34.1859C33.1025 34.0836 33.1631 33.9708 33.2237 33.858C33.3929 33.5405 33.5537 33.2104 33.6937 32.872C33.8336 32.5441 33.9631 32.2057 34.0739 31.8652C34.2535 31.3513 34.3935 30.8395 34.4937 30.3152C34.5836 29.9141 34.6441 29.5047 34.6838 29.1036C34.7047 28.9595 34.7131 28.8153 34.7235 28.6733C34.7528 28.2325 34.7528 27.8106 34.7444 27.4116H44.6459C44.6354 27.8127 44.6354 28.2325 44.6667 28.6733C44.6772 28.8174 44.6876 28.9616 44.7064 29.1036C44.7461 29.5047 44.8067 29.9141 44.8965 30.3152C44.9968 30.8395 45.1368 31.3513 45.3164 31.8652C45.4271 32.2036 45.5566 32.542 45.6966 32.872C45.8365 33.2104 45.9953 33.5384 46.1666 33.858C46.2272 33.9708 46.2857 34.0836 46.3567 34.1859C46.5175 34.4847 46.6972 34.7604 46.8852 35.0382C47.1546 35.4288 47.4346 35.7986 47.7437 36.1474C47.9526 36.3939 48.1824 36.63 48.4122 36.8556C48.7422 37.1835 49.0911 37.4823 49.4608 37.758C49.7198 37.9627 49.9893 38.1591 50.2692 38.3324C50.3089 38.3742 50.359 38.393 50.3987 38.4244C50.7685 38.6604 51.1382 38.8651 51.4975 39.051C52.1075 39.3497 52.6965 39.5753 53.2647 39.7383H53.2752C53.5154 39.8198 53.7243 39.872 53.9541 39.9138C54.3635 40.0161 54.752 40.0788 55.1218 40.1185C55.4623 40.1498 55.8007 40.1707 56.1098 40.1707C56.4399 40.1707 56.7595 40.1498 57.0478 40.1185C57.2086 40.108 57.3569 40.0871 57.4969 40.0662C59.6819 39.7383 61.2903 38.7001 62.0591 37.8395C62.9865 36.8034 63.795 34.8941 64.2357 32.7279C64.3945 31.978 64.5052 31.1988 64.5553 30.4175C64.595 29.935 64.6055 29.4629 64.5846 28.9804C64.5741 28.3641 64.524 27.7479 64.4342 27.1526H64.4216ZM21.5383 39.2954L16.059 33.6595C15.9901 33.413 15.9295 33.1457 15.8689 32.8887C15.7394 32.3143 15.6392 31.7398 15.5702 31.1737L23.6355 39.4688C22.8773 39.5001 22.1775 39.427 21.5383 39.2933V39.2954ZM24.8722 39.3372L15.47 29.6676C15.4491 29.0096 15.4804 28.3746 15.5493 27.7688L26.3992 38.9278C25.8811 39.1221 25.3714 39.2557 24.8722 39.3393V39.3372ZM27.3789 38.5267L15.7708 26.5886C15.8898 26.1165 16.1196 25.6945 16.4497 25.306L28.628 37.829C28.2082 38.1068 27.7904 38.3324 27.381 38.5267H27.3789ZM29.4448 37.2629L17.1683 24.6354C17.5171 24.3785 17.9265 24.1424 18.3965 23.9273H18.407L30.4955 36.3584C30.1655 36.6759 29.8166 36.9851 29.4469 37.2608L29.4448 37.2629ZM31.1619 35.6524L19.4034 23.5596C19.8818 23.3946 20.4019 23.2609 20.9408 23.1586L32.01 34.5327C31.751 34.9338 31.4606 35.3035 31.1619 35.6524ZM32.62 33.5154C32.5907 33.5676 32.5594 33.6178 32.5301 33.67L22.1294 22.9726C22.7081 22.8912 23.3076 22.8389 23.9071 22.8076L33.1694 32.3331C33.0189 32.7133 32.8393 33.1122 32.62 33.5133V33.5154ZM33.5266 31.3095L25.2315 22.7784C25.9104 22.7784 26.5788 22.8097 27.2285 22.8494L33.9067 29.7178C33.8378 30.2003 33.7167 30.7351 33.5266 31.3095ZM28.7471 23.004C29.6245 23.1168 30.435 23.2714 31.1034 23.4447L31.8617 24.2239L31.9014 24.2657L33.9276 26.3504C34.0467 26.9771 34.0864 27.6957 34.0467 28.454L28.7471 23.0019V23.004ZM44.7064 26.7097H34.665C34.5459 25.7237 34.266 24.8715 33.8671 24.2657H45.5065C45.1075 24.8715 44.8276 25.7237 44.7085 26.7097H44.7064ZM45.4459 26.3504L47.4722 24.2657L47.5119 24.2239L48.2701 23.4447C48.9386 23.2693 49.747 23.1168 50.6264 23.004L45.3268 28.456C45.2872 27.6957 45.3268 26.9771 45.4459 26.3525V26.3504ZM45.8449 31.3095C45.6548 30.7351 45.5357 30.2003 45.4647 29.7178L52.143 22.8494C52.7926 22.8076 53.4611 22.7784 54.14 22.7784L45.8449 31.3095ZM46.8434 33.67C46.8142 33.6178 46.7828 33.5676 46.7536 33.5154C46.5342 33.1143 46.3546 32.7153 46.2042 32.3352L55.4664 22.8097C56.066 22.841 56.6634 22.8912 57.242 22.9747L46.8413 33.6721L46.8434 33.67ZM48.2095 35.6524C47.9108 35.3035 47.6205 34.9338 47.3614 34.5327L58.4306 23.1586C58.9696 23.2609 59.4876 23.3946 59.9681 23.5596L48.2095 35.6524ZM49.9266 37.2629C49.5569 36.9851 49.2081 36.678 48.878 36.3605L60.9666 23.9294H60.977C61.4449 24.1445 61.8544 24.3806 62.2053 24.6375L49.9287 37.265L49.9266 37.2629ZM50.7455 37.8269L62.9239 25.3039C63.2539 25.6945 63.4837 26.1144 63.6028 26.5865L51.9947 38.5246C51.5852 38.3304 51.1654 38.1048 50.7476 37.8269H50.7455ZM63.5025 32.8908C63.4419 33.1478 63.3834 33.4151 63.3124 33.6616L57.8332 39.2975C57.194 39.4312 56.4963 39.5022 55.738 39.473L63.8033 31.1779C63.7344 31.7419 63.6341 32.3164 63.5046 32.8929L63.5025 32.8908ZM54.4993 39.3372C54 39.2557 53.4903 39.1221 52.9723 38.9257L63.8221 27.7667C63.891 28.3725 63.9224 29.0096 63.9015 29.6655L54.4993 39.3351V39.3372Z" fill="#F2B80C"/>
<defs>
<linearGradient id="paint0_linear_3743_1179" x1="39.9979" y1="4.00108" x2="39.9979" y2="75.0994" gradientUnits="userSpaceOnUse">
<stop stop-color="#4D4D4C"/>
<stop offset="1" stop-color="#1D1D1B"/>
</linearGradient>
<linearGradient id="paint1_linear_3743_1179" x1="40.0021" y1="7.63371" x2="40.0021" y2="70.4077" gradientUnits="userSpaceOnUse">
<stop stop-color="#4D4D4C"/>
<stop offset="1" stop-color="#1D1D1B"/>
</linearGradient>
<linearGradient id="paint2_linear_3743_1179" x1="39.6888" y1="61.605" x2="39.6888" y2="29.0367" gradientUnits="userSpaceOnUse">
<stop stop-color="#F2B80D"/>
<stop offset="1" stop-color="#FFD22D"/>
</linearGradient>
<linearGradient id="paint3_linear_3743_1179" x1="39.6887" y1="61.6051" x2="39.6887" y2="29.0368" gradientUnits="userSpaceOnUse">
<stop stop-color="#F2B80D"/>
<stop offset="1" stop-color="#FFD22D"/>
</linearGradient>
</defs>
</svg>
