<svg width="80" height="80" fill="none" xmlns="http://www.w3.org/2000/svg"><path fill-rule="evenodd" clip-rule="evenodd" d="M12.108 1h33.768c-4.11 1.22-8.665 1.777-9.331 6.22-3.888 15.996-7.666 31.991-10.442 48.209 1.889.555 7.665 2.334 7.665 2.334L0 57.873s6.665-1.889 8.886-2.555c4.443-16.33 6.887-27.215 9.997-43.877.11-.444 1.22-4.887.667-6.664-.222-.667-.667-1.555-1.333-2-2.112-1.333-3.443-1.444-6.11-1.777ZM54.23 20.562c4.22-2.444 8.664-1.555 12.44 1.777 3.888-2.776 7.998-2.221 13.33-2.11-3.777 14.996-6.665 30.325-11.219 45.098-1.888 7.22-8.553 12.774-15.884 12.885-2.222 0-3.223-.06-5.554-.333-4.68-.549-7.22-5.776-6.998-10.886.333-5.443 7.22-6.665 9.33-2.11 2.222 4.665-1.332 7.997-3.998 11.44 6.109 1.223 8.442-3.887 11.108-9.885 1.777-5.554 2.554-7.665 3.22-11.553-1.999 2.333-3.332 3.555-6.997 4.777-3.11.666-7.665-.889-8.886-3.11-7.554-11.553-2.332-29.77 10.108-35.99ZM53.008 57.11c3.11 0 4.887-4.334 6.776-8 0 0 5.11-17.217 5.554-25.326-1.222-1.888-3.666-3.11-5.554-1.22-1.778 1.22-6.22 20.993-6.887 32.213l.11 2.331v.002Z" fill="#fff"/></svg>