<svg width="80" height="59" viewBox="0 0 80 59" fill="none" xmlns="http://www.w3.org/2000/svg">
<path d="M24.9804 7.42725H63.753L57.8994 33.5484H18.1196L24.9804 7.42725Z" fill="white"/>
<path d="M50.2518 0H51.9828L58.5288 4.09127H56.7034L50.2518 0Z" fill="white"/>
<path d="M43.4855 40.1574H45.2164L51.7624 36.0661H49.9371L43.4855 40.1574Z" fill="white"/>
<path d="M38.8328 32.4155L42.982 19.8899L46.7199 32.4155H55.8303C55.8303 32.4155 55.124 34.3719 54.6714 35.6255C53.7767 35.834 53.2664 35.9241 52.3536 36.0347C51.4033 36.1498 49.907 36.192 49.907 36.192H24.2175C22.286 36.192 21.0949 36.192 19.1955 35.5941C18.0954 35.2477 17.3928 34.7758 16.8455 34.1149C16.1649 33.293 16.1055 32.4155 16.1055 32.4155H38.8328Z" fill="#DBDBDB"/>
<path d="M23.9922 6.5775C24.6831 5.99819 25.134 5.73257 25.9559 5.35012C26.7923 4.96092 28.2094 4.62628 28.2094 4.62628L27.1148 7.86783L24.2819 18.4107L20.4188 32.4154H16.1055C16.1055 32.4154 16.1055 29.718 16.3304 28.7648C17.5456 23.6147 17.8435 23.1629 19.1955 18.1904C19.9846 15.2886 20.4833 13.6585 21.3202 10.8261C22.0798 8.25568 22.4799 7.84554 23.9922 6.5775Z" fill="#DBDBDB"/>
<path d="M54.8641 7.86784L51.4163 20.3305L46.9771 7.86784H27.0826L28.2094 4.6263C28.2094 4.6263 29.2053 4.42315 29.8512 4.34306C30.4892 4.26394 31.493 4.20828 31.493 4.20828L58.6633 4.0824C60.5948 4.0824 61.7859 4.09128 63.6852 4.68924C64.7854 5.03559 65.488 5.50749 66.0352 6.16839C66.7158 6.9903 66.7113 7.86784 66.7113 7.86784H54.8641Z" fill="#DBDBDB"/>
<path d="M58.8885 33.6428C58.1977 34.2221 57.7467 34.4878 56.9249 34.8702C56.0884 35.2594 55.5761 35.4311 54.6714 35.6255C55.0988 34.3473 55.7659 32.3525 55.7659 32.3525L58.5988 21.8096L62.4619 7.80487H66.7113C66.7113 7.80487 66.7043 9.71153 66.5504 10.9205C66.2661 13.1541 62.4075 27.6313 61.5605 29.3942C60.7135 31.1571 60.4009 32.3748 58.8885 33.6428Z" fill="#DBDBDB"/>
<path d="M50.2518 0L56.7211 4.10027L43.6537 4.20142L50.2518 0Z" fill="#DBDBDB"/>
<path d="M43.4854 40.1574L36.8932 35.9559H50.108L43.4854 40.1574Z" fill="#DBDBDB"/>
<path d="M34.9972 7.86786H38.0602L31.4654 32.4155H28.4025L34.9972 7.86786Z" fill="#DBDBDB"/>
<path d="M23.1874 14.225H34.2615V17.3092H23.1874V14.225Z" fill="#DBDBDB"/>
<path d="M47.0732 32.4155L42.9819 19.8899L45.4996 32.4155H47.0732Z" fill="white"/>
<path d="M55.6964 7.86786L51.4163 20.3305L54.0913 7.86786H55.6964Z" fill="white"/>
<path d="M65.7498 9.75597L65.8721 8.87263C65.9875 8.03883 65.8159 7.19049 65.3855 6.46703C64.8655 5.59313 64.0098 4.97091 63.0181 4.74586L60.1338 4.09125L61.1364 4.09125C61.3904 4.09126 61.6437 4.11843 61.8919 4.1723L63.9468 4.61832C64.9948 4.84582 65.9168 5.46424 66.5249 6.34769C67.0089 7.05076 67.268 7.88425 67.268 8.73781V9.34898C67.268 9.88916 67.1972 10.427 67.0574 10.9488L61.8777 30.2797C61.456 31.8536 60.499 33.2314 59.1713 34.1759C58.4966 34.656 57.7421 35.0126 56.9429 35.2293L56.3826 35.3813C55.0889 35.7321 53.764 35.9552 52.4269 36.0474L51.6995 36.0976L56.1299 34.5059C56.6778 34.309 57.1979 34.0417 57.6769 33.7107C58.9875 32.8051 59.9335 31.463 60.3458 29.9242L65.7498 9.75597Z" fill="white"/>
<path d="M21.1094 32.4154H19.5673L23.698 17.3092H25.1062L21.1094 32.4154Z" fill="#DBDBDB"/>
<path d="M32.3761 32.4155H30.834L37.38 7.86786H38.8277L32.3761 32.4155Z" fill="#DBDBDB"/>
<path d="M32.3761 32.4155H30.834L37.38 7.86786H38.8277L32.3761 32.4155Z" fill="#DBDBDB"/>
<path d="M25.9874 14.2251H24.4316L26.1527 7.86786H27.561L25.9874 14.2251Z" fill="#DBDBDB"/>
<path d="M10.9402 34.1143C10.9402 34.1143 8.51278 34.4904 7.81765 34.7639C5.99426 35.4932 4.62677 37.0887 3.86321 39.3793C3.6353 40.063 0.695123 51.0146 0.307648 52.6443C-0.102549 54.3537 -0.102549 55.6528 0.307648 56.5075C0.786326 57.4762 1.5726 58.0232 2.98573 58.3537C3.60112 58.5018 4.77494 58.5474 9.72078 58.5816C17.4017 58.6499 18.6436 58.5246 20.581 57.5104C21.9374 56.7924 23.1566 55.1856 23.8288 53.1912C24.1712 52.1998 27.2592 40.6215 27.5097 39.4135C28.1253 36.4505 27.3164 34.9462 24.7408 34.2624C24.1139 34.1029 23.1792 34.0687 17.6982 34.0573C14.2225 34.0459 10.9402 34.1143 10.9402 34.1143ZM19.5783 40.6898C19.419 41.3622 16.7748 51.1742 16.6609 51.516L16.5356 51.8921H12.3305C10.0171 51.8921 8.12537 51.8921 8.12537 51.8921C8.12537 51.8237 10.7464 42.0231 11.0427 40.9747L11.2137 40.3821H15.4417H19.6582L19.5783 40.6898Z" fill="white"/>
<path d="M31.4832 34.0004C31.2094 34.8209 26.4685 52.9178 26.3546 53.5673C25.9329 55.8921 26.4346 57.2939 27.9043 57.932C29.3293 58.536 29.5911 58.5588 36.7823 58.5588C42.7877 58.5588 43.5512 58.536 44.4745 58.3537C47.2207 57.7953 48.6911 56.5531 49.785 53.8864C50.0355 53.2825 51.2321 49.0659 52.7251 43.4932C54.1155 38.3423 55.2434 34.0345 55.2434 34.0004C55.2434 34.0004 53.5112 34.0004 51.3919 34.0004H47.5398L45.1581 42.8323C43.8476 47.687 42.6964 51.8238 42.6511 51.8921H38.5485H36.4689H34.3886L36.7937 43.0602C38.1041 38.2283 39.1754 34.0801 39.1754 34.0004C39.1754 34.0004 38.332 34.0004 35.3573 34.0004C32.3946 34.0004 31.4832 34.0004 31.4832 34.0004Z" fill="white"/>
<path d="M57.2078 34.0004C57.1852 34.0801 56.8207 35.5616 56.4103 37.1343C55.9999 38.6955 55.5329 40.2796 55.4983 40.3821C55.4983 40.3821 55.7721 40.3821 59.3164 40.3821H63.0885L63.0086 40.6328C62.9627 40.781 61.88 44.7924 60.6042 49.5559C59.3277 54.3194 58.0966 58.5132 58.0626 58.6158H62.0399H65.926C65.96 58.479 67.1225 54.1258 68.4217 49.2711L70.8091 40.4049H74.5642H78.3477C78.3817 40.3024 79.5896 35.5616 80 34.0004C80 34.0004 77.7208 34.0004 68.6495 34.0004C59.6355 34.0004 57.2078 34.0004 57.2078 34.0004Z" fill="white"/>
</svg>
