<svg width="80" height="80" fill="none" xmlns="http://www.w3.org/2000/svg"><path d="M15.759 7.643v29.333h-6.82V7.643h6.821-.001Zm-8.882-.051v29.384H.055V7.592h6.822Zm64.444-.013v17.728S60.006 12.685 58.453 11.263C55.413 8.48 51.612 7 47.004 7c-5.89 0-9.577 2.33-11.569 4.307-2.658 2.637-4.567 6.901-4.567 11.12 0 4.308 1.769 8.264 4.605 10.9 2.214 2.11 5.976 4.308 11.514 4.308 4.96 0 8.68-1.67 11.426-4.307a14.89 14.89 0 0 0 4.164-7.266l9.604 10.912h5.795V7.58H71.32Zm-17.868 21.31c-1.418 1.406-3.544 2.504-6.556 2.504-2.303 0-4.428-.614-6.334-2.416-1.816-1.758-2.702-3.912-2.702-6.593 0-3.252 1.329-5.406 2.612-6.638 1.595-1.581 3.898-2.504 6.467-2.504 2.703 0 5.05 1.097 6.512 2.504 1.328 1.319 2.568 3.562 2.568 6.593.002 3.384-1.416 5.45-2.567 6.55Z" fill="#F5F5F5"/><path d="M24.048 24.958a9.312 9.312 0 0 0 4.12-2.231c1.905-1.848 2.302-4.128 2.302-5.974 0-3.252-1.328-5.406-2.57-6.591-1.418-1.319-3.764-2.593-7.53-2.593H8.94v5.201h9.485c.886 0 2.657.017 3.763.852.577.44 1.374 1.435 1.374 3.106 0 1.45-.62 2.306-1.106 2.789-1.152 1.143-2.835 1.207-4.075 1.207H16.8v4.742l8 11.472h8.327l-9.079-11.98Zm40.383 30.489v5.812h7.695c-.61 2.295-2.02 3.483-2.255 3.67-.705.605-2.35 1.671-5.451 1.671-2.397 0-4.465-.608-6.343-2.427-2.342-2.268-3.168-5.087-3.542-7.3.375-2.212 1.2-5.026 3.542-7.295 1.88-1.82 3.948-2.42 6.343-2.42 3.1 0 4.746 1.08 5.45 1.685.21.166 1.368 1.171 2.044 3.037l6.098-2.938c-.709-1.493-1.617-2.9-2.755-4.076-3.479-3.59-7.455-4.243-11.165-4.243-3.76 0-7.8.605-11.465 4.337a15.48 15.48 0 0 0-1.594 1.907l-.01-.012-.001.027-.033.046a10.929 10.929 0 0 0-1.466-1.78c-3.147-3.03-7.235-4.524-12.121-4.524-6.25 0-10.148 2.474-12.264 4.569-.513.508-.996 1.178-1.446 1.95l-.063-.11h-.004l.004-.006a14.88 14.88 0 0 0-1.303-1.391c-3.854-3.684-8.224-4.263-12.358-4.263H0v31.052h10.202c2.632 0 8.036-.327 12.358-4.664a14.8 14.8 0 0 0 .97-1.066 16.34 16.34 0 0 0 1.607 1.86c2.117 2.094 6.015 4.568 12.264 4.568 4.887 0 8.975-1.491 12.122-4.524a10.95 10.95 0 0 0 1.468-1.78l.03.043v.028l.012-.012c.551.776 1.104 1.41 1.594 1.907 3.665 3.73 7.705 4.336 11.464 4.336 3.713 0 7.649-.652 11.126-4.243C78.696 65.288 80 59.55 80 55.776v-.332H64.43v.003Zm-45.05 3.517c-.296.816-1.156 3.71-3.026 5.271-2.345 1.961-5.637 2.072-7.141 2.072h-1.97V47.34h1.972c2.209 0 5.262.349 7.612 2.679 1.221 1.213 2.337 3.428 2.812 6.691.043.32.094.64.149.955-.123.437-.259.87-.405 1.299h-.003Zm26.375 2.871a8.731 8.731 0 0 1-1.496 2.008c-1.55 1.49-4.042 2.658-6.908 2.658-2.724 0-5.168-.98-6.86-2.658a8.44 8.44 0 0 1-.99-1.146l.014-.002s-1.454-2.071-2.395-5.822c.94-3.752 2.396-5.823 2.396-5.823l-.014-.003c.319-.442.654-.824.99-1.145 1.689-1.679 4.133-2.66 6.86-2.66 2.865 0 5.355 1.167 6.907 2.66a8.738 8.738 0 0 1 1.496 2.006 13.73 13.73 0 0 1 1.64 3.96c.081.334.155.669.226 1.004-.071.335-.145.67-.226 1.005a13.731 13.731 0 0 1-1.64 3.958Z" fill="#F5F5F5"/><path fill-rule="evenodd" clip-rule="evenodd" d="m62.583 26.157-8.495-9.731s4.064 5.356.35 11.268l3.294 6.19c.001 0 3.738-2.765 4.852-7.727Z" fill="url(#a)"/><path fill-rule="evenodd" clip-rule="evenodd" d="M16.934 25.637s3.118.565 7.153-.568l9.04 12.02h-8.31l-7.883-11.452Z" fill="url(#b)"/><path fill-rule="evenodd" clip-rule="evenodd" d="M54.375 55.796c.043.337.094.7.159 1.078.374-2.21 1.2-5.025 3.541-7.294 1.88-1.82 3.948-2.422 6.344-2.422 3.1 0 4.745 1.08 5.45 1.687.21.166 1.367 1.17 2.044 3.037l6.098-2.938c-.709-1.493-1.617-2.9-2.756-4.077-3.478-3.59-7.452-4.243-11.165-4.243-3.76 0-7.8.606-11.465 4.337a15.622 15.622 0 0 0-1.594 1.907l-.009-.012-.001.027-.033.047c1.885 2.793 3.075 6.671 3.387 8.866Z" fill="url(#c)"/><path fill-rule="evenodd" clip-rule="evenodd" d="M48.271 60.075c-.229-1.065-.422-2.132-.648-3.203-.07.335-.145.67-.225 1.005a13.82 13.82 0 0 1-1.64 3.958 8.727 8.727 0 0 1-1.497 2.008c-1.55 1.49-4.042 2.658-6.908 2.658-2.724 0-5.168-.98-6.86-2.658a8.426 8.426 0 0 1-.99-1.146l.014-.002s-1.454-2.071-2.395-5.823c-.302-1.234-.431-3.313-.893-4.944l-6.109 7.055c1.078 3.663 2.857 7.429 5.018 9.569 2.116 2.096 6.014 4.569 12.264 4.569 4.886 0 8.974-1.491 12.121-4.523a10.95 10.95 0 0 0 1.468-1.782c-1.13-1.608-2.103-3.874-2.719-6.741h-.001Z" fill="url(#d)"/><path fill-rule="evenodd" clip-rule="evenodd" d="M64.43 55.447v5.812h7.696c-.61 2.295-2.02 3.483-2.255 3.67-.705.605-2.35 1.671-5.451 1.671-2.397 0-4.465-.608-6.343-2.427-2.743-2.657-3.406-6.068-3.7-8.377-.388-2.72-2.122-8.026-4.851-10.65-3.148-3.03-7.236-4.523-12.123-4.523-6.248 0-10.147 2.474-12.264 4.569-.529.523-.98 1.225-1.457 1.918 0 0 .865 1.3 1.636 3.289.895 2.307 1.627 5.767 1.806 6.473.94-3.752 2.395-5.823 2.395-5.823l-.014-.002c.319-.442.655-.824.99-1.145 1.69-1.679 4.134-2.66 6.86-2.66 2.866 0 5.357 1.167 6.907 2.66a8.74 8.74 0 0 1 1.498 2.006 13.725 13.725 0 0 1 1.64 3.96c.335 1.405.572 2.81.873 4.207.486 2.942 1.61 5.176 2.749 6.788l.001.028.01-.012a15.58 15.58 0 0 0 1.594 1.907c3.666 3.73 7.705 4.337 11.465 4.337 3.71 0 7.649-.654 11.126-4.243C78.696 65.29 80 59.554 80 55.777v-.331H64.431Z" fill="url(#e)"/><path fill-rule="evenodd" clip-rule="evenodd" d="M19.382 58.964c-.296.816-1.156 3.71-3.026 5.271-2.346 1.961-5.637 2.072-7.141 2.072h-.186a22.409 22.409 0 0 0-1.106 6.118H10.2c2.631 0 8.035-.327 12.357-4.664.342-.338.663-.694.97-1.066-1.873-2.516-3.147-5.66-3.74-9.028-.158.538-.294.983-.406 1.297Z" fill="url(#f)"/><path fill-rule="evenodd" clip-rule="evenodd" d="M64.43 55.447v5.812h7.696c-.61 2.295-2.021 3.483-2.255 3.67-.705.605-2.35 1.671-5.451 1.671-2.397 0-4.465-.608-6.343-2.427-2.342-2.268-3.168-5.087-3.542-7.3-.065.38-.116.74-.16 1.08-.312 2.193-1.501 6.07-3.384 8.865l.03.044.002.028.01-.012a15.68 15.68 0 0 0 1.593 1.907c3.667 3.73 7.706 4.336 11.466 4.336 3.71 0 7.648-.652 11.126-4.243C78.696 65.288 80 59.55 80 55.776v-.332H64.432v.003h-.001Z" fill="#F5F5F5"/><path fill-rule="evenodd" clip-rule="evenodd" d="M8.939 12.79h6.819v5.257h-6.82V12.79Z" fill="url(#g)"/><defs><linearGradient id="a" x1="54.609" y1="26.497" x2="64.075" y2="24.272" gradientUnits="userSpaceOnUse"><stop stop-opacity="0"/><stop offset="1" stop-opacity=".5"/></linearGradient><linearGradient id="b" x1="24.902" y1="31.338" x2="20.719" y2="20.612" gradientUnits="userSpaceOnUse"><stop stop-opacity="0"/><stop offset="1" stop-opacity=".5"/></linearGradient><linearGradient id="c" x1="64.523" y1="47.585" x2="55.601" y2="68.57" gradientUnits="userSpaceOnUse"><stop stop-opacity="0"/><stop offset="1" stop-opacity=".5"/></linearGradient><linearGradient id="d" x1="36.51" y1="61.62" x2="43.215" y2="47.502" gradientUnits="userSpaceOnUse"><stop stop-opacity="0"/><stop offset="1" stop-opacity=".5"/></linearGradient><linearGradient id="e" x1="37.55" y1="56.872" x2="11.863" y2="56.872" gradientUnits="userSpaceOnUse"><stop stop-opacity="0"/><stop offset="1" stop-opacity=".5"/></linearGradient><linearGradient id="f" x1="13.65" y1="68.577" x2="25.379" y2="58.502" gradientUnits="userSpaceOnUse"><stop stop-opacity="0"/><stop offset="1" stop-opacity=".5"/></linearGradient><linearGradient id="g" x1="12.348" y1="17.817" x2="12.348" y2="10.476" gradientUnits="userSpaceOnUse"><stop stop-opacity="0"/><stop offset="1" stop-opacity=".5"/></linearGradient></defs></svg>