<svg width="80" height="66" viewBox="0 0 80 66" fill="none" xmlns="http://www.w3.org/2000/svg">
<path d="M38.0269 19.8087C38.0442 18.6802 37.8368 17.5595 37.4169 16.5119C36.997 15.4643 36.3729 14.5106 35.5809 13.7065C34.789 12.9023 33.845 12.2637 32.804 11.8278C31.7629 11.3919 30.6455 11.1674 29.5168 11.1674C28.3882 11.1674 27.2708 11.3919 26.2297 11.8278C25.1886 12.2637 24.2447 12.9023 23.4527 13.7065C22.6608 14.5106 22.0366 15.4643 21.6168 16.5119C21.1968 17.5595 20.9894 18.6802 21.0067 19.8087V56.5281C21.0439 58.7625 21.9585 60.8928 23.553 62.4587C25.1474 64.0247 27.2938 64.9006 29.5286 64.8975C31.7634 64.8943 33.9073 64.0123 35.4974 62.4419C37.0875 60.8715 37.996 58.7387 38.0269 56.5041V52.0233H31.529V56.5041C31.5375 56.7737 31.4917 57.0422 31.3944 57.2938C31.2971 57.5453 31.1503 57.7747 30.9625 57.9684C30.7749 58.1621 30.5502 58.3161 30.3018 58.4212C30.0535 58.5264 29.7865 58.5806 29.5168 58.5806C29.2471 58.5806 28.9802 58.5264 28.7318 58.4212C28.4834 58.3161 28.2588 58.1621 28.0711 57.9684C27.8834 57.7747 27.7365 57.5453 27.6393 57.2938C27.542 57.0422 27.4962 56.7737 27.5047 56.5041V48.4514H38.0269V41.9555V19.8087ZM27.5047 41.9555V19.8087C27.4962 19.5392 27.542 19.2706 27.6393 19.0191C27.7365 18.7675 27.8834 18.5381 28.0711 18.3444C28.2588 18.1508 28.4834 17.9967 28.7318 17.8916C28.9802 17.7864 29.2471 17.7322 29.5168 17.7322C29.7865 17.7322 30.0535 17.7864 30.3018 17.8916C30.5502 17.9967 30.7749 18.1508 30.9625 18.3444C31.1503 18.5381 31.2971 18.7675 31.3944 19.0191C31.4917 19.2706 31.5375 19.5392 31.529 19.8087V41.9555H27.5047Z" fill="#F7941D"/>
<path d="M13.7713 27.405C12.9096 27.405 12.0832 27.7472 11.4739 28.3565C10.8646 28.9658 10.5223 29.7922 10.5223 30.6539V56.5041C10.5308 56.7737 10.485 57.0422 10.3877 57.2938C10.2904 57.5453 10.1435 57.7747 9.95586 57.9684C9.76819 58.1621 9.54348 58.3161 9.29514 58.4212C9.0468 58.5264 8.77985 58.5806 8.51015 58.5806C8.2404 58.5806 7.97344 58.5264 7.7251 58.4212C7.47676 58.3161 7.25205 58.1621 7.06438 57.9684C6.87671 57.7747 6.72985 57.5453 6.63253 57.2938C6.53522 57.0422 6.48947 56.7737 6.49796 56.5041V45.2025C6.49796 44.3408 6.15566 43.5145 5.54635 42.9052C4.93706 42.2959 4.11067 41.9535 3.24899 41.9535C2.38731 41.9535 1.56092 42.2959 0.951627 42.9052C0.342327 43.5145 2.33477e-05 44.3408 2.33477e-05 45.2025V56.5041C-0.0025942 57.6215 0.214906 58.7286 0.640111 59.762C1.06532 60.7953 1.6899 61.7348 2.47819 62.5268C3.26648 63.3188 4.20305 63.9478 5.23442 64.3778C6.26579 64.8078 7.37176 65.0305 8.48919 65.0331C10.7459 65.0385 12.9124 64.147 14.5118 62.555C15.3039 61.7667 15.9328 60.8301 16.3629 59.7988C16.7929 58.7674 17.0156 57.6614 17.0182 56.544V30.6539C17.0182 29.7925 16.6762 28.9665 16.0673 28.3573C15.4585 27.748 14.6326 27.4055 13.7713 27.405Z" fill="#F7941D"/>
<path d="M45.2802 6.12228e-07C44.8536 -0.000261246 44.4312 0.0835321 44.037 0.246591C43.6428 0.409649 43.2847 0.648778 42.983 0.950312C42.6812 1.25185 42.4419 1.60988 42.2786 2.00395C42.1153 2.39802 42.0312 2.82041 42.0312 3.24697V61.7683C42.0312 62.6299 42.3735 63.4563 42.9828 64.0656C43.5921 64.6749 44.4185 65.0172 45.2802 65.0172C46.1419 65.0172 46.9682 64.6749 47.5776 64.0656C48.1869 63.4563 48.5292 62.6299 48.5292 61.7683V3.24498C48.5289 2.81858 48.4447 2.39641 48.2812 2.00257C48.1178 1.60873 47.8784 1.25093 47.5768 0.949609C47.275 0.648283 46.9169 0.409333 46.5229 0.246399C46.1289 0.083465 45.7066 -0.000261223 45.2802 6.12228e-07Z" fill="#F7941D"/>
<path d="M55.7447 11.3017C55.3181 11.3017 54.8958 11.3857 54.5017 11.549C54.1076 11.7123 53.7496 11.9516 53.448 12.2534C53.1465 12.5551 52.9073 12.9132 52.7443 13.3075C52.5813 13.7016 52.4974 14.124 52.4977 14.5506V61.7662C52.487 62.1996 52.5631 62.6307 52.7214 63.0341C52.8799 63.4375 53.1174 63.8052 53.42 64.1155C53.7227 64.4257 54.0844 64.6723 54.4838 64.8407C54.8832 65.009 55.3122 65.0957 55.7457 65.0957C56.1791 65.0957 56.6082 65.009 57.0076 64.8407C57.407 64.6723 57.7687 64.4257 58.0713 64.1155C58.374 63.8052 58.6116 63.4375 58.7699 63.0341C58.9284 62.6307 59.0044 62.1996 58.9937 61.7662V14.5506C58.9939 14.1239 58.9101 13.7013 58.7469 13.3069C58.5837 12.9127 58.3444 12.5544 58.0427 12.2526C57.7409 11.9509 57.3827 11.7116 56.9883 11.5484C56.594 11.3852 56.1714 11.3014 55.7447 11.3017Z" fill="#F7941D"/>
<path d="M76.7511 41.9535C75.8899 41.9535 75.0632 42.2959 74.4539 42.9052C73.8446 43.5145 73.5022 44.3409 73.5022 45.2025V48.4514C73.5106 48.7211 73.4651 48.9896 73.3681 49.2411C73.2704 49.4927 73.124 49.7221 72.9358 49.9158C72.7484 50.1094 72.5238 50.2634 72.2751 50.3686C72.0271 50.4738 71.7602 50.528 71.4901 50.528C71.2206 50.528 70.9537 50.4738 70.705 50.3686C70.457 50.2634 70.2324 50.1094 70.0443 49.9158C69.8568 49.7221 69.7097 49.4927 69.6127 49.2411C69.5151 48.9896 69.4695 48.7211 69.478 48.4514V30.6539C69.478 29.7922 69.1355 28.9658 68.5263 28.3565C67.917 27.7472 67.0909 27.405 66.229 27.405C65.3672 27.405 64.541 27.7472 63.9317 28.3565C63.3224 28.9658 62.9801 29.7922 62.9801 30.6539V48.4514C62.9805 50.1363 63.4807 51.7832 64.4174 53.1836C65.3541 54.584 66.6853 55.6751 68.2424 56.3188V61.7663C68.2424 62.6279 68.5848 63.4543 69.1941 64.0636C69.8034 64.6729 70.6295 65.0152 71.4914 65.0152C72.3526 65.0152 73.1793 64.6729 73.7886 64.0636C74.3979 63.4543 74.7403 62.6279 74.7403 61.7663V56.3188C76.2922 55.6772 77.6201 54.5907 78.5562 53.1961C79.4923 51.8014 79.9948 50.161 80 48.4814V45.2025C80 44.3409 79.6583 43.5145 79.049 42.9052C78.4397 42.2959 77.613 41.9535 76.7511 41.9535Z" fill="#F7941D"/>
</svg>
