<svg width="80" height="80" fill="none" xmlns="http://www.w3.org/2000/svg"><path d="M11.608 15h17.063c-2.797 12.308-5.734 24.755-8.531 37.063 3.916.14 7.832 0 11.608 0L29.231 64.65H0C4.056 48.007 7.832 31.503 11.608 15Zm32.308.56c.14-.14 0-.56.42-.56H80c-.84 4.196-1.818 8.532-2.657 12.727H41.399c.699-4.056 1.678-8.112 2.517-12.168ZM40 33.181h35.944c-.84 4.335-1.818 8.811-2.657 13.147-7.693.14-15.385 0-23.077.14H37.203c.979-4.476 1.958-8.812 2.797-13.287Zm-4.056 18.88c9.65-.139 19.44 0 29.091-.139 2.238 0 4.615 0 6.853.14-.839 4.196-1.678 8.392-2.517 12.447H33.427c0-.979.28-1.958.559-3.076.7-3.077 1.259-6.154 1.958-9.371Z" fill="#fff"/></svg>