<svg width="121" height="50" viewBox="0 0 121 50" fill="none" xmlns="http://www.w3.org/2000/svg">
<path d="M26.9844 19.2262C27.933 21.7292 27.8359 23.97 26.6607 25.9582C25.5816 27.8234 23.8021 29.1186 21.3223 29.844C20.2055 30.1678 18.8749 30.4916 17.3663 30.8154L15.3657 31.2169L13.3682 31.612H13.3488L7.29175 32.8263L0.969238 8.08702L9.23738 6.16681C11.0396 5.79547 12.8656 5.55093 14.702 5.435C16.7998 5.29576 18.5221 5.435 19.8558 5.80738C23.3586 6.77018 24.0849 9.28081 22.0346 13.3393C21.7894 13.8259 21.4932 14.2851 21.1508 14.709C24.06 15.0976 26.0046 16.6033 26.9844 19.2262ZM11.9762 15.9751C12.7799 15.8072 13.5098 15.3889 14.061 14.7802C14.2747 14.5508 14.4371 14.2786 14.5376 13.9816C14.638 13.6846 14.6742 13.3696 14.6437 13.0575C14.6066 12.7574 14.4906 12.4725 14.3074 12.2319C14.1243 11.9912 13.8806 11.8035 13.6013 11.6878C12.8891 11.364 11.9632 11.3057 10.7913 11.5615L11.9762 15.9751ZM17.8972 25.2232C18.2076 24.9513 18.4617 24.6213 18.6451 24.2517C18.8169 23.8785 18.8344 23.4526 18.6936 23.0666C18.3699 22.2376 17.5767 21.7163 16.3692 21.5155C15.8534 21.4328 15.3297 21.4111 14.8088 21.4508C14.3815 21.4508 13.925 21.5026 13.4297 21.5641L14.6632 26.1752C14.6632 26.2205 14.9448 26.214 15.5178 26.1298C15.7185 26.0942 15.9225 26.0748 16.1232 26.0392C16.3239 26.0036 16.4275 25.9776 16.4728 25.9647C16.9263 25.867 17.3522 25.6689 17.7192 25.3851L17.8972 25.2232Z" fill="#CB7529"/>
<path d="M30.0664 28.3287L27.1528 4.45397L36.7127 3.57968L38.6551 27.4155L30.0664 28.3287Z" fill="#CB7529"/>
<path d="M64.0294 26.8423L41.5817 27.2018V25.2913L49.9988 12.2351L40.6753 13.0414L40.7692 5.38652L63.4499 0.613525V2.52402L56.3602 17.8371L63.8643 17.3676L64.0294 26.8423Z" fill="#CB7529"/>
<path d="M88.9308 28.497L66.5933 26.431V24.5206L76.4574 12.5945L67.1954 12.2707V3.13275L90.9995 2.3718V4.28229L82.2781 18.7243L89.7887 19.0708L88.9308 28.497Z" fill="#CB7529"/>
<path d="M102.971 31.34C101.119 31.0397 99.3457 30.3679 97.7592 29.3647C96.2826 28.4399 95.0111 27.2221 94.0233 25.7866C93.0221 24.3295 92.3465 22.6738 92.0426 20.932C91.7387 19.1903 91.8136 17.4035 92.2622 15.6934C92.7126 13.8793 93.5375 12.1796 94.6837 10.7034C96.4099 8.44227 98.7174 6.69226 101.36 5.64009C104.003 4.58792 106.881 4.27305 109.689 4.72909C111.543 5.0289 113.317 5.70079 114.904 6.70434C116.39 7.62297 117.667 8.84299 118.653 10.2857C119.631 11.7091 120.294 13.3256 120.595 15.0263C120.92 16.7991 120.854 18.6215 120.401 20.366C119.947 22.177 119.127 23.8761 117.993 25.3592C116.864 26.8448 115.476 28.115 113.897 29.1089C110.668 31.2064 106.764 32.0035 102.971 31.34ZM100.854 17.225C100.67 17.9024 100.637 18.6118 100.755 19.3036C100.874 19.9954 101.142 20.653 101.54 21.2306C101.952 21.8221 102.48 22.3232 103.093 22.7029C103.705 23.0827 104.389 23.3332 105.101 23.439C106.612 23.7055 108.168 23.3871 109.452 22.5485C110.092 22.1719 110.65 21.6719 111.095 21.0777C111.539 20.4834 111.861 19.8067 112.042 19.0869C112.229 18.4074 112.261 17.6948 112.136 17.0012C112.012 16.3076 111.734 15.6506 111.324 15.0781C110.921 14.478 110.395 13.9706 109.781 13.5898C109.167 13.209 108.479 12.9635 107.763 12.8697C106.252 12.6061 104.697 12.9243 103.412 13.7602C102.135 14.5316 101.215 15.7773 100.854 17.225Z" fill="#CB7529"/>
<g opacity="0.6">
<path style="mix-blend-mode:multiply" opacity="0.6" d="M26.9844 19.2262C27.933 21.7292 27.8359 23.97 26.6607 25.9582C25.5816 27.8234 23.8021 29.1186 21.3223 29.844C20.2055 30.1678 18.8749 30.4916 17.3663 30.8154L15.3657 31.2169L13.3682 31.612H13.3488L7.29175 32.8263L0.969238 8.08702L9.23738 6.16681C11.0396 5.79547 12.8656 5.55093 14.702 5.435C16.7998 5.29576 18.5221 5.435 19.8558 5.80738C23.3586 6.77018 24.0849 9.28081 22.0346 13.3393C21.7894 13.8259 21.4932 14.2851 21.1508 14.709C24.06 15.0976 26.0046 16.6033 26.9844 19.2262ZM11.9762 15.9751C12.7799 15.8072 13.5098 15.3889 14.061 14.7802C14.2747 14.5508 14.4371 14.2786 14.5376 13.9816C14.638 13.6846 14.6742 13.3696 14.6437 13.0575C14.6066 12.7574 14.4906 12.4725 14.3074 12.2319C14.1243 11.9912 13.8806 11.8035 13.6013 11.6878C12.8891 11.364 11.9632 11.3057 10.7913 11.5615L11.9762 15.9751ZM17.8972 25.2232C18.2076 24.9513 18.4617 24.6213 18.6451 24.2517C18.8169 23.8785 18.8344 23.4526 18.6936 23.0666C18.3699 22.2376 17.5767 21.7163 16.3692 21.5155C15.8534 21.4328 15.3297 21.4111 14.8088 21.4508C14.3815 21.4508 13.925 21.5026 13.4297 21.5641L14.6632 26.1752C14.6632 26.2205 14.9448 26.214 15.5178 26.1298C15.7185 26.0942 15.9225 26.0748 16.1232 26.0392C16.3239 26.0036 16.4275 25.9776 16.4728 25.9647C16.9263 25.867 17.3522 25.6689 17.7192 25.3851L17.8972 25.2232Z" fill="url(#paint0_linear_2931_5434)"/>
<g style="mix-blend-mode:multiply" opacity="0.6">
<path d="M30.0664 28.3287L27.1528 4.45397L36.7127 3.57968L38.6551 27.4155L30.0664 28.3287Z" fill="url(#paint1_linear_2931_5434)" style="mix-blend-mode:multiply"/>
<path d="M30.0664 28.3287L27.1528 4.45397L36.7127 3.57968L38.6551 27.4155L30.0664 28.3287Z" fill="url(#paint2_linear_2931_5434)" style="mix-blend-mode:multiply"/>
</g>
<g style="mix-blend-mode:multiply" opacity="0.6">
<path d="M64.029 26.8423L41.5814 27.2018V25.2913L49.9984 12.2351L40.6749 13.0414L42.0249 6.59434L40.6069 2.59526L63.4495 0.613525V2.52402L56.3598 17.8371L63.8639 17.3676L64.029 26.8423Z" fill="url(#paint3_linear_2931_5434)" style="mix-blend-mode:multiply"/>
<path d="M64.029 26.8423L41.5814 27.2018V25.2913L49.9984 12.2351L40.6749 13.0414L42.0249 6.59434L40.6069 2.59526L63.4495 0.613525V2.52402L56.3598 17.8371L63.8639 17.3676L64.029 26.8423Z" fill="url(#paint4_linear_2931_5434)" style="mix-blend-mode:multiply"/>
</g>
<g style="mix-blend-mode:multiply" opacity="0.6">
<path d="M88.9308 28.497L66.5933 26.431V24.5206L76.4574 12.5945L67.1954 12.2707V3.13275L90.9995 2.3718V4.28229L82.2781 18.7243L89.7887 19.0708L88.9308 28.497Z" fill="url(#paint5_linear_2931_5434)" style="mix-blend-mode:multiply"/>
<path d="M88.9308 28.497L66.5933 26.431V24.5206L76.4574 12.5945L67.1954 12.2707V3.13275L90.9995 2.3718V4.28229L82.2781 18.7243L89.7887 19.0708L88.9308 28.497Z" fill="url(#paint6_linear_2931_5434)" style="mix-blend-mode:multiply"/>
</g>
<g style="mix-blend-mode:multiply" opacity="0.6">
<path d="M102.971 31.34C101.119 31.0397 99.3457 30.3679 97.7592 29.3647C96.2826 28.4399 95.0111 27.2221 94.0233 25.7866C93.0221 24.3295 92.3465 22.6738 92.0426 20.932C91.7387 19.1903 91.8136 17.4035 92.2622 15.6934C92.7126 13.8793 93.5375 12.1796 94.6837 10.7034C96.4099 8.44227 98.7174 6.69226 101.36 5.64009C104.003 4.58792 106.881 4.27305 109.689 4.72909C111.543 5.0289 113.317 5.70079 114.904 6.70434C116.39 7.62297 117.667 8.84299 118.653 10.2857C119.631 11.7091 120.294 13.3256 120.595 15.0263C120.92 16.7991 120.854 18.6215 120.401 20.366C119.947 22.177 119.127 23.8761 117.993 25.3592C116.864 26.8448 115.476 28.115 113.897 29.1089C110.668 31.2064 106.764 32.0035 102.971 31.34ZM100.854 17.225C100.67 17.9024 100.637 18.6118 100.755 19.3036C100.874 19.9954 101.142 20.653 101.54 21.2306C101.952 21.8221 102.48 22.3232 103.093 22.7029C103.705 23.0827 104.389 23.3332 105.101 23.439C106.612 23.7055 108.168 23.3871 109.452 22.5485C110.092 22.1719 110.65 21.6719 111.095 21.0777C111.539 20.4834 111.861 19.8067 112.042 19.0869C112.229 18.4074 112.261 17.6948 112.136 17.0012C112.012 16.3076 111.734 15.6506 111.324 15.0781C110.921 14.478 110.395 13.9706 109.781 13.5898C109.167 13.209 108.479 12.9635 107.763 12.8697C106.252 12.6061 104.697 12.9243 103.412 13.7602C102.135 14.5316 101.215 15.7773 100.854 17.225Z" fill="url(#paint7_linear_2931_5434)" style="mix-blend-mode:multiply"/>
<path d="M102.971 31.34C101.119 31.0397 99.3457 30.3679 97.7592 29.3647C96.2826 28.4399 95.0111 27.2221 94.0233 25.7866C93.0221 24.3295 92.3465 22.6738 92.0426 20.932C91.7387 19.1903 91.8136 17.4035 92.2622 15.6934C92.7126 13.8793 93.5375 12.1796 94.6837 10.7034C96.4099 8.44227 98.7174 6.69226 101.36 5.64009C104.003 4.58792 106.881 4.27305 109.689 4.72909C111.543 5.0289 113.317 5.70079 114.904 6.70434C116.39 7.62297 117.667 8.84299 118.653 10.2857C119.631 11.7091 120.294 13.3256 120.595 15.0263C120.92 16.7991 120.854 18.6215 120.401 20.366C119.947 22.177 119.127 23.8761 117.993 25.3592C116.864 26.8448 115.476 28.115 113.897 29.1089C110.668 31.2064 106.764 32.0035 102.971 31.34ZM100.854 17.225C100.67 17.9024 100.637 18.6118 100.755 19.3036C100.874 19.9954 101.142 20.653 101.54 21.2306C101.952 21.8221 102.48 22.3232 103.093 22.7029C103.705 23.0827 104.389 23.3332 105.101 23.439C106.612 23.7055 108.168 23.3871 109.452 22.5485C110.092 22.1719 110.65 21.6719 111.095 21.0777C111.539 20.4834 111.861 19.8067 112.042 19.0869C112.229 18.4074 112.261 17.6948 112.136 17.0012C112.012 16.3076 111.734 15.6506 111.324 15.0781C110.921 14.478 110.395 13.9706 109.781 13.5898C109.167 13.209 108.479 12.9635 107.763 12.8697C106.252 12.6061 104.697 12.9243 103.412 13.7602C102.135 14.5316 101.215 15.7773 100.854 17.225Z" fill="url(#paint8_linear_2931_5434)" style="mix-blend-mode:multiply"/>
</g>
</g>
<path d="M36.3017 47.411C34.8126 48.5522 32.942 49.0773 31.0767 48.8779C30.1368 48.7817 29.2244 48.5046 28.3897 48.0619C27.5982 47.6389 26.8923 47.0723 26.3081 46.391C25.7282 45.7218 25.288 44.9435 25.0132 44.1017C24.7322 43.2432 24.6395 42.3342 24.7412 41.4367C24.8386 40.5417 25.122 39.6769 25.5732 38.898C26.0187 38.1355 26.6093 37.4677 27.3117 36.9324C28.7805 35.7879 30.6434 35.2732 32.4914 35.5012C34.0961 35.6542 35.6015 36.3471 36.7614 37.4667L34.9841 40.1868C34.4916 39.7998 33.8983 39.5627 33.2748 39.5035C32.4725 39.3972 31.6602 39.6061 31.0087 40.0864C30.6958 40.297 30.4328 40.5734 30.2378 40.8963C30.0429 41.2192 29.9208 41.5808 29.8801 41.9558C29.8394 42.3308 29.8811 42.7102 30.0022 43.0674C30.1233 43.4246 30.321 43.7511 30.5814 44.0239C31.1069 44.5932 31.8132 44.963 32.5804 45.0704C33.3476 45.1778 34.1283 45.0163 34.7899 44.6133L36.3017 47.411Z" fill="white"/>
<path d="M40.9793 49.5383L36.3984 48.0163L43.1288 34.7886L50.7851 47.4173L47.3309 49.6548L46.227 47.5403L41.7595 47.4335L40.9793 49.5383ZM44.6731 44.5807L43.595 42.5245L42.8634 44.503L44.6731 44.5807Z" fill="white"/>
<path d="M57.5902 35.7731L56.5672 38.7489C55.5021 38.383 54.8028 38.4251 54.4856 38.8979C54.0582 39.4937 54.4241 40.1931 55.5636 41.0027C56.0668 41.3581 56.5911 41.6825 57.1337 41.9741L57.3279 42.0842L57.4995 42.1749C57.6452 42.2526 57.7553 42.3173 57.8233 42.3562C58.0466 42.4857 58.2117 42.5893 58.3121 42.6573C59.0122 43.1248 59.5176 43.8318 59.7333 44.6456C59.9358 45.4339 59.8591 46.268 59.5164 47.0061C59.2041 47.7555 58.7006 48.4098 58.0563 48.9037C57.2693 49.442 56.3504 49.7554 55.3985 49.8104C54.6777 49.8543 53.9544 49.7843 53.2554 49.6031C52.5127 49.4304 51.7835 49.2043 51.0734 48.9264L52.7439 45.9732C53.1765 46.3012 53.7065 46.4745 54.2493 46.4654C54.6928 46.4265 54.8708 46.161 54.7769 45.6785C54.7043 45.3519 54.531 45.0563 54.2816 44.8334C53.9355 44.5354 53.5512 44.2849 53.1388 44.0886L52.7827 43.9073L52.4266 43.7227C52.1385 43.5737 51.8892 43.441 51.695 43.3244C50.4778 42.612 49.7299 41.7053 49.458 40.6238C49.2229 39.7064 49.3383 38.7342 49.7817 37.8973C50.2135 37.0699 50.9067 36.4085 51.7533 36.016C52.9235 35.4596 54.2213 35.2271 55.5118 35.3424C56.2204 35.395 56.919 35.5398 57.5902 35.7731Z" fill="white"/>
<path d="M60.4971 48.8326L60.3579 35.8218L65.1006 35.9125L64.7769 48.8455L60.4971 48.8326Z" fill="white"/>
<path d="M66.2434 49.2728L66.1592 37.0165L73.8446 41.4592L73.4853 36.084L78.6359 35.8055L79.0697 49.1271L71.0314 45.4195L71.1803 49.2566L66.2434 49.2728Z" fill="white"/>
<path d="M85.8845 49.2826C84.9481 49.2164 84.0344 48.9631 83.1975 48.5378C82.4238 48.1398 81.7388 47.589 81.1839 46.9187C80.6231 46.2365 80.2157 45.4414 79.9895 44.5877C79.7632 43.7339 79.7234 42.8414 79.8728 41.9709C80.0206 41.0477 80.3591 40.1655 80.8666 39.3804C81.6296 38.182 82.7035 37.2132 83.9738 36.5773C85.2441 35.9414 86.663 35.6624 88.0794 35.7699C89.015 35.8404 89.9268 36.0992 90.7599 36.5308C91.538 36.925 92.2258 37.4763 92.78 38.1499C93.326 38.8144 93.7253 39.5869 93.9519 40.4166C94.1892 41.288 94.2345 42.2006 94.0847 43.0913C93.9357 44.0131 93.5997 44.8947 93.0973 45.6818C92.5968 46.4675 91.9598 47.1573 91.2164 47.7185C89.6991 48.8922 87.7952 49.4507 85.8845 49.2826ZM84.2302 42.3465C84.1673 42.6913 84.1808 43.0458 84.2697 43.3848C84.3587 43.7239 84.5209 44.0393 84.745 44.3088C84.9745 44.5876 85.2593 44.8158 85.5813 44.979C85.9033 45.1423 86.2557 45.2372 86.6161 45.2576C87.379 45.3242 88.1388 45.0998 88.7431 44.6294C89.0453 44.415 89.3017 44.1425 89.4973 43.8278C89.693 43.5131 89.824 43.1625 89.8826 42.7966C89.9464 42.4499 89.9315 42.0933 89.8391 41.7531C89.7466 41.4129 89.579 41.0978 89.3485 40.8311C89.1231 40.55 88.8406 40.3201 88.5197 40.1565C88.1988 39.9929 87.8468 39.8995 87.487 39.8823C86.7234 39.818 85.9634 40.0422 85.3568 40.5105C84.754 40.95 84.3491 41.6099 84.2302 42.3465Z" fill="white"/>
<path d="M26.9844 17.3158C27.933 19.8189 27.8359 22.0596 26.6607 24.0479C25.5816 25.913 23.8021 27.2083 21.3223 27.9336C20.2055 28.2574 18.8749 28.5812 17.3663 28.905L15.3657 29.3066L13.365 29.6951H13.3456L7.29175 30.9159L0.969238 6.17989L9.23738 4.25645C11.0402 3.88937 12.866 3.64594 14.702 3.52787C16.7998 3.38863 18.5221 3.52787 19.8558 3.90349C23.3586 4.86197 24.0849 7.3726 22.0346 11.4354C21.7886 11.9205 21.4924 12.3786 21.1508 12.8019C24.06 13.1883 26.0046 14.6929 26.9844 17.3158ZM11.9762 14.068C12.7803 13.8992 13.5102 13.4797 14.061 12.8699C14.2747 12.6404 14.4371 12.3682 14.5376 12.0712C14.638 11.7742 14.6742 11.4592 14.6437 11.1472C14.6063 10.8472 14.4901 10.5624 14.307 10.3218C14.1239 10.0812 13.8805 9.89343 13.6013 9.77745C12.8891 9.45363 11.9632 9.39859 10.7913 9.65116L11.9762 14.068ZM17.8972 23.3031C18.2074 23.0311 18.4614 22.7011 18.6451 22.3316C18.8169 21.9585 18.8344 21.5325 18.6936 21.1465C18.3699 20.3208 17.5767 19.7962 16.3692 19.5954C15.8533 19.5144 15.3297 19.4926 14.8088 19.5307C14.3815 19.5307 13.925 19.5825 13.4297 19.6472C14.2423 22.7332 14.6632 24.2519 14.6632 24.2519C14.6632 24.2519 14.9448 24.2907 15.5178 24.2065C15.7185 24.1709 15.9225 24.1515 16.1232 24.1159C16.2411 24.0981 16.3579 24.0732 16.4728 24.0414C16.9261 23.9447 17.352 23.7478 17.7192 23.465L17.8972 23.3031Z" fill="#FFCE07"/>
<path d="M30.105 26.7938L27.1655 2.55641L36.625 1.6983L38.6063 25.9033L30.105 26.7938Z" fill="#FFCE07"/>
<path d="M64.0294 24.9254L41.5817 25.2848L49.9988 10.3214L40.6753 11.1245L39.6685 2.05773L63.4499 0.613525L56.3601 15.9266L63.8643 15.4571L64.0294 24.9254Z" fill="#FFCE07"/>
<path d="M88.9308 26.5898L66.5933 24.5206L76.5545 10.5546L67.1954 10.3474V1.20615L90.9995 2.35568L82.2781 16.8042L89.7887 17.1474L88.9308 26.5898Z" fill="#FFCE07"/>
<path d="M102.971 29.4329C101.121 29.1292 99.3511 28.4575 97.7654 27.4577C96.2893 26.5307 95.018 25.312 94.0295 23.8763C93.0271 22.4198 92.3504 20.7642 92.0453 19.0225C91.7403 17.2807 91.8142 15.4937 92.2619 13.7831C92.7123 11.969 93.5371 10.2693 94.6834 8.79313C95.8053 7.30833 97.1887 6.04088 98.7657 5.0531C101.993 2.95286 105.896 2.15445 109.688 2.81879C111.542 3.11964 113.316 3.79146 114.904 4.79405C116.385 5.71784 117.658 6.94098 118.64 8.38512C119.618 9.80855 120.28 11.425 120.582 13.1257C120.91 14.9025 120.844 16.7294 120.391 18.4784C119.936 20.2884 119.117 21.9864 117.982 23.4683C116.854 24.9453 115.47 26.2086 113.897 27.1986C110.667 29.2957 106.764 30.0939 102.971 29.4329ZM100.854 15.3147C100.67 15.9927 100.636 16.7025 100.755 17.3948C100.873 18.0871 101.141 18.7453 101.54 19.3235C101.952 19.915 102.48 20.4161 103.092 20.7959C103.705 21.1757 104.388 21.4261 105.101 21.5319C106.612 21.7958 108.167 21.4764 109.452 20.6382C110.092 20.2619 110.65 19.762 111.095 19.1677C111.539 18.5734 111.861 17.8966 112.042 17.1766C112.228 16.497 112.26 15.7845 112.136 15.091C112.011 14.3974 111.734 13.7404 111.323 13.1678C110.921 12.5677 110.395 12.0603 109.781 11.6795C109.167 11.2987 108.479 11.0532 107.762 10.9594C106.252 10.6991 104.698 11.017 103.411 11.8499C102.134 12.6213 101.215 13.867 100.854 15.3147Z" fill="#FFCE07"/>
<g style="mix-blend-mode:multiply">
<path style="mix-blend-mode:multiply" d="M26.9844 17.3158C27.933 19.8189 27.8359 22.0596 26.6607 24.0479C25.5816 25.913 23.8021 27.2083 21.3223 27.9336C20.2055 28.2574 18.8749 28.5812 17.3663 28.905L15.3657 29.3066L13.365 29.6951H13.3456L7.29175 30.9159L0.969238 6.17989L9.23738 4.25645C11.0402 3.88937 12.866 3.64594 14.702 3.52787C16.7998 3.38863 18.5221 3.52787 19.8558 3.90349C23.3586 4.86197 24.0849 7.3726 22.0346 11.4354C21.7886 11.9205 21.4924 12.3786 21.1508 12.8019C24.06 13.1883 26.0046 14.6929 26.9844 17.3158ZM11.9762 14.068C12.7803 13.8992 13.5102 13.4797 14.061 12.8699C14.2747 12.6404 14.4371 12.3682 14.5376 12.0712C14.638 11.7742 14.6742 11.4592 14.6437 11.1472C14.6063 10.8472 14.4901 10.5624 14.307 10.3218C14.1239 10.0812 13.8805 9.89343 13.6013 9.77745C12.8891 9.45363 11.9632 9.39859 10.7913 9.65116L11.9762 14.068ZM17.8972 23.3031C18.2074 23.0311 18.4614 22.7011 18.6451 22.3316C18.8169 21.9585 18.8344 21.5325 18.6936 21.1465C18.3699 20.3208 17.5767 19.7962 16.3692 19.5954C15.8533 19.5144 15.3297 19.4926 14.8088 19.5307C14.3815 19.5307 13.925 19.5825 13.4297 19.6472C14.2423 22.7332 14.6632 24.2519 14.6632 24.2519C14.6632 24.2519 14.9448 24.2907 15.5178 24.2065C15.7185 24.1709 15.9225 24.1515 16.1232 24.1159C16.2411 24.0981 16.3579 24.0732 16.4728 24.0414C16.9261 23.9447 17.352 23.7478 17.7192 23.465L17.8972 23.3031Z" fill="url(#paint9_linear_2931_5434)"/>
<g style="mix-blend-mode:multiply">
<path d="M30.105 26.7938L27.1655 2.55641L36.625 1.6983L38.6063 25.9033L30.105 26.7938Z" fill="url(#paint10_linear_2931_5434)" style="mix-blend-mode:multiply"/>
<path d="M30.105 26.7938L27.1655 2.55641L36.625 1.6983L38.6063 25.9033L30.105 26.7938Z" fill="url(#paint11_linear_2931_5434)" style="mix-blend-mode:multiply"/>
</g>
<g style="mix-blend-mode:multiply">
<path d="M64.0294 24.9254L41.5817 25.2848L49.9988 10.3214L40.6753 11.1245L39.6685 2.05773L63.4499 0.613525L56.3601 15.9266L63.8643 15.4571L64.0294 24.9254Z" fill="url(#paint12_linear_2931_5434)" style="mix-blend-mode:multiply"/>
<path d="M64.0294 24.9254L41.5817 25.2848L49.9988 10.3214L40.6753 11.1245L39.6685 2.05773L63.4499 0.613525L56.3601 15.9266L63.8643 15.4571L64.0294 24.9254Z" fill="url(#paint13_linear_2931_5434)" style="mix-blend-mode:multiply"/>
</g>
<g style="mix-blend-mode:multiply">
<path d="M88.9308 26.5898L66.5933 24.5206L76.5545 10.5546L67.1954 10.3474V1.20615L90.9995 2.35568L82.2781 16.8042L89.7887 17.1474L88.9308 26.5898Z" fill="url(#paint14_linear_2931_5434)" style="mix-blend-mode:multiply"/>
<path d="M88.9308 26.5898L66.5933 24.5206L76.5545 10.5546L67.1954 10.3474V1.20615L90.9995 2.35568L82.2781 16.8042L89.7887 17.1474L88.9308 26.5898Z" fill="url(#paint15_linear_2931_5434)" style="mix-blend-mode:multiply"/>
</g>
<g style="mix-blend-mode:multiply">
<path d="M102.971 29.4329C101.121 29.1292 99.3511 28.4575 97.7654 27.4577C96.2893 26.5307 95.018 25.312 94.0295 23.8763C93.0271 22.4198 92.3504 20.7642 92.0453 19.0225C91.7403 17.2807 91.8142 15.4937 92.2619 13.7831C92.7123 11.969 93.5371 10.2693 94.6834 8.79313C95.8053 7.30833 97.1887 6.04088 98.7657 5.0531C101.993 2.95286 105.896 2.15445 109.688 2.81879C111.542 3.11964 113.316 3.79146 114.904 4.79405C116.385 5.71784 117.658 6.94098 118.64 8.38512C119.618 9.80855 120.28 11.425 120.582 13.1257C120.91 14.9025 120.844 16.7294 120.391 18.4784C119.936 20.2884 119.117 21.9864 117.982 23.4683C116.854 24.9453 115.47 26.2086 113.897 27.1986C110.667 29.2957 106.764 30.0939 102.971 29.4329ZM100.854 15.3147C100.67 15.9927 100.636 16.7025 100.755 17.3948C100.873 18.0871 101.141 18.7453 101.54 19.3235C101.952 19.915 102.48 20.4161 103.092 20.7959C103.705 21.1757 104.388 21.4261 105.101 21.5319C106.612 21.7958 108.167 21.4764 109.452 20.6382C110.092 20.2619 110.65 19.762 111.095 19.1677C111.539 18.5734 111.861 17.8966 112.042 17.1766C112.228 16.497 112.26 15.7845 112.136 15.091C112.011 14.3974 111.734 13.7404 111.323 13.1678C110.921 12.5677 110.395 12.0603 109.781 11.6795C109.167 11.2987 108.479 11.0532 107.762 10.9594C106.252 10.6991 104.698 11.017 103.411 11.8499C102.134 12.6213 101.215 13.867 100.854 15.3147Z" fill="url(#paint16_linear_2931_5434)" style="mix-blend-mode:multiply"/>
<path d="M102.971 29.4329C101.121 29.1292 99.3511 28.4575 97.7654 27.4577C96.2893 26.5307 95.018 25.312 94.0295 23.8763C93.0271 22.4198 92.3504 20.7642 92.0453 19.0225C91.7403 17.2807 91.8142 15.4937 92.2619 13.7831C92.7123 11.969 93.5371 10.2693 94.6834 8.79313C95.8053 7.30833 97.1887 6.04088 98.7657 5.0531C101.993 2.95286 105.896 2.15445 109.688 2.81879C111.542 3.11964 113.316 3.79146 114.904 4.79405C116.385 5.71784 117.658 6.94098 118.64 8.38512C119.618 9.80855 120.28 11.425 120.582 13.1257C120.91 14.9025 120.844 16.7294 120.391 18.4784C119.936 20.2884 119.117 21.9864 117.982 23.4683C116.854 24.9453 115.47 26.2086 113.897 27.1986C110.667 29.2957 106.764 30.0939 102.971 29.4329ZM100.854 15.3147C100.67 15.9927 100.636 16.7025 100.755 17.3948C100.873 18.0871 101.141 18.7453 101.54 19.3235C101.952 19.915 102.48 20.4161 103.092 20.7959C103.705 21.1757 104.388 21.4261 105.101 21.5319C106.612 21.7958 108.167 21.4764 109.452 20.6382C110.092 20.2619 110.65 19.762 111.095 19.1677C111.539 18.5734 111.861 17.8966 112.042 17.1766C112.228 16.497 112.26 15.7845 112.136 15.091C112.011 14.3974 111.734 13.7404 111.323 13.1678C110.921 12.5677 110.395 12.0603 109.781 11.6795C109.167 11.2987 108.479 11.0532 107.762 10.9594C106.252 10.6991 104.698 11.017 103.411 11.8499C102.134 12.6213 101.215 13.867 100.854 15.3147Z" fill="url(#paint17_linear_2931_5434)" style="mix-blend-mode:multiply"/>
</g>
</g>
<path d="M101.275 37.9135L102.421 40.2353C102.429 40.2503 102.44 40.2634 102.453 40.2735C102.467 40.2836 102.482 40.2904 102.499 40.2936L105.059 40.666C105.078 40.6689 105.096 40.6769 105.11 40.6892C105.125 40.7015 105.136 40.7175 105.142 40.7356C105.148 40.7537 105.149 40.773 105.145 40.7916C105.14 40.8102 105.131 40.8272 105.118 40.8408L103.269 42.6477C103.257 42.6594 103.249 42.6737 103.244 42.6895C103.239 42.7052 103.237 42.722 103.24 42.7383L103.677 45.29C103.681 45.309 103.679 45.3287 103.672 45.3468C103.665 45.3648 103.653 45.3804 103.637 45.3917C103.622 45.403 103.603 45.4095 103.583 45.4104C103.564 45.4113 103.545 45.4066 103.528 45.3968L101.239 44.1923C101.224 44.1843 101.208 44.1802 101.191 44.1802C101.174 44.1802 101.157 44.1843 101.142 44.1923L98.8502 45.3968C98.8335 45.4066 98.8143 45.4113 98.7949 45.4104C98.7755 45.4095 98.7569 45.403 98.7411 45.3917C98.7254 45.3804 98.7132 45.3648 98.7061 45.3468C98.6991 45.3287 98.6974 45.309 98.7013 45.29L99.1416 42.7383C99.1436 42.7218 99.1418 42.7049 99.1362 42.6892C99.1305 42.6734 99.1213 42.6592 99.1092 42.6477L97.2574 40.8408C97.2429 40.828 97.2325 40.8112 97.2273 40.7925C97.2221 40.7738 97.2224 40.754 97.2283 40.7355C97.2341 40.717 97.2451 40.7006 97.2601 40.6883C97.275 40.6759 97.2932 40.6682 97.3125 40.666L99.8764 40.2936C99.893 40.2904 99.9086 40.2836 99.9221 40.2735C99.9355 40.2634 99.9465 40.2503 99.9541 40.2353L101.1 37.9135C101.109 37.8981 101.122 37.8852 101.137 37.8762C101.152 37.8672 101.17 37.8625 101.188 37.8625C101.205 37.8625 101.223 37.8672 101.238 37.8762C101.254 37.8852 101.266 37.8981 101.275 37.9135Z" fill="white"/>
<path d="M16.6151 37.9133L17.7611 40.235C17.7687 40.25 17.7797 40.2631 17.7931 40.2732C17.8066 40.2833 17.8222 40.2902 17.8388 40.2933L20.393 40.6657C20.4116 40.6691 20.4289 40.6775 20.443 40.69C20.4571 40.7024 20.4676 40.7185 20.4733 40.7365C20.4789 40.7545 20.4796 40.7737 20.4751 40.7921C20.4707 40.8104 20.4613 40.8272 20.4481 40.8406L18.5931 42.6474C18.5819 42.6595 18.5735 42.6739 18.5685 42.6896C18.5635 42.7052 18.5619 42.7218 18.5639 42.7381L19.0107 45.2995C19.0141 45.318 19.0122 45.3371 19.0053 45.3547C18.9983 45.3722 18.9865 45.3874 18.9713 45.3986C18.9561 45.4097 18.9381 45.4164 18.9193 45.4177C18.9005 45.4191 18.8817 45.4152 18.865 45.4063L16.573 44.2017C16.558 44.1938 16.5413 44.1897 16.5244 44.1897C16.5075 44.1897 16.4908 44.1938 16.4759 44.2017L14.1838 45.4063C14.1672 45.4152 14.1483 45.4191 14.1295 45.4177C14.1107 45.4164 14.0927 45.4097 14.0775 45.3986C14.0623 45.3874 14.0505 45.3722 14.0436 45.3547C14.0366 45.3371 14.0347 45.318 14.0381 45.2995L14.4752 42.7478C14.4779 42.7315 14.4767 42.7147 14.4716 42.6989C14.4666 42.6832 14.4578 42.6688 14.446 42.6572L12.5911 40.8503C12.5777 40.8367 12.5684 40.8196 12.5642 40.8011C12.5599 40.7825 12.5608 40.7631 12.5668 40.7451C12.5729 40.727 12.5837 40.7109 12.5983 40.6986C12.6128 40.6864 12.6305 40.6783 12.6493 40.6754L15.2133 40.2933C15.2298 40.2902 15.2454 40.2833 15.2589 40.2732C15.2724 40.2631 15.2834 40.25 15.291 40.235L16.437 37.9133C16.4455 37.897 16.4583 37.8834 16.474 37.8738C16.4897 37.8643 16.5077 37.8593 16.526 37.8593C16.5444 37.8593 16.5624 37.8643 16.5781 37.8738C16.5938 37.8834 16.6066 37.897 16.6151 37.9133Z" fill="white"/>
<defs>
<linearGradient id="paint0_linear_2931_5434" x1="-3.19397" y1="9.56036" x2="31.7929" y2="29.6358" gradientUnits="userSpaceOnUse">
<stop stop-color="white"/>
<stop offset="1"/>
</linearGradient>
<linearGradient id="paint1_linear_2931_5434" x1="957.914" y1="1176.19" x2="1366.24" y2="1176.19" gradientUnits="userSpaceOnUse">
<stop stop-color="white"/>
<stop offset="1"/>
</linearGradient>
<linearGradient id="paint2_linear_2931_5434" x1="25.3565" y1="7.34765" x2="44.0165" y2="12.4707" gradientUnits="userSpaceOnUse">
<stop stop-color="white"/>
<stop offset="1"/>
</linearGradient>
<linearGradient id="paint3_linear_2931_5434" x1="2908.41" y1="1091.79" x2="4603" y2="1091.79" gradientUnits="userSpaceOnUse">
<stop stop-color="white"/>
<stop offset="1"/>
</linearGradient>
<linearGradient id="paint4_linear_2931_5434" x1="36.949" y1="4.66152" x2="69.1032" y2="21.3942" gradientUnits="userSpaceOnUse">
<stop stop-color="white"/>
<stop offset="1"/>
</linearGradient>
<linearGradient id="paint5_linear_2931_5434" x1="5012.76" y1="1197.6" x2="6852.75" y2="1197.6" gradientUnits="userSpaceOnUse">
<stop stop-color="white"/>
<stop offset="1"/>
</linearGradient>
<linearGradient id="paint6_linear_2931_5434" x1="62.7816" y1="6.34929" x2="95.42" y2="24.3613" gradientUnits="userSpaceOnUse">
<stop stop-color="white"/>
<stop offset="1"/>
</linearGradient>
<linearGradient id="paint7_linear_2931_5434" x1="8215.85" y1="1459.39" x2="10803.6" y2="1459.39" gradientUnits="userSpaceOnUse">
<stop stop-color="white"/>
<stop offset="1"/>
</linearGradient>
<linearGradient id="paint8_linear_2931_5434" x1="87.3399" y1="8.64297" x2="123.411" y2="31.4458" gradientUnits="userSpaceOnUse">
<stop stop-color="white"/>
<stop offset="1"/>
</linearGradient>
<linearGradient id="paint9_linear_2931_5434" x1="13.7081" y1="5.7557" x2="15.2401" y2="25.0549" gradientUnits="userSpaceOnUse">
<stop stop-color="white"/>
<stop offset="1" stop-color="#FFCE07"/>
</linearGradient>
<linearGradient id="paint10_linear_2931_5434" x1="1127.31" y1="287.034" x2="1381.61" y2="1747.87" gradientUnits="userSpaceOnUse">
<stop stop-color="white"/>
<stop offset="1" stop-color="#FFCE07"/>
</linearGradient>
<linearGradient id="paint11_linear_2931_5434" x1="32.6327" y1="3.78408" x2="35.5535" y2="21.0508" gradientUnits="userSpaceOnUse">
<stop stop-color="white"/>
<stop offset="1" stop-color="#FFCE07"/>
</linearGradient>
<linearGradient id="paint12_linear_2931_5434" x1="3855.08" y1="162.704" x2="3973.24" y2="1632.87" gradientUnits="userSpaceOnUse">
<stop stop-color="white"/>
<stop offset="1" stop-color="#FFCE07"/>
</linearGradient>
<linearGradient id="paint13_linear_2931_5434" x1="51.3099" y1="2.66405" x2="52.6652" y2="20.0188" gradientUnits="userSpaceOnUse">
<stop stop-color="white"/>
<stop offset="1" stop-color="#FFCE07"/>
</linearGradient>
<linearGradient id="paint14_linear_2931_5434" x1="5856.24" y1="5.52138" x2="5981.05" y2="1517.61" gradientUnits="userSpaceOnUse">
<stop stop-color="white"/>
<stop offset="1" stop-color="#FFCE07"/>
</linearGradient>
<linearGradient id="paint15_linear_2931_5434" x1="78.2563" y1="3.31588" x2="79.688" y2="21.1658" gradientUnits="userSpaceOnUse">
<stop stop-color="white"/>
<stop offset="1" stop-color="#FFCE07"/>
</linearGradient>
<linearGradient id="paint16_linear_2931_5434" x1="9380.71" y1="-173.086" x2="9500.61" y2="1441.47" gradientUnits="userSpaceOnUse">
<stop stop-color="white"/>
<stop offset="1" stop-color="#FFCE07"/>
</linearGradient>
<linearGradient id="paint17_linear_2931_5434" x1="105.684" y1="4.84037" x2="107.059" y2="23.8985" gradientUnits="userSpaceOnUse">
<stop stop-color="white"/>
<stop offset="1" stop-color="#FFCE07"/>
</linearGradient>
</defs>
</svg>
