<svg width="80" height="80" viewBox="0 0 80 80" fill="none" xmlns="http://www.w3.org/2000/svg">
<path d="M73.9272 9.40253C71.6372 5.85791 67.0552 3.37397 59.871 1.83242C54.3504 0.626318 47.4299 0 39.8113 0C32.1927 0 25.2722 0.626318 19.775 1.83242C12.614 3.39918 8.00873 5.85985 5.74196 9.40253C1.98017 15.2139 2.87214 23.676 3.86106 33.4896C4.05303 35.2987 4.24694 37.1544 4.39237 38.9636C4.7065 42.5799 5.42977 49.7176 6.75609 56.5877C8.68546 66.5933 10.7583 70.1146 12.1564 71.8986C18.1113 79.4202 34.8454 80 39.8346 80C44.8238 80 61.5579 79.4222 67.5128 71.8986C68.9109 70.1146 71.0089 66.6185 72.9131 56.5877C74.2394 49.6924 74.9627 42.5799 75.2768 38.9636C75.4222 37.1544 75.6142 35.2987 75.8081 33.4896C76.797 23.676 77.6638 15.1887 73.9272 9.40253ZM73.0353 33.2007C72.8433 35.0098 72.6494 36.8888 72.504 38.7212C72.1898 42.2891 71.4918 49.3065 70.1887 56.0816C68.3796 65.5094 66.5472 68.6429 65.3178 70.1864C60.0125 76.913 43.1368 77.2504 39.8094 77.2504C36.482 77.2504 19.6043 76.913 14.301 70.1864C13.0716 68.6429 11.2392 65.4842 9.43006 56.0816C8.12895 49.3065 7.42895 42.3143 7.11482 38.7212C6.94612 36.8888 6.77742 35.0079 6.58351 33.2007C5.6198 23.8932 4.79957 15.8654 8.03005 10.8743C9.91095 7.98119 13.9364 5.88312 20.3509 4.50833C25.6794 3.3507 32.406 2.74765 39.8074 2.74765C47.2089 2.74765 53.9355 3.3507 59.264 4.50833C65.6765 5.90639 69.704 7.98119 71.5848 10.8743C74.8153 15.8887 73.9951 23.9184 73.0314 33.2007M39.8346 6.70141C54.1313 6.70141 65.7289 9.06513 68.3098 13.0422C71.3231 17.7192 69.4907 28.1591 68.5987 38.4071C67.7067 48.655 65.5602 63.5548 62.2579 67.7742C59.3649 71.439 49.0219 73.3199 39.8346 73.3199C30.6473 73.3199 20.3043 71.4158 17.4112 67.7742C14.0838 63.5781 11.9373 48.655 11.0705 38.4071C10.2018 28.1591 8.34612 17.7211 11.3594 13.0422C13.9384 9.06319 25.5359 6.70141 39.8346 6.70141ZM18.7376 20.9264C18.3517 21.1436 18.183 21.8416 18.183 21.8416L17.7739 23.6508C17.7739 23.6508 17.6284 24.1084 17.8941 24.663C18.183 25.2175 19.9921 25.5549 19.9921 25.5549C19.9921 25.5549 23.1509 26.0378 24.4287 27.6045C25.7066 29.1713 25.2005 31.3178 25.2005 31.3178L21.7528 48.2187C21.7528 48.2187 21.4154 49.8592 20.5467 50.6542C19.7032 51.4259 18.3052 51.4744 18.3052 51.4744C18.3052 51.4744 17.4849 51.4977 16.9556 51.7149C16.4979 51.9068 16.3525 52.6553 16.3525 52.6553L16.1353 53.7645C16.1353 53.7645 16.0151 54.2221 16.2808 54.6332C16.5464 55.0442 17.293 55.1393 17.293 55.1393L34.7252 55.2595C34.7252 55.2595 35.2565 55.2362 35.5454 54.9453C35.8343 54.6564 35.908 54.0534 35.908 54.0534L36.1969 52.4614C36.1969 52.4614 36.3171 51.9786 36.0767 51.6897C35.7878 51.3523 35.5454 51.3755 34.7504 51.1836C33.9301 50.9916 33.4493 50.7492 32.6523 50.0977C31.6634 49.2775 32.0008 47.7107 32.0008 47.7107L33.5191 39.2486C33.5191 39.2486 33.711 38.6223 34.1221 38.6456C34.7252 38.6688 34.9171 39.2234 34.9171 39.2234L43.2357 54.0999C43.2357 54.0999 43.5246 54.606 43.959 54.9434C44.3933 55.2808 45.3823 55.306 45.3823 55.306L59.4153 55.1858C59.4153 55.1858 60.1153 55.2091 60.5012 54.8969C60.9588 54.511 61.079 53.9079 61.079 53.9079L61.3446 52.6786C61.3446 52.6786 61.5366 52.1007 61.2729 51.5462C60.9588 50.8946 59.7546 50.7511 58.3798 50.3401C57.3676 50.0259 56.0413 49.3027 55.5837 48.6279C55.2696 48.145 55.5837 47.1581 55.5837 47.1581L60.2607 27.9187C60.2607 27.9187 60.4061 27.1236 61.2012 26.3034C61.9244 25.5569 63.9023 25.1458 63.9023 25.1458C63.9023 25.1458 64.4084 25.0488 64.7225 24.7599C64.9397 24.5427 65.0366 24.0851 65.0366 24.0851L65.5679 22.0123C65.5679 22.0123 65.7134 21.481 65.3992 21.1203C65.1336 20.8062 64.387 20.8062 64.387 20.8062H48.3529C48.3529 20.8062 47.8216 20.7829 47.3155 21.192C46.8579 21.5779 46.7842 21.9638 46.7842 21.9638L46.3983 23.6992C46.3983 23.6992 46.2781 24.1336 46.4216 24.471C46.6136 24.9053 47.0479 24.9286 47.0479 24.9286L47.7227 25.0488C47.7227 25.0488 48.9773 25.2893 49.6269 25.9408C50.2784 26.5923 49.9643 28.2793 49.9643 28.2793L47.6258 39.491L39.1385 23.3134C39.1385 23.3134 38.898 22.5668 37.9576 21.6497C37.0423 20.7344 35.6191 20.8062 35.6191 20.8062H19.7788C19.8021 20.6859 19.1273 20.7092 18.7415 20.9264" fill="black"/>
<path d="M73.9272 9.40253C71.6372 5.85791 67.0552 3.37397 59.871 1.83242C54.3504 0.626318 47.4299 0 39.8113 0C32.1927 0 25.2722 0.626318 19.775 1.83242C12.614 3.39918 8.00873 5.85985 5.74196 9.40253C1.98017 15.2139 2.87214 23.676 3.86106 33.4896C4.05303 35.2987 4.24694 37.1544 4.39237 38.9636C4.7065 42.5799 5.42977 49.7176 6.75609 56.5877C8.68546 66.5933 10.7583 70.1146 12.1564 71.8986C18.1113 79.4202 34.8454 80 39.8346 80C44.8238 80 61.5579 79.4222 67.5128 71.8986C68.9109 70.1146 71.0089 66.6185 72.9131 56.5877C74.2394 49.6924 74.9627 42.5799 75.2768 38.9636C75.4222 37.1544 75.6142 35.2987 75.8081 33.4896C76.797 23.676 77.6638 15.1887 73.9272 9.40253ZM73.0353 33.2007C72.8433 35.0098 72.6494 36.8888 72.504 38.7212C72.1898 42.2891 71.4918 49.3065 70.1887 56.0816C68.3796 65.5094 66.5472 68.6429 65.3178 70.1864C60.0125 76.913 43.1368 77.2504 39.8094 77.2504C36.482 77.2504 19.6043 76.913 14.301 70.1864C13.0716 68.6429 11.2392 65.4842 9.43006 56.0816C8.12895 49.3065 7.42895 42.3143 7.11482 38.7212C6.94612 36.8888 6.77742 35.0079 6.58351 33.2007C5.6198 23.8932 4.79957 15.8654 8.03005 10.8743C9.91095 7.98119 13.9364 5.88312 20.3509 4.50833C25.6794 3.3507 32.406 2.74765 39.8074 2.74765C47.2089 2.74765 53.9355 3.3507 59.264 4.50833C65.6765 5.90639 69.704 7.98119 71.5848 10.8743C74.8153 15.8887 73.9951 23.9184 73.0314 33.2007M39.8346 6.70141C54.1313 6.70141 65.7289 9.06513 68.3098 13.0422C71.3231 17.7192 69.4907 28.1591 68.5987 38.4071C67.7067 48.655 65.5602 63.5548 62.2579 67.7742C59.3649 71.439 49.0219 73.3199 39.8346 73.3199C30.6473 73.3199 20.3043 71.4158 17.4112 67.7742C14.0838 63.5781 11.9373 48.655 11.0705 38.4071C10.2018 28.1591 8.34612 17.7211 11.3594 13.0422C13.9384 9.06319 25.5359 6.70141 39.8346 6.70141ZM18.7376 20.9264C18.3517 21.1436 18.183 21.8416 18.183 21.8416L17.7739 23.6508C17.7739 23.6508 17.6284 24.1084 17.8941 24.663C18.183 25.2175 19.9921 25.5549 19.9921 25.5549C19.9921 25.5549 23.1509 26.0378 24.4287 27.6045C25.7066 29.1713 25.2005 31.3178 25.2005 31.3178L21.7528 48.2187C21.7528 48.2187 21.4154 49.8592 20.5467 50.6542C19.7032 51.4259 18.3052 51.4744 18.3052 51.4744C18.3052 51.4744 17.4849 51.4977 16.9556 51.7149C16.4979 51.9068 16.3525 52.6553 16.3525 52.6553L16.1353 53.7645C16.1353 53.7645 16.0151 54.2221 16.2808 54.6332C16.5464 55.0442 17.293 55.1393 17.293 55.1393L34.7252 55.2595C34.7252 55.2595 35.2565 55.2362 35.5454 54.9453C35.8343 54.6564 35.908 54.0534 35.908 54.0534L36.1969 52.4614C36.1969 52.4614 36.3171 51.9786 36.0767 51.6897C35.7878 51.3523 35.5454 51.3755 34.7504 51.1836C33.9301 50.9916 33.4493 50.7492 32.6523 50.0977C31.6634 49.2775 32.0008 47.7107 32.0008 47.7107L33.5191 39.2486C33.5191 39.2486 33.711 38.6223 34.1221 38.6456C34.7252 38.6688 34.9171 39.2234 34.9171 39.2234L43.2357 54.0999C43.2357 54.0999 43.5246 54.606 43.959 54.9434C44.3933 55.2808 45.3823 55.306 45.3823 55.306L59.4153 55.1858C59.4153 55.1858 60.1153 55.2091 60.5012 54.8969C60.9588 54.511 61.079 53.9079 61.079 53.9079L61.3446 52.6786C61.3446 52.6786 61.5366 52.1007 61.2729 51.5462C60.9588 50.8946 59.7546 50.7511 58.3798 50.3401C57.3676 50.0259 56.0413 49.3027 55.5837 48.6279C55.2696 48.145 55.5837 47.1581 55.5837 47.1581L60.2607 27.9187C60.2607 27.9187 60.4061 27.1236 61.2012 26.3034C61.9244 25.5569 63.9023 25.1458 63.9023 25.1458C63.9023 25.1458 64.4084 25.0488 64.7225 24.7599C64.9397 24.5427 65.0366 24.0851 65.0366 24.0851L65.5679 22.0123C65.5679 22.0123 65.7134 21.481 65.3992 21.1203C65.1336 20.8062 64.387 20.8062 64.387 20.8062H48.3529C48.3529 20.8062 47.8216 20.7829 47.3155 21.192C46.8579 21.5779 46.7842 21.9638 46.7842 21.9638L46.3983 23.6992C46.3983 23.6992 46.2781 24.1336 46.4216 24.471C46.6136 24.9053 47.0479 24.9286 47.0479 24.9286L47.7227 25.0488C47.7227 25.0488 48.9773 25.2893 49.6269 25.9408C50.2784 26.5923 49.9643 28.2793 49.9643 28.2793L47.6258 39.491L39.1385 23.3134C39.1385 23.3134 38.898 22.5668 37.9576 21.6497C37.0423 20.7344 35.6191 20.8062 35.6191 20.8062H19.7788C19.8021 20.6859 19.1273 20.7092 18.7415 20.9264" fill="white"/>
</svg>
