<svg width="80" height="80" fill="none" xmlns="http://www.w3.org/2000/svg"><path d="M49.77 51.129c-1.136 1.02-1.337 2.718-.334 3.941 1.004 1.155 2.676 1.36 3.88.34 4.615-3.874 7.224-9.583 7.224-15.63 0-11.214-8.964-20.32-20-20.32-11.037 0-20 9.106-20 20.32 0 6.184 2.742 11.96 7.492 15.833 1.204.952 2.876.748 3.88-.407.936-1.224.735-2.922-.402-3.942-10.77-8.63-4.75-26.232 8.963-26.232 13.578 0 19.665 17.33 9.298 26.097Zm8.405 13.218c7.334-5.559 12.095-14.643 12.095-24.81 0-1.56-1.158-2.781-2.638-2.781-1.479 0-2.637 1.221-2.637 2.78 0 8.406-3.925 15.795-9.844 20.337-1.157.88-1.479 2.644-.579 3.863.772 1.222 2.381 1.493 3.603.611Z" fill="#fff"/><path d="M28.999 1.667c-1.468.398-2.27 1.922-1.87 3.38.402 1.458 1.937 2.254 3.406 1.856 21.963-6.495 43.992 9.875 43.992 32.54 0 1.525 1.202 2.718 2.737 2.718C78.8 42.16 80 40.969 80 39.445c.067-26.246-25.5-45.333-51.001-37.778Z" fill="#fff"/><path d="M59.512 16.548C39.694.518 9.73 14.536 9.73 40.021c0 16.7 13.663 30.249 30.505 30.249 1.556 0 2.774-1.208 2.774-2.75 0-1.543-1.218-2.75-2.774-2.75-13.798 0-24.959-11.133-24.959-24.748 0-20.858 24.553-32.26 40.719-19.182 1.219.94 2.91.806 3.924-.402.946-1.207.812-2.951-.406-3.89Z" fill="#fff"/><path d="M2.763 37.838c-1.55 0-2.763 1.19-2.763 2.71C0 62.288 18.058 80 40.23 80c9.433 0 18.597-3.238 25.807-9.186 1.145-.99 1.348-2.643.337-3.833-1.01-1.123-2.695-1.322-3.908-.33-6.2 5.088-14.151 7.93-22.305 7.93-19.137 0-34.702-15.265-34.702-34.034.067-1.52-1.146-2.71-2.696-2.71Z" fill="#fff"/></svg>