<svg width="80" height="80" viewBox="0 0 80 80" fill="none" xmlns="http://www.w3.org/2000/svg">
<path d="M40 80C17.92 80 0 62.08 0 40C0 17.92 17.92 0 40 0C62.08 0 80 17.92 80 40C80 62.08 62.08 80 40 80ZM40 10.6667C23.7867 10.6667 10.6667 23.7867 10.6667 40C10.6667 56.2133 23.7867 69.3333 40 69.3333C56.2133 69.3333 69.3333 56.2133 69.3333 40C69.3333 23.7867 56.2133 10.6667 40 10.6667Z" fill="url(#paint0_linear_3305_145)"/>
<path d="M40 53.3334C47.3638 53.3334 53.3333 47.3639 53.3333 40.0001C53.3333 32.6363 47.3638 26.6667 40 26.6667C32.6362 26.6667 26.6667 32.6363 26.6667 40.0001C26.6667 47.3639 32.6362 53.3334 40 53.3334Z" fill="url(#paint1_linear_3305_145)"/>
<defs>
<linearGradient id="paint0_linear_3305_145" x1="39.9945" y1="0.0341333" x2="39.9945" y2="80.0347" gradientUnits="userSpaceOnUse">
<stop stop-color="#F79F2D"/>
<stop offset="1" stop-color="#FF4D4D"/>
</linearGradient>
<linearGradient id="paint1_linear_3305_145" x1="39.9944" y1="26.7011" x2="39.9944" y2="53.3678" gradientUnits="userSpaceOnUse">
<stop stop-color="#F79F2D"/>
<stop offset="1" stop-color="#FF4D4D"/>
</linearGradient>
</defs>
</svg>
