<svg width="80" height="80" fill="none" xmlns="http://www.w3.org/2000/svg"><path d="M27.45 61.64C6.76 30.388 8.48 17.402 10.29 13.152 3.89 20.2 0 29.54 0 39.783 0 60.197 15.463 77.019 35.367 79.3c0-4.765-3.88-11.375-7.917-17.66Z" fill="#fff"/><path d="M40 63.216c23.11-30.4 27.855-48.139 28.552-51.282A39.967 39.967 0 0 0 40 0a39.965 39.965 0 0 0-28.552 11.934C12.145 15.077 16.89 32.816 40 63.216Z" fill="#fff"/><path d="M69.71 13.153c1.789 4.206 3.498 16.956-16.497 47.49a.929.929 0 0 0-.067.112c-4.229 6.555-8.49 13.567-8.49 18.556C64.56 77.018 80 60.207 80 39.795c0-10.257-3.902-19.595-10.29-26.642Z" fill="#fff"/></svg>