<?xml version="1.0" standalone="no"?>
<!DOCTYPE svg PUBLIC "-//W3C//DTD SVG 20010904//EN"
 "http://www.w3.org/TR/2001/REC-SVG-20010904/DTD/svg10.dtd">
<svg version="1.0" xmlns="http://www.w3.org/2000/svg"
 width="370.000000pt" height="114.000000pt" viewBox="0 0 370.000000 114.000000"
 preserveAspectRatio="xMidYMid meet">
<metadata>
Created by potrace 1.16, written by Peter Selinger 2001-2019
</metadata>
<g transform="translate(0.000000,114.000000) scale(0.100000,-0.100000)"
fill="#1A1F71" stroke="none">
<path d="M0 1122 c0 -15 13 -22 58 -31 73 -17 209 -68 245 -93 15 -11 33 -32
41 -46 7 -15 66 -235 132 -490 l119 -462 159 2 159 3 234 555 c128 305 233
558 233 563 0 4 -69 7 -152 7 l-153 0 -150 -380 c-82 -209 -152 -380 -155
-380 -3 0 -34 152 -68 338 -36 191 -71 350 -80 366 -9 16 -33 37 -52 47 -31
17 -60 19 -302 19 -254 0 -268 -1 -268 -18z"/>
<path d="M1515 1128 c-3 -7 -58 -264 -123 -570 l-118 -558 148 0 c81 0 148 2
148 4 0 6 229 1083 237 1114 l5 22 -146 0 c-108 0 -148 -3 -151 -12z"/>
<path d="M2185 1126 c-115 -37 -212 -113 -255 -201 -18 -36 -26 -71 -28 -128
-4 -68 -1 -84 22 -132 32 -64 91 -119 178 -165 210 -110 249 -161 175 -235
-63 -63 -217 -67 -376 -10 -36 13 -67 22 -70 20 -5 -6 -50 -205 -51 -226 0
-12 18 -22 63 -34 51 -13 99 -16 272 -13 l210 3 67 33 c138 67 220 188 221
325 1 130 -60 214 -214 298 -122 67 -172 101 -189 132 -13 24 -13 30 0 55 39
70 194 89 336 41 l72 -25 23 111 c13 60 24 114 24 120 0 5 -25 17 -55 27 -69
21 -361 24 -425 4z"/>
<path d="M3115 1126 c-16 -7 -37 -22 -46 -32 -10 -11 -110 -242 -224 -514
-114 -272 -215 -514 -225 -537 l-19 -43 153 0 154 0 28 82 29 83 191 3 190 2
20 -82 20 -83 137 -3 138 -3 -7 28 c-4 15 -58 271 -119 568 l-112 540 -139 2
c-99 2 -148 -1 -169 -11z m139 -511 c21 -99 39 -188 42 -197 5 -16 -5 -18
-115 -18 -67 0 -121 3 -121 6 0 22 145 403 150 397 5 -4 24 -89 44 -188z"/>
</g>
</svg>
