<svg width="80" height="64" viewBox="0 0 80 64" fill="none" xmlns="http://www.w3.org/2000/svg">
<path d="M78.3648 62.3453V62.5076H78.5142C78.5472 62.5076 78.5755 62.4997 78.5959 62.4871C78.6148 62.4745 78.6258 62.4524 78.6258 62.4256C78.6258 62.3988 78.6148 62.3784 78.5959 62.3658C78.5755 62.3516 78.5472 62.3453 78.5142 62.3453H78.3648ZM78.5157 62.2318C78.5928 62.2318 78.6525 62.2491 78.695 62.2838C78.7374 62.3185 78.7579 62.3658 78.7579 62.4256C78.7579 62.4761 78.7421 62.517 78.7076 62.5501C78.6745 62.5817 78.6274 62.6021 78.5645 62.61L78.7626 62.8385H78.6085L78.4245 62.6116H78.3648V62.8385H78.2359V62.2318H78.5157ZM78.4764 63.0481C78.5472 63.0481 78.6132 63.0339 78.673 63.0071C78.7343 62.9803 78.7877 62.9441 78.8333 62.8984C78.8789 62.8527 78.9151 62.7991 78.9418 62.7361C78.967 62.6746 78.9811 62.6084 78.9811 62.5375C78.9811 62.4666 78.967 62.4004 78.9418 62.339C78.9151 62.2775 78.8789 62.2223 78.8333 62.1766C78.7877 62.1309 78.7343 62.0947 78.673 62.0679C78.6132 62.0427 78.5472 62.0301 78.4764 62.0301C78.4057 62.0301 78.3381 62.0427 78.2767 62.0679C78.2138 62.0947 78.1588 62.1309 78.1132 62.1766C78.0676 62.2223 78.0314 62.2775 78.0063 62.339C77.9796 62.4004 77.967 62.4666 77.967 62.5375C77.967 62.6084 77.9796 62.6746 78.0063 62.7361C78.0314 62.7991 78.0676 62.8527 78.1132 62.8984C78.1588 62.9441 78.2138 62.9803 78.2767 63.0071C78.3381 63.0339 78.4057 63.0481 78.4764 63.0481ZM78.4764 61.8835C78.5692 61.8835 78.6541 61.9009 78.7359 61.9355C78.816 61.9686 78.8852 62.0159 78.9465 62.0758C79.0063 62.1341 79.0535 62.2034 79.0881 62.2838C79.1226 62.3626 79.1399 62.4477 79.1399 62.5375C79.1399 62.6274 79.1226 62.7124 79.0881 62.7912C79.0535 62.87 79.0063 62.9394 78.9465 62.9993C78.8852 63.0576 78.816 63.1048 78.7359 63.1395C78.6541 63.1742 78.5692 63.1915 78.4764 63.1915C78.3821 63.1915 78.2956 63.1742 78.2138 63.1395C78.1321 63.1048 78.0613 63.0576 78.0016 62.9993C77.9418 62.9394 77.8947 62.87 77.8601 62.7912C77.8255 62.7124 77.8082 62.6274 77.8082 62.5375C77.8082 62.4477 77.8255 62.3626 77.8601 62.2838C77.8947 62.2034 77.9418 62.1341 78.0016 62.0758C78.0613 62.0159 78.1321 61.9686 78.2138 61.9355C78.2956 61.9009 78.3821 61.8835 78.4764 61.8835ZM17.2171 59.5465C17.2171 58.3898 17.9734 57.4395 19.2092 57.4395C20.39 57.4395 21.1872 58.3488 21.1872 59.5465C21.1872 60.7442 20.39 61.6535 19.2092 61.6535C17.9734 61.6535 17.2171 60.7032 17.2171 59.5465ZM22.5331 59.5465V56.2561H21.1054V57.055C20.6526 56.4625 19.9655 56.0906 19.0315 56.0906C17.1903 56.0906 15.7469 57.5372 15.7469 59.5465C15.7469 61.5573 17.1903 63.0024 19.0315 63.0024C19.9655 63.0024 20.6526 62.6305 21.1054 62.038V62.8369H22.5331V59.5465ZM70.7783 59.5465C70.7783 58.3898 71.5346 57.4395 72.7705 57.4395C73.9528 57.4395 74.7484 58.3488 74.7484 59.5465C74.7484 60.7442 73.9528 61.6535 72.7705 61.6535C71.5346 61.6535 70.7783 60.7032 70.7783 59.5465ZM76.0959 59.5465V53.6133H74.6667V57.055C74.2138 56.4625 73.5267 56.0906 72.5928 56.0906C70.7516 56.0906 69.3082 57.5372 69.3082 59.5465C69.3082 61.5573 70.7516 63.0024 72.5928 63.0024C73.5267 63.0024 74.2138 62.6305 74.6667 62.038V62.8369H76.0959V59.5465ZM40.2548 57.3718C41.1746 57.3718 41.7658 57.9501 41.9167 58.9682H38.5095C38.662 58.0179 39.2375 57.3718 40.2548 57.3718ZM40.2831 56.0906C38.3586 56.0906 37.0126 57.4947 37.0126 59.5465C37.0126 61.6393 38.4136 63.0024 40.379 63.0024C41.368 63.0024 42.2736 62.755 43.0708 62.0805L42.3711 61.0199C41.8208 61.4596 41.1196 61.7086 40.4607 61.7086C39.5409 61.7086 38.7029 61.2815 38.4969 60.0965H43.3727C43.3868 59.9184 43.401 59.7388 43.401 59.5465C43.3868 57.4947 42.1227 56.0906 40.2831 56.0906ZM57.522 59.5465C57.522 58.3898 58.2783 57.4395 59.5142 57.4395C60.695 57.4395 61.4922 58.3488 61.4922 59.5465C61.4922 60.7442 60.695 61.6535 59.5142 61.6535C58.2783 61.6535 57.522 60.7032 57.522 59.5465ZM62.8381 59.5465V56.2561H61.4104V57.055C60.956 56.4625 60.2705 56.0906 59.3365 56.0906C57.4953 56.0906 56.0519 57.5372 56.0519 59.5465C56.0519 61.5573 57.4953 63.0024 59.3365 63.0024C60.2705 63.0024 60.956 62.6305 61.4104 62.038V62.8369H62.8381V59.5465ZM49.4592 59.5465C49.4592 61.5431 50.846 63.0024 52.9623 63.0024C53.9513 63.0024 54.6101 62.7818 55.3239 62.2176L54.6384 61.0609C54.1022 61.447 53.5393 61.6535 52.9198 61.6535C51.7799 61.6393 50.9419 60.8135 50.9419 59.5465C50.9419 58.2795 51.7799 57.4537 52.9198 57.4395C53.5393 57.4395 54.1022 57.646 54.6384 58.0321L55.3239 56.8754C54.6101 56.3112 53.9513 56.0906 52.9623 56.0906C50.846 56.0906 49.4592 57.5499 49.4592 59.5465ZM67.8664 56.0906C67.0425 56.0906 66.5063 56.4767 66.1352 57.055V56.2561H64.7201V62.8369H66.1494V59.1478C66.1494 58.0589 66.6164 57.4537 67.5503 57.4537C67.8396 57.4537 68.1415 57.4947 68.4434 57.6192L68.8837 56.2702C68.5676 56.1457 68.1557 56.0906 67.8664 56.0906ZM29.5944 56.7792C28.9073 56.3254 27.9608 56.0906 26.9167 56.0906C25.2532 56.0906 24.1825 56.8896 24.1825 58.1975C24.1825 59.2707 24.9796 59.9326 26.4482 60.139L27.1227 60.2352C27.9057 60.3455 28.2752 60.5519 28.2752 60.9238C28.2752 61.4328 27.7532 61.7228 26.7784 61.7228C25.7894 61.7228 25.0755 61.406 24.5944 61.0341L23.9215 62.1483C24.7045 62.7266 25.6935 63.0024 26.7642 63.0024C28.6604 63.0024 29.7595 62.1073 29.7595 60.8545C29.7595 59.6978 28.8947 59.0926 27.4655 58.8862L26.7925 58.7885C26.1746 58.7066 25.6793 58.5836 25.6793 58.1424C25.6793 57.6602 26.1463 57.3718 26.9293 57.3718C27.7674 57.3718 28.5787 57.6885 28.9765 57.9359L29.5944 56.7792ZM48.0158 56.0906C47.1919 56.0906 46.6557 56.4767 46.2862 57.055V56.2561H44.8711V62.8369H46.2988V59.1478C46.2988 58.0589 46.7658 57.4537 47.6997 57.4537C47.989 57.4537 48.2909 57.4947 48.5928 57.6192L49.0331 56.2702C48.717 56.1457 48.3051 56.0906 48.0158 56.0906ZM35.8318 56.2561H33.4969V54.2594H32.0535V56.2561H30.7218V57.564H32.0535V60.5661C32.0535 62.0931 32.6447 63.0024 34.3334 63.0024C34.9529 63.0024 35.6667 62.8102 36.1196 62.4934L35.7076 61.2674C35.2815 61.5148 34.8145 61.6393 34.4435 61.6393C33.7296 61.6393 33.4969 61.198 33.4969 60.5377V57.564H35.8318V56.2561ZM14.4844 62.8369V58.7066C14.4844 57.1512 13.4954 56.1048 11.901 56.0906C11.063 56.0764 10.1982 56.338 9.59287 57.2615C9.14004 56.5318 8.4262 56.0906 7.42306 56.0906C6.7218 56.0906 6.03627 56.297 5.50011 57.0676V56.2561H4.07086V62.8369H5.51268V59.1888C5.51268 58.0463 6.14476 57.4395 7.12117 57.4395C8.06928 57.4395 8.54884 58.0589 8.54884 59.1746V62.8369H9.99224V59.1888C9.99224 58.0463 10.651 57.4395 11.5992 57.4395C12.574 57.4395 13.041 58.0589 13.041 59.1746V62.8369H14.4844Z" fill="#231F20"/>
<path d="M79.2451 40.9511V39.9898H78.9951L78.7058 40.6501L78.4181 39.9898H78.1665V40.9511H78.3442V40.2262L78.6146 40.8518H78.7986L79.069 40.2246V40.9511H79.2451ZM77.6587 40.9511V40.1537H77.9794V39.9914H77.1618V40.1537H77.4826V40.9511H77.6587Z" fill="#F79410"/>
<path d="M50.8176 45.0862H29.1799V6.11141H50.8176V45.0862Z" fill="#FF5F00"/>
<path d="M30.566 25.5956C30.566 17.6893 34.2594 10.6467 40.011 6.10816C35.805 2.78935 30.4968 0.808464 24.728 0.808464C11.0707 0.808464 0 11.9058 0 25.5956C0 39.2853 11.0707 50.3826 24.728 50.3826C30.4968 50.3826 35.805 48.4018 40.011 45.0829C34.2594 40.5444 30.566 33.5018 30.566 25.5956Z" fill="#EB001B"/>
<path d="M80 25.5956C80 39.2853 68.9292 50.3826 55.272 50.3826C49.5031 50.3826 44.195 48.4018 39.9874 45.0829C45.7406 40.5444 49.434 33.5018 49.434 25.5956C49.434 17.6893 45.7406 10.6467 39.9874 6.10816C44.195 2.78935 49.5031 0.808464 55.272 0.808464C68.9292 0.808464 80 11.9058 80 25.5956Z" fill="#F79E1B"/>
</svg>
