<svg width="73" height="80" viewBox="0 0 73 80" fill="none" xmlns="http://www.w3.org/2000/svg">
<path d="M72.2655 2.33161e-06V74.1021C72.2655 77.3594 69.6248 80 66.3675 80L5.89802 79.9999C2.64062 79.9999 0 77.3593 0 74.1019L3.44378e-05 19.096C3.44378e-05 15.8385 2.64065 13.1979 5.89806 13.1979L58.8078 13.198L71.0698 2.33161e-06H72.2655Z" fill="#FF4040"/>
<path d="M42.1639 40.6032C42.1639 37.8186 40.2919 35.8504 37.4513 35.8504H32.8835V45.3559H37.4513C40.2919 45.3559 42.1639 43.3865 42.1639 40.6032ZM53.2564 40.5785C53.2564 48.7928 47.0707 54.7775 38.7448 54.7775H32.8835V65.5962H22.0684L22.0684 26.4264H38.7448C47.0707 26.4264 53.2564 32.3654 53.2564 40.5785Z" fill="white"/>
</svg>
