<svg width="80" height="80" viewBox="0 0 80 80" fill="none" xmlns="http://www.w3.org/2000/svg">
<g clip-path="url(#clip0_1832_27897)">
<path d="M56.8406 55.428L26.9148 72.5911C26.3065 72.9229 25.6679 73.2546 25.0292 73.5261C18.4297 70.7209 14.1416 64.2961 14.172 57.1473V22.8514C14.1416 15.7328 18.4297 9.27786 25.0292 6.47266C25.6679 6.74413 26.3065 7.07592 26.9148 7.40772L56.8406 24.5405C68.7927 31.4179 68.7927 48.5507 56.8406 55.428Z" fill="#28378D"/>
<path d="M46.3204 28.9449C43.705 26.8938 40.9983 25.8984 38.2307 25.8984H28.1034C26.0962 25.8984 24.8493 26.3208 24.4235 27.1954C24.2106 27.5876 24.0585 28.0099 23.9673 28.4623C23.9065 29.0053 23.8761 29.5482 23.9065 30.1213V56.6049C23.8761 57.4495 23.9673 58.294 24.1802 59.0783C24.5451 60.2547 25.8529 60.8579 28.073 60.8579C30.0802 60.8579 31.3271 60.4356 31.7529 59.5609C31.9658 59.1688 32.1178 58.7465 32.2091 58.2941C32.2699 57.7511 32.3003 57.2081 32.2699 56.6652V51.266H38.1699C40.9678 51.266 43.6746 50.2404 46.29 48.2194C47.6586 47.1637 48.723 45.7762 49.4529 44.2379C50.3045 42.4883 50.6998 40.5579 50.6694 38.6274C50.6998 36.6969 50.2741 34.7665 49.4529 32.9868C48.7534 31.3882 47.6586 30.0308 46.3204 28.9449ZM38.2307 42.79H32.2699V34.3442H38.1699C39.2039 34.3744 40.2075 34.7363 40.9983 35.4301C41.9106 36.154 42.3668 37.2098 42.3668 38.5972C42.3668 39.9848 41.9106 41.0405 40.9983 41.7342C40.238 42.3979 39.2648 42.7598 38.2307 42.79Z" fill="white"/>
<path d="M14.1722 57.1479V22.8521C14.1418 15.7334 18.43 9.27846 25.0294 6.47325C25.6681 6.74473 26.3068 7.07652 26.915 7.40832C14.9629 0.56121 0 9.12764 0 22.8521V57.1479C0 70.8724 14.9325 79.4388 26.915 72.5917C26.3068 72.9234 25.6681 73.2553 25.0294 73.5268C18.43 70.7215 14.1418 64.2967 14.1722 57.1479Z" fill="#FF0066"/>
<path d="M71.0148 24.5405L41.089 7.40758C35.7972 4.39123 29.9278 4.36107 25.0312 6.47251C25.67 6.74398 26.3086 7.07578 26.9168 7.40758L56.8427 24.5405C68.7947 31.4177 68.7947 48.5506 56.8427 55.4279L26.9168 72.5909C26.3086 72.9227 25.67 73.2545 25.0312 73.526C29.9278 75.6375 35.7972 75.6073 41.089 72.5909L71.0148 55.4279C82.9974 48.5506 82.9974 31.4177 71.0148 24.5405Z" fill="#0092EF"/>
</g>
<defs>
<clipPath id="clip0_1832_27897">
<rect width="80" height="80" fill="white"/>
</clipPath>
</defs>
</svg>
