<svg width="80" height="53" viewBox="0 0 80 53" fill="none" xmlns="http://www.w3.org/2000/svg">
<path d="M51.7772 0.0101764C52.0344 0.0735545 52.2469 0.292023 52.4058 0.493342C52.9635 1.2069 53.4802 1.93091 53.8821 2.74513C54.0014 2.99566 54.1073 3.2693 54.0484 3.54966C53.9932 3.82703 53.7128 4.00598 53.5369 4.21699C53.6375 4.49735 53.774 4.75832 53.9157 5.01928C54.3481 5.85513 54.7701 6.69619 55.2115 7.52757C55.4032 7.87801 55.5486 8.24635 55.6902 8.61841C55.8282 8.9875 56.0504 9.30215 56.2174 9.65632C56.5142 10.2677 56.7177 10.9112 56.9392 11.5539C57.183 12.2638 57.4231 12.9632 57.6207 13.6887C58.0613 15.3477 58.7055 16.9142 59.0575 18.618C59.1388 19.0385 59.2029 19.4605 59.217 19.89C59.2387 20.5231 59.4139 21.083 59.5116 21.7011C61.9125 21.7026 64.3141 21.7019 66.7158 21.7019C67.2623 21.6974 67.8096 21.7213 68.3562 21.7317C69.8862 21.8167 71.4647 21.8547 72.9619 22.2119C73.1886 22.9829 73.1729 23.7457 73.1818 24.5405C73.0573 24.5442 72.9321 24.5479 72.8075 24.5517C72.8046 23.8553 72.8053 23.1588 72.8075 22.4632C72.6659 22.4662 72.525 22.4691 72.384 22.4699C48.7716 22.4699 25.1599 22.4699 1.54743 22.4699C1.16717 22.4699 0.787644 22.4744 0.407375 22.4602C0.409612 27.3112 0.408866 32.1623 0.40812 37.0133C0.787643 37.0051 1.16791 37.0081 1.54743 37.0081C24.9354 37.0081 48.3227 37.0081 71.7107 37.0081C72.0768 37.0081 72.4414 37.0051 72.8075 37.0126C72.8031 36.1976 72.8075 35.3819 72.8053 34.5662C72.9306 34.5557 73.0551 34.5453 73.1796 34.5356C73.1565 35.5183 73.2206 36.4228 72.9716 37.3816C72.5182 37.2899 72.1603 37.4622 71.707 37.5024C70.3231 37.6583 68.9281 37.7448 67.5352 37.7612C64.1255 37.7612 60.7165 37.7612 57.3068 37.7612C56.6767 39.2614 55.8677 40.684 54.8812 41.9792C54.1222 42.9761 53.2811 43.9797 52.3096 44.7753C52.0173 45.0124 51.7093 45.2167 51.4029 45.4359C50.6655 45.9608 49.9474 46.5126 49.2391 47.0755C48.8708 47.376 48.5859 47.8017 48.615 48.2953C48.6008 48.8426 48.9408 49.3966 48.8983 49.9305C48.8581 50.3652 48.4935 50.6813 48.1475 50.8998C47.4123 51.3442 46.5138 51.5873 45.684 51.7864C43.7051 52.2345 41.6538 52.4157 39.6354 52.5663C38.5953 52.6103 37.5596 52.6699 36.5172 52.6535C35.5696 52.6707 34.6293 52.6058 33.6831 52.5655C31.9659 52.4418 30.2734 52.2956 28.5801 51.9668C27.5966 51.7707 26.5743 51.5224 25.6684 51.0832C25.1837 50.8387 24.6372 50.4778 24.4351 49.9491C24.2666 49.4078 24.4784 48.8941 24.5343 48.3714C24.591 47.8845 24.3688 47.4058 23.9796 47.1143C23.7014 46.8995 23.389 46.7944 23.0602 46.6863C22.4809 46.4969 21.9447 46.1196 21.4631 45.752C20.6421 45.113 19.8607 44.4226 19.0741 43.7411C17.5098 42.3415 16.3511 40.4223 15.4854 38.5269C15.3616 38.2794 15.2811 37.9923 15.1208 37.7671C11.9549 37.7522 8.74495 37.7671 5.57381 37.7597C4.25778 37.7388 2.93952 37.656 1.63094 37.5121C1.17015 37.4637 0.72352 37.3466 0.26496 37.2795C0.0464923 36.6852 0.0830279 35.9493 0.0412729 35.3215C-0.0131577 31.8677 -0.0064477 28.4118 0.0196492 24.9573C0.039781 24.0476 0.00175435 23.0231 0.257504 22.1426C0.620623 22.2082 0.98076 22.0404 1.35879 22.0039C2.92311 21.8003 4.5195 21.7392 6.09575 21.7026C8.30951 21.7019 10.5233 21.7004 12.737 21.7041C12.8123 21.6915 13.0196 21.728 13.0055 21.6042C13.0979 20.9063 13.2068 20.2121 13.3373 19.5195C13.464 18.8469 13.5244 18.1915 13.7213 17.5346C14.0523 16.2737 14.3394 15.0069 14.7375 13.7632C15.1007 12.647 15.4011 11.5442 15.938 10.4922C16.3533 9.68839 16.6978 8.85627 17.0534 8.02564C17.3763 7.27778 17.7439 6.5508 18.1518 5.84618C18.3754 5.46293 18.5387 5.05135 18.7661 4.67033C18.8385 4.53463 18.9309 4.41235 18.913 4.25055C18.7341 4.00449 18.4552 3.83821 18.2755 3.58843C18.1972 3.48852 18.1935 3.39308 18.2323 3.27601C18.5686 2.45433 19.013 1.69156 19.5662 0.996638C19.8138 0.695406 20.0665 0.324085 20.3983 0.112327C20.5982 -0.0189028 20.8308 -0.0121923 21.0463 0.0757914C21.6569 0.31812 22.2273 0.762512 22.788 1.10624C23.3577 1.45371 23.9139 1.8213 24.4791 2.17473C24.717 2.32534 24.9862 2.46477 25.1957 2.65118C25.561 2.96583 25.8063 3.44974 25.8213 3.93291C25.828 4.28112 25.5983 4.56073 25.4216 4.83959C24.5865 6.14145 23.8632 7.51713 23.2712 8.94649C22.7813 10.1395 22.4145 11.3705 22.0939 12.6179C21.6912 13.9519 21.4683 15.3111 21.2573 16.6853C21.0716 17.8343 20.8696 18.9811 20.6615 20.1271C20.5601 20.6565 20.581 21.1658 20.578 21.7011C30.978 21.7019 41.3787 21.7034 51.7787 21.7004C51.7563 21.2724 51.7556 20.8437 51.7466 20.4149C51.6907 19.4919 51.5535 18.5561 51.4141 17.6412C51.3261 17.0462 51.3365 16.4751 51.18 15.8927C50.8437 14.6043 50.5969 13.2786 50.2039 12.0095C49.8043 10.6898 49.2734 9.3797 48.7432 8.10617C48.2787 6.95865 47.7322 5.86482 46.9791 4.87612C46.8069 4.65393 46.6212 4.47647 46.525 4.20357C46.4154 3.90159 46.4691 3.57575 46.6287 3.30286C46.8307 2.95316 47.1722 2.68697 47.501 2.46179C48.3734 1.86678 49.1869 1.2591 50.1174 0.750582C50.5081 0.538079 50.922 0.37777 51.306 0.153336C51.4596 0.0743003 51.5953 -0.0338155 51.7772 0.0101764Z" fill="white"/>
<path d="M36.2847 1.9972C36.4822 1.99124 36.5061 2.18585 36.5546 2.33423C36.6381 2.77936 36.571 3.25433 36.5978 3.70692C36.6015 4.1364 36.6836 4.62702 36.5344 5.0319C36.486 4.93646 36.4353 4.84847 36.4233 4.73961C36.3398 4.04991 36.2794 3.35722 36.2496 2.6623C36.2436 2.43712 36.2377 2.21865 36.2847 1.9972Z" fill="white"/>
<path d="M23.7746 2.6475C24.0407 2.91071 24.3069 3.19032 24.5 3.51317C24.2398 3.40133 24.005 3.24773 23.7559 3.11426C23.6433 3.05834 23.5136 3.01286 23.4263 3.13663C23.1065 3.56462 22.8552 4.05673 22.5085 4.46533C22.3631 4.63608 22.1886 4.59134 22.0097 4.50634C21.3707 4.18945 20.7883 3.72195 20.2067 3.31036C20.1031 3.23132 19.9868 3.21865 19.8623 3.19777C19.8503 3.30365 19.828 3.41773 19.8391 3.52361C20.0613 3.73164 20.341 3.88375 20.5982 4.04331C21.2722 4.43029 21.8553 4.91942 22.5003 5.34741C22.6211 5.4339 22.7911 5.53754 22.841 5.68294C22.8999 5.84996 22.8276 6.04755 22.7724 6.20637C22.4488 7.06756 21.9329 7.85122 21.5213 8.69228C20.7518 10.2581 20.0293 11.9074 19.5588 13.5895C19.3299 14.4112 19.0697 15.1747 18.9623 16.0262C18.8355 17.0187 18.6775 18.0022 18.5716 18.9961C18.4657 19.8968 18.4478 20.7953 18.4426 21.6997C18.333 21.7019 18.2234 21.7042 18.1138 21.7072C18.1399 21.3977 18.1332 21.0905 18.1242 20.7811C18.1145 20.3524 18.1891 19.94 18.2129 19.5143C18.2726 18.5994 18.3382 17.6897 18.4866 16.7838C18.6827 15.2784 19.1405 13.8826 19.5685 12.4055C19.9845 10.9538 20.5654 9.58479 21.1932 8.21508C21.5794 7.38296 22.1469 6.57545 22.4242 5.70382C22.2758 5.60539 22.1215 5.51741 21.9664 5.43166C21.5429 5.19754 21.182 4.88512 20.7935 4.59284C20.4722 4.34454 20.156 4.08581 19.8563 3.81217C19.5923 3.54598 19.5976 3.18659 19.7295 2.85553C20.1732 2.97781 20.5527 3.25071 20.98 3.43712C21.4035 3.62278 21.7778 3.88524 22.1819 4.1052C22.5323 3.65633 22.8284 3.13067 23.2131 2.7064C23.3712 2.54088 23.5904 2.47824 23.7746 2.6475Z" fill="black"/>
<path d="M48.8499 2.6996C49.1146 2.93149 49.3599 3.19246 49.597 3.45268C49.7946 3.66742 49.9064 3.93883 50.0869 4.16326C50.1622 4.25199 50.3016 4.20352 50.3888 4.16028C51.1069 3.78075 51.7944 3.31176 52.5422 2.99636C52.6078 3.34531 52.6652 3.66518 52.446 3.97611C52.1836 4.32432 51.775 4.57857 51.4051 4.80077C50.9943 5.03788 50.6759 5.3488 50.2942 5.62916C50.195 5.71491 50.0295 5.81035 50.0332 5.95723C50.0175 6.11605 50.1532 6.26518 50.2367 6.39044C50.6036 6.87957 50.9085 7.4291 51.1949 7.96893C51.725 8.98298 52.0784 10.0291 52.4483 11.1073C52.8024 12.1601 53.1469 13.2159 53.4742 14.2769C53.7031 15.0128 53.8098 15.8159 53.935 16.5801C54.2333 18.2563 54.3243 20.0003 54.4674 21.7011C54.3287 21.7018 54.1893 21.7018 54.0506 21.7018C54.064 21.0226 54.0118 20.3396 53.9418 19.6648C53.7389 17.4697 53.2901 15.3141 52.6854 13.1958C52.1776 11.2989 51.5662 9.46913 50.5849 7.75792C50.2382 7.12339 49.8065 6.52242 49.5195 5.85881C49.7178 5.57547 49.9519 5.38087 50.2517 5.2131C50.7378 4.93647 51.1337 4.56142 51.5714 4.22142C51.8205 4.02159 52.1634 3.91571 52.3677 3.67711C52.4691 3.56527 52.5079 3.35202 52.3327 3.29088C52.1903 3.38334 52.0635 3.50562 51.9308 3.61224C51.5036 3.96269 51.0114 4.21918 50.5432 4.53533C50.4023 4.62629 50.2524 4.73739 50.0876 4.77616C49.9318 4.73143 49.849 4.60914 49.7558 4.48537C49.5396 4.17817 49.3278 3.86725 49.1235 3.5511C49.0012 3.37588 48.8268 3.09553 48.5941 3.07539C48.3056 3.09702 48.0267 3.35053 47.7799 3.49294C47.9589 3.18947 48.184 2.88302 48.4666 2.66903C48.6061 2.58254 48.7239 2.59521 48.8499 2.6996Z" fill="black"/>
<path d="M31.5461 3.25806C31.649 3.28788 31.7452 3.32591 31.8242 3.40122C32.1247 3.66666 32.3394 4.05588 32.5445 4.39737C32.9143 5.03413 33.3624 5.62691 33.73 6.26367C33.8076 6.39192 33.8337 6.53135 33.8598 6.67675C33.5936 6.52837 33.4616 6.22639 33.2677 5.98704C32.7652 5.33686 32.3096 4.65536 31.8496 3.9746C31.7169 3.74942 31.5327 3.53394 31.5461 3.25806Z" fill="white"/>
<path d="M39.2791 3.31616C39.3044 3.42726 39.3909 3.56669 39.3156 3.67257C39.1739 3.90744 39.0054 4.11771 38.9033 4.37644C38.7862 4.62697 38.7459 4.92224 38.599 5.15487C38.4932 5.18693 38.4052 5.1586 38.3344 5.07062C38.4499 4.7843 38.6505 4.54421 38.7832 4.26236C38.9629 3.92235 39.0144 3.59503 39.2791 3.31616Z" fill="white"/>
<path d="M25.1263 3.50488C25.2076 3.56379 25.2874 3.62269 25.3612 3.69129C25.2404 3.88291 25.1025 4.06112 24.9906 4.25871C24.6871 4.77766 24.3307 5.25039 24.0586 5.78873C23.527 6.8162 22.9506 7.81832 22.4257 8.84878C22.1923 9.29839 22.0775 9.77782 21.8776 10.2483C21.3699 11.457 21.047 12.7491 20.748 14.0234C20.5034 15.0703 20.2753 16.1201 20.0807 17.1774C19.8898 18.1363 19.8674 19.0884 19.7496 20.054C19.684 20.6013 19.6422 21.1508 19.6378 21.7019C19.508 21.7019 19.379 21.7011 19.2501 21.7011C19.2404 21.3939 19.209 21.0882 19.1897 20.7818C19.1598 20.4365 19.2665 20.0995 19.2993 19.7416C19.3589 19.1265 19.3477 18.533 19.479 17.92C19.7004 16.8888 19.8607 15.8852 20.1746 14.8749C20.4229 14.0816 20.5042 13.2681 20.748 12.4725C20.9978 11.6106 21.3542 10.7934 21.6525 9.95006C22.0752 8.50281 22.8633 7.11222 23.6664 5.84316C24.1801 5.06548 24.5477 4.24678 25.1263 3.50488Z" fill="black"/>
<path d="M40.1722 3.47363C40.2714 3.96575 40.0022 4.3229 39.786 4.73672C39.7167 4.87615 39.6063 4.93729 39.4743 5.00887C39.4549 4.71883 39.5683 4.53615 39.7435 4.3229C39.9627 4.0679 40.0261 3.76666 40.1722 3.47363Z" fill="white"/>
<path d="M47.205 3.55273C47.5457 3.81221 47.7515 4.18801 47.9909 4.53621C48.8662 5.84106 49.6834 7.17573 50.3202 8.61627C50.611 9.29554 50.9547 9.98151 51.1478 10.6943C51.3439 11.3997 51.4983 12.1155 51.7145 12.8134C52.0277 13.8521 52.2857 14.9101 52.5228 15.9681C52.6696 16.596 52.7166 17.2432 52.8188 17.8822C53.0156 19.1616 53.2065 20.4068 53.1856 21.702C53.0193 21.702 52.8531 21.7012 52.6868 21.6998C52.6696 20.3986 52.5966 19.1102 52.3669 17.8262C52.1992 16.9285 52.1716 15.9517 51.9285 15.0749C51.5863 13.7849 51.1806 12.5151 50.8541 11.22C50.5826 10.1217 50.1502 9.1054 49.6499 8.09508C49.0936 6.97515 48.5046 5.83584 47.8022 4.80016C47.5435 4.40722 47.237 4.04186 47.0044 3.63326C47.0708 3.60567 47.1379 3.57883 47.205 3.55273Z" fill="black"/>
<path d="M33.358 3.68473C33.4885 3.6385 33.5713 3.66982 33.6063 3.77868C33.8494 4.25812 33.9135 4.78229 34.3631 5.12826C34.4727 5.20432 34.466 5.30647 34.4891 5.42353C34.4198 5.44441 34.3505 5.46528 34.2811 5.48691C33.8524 4.9687 33.5467 4.32672 33.358 3.68473Z" fill="white"/>
<path d="M42.9453 4.49951C42.8543 4.94167 42.4562 5.23768 42.1326 5.51953C41.6173 5.92067 41.1431 6.36656 40.6518 6.79678C40.4117 7.00108 40.1962 7.20464 39.892 7.31201C39.9919 6.99512 40.3296 6.7938 40.5489 6.54476C41.0395 6.01313 41.5912 5.55233 42.1132 5.05351C42.3786 4.8246 42.5941 4.58824 42.9453 4.49951Z" fill="white"/>
<path d="M40.572 4.81128C40.563 4.93505 40.5772 5.03571 40.484 5.13264C40.27 5.40703 40.006 5.65458 39.8167 5.96476C39.7085 6.14297 39.669 6.37411 39.6086 6.57319C39.5102 6.55977 39.4118 6.55157 39.3134 6.54709C39.4796 5.95283 39.8666 5.51888 40.2476 5.04988C40.3378 4.93654 40.4407 4.87018 40.572 4.81128Z" fill="white"/>
<path d="M31.755 5.71711C32.0107 5.96988 32.227 6.29497 32.5051 6.52835C32.6848 6.67822 32.8973 6.72147 33.0874 6.84524C33.0673 6.97051 33.0881 7.04806 32.9502 7.10099C32.3552 6.7759 31.8676 6.2316 31.4672 5.69251C31.5745 5.68505 31.67 5.62466 31.755 5.71711Z" fill="white"/>
<path d="M30.1154 5.84392C30.3994 5.83199 30.5918 5.88418 30.8215 6.04523C31.1055 6.25774 31.4001 6.37555 31.541 6.72301C31.2547 6.73717 31.0981 6.59327 30.9162 6.39866C30.6895 6.14142 30.3972 6.02436 30.1154 5.84392Z" fill="white"/>
<path d="M42.811 6.53959C42.5478 6.78937 42.1772 6.91986 41.8857 7.13832C41.6411 7.29491 41.5121 7.52381 41.3578 7.75943C41.2676 7.705 41.1774 7.64982 41.0886 7.5939C41.4763 7.10403 41.9774 6.80577 42.5061 6.49187C42.6321 6.44042 42.8304 6.28906 42.811 6.53959Z" fill="white"/>
<path d="M36.4986 6.52627C36.5992 6.60755 36.6634 6.744 36.7223 6.85733C37.0548 7.54405 37.3941 8.22779 37.7311 8.91227C37.7878 9.01815 37.8414 9.14491 37.9309 9.22767C38.0495 9.26793 38.1792 9.28285 38.3022 9.30373C39.0911 9.41557 39.88 9.52667 40.6674 9.64597C40.8128 9.67952 40.9656 9.71456 40.9649 9.8965C40.9917 10.071 40.8627 10.1493 40.7621 10.2671C40.2446 10.7674 39.7286 11.2692 39.2097 11.7673C39.0919 11.8836 38.9621 12.0021 38.8697 12.1393C38.8547 12.2586 38.8741 12.3854 38.8928 12.5039C39.03 13.2488 39.1493 13.9974 39.2842 14.7431C39.2977 14.9041 39.3789 15.1017 39.2313 15.2232C39.0896 15.3388 38.9591 15.2829 38.8137 15.2135C37.998 14.7923 37.1942 14.3434 36.3688 13.9415C35.5263 14.3553 34.7061 14.8176 33.8688 15.2411C33.6473 15.3664 33.3878 15.2344 33.4288 14.9653C33.5645 14.0668 33.745 13.172 33.8807 12.2735C33.9113 12.1252 33.8076 12.0506 33.7204 11.9492C33.1142 11.3587 32.5013 10.7748 31.8981 10.1813C31.7758 10.068 31.746 9.9636 31.7952 9.80329C31.8705 9.6661 32.0241 9.65715 32.162 9.63105C32.9226 9.52145 33.6824 9.40886 34.4436 9.30373C34.5652 9.28285 34.6942 9.26943 34.8097 9.22543C34.8925 9.15311 34.9357 9.06214 34.985 8.9667C35.2869 8.34933 35.5911 7.73344 35.8961 7.11681C35.9886 6.93711 36.0624 6.72535 36.1966 6.5725C36.2846 6.4875 36.389 6.50912 36.4986 6.52627Z" fill="white"/>
<path d="M30.1004 6.63867C30.3218 6.81091 30.5052 7.0167 30.7438 7.16881C30.9578 7.31644 31.1957 7.4089 31.4224 7.53193C31.5417 7.5804 31.5335 7.75562 31.5633 7.8615C31.4507 7.84286 31.35 7.85106 31.2583 7.77277C31.0085 7.57145 30.7752 7.35671 30.497 7.19267C30.3121 7.06741 30.0825 6.97271 29.9266 6.81166C29.829 6.64091 29.9915 6.69683 30.1004 6.63867Z" fill="white"/>
<path d="M44.4522 7.04077C44.4246 7.13174 44.3925 7.22047 44.3575 7.3077C44.1301 7.41657 43.8713 7.44564 43.6402 7.55003C43.3345 7.67306 43.0795 7.88333 42.7805 8.0153C42.7015 7.95118 42.6261 7.88333 42.5546 7.81026C42.8454 7.64696 43.1645 7.58582 43.468 7.45683C43.8027 7.31889 44.0958 7.12503 44.4522 7.04077Z" fill="white"/>
<path d="M29.19 7.58862C29.5329 7.67959 29.8312 7.92117 30.16 8.05762C30.4202 8.1896 30.6931 8.20302 30.9787 8.20749C30.9944 8.30964 31.0085 8.41105 31.0227 8.5132C30.3442 8.43938 29.7186 8.10385 29.134 7.76757C29.1504 7.70718 29.1698 7.64753 29.19 7.58862Z" fill="white"/>
<path d="M44.6631 9.17383C44.5401 9.35427 44.4096 9.51458 44.2061 9.60331C43.8676 9.75243 43.5514 9.90976 43.1779 9.9284C43.2793 9.59585 43.5395 9.5966 43.8251 9.52054C44.1367 9.46089 44.3738 9.29238 44.6631 9.17383Z" fill="white"/>
<path d="M30.2569 10.3608C30.289 10.4533 30.3196 10.5458 30.3487 10.6382C29.703 10.8015 29.0587 10.753 28.4078 10.6561C28.3452 10.6099 28.293 10.5495 28.2512 10.4742C28.6993 10.4078 29.1325 10.5569 29.5889 10.5286C29.8267 10.5256 30.0176 10.3929 30.2569 10.3608Z" fill="white"/>
<path d="M44.0108 10.364C44.0175 10.4378 44.0235 10.5116 44.0295 10.5855C43.6387 10.6623 43.2354 10.7003 42.8491 10.798C42.6068 10.8613 42.4435 11.0112 42.2429 11.1506C42.1684 11.0768 42.0946 11.0023 42.0215 10.9277C42.612 10.5474 43.3315 10.4818 44.0108 10.364Z" fill="white"/>
<path d="M31.136 11.5332C31.0413 11.6159 30.9765 11.7002 30.8415 11.7061C30.0966 11.7986 29.3607 11.9395 28.6113 12.0059C28.1714 12.0394 27.7017 12.1311 27.264 12.0998C27.1805 12.0678 27.0985 12.032 27.0179 11.9925C27.1991 11.894 27.3766 11.8001 27.5816 11.765C28.2348 11.6487 28.9454 11.6808 29.5859 11.6003C30.0922 11.5563 30.6357 11.4675 31.136 11.5332Z" fill="white"/>
<path d="M44.001 11.615C43.9734 11.6985 43.9451 11.782 43.9175 11.8655C43.6141 11.8625 43.327 11.7932 43.0295 11.8238C42.7268 11.8543 42.4345 11.9244 42.1347 11.9684C42.1012 11.8685 42.0699 11.7678 42.04 11.6664C42.3375 11.65 42.6343 11.6731 42.9325 11.6687C43.2897 11.6657 43.6439 11.6187 44.001 11.615Z" fill="white"/>
<path d="M30.9362 12.3315C31.0041 12.4106 31.0719 12.4896 31.1435 12.5657C30.5552 12.9459 29.8401 13.1346 29.1542 13.2345C29.1997 13.1279 29.2004 13.0235 29.3324 12.9914C29.6761 12.8885 30.0564 12.8438 30.3934 12.7118C30.5917 12.6328 30.7603 12.4568 30.9362 12.3315Z" fill="white"/>
<path d="M43.4494 12.6173C43.7789 12.671 44.0906 12.6046 44.4194 12.5964C44.0257 12.8917 43.6171 12.8417 43.1526 12.8529C42.999 12.8492 42.8902 12.8439 42.7791 12.7232C42.9752 12.5271 43.2026 12.6046 43.4494 12.6173Z" fill="white"/>
<path d="M41.3735 13.2921C41.9939 13.2033 42.6485 13.307 43.2525 13.4561C43.3338 13.4688 43.3606 13.6022 43.4046 13.6634C42.9744 13.6835 42.5948 13.4993 42.1639 13.4874C41.8977 13.4673 41.6501 13.5441 41.3854 13.5448C41.3765 13.4606 41.3728 13.3763 41.3735 13.2921Z" fill="white"/>
<path d="M29.9945 13.5991C30.0042 13.6841 30.0139 13.7691 30.0229 13.8541C29.8149 13.96 29.6001 14.0353 29.3772 14.1024C29.0961 14.1904 28.903 14.3671 28.6479 14.5147C28.7426 14.3269 28.847 14.1568 29.0342 14.048C29.3384 13.869 29.6635 13.7214 29.9945 13.5991Z" fill="white"/>
<path d="M77.9747 13.7939C78.862 13.8647 79.6464 14.5044 79.9006 15.3567C80.1385 16.1001 79.9394 16.9494 79.4078 17.5183C79.0857 17.8762 78.6651 18.0842 78.2036 18.2027C77.9001 21.4201 77.59 24.639 77.2664 27.8534C77.2089 28.5841 76.8846 29.3126 76.2881 29.7577C75.837 30.0947 75.3255 30.22 74.779 30.3057C74.776 30.8351 74.7834 31.3653 74.7775 31.8954C74.7573 32.6835 74.2615 33.4098 73.5382 33.7214C73.0185 33.9705 72.3422 33.8661 71.7718 33.887C71.7413 34.5506 71.7853 35.1754 71.5668 35.8174C71.2022 35.7361 70.889 35.8577 70.5267 35.8852C69.0414 36.0448 67.5389 36.0977 66.0454 36.1194C46.4355 36.1201 26.8248 36.1194 7.21416 36.1194C6.46853 36.1015 5.71993 36.1089 4.97728 36.05C3.85661 36.0113 2.73966 35.9218 1.6339 35.7339C1.4982 35.5341 1.47956 35.244 1.44824 35.0099C1.39903 34.171 1.38934 33.3285 1.37368 32.4882C1.34684 30.1081 1.34013 27.7251 1.40127 25.3458C1.41245 24.8194 1.43631 24.3064 1.61228 23.8046C1.96794 23.8628 2.28185 23.7636 2.63229 23.7234C3.07072 23.6674 3.50989 23.6436 3.94981 23.6018C5.23676 23.5407 6.52147 23.4728 7.81066 23.4773C27.1484 23.478 46.4862 23.4773 65.824 23.478C66.5182 23.4907 67.2138 23.5019 67.908 23.5384C69.1085 23.5996 70.3604 23.6272 71.537 23.8904C71.7428 24.2498 71.7353 24.7672 71.7666 25.1736C72.3609 25.1945 73.0096 25.0938 73.5546 25.3503C74.2548 25.6568 74.7342 26.3562 74.7745 27.1189C74.7909 27.6558 74.7655 28.1934 74.7872 28.7302C74.9885 28.6646 75.2107 28.6191 75.3643 28.4633C75.532 28.2955 75.62 28.0346 75.6804 27.8109C75.7863 27.3874 75.8273 26.9467 75.887 26.515C76.1099 24.2542 76.4074 21.9913 76.6721 19.732C76.7317 19.1706 76.8279 18.6151 76.854 18.0491C76.4499 17.8314 76.0957 17.5563 75.8638 17.1529C75.3911 16.3812 75.456 15.3567 76.013 14.6454C76.4663 14.0481 77.2291 13.7215 77.9747 13.7939Z" fill="white"/>
<path d="M30.9996 14.0942C31.0339 14.1606 31.0674 14.2269 31.1002 14.294C30.7766 14.464 30.4284 14.5654 30.1108 14.7481C29.8528 14.895 29.603 15.0531 29.3324 15.1769C29.3301 15.0822 29.3286 14.9867 29.3271 14.8913C29.6933 14.7556 30.0519 14.6467 30.3718 14.4133C30.5902 14.2806 30.7267 14.083 30.9996 14.0942Z" fill="white"/>
<path d="M40.9746 14.1428C41.1483 14.1562 41.3124 14.2055 41.4772 14.2606C41.9887 14.4291 42.5128 14.5492 43.0221 14.7274C43.3554 14.8445 43.6902 14.9533 44.0242 15.0652C44.3366 15.1807 44.6304 15.2545 44.8586 15.5148C44.2979 15.6229 43.8691 15.3955 43.3651 15.2009C42.6403 14.8937 41.8708 14.6849 41.1536 14.3635C41.0395 14.318 41.0126 14.2532 40.9746 14.1428Z" fill="white"/>
<path d="M17.735 15.121C17.8207 15.5855 17.7268 16.0508 17.5829 16.4929C17.3338 16.302 17.0818 16.0112 16.7813 15.9136C16.3914 15.8151 16.0648 15.9344 15.7024 16.0642C15.768 15.5542 15.8441 15.0404 16.2504 14.6796C16.7075 14.2434 17.5896 14.5103 17.735 15.121Z" fill="black"/>
<path d="M55.1109 14.5401C55.4763 14.4133 55.9184 14.4491 56.1802 14.763C56.4762 15.1112 56.5925 15.6332 56.6447 16.0761C56.3546 15.9665 56.0869 15.8539 55.7671 15.8859C55.3324 15.9128 55.0408 16.2215 54.7672 16.5249C54.6248 16.1126 54.5137 15.7174 54.5778 15.276C54.627 14.9614 54.8082 14.6654 55.1109 14.5401Z" fill="black"/>
<path d="M76.9786 14.579C77.3343 14.4582 77.7354 14.5395 77.8681 14.9265C78.0359 15.558 77.3537 16.2253 76.7311 16.1247C76.4485 16.0762 76.2539 15.8473 76.2419 15.5617C76.2464 15.1166 76.57 14.7289 76.9786 14.579Z" fill="black"/>
<path d="M78.68 14.7683C78.7248 14.9077 78.7822 15.0047 78.6771 15.1352C78.5809 15.297 78.3982 15.2381 78.2401 15.2522C78.2528 15.1098 78.2103 14.9816 78.3266 14.8742C78.4176 14.7549 78.5473 14.7832 78.68 14.7683Z" fill="black"/>
<path d="M31.2009 14.8503C31.3128 14.8705 31.4142 14.9719 31.3411 15.08C31.0757 15.4796 30.6141 15.7809 30.2286 16.0568C30.0437 16.1574 29.9214 16.3572 29.7126 16.1738C30.034 15.8465 30.5045 15.6579 30.8318 15.3208C30.9713 15.1821 31.0257 14.9368 31.2009 14.8503Z" fill="white"/>
<path d="M41.2527 15.4141C41.8813 15.4141 42.5359 15.8898 43.0743 16.1806C43.0593 16.2566 43.0437 16.3319 43.0273 16.4072C42.6709 16.2328 42.3488 16.0009 41.9916 15.8279C41.7567 15.7093 41.501 15.7138 41.2385 15.6653C41.2393 15.5811 41.2445 15.4976 41.2527 15.4141Z" fill="white"/>
<path d="M32.9747 16.478C32.8651 16.786 32.6728 17.0059 32.5028 17.2893C32.2597 17.6867 31.9778 18.0543 31.7102 18.4345C31.5521 18.6515 31.4141 18.8588 31.1554 18.9662C31.1338 18.5203 31.3992 18.2578 31.6602 17.9387C32.0114 17.5405 32.2985 17.0924 32.6429 16.689C32.7309 16.5764 32.8465 16.531 32.9747 16.478Z" fill="white"/>
<path d="M35.1289 16.4661C35.1155 16.8545 34.994 17.24 34.9306 17.624C34.8262 18.219 34.6726 18.8021 34.5421 19.3912C34.4549 19.7565 34.3826 20.1114 34.188 20.4395C34.0135 20.0316 34.179 19.623 34.2774 19.2174C34.5175 18.4382 34.6771 17.6397 34.9023 16.8575C34.947 16.6935 35.0089 16.5883 35.1289 16.4661Z" fill="white"/>
<path d="M39.3842 16.4839C39.6451 16.6531 39.754 16.8977 39.9367 17.1393C40.2595 17.5718 40.5376 18.0326 40.8269 18.4874C40.9507 18.6805 41.0379 18.8699 41.0544 19.1025C40.5205 18.9139 40.3572 18.3211 40.088 17.8819C39.8561 17.4383 39.452 16.9849 39.3842 16.4839Z" fill="white"/>
<path d="M36.0408 16.7314C36.2638 17.4129 36.1877 18.0557 36.1653 18.7558C36.0945 18.7663 36.0244 18.7767 35.9543 18.7864C35.9394 18.3577 35.9953 17.9297 35.9715 17.5024C35.9596 17.2862 35.8365 17.0692 35.7687 16.8619C35.8589 16.8179 35.9491 16.7739 36.0408 16.7314Z" fill="white"/>
<path d="M15.7509 16.7957C15.9194 16.9351 16.0648 17.076 16.2669 17.1677C16.5211 17.2811 16.8074 17.3355 17.0751 17.4108C16.9305 17.542 16.7635 17.7113 16.5733 17.7694C16.3183 17.8373 16.0186 17.7083 15.8553 17.51C15.692 17.3139 15.7502 17.0313 15.7509 16.7957Z" fill="black"/>
<path d="M55.1616 16.8835C55.3436 17.0513 55.5203 17.2534 55.7469 17.3578C55.9497 17.4525 56.1854 17.4651 56.4053 17.4964C56.2547 17.6165 56.1078 17.785 55.8998 17.7865C55.6888 17.7925 55.4353 17.6702 55.3025 17.5061C55.1579 17.3354 55.1862 17.0931 55.1616 16.8835Z" fill="black"/>
<path d="M33.6653 16.9703C33.7629 16.965 33.8614 16.9591 33.9598 16.9539C33.9732 17.6301 33.6675 18.3333 33.3939 18.9417L33.2596 18.841C33.2626 18.5219 33.493 18.2199 33.578 17.9127C33.7145 17.6011 33.6727 17.2991 33.6653 16.9703Z" fill="white"/>
<path d="M38.4403 17.1445C38.8287 17.6299 39.0092 18.1862 39.1948 18.7692C39.2321 18.8818 39.2388 18.9967 39.2455 19.1137C39.1777 19.0802 39.1106 19.0436 39.0457 19.0049C38.8876 18.6693 38.8332 18.2898 38.6766 17.9513C38.5745 17.709 38.3933 17.5695 38.236 17.3585C38.3023 17.2862 38.3709 17.2146 38.4403 17.1445Z" fill="white"/>
<path d="M37.6738 17.2542C37.7595 17.53 37.7565 17.8096 37.805 18.0922C37.8617 18.4867 38.0093 18.8535 38.0294 19.2562C37.9273 19.1726 37.7401 19.1316 37.7565 18.9713C37.7453 18.6119 37.7073 18.2652 37.5813 17.926C37.5254 17.7418 37.4038 17.533 37.4553 17.3399C37.5261 17.3063 37.5984 17.278 37.6738 17.2542Z" fill="white"/>
<path d="M15.3288 17.4116C15.6256 17.6987 15.9507 18.0708 16.3854 18.117C16.6769 18.1244 16.9923 17.9559 17.2555 17.8433C17.26 18.7314 17.1556 19.609 17.0169 20.4843C16.7157 20.2174 16.4465 19.9609 16.0125 19.9706C15.5257 19.9564 15.2289 20.2443 14.8971 20.5514C15.0015 19.4986 15.1312 18.4503 15.3288 17.4116Z" fill="black"/>
<path d="M56.9809 17.3975C57.2084 18.4085 57.4179 19.4599 57.435 20.4985C57.0682 20.248 56.6805 19.9289 56.207 19.9721C55.8662 19.9773 55.6142 20.2383 55.3637 20.4351C55.1497 19.6008 55.0587 18.709 55.061 17.8486C55.3957 18.0014 55.7708 18.2027 56.1466 18.073C56.5306 17.9656 56.7438 17.6927 56.9809 17.3975Z" fill="black"/>
<path d="M77.8741 17.8589C77.8614 18.263 77.7988 18.6627 77.7786 19.0661C77.4692 22.0605 77.1247 25.0348 76.781 28.024C76.7251 28.4975 76.5215 28.9419 76.174 29.2722C75.7975 29.6412 75.3046 29.8232 74.7849 29.8716C74.7812 29.7263 74.7782 29.5816 74.776 29.4362C75.0772 29.387 75.3628 29.3348 75.626 29.1715C76.0659 28.909 76.3381 28.4482 76.4074 27.9457C76.7109 25.8341 76.9935 23.7202 77.2977 21.6086C77.4804 20.359 77.6474 19.1018 77.8741 17.8589Z" fill="black"/>
<path d="M36.732 18.1475C36.7961 18.1349 36.861 18.1244 36.9259 18.1162C37.0079 18.3295 37.0236 18.5427 37.0206 18.7694C37.0161 19.0937 37.1347 19.3562 37.1973 19.6679C37.0325 19.5113 36.905 19.3435 36.8618 19.1153C36.8021 18.8014 36.7134 18.4689 36.732 18.1475Z" fill="white"/>
<path d="M55.6045 20.9578C55.9848 21.259 56.3397 21.4767 56.7759 21.6892C56.4903 21.6937 56.1734 21.7377 55.8938 21.6721C55.6597 21.5155 55.638 21.2113 55.6045 20.9578Z" fill="black"/>
<path d="M15.2535 21.0017C15.4899 21.1479 15.6867 21.3454 15.9634 21.4118C16.1699 21.4558 16.3854 21.4632 16.5949 21.4893C16.4689 21.5788 16.3936 21.7033 16.2296 21.6996C15.9954 21.7041 15.7389 21.7279 15.5108 21.6705C15.3072 21.505 15.2901 21.2425 15.2535 21.0017Z" fill="black"/>
<path d="M57.5222 21.4275C57.5282 21.5192 57.5334 21.6117 57.5371 21.7034C57.4551 21.7019 57.3723 21.7011 57.2896 21.6996C57.3671 21.6087 57.4431 21.517 57.5222 21.4275Z" fill="black"/>
<path d="M1.76587 24.0781C2.14092 24.0938 2.51448 24.0878 2.88953 24.0886C25.3574 24.0886 47.8261 24.0886 70.294 24.0886C70.6646 24.0878 71.0337 24.0923 71.4042 24.0811C71.3975 27.8942 71.402 31.7074 71.402 35.5197C71.0322 35.51 70.6631 35.5138 70.294 35.5138C47.8261 35.5138 25.3574 35.5138 2.88953 35.5138C2.51522 35.5138 2.14092 35.5093 1.76587 35.522C1.76587 31.7074 1.76587 27.8927 1.76587 24.0781Z" fill="black"/>
<path d="M72.774 25.6575C73.0857 25.6165 73.3944 25.6598 73.6531 25.8469C74.0968 26.1504 74.2877 26.6663 74.275 27.1913C74.2631 28.6206 74.1922 30.0515 74.0923 31.4771C73.8716 30.1693 73.9298 28.7325 73.8962 27.415C73.8724 26.9952 73.8097 26.465 73.5062 26.1452C73.2952 25.9088 73.0186 25.835 72.774 25.6575Z" fill="black"/>
<path d="M11.9407 25.7275C12.1055 25.7909 12.2501 25.8692 12.4328 25.8684C12.9532 25.8706 13.4729 25.7521 13.9934 25.7558C15.4056 25.8997 16.8335 25.9437 18.2531 25.9646C18.6259 25.9497 18.9928 26.1667 19.2754 26.3918C19.9778 26.963 20.2589 27.9957 19.8838 28.8293C19.6721 29.3028 19.1695 29.3885 18.7497 29.7114C18.9607 29.8709 19.212 30.0454 19.3611 30.2676C19.5416 30.5383 19.3813 31.0192 19.6653 31.2175C19.9524 31.4017 20.3789 31.3376 20.7047 31.4382C20.8255 31.7342 20.8196 32.0974 20.871 32.4128C20.8994 32.8557 21.0067 33.2866 21.0373 33.728C20.8181 33.7564 20.6071 33.7519 20.3879 33.7295C19.7354 33.6662 19.1225 33.8108 18.488 33.5879C18.1525 33.4723 17.8982 33.2419 17.7319 32.9302C17.3271 32.3248 17.5828 31.5389 17.2443 30.8835C17.163 30.7381 17.0594 30.6136 16.8953 30.5621C16.5248 30.4451 16.1318 30.3847 15.7456 30.3466C15.6487 30.6143 15.6009 31.0087 15.7583 31.2585C16.052 31.4136 16.5792 31.1959 16.832 31.4434C16.993 31.6537 16.9356 32.0176 16.9296 32.2674C16.8797 32.6871 16.876 33.1107 16.8044 33.5267C16.4935 33.6005 16.181 33.6147 15.8634 33.6073C14.7934 33.6117 13.725 33.5618 12.6557 33.5506C12.4149 33.5506 12.186 33.5946 11.9466 33.6177C11.9712 32.969 11.9213 32.3233 11.9347 31.6761C11.9362 31.5083 12.0294 31.3696 12.2121 31.3965C12.5185 31.3883 13.0576 31.5195 13.2612 31.225C13.4506 30.9029 13.294 30.3891 13.3119 30.0275C13.3439 29.5593 13.376 29.1096 13.2798 28.6444C13.253 28.5377 13.2209 28.4378 13.1344 28.3633C12.7556 28.3021 12.3672 28.2909 11.9847 28.2529C11.799 27.4864 11.7587 26.6841 11.8236 25.8997C11.8385 25.8356 11.8385 25.6969 11.9407 25.7275Z" fill="white"/>
<path d="M4.90269 25.8029C5.44998 25.8037 5.9928 25.7529 6.53934 25.7552C7.18803 25.7261 7.83449 25.7604 8.48244 25.7574C9.38688 25.7716 10.3226 26.1533 10.8766 26.8878C11.1592 27.2822 11.3911 27.7393 11.3635 28.2381C11.3576 28.7347 11.2248 29.3513 10.8177 29.6787C10.5225 29.9486 10.1817 30.2245 9.80518 30.3691C8.91714 30.6495 8.08576 30.5548 7.19698 30.6607C7.19251 30.8687 7.1254 31.0446 7.33641 31.1774C7.72041 31.3914 8.27441 31.3168 8.70613 31.3847C8.77472 31.6747 8.82692 31.9625 8.81424 32.2623C8.79933 32.6343 8.81871 33.0377 8.71955 33.3986C8.54582 33.4687 8.37283 33.4679 8.18866 33.4702C7.49001 33.4679 6.79136 33.4664 6.09271 33.4694C5.18081 33.5127 4.26518 33.5052 3.35254 33.4888C3.42412 32.7439 3.44201 31.9826 3.59114 31.2489C3.93636 31.2229 4.35615 31.2258 4.66931 31.067C4.7998 30.9969 4.84081 30.9239 4.84826 30.777C4.88182 30.0664 4.80352 29.3282 4.78712 28.6065C4.77668 28.4529 4.78712 28.2717 4.71181 28.1337C4.3472 27.9958 3.89759 28.0756 3.51061 28.0323C3.64184 27.2979 3.52105 26.5299 3.66719 25.791C4.07952 25.7761 4.49036 25.8275 4.90269 25.8029Z" fill="white"/>
<path d="M25.4827 25.7998C25.9383 25.7849 26.3827 25.9981 26.7942 26.1756C27.2312 26.356 27.5913 26.6632 27.8814 27.0323C28.4473 27.7481 28.75 28.6846 28.847 29.5823C28.9327 30.5807 28.5241 31.4703 27.9052 32.2271C27.6368 32.5395 27.3572 32.8929 27.0075 33.1166C26.2559 33.482 25.3768 33.6087 24.5484 33.5341C24.0444 33.4775 23.4352 33.3381 23.0631 32.969C22.4547 32.409 21.9126 31.7767 21.6047 30.999C21.3549 30.3943 21.3288 29.7419 21.4414 29.1029C21.5913 28.3088 21.8403 27.5535 22.4137 26.96C22.8961 26.4373 23.5388 26.1219 24.2368 26.0078C24.6618 25.9176 25.0413 25.7864 25.4827 25.7998Z" fill="white"/>
<path d="M34.369 25.7625C34.8313 25.7818 35.2973 25.8169 35.7604 25.8437C35.7783 25.9041 35.7894 25.9638 35.7939 26.0242C35.8245 26.8518 35.7805 27.6496 35.8819 28.475C35.8886 28.6488 35.9542 28.8128 35.8051 28.9455C35.6373 29.1021 35.3227 29.0298 35.1154 29.0156C34.8843 28.9768 34.6673 29.0223 34.4384 29.0357C34.2363 28.8725 34.158 28.5861 33.9612 28.4079C33.5354 28.0008 32.9434 27.9054 32.3782 27.9978C32.2 28.0403 32.024 28.1104 31.9323 28.2812C31.8906 28.4266 31.8876 28.6092 32.0062 28.7211C32.1732 28.8911 32.4379 28.9821 32.6616 29.0492C33.2513 29.2147 33.8971 29.2758 34.5032 29.3586C34.9879 29.4242 35.4487 29.589 35.8394 29.8872C35.9386 29.9693 36.0333 30.0394 36.0683 30.1698C36.3449 31.1019 36.1503 32.2009 35.4062 32.8683C34.7732 33.4521 33.8553 33.6773 33.012 33.6616C32.7727 33.6512 32.4968 33.684 32.2686 33.6027C31.8854 33.4193 31.5506 33.0673 31.2501 32.7721C31.1778 33.0703 31.1517 33.4178 31.0115 33.6907C30.4955 33.7548 29.9557 33.7175 29.436 33.7093C29.3898 33.5296 29.3644 33.3537 29.3905 33.168C29.4591 32.661 29.4755 32.151 29.5232 31.6417C29.556 31.2137 29.5344 30.7924 29.6037 30.3771C30.069 30.363 30.5268 30.4211 30.9914 30.4398C31.0547 30.439 31.1092 30.4539 31.1532 30.4837C31.3627 30.7872 31.4984 31.2435 31.8719 31.3904C32.1672 31.4672 32.4871 31.4695 32.7898 31.5067C33.0679 31.5522 33.4184 31.506 33.6339 31.3084C33.7487 31.216 33.7494 31.072 33.6734 30.9542C33.5429 30.7604 33.2983 30.6769 33.0821 30.6195C32.3409 30.4286 31.6005 30.2041 30.8929 29.9096C30.5425 29.756 30.1354 29.5756 29.8744 29.2878C29.5299 28.8918 29.4926 28.3669 29.5732 27.8688C29.7685 26.9346 30.497 26.054 31.4499 25.8385C31.9644 25.7401 32.5572 25.9049 33.0552 26.0398C33.5265 26.1315 33.8367 26.5931 34.2371 26.866C34.3243 26.5193 34.1357 26.0376 34.369 25.7625Z" fill="white"/>
<path d="M37.7087 25.805C38.4827 25.8207 39.2469 25.7558 40.0194 25.7513C40.6181 25.7275 41.2146 25.7625 41.8134 25.7573C42.6723 25.7692 43.5395 26.1018 44.1136 26.7549C44.382 27.077 44.6005 27.4737 44.684 27.8861C44.7496 28.3938 44.6698 28.9694 44.4037 29.4131C44.0726 29.8075 43.6148 30.1803 43.1346 30.3742C42.4412 30.5889 41.6307 30.5986 40.9126 30.6143C40.7605 30.6404 40.5585 30.5867 40.5339 30.7903C40.4675 30.9744 40.5943 31.1608 40.768 31.2227C41.155 31.3771 41.6344 31.3249 42.0475 31.3815C42.1422 31.7581 42.1742 32.0996 42.1489 32.488C42.128 32.7878 42.1496 33.1166 42.0587 33.4052C41.8007 33.4931 41.4853 33.4648 41.2139 33.4685C40.3937 33.473 39.5757 33.4499 38.7563 33.4961C38.0688 33.4969 37.3784 33.5103 36.6909 33.4879C36.7193 33.0488 36.7707 32.6118 36.8057 32.1734C36.8415 31.8751 36.849 31.5471 36.9422 31.2622C37.2934 31.1892 37.9525 31.2585 38.1717 30.9133C38.2463 30.0036 38.1359 29.05 38.0994 28.1373C37.6818 28.0113 37.2762 28.0665 36.8505 28.03C36.8736 27.8711 36.9109 27.7116 36.9206 27.5513C36.9153 26.9674 36.9213 26.3732 36.9996 25.7938C37.2389 25.7759 37.4693 25.799 37.7087 25.805Z" fill="white"/>
<path d="M58.4974 25.9371C58.8337 26.0631 59.0768 26.2846 59.3601 26.4933C59.3862 26.2585 59.3915 26.0229 59.4243 25.7887C59.9686 25.7082 60.5434 25.8029 61.0863 25.8693C61.2354 26.3442 61.0892 26.7856 61.1549 27.2718C61.1653 27.8906 61.3249 28.5856 61.1899 29.188C60.9893 29.3506 60.6217 29.3036 60.3772 29.3118C60.0178 29.2961 59.6383 29.3372 59.2856 29.2656C59.1566 29.0054 59.2103 28.7257 59.0142 28.4834C58.5929 27.9205 57.7295 27.8653 57.1598 28.2284C56.5812 28.5841 56.3575 29.2961 56.4254 29.9456C56.4783 30.5421 56.8891 31.1006 57.4498 31.3131C57.7071 31.3832 58.0247 31.4279 58.2902 31.4316C58.6734 31.4242 58.9843 31.146 59.1506 30.8195C59.2766 30.5645 59.2893 30.3072 59.3124 30.0298C59.7837 29.9687 60.2743 29.9702 60.7485 29.9926C60.8864 30.0082 61.1399 30.0209 61.1906 30.1797C61.383 30.5704 61.2786 30.9462 61.169 31.3414C61.0736 31.6396 61.0154 31.9304 60.8111 32.1743C60.5114 32.5448 60.1952 32.9862 59.7941 33.2502C59.4869 33.4523 59.1685 33.4538 58.8158 33.491C58.2119 33.5417 57.6773 33.6804 57.0666 33.5671C56.7519 33.5127 56.5275 33.3345 56.2591 33.1764C55.726 32.8349 55.1794 32.5508 54.7835 32.0415C54.5084 31.6889 54.4435 31.2668 54.3287 30.847C54.2123 30.3661 54.0259 29.9307 54.0326 29.4296C54.0423 29.0076 54.2168 28.5811 54.3689 28.1911C54.5128 27.8422 54.6254 27.4798 54.8357 27.1704C55.0534 26.8378 55.3614 26.638 55.6477 26.3397C55.9631 26.0281 56.4216 25.9781 56.8362 25.8968C57.3775 25.7887 57.9733 25.7201 58.4974 25.9371Z" fill="white"/>
<path d="M68.9698 25.767C69.1398 25.7573 69.3471 25.7304 69.5014 25.8147C69.6334 25.8684 69.6163 25.9526 69.6312 26.0742C69.6625 27.1874 69.6483 28.3036 69.7214 29.4146C69.1659 29.6472 68.465 29.5547 67.8737 29.5361C67.8208 29.2199 67.8297 28.8986 67.7798 28.5839C67.7276 28.3237 67.4592 28.3006 67.24 28.2991C67.1005 28.3148 66.8985 28.308 66.8739 28.4848C66.7404 28.9321 66.7538 29.4175 66.765 29.8791C66.7844 30.3123 66.8038 30.75 66.8485 31.1809C67.3421 31.2346 67.8417 31.2093 68.3345 31.2585C68.4695 31.2659 68.5597 31.4046 68.5537 31.5321C68.553 32.1689 68.6552 32.79 68.6015 33.4275C67.0028 33.4432 65.408 33.5043 63.8086 33.5013C63.5715 33.4886 63.2501 33.6311 63.0563 33.467C62.8967 33.2486 62.8959 32.8989 62.9027 32.6386C62.9459 32.1995 62.9407 31.7603 62.937 31.3196C63.353 31.3077 63.7691 31.3398 64.1844 31.3211C64.3029 31.3129 64.4297 31.251 64.4595 31.1265C64.5304 30.9021 64.5013 30.6359 64.5043 30.4025C64.4871 29.8306 64.5639 29.2595 64.5274 28.6928C64.5177 28.5556 64.4692 28.4385 64.3477 28.3647C64.1643 28.3177 63.9346 28.3327 63.7549 28.3923C63.6811 28.7711 63.6982 29.164 63.6259 29.5458C63.2076 29.6308 62.8109 29.6047 62.383 29.6032C62.2197 29.598 61.9699 29.5719 61.902 29.3937C61.8222 29.0962 61.8357 28.7681 61.8252 28.4616C61.8275 27.7816 61.7894 27.0807 61.8946 26.4067C61.9386 26.2404 61.9415 25.9884 62.1682 25.9824C63.0719 25.9459 63.9048 25.8311 64.7764 25.8967C65.2626 25.9303 65.7845 25.9951 66.2692 25.9452C66.6442 25.9012 67.0058 25.8244 67.3853 25.8139C67.9185 25.8005 68.4374 25.8296 68.9698 25.767Z" fill="white"/>
<path d="M49.8587 25.8676C50.7759 25.9124 51.6915 25.9392 52.6094 25.8982C52.8017 25.8885 52.9934 25.8855 53.1857 25.9056C53.223 26.2539 53.1842 26.5901 53.1559 26.9368C53.0895 27.593 53.0672 28.2521 53.0851 28.9113C53.1104 29.1051 52.9509 29.2229 52.7734 29.2371C52.2895 29.2565 51.8018 29.2468 51.3179 29.2296C51.2941 28.9389 51.2836 28.61 51.1778 28.3364C51.1405 28.2484 51.0667 28.1209 50.9638 28.1067C50.5365 28.0277 50.0727 28.0769 49.6388 28.0777C49.4106 28.0926 49.1176 28.0799 48.9178 28.2052C48.8589 28.4117 48.8745 28.6607 48.9439 28.8628C49.1086 28.9687 49.3443 28.9523 49.515 28.8688C49.6008 28.7211 49.6216 28.5332 49.6701 28.3707C50.0593 28.364 50.4254 28.3237 50.802 28.4512C50.8057 28.9046 50.7915 29.3512 50.8385 29.8038C50.8571 30.1005 50.884 30.445 50.7826 30.7284C50.4083 30.7425 50.0317 30.7284 49.6582 30.6933C49.5955 30.492 49.5717 30.2482 49.4539 30.0715C49.2973 29.9954 49.0781 29.9529 48.9521 30.1072C48.9364 30.3891 48.8581 30.873 49.1109 31.0713C49.6887 31.2369 50.2509 31.1407 50.834 31.081C51.0301 31.049 51.2546 31.0326 51.4328 30.9401C51.5252 30.6538 51.4984 30.3272 51.5722 30.0394C51.6281 29.8776 51.7251 29.7911 51.8973 29.7725C52.3238 29.7262 52.7689 29.6733 53.1969 29.7076C53.2021 30.8081 53.2953 31.9176 53.4064 33.0122C53.402 33.2135 53.5041 33.3753 53.2774 33.4849C53.0254 33.5408 52.7339 33.4029 52.4737 33.4051C52.0009 33.4156 51.5297 33.3925 51.057 33.3731C50.0877 33.3507 49.1183 33.3336 48.149 33.3283C47.2155 33.3261 46.2865 33.3269 45.3582 33.4424C45.3149 32.9667 45.259 32.4925 45.2046 32.0183C45.1896 31.7871 45.1404 31.5031 45.2314 31.2846C45.5461 31.1258 45.9763 31.1541 46.3185 31.0863C46.4632 31.049 46.6429 30.967 46.7122 30.8275C46.7391 30.4286 46.6682 30.0193 46.6406 29.6211C46.6101 29.1521 46.5571 28.6853 46.537 28.2156C46.1418 28.1082 45.7451 28.103 45.338 28.1127C45.2366 27.4305 45.2851 26.7132 45.3708 26.0309C45.9248 25.9959 46.4766 26.0443 47.0306 25.9914C47.6517 25.975 48.2743 25.9511 48.8954 25.9549C49.2242 25.9534 49.5277 25.846 49.8587 25.8676Z" fill="white"/>
<path d="M8.27741 28.2291C8.51974 28.2716 8.82992 28.3558 8.95443 28.5907C9.00887 28.7711 9.04167 29.0209 8.84334 29.1253C8.40118 29.434 7.78753 29.3438 7.28051 29.3192C7.19402 28.9411 7.1284 28.5795 7.2559 28.2C7.59367 28.1798 7.94188 28.1851 8.27741 28.2291Z" fill="black"/>
<path d="M42.0543 28.3619C42.3153 28.4841 42.4972 28.8935 42.2213 29.097C41.7896 29.44 41.132 29.3453 40.6205 29.3178C40.5511 28.9315 40.4505 28.5952 40.6026 28.2105C41.0701 28.1687 41.6189 28.1643 42.0543 28.3619Z" fill="black"/>
<path d="M15.7508 28.2708C16.0744 28.2275 16.4122 28.2477 16.738 28.2574C17.0162 28.2685 17.3107 28.399 17.3838 28.6906C17.4479 28.874 17.2369 28.965 17.1027 29.0276C16.6709 29.173 16.1922 29.1998 15.7456 29.1141C15.6934 28.8874 15.5547 28.4542 15.7508 28.2708Z" fill="black"/>
<path d="M24.7692 28.3498C25.1338 28.2976 25.5849 28.2857 25.9138 28.4766C26.2247 28.6518 26.4275 28.9568 26.5103 29.299C26.6057 29.7009 26.5789 30.1371 26.511 30.5412C26.4804 30.7522 26.3395 30.8954 26.1859 31.0288C25.8161 31.3375 25.2807 31.4322 24.8132 31.3793C24.43 31.3316 24.125 31.0751 23.9513 30.7395C23.7731 30.3846 23.706 29.9686 23.7261 29.5741C23.7403 29.3079 23.8201 29.0537 24.0236 28.871C24.2428 28.6757 24.4896 28.449 24.7692 28.3498Z" fill="black"/>
<path d="M18.7385 37.7635C19.5997 37.762 20.4617 37.7553 21.3229 37.7672C21.3422 38.1974 21.2856 38.6113 20.924 38.8916C20.496 39.2092 19.9375 39.1108 19.5281 38.8148C19.1859 38.5576 18.9466 38.1296 18.7385 37.7635Z" fill="black"/>
<path d="M22.8812 37.765C23.0318 37.7627 23.1817 37.7612 23.3323 37.7605C23.6589 38.1572 23.9922 38.5449 24.3628 38.9013C25.1777 39.7461 26.1336 40.5081 27.2223 40.9659C27.6227 41.1397 28.0357 41.2403 28.4458 41.385C29.1199 41.6139 29.7343 41.8875 30.4396 42.0046C31.1353 42.1299 31.831 42.1202 32.5281 42.2044C33.5712 42.3267 34.63 42.3416 35.6791 42.3573C36.2093 42.3692 36.7312 42.4266 37.2628 42.3998C37.5864 42.3834 37.9085 42.408 38.2321 42.4065C38.8831 42.4005 39.5191 42.3319 40.1618 42.2395C41.2296 42.0665 42.307 41.9136 43.3419 41.6266C44.2881 41.3738 45.2075 41.0129 46.0731 40.5529C46.6928 40.2307 47.2468 39.7319 47.8104 39.3069C48.3719 38.873 48.6985 38.3205 49.1198 37.7627C49.2816 37.762 49.4426 37.762 49.6044 37.7635C48.7186 39.0512 47.4958 40.0883 46.1268 40.8332C44.0182 41.977 41.6247 42.4699 39.2529 42.6607C37.995 42.7554 36.7334 42.7569 35.4733 42.7174C34.6546 42.6458 33.8337 42.6831 33.015 42.6168C31.0764 42.5019 29.1758 42.2663 27.3826 41.473C25.564 40.6759 24.0735 39.333 22.8812 37.765Z" fill="black"/>
<path d="M24.6223 37.7627C24.8072 37.762 24.9959 37.7508 25.18 37.7709C25.2993 37.8045 25.3993 37.9178 25.4902 37.9976C26.2038 38.6761 27.0404 39.204 27.8822 39.7066C28.5853 40.1241 29.3362 40.3858 30.1235 40.5961C31.2323 40.8899 32.3776 41.0778 33.5176 41.1993C34.1357 41.2783 34.777 41.2679 35.3988 41.2552C35.8723 41.2507 36.3428 41.297 36.8155 41.2947C37.9451 41.2977 39.0397 41.1799 40.1634 41.1076C40.8501 41.0614 41.5107 40.9204 42.1773 40.7549C43.0855 40.5208 43.9884 40.1934 44.8086 39.7349C45.6504 39.2599 46.2678 38.5933 46.9284 37.9036C47.1022 37.6792 47.4086 37.7828 47.6554 37.7612C46.8882 38.6925 45.9502 39.5164 44.9175 40.1427C43.8691 40.7713 42.7171 41.0971 41.5197 41.2962C40.9627 41.3864 40.4422 41.5691 39.8756 41.5982C38.9405 41.6221 38.0465 41.725 37.1138 41.6571C36.389 41.6094 35.6777 41.7339 34.9515 41.6854C34.3311 41.6385 33.71 41.6385 33.0889 41.6079C31.8183 41.5289 30.647 41.1262 29.4316 40.7698C28.4205 40.4663 27.4795 40.0078 26.6042 39.418C25.8839 38.9229 25.1771 38.4472 24.6223 37.7627Z" fill="black"/>
<path d="M26.458 37.7648C33.0195 37.7603 39.5847 37.7558 46.1455 37.767C45.2724 38.6834 44.1905 39.2814 43.025 39.7467C42.1295 40.1143 41.2057 40.32 40.2603 40.5415C39.6832 40.675 39.115 40.6407 38.5312 40.7018C37.5126 40.7637 36.4941 40.8099 35.4734 40.7831C34.7933 40.8017 34.1178 40.751 33.443 40.669C32.5155 40.5803 31.6021 40.4408 30.7096 40.1642C29.4077 39.775 28.211 39.1628 27.0761 38.4239C26.8152 38.2539 26.6317 38.0191 26.458 37.7648Z" fill="black"/>
<path d="M51.0181 37.7874C51.1725 37.7531 51.3425 37.7605 51.5005 37.759C52.1977 37.765 52.8956 37.7568 53.5935 37.7643C53.3132 38.2131 53.0112 38.794 52.4952 39.002C52.0105 39.2145 51.4275 39.0311 51.1508 38.5822C50.9898 38.3391 50.9838 38.0677 51.0181 37.7874Z" fill="black"/>
<path d="M46.6525 43.5242C46.8479 43.6286 46.9045 43.8232 46.9918 44.0103C47.2073 44.5151 47.545 45.0214 47.6867 45.5515C47.6986 45.641 47.7702 45.8281 47.6666 45.8789C47.5383 46.0571 47.3579 45.8617 47.2677 45.7446C46.9627 45.2883 46.8494 44.6523 46.6145 44.1661C46.5437 44.0483 46.5004 43.9134 46.3401 43.9141C46.0471 43.9044 45.7451 44.0051 45.4558 44.0528C43.6469 44.3928 41.8112 44.6076 39.974 44.709C36.5694 45.0326 33.1187 44.9752 29.7276 44.5285C28.7851 44.4018 27.8389 44.3265 26.8927 44.2333C26.71 44.2124 26.5326 44.24 26.3805 44.3488C26.1277 44.5285 25.9674 44.8603 25.816 45.125C25.6483 45.4352 25.4313 45.6969 25.2016 45.9616C25.1166 45.9281 25.0324 45.8945 24.9481 45.8602C25.0376 45.3644 25.3336 45.0244 25.6043 44.6158C25.7832 44.357 25.9659 44.0625 26.2641 43.929C26.5706 43.7829 26.9449 43.9097 27.2789 43.9186C27.9157 43.9484 28.5495 43.9693 29.187 44.0483C32.2642 44.5099 35.4301 44.5718 38.5334 44.3854C41.0462 44.2303 43.5433 43.9887 46.024 43.548C46.223 43.5152 46.4639 43.4168 46.6525 43.5242Z" fill="black"/>
<path d="M45.833 44.794C46.0343 44.7925 46.2811 44.8984 46.3065 45.122C46.3408 45.4762 46.3512 45.8311 46.4139 46.1823C46.5384 46.8877 46.812 47.5968 47.0588 48.2686C47.2162 48.7003 47.3847 49.126 47.5591 49.5511C47.6203 49.7263 47.7038 49.8791 47.6277 50.0663C47.4786 50.451 47.0767 50.671 46.7129 50.8149C46.0291 51.0773 45.2805 51.2041 44.5602 51.3286C41.9975 51.7738 39.4825 51.8319 36.89 51.8573C34.1185 51.9736 31.397 51.8498 28.6926 51.1877C27.8023 50.9797 26.8666 50.7523 26.0456 50.3414C25.6974 50.1625 25.2963 49.903 25.1576 49.5175C25.0756 49.2453 25.1904 49.0395 25.3291 48.8151C25.9837 47.8055 26.2231 46.4701 26.6354 45.3405C26.7323 45.0713 26.9903 44.9177 27.2685 44.9051C27.8381 44.8708 28.3436 45.1966 28.8842 45.3353C30.4858 45.7767 32.168 45.9788 33.824 46.0615C35.4114 46.1503 36.9936 46.0995 38.5781 45.987C40.5875 45.8252 42.5761 45.5381 44.5326 45.0445C44.9562 44.9476 45.3968 44.8037 45.833 44.794Z" fill="black"/>
<path d="M29.9789 46.3328C30.166 46.7548 30.04 47.1851 29.9453 47.6108C29.6769 47.5571 29.4107 47.4938 29.146 47.4259C29.1915 47.1992 29.2661 46.9673 29.2735 46.7369C29.2832 46.4752 28.9551 46.2456 28.7195 46.3716C28.4973 46.4514 28.4384 46.7325 28.3676 46.9308C28.1864 47.5497 28.0201 48.1723 27.8449 48.7926C27.7845 49.0417 27.6988 49.3026 27.695 49.5599C27.7278 49.9446 28.3087 50.0915 28.5152 49.7642C28.6651 49.4794 28.7188 49.1371 28.8097 48.8292C28.6427 48.7859 28.4757 48.7434 28.3087 48.6994C28.3624 48.4981 28.4146 48.2968 28.4623 48.0932C28.8985 48.2014 29.3369 48.3035 29.7731 48.4109C29.5874 49.2288 29.4159 50.0505 29.2325 50.8692C29.0893 50.8379 28.9454 50.8066 28.8023 50.776C28.7777 50.6478 28.7523 50.5195 28.727 50.3905C28.5234 50.5016 28.3348 50.6269 28.0932 50.6276C27.6085 50.6313 27.0493 50.3778 26.8778 49.8939C26.7712 49.5062 26.8584 49.0447 26.9777 48.6666C27.1723 48.0396 27.3632 47.4117 27.5586 46.7854C27.6652 46.47 27.7912 46.092 28.0678 45.8847C28.6479 45.3963 29.6806 45.6282 29.9789 46.3328Z" fill="white"/>
<path d="M44.7496 45.9534C45.0263 46.2285 45.1016 46.6147 45.2209 46.9726C44.9562 47.0539 44.6907 47.1329 44.4223 47.203C44.3448 46.9592 44.2985 46.6244 44.1144 46.4373C43.8952 46.23 43.4903 46.3732 43.4664 46.6721C43.4418 46.9577 43.532 47.2724 43.5999 47.549C43.7468 48.1231 43.878 48.7017 44.0309 49.2751C44.0846 49.4533 44.1353 49.6584 44.2471 49.809C44.473 50.0789 45.0061 49.9164 45.0285 49.557C45.0173 49.2349 44.9025 48.9075 44.822 48.5959C44.6564 48.6369 44.4917 48.6809 44.3261 48.7234C44.2702 48.522 44.218 48.3192 44.1621 48.1179C44.5961 47.9964 45.0293 47.8719 45.4632 47.7496C45.6996 48.5563 45.9613 49.3564 46.1969 50.1639C46.0523 50.2049 45.9076 50.2474 45.763 50.2892C45.6832 50.1878 45.6026 50.0864 45.5221 49.985C45.3834 50.2086 45.2783 50.4197 45.03 50.5419C44.643 50.7321 44.1218 50.7873 43.7513 50.5322C43.4001 50.2832 43.283 49.8634 43.1816 49.4675C43.0355 48.8181 42.8975 48.1664 42.7544 47.5162C42.6746 47.0972 42.5784 46.6863 42.7812 46.2844C43.119 45.5783 44.2046 45.3852 44.7496 45.9534Z" fill="white"/>
<path d="M41.7977 46.1523C42.1206 47.7733 42.4211 49.3988 42.7506 51.019C42.4844 51.0742 42.2175 51.1361 41.9476 51.1674C41.8551 51.0772 41.7828 50.9601 41.7142 50.8513C41.2154 50.0378 40.73 49.2161 40.2804 48.3743C40.4004 49.3705 40.5354 50.3659 40.6629 51.362C40.3877 51.3956 40.1126 51.4299 39.8375 51.4627C39.6511 49.8186 39.4885 48.1715 39.3163 46.5259C39.5735 46.4886 39.8308 46.4573 40.0895 46.4297C40.5436 47.3476 41.0476 48.2438 41.5666 49.1266C41.4189 48.1752 41.2497 47.2268 41.0909 46.2769C41.3265 46.2336 41.5606 46.1874 41.7977 46.1523Z" fill="white"/>
<path d="M31.6699 46.2949C31.9995 46.3188 32.3246 46.3911 32.6526 46.4284C32.6668 47.5468 32.7801 48.6556 32.8495 49.7703C32.9002 50.3377 32.9695 50.9036 33.0023 51.4725C32.6981 51.4427 32.3947 51.4047 32.0912 51.3659C32.077 50.9983 32.0614 50.6307 32.045 50.2639C31.7452 50.2132 31.4432 50.1759 31.1435 50.1267C31.0197 50.4742 30.8937 50.8209 30.7692 51.1676C30.5664 51.134 30.3636 51.0997 30.1608 51.0647C30.0989 51.0408 29.9259 51.0483 29.9125 50.9663C29.9416 50.7918 30.0445 50.624 30.1056 50.4577C30.5738 49.2946 31.0145 48.1195 31.4298 46.9362C31.5074 46.7229 31.5655 46.4962 31.6699 46.2949Z" fill="white"/>
<path d="M34.0149 46.5969C34.3527 46.5827 34.6949 46.6297 35.0327 46.6438C35.1803 47.6266 35.36 48.6265 35.5651 49.5995C35.7686 48.8807 35.9036 48.1418 36.0624 47.4118C36.1213 47.177 36.128 46.8951 36.2428 46.6826C36.5732 46.6707 36.9042 46.6752 37.2345 46.6632C37.2927 48.3058 37.3441 49.979 37.3904 51.6231C37.1115 51.6343 36.8319 51.6336 36.5523 51.6328C36.553 50.5375 36.5493 49.4407 36.5262 48.3461C36.2727 49.4466 36.0177 50.5464 35.7194 51.6358C35.583 51.6313 35.4465 51.6269 35.3101 51.6201C35.0603 50.5107 34.8269 49.3967 34.6412 48.2745C34.5458 49.3713 34.4944 50.4756 34.4392 51.5754C34.164 51.5657 33.8889 51.5471 33.6138 51.5269C33.6928 50.149 33.8322 48.7734 33.9404 47.3977C33.9568 47.1345 33.962 46.8556 34.0149 46.5969Z" fill="white"/>
<path d="M38.6557 46.5879C38.7243 47.1553 38.7377 47.728 38.8003 48.2969C38.8786 49.375 38.9905 50.4525 39.0456 51.5321C38.7459 51.553 38.4469 51.5754 38.1464 51.5739C38.1248 50.4308 38.0294 49.2885 37.9749 48.147C37.966 47.64 37.9183 47.1359 37.8951 46.6304C38.1487 46.6147 38.4022 46.5991 38.6557 46.5879Z" fill="white"/>
<path d="M31.9391 47.6689C31.9972 48.293 31.9786 48.9156 32.0047 49.5412C31.8205 49.5166 31.6319 49.498 31.4499 49.4562C31.3657 49.4324 31.4231 49.3108 31.4343 49.2541C31.6125 48.7292 31.781 48.2013 31.9391 47.6689Z" fill="black"/>
</svg>
