<svg width="80" height="80" fill="none" xmlns="http://www.w3.org/2000/svg"><path fill-rule="evenodd" clip-rule="evenodd" d="M52.726 24.87c.087 1.338.856 2.885 2.58 2.032 2.538-1.254 1.608-3.431 1.604-4.118-.579.09-1.572.096-2.092.322-.71.307-1.552.976-2.092 1.764Zm-29.942-1.13c.04 1.226-.058 2.593 1.863 3.22 1.14.37 2.536-1.17 2.614-2.256-.76-.964-1.528-1.377-2.239-1.643-1.79-.674-2.213-.801-2.24.68h.002Zm10.733 12.265s-1.303.771-1.303 1.843c0 1.488.39 1.77.682 2.044.616.573 3.311.713 3.761.72 3.874.07 5.444.009 9.313-.133.828-.032 1.391-.298 1.964-.961.346-.402.43-1.194-.011-2.037-.23-.44-.48-1.127-.95-1.475-.265.454.095 1.88-2.068 2.672-.922.337-3.423.544-4.443.54-4.732-.018-6.995-.665-6.945-3.213Zm-3.482-2.698c-2.156-.018-2.715 1.308-3.198 2.658-.642 1.797 1.435 3.643-1.814 4.61 1.293 1.086 2.895 3.804 4.95 5.53-3.542.759-4.989-2.043-7.37-3.316.706 4.114 4.519 4.641 6.773 6.727l-.187.335-6.908-1.723c1.902 3.62 5.668 1.834 7.984 3.744-2.222 1.426-4.27.647-6.303.427-.432-.046-.902.276-1.354.428.281.42.47.98.86 1.232.964.622 1.97 1.273 3.053 1.59.934.273 2.078.362 2.987.08 2.906-.905 5.764-1.981 8.6-3.091.49-.191 1.026-.824 1.125-1.334.178-.916-.035-1.901.053-2.845.128-1.4-.52-2.228-1.777-2.586-2.755-.788-4.986-2.33-6.662-4.563-.666-.888-1.283-2.506-1.305-3.617-.027-1.383.306-2.783.493-4.286Zm26.401 7.645c-2.738-.793-2.8-2.593-2.928-4.39-.033-.46-.155-1.03-.455-1.331-.717-.721-1.566-1.314-2.36-1.958-.089.868-.261 1.736-.244 2.601.02.946.308 1.89.298 2.83-.005.519-.301 1.278-.629 1.679-1.94 2.378-4.154 4.394-7.143 5.454-.656.232-1.493.991-1.575 1.598-.153 1.157-.127 2.34-.099 3.415a1.926 1.926 0 0 0 1.238 1.745c2.929 1.119 5.644 2.176 8.39 3.146.682.242 1.6.319 2.248.062 1.251-.495 2.426-1.223 3.55-1.976.435-.292.648-.917.963-1.389-.469-.184-.867-.056-1.352-.146-1.361-.253-3.258-.153-4.16-1.038 1.962-.755 4.323-.27 5.667-3.106l-6.723 1.663-.206-.38c2.098-2.06 6.104-2.377 6.274-6.467-2.127 1.39-3.595 3.912-7.04 3.084l6.286-5.096Zm-6.094 26.481c-.553-2.53.005-3.102 2.239-2.305.829.295 1.475 1.104 2.206 1.676.384.3.774.596 1.551 1.194-2.531-8.223-8.965-10.812-18.66-10.278-7.862.434-12.979 5.065-13.333 10.159.829-.636 1.362-1.652 2.203-2.183.835-.529 2.158-1.281 2.988-.712.56.385.03 2.14.304 3.16 4.816 2.866 10.502 2.587 10.366-.713.01 2.523 1.575 2.48 2.914 2.5 2.79.043 5.44-.833 7.222-2.498ZM25.782 4.257c-2.096 1.233-5.614 2.323-7.519 2.05-1.948-.278-4.205-.364-6.093-.917-.584-.17-1.235-.118-1.935.284 1.325.695 5.967 2.695 5.917 2.813-.521-.18-3.132-.739-3.87-.993L13.55 12.7l.518-.176c-.314 1.843-.788 3.675-.902 5.529-.14 2.26.613 4.171 2.502 5.726 2.066 1.698 3.667 4.002 5.827 5.535 2.134 1.512 4.727 2.327 8.122 1.67-.836-.825-1.264-1.475-1.868-1.796-1.074-.57-2.23-1.018-3.395-1.383-4.555-1.426-6.979-5.007-8.926-8.964-.514-1.043-.332-2.43-.47-3.657l.637-.182c.39.798.792 1.591 1.165 2.398.62 1.34 1.432 1.935 3.128 1.947 3.779.026 7.419.66 9.487 4.575 1.053 1.994 2.32 3.938 4.507 4.854.173-.106-.141-2.253-.515-3.345 1.757-.715 1.062-1.732.126-2.74-1.275-1.374-2.568-2.73-3.919-4.164 1.363-.39 3.067-1.415 3.032-1.676h-7.388l-.018-.22c2.15-.39 6.443-1.918 6.44-2.293-3.43-2.103-7.502-.738-11.206-1.36l-.028-.512c2.366-.608 4.737-1.197 7.095-1.83 2.3-.618 6.782-2.451 6.734-2.713h-9.7c3.05-1.375 5.744-3.355 9.273-3.286 3.672.074 7.36.232 11.015-.041 4.09-.306 7.311 1.635 10.872 3.321h-9.733c-.048.263 4.56 2.124 6.921 2.76 2.303.62 4.62 1.198 6.89 2.033-3.712.932-7.734-.532-11.49 1.87 2.02 2.285 4.695 1.185 7.14 2.192H47.59c-.05.254 1.66 1.355 3.004 1.792-1.368 1.459-2.691 2.9-4.049 4.306-1.025 1.06-1.095 1.94.314 2.537-.382 1.046-.736 3.287-.558 3.437.841-.666 1.786-1.238 2.496-2.024.815-.9 1.556-1.921 2.093-3.006 1.867-3.76 5.43-4.437 8.935-4.479 2.24-.026 3.247-.727 3.88-2.625.201-.606.59-1.151 1.007-1.936.905 2.234.177 3.793-.688 5.562-2.285 4.68-6.205 7.01-10.898 8.525-.837.27-1.51 1.047-2.258 1.591 0 0 2.248.847 3.171.648 4-.86 7.385-2.723 9.624-6.308.228-.363.68-.89.992-1.187 2.274-2.163 3.079-5.666 2.093-8.66-.272-.829-1.904-2.079.383-2.624.061-.015.095-.232.106-.358.128-1.368.247-2.737.396-4.411-1.091.583-2.264.802-3.531 1.479 1.49-1.43 3.602-2.726 6.061-3.195.02-.188-2.54-.875-3.812-.753-2.288.22-4.552.88-6.832.918-1.572.026-4.392-1.726-4.301-1.713 6.944 1.058 13.288-.95 19.453-3.829 2.565-1.198 5.092.255 5.017 3.093-.097 3.734-.772 7.315-3.839 9.951-.539.463-1.145 2.046-1.145 2.046l2.701-1.39c.346 3.422-2.341 4.057-4.782 5.048-.44-.95-.772-1.985-1.37-2.834-.32-.454-1.097-.588-1.666-.867-.268.563-.737 1.119-.758 1.69-.044 1.216.095 2.447.247 3.661.403 3.213-.795 5.703-3.306 7.648-.306.238-.534.574-.802.868 1.145.95 1.145.95 3.49-.107-.467 1.154-.63 2.758-1.486 3.338-.935.635-2.514.323-3.812.422.148 1.545.148 1.545 4.354 2.587-.191.71-.382 1.412-.578 2.13-.397 1.464-2.118 2.114-3.37 1.259-2.45-1.673-4.855-2.905-8.073-1.894l8.017 4.56c-1.048 1.483-.836 2.335.717 3.13 1.498.767 1.779 5.075.443 6.324-1.404 1.314-1.746 9.792-1.528 9.87.496-.883 1.168-3.243 1.53-4.351.853-2.594 1.441-3.872 2.844-5.527 1.015-1.198 3.082-5.133.324-6.998 0 0 .507-1.045 1.215-2.864 1.106-2.836 1.97-3.814 3.42-6.514.115-.218 1.736-2.567 1.903-2.757 0 0-3.82 11.77-3.87 12.393.718-.181 3.669-1.5 3.969-1.346-.968 3.285-1.748 6.643-2.974 9.829-1.227 3.189-2.913 6.199-4.398 9.288.264.226 2.824-.861 3.647-1.802 4.302-4.917 5.956-10.906 6.492-17.245.21-2.494.034-5.023.457-7.634.618 2.36 1.574 4.692 1.775 7.087.288 3.438 1.032 5.23-.024 10.384-.007.446-.217.937-.465 1.324-3.144 4.917-6.313 9.82-9.49 14.748l-.563-2.436-.537-.08c-.32.572-.68 1.123-.952 1.719-1.099 2.419-3.595 7.126-3.767 7.05 0-2.34.021-4.679-.01-7.018-.014-1.091.011-2.424-1.51-2.42-1.48.002-1.528 1.286-1.546 2.406-.018 1.274-.003 2.547-.003 4.12-1.868-1.044-3.312-2.006-4.878-2.689-1.722-.75-3.355-1.029-4.974.716-1.426 1.535-3.385 2.211-5.704 2.081-3.16-.174-6.377-.139-9.507.277-2.675.355-4.575-.898-6.18-2.442-1.482-1.424-2.887-1.436-4.433-.802-1.68.688-3.238 1.668-5.143 2.676-.08-1.323-.008-2.718-.297-4.034-.185-.845-.816-2.151-1.397-2.237-1.448-.214-1.598 1.12-1.607 2.257-.018 2.437-.005 4.875-.282 7.546l-4.432-9.094-.524.054-.66 2.604-5.906-9.98c-.104-.176-.234-.338-.324-.521-1.138-2.35-3.37-5.055-3.8-6.844-1.315-5.467-.235-11.143 2.386-16.422v3.671c-.001 1.294-.095 2.595.004 3.88.483 6.296 2.177 12.185 6.312 17.108.876 1.045 2.248 1.674 3.708 2.226-3.296-6.3-6.151-12.602-6.957-19.185l3.262 1.15c-.331-1.15-.533-2.36-1.022-3.438-.771-1.697-1.426-5.792-2.523-9.47 1.485 3 3.08 6.1 4.591 8.383 1.258 1.901 3.006 4.594 2.764 4.798-1.234 1.092-2.452 3.947-.706 6.632 1.157 1.783 2.311 3.312 3.126 5.37.753 1.906.985 1.854 1.667 4.987.25-1.042.403-3.22.39-3.618-.023-.744-.45-5.404-1.88-6.702-1.751-1.589-1.1-5.695.764-7.222.567-.465.292-2.393.292-2.393l7.866-4.518c-1.68-1.287-3.892-.54-8.032 2.084-1.28.81-2.987.026-3.33-1.45l-.537-2.301c.672-.1 1.698-.08 2.581-.429.805-.32 1.453-1.035 2.428-1.77-2.032-.367-3.649-.31-4.83-1-.711-.415-.746-1.991-1.098-3.09l3.183.974.301-.614c-.942-1.097-2.043-2.097-2.796-3.312-1.614-2.6-1.883-5.45-1.27-8.451.143-.694-.339-1.513-.532-2.274-.733.48-1.61.836-2.152 1.476-.485.572-.6 1.456-.906 2.276-2.29-1.15-5.215-1.52-4.792-5.051L5.5 15.575s-.593-1.572-1.128-2.034C1.252 10.851.567 7.214.526 3.398.496.69 3.07-.82 5.466.464c4.576 2.448 9.594 3.391 14.605 4.261 1.66.29 3.466-.254 5.71-.467" fill="#C63539"/></svg>