<svg width="77" height="80" viewBox="0 0 77 80" fill="none" xmlns="http://www.w3.org/2000/svg">
<path d="M31.758 0.636353C31.758 0.636353 29.0141 15.5286 17.0194 26.3392C10.9395 31.8099 -2.22213 40.8558 0.322535 55.3723C2.43454 67.4068 24.363 81.9803 37.5703 56.8695C37.5703 56.8695 46.4795 74.9668 60.2901 69.4961L31.758 0.636353Z" fill="white"/>
<mask id="mask0_2774_3211" style="mask-type:alpha" maskUnits="userSpaceOnUse" x="38" y="0" width="39" height="70">
<path d="M38.4607 14.5714L44.4875 0C46.7 7.0189 48.3751 12.4481 52.9557 18.4624C62.9497 31.5841 72.0281 36.3141 75.156 44.6297C75.156 44.6297 78.3601 52.7926 73.7828 59.5823C70.4172 64.5746 61.729 69.1948 61.729 69.1948L38.4607 14.5714Z" fill="#D9D9D9"/>
</mask>
<g mask="url(#mask0_2774_3211)">
<path d="M34.7959 71.8764H35.035L35.1831 71.364L39.2364 70.328L39.5153 70.4873L37.648 71.8764H37.9954L39.7031 70.5954L40.3123 70.937V71.8764H40.5172L40.5514 71.0566L42.0144 71.8764H42.7943L46.0677 69.8498L46.7793 70.1856L44.3029 71.8934H44.6729L47.0013 70.3052L49.4378 71.4437L49.4036 71.8764H49.6142L49.6427 71.5405L50.3657 71.8764H50.8553L49.6598 71.3071L49.916 68.3241L50.5138 68.2614L50.9065 71.8707H51.3562L55.3868 69.1837L57.0262 69.8782L56.3545 71.8707H57.3393L59.0016 71.3982L58.1477 71.8707H58.5804L59.8897 71.142H59.958H60.032V71.6202L59.7303 71.8593H60.6525L61.0169 71.6543L61.0624 71.8593H61.2787L61.2389 71.6942L61.5577 71.8593H62.0017L61.2901 71.4835L68.554 66.5422L69.3169 68.8194L65.6508 71.8821H65.9752L69.3909 69.0357L70.3587 71.8821H70.5807L69.5617 68.8877L70.9678 67.7092L71.537 67.9939L71.7648 71.8821H71.9754L71.7534 68.1078L77.1445 70.8175L78.7726 71.8821H79.154L78.801 71.6543L79.2622 71.8821H79.6721L80.5146 70.5671L80.822 71.8991H81.0383L80.674 70.3222L83.3838 66.0925L84.1579 68.1191L82.0003 71.8991H82.2394L84.249 68.3697L85.5925 71.8991H85.8146L84.3857 68.1362L84.6361 67.6979L85.5014 68.8706L86.2586 71.8991H86.4692L85.8259 69.3089L87.7387 71.8991H88.2624L83.4122 59.7735L83.3154 59.8134L83.4065 59.7622L78.6701 50.9213V50.8587H78.6075H78.6872L78.7327 45.775H78.6303H78.727L76.9509 40.5946L76.8541 40.6288L76.9395 40.5718L73.262 35.01L73.1709 35.067L73.2506 34.9987L68.6964 30.0117L68.6223 30.0858L68.6907 30.0061L62.1724 24.097L62.0985 24.1767L62.1668 24.097L60.237 22.5713L59.9922 22.2355L59.9067 22.2981L59.9865 22.2355L54.6751 15.5066L54.5954 15.5692L54.6751 15.5066L47.1322 6.068L47.0468 6.13632L47.1265 6.068L41.337 -0.666543L39.9422 -2.44268H39.6747L39.7829 -2.30606L39.6576 -2.44268H39.2648L39.4071 -2.28898L38.8378 -2.44268H38.0124L39.6804 -2.00434L40.9384 -0.0972633L40.5172 1.04129L38.8948 -0.535611L37.7563 -2.44838H37.5114L38.3084 -1.08211L36.908 -2.44838H36.6063L38.7069 -0.398983L39.8455 1.53656L37.6936 -0.256658L36.5551 -2.44838H36.316L37.3122 -0.621L35.1034 -2.46545H34.7732L37.557 -0.142806L38.946 2.56695L38.798 2.64665L33.7884 -1.85633V-1.57169L38.5931 2.74911L38.0237 3.06791L34.6935 2.49863L33.8112 0.175993V1.20638L34.2779 2.15707L33.8112 1.7415V2.02045L34.3462 2.49863H33.8112V2.74911H34.5455L34.9041 3.69412L33.8054 2.88574V3.14762L35.0407 4.05845L35.1432 4.32032L33.8054 3.3867V3.64288L35.1432 4.58219L34.0559 5.0433L33.8054 4.60495V5.02622L33.8624 5.123L33.8225 5.08884V5.39056L34.3177 5.89721L34.9611 7.03576L33.8225 5.89721V6.16478L35.3368 7.71323L35.2856 8.53864L33.8225 6.26155V6.64866L34.1356 7.12683L33.8225 6.73975V7.07558L35.2856 8.90872L38.001 13.0245L38.6329 14.9772L33.8225 12.0283V12.2731L38.5987 15.2049L33.8225 17.4535V17.6869L38.7468 15.3642L41.7013 26.7498L33.7827 22.4518V22.6738L41.6102 26.9604L33.7827 31.3097V31.5488L41.7525 27.1426L44.189 40.1449L33.7827 34.9474V35.1979L44.0922 40.3214L33.7827 45.3367V45.5701L44.2403 40.4808L44.4281 42.2342L44.1264 44.5112L41.4281 51.5646L33.7827 47.9781V48.2115L41.3483 51.7581V51.8207L38.7809 56.6311L37.5513 58.7432L33.8054 61.0829V61.3276L37.3122 59.1075L34.6764 63.6617L34.1698 64.288L33.7884 64.1172V64.3448L34.0275 64.453L33.7884 64.749V65.2215L33.8852 65.1077L33.7884 65.2955V65.7453L34.3577 64.6067H34.4032L34.5796 65.0849L33.8395 66.7301L33.7656 66.7813V67.5669L34.0047 66.8895L35.1432 66.5935L35.7695 68.3013L33.777 69.8383V70.1002L35.7068 68.6144L35.5645 69.1153L33.777 70.5499V70.8175L35.4848 69.4626L35.0009 71.1704L33.794 71.4778V71.6942L34.9326 71.4039L34.7959 71.8764ZM83.4236 62.916L84.7557 66.2918L83.4577 65.0678L83.4236 62.916ZM84.2434 67.8573L83.731 66.5137L84.454 67.4873L84.2434 67.8573ZM84.5678 67.288L83.4691 65.8022V65.3695L84.9037 66.7245L84.5678 67.288ZM84.7044 67.4759L84.9891 66.9749L85.3249 68.3127L84.7044 67.4759ZM85.7007 68.7852L85.3648 67.4417L87.5395 71.2729L85.7007 68.7852ZM87.8127 71.3355L85.1314 66.6504L83.7708 61.3163L87.8127 71.3355ZM84.5621 65.1191L83.4236 62.3239V60.6844L84.5621 65.1191ZM39.6974 70.345L39.5323 70.2539L39.9764 70.1401L39.6974 70.345ZM40.3351 70.7037L39.8967 70.4588L40.3521 70.123L40.3351 70.7037ZM40.3692 69.8213L39.2648 70.1059L36.5892 68.603L38.9973 66.6732L40.5969 67.3905L40.3692 69.8213ZM36.1167 68.3355L38.5475 66.4682L38.7809 66.5764L36.39 68.4892L36.1167 68.3355ZM36.2135 68.6315L35.8776 68.9047L35.9914 68.5063L36.2135 68.6315ZM35.0749 64.6465L35.8663 62.8932L36.6859 61.9823L38.0579 61.3846L37.3122 63.5592L35.758 64.9938L35.0749 64.6465ZM35.6442 65.1304L35.0749 65.6541L34.87 65.0849L34.9839 64.8344L35.6442 65.1304ZM36.1509 62.284V62.2214H36.1964L36.1509 62.284ZM39.2762 14.4648L39.4128 14.4193L39.5893 14.7039L39.2762 14.4648ZM39.4982 15.5578L39.0371 15.2618L39.2819 15.1309L39.4982 15.5578ZM39.0997 14.3055L38.5304 13.2693L39.2648 14.2428L39.0997 14.3055ZM35.684 7.79859H36.1395L36.3558 8.02635L36.5608 8.65819L35.684 7.79859ZM36.5323 8.93711L36.1794 8.89729L35.8378 8.25973L36.5323 8.93711ZM39.1396 7.09835L39.6234 7.55377L35.6385 4.70743L35.6044 4.5708L35.6897 4.52526L39.1396 7.09835ZM35.9061 4.44556L36.1907 4.29755L37.8986 5.92568L35.9061 4.44556ZM39.3217 7.61074H36.982L35.8435 5.09454L39.3217 7.61074ZM36.7486 7.61074H36.4185L35.6385 5.18562L36.7486 7.61074ZM36.5266 7.93519L36.4868 7.82135H36.8454L37.2324 8.66962L36.5266 7.93519ZM37.3122 9.01112L36.8738 8.95997L36.6803 8.39061L37.3122 9.01112ZM37.5228 9.25022L37.7676 9.81957L37.1129 9.18192L37.5228 9.25022ZM37.6651 9.05675L37.0958 7.79287H39.5893L40.1073 8.16866L40.4034 9.47226L37.6651 9.05675ZM44.8152 6.21032L46.7963 10.0415L46.6427 10.2066L42.5894 6.28432L41.4508 4.10969L42.8968 4.51388L44.8152 6.21032ZM43.3693 4.64481L44.1094 4.84975L44.5419 5.68659L43.3693 4.64481ZM46.8931 7.78153L44.9803 6.0737L44.616 5.36779L46.8931 7.78153ZM44.6559 5.10592L45.4528 5.49873L46.7451 7.32039L44.6559 5.10592ZM61.1649 25.19L60.7948 25.6454L59.8043 24.5069L60.3451 24.467L61.1649 25.19ZM60.6525 24.3816H60.6923L60.7721 24.4897L60.6525 24.3816ZM73.7459 42.2797V42.348L73.484 42.5074L72.3455 40.7996L73.7459 42.2797ZM72.6984 40.6686V40.6971V40.6686ZM74.7421 60.6503L75.744 58.652L78.0837 60.2688L76.6321 61.7546L74.7421 60.6503ZM76.45 61.9083L75.6074 62.7736L74.8048 60.9462L76.45 61.9083ZM60.755 70.8687L60.4874 71.1363L60.2141 71.0225L60.755 70.8687ZM60.6355 70.6866L60.7208 70.6354L60.6355 70.6866ZM60.5557 69.252L64.5976 66.4625L62.1156 69.5879L61.9106 69.7358L60.8518 70.3052L60.5557 69.252ZM62.2636 69.7416L63.7665 68.6771L62.0928 69.9579L62.2636 69.7416ZM62.7304 69.1723L65.1783 66.0868L66.8861 65.7111L67.3187 65.9217L62.7304 69.1723ZM49.9103 66.5992L49.9729 64.3221L50.2803 66.7528H50.2462L49.9103 66.5992ZM50.0526 66.9179L49.8989 67.0204V66.8326L50.0526 66.9179ZM49.9899 62.8135L49.9103 58.4642L50.3713 58.4186L54.6296 60.1265L50.0298 63.1095L49.9899 62.8135ZM36.8966 65.5175L37.4659 63.6845L40.3578 61.0146L41.2288 61.6977L40.8474 64.4074L39.8797 65.1476L37.4659 65.7851L36.8966 65.5175ZM37.1585 65.8705L36.7542 65.973L36.834 65.7224L37.1585 65.8705ZM43.4832 54.0238L42.8626 54.707L42.7488 54.7411L43.4832 54.0238ZM43.4832 53.7222L42.8684 53.1244L42.9765 52.5152L43.654 52.8341L43.5856 53.6197L43.4832 53.7222ZM43.5287 54.3369V54.559L43.2896 54.6273L43.5287 54.3369ZM43.6767 55.134L44.4053 54.6785L45.6919 55.5495V56.0904L43.449 58.0145L43.6767 55.134ZM43.005 20.3512L43.4832 20.2145L44.7868 22.0532L43.7223 21.484L43.005 20.3512ZM43.3408 21.262L43.1188 21.1425L43.0562 20.8237L43.3408 21.262ZM40.3464 15.4099L41.7867 15.8083L42.0884 17.2372L41.2971 16.7135L40.3464 15.4099ZM47.1151 10.9581L46.3296 10.7645L46.6085 10.4685L47.1151 10.9581ZM46.7508 10.3148L46.859 10.201L47.0809 10.6279L46.7508 10.3148ZM52.5745 16.6737L48.4358 13.5995L47.7242 11.5786L52.5745 16.6737ZM47.878 11.4306L49.9501 12.2617L52.3923 16.1783L47.878 11.4306ZM54.214 19.1727L54.8914 20.3967L54.0261 22.1672L52.3183 20.2829L53.5309 19.1443L54.214 19.1727ZM54.1286 18.5408L54.1628 18.3473L54.7321 18.9621H54.5783L54.1286 18.5408ZM60.6525 25.782L59.7872 26.8523L58.1648 26.0894L57.4019 24.6663L59.5538 24.5012L60.6525 25.782ZM57.8061 22.1045L60.163 24.2279L59.6676 24.2678L57.8061 22.1045ZM61.0795 26.2318L62.867 28.3097L60.607 27.228L61.0795 26.2318ZM60.9713 25.782L61.1478 25.5601L61.0226 25.8447L60.9713 25.782ZM61.1762 26.0211L61.4324 25.4518L61.7455 25.9756L62.7418 27.8542L61.1762 26.0211ZM77.5202 53.984V54.1206L77.4804 54.058L77.5202 53.984ZM77.5202 50.9327L78.1577 50.9042L77.6227 51.2116L77.5316 51.1149L77.5202 50.9327ZM77.5202 54.5931L76.7972 56.0391L76.7631 55.948L76.8371 55.8455L76.7516 55.783L76.8484 55.8171L77.3266 54.502L77.5202 54.5931ZM70.7344 62.1816L70.4953 61.0089L72.9033 60.7641L70.7344 62.1816ZM72.4024 61.3391L70.854 62.8077L70.7742 62.4036L72.4024 61.3391ZM66.2258 65.1304L65.8044 64.9312L66.1916 64.2025L66.9829 64.6295L66.2258 65.1304ZM66.2258 65.3695L66.5844 65.5403L65.6621 65.7396L66.2258 65.3695ZM54.3164 49.2021L54.6068 48.9687L56.9579 47.6821L57.4646 49.6518L55.364 52.0655L54.3164 49.2021ZM55.29 52.5039H55.216L55.2728 52.4469L55.29 52.5039ZM42.8569 63.1209V63.3884L41.0467 64.7377L41.0808 64.4929L42.8569 63.1209ZM41.1207 64.231L41.4565 61.8571L42.8227 62.933L41.1207 64.231ZM42.8285 63.7015L42.7716 64.5554L41.3256 64.823L42.8285 63.7015ZM42.9708 64.732L45.2877 64.3107L45.857 64.6237V66.0128L42.7488 68.1704H42.7089L42.9708 64.732ZM45.3219 64.0887L43.5742 63.1266L45.7944 61.4757L45.8399 63.9805L45.3219 64.0887ZM45.857 64.2025V64.379L45.6123 64.248L45.857 64.2025ZM43.3807 63.0298L43.1758 62.916L45.7944 60.8039V61.2309L43.3807 63.0298ZM43.1985 63.1664L43.0733 63.2576V63.0925L43.1985 63.1664ZM43.3977 63.2746L44.9918 64.1455L42.9879 64.5156L43.0505 63.5365L43.3977 63.2746ZM45.8798 53.8815H45.9082H45.8798ZM45.8798 53.5456L45.6919 51.8379L46.0335 51.428L47.969 49.4127L48.3732 52.2078L45.8798 53.5456ZM45.6976 54.1776V55.3161L44.616 54.576L44.8551 54.428L45.6976 54.1776ZM45.5041 54.0125L45.6919 53.8986V53.9613L45.5041 54.0125ZM48.0203 42.8603L48.7661 47.6479L48.3504 48.2172L48.0146 48.2912L47.3087 43.8907L48.0203 42.8603ZM47.2632 43.6004L47.1892 43.1506L47.7584 42.8547L47.2632 43.6004ZM46.5402 39.2397L46.6483 38.9779L47.1834 38.6307L47.303 39.2397L46.785 40.6458L46.5402 39.2397ZM46.711 41.4656V41.4201V41.4656ZM45.8514 28.8618L45.8172 29.1521L45.5895 29.0212V28.2982L45.8514 28.8618ZM45.7147 28.0307L45.9254 28.1274L45.8912 28.4348L45.7147 28.0307ZM45.9937 29.4937L46.1758 29.5962L47.0752 31.6399L45.7602 31.7765L45.9937 29.4937ZM44.7127 19.1385L45.2422 19.4744L44.7925 19.6054L44.7127 19.1385ZM44.9803 21.9281L43.7223 20.1462L44.6274 19.8786L44.9803 21.9281ZM44.6672 18.8596L44.2972 16.6907L46.3694 19.1385L45.5098 19.3948L44.6672 18.8596ZM42.0429 15.8709L44.0354 16.4402L44.4281 18.7173L42.3673 17.408L42.0429 15.8709ZM42.3104 18.1481L41.6159 17.1575L42.1852 17.5161L42.3104 18.1481ZM48.5212 14.3908L49.4719 17.1177L47.5591 15.1992L47.7186 13.7988L48.5212 14.3908ZM47.7641 13.5654V13.3775L48.2594 13.7418L48.3619 14.0492L47.7641 13.5654ZM70.9678 42.4618L71.1671 43.9306L68.8558 40.7199H70.1026L70.9678 42.4618ZM70.3302 40.6971H70.7231L70.8767 41.8015L70.3302 40.6971ZM76.4557 55.7203L72.2145 55.9708L72.1633 55.9366L71.594 54.9119L74.5485 53.2041L75.7212 53.7734L76.4557 55.7203ZM76.0059 53.8986L77.1445 54.4337L76.6833 55.7032L76.0059 53.8986ZM67.4041 61.5099L67.0056 62.2556L66.8405 61.8628L67.4041 61.5099ZM66.7608 61.6692L66.6755 61.4586L67.2106 61.3846L66.7608 61.6692ZM66.5901 61.2593L65.4515 58.5496L67.0626 57.5761L68.3947 58.1455L67.5863 61.1113L66.5901 61.2593ZM59.4513 61.9539L58.9333 61.709V61.1797L59.5652 60.7527L59.6108 61.8515L59.4513 61.9539ZM59.588 62.2499L59.3034 62.2897L59.4627 62.193L59.588 62.2499ZM51.5441 50.426L49.1588 49.2874L49.045 48.2514L53.5081 47.5967L54.0375 49.037L51.5441 50.426ZM53.565 49.5607L52.1475 50.6992L51.7832 50.5342L53.565 49.5607ZM47.303 38.272L47.1892 37.7027L47.9007 37.549L47.7357 37.993L47.303 38.272ZM47.6161 38.3232L47.4225 38.8526L47.3485 38.494L47.6161 38.3232ZM47.246 37.475L48.2594 35.158L48.6978 35.3857L47.9861 37.3156L47.246 37.475ZM49.5915 31.5886L48.4529 34.2017L47.4055 31.8164L49.5915 31.5886ZM47.3143 31.5886L46.506 29.7442L49.3524 31.3723L47.3143 31.5886ZM46.9045 19.1614V19.3948L46.7508 19.2183L46.9045 19.1614ZM46.58 19.0419L45.0543 17.2657L46.8305 18.9735L46.58 19.0419ZM44.6103 16.5142L47.1492 17.0835L46.9501 18.7913L44.6103 16.5142ZM45.8969 13.3775L45.9595 13.5141L45.8229 13.3775H45.8969ZM45.5496 12.0625L46.876 13.0985L46.0278 13.1555L45.5496 12.0625ZM46.1986 14.0606L47.2233 16.3946L47.172 16.8501L44.3257 16.2353L44.1605 16.0759L43.4149 13.5654L45.5496 13.4174L46.1986 14.0606ZM47.451 16.907H47.377V16.7818L47.451 16.907ZM47.451 16.3378L47.5534 15.4155L49.4093 17.3112L47.7015 16.9411L47.451 16.3378ZM47.5706 17.1234L48.3447 18.8938H47.155L47.3656 17.0892L47.5706 17.1234ZM48.4358 19.1044L49.3524 21.1823L47.2916 19.0987L48.4358 19.1044ZM47.2973 15.9564L46.6427 14.4648L47.3827 15.2219L47.2973 15.9564ZM47.0639 19.8786L47.8665 20.8237L46.9899 20.3397L47.0639 19.8786ZM47.0981 19.594L47.1379 19.224L49.6029 21.7175L49.7338 22.0134L48.4643 21.2051L47.0981 19.594ZM49.768 22.281L49.5061 22.4347L48.9369 21.7402L49.768 22.281ZM50.4055 23.2772L50.1664 22.6112L50.3315 22.725L50.4055 23.2772ZM50.0583 19.1614H51.0602L52.0564 20.2999L50.4055 21.7743L50.0583 19.1614ZM50.1266 22.3265L50.1722 22.3778L50.1266 22.3265ZM50.1949 23.3171L49.6257 22.6454L49.8989 22.4916L50.1949 23.3171ZM50.2974 23.7611L48.5895 23.2544L49.4606 22.7535L50.2974 23.7611ZM50.4511 24.023L50.4853 24.1255L50.4055 25.0762L47.32 25.4518L46.597 24.3816L48.3049 23.4082L50.4511 24.023ZM53.0071 24.7745L53.0413 24.7005L53.2462 24.7517L53.0071 24.7745ZM53.5251 24.9452L56.8782 27.2736L56.8327 29.0953L53.0527 24.9794L53.5251 24.9452ZM56.827 29.3969V29.9662L55.6259 30.1996L52.3753 26.0894L52.842 25.0819L56.827 29.3969ZM64.4325 34.9474L64.3357 35.454L62.6279 35.5622L62.5767 35.437L63.4989 34.6286L64.4325 34.9474ZM63.6982 34.4465L63.9088 34.2585L64.2275 34.6456L63.6982 34.4465ZM64.9563 35.6192L66.4193 37.6571L65.0303 39.9798L63.9828 38.3801L64.5123 35.6533L64.9563 35.6192ZM64.5521 35.437L64.6089 35.141L64.8139 35.4199L64.5521 35.437ZM64.905 35.1921L65.2694 35.3914H65.0588L64.905 35.1921ZM71.8103 46.0825L72.7497 46.7883L73.1424 47.4203L71.6623 49.6461L69.8008 50.7277L69.3055 50.4943L70.8312 46.1223L71.8103 46.0825ZM70.9052 45.9117L71.0418 45.5131L71.5428 45.8832L70.9052 45.9117ZM72.1405 46.0711H72.3L72.4479 46.3044L72.1405 46.0711ZM63.6925 56.8304L59.383 57.3541L62.3432 55.5381L64.2332 56.375L63.6925 56.8304ZM64.387 56.5173L64.4781 56.7393L64.0682 56.7849L64.387 56.5173ZM57.3279 45.9174L57.8972 46.1736L57.4987 46.4809L57.3279 45.9174ZM57.3678 46.8966H57.2539L57.3507 46.8225L57.3678 46.8966ZM49.8363 31.7822L51.7946 35.4085L50.7927 36.0632L48.988 35.3004L49.8363 31.7822ZM48.8344 35.0385L48.5953 34.4692L49.415 32.5963L48.8344 35.0385ZM50.0811 29.6531L47.4681 25.6682L50.4055 25.2925L50.0811 29.6531ZM50.2347 30.2907L50.1437 30.4899L50.2063 30.2395L50.2347 30.2907ZM50.3657 30.5071L50.7812 31.1902L49.9786 31.3495L50.3657 30.5071ZM50.7812 24.3816L51.2481 24.9509H51.0033L50.7812 24.3816ZM50.7812 25.0306H50.5991L50.6332 24.5922L50.7812 25.0306ZM56.2747 31.9302L55.6087 32.4995L56.0983 31.8562L56.2747 31.9302ZM56.2349 31.6968L56.3545 31.5431L56.5025 31.731L56.4626 31.7651L56.2349 31.6968ZM65.5825 41.4599L65.8671 42.0691L65.1896 41.8015L64.9448 41.05L64.9904 41.0159L65.5825 41.4599ZM65.1612 40.8906L65.2751 40.8052L65.3946 41.0614L65.1612 40.8906ZM69.4592 51.3425L69.9318 52.2306L69.1803 53.3692L69.2087 51.3597L69.4592 51.3425ZM69.4023 50.7733L69.5674 50.853L69.4706 50.9042L69.4023 50.7733ZM69.1632 54.2914V54.1149L70.7002 55.1795L69.4763 55.8854L69.1632 54.2914ZM69.2885 55.9992L69.1347 56.0846V55.2991L69.2885 55.9992ZM69.1917 53.8702V53.7449L70.0626 52.4299L71.3492 54.8266L70.928 55.0713L69.1917 53.8702ZM69.7154 51.3198L70.501 51.2857L70.5579 51.3141L70.0911 52.02L69.7154 51.3198ZM69.6015 51.1149L69.8293 50.9839L70.1026 51.1091L69.6015 51.1149ZM69.1973 51.0807L69.1234 50.779L69.1632 50.7334L69.3112 51.0181L69.1973 51.0807ZM69.1518 50.3065L68.9241 49.9421L68.0417 46.2304L70.6091 46.1336L69.1518 50.3065ZM62.3604 49.9023L64.1365 48.7637L67.6546 50.1072L68.0303 51.2857L65.2409 51.5988L62.3604 49.9023ZM64.888 51.6101L62.4115 51.8834L61.6715 50.3577L62.1668 50.0332L64.888 51.6101ZM63.7152 41.9894L66.3111 46.1564L60.2881 46.6403L62.4059 42.9798L63.7152 41.9894ZM62.7873 42.3252L63.3566 41.3746L63.5331 41.6592L62.7873 42.3252ZM63.5843 41.3859L63.738 41.4486L63.664 41.5112L63.5843 41.3859ZM63.8803 41.8584L64.1934 41.625L65.0303 41.9552L66.203 45.5871L63.8803 41.8584ZM63.8803 41.5852L63.9373 41.5339L63.8803 41.5852ZM64.3698 41.477L64.7627 41.1753L64.9278 41.699L64.3698 41.477ZM64.1422 41.3859H64.108L64.6773 40.8736L64.7114 40.976L64.1422 41.3859ZM64.33 40.8849L63.8917 41.2891L63.4306 41.107V41.0159L64.33 40.8849ZM63.4932 40.7939L63.6242 40.1164L64.4723 40.6516L63.4932 40.7939ZM63.2712 40.8281H63.2028L61.9561 39.0576L63.4363 39.9855L63.2712 40.8281ZM62.2465 42.8034L62.1213 42.9173L59.0756 45.2342L57.271 41.9381L62.8499 41.107L63.163 41.2265L62.2465 42.8034ZM60.4989 44.4144L59.2521 45.553L59.1724 45.4107L60.4989 44.4144ZM59.0927 45.7124L58.5234 46.2361L58.2615 46.1109L59.0016 45.5416L59.0927 45.7124ZM58.5633 46.4867L59.087 46.7371L58.216 46.8054L58.5633 46.4867ZM58.7284 46.3329L59.1952 45.9003L59.6278 46.6916H59.5026L58.7284 46.3329ZM59.3545 45.7637L61.8935 43.4239L60.0149 46.6688H59.8555L59.3545 45.7637ZM60.1402 46.8681L66.4022 46.3614L66.4307 46.4126L66.5787 46.8624L64.0739 48.5076L60.089 46.9762L60.1402 46.8681ZM66.9715 46.8681L67.8084 46.2988L68.5427 49.3729L66.9715 46.8681ZM68.6793 50.0332L68.742 50.3008L67.7799 49.9307L66.9146 47.1527L68.6793 50.0332ZM66.8405 46.6858L66.6299 46.35L67.4611 46.2817L66.8405 46.6858ZM66.6357 47.073L67.5294 49.8339L64.313 48.6043L66.6357 47.073ZM67.8652 50.1869L68.7989 50.5456L68.8444 50.7392L68.4516 51.2174H68.2068L67.8652 50.1869ZM68.9071 50.9953L68.9469 51.1661H68.7476L68.9071 50.9953ZM68.6223 51.4109L68.5085 51.4848L68.5598 51.4165L68.6223 51.4109ZM68.9697 51.445L68.9355 53.5172L68.3662 51.8094L68.9697 51.445ZM67.9051 45.9913L66.2542 42.4618L67.6091 42.997L69.926 44.7048L67.9051 45.9913ZM66.1233 42.1886L65.9069 41.7275L66.9658 42.5188L66.1233 42.1886ZM65.9696 42.3537L67.6774 46.0483L66.5389 46.1451L65.2694 42.0292L65.9696 42.3537ZM64.8652 40.6003L64.9904 40.384L65.1043 40.5661L64.8652 40.6003ZM64.7001 40.458L64.0341 38.9209L64.8652 40.1904L64.7001 40.458ZM64.4553 40.4182L63.6412 39.9058L63.8234 38.9722L64.4553 40.4182ZM63.7721 38.141L63.5331 37.7767L62.6905 35.7671L64.2788 35.6647L63.7721 38.141ZM62.8499 36.7292L62.2465 35.807H62.44L62.8499 36.7292ZM63.3452 37.8677L63.6754 38.6249L63.4534 39.7635L61.6203 38.6249L60.6525 37.1846L62.0814 35.8639L63.3452 37.8677ZM60.4989 37.0196L59.7758 35.9949L61.774 35.8411L60.4989 37.0196ZM61.1705 38.3346L60.106 37.6686L60.4647 37.3384L61.1705 38.3346ZM61.4836 38.7843L62.9637 40.8792H62.8613L58.4665 39.1714L59.9466 37.8052L61.4836 38.7843ZM62.44 40.959L57.1515 41.7445L56.6619 40.8508L58.2957 39.3422L62.44 40.959ZM55.6087 39.3251L56.4228 40.8109L56.0812 41.124L55.6087 39.3251ZM56.0698 41.9096L55.4379 42.0064L55.9674 41.5169L56.0698 41.9096ZM56.5253 40.9988L56.9522 41.7787L56.2805 41.8811L56.1439 41.3518L56.5253 40.9988ZM56.5822 40.6629L55.3924 38.4826L55.307 38.1638L58.1022 39.2568L56.5822 40.6629ZM55.9048 41.2834L55.1533 41.9836L54.1001 39.7065L54.9597 38.1296L55.1932 38.5566L55.9048 41.2834ZM52.3581 44.4144L51.6181 44.0274L52.0109 43.458L52.3581 44.4144ZM51.8344 42.4561L52.3753 42.422L52.0564 42.9913L51.8344 42.4561ZM52.233 43.458L53.1779 43.9135L52.6087 44.4828L52.233 43.458ZM52.1873 43.2076L52.6257 42.4106L54.8459 42.2797L53.3317 43.737L52.1873 43.2076ZM52.4948 36.2795L52.0507 35.4597L52.9844 34.8506L53.2462 35.2889L52.4948 36.2795ZM52.4948 36.769L52.4094 36.7349L52.4549 36.678L52.4948 36.769ZM54.0603 36.2397L53.491 35.3004L54.1173 34.4863L54.5613 36.1942L54.0603 36.2397ZM54.6296 36.4048L54.9484 37.6173V37.6628L54.2083 36.4389L54.6296 36.4048ZM53.8326 36.2567L52.694 36.3478L53.3544 35.4825L53.8326 36.2567ZM53.3828 35.1182L53.1609 34.7481L54.0432 34.1789V34.2415L53.3828 35.1182ZM53.0527 34.5489L52.1134 32.9606L53.9294 34.0024L53.0527 34.5489ZM51.8686 32.5849L51.0943 31.304L52.9103 30.9454L53.9123 33.7577L51.8686 32.5849ZM51.4929 32.3742L50.0014 31.5203L50.8724 31.3495L51.4929 32.3742ZM51.7149 32.7443L52.8535 34.6628L51.9255 35.2605L50.0583 31.8107L51.7149 32.7443ZM53.9578 36.4446L54.7036 37.6856L52.7851 36.9057L52.6314 36.5812L53.9578 36.4446ZM54.8118 37.9589L53.9863 39.4674L52.9218 37.1619L54.8118 37.9589ZM54.9597 42.0519L52.7453 42.1829L53.9749 39.9058L54.9597 42.0519ZM55.0736 42.3366L56.0812 45.0521L53.5366 43.8395L55.0736 42.3366ZM54.8402 36.3763L55.3526 36.3365L55.0679 37.2359L54.8402 36.3763ZM54.789 36.1713L54.2881 34.2642V34.2358L55.7169 35.1353L55.4038 36.1201L54.789 36.1713ZM54.1514 33.8088L53.1381 30.9624L55.9048 31.8107L54.8174 33.2282L54.1514 33.8088ZM56.0414 31.6285L53.4568 30.8372L55.5119 30.4331L56.2406 31.3667L56.0414 31.6285ZM53.0469 30.7063L51.8231 27.2906L52.2841 26.3057L55.3696 30.2566L53.0469 30.7063ZM52.2386 25.8902L51.6693 25.1331L52.6655 25.0136L52.2386 25.8902ZM51.4872 24.9509L50.861 24.1425L52.2898 24.5126L52.5916 24.82L51.4872 24.9509ZM51.3961 25.1729L52.1134 26.0894L51.7035 26.9832L51.0602 25.1843L51.3961 25.1729ZM52.7965 30.6437L50.5763 29.9662L51.7149 27.5582L52.7965 30.6437ZM52.5916 30.7973L50.9691 31.1219L50.4454 30.2508L50.4909 30.1598L52.5916 30.7973ZM50.7869 36.2681L51.4929 36.5641L49.785 36.9398L50.7869 36.2681ZM50.9976 36.1315L51.8686 35.5622L52.3126 36.3876L51.8515 36.4844L50.9976 36.1315ZM52.2272 36.6211H52.1988H52.2272ZM52.2841 36.9L52.6257 37.0423L53.8554 39.7009L52.4891 42.2L51.7433 42.2455L50.5536 39.3023L52.2841 36.9ZM51.8458 43.0539L50.5763 42.5244L51.6067 42.4618L51.8458 43.0539ZM51.8743 43.293L51.4245 43.9249L48.9311 42.5984L50.0981 42.5301L51.8743 43.293ZM51.4872 44.1925L52.3923 44.6707L49.0165 47.9724L48.971 47.6878L51.4872 44.1925ZM52.5119 44.8471L53.4512 47.4203L49.267 48.0408L52.5119 44.8471ZM52.7339 44.8471L56.7188 46.9364L53.6504 47.3918L52.7339 44.8471ZM52.7339 44.6137L53.3601 44.0046L56.1666 45.3424L56.6562 46.6688L52.7339 44.6137ZM55.2443 42.2342L56.1097 42.1089L56.9978 45.5246L56.3317 45.2057L55.2443 42.2342ZM56.3147 42.0747L57.0433 41.9666L58.8991 45.3822L58.0624 46.0141L57.2539 45.6327L56.3147 42.0747ZM58.0737 46.2532L58.3526 46.3899L57.8744 46.8339H57.567L57.5215 46.6517L58.0737 46.2532ZM57.7435 47.2438L57.9599 47.0389L59.457 46.9193L59.7531 47.0559L58.9731 47.9553L57.7435 47.2438ZM58.8308 48.1148L57.9656 49.111L57.7037 47.4601L58.8308 48.1148ZM59.8954 47.2096L60.755 48.9858L59.1553 48.0636L59.8954 47.2096ZM60.1345 47.2096L63.8689 48.6385L62.1611 49.7771L61.1022 49.1623L60.1345 47.2096ZM61.9391 49.9079L61.5577 50.1642L61.2389 49.5038L61.9391 49.9079ZM62.1668 51.9062L58.7113 52.2876L61.4723 50.4659L62.1668 51.9062ZM62.2636 52.1053L63.4989 54.5533L62.3604 55.2535L58.7227 53.6424L58.5462 52.5039L62.2636 52.1053ZM62.5539 55.3731L63.5502 54.7639L64.1934 56.1017L62.5539 55.3731ZM62.4856 52.077L65.1726 51.7809L66.6299 52.6235L63.6355 54.4622L62.4856 52.077ZM65.5255 51.7411L68.0759 51.4564L68.1271 51.6158L67.9791 51.7979L66.8405 52.5039L65.5255 51.7411ZM67.5749 52.3103L67.222 52.743L67.0398 52.6405L67.5749 52.3103ZM68.1158 51.9802L68.2182 51.9175L68.7875 53.6254L67.4155 52.8284L68.1158 51.9802ZM68.8899 54.0466L68.9412 54.3256L68.9127 56.1871L65.3434 56.6198L68.8899 54.0466ZM68.5484 56.4433L67.0454 57.3541L65.7248 56.7849L68.5484 56.4433ZM68.8501 56.5059L68.4516 57.9575L67.2789 57.4509L68.8501 56.5059ZM69.1005 56.3807H69.3511L69.778 58.5439L68.6395 58.06L69.1005 56.3807ZM69.5104 56.1187L70.8881 55.3275L71.8616 56.0049L69.5162 56.1472L69.5104 56.1187ZM71.0873 55.2136L71.4175 55.0258L71.7761 55.6862L71.0873 55.2136ZM70.1651 52.242L70.7344 51.4165L74.3436 53.1244L71.4972 54.7411L70.1651 52.242ZM70.6889 51.1034H70.5067L70.0058 50.8643L71.3663 50.073L70.6889 51.1034ZM70.6547 45.98L68.2694 46.0768L70.1253 44.9382L70.8369 45.4676L70.6547 45.98ZM68.3776 43.3385L70.7629 44.2778L70.1481 44.6592L68.3776 43.3385ZM67.74 42.8603L65.7476 41.3802L65.48 40.8109H68.5996L71.0077 44.1583H70.9792L67.74 42.8603ZM65.6393 40.5833L67.4838 39.1828L68.4345 40.5035L65.6393 40.5833ZM65.3434 40.5377L65.1384 40.2303L66.5389 37.9019L67.3813 39.0405L65.3434 40.5377ZM62.4572 35.2946L61.922 34.0651L63.2769 34.5773L62.4572 35.2946ZM62.292 35.4427L62.0985 35.6078L60.3906 33.4957L61.6431 33.9626L62.292 35.4427ZM61.8822 35.6703L59.6563 35.8468L57.1287 32.2661L60.0092 33.3478L61.8822 35.6703ZM60.3622 37.2131L59.9409 37.6003L57.7321 36.2112L59.5538 36.0689L60.3622 37.2131ZM59.7929 37.7482L58.2786 39.1487L55.2443 37.9645L55.1704 37.6743L55.5859 36.382L57.3906 36.2397L59.7929 37.7482ZM55.6542 36.1657L55.9275 35.3174L57.0661 36.0518L55.6542 36.1657ZM55.808 34.993L54.4304 34.0593L54.9996 33.3534L56.5538 31.9815L56.7473 32.0441L55.808 34.993ZM56.6676 31.5944L56.4911 31.3723L56.7644 31.0194V31.5203L56.6676 31.5944ZM56.3602 31.1959L55.7283 30.3932L56.7814 30.1825V30.6607L56.3602 31.1959ZM52.7795 24.7118L52.6827 24.615L52.8136 24.6492L52.7795 24.7118ZM52.3923 24.319L51.9198 23.8465L52.7339 24.4158L52.3923 24.319ZM51.9939 24.2165L50.6731 23.875L50.5421 22.8845L50.9748 23.1861L51.9939 24.2165ZM50.5877 25.264H50.8553L51.5896 27.3077L50.4055 29.9036L50.2747 29.8637L50.5877 25.264ZM49.8363 29.693L48.4358 29.044L46.4719 25.765L47.2005 25.6739L49.8363 29.693ZM50.0071 30.0004L49.7224 31.1902L48.6294 29.3628L50.0071 30.0004ZM48.4472 34.7254L48.618 35.1068L48.3447 34.9645L48.4472 34.7254ZM48.1284 37.475L48.6636 37.3612L48.0146 37.7824L48.1284 37.475ZM48.2138 37.2416L48.8173 35.602L49.3467 36.9171L49.1588 37.0366L48.2138 37.2416ZM49.0052 35.5337L50.5308 36.177L49.5289 36.826L49.0052 35.5337ZM51.8059 36.7122L52.0622 36.826L50.4397 39.1031L49.6655 37.2017L51.8059 36.7122ZM51.5441 42.2569L50.1494 42.3423L48.7888 41.773L50.4283 39.4959L51.5441 42.2569ZM49.6712 42.3708L48.5838 42.4334L48.3846 42.3309L48.6578 41.9495L49.6712 42.3708ZM48.5326 42.6441L51.3107 44.0957L48.9369 47.3974L48.1967 42.6668L48.5326 42.6441ZM48.8344 48.1091L48.6521 48.1489L48.8116 47.9326L48.8344 48.1091ZM48.8742 48.4278L48.9652 49.2134L48.396 48.9459L48.8742 48.4278ZM48.1796 48.8491L48.4928 48.4108L48.6636 48.3767L48.1796 48.8491ZM48.0601 48.6157V48.5018L48.1796 48.4734L48.0601 48.6157ZM48.2252 49.1053L48.988 49.4582L49.2385 51.6955L48.5611 52.0655L48.1455 49.185L48.2252 49.1053ZM49.2613 51.9232L49.3751 52.9251L48.7091 53.1074L48.5953 52.2876L49.2613 51.9232ZM49.2101 49.5607L51.3449 50.5513L49.4378 51.5873L49.2101 49.5607ZM53.7642 47.591L56.5708 47.1812L54.5328 48.815L54.2652 48.963L53.7642 47.591ZM56.8725 47.204L56.9522 47.4999L55.5291 48.2514L56.8725 47.204ZM56.4797 45.4961L57.106 45.7978L57.3222 46.6175L57.0092 46.8509H56.9693L56.4797 45.4961ZM57.0945 47.1357L57.3792 47.2836L57.1401 47.4146L57.0661 47.1357H57.0945ZM57.5272 47.4487L57.8233 49.3387L57.6752 49.5095L57.197 47.6252L57.5272 47.4487ZM57.8688 49.612L58.1249 51.2629L57.7378 49.7543L57.8688 49.612ZM58.0452 49.4014L59.0586 48.2627L60.9599 49.3614L61.421 50.3236L58.4949 52.2534L58.0452 49.4014ZM58.3526 53.5229L57.5272 53.1529L58.2445 52.6576L58.3526 53.5229ZM57.3052 53.0561L56.4797 52.6918L57.9599 52.595L57.3052 53.0561ZM57.3052 53.2952L58.3583 53.762L58.808 57.4167L57.1571 57.5761L56.0584 54.1604L57.3052 53.2952ZM58.5121 57.6615L57.4134 58.3731L57.2255 57.8039L58.5121 57.6615ZM57.2369 58.4699L56.5822 58.8968L54.7548 57.9974L57.032 57.7811L57.2369 58.4699ZM57.3052 58.6748L57.5272 59.358L56.7985 59.0051L57.3052 58.6748ZM57.4874 58.5552L58.8252 57.6843L58.7739 59.9614L57.7891 59.4775L57.4874 58.5552ZM58.7454 53.91L62.1269 55.4072L59.2806 57.1663L58.7454 53.91ZM58.9447 60.0753L59.0016 57.5818H59.0756L59.514 60.3485L58.9447 60.0753ZM59.3318 60.5022L58.9276 60.8438V60.3087L59.3318 60.5022ZM59.0301 57.2858H58.9845L58.791 55.7317L59.0301 57.2858ZM58.9048 61.9198L59.2122 62.0677L58.8991 62.2613L58.9048 61.9198ZM59.2862 57.5477L63.3794 57.0524L59.7018 60.1834L59.2862 57.5477ZM63.7551 57.0068L64.5123 56.9158L60.3451 59.9102L63.7551 57.0068ZM64.4268 56.1302L63.7152 54.6558L66.8292 52.7487L67.0739 52.8967L64.4268 56.1302ZM67.2732 52.9991L68.7648 53.8645L65.0986 56.5002L64.5862 56.2782L67.2732 52.9991ZM64.8993 56.6426H64.7057L64.6318 56.4774L64.8993 56.6426ZM64.9563 56.8645L65.3149 56.8247L66.8235 57.4737L65.3719 58.3504L64.8025 56.9784L64.9563 56.8645ZM68.5882 58.2365L69.8293 58.766L70.0114 59.6939L67.8368 60.9918L68.5882 58.2365ZM70.0569 59.9102L70.2392 60.8438L68.1271 61.0601L70.0569 59.9102ZM70.205 59.58L70.0626 58.8684L70.8369 59.2042L70.205 59.58ZM70.0114 58.6179L69.5617 56.3408L72.0494 56.1928L72.9831 57.9291L71.0588 59.0676L70.0114 58.6179ZM72.3683 56.3408L73.8825 57.3882L73.1596 57.8209L72.3683 56.3408ZM72.4821 56.1644L76.3247 55.9366L74.0818 57.2687L72.4821 56.1644ZM74.7592 53.0902L75.3285 52.7601L75.6017 53.4888L74.7592 53.0902ZM74.5258 52.9821L70.8881 51.2742L74.7136 51.0978L75.283 52.5722L74.5258 52.9821ZM74.3209 49.4127L75.2147 50.853H74.856L74.3209 49.4127ZM74.6397 50.8815L70.928 51.0522L71.7591 49.8055L73.8028 48.6157L74.6397 50.8815ZM73.6491 47.5854L74.2184 48.1546L73.9337 48.3254L73.6491 47.5854ZM73.7117 48.4278L72.038 49.4297L73.2279 47.6422L73.7117 48.4278ZM73.1766 47.1527L73.262 47.2153V47.2495L73.1766 47.1527ZM73.3645 47.4487L73.4157 47.591L73.3645 47.4487ZM73.3645 46.8111L72.9944 46.0597H73.4328L73.3645 46.8111ZM72.892 45.8547L72.6642 45.3993L73.2962 45.8377L72.892 45.8547ZM72.7667 46.0711L73.1481 46.8453L72.9033 46.6631L72.5447 46.0938L72.7667 46.0711ZM72.4138 45.8718L71.7078 44.7333L72.3056 45.1545L72.6642 45.8718H72.4138ZM71.446 44.2893L71.4175 44.0843L71.6965 43.9135L72.112 44.756L71.446 44.2893ZM71.3891 43.8566L71.2752 43.0653L71.5997 43.7199L71.3891 43.8566ZM71.3891 44.5909L72.186 45.8832H71.8844L71.1272 45.3139L71.3891 44.5909ZM70.9507 45.2L70.3815 44.756L71.0532 44.3348L71.2524 44.4088L70.9507 45.2ZM68.7363 40.5206L67.7002 39.086L68.8899 38.2264L70.0285 40.5035L68.7363 40.5206ZM68.6451 37.2529L69.3511 37.6344L68.9697 37.9077L68.6451 37.2529ZM68.4857 36.9228L68.167 36.2852L69.0494 37.2302L68.4857 36.9228ZM68.3264 37.0765L68.7989 38.0329L67.5806 38.9153L66.6812 37.6686L67.3586 36.5299L68.3264 37.0765ZM66.5502 37.4863L65.2067 35.6078H65.6166L67.165 36.4503L66.5502 37.4863ZM64.6374 34.8107L64.4325 33.7975L64.8424 33.4388L67.0911 35.2719L65.6508 35.3629L64.6374 34.8107ZM64.3813 33.5584L64.2617 32.9891L64.6773 33.325L64.3813 33.5584ZM64.3813 34.4806L64.0852 34.1219L64.2732 33.9568L64.3813 34.4806ZM63.9543 33.9568L60.903 30.211L64.0283 32.7556L64.2219 33.7177L63.9543 33.9568ZM63.795 34.0934L63.4932 34.361L61.791 33.7405L60.2028 30.0744H60.4817L63.795 34.0934ZM60.1458 29.8524L59.9694 29.4482L60.1003 29.5563L60.3451 29.8524H60.1458ZM60.0092 30.063L61.5691 33.6381L60.1686 33.1143L58.1477 30.6039L58.7625 30.0345L60.0092 30.063ZM59.514 29.1066L58.6714 29.8467H57.6866L58.7227 28.5601L59.514 29.1066ZM58.8422 28.3665L58.9788 28.1957L59.2692 28.5544L59.366 28.7366L58.8422 28.3665ZM58.4153 30.0744L57.9826 30.4558L57.6752 30.0687L58.4153 30.0744ZM58.9845 29.8637L59.6449 29.2945L59.9011 29.8637H58.9845ZM59.4627 28.4748L59.2009 27.9851L59.884 27.1312L60.3508 27.3533L59.7132 28.7879L59.4627 28.4748ZM59.0756 27.7973L58.3298 26.4082L59.6734 27.0515L59.0756 27.7973ZM58.7512 27.6379L57.3792 25.93L58.0111 26.2318L58.7512 27.6379ZM58.8422 28.0819L58.6657 28.2982L57.0718 27.1938V25.9415L58.8422 28.0819ZM58.5348 28.4633L57.4475 29.8126L57.0205 29.3457L57.0661 27.4444L58.5348 28.4633ZM57.2369 29.8809L56.992 29.9264V29.6246L57.2369 29.8809ZM57.1913 30.1029L56.9807 30.3761V30.1427L57.1913 30.1029ZM57.4418 30.1029L57.8118 30.5582L56.9579 31.3097V30.7405L57.4418 30.1029ZM57.9428 30.7234L59.7417 32.9549L56.9465 31.9018V31.6001L57.9428 30.7234ZM59.4002 35.7956L57.419 35.9493L55.9674 35.0328L56.8725 32.1864L59.4002 35.7956ZM56.8554 27.006L53.8212 24.9168L56.8612 25.708L56.8554 27.006ZM56.6846 25.4234L54.4872 24.8541L56.0584 24.7346L56.6846 25.4234ZM56.3203 24.7061H56.6278L56.7701 25.2298L56.3203 24.7061ZM53.861 24.7061L53.2918 24.5638L53.1153 24.4386L54.0489 22.5372L55.8592 24.5467L53.861 24.7061ZM52.9673 24.319L51.1058 23.0268L50.4681 22.3835L50.4226 22.0305L52.1703 20.4252L53.918 22.3664L52.9673 24.319ZM51.3164 19.1614H53.2519L52.2045 20.1234L51.3164 19.1614ZM51.1228 18.9507L50.0469 17.7552L53.548 18.8938L53.4568 18.9849L51.1228 18.9507ZM50.8439 18.9507H50.0014L49.859 17.8577L50.8439 18.9507ZM50.2006 21.9508L50.1152 22.0249L49.7395 21.6491L48.6465 19.1557H49.8363L50.2006 21.9508ZM48.5553 18.9451L47.7982 17.2372L49.6142 17.63L49.7907 18.9564L48.5553 18.9451ZM47.5591 13.4003L47.4225 13.2978H47.5706L47.5591 13.4003ZM47.5307 13.645L47.377 15.0056L46.3637 13.9696L46.1075 13.4003L47.1094 13.332L47.5307 13.645ZM47.1777 13.0758L45.43 11.7095L45.4699 11.664L47.3941 13.0587L47.1777 13.0758ZM45.4699 11.368L45.1056 11.1117L44.821 10.5425L45.9595 10.8271L45.4699 11.368ZM45.2479 11.8519L45.8172 13.1555H45.6464L44.6616 12.1536L45.2479 11.8519ZM45.3675 13.184L43.3636 13.3263L43.2441 12.9277L44.4736 12.2674L45.3675 13.184ZM43.1871 12.7228L42.4357 10.2294L44.3257 12.1593L43.1871 12.7228ZM43.1473 13.3376L42.3787 13.3946L43.0562 13.0302L43.1473 13.3376ZM43.2099 13.5482L43.8703 15.7628L43.2441 15.1536L41.8663 13.702H41.912L43.2099 13.5482ZM43.0903 15.2959L43.8133 16.0872L42.003 15.592L41.6387 13.8841L43.0903 15.2959ZM46.506 19.281L46.8476 19.6851L46.7906 20.1861L45.7374 19.5428L46.506 19.281ZM46.9614 20.5447L48.2879 21.3872L49.267 22.5884L48.2479 23.1577L46.711 22.7079L46.9614 20.5447ZM48.0146 23.2886L46.5743 24.114L46.7053 22.9015L48.0146 23.2886ZM47.0696 25.4518L46.4206 25.5316L46.5174 24.6093L47.0696 25.4518ZM46.3751 24.0059L45.3959 22.5201L46.5003 22.8445L46.3751 24.0059ZM46.3751 25.9756L48.0829 28.8618L46.1473 27.9681L46.3751 25.9756ZM46.2328 25.3437L45.8627 24.7745L46.3238 24.5069L46.2328 25.3437ZM48.2935 29.1806L49.5232 31.2244L46.3637 29.4482L46.0847 28.8277L46.1473 28.2185L48.2935 29.1806ZM45.7944 31.9587L47.1834 31.8107L48.322 34.435L48.1455 34.8392L46.2441 33.8658L45.7944 31.9587ZM46.0164 33.7348L45.6065 33.5242L45.709 32.4882L46.0164 33.7348ZM48.0772 35.0328L47.0981 37.2644L46.3296 34.1333L48.0772 35.0328ZM47.1209 38.3687L46.7736 38.5965L47.0354 37.9532L47.1209 38.3687ZM46.4604 38.7957L46.3466 38.1468L46.859 37.8394L46.4604 38.7957ZM46.3751 39.5642L46.5572 40.6231L46.1473 40.1108L46.3751 39.5642ZM47.3656 39.5642L47.7129 41.2721L46.8646 40.9248L47.3656 39.5642ZM47.5023 39.1885L47.9178 38.05L49.2613 37.1789L49.4833 37.1334L50.3145 39.1942L48.5725 41.6079L47.9463 41.3518L47.5023 39.1885ZM48.4415 41.8072L48.1796 42.1715L48.0943 42.1317L47.9918 41.6193L48.4415 41.8072ZM47.8438 48.5929L47.7242 48.5133H47.8267L47.8438 48.5929ZM48.3846 52.3388L48.4985 53.1074L46.2213 53.7449L46.0107 53.6424L48.3846 52.3388ZM48.527 53.318L48.5668 53.5856L47.5876 54.4223L46.4946 53.853L48.527 53.318ZM48.601 53.8303L48.7717 55.003L47.7925 54.5191L48.601 53.8303ZM48.7546 53.4204V53.261L49.0677 53.1699L48.7546 53.4204ZM49.3866 53.1585L49.5289 55.3731L48.9994 55.1112L48.7888 53.6709L49.3866 53.1585ZM49.4491 51.7581L51.5725 50.6196L51.9824 50.8075L49.5574 52.7601L49.4491 51.7581ZM52.1931 50.8928L55.1533 52.2648L54.8971 52.4982L49.7736 52.817L52.1931 50.8928ZM52.3753 50.7448L54.1628 49.3046L55.159 52.0314L52.3753 50.7448ZM55.5291 52.2761L57.5557 49.9479L58.1762 52.3729L56.0471 52.5039L55.5291 52.2761ZM55.5917 52.5324H55.5291V52.4982L55.5917 52.5324ZM56.0073 52.7202L57.0888 53.1984L55.9958 53.9555L55.603 52.743L56.0073 52.7202ZM56.9522 57.599L54.3962 57.8437L52.2841 56.8019L55.882 54.2914L56.9522 57.599ZM56.383 59.0506L54.8801 60.024L50.861 58.3902L54.362 58.0543L56.383 59.0506ZM56.5993 59.1587L57.6183 59.6597L58.1875 61.3675L55.1362 60.1321L56.5993 59.1587ZM58.3811 61.3276L57.8858 59.7906L58.7739 60.2289V61.0487L58.6372 61.1625L58.3811 61.3276ZM58.4665 62.4036L57.0831 62.5403L58.2786 61.709L58.4665 62.4036ZM58.7512 61.3276V61.618L58.5348 61.5156L58.7512 61.3276ZM58.7512 61.8457V62.3752H58.6999L58.5234 61.7262L58.7512 61.8457ZM58.7512 63.4624L59.5196 66.2405L58.1079 67.1343L58.7512 63.4624ZM59.5823 66.4512L59.7076 66.9123L58.4836 67.14L59.5823 66.4512ZM59.7076 66.1267L58.8365 62.9785L58.9048 62.563L59.6506 62.4605L59.7929 66.0698L59.7076 66.1267ZM59.8043 66.3146V66.5081L59.7587 66.343L59.8043 66.3146ZM59.8043 60.7413L60.6867 61.2252L59.8442 61.7318L59.8043 60.7413ZM59.8897 60.5535L64.6546 57.1378L65.2238 58.4927L60.8973 61.1113L59.8897 60.5535ZM65.2978 58.6805L66.3908 61.3106L62.3205 61.8798L61.1079 61.2138L65.2978 58.6805ZM66.4762 61.5269L66.5957 61.8173L64.5236 63.0925L62.6108 62.0449L66.4762 61.5269ZM66.6812 62.0165L66.8975 62.5345L66.129 63.9748L64.757 63.2234L66.6812 62.0165ZM66.3111 64.0772L66.9999 62.7907L67.6261 64.2936L67.2049 64.5669L66.3111 64.0772ZM67.7059 64.4871L67.8937 64.9426L67.4155 64.6807L67.7059 64.4871ZM67.1366 62.5459L67.7742 61.3504L70.3245 61.0942L70.575 62.3695L67.814 64.174L67.1366 62.5459ZM70.4896 60.8666L70.2847 59.8362L71.1158 59.3466L73.4555 60.3542L73.2962 60.5762L70.4896 60.8666ZM71.3379 59.2157L73.1197 58.1511L73.9394 59.6768L73.5808 60.1778L71.3379 59.2157ZM74.0476 59.8874L74.3949 60.5307L73.7459 60.2461L74.0476 59.8874ZM73.3019 58.0429L74.1102 57.559L75.0039 58.1738L74.076 59.4889L73.3019 58.0429ZM74.3094 57.4395L76.4158 56.1928L75.0951 57.9689L74.3094 57.4395ZM76.6492 56.2155L76.7061 56.3578L75.6871 58.3902L75.3 58.1227L76.6492 56.2155ZM76.8029 56.6254L78.0553 60.0411L75.8636 58.5269L76.8029 56.6254ZM77.2469 54.2744L75.9319 53.6539L75.5789 52.6975L76.1767 52.3502L77.3153 54.1491L77.2469 54.2744ZM75.4538 52.4527L74.9471 51.075H75.3513L76.0173 52.151L75.4538 52.4527ZM74.0135 48.4677L74.3664 48.2627L76.8371 50.7505L75.4651 50.8132L74.0135 48.4677ZM73.5068 47.1015L73.5978 46.0255L75.5049 47.3576L74.4006 48.0009L73.5068 47.1015ZM73.6661 42.8262L73.5637 42.6668L73.6889 42.5928L73.6661 42.8262ZM73.8256 43.4467L75.3 45.7238L73.5921 45.7921L73.8256 43.4467ZM73.6378 43.1621L73.4214 45.6441L72.4308 44.9553L71.8616 43.7484L73.4157 42.7807L73.6378 43.1621ZM71.742 43.5605L71.1728 42.3593L70.9337 40.6516H72.038L73.3132 42.5984L71.742 43.5605ZM70.8995 40.4808L70.7002 39.0291L71.4915 39.8773L71.8786 40.4467L70.8995 40.4808ZM70.649 38.6648V38.5737L70.8198 38.8356L70.649 38.6648ZM70.6889 40.4865H70.2221L69.0322 38.0785L69.5048 37.7369L70.4498 38.7615L70.6889 40.4865ZM70.0513 38.0443L70.3815 38.2208V38.4257L70.0513 38.0443ZM69.7154 37.6173L69.8577 37.5148L70.0968 37.8279L69.7154 37.6173ZM69.7154 37.344L69.5219 37.4863L67.814 35.6419L67.7856 35.4597H68.2694L69.7154 37.344ZM68.5085 35.4142H68.8558L69.7382 37.0538L68.5085 35.4142ZM67.7457 35.2548L67.6432 34.6229L68.1043 35.2321L67.7457 35.2548ZM67.7002 35.9094L68.1158 36.7577L67.4212 36.3706L67.7002 35.9094ZM67.2334 36.2738L65.9696 35.5793L67.3017 35.4939L67.5693 35.7102L67.2334 36.2738ZM64.9563 33.325L65.776 32.619L67.3358 35.1979L64.9563 33.325ZM65.776 32.3287L65.3547 31.6342L65.8386 32.2718L65.776 32.3287ZM64.4951 30.0744H64.831L66.6185 31.583L66.0492 32.0953L64.4951 30.0744ZM64.3415 29.8637L64.0909 29.4539L64.5806 29.8637H64.3415ZM64.2219 30.0744L65.6508 32.4312L64.8253 33.1542L64.182 32.6361L63.6583 30.0744H64.2219ZM63.6127 29.8637L63.4419 29.0383L64.0682 29.8637H63.6127ZM63.9259 32.4255L61.0282 30.0744H63.4419L63.9259 32.4255ZM60.7663 29.8524L60.1971 29.4027L59.8271 28.9472L60.5045 27.4216L63.1403 28.6797L63.3794 29.8637L60.7663 29.8524ZM60.4191 27.137L60.0035 26.9377L60.8119 25.9358L60.903 26.0439L60.4191 27.137ZM57.846 25.9073L57.0945 25.5486L56.8497 24.6777H57.1743L57.846 25.9073ZM56.7929 24.4727L56.4854 23.3342L57.0547 24.4272L56.7929 24.4727ZM56.5822 24.4727L56.1552 24.5069L54.1798 22.3095L55.0167 20.6016L56.03 22.4973L56.5822 24.4727ZM53.7757 18.9394H53.8212H53.7757ZM53.9692 18.7571L54.009 18.723L54.0432 18.7856L53.9692 18.7571ZM53.9692 18.2676L53.6732 17.8007L53.992 18.1366L53.9692 18.2676ZM53.861 18.5579L53.7244 18.6888L49.785 17.4308L48.8002 14.6186L53.861 18.5579ZM48.6978 14.277L48.5838 13.9525L53.1381 17.334L53.6333 18.131L48.6978 14.277ZM48.1626 13.3775L47.7698 13.0872L47.7072 13.1726L47.7698 13.0872L45.635 11.5388L46.2043 10.9694L47.4225 11.2712L48.1626 13.3775ZM46.1188 10.719L44.7127 10.3546L42.8968 6.83086L46.5117 10.3205L46.1188 10.719ZM44.7185 10.8955L44.0866 10.4344L44.5419 10.5482L44.7185 10.8955ZM44.9348 11.3053L44.9918 11.4249L43.3807 10.2863L43.5457 10.3262L44.9348 11.3053ZM45.0885 11.7494L44.5192 12.0681L42.5495 10.053L42.8512 10.127L45.0885 11.7494ZM42.9252 9.93341L42.0884 9.32995L42.0371 9.2104L43.096 9.97322L42.9252 9.93341ZM42.356 9.79681H42.2535L42.2194 9.72279L42.356 9.79681ZM42.0941 9.95617L43.005 12.8709L41.8663 13.4743H41.6842L41.4964 13.2693L40.7051 9.71708L42.0941 9.95617ZM41.3939 13.9411L41.7412 15.5692L40.1643 15.1423L39.9821 14.6982L41.3939 13.9411ZM39.9024 14.5104L39.7942 14.2599L41.2971 13.7646L39.9024 14.5104ZM40.8246 16.4118L40.6197 16.2865L40.4944 15.9506L40.8246 16.4118ZM41.1434 16.8672L42.4357 18.6888L42.6691 19.7819L40.9897 17.2429L40.762 16.6281L41.1434 16.8672ZM42.6121 18.575L42.4357 17.6869L44.4794 18.9849L44.5989 19.668L43.597 19.9698L42.6121 18.575ZM43.3749 20.0153L42.948 20.1406L42.726 19.093L43.3749 20.0153ZM45.0543 22.4119L45.1397 23.6416L44.0012 21.8256L45.0543 22.4119ZM44.8267 19.8274L45.4699 19.6339L46.7678 20.4593L46.5287 22.6738L45.2479 22.2923L44.8267 19.8274ZM45.2821 25.97L44.838 26.1464L44.5648 25.5201L45.2422 25.1387L45.2821 25.97ZM44.6444 26.2261L44.1777 26.4139L44.0581 25.8447L44.3655 25.6682L44.6444 26.2261ZM44.7299 26.4197L45.1967 27.3931L44.2972 26.5905L44.7299 26.4197ZM44.9291 26.3399L45.2934 26.1919L45.3675 27.2736L44.9291 26.3399ZM45.356 24.023L45.2821 22.7592L46.2954 24.3019L45.7261 24.615L45.356 24.023ZM45.5496 24.7175L45.4073 24.7972V24.4614L45.5496 24.7175ZM45.6635 24.894L46.1303 25.6284L45.487 25.8902L45.4244 25.0306L45.6635 24.894ZM46.1645 25.8447L45.9538 27.9054L45.6123 27.746L45.4983 26.1066L46.1645 25.8447ZM45.5951 29.2603L45.8001 29.3799L45.6008 31.3495L45.561 31.2187L45.5951 29.2603ZM45.5951 33.7804L46.0905 34.0366L46.9557 37.5718L46.3068 37.9589L45.5895 33.826L45.5951 33.7804ZM46.2669 38.9551L45.5667 39.4105L45.1511 38.8925L46.153 38.3232L46.2669 38.9551ZM46.3068 39.1772V39.1828L45.9993 39.9285L45.6919 39.5529L46.3068 39.1772ZM46.062 40.3612L46.6312 41.05L46.5003 41.3404L45.8229 40.9874L46.062 40.3612ZM46.3921 41.5282L45.3219 43.8509L44.8437 44.0957L44.781 43.4752L45.7261 41.198L46.3921 41.5282ZM46.58 41.625L46.7394 41.7104L46.9501 43.0198L45.6236 43.6971L46.58 41.625ZM46.9273 41.5737L46.8703 41.2095L47.7641 41.5795L47.8609 42.0634L46.9273 41.5737ZM47.9178 42.3252L47.952 42.5074L47.1436 42.923L46.9728 41.83L47.9178 42.3252ZM47.7982 48.3368L47.5023 48.4051L45.2821 46.8282L47.1037 44.1469L47.7982 48.3368ZM47.8381 48.906L45.8514 51.2515L45.6293 51.4848L45.3675 49.0825L47.4396 48.6271L47.8381 48.906ZM45.6578 53.5343L44.6387 53.0561L45.4927 52.0314L45.6578 53.5343ZM45.561 53.7222L44.7754 54.2117L44.3029 54.3427L43.8304 54.0181L44.4964 53.2212L45.561 53.7222ZM43.8531 53.6539L43.8019 53.7164L43.8531 53.6539ZM43.8531 53.3748L43.8873 52.9251L44.1605 53.0561L43.8531 53.3748ZM44.0581 54.4167L43.7621 54.4963V54.2288L44.0581 54.4167ZM44.1605 54.6045L43.7336 54.8721V54.7184L44.1605 54.6045ZM45.7431 56.3636L45.7887 58.931L43.3921 59.3238L43.4717 58.3105L45.7431 56.3636ZM45.7887 59.1417L45.8172 60.5307L43.1416 62.6939L43.3807 59.5344L45.7887 59.1417ZM43.1814 59.358L42.0429 59.5458L43.2611 58.5041L43.1814 59.358ZM43.1814 59.5743L42.9423 62.7224L41.5306 61.5839L41.7867 59.7792L43.1814 59.5743ZM41.2971 61.4529L40.5514 60.8836L41.5078 60.0013L41.2971 61.4529ZM40.3806 60.7299L40.0846 60.5022L41.1263 60.0468L40.3806 60.7299ZM40.8417 64.7149V64.9255L40.466 65.0223L40.8417 64.7149ZM39.4811 65.4891L38.5019 66.2462L37.8018 65.9332L39.4811 65.4891ZM40.0105 65.3525L40.4546 65.2386L38.946 66.4455L38.7183 66.343L40.0105 65.3525ZM40.7791 65.2443L40.5969 67.1912L39.1624 66.5081L40.7791 65.2443ZM40.7791 67.5214L42.5268 68.3127V68.3753L40.5742 69.7302L40.7791 67.5214ZM40.7791 67.3051L40.984 65.1248L42.7488 64.8002L42.5268 68.0906L40.7791 67.3051ZM42.7089 68.4948L42.7886 68.438L44.3428 69.1381L42.6349 69.4399L42.7089 68.4948ZM42.9879 68.2956L45.8798 66.2974L45.9254 68.8535L44.7127 69.0755L42.9879 68.2956ZM45.9139 55.6918L46.062 55.7943L45.9197 55.9138L45.9139 55.6918ZM45.9139 55.4357L45.8855 54.1149L46.1929 54.0296L47.4168 54.633L46.2271 55.652L45.9139 55.4357ZM47.6218 54.7298L48.8059 55.2991L49.1418 57.616L46.4092 55.7545L47.6218 54.7298ZM49.0335 55.4299L49.5459 55.6805L49.6541 57.3882L49.3524 57.6615L49.0335 55.4299ZM49.2385 58.3561L48.7091 58.4471L49.1987 58.0487L49.2385 58.3561ZM49.6712 57.6331V57.9063L49.4549 57.8152L49.6712 57.6331ZM49.7053 58.1397V58.282L49.4321 58.3219L49.3922 58.0145L49.7053 58.1397ZM49.7053 58.5724L49.7508 60.8494L49.4776 58.7147L49.7053 58.5724ZM49.5687 53.1016L54.6353 52.7885L50.9748 56.1472L49.7395 55.5381L49.5687 53.1016ZM54.9654 52.7658H55.3583L55.7852 54.0921L52.0394 56.7051L51.1626 56.2725L54.9654 52.7658ZM52.0622 56.9215L53.9692 57.8608L50.4113 58.2023L50.2917 58.1568L52.0622 56.9215ZM54.8686 60.2404L58.0282 61.5212L56.4626 62.5801L50.3202 63.2006L54.8686 60.2404ZM56.6904 62.7679L58.3981 62.6028L51.2139 67.2083L50.6446 66.9749L56.6904 62.7679ZM58.5348 62.7679L58.5974 62.9957L57.8516 67.2538L52.6257 67.8231L51.4189 67.3108L58.5348 62.7679ZM58.0224 67.4417L59.7303 67.1229L59.8157 67.4303L59.8954 69.4854L58.5974 70.3792L57.2198 69.8099L58.0224 67.4417ZM59.8271 62.1531V61.9539L60.8688 61.322L61.9391 61.8913L59.9523 62.1702L59.8271 62.1531ZM62.2465 62.1019L64.3073 63.2404L63.3566 63.8381L60.2939 62.3865L62.2465 62.1019ZM64.5236 63.3429L66.0037 64.1513L65.611 64.8913L63.5843 63.9293L64.5236 63.3429ZM65.702 65.1646L66.0094 65.3126L65.4402 65.7054L65.702 65.1646ZM67.239 65.6656L67.9507 65.5062L67.5351 65.8022L67.239 65.6656ZM66.926 65.5175L66.4421 65.2842L67.1879 64.8002L67.9962 65.2386V65.2784L66.926 65.5175ZM67.8539 64.379L70.5807 62.5971L70.6718 63.0468L68.3947 65.2159L68.1898 65.1019L67.8539 64.379ZM70.7002 63.2917L70.8654 64.1285L69.2201 65.6941L68.5484 65.3297L70.7002 63.2917ZM70.9165 64.3676L71.4175 66.8952L69.4136 65.8022L70.9165 64.3676ZM70.8995 63.0925L73.3872 60.7299L73.3189 60.656L73.4043 60.7186L73.615 60.4169L74.4006 60.7584L71.0646 63.9293L70.8995 63.0925ZM74.1443 59.6768L75.1349 58.2763L75.5504 58.5667L74.5827 60.5022L74.1443 59.6768ZM78.1692 60.4965L78.7384 63.0355L76.7858 61.897L78.1692 60.4965ZM78.4083 60.599L82.5981 64.5554L83.1219 65.5858L79.0003 63.1835L78.4083 60.599ZM78.3456 60.2517L79.0345 57.5306L82.3135 63.9976L78.3456 60.2517ZM78.9661 56.9385L78.0154 55.0657L79.154 56.1359L78.9661 56.9385ZM78.8922 57.2516L78.209 59.933L76.894 56.3522L77.6568 54.8209L78.8922 57.2516ZM77.6454 53.039L77.5372 51.5361L78.0041 52.0029L77.6454 53.039ZM77.7536 51.4109L78.3627 51.0579L78.1065 51.7638L77.7536 51.4109ZM77.4804 50.7675L77.3608 49.1508L78.1976 50.7392L77.4804 50.7675ZM77.4804 53.5172L77.3494 53.8815L76.3247 52.2306L77.338 51.6614L77.4804 53.5172ZM76.2166 52.0485L75.6074 51.0693L77.059 51.001L77.3096 51.2572V51.4165L76.2166 52.0485ZM77.1388 50.7847L74.5713 48.2059L75.7099 47.5455L76.9794 48.4335L77.116 48.6897L77.2697 50.779L77.1388 50.7847ZM75.9148 47.4259L76.2735 47.221L76.6378 47.7903L76.7687 48.0294L75.9148 47.4259ZM75.9603 45.9458L78.1976 45.8604L76.4613 46.8681L75.9603 45.9458ZM76.1596 47.0445L75.727 47.295L73.9052 46.0255L75.4538 45.9629L76.1596 47.0445ZM73.8825 43.1564L73.928 42.6441L75.5733 45.7466L73.8825 43.1564ZM73.9452 42.2285L73.854 42.2797L73.9394 42.2227L72.9546 40.6971L76.4784 40.6686L73.9565 42.2455L73.9452 42.2285ZM72.5276 40.5206L70.5636 38.0443L70.1424 37.2587L70.3872 37.0822L72.5618 40.4467L72.5276 40.5206ZM69.4877 35.3971L72.8065 35.1808L70.4498 36.8886L69.4877 35.3971ZM70.2733 36.9057L70.0399 37.0708L69.1063 35.3231H69.2429L70.2733 36.9057ZM68.9981 35.1238L68.4289 34.0479L69.1234 35.1125L68.9981 35.1238ZM68.7648 35.1238H68.3719L67.592 34.0934L67.3245 32.3857L68.7648 35.1238ZM67.3928 34.2074L67.5351 35.1125L65.9184 32.4482L66.0037 32.3742L67.3928 34.2074ZM66.1575 32.2376L66.7836 31.6684L67.0227 31.8733L67.3245 33.7462L66.1575 32.2376ZM65.9069 30.0744H68.3207L66.869 31.3439L65.9069 30.0744ZM66.1973 30.9454L65.1612 30.0744H65.4458L66.1973 30.9454ZM64.905 29.8637L63.7665 28.8846L62.1554 26.2261L65.2807 29.8637H64.905ZM61.6203 25.3095L61.5008 25.0819L61.6943 24.8428L65.0701 29.3229L61.6203 25.3095ZM61.3926 24.8826L61.1136 24.3531H61.3128L61.5634 24.6833L61.3926 24.8826ZM60.4305 24.1938L56.7017 20.835L55.7909 19.7705L58.7967 21.706L60.5444 24.1823L60.4305 24.1938ZM55.6087 19.4061L55.6942 19.2297L57.2369 20.4593L55.6087 19.4061ZM56.5538 20.966L59.4002 24.2621L57.3109 24.4214L56.2406 22.4233L55.5917 20.0836L56.5538 20.966ZM55.7682 21.575L55.1305 20.3967L55.3241 19.9982L55.7682 21.575ZM55.4323 19.281L55.3184 19.2069V19.1557H55.5119L55.4323 19.281ZM55.1818 18.9451L55.085 18.7628L55.3355 18.9507L55.1818 18.9451ZM55.1818 19.3663V19.446L55.0565 19.3321L55.1818 19.3663ZM55.2273 19.7477L55.0337 20.1462L54.5043 19.1557H54.5727L55.2273 19.7477ZM54.4531 18.2676L54.7263 18.4782L54.8288 18.6661L54.4531 18.2676ZM54.2937 17.8919L54.3279 17.7097L54.5043 18.0513L54.2937 17.8919ZM54.2311 17.0778L52.4606 13.6622L54.3905 16.0132L54.2311 17.0778ZM54.1741 17.408L54.1058 17.7552L53.6106 17.3852L53.1665 16.9184L50.3202 12.3642L51.8344 12.9961L54.1741 17.408ZM50.1437 12.0738L48.601 9.60886L50.3088 11.3167L51.5441 12.6203L50.1437 12.0738ZM49.8135 11.943L47.5591 11.0662L47.0297 10.0415L47.9576 9.04532L49.8135 11.943ZM46.9671 9.82519L45.2592 6.55189L47.8552 8.86881L46.9671 9.82519ZM42.1339 5.77767L39.8967 3.61442L41.2117 3.97876L42.1339 5.77767ZM41.2971 3.81935L40.5912 2.44171L42.5153 4.14954L41.2971 3.81935ZM41.0239 3.74535L39.5893 3.31839L39.2477 2.64665L40.2439 2.11722L41.0239 3.74535ZM42.3787 6.37541L44.3883 10.2863L43.614 10.0985L41.8663 8.82327L39.7772 3.84782L42.3787 6.37541ZM41.7355 9.08514L40.8588 8.44186L40.4603 8.06616L41.707 8.9713L41.7355 9.08514ZM40.7278 8.59561L41.8663 9.70002L40.631 9.50646L40.3692 8.36785L40.7278 8.59561ZM40.4774 9.69431L41.2003 12.9961L37.8814 9.29575L40.4774 9.69431ZM40.6595 12.6773L38.1377 10.2123L37.9099 9.64306L40.6595 12.6773ZM41.2573 13.5654L39.7373 14.0721L38.3426 10.719L41.2573 13.5654ZM39.6178 14.3282L39.6918 14.5104L39.5723 14.3453L39.6178 14.3282ZM39.5494 14.9601L40.022 15.3074L40.3294 16.11L40.1643 16.0076L39.4925 14.9885L39.5494 14.9601ZM40.0048 16.1555L40.7905 17.3454L41.3939 18.9507L39.9764 16.1043L40.0048 16.1555ZM41.2971 18.1196L42.7089 20.2544L42.2194 20.5731L41.2971 18.1196ZM42.7829 20.4593L42.8911 21.0286L42.373 20.7439L42.7829 20.4593ZM42.948 21.2791L43.2441 22.7592L42.4357 20.966L42.948 21.2791ZM43.4091 23.6074L43.671 24.9224L42.8171 22.3493L43.4091 23.6074ZM43.6084 23.5391L43.1871 21.41L43.5856 21.6263L45.1568 24.0856L45.2137 24.9111L44.4623 25.338L43.6084 23.5391ZM44.2801 25.4405L44.0182 25.5884L43.7906 24.3816L44.2801 25.4405ZM43.7963 25.9585L44.0012 26.579L44.3257 28.2869L42.0486 26.9719L43.7963 25.9585ZM44.3086 26.8751L45.413 27.8599V28.9017L44.8152 28.5544L44.3086 26.8751ZM45.3902 29.1521V30.5355L44.9006 28.8277L45.3902 29.1521ZM44.616 28.7081L45.356 31.2528V32.5507L44.6387 28.7081H44.616ZM45.5041 34.6286L46.1075 38.0898L45.1113 38.659L45.5041 34.6286ZM45.3845 39.5414L45.0088 39.7805L45.0714 39.1487L45.3845 39.5414ZM45.5155 39.7065L45.9082 40.1904L45.6123 40.902L44.9405 40.5548L44.986 40.0481L45.5155 39.7065ZM45.5155 41.1013L44.7127 43.0368V42.9856L44.9177 40.7654L45.5155 41.1013ZM44.7185 45.0862L44.4623 45.6554L44.5704 44.4543L44.6444 44.4144L44.7185 45.0862ZM44.5932 44.1981V44.033V44.1868V44.1981ZM44.6616 40.384L44.5192 40.31L44.6844 40.2076L44.6616 40.384ZM44.6274 40.606L44.5306 41.3631L44.4338 40.5092L44.6274 40.606ZM44.764 45.4904L44.8778 46.5265L44.4338 46.2077L44.764 45.4904ZM44.8494 44.3063L45.1568 44.1469L44.8893 44.7162L44.8494 44.3063ZM45.4585 43.9932L46.9614 43.2304L47.0582 43.8338L45.1113 46.6802L44.9405 45.1089L45.4585 43.9932ZM45.1682 46.9932L47.2062 48.4506L45.339 48.8662L45.1397 47.0274L45.1682 46.9932ZM45.1682 49.1167L45.4472 51.6728L44.3086 52.8796L43.9044 52.686L44.1834 49.3444L45.1682 49.1167ZM43.9613 49.1679L43.654 49.2363L44.0012 48.7296L43.9613 49.1679ZM44.0354 48.3027L43.6027 48.9459L43.8646 47.3406L44.1663 46.7713L44.0354 48.3027ZM43.9443 49.3899L43.6767 52.595L43.005 52.2761L43.5002 49.481L43.9443 49.3899ZM42.8057 52.1908L42.003 51.8151L43.2041 49.9023L42.8057 52.1908ZM42.7659 52.4071L42.6748 52.9309L41.8208 52.0997L41.8892 51.9915L42.7659 52.4071ZM42.8114 53.3578L43.3294 53.8588L42.5894 54.6273L42.8114 53.3578ZM42.6178 55.003L42.504 55.1396V55.0315L42.6178 55.003ZM42.9992 54.9005L43.4832 54.7639V54.9917L42.4357 55.6918V55.5609L42.9992 54.9005ZM43.449 55.2535L43.2213 58.191L41.781 59.4263L42.3503 55.9253L43.449 55.2535ZM42.2421 55.4299L41.559 56.1814L41.3483 56.3123L42.2649 55.2933L42.2421 55.4299ZM40.7278 56.7222L39.5438 57.4623L39.9707 56.244L42.0144 55.2763L40.7278 56.7222ZM40.2269 57.2915L39.2022 58.4301L39.4298 57.7697L40.2269 57.2915ZM40.8644 56.893L41.0637 56.7677L38.9801 59.1075L39.0257 58.9766L40.8644 56.893ZM41.707 56.3693L42.1396 56.096L41.5704 59.6426L39.908 60.3656L38.872 59.5458L41.707 56.3693ZM40.2155 60.8894L37.6196 63.2859L38.2515 61.3049L39.8569 60.6047L40.2155 60.8894ZM38.0807 61.1512L36.9422 61.6351L38.4279 59.9898L38.0807 61.1512ZM36.4981 61.8343L36.4298 61.8685L38.5987 59.4377V59.5174L36.4981 61.8343ZM37.1756 63.9748L36.7429 65.4265L35.9914 65.0906L37.1756 63.9748ZM37.4715 66.0128L38.297 66.3829L36.0939 68.0906L36.6632 66.2348L37.4715 66.0128ZM42.2762 71.8251L40.5058 70.8289L40.5343 70.0034L42.4243 69.6675L42.2762 71.8251ZM40.8872 69.7302L42.4926 68.6201L42.4357 69.4512L40.8872 69.7302ZM42.4869 71.8024L42.6349 69.6277L44.69 69.2634L45.7831 69.7587L42.4869 71.8024ZM45.0543 69.1951L45.9367 69.0413V69.6107L45.0543 69.1951ZM45.9139 56.1928L46.2328 55.9196L49.0792 57.8664L48.2935 58.5382L45.9765 58.9139L45.9139 56.1928ZM45.9652 59.1132L47.9463 58.7887L45.988 60.3656L45.9652 59.1132ZM45.9937 60.6331L48.3675 58.7147L49.267 58.5382V58.6179L46.0107 61.043L45.9937 60.6331ZM46.0563 64.1627L49.4719 63.5422L47.1948 65.1134L46.0563 64.4986V64.1627ZM46.0563 64.732L46.9842 65.2386L46.079 65.8648L46.0563 64.732ZM46.136 68.9958L47.2745 68.7909L46.8533 69.0755L46.1303 69.5195L46.136 68.9958ZM46.9216 70.0547L46.2555 69.7416L46.9785 69.252L47.895 68.6828L49.2955 68.4322L46.9216 70.0547ZM49.3979 71.2274L47.1209 70.1572L49.6142 68.4493L49.3979 71.2274ZM49.6541 68.1533L48.3789 68.381L49.6712 67.5841L49.6541 68.1533ZM49.6825 67.1685L47.7129 68.5005L46.1303 68.7852L46.0847 66.1153L47.1892 65.3525L49.694 66.7245L49.6825 67.1685ZM49.6825 66.4854L47.3656 65.2159L49.8363 63.5478L49.6825 66.4854ZM46.0278 63.9464L45.9765 61.3276L49.2613 58.8855L49.7623 62.8249V63.2632L46.0278 63.9464ZM49.7224 55.783L50.7756 56.301L49.8363 57.1776L49.7224 55.783ZM49.8306 57.4509L50.9691 56.4035L51.8174 56.819L50.0298 58.0657L49.859 57.9917L49.8306 57.4509ZM49.8704 67.4474L50.3145 67.1742L50.3713 67.7434L49.8533 68.0736L49.8704 67.4474ZM50.1779 68.0906L50.3941 67.9483V68.0622L50.1779 68.0906ZM50.0526 63.434L56.0983 62.8249L50.4796 66.6277L50.0526 63.434ZM50.5251 67.1627L50.9463 67.345L50.5706 67.5841L50.5251 67.1627ZM50.5934 67.8174L51.1626 67.4417L52.1589 67.863L50.5991 68.0394L50.5934 67.8174ZM51.026 71.8024L50.6389 68.2557L52.5688 68.0394L55.0793 69.104L51.026 71.8024ZM55.29 68.956L53.0128 67.9825L57.5158 67.4816L55.29 68.956ZM55.5176 69.0527L57.7208 67.5841L57.0148 69.6903L55.5176 69.0527ZM57.1401 69.9693L58.3868 70.4987L56.5366 71.7739L57.1401 69.9693ZM56.9237 71.7625L58.6316 70.5954L59.588 71.0053L56.9237 71.7625ZM59.8499 70.8915L58.8195 70.4531L59.8954 69.7131L59.9409 70.8517L59.8499 70.8915ZM59.8157 62.415H59.8897L63.1232 63.9464L59.9523 65.9388L59.8157 62.415ZM59.9637 66.1665L63.3452 64.0431L65.48 65.0564L65.036 65.899L59.9922 66.8383L59.9637 66.1665ZM59.9979 67.0489L64.6374 66.1836L60.4817 69.03L60.0149 67.3221L59.9979 67.0489ZM60.0491 68.2899L60.2939 69.178L60.089 69.3203L60.0491 68.2899ZM60.1003 69.5708L60.3565 69.3943L60.6468 70.4475L60.1458 70.7264L60.1003 69.5708ZM60.1686 71.2786L60.3053 71.3355L60.1743 71.4665L60.1686 71.2786ZM60.254 71.8479L60.6639 71.4665L60.8176 71.5291L60.254 71.8479ZM60.8233 71.2786L60.8688 71.2388V71.3071L60.8233 71.2786ZM60.9087 70.5898V70.5215L61.347 70.2767L61.0681 70.5499L60.9087 70.5898ZM61.1079 71.3185L61.0454 71.0794L61.5292 70.6183L67.5636 66.0128L68.3549 66.3886L61.1079 71.3185ZM67.7514 65.8705L68.1271 65.5858L68.3662 66.1551L67.7514 65.8705ZM68.3207 65.455L68.3832 65.4037L69.0664 65.7794L68.6281 66.195L68.3207 65.455ZM69.4592 68.6429L68.759 66.5821L70.7344 67.5783L69.4592 68.6429ZM70.9109 67.4303L68.759 66.3487L69.2486 65.8819L71.372 67.0489L70.9109 67.4303ZM71.1158 67.5328L71.4687 67.2425L71.4972 67.7264L71.1158 67.5328ZM71.1158 64.1172L74.5315 60.8494L75.4366 62.9102L71.6225 66.8041L71.1158 64.1172ZM71.7363 67.8231L71.7022 67.2197L75.5846 69.7587L71.7363 67.8231ZM77.2413 70.5954L71.7477 66.9977L75.5504 63.1152L79.2849 71.6543L77.2413 70.5954ZM79.5183 71.6316L75.7042 62.9558L76.6492 61.9938L78.8182 63.2632L80.4178 70.2255L79.5183 71.6316ZM80.5715 69.9807L79.0629 63.4055L83.23 65.8364L80.5715 69.9807ZM83.2642 65.3467L83.0479 64.9198L83.2585 65.1248L83.2642 65.3467ZM83.2642 64.8287L82.7746 64.3676L79.1256 57.1663L79.3589 56.244L81.6702 58.3902L83.2243 62.3296L83.2642 64.8287ZM83.2186 61.7375L82.0231 58.7204L83.1617 59.802L83.2186 61.7375ZM82.8771 59.2327L81.8467 58.2706L80.5772 55.151L82.8771 59.2327ZM81.488 57.9689L79.4387 56.0448L79.951 54.0238L81.488 57.9689ZM79.2394 55.8797L77.7707 54.5077L77.6967 53.5172L78.2033 52.1225L79.7916 53.7107L79.2394 55.8797ZM79.4842 53.1074L78.3001 51.9062L78.5278 51.2799L79.4842 53.1074ZM78.4709 50.5684L77.3323 48.3937L77.2583 48.4335L77.3266 48.3937L76.5866 47.0332L78.5335 45.8945L78.4709 50.5684ZM78.4709 45.6213L75.8522 45.7238L74.0476 42.4106L76.7858 40.7028L78.4709 45.6213ZM76.6492 40.4409L72.8123 40.475L70.5351 36.9854L73.1139 35.1296L76.6492 40.4409ZM72.9375 34.8905L69.3511 35.1296L67.2106 31.8221L67.1252 31.879L67.2049 31.8164L66.9999 31.5431L68.5882 30.1427L72.9375 34.8905ZM62.1213 24.3361L68.3321 29.8922H65.7589L61.8423 24.6947L62.1213 24.3361ZM61.7114 24.5126L61.5747 24.3304H61.8765L61.7114 24.5126ZM61.8367 24.097L61.421 24.1311L60.7436 23.2431L61.8367 24.097ZM61.1762 24.1482H61.0169L60.624 23.4082L61.1762 24.1482ZM59.9523 22.6055L60.6525 23.9432L59.3489 22.1045L59.9523 22.6055ZM59.383 21.8313L59.0586 21.6263L58.9447 21.5352L58.0566 20.2772L59.383 21.8313ZM54.6523 15.8424L55.2216 16.6622L54.6238 15.9564L54.6523 15.8424ZM56.548 18.5352L58.3356 21.0685L55.7225 18.9962L55.6542 19.076L55.7169 18.9906L54.8629 18.3587L54.3905 17.3966L54.6068 16.2182L56.548 18.5352ZM54.4815 15.6148V15.7514L53.5708 14.7039L54.4815 15.6148ZM53.2519 14.0721L51.7946 12.5976L49.4207 9.2787L53.2519 14.0721ZM50.861 11.6469L50.417 11.2029L48.0089 8.65248L47.3713 6.7739L50.861 11.6469ZM47.6446 8.23125L45.8514 5.65812L46.9899 6.22739L47.6446 8.23125ZM46.6142 5.81182L45.5724 5.30517L43.2099 1.96351L46.6142 5.81182ZM41.2288 -0.268051L41.9233 0.511862L45.1796 5.11162L44.2289 4.6505L41.1719 -0.0972633L41.2288 -0.268051ZM40.5798 -1.00241L41.0751 -0.433133L41.0239 -0.302201L40.5798 -1.00241ZM41.0751 0.136137L43.5742 4.00153L40.6766 1.15515L41.0751 0.136137ZM40.5912 1.39423L43.7906 4.50818L42.9935 4.28617L40.3806 1.95213L40.5912 1.39423ZM39.2875 0.124754L40.4261 1.2633L40.2326 1.76996L39.2875 0.124754ZM37.9554 0.19876L40.0675 1.96351L39.1168 2.46448L37.9554 0.19876ZM39.1339 2.95406L38.9517 2.78897L39.02 2.74911L39.1339 2.95406ZM38.7525 2.89144L39.1509 3.25008L38.3311 3.11915L38.7525 2.89144ZM38.0237 3.27855L39.4128 3.50626L41.5476 8.58418L40.187 7.5994L39.2477 6.90488L36.3615 4.16662L38.0237 3.27855ZM37.6822 3.22162L36.1964 4.00722L34.8984 2.77189L37.6822 3.22162ZM34.8984 3.06222L36.0028 4.10969L35.6897 4.27478L35.3368 4.01291L34.8984 3.06222ZM34.1299 5.20839L35.2685 4.72451L36.1794 7.57092L34.4715 5.77767L34.1299 5.20839ZM34.8416 6.47787L35.9061 7.57092H35.4621L34.8416 6.47787ZM35.4791 8.05473L35.8946 8.8347L35.4336 8.77774L35.4791 8.05473ZM35.5531 8.99978L36.0142 9.05675L37.0333 10.9694L35.5531 8.99978ZM36.2704 9.09085L36.6917 9.1421L37.3122 11.0321L36.2704 9.09085ZM37.3122 11.6982L37.6651 12.1706L37.705 12.2959L37.3122 11.6982ZM37.8814 12.0681L37.0162 9.39253L37.9726 10.3319L39.5381 14.1347L39.4356 14.1689L37.8814 12.0681ZM38.4109 13.7077L38.9403 14.5161L39.1566 14.9317L38.855 15.091L38.4109 13.7077ZM38.9801 15.4782L39.6633 15.9108L42.1112 20.7781L43.7735 25.765L41.929 26.8181L38.9801 15.4782ZM44.4338 40.1619L42.003 27.1825L44.4225 28.5658L45.3617 33.5869L44.9177 38.8526L44.7697 39.9456L44.4338 40.1619ZM44.3996 44.5682V44.7788V44.5852V44.5682ZM44.4395 46.4468L44.9576 46.8168V46.9876L44.2972 47.9611L44.4395 46.4468ZM45.0088 47.3064L45.1853 48.9232L44.2175 49.1338L44.2801 48.388L45.0088 47.3064ZM44.2062 45.5018L44.246 46.2304L44.0126 46.6802L44.2062 45.5018ZM43.9898 45.5018L43.7052 47.2608L42.225 50.1072L43.9898 45.5018ZM43.5913 47.9269L43.3579 49.3387L42.0088 50.9839L43.5913 47.9269ZM42.4528 50.7733L41.8436 51.7354L41.7127 51.6728L42.4528 50.7733ZM41.7297 51.9119V51.9517L41.6159 51.8435L41.7297 51.9119ZM41.4793 52.0314L41.5874 52.1338L41.2573 52.6633L41.4793 52.0314ZM41.7412 52.2876L42.6634 53.187L42.3673 54.8949L40.0903 55.9708L40.9384 53.5684L41.7412 52.2876ZM40.8759 53.1074L40.7506 53.4603L40.3236 54.1377L40.8759 53.1074ZM40.4375 54.354L39.8284 56.0619L39.1396 56.392L40.4375 54.354ZM38.9574 56.7279L39.7259 56.3636L39.2819 57.6331L38.9061 57.8664L38.9574 56.7279ZM38.8948 58.1227L39.168 57.9519L38.8606 58.8343L38.8948 58.1227ZM38.7752 59.7166L39.6918 60.4396L38.3596 61.0089L38.7752 59.7166ZM38.7297 57.1435L38.6898 58.0031L38.1205 58.3674L38.7297 57.1435ZM37.8814 58.7375L38.6443 58.265L38.6044 59.0904L36.4868 61.4643L37.8814 58.7375ZM36.925 60.1493L35.9346 62.0848L35.4791 62.6541L36.925 60.1493ZM34.5683 64.4644L34.5113 64.3221L35.3311 63.4169L34.8131 64.5554L34.5683 64.4644ZM34.7276 64.7661V64.8287L34.6935 64.7433L34.7276 64.7661ZM34.6764 65.3809L34.8416 65.8249L34.2267 66.3942L34.6764 65.3809ZM34.295 66.6105L34.9212 66.0413L35.0578 66.417L34.295 66.6105ZM35.0863 65.8819L35.7808 65.2443L36.6347 65.6314L36.5095 66.0299L35.2628 66.3601L35.0863 65.8819ZM35.3311 66.5537L36.4298 66.269L35.8605 68.0223L35.3311 66.5537ZM35.7353 69.252L36.3672 68.7454L38.9233 70.1799L35.2002 71.1306L35.7353 69.252Z" fill="white"/>
</g>
<path d="M58.0824 78.1784C39.1369 77.5749 37.6625 56.8304 37.6625 56.8304L37.4917 56.8704C37.4917 56.8704 36.097 77.5863 17.1514 78.1897L16.0869 80H59.1469L58.0824 78.1784Z" fill="white"/>
</svg>
