<svg width="77" height="80" viewBox="0 0 77 80" fill="none" xmlns="http://www.w3.org/2000/svg">
<path d="M48.6045 40H76.907C68.4351 29.2607 58.0116 20.2172 46.1843 13.3446V35.6639C47.7978 36.9412 48.6045 38.4874 48.6045 40Z" fill="url(#paint0_linear_3166_406)"/>
<path d="M48.6051 40C48.6051 41.5126 47.7984 43.0253 46.1514 44.3026V66.6219C57.992 59.7688 68.4189 50.7224 76.8741 39.9664L48.6051 40Z" fill="url(#paint1_linear_3166_406)"/>
<path d="M21.9154 55.3615L7.6969 80.0001C21.2609 78.0522 34.3257 73.5221 46.1842 66.6556L26.9238 55.5295C24.9406 56.269 23.2263 56.2018 21.9154 55.3615Z" fill="#D61F2B"/>
<path d="M19.5967 51.3277L5.49221e-05 40C-0.0137829 53.6995 2.58738 67.2756 7.66393 80L21.8824 55.3613C20.7059 54.5882 19.8992 53.2101 19.5967 51.3277Z" fill="url(#paint2_linear_3166_406)"/>
<path d="M21.8825 24.6387L7.69758 0C2.5942 12.7174 -0.0189689 26.2968 0.000103653 40L19.5967 28.6723C19.8656 26.7899 20.706 25.4118 21.8825 24.6387Z" fill="url(#paint3_linear_3166_406)"/>
<path d="M26.8911 24.4706L46.1516 13.3445C34.2952 6.47318 21.2294 1.94293 7.66418 0L21.8827 24.6387C23.2272 23.7983 24.9415 23.6975 26.8911 24.4706Z" fill="url(#paint4_linear_3166_406)"/>
<path d="M28.269 25.1429L44.9413 34.8908C45.3894 35.1598 45.7927 35.4287 46.1514 35.6976V13.3782L26.8909 24.5042C27.3686 24.6751 27.8299 24.8888 28.269 25.1429Z" fill="url(#paint5_linear_3166_406)"/>
<path d="M19.4958 49.7814V30.1847C19.4936 29.6788 19.5273 29.1733 19.5966 28.6721L0 39.9999L19.5966 51.3276C19.5285 50.815 19.4948 50.2984 19.4958 49.7814Z" fill="#ED1B31"/>
<path d="M44.9754 45.1092L28.303 54.8571C27.8609 55.1149 27.4002 55.3398 26.9248 55.5294L46.1854 66.6554V44.3025C45.8086 44.6094 45.4036 44.8796 44.9754 45.1092Z" fill="url(#paint6_linear_3166_406)"/>
<defs>
<linearGradient id="paint0_linear_3166_406" x1="62.2549" y1="42.3193" x2="57.3877" y2="11.5698" gradientUnits="userSpaceOnUse">
<stop stop-color="#ED1B34"/>
<stop offset="1" stop-color="#D4202A"/>
</linearGradient>
<linearGradient id="paint1_linear_3166_406" x1="52.8505" y1="68.7967" x2="63.6169" y2="35.6605" gradientUnits="userSpaceOnUse">
<stop stop-color="#CF2029"/>
<stop offset="1" stop-color="#AA1F23"/>
</linearGradient>
<linearGradient id="paint2_linear_3166_406" x1="18.1177" y1="75.563" x2="2.5614" y2="38.9143" gradientUnits="userSpaceOnUse">
<stop stop-color="#951B1E"/>
<stop offset="1" stop-color="#CB2028"/>
</linearGradient>
<linearGradient id="paint3_linear_3166_406" x1="2.05725" y1="40.9176" x2="18.1951" y2="4.67227" gradientUnits="userSpaceOnUse">
<stop stop-color="#E11E2D"/>
<stop offset="1" stop-color="#B21F25"/>
</linearGradient>
<linearGradient id="paint4_linear_3166_406" x1="7.66418" y1="12.3193" x2="46.1516" y2="12.3193" gradientUnits="userSpaceOnUse">
<stop stop-color="#A31E22"/>
<stop offset="1" stop-color="#931A1D"/>
</linearGradient>
<linearGradient id="paint5_linear_3166_406" x1="36.1783" y1="35.0018" x2="37.7312" y2="12.7899" gradientUnits="userSpaceOnUse">
<stop stop-color="#DD1F2C"/>
<stop offset="1" stop-color="#AA1F23"/>
</linearGradient>
<linearGradient id="paint6_linear_3166_406" x1="43.7216" y1="67.6504" x2="35.9569" y2="48.4336" gradientUnits="userSpaceOnUse">
<stop stop-color="#ED1B35"/>
<stop offset="1" stop-color="#DB1F2B"/>
</linearGradient>
</defs>
</svg>
