<svg width="63" height="80" viewBox="0 0 63 80" fill="none" xmlns="http://www.w3.org/2000/svg">
<path d="M49.6584 20.8168C52.7305 18.5769 55.0732 15.5459 56.45 12.1038C51.6209 9.32956 45.6717 8.56923 40 10.542C39.774 10.6139 39.5685 10.7269 39.3527 10.8091C37.8731 6.58618 34.7495 2.87696 31.441 0C28.1325 2.86668 24.9782 6.58618 23.4986 10.8091C23.2828 10.7269 23.0773 10.6242 22.8513 10.542C17.1796 8.56923 11.2304 9.32956 6.40123 12.1038C7.77806 15.5459 10.1207 18.5872 13.1929 20.8168C4.16132 25.0501 0 33.2186 0 40.6165C0 49.6686 6.46288 58.1454 14.4259 67.3414C21.3203 75.3044 23.2314 80 31.4308 80C39.6301 80 41.531 75.3044 48.4357 67.3414C56.3987 58.1454 62.8615 49.6686 62.8615 40.6165C62.8615 33.2186 58.7002 25.0501 49.6686 20.8168H49.6584Z" fill="#FF3F13"/>
<path d="M45.5996 36.219C42.4452 33.0646 36.5166 31.8625 31.4203 35.0169V17.1694L17.5903 33.7222C12.3399 38.9727 13.3879 45.4047 17.241 49.2578C20.3954 52.4122 26.3239 53.6143 31.4203 50.46V68.3074L45.2502 51.7546C50.511 46.5041 49.4526 40.0721 45.5996 36.219Z" fill="white"/>
</svg>
