<svg width="69" height="80" viewBox="0 0 69 80" fill="none" xmlns="http://www.w3.org/2000/svg">
<path d="M45.082 70.1675C42.3174 67.0518 40.8899 62.9733 41.1081 58.8136L41.1989 57.735L42.2605 58.0132C42.3627 58.0132 53.149 60.8516 58.5023 56.083C63.6797 51.4449 65.5872 40.6473 58.9338 29.7646C52.6096 19.4041 37.3613 8.6349 34.3809 6.57983C31.3608 8.65193 16.1294 19.4211 9.78828 29.7816C3.13487 40.6643 5.04233 51.4619 10.2197 56.1C15.5731 60.8914 26.3593 58.0529 26.4615 58.0302L27.5231 57.752L27.614 58.8306C27.8244 62.9943 26.3865 67.0733 23.6117 70.1846C19.8819 74.255 13.9608 76.3384 5.94497 76.3384V80.0001C15.0281 80.0001 21.8405 77.5192 26.3139 72.6484C28.0894 70.7733 29.455 68.5491 30.3239 66.1174C31.1927 63.6857 31.5459 61.0997 31.3608 58.5241C31.2684 56.71 31.0789 54.9021 30.7931 53.1083L25.5362 54.4991C23.2257 55.1009 15.8853 56.2022 12.6779 53.3637C8.60747 49.7248 7.30744 40.8744 12.9163 31.6947C17.9631 23.4404 29.283 14.7376 34.3525 11.0873C39.4277 14.7603 50.7476 23.4404 55.7717 31.6947C61.3806 40.8857 60.0805 49.7248 56.0101 53.3637C52.814 56.2022 45.4623 55.1009 43.1518 54.4991L37.9233 53.1083C37.6375 54.9021 37.448 56.71 37.3556 58.5241C37.1669 61.0937 37.514 63.6745 38.375 66.1029C39.2359 68.5313 40.5919 70.7544 42.357 72.6314C46.8078 77.5022 53.6485 79.983 62.726 79.983V76.3214C54.7499 76.3214 48.8118 74.2379 45.082 70.1675Z" fill="#BA141A"/>
<path d="M62.1357 60.1759C69.1354 53.9312 71.8887 40.4654 63.606 26.9031C55.9705 14.4309 37.6566 2.19699 36.8845 1.70309L34.3526 0L31.8263 1.70309C31.0543 2.21969 12.7404 14.4536 5.10484 26.9429C-3.17786 40.4825 -0.43021 53.9312 6.57517 60.1759C10.7477 63.9056 16.5042 64.5528 21.0174 64.3541C20.6065 65.1459 20.0889 65.8775 19.4789 66.5284C16.8391 69.3669 12.2862 70.8088 5.96206 70.8088V74.4648C13.4046 74.4648 18.8942 72.6084 22.2493 68.9241C24.4357 66.4729 25.695 63.3336 25.8087 60.051C22.7034 60.6981 14.0631 61.9527 9.02194 57.4452C3.14628 52.2281 0.989032 40.6868 8.23852 28.8333C15.488 16.9798 33.1093 5.23416 33.853 4.72891L34.3526 4.39397L34.8578 4.72891C35.6015 5.23416 53.2626 17.0195 60.4723 28.8333C67.682 40.6471 65.5816 52.2111 59.6889 57.4623C54.6477 61.9698 46.0074 60.7152 42.9021 60.068C43.0159 63.3506 44.2752 66.4899 46.4615 68.9411C49.811 72.6254 55.3063 74.4818 62.7488 74.4818V70.8258C56.4246 70.8258 51.8717 69.3782 49.2319 66.5454C48.622 65.8945 48.1043 65.1629 47.6934 64.3711C52.201 64.5698 57.9631 63.9227 62.1357 60.1759Z" fill="#BA141A"/>
</svg>
