<svg width="79" height="80" viewBox="0 0 79 80" fill="none" xmlns="http://www.w3.org/2000/svg">
<path d="M7.69738 0.285098C5.70451 0.669687 3.43194 2.03323 2.10335 3.64151C-0.134257 6.3686 -0.0643313 4.86521 0.0405567 40.667C0.145445 71.574 0.180407 73.2172 0.809736 74.371C1.71877 76.0842 3.7466 78.147 5.38985 79.021C6.78835 79.7902 6.96317 79.7902 29.1645 79.8951L51.5056 80L53.7432 78.8812C56.0508 77.7624 57.729 75.9094 58.603 73.5669C58.8827 72.7278 59.0226 63.9172 59.0226 39.9328C59.0576 8.85095 59.0226 7.34756 58.3933 5.98401C57.4143 3.81633 55.4564 1.82346 53.3586 0.914426L51.5406 0.0753216L30.3882 0.00539625C18.7456 -0.0295664 8.53649 0.110284 7.69738 0.285098ZM51.4007 2.76745C53.2188 3.29189 55.4914 5.31972 56.2955 7.03289C56.9248 8.39644 56.9598 10.1096 56.9598 39.9677V71.4341L56.0158 73.3571C55.3515 74.5808 54.5124 75.5947 53.5335 76.294L51.9951 77.3428H29.584H7.13798L5.49473 76.224C4.41089 75.4549 3.60675 74.4759 2.97742 73.2522L2.06839 71.4341V40.3523C2.06839 16.8574 2.17328 8.88592 2.48794 7.80207C3.01238 6.05394 5.59962 3.36181 7.31279 2.80241C9.09589 2.24301 49.5477 2.20804 51.4007 2.76745Z" fill="black"/>
<path d="M20.5986 40.1075C20.5986 72.518 20.6686 76.8184 21.1231 76.8184C21.5776 76.8184 21.6475 72.518 21.6475 40.1075C21.6475 7.69715 21.5776 3.39674 21.1231 3.39674C20.6686 3.39674 20.5986 7.69715 20.5986 40.1075Z" fill="black"/>
<path d="M37.3806 40.1075C37.3806 72.518 37.4505 76.8184 37.9051 76.8184C38.3596 76.8184 38.4295 72.518 38.4295 40.1075C38.4295 7.69715 38.3596 3.39674 37.9051 3.39674C37.4505 3.39674 37.3806 7.69715 37.3806 40.1075Z" fill="black"/>
<path d="M40.5273 15.9483V27.8706H46.6808H52.7992L52.6944 20.2487L52.5895 12.5919L51.5406 10.5641C49.8973 7.34751 46.6108 5.24975 41.6811 4.2708L40.5273 4.02606V15.9483Z" fill="#B9A900"/>
<path d="M16.0534 5.80921C11.753 7.20771 9.23572 9.20059 7.69736 12.4521C6.82329 14.3401 6.78833 14.6198 6.78833 21.2277C6.78833 27.9755 6.78833 28.0804 7.76729 30.1432C8.53646 31.8214 9.69023 33.15 13.5361 36.8561C16.1583 39.4083 18.4309 41.5061 18.5708 41.5061C18.7456 41.5061 18.8505 33.3248 18.8505 23.3255C18.8505 8.99081 18.7456 5.14492 18.4309 5.17988C18.1862 5.17988 17.1023 5.45958 16.0534 5.80921Z" fill="#B90000"/>
<path d="M24.9691 6.85804L23.5706 7.06781L23.4657 25.2134L23.3958 43.3591L27.2067 47.0651C32.4161 52.1347 32.6259 52.5543 32.7657 59.2321C32.9056 64.2318 32.8706 64.5465 32.1714 65.2457C31.1575 66.2596 28.2556 66.2946 27.2416 65.2807C26.5774 64.6164 26.5424 64.1269 26.5424 56.3652V48.149H24.9691H23.3958V61.7494C23.3958 70.63 23.5356 75.4548 23.7454 75.5947C24.3397 75.9793 31.5071 76.224 33.6398 75.9793L35.6327 75.7345V55.4911V35.2477L32.486 32.1361C28.3605 28.0454 27.6612 26.577 27.5213 21.5773C27.4165 17.5217 27.871 16.1581 29.4093 15.9134C30.4582 15.7386 32.2063 16.1931 32.556 16.7525C32.6958 16.9972 32.8357 20.1439 32.8357 23.745V30.318H34.2342H35.6327V18.6405C35.6327 8.32647 35.5628 6.92796 35.0733 6.75315C34.409 6.50841 26.8571 6.57834 24.9691 6.85804Z" fill="#34B900"/>
<path d="M40.5273 52.8689C40.5273 71.0844 40.5973 72.9724 41.0867 72.9724C42.2056 72.9724 45.9466 71.8536 47.5898 71.0145C50.0372 69.7558 51.8902 67.9378 53.009 65.7002L53.988 63.7073V55.6659V47.6245L52.9741 45.5267C52.2049 43.8835 50.8763 42.3451 46.8906 38.4293C44.1285 35.7022 41.5413 33.2898 41.1916 33.08C40.5623 32.7653 40.5273 33.3247 40.5273 52.8689Z" fill="#B9A900"/>
<path d="M6.6835 55.3864C6.78839 64.3718 6.82335 64.8263 7.62749 66.5745C8.53652 68.6023 10.6692 70.77 12.802 71.8888C13.9557 72.4482 17.9065 73.6719 18.6407 73.6719C18.7456 73.6719 18.8156 67.4835 18.7806 59.9315L18.6757 46.2262L12.6272 46.1213L6.57861 46.0514L6.6835 55.3864Z" fill="#B90000"/>
<path d="M67.1689 11.1935C65.5606 11.683 62.9384 14.1303 62.1692 15.8086C61.2951 17.7315 61.3301 20.9481 62.2391 22.9759C63.1831 25.0387 64.0921 26.0177 66.1899 27.0665C67.6583 27.8008 68.2877 27.9056 70.4204 27.8008C72.4832 27.6959 73.2524 27.4861 74.6509 26.647C77.0633 25.1436 78.3919 22.871 78.5667 19.9691C78.7765 16.9274 78.0073 15.0394 75.8396 13.0815C73.3922 10.8788 70.2456 10.1796 67.1689 11.1935ZM70.9798 13.7108C70.9448 14.2352 70.1407 14.1303 69.9659 13.6059C69.861 13.2912 70.0358 13.1514 70.3854 13.2563C70.735 13.2912 70.9798 13.501 70.9798 13.7108ZM74.2313 14.445C74.546 14.7247 74.7907 15.2142 74.7907 15.4589C74.7907 16.1232 73.8118 17.0323 73.0775 17.0323C71.714 17.0323 71.0847 14.9345 72.2734 14.2702C73.1125 13.7458 73.602 13.8157 74.2313 14.445Z" fill="#0084B9"/>
<path d="M67.0989 38.2545V47.7993H70.0707H73.0425V38.2545V28.7447H70.0707H67.0989V38.2545Z" fill="black"/>
<path d="M60.4561 49.1628C59.9316 50.1767 60.0015 60.4907 60.526 61.0152C61.1203 61.6095 76.2242 61.6095 76.8186 61.0152C77.413 60.4208 77.413 49.5124 76.8186 48.9181C76.5039 48.6034 74.1964 48.4985 68.6024 48.4985C61.2602 48.4985 60.8057 48.5335 60.4561 49.1628ZM72.3434 50.5963C72.3434 50.8061 70.4204 50.9459 67.3087 50.9459C64.302 50.9459 62.1692 50.8061 62.0294 50.5963C61.8895 50.3865 63.6726 50.2467 67.064 50.2467C70.3505 50.2467 72.3434 50.3865 72.3434 50.5963ZM75.8396 50.5963C75.8396 50.7711 75.3851 50.9459 74.7908 50.9459C74.2314 50.9459 73.7419 50.7711 73.7419 50.5963C73.7419 50.3865 74.2314 50.2467 74.7908 50.2467C75.3851 50.2467 75.8396 50.3865 75.8396 50.5963Z" fill="black"/>
</svg>
