<svg width="80" height="52" viewBox="0 0 80 52" fill="none" xmlns="http://www.w3.org/2000/svg">
<path d="M66.9931 23.7464C66.9474 24.2048 66.8736 24.6598 66.7748 25.1107C66.7225 25.4484 66.5673 25.7635 66.3315 26.0115C66.1539 26.0961 65.987 26.1925 65.8252 26.3031C65.6011 26.2981 65.3786 26.3207 65.1636 26.3752H63.6238V26.4129H50.4731L52.3009 13.264C52.3964 12.7621 52.5209 12.266 52.6728 11.7791C52.7392 11.485 52.8612 11.2093 53.0363 10.9629C53.3194 10.7124 53.6929 10.5791 54.0698 10.5976C54.6043 10.523 55.1447 10.4995 55.6818 10.5255H68.8342L66.9931 23.7464ZM79.6259 1.90596C79.1204 0.871885 77.7848 0.347304 75.5112 0.201495C73.8279 0.050657 72.1345 0.00205389 70.4462 0.0556851H53.9254C51.9656 0.0146237 50.0033 0.089205 48.0551 0.276076C46.6498 0.265182 45.301 0.82831 44.3132 1.83473C43.674 2.85289 43.2432 3.99171 43.0473 5.18165C42.9037 6.06992 42.6879 7.77438 42.3152 10.4509L41.9525 13.192L38.7152 36.8081L37.4045 47.2914C37.3672 47.7028 37.2908 48.1109 37.1771 48.5064C37.0982 48.8676 36.9231 49.2003 36.6724 49.4693C36.4259 49.8589 36.1246 50.2117 35.7793 50.5159C35.4937 50.7849 34.9027 51.2584 34.0228 52H37.4884C38.3707 51.9975 39.2506 51.9489 40.1247 51.8542C41.1216 51.7779 42.1094 51.6036 43.0731 51.3321C43.8035 51.0941 44.4933 50.7464 45.1183 50.2955C45.9019 49.6888 46.5336 48.8986 46.9586 47.9978C47.2782 47.2503 47.4998 46.4651 47.621 45.659L49.0886 36.8576H66.1871C68.0498 36.8961 69.9141 36.8215 71.7693 36.6372C72.8235 36.54 73.8245 36.1151 74.6314 35.4213C75.488 34.5053 76.0284 33.3363 76.1728 32.0844C76.3878 31.0503 76.6899 29.1875 77.0518 26.3651C78.3019 17.5864 79.0373 12.3146 79.2532 10.5381C79.5927 8.87215 79.8151 7.18277 79.9139 5.48584C79.9703 5.01322 79.9928 4.53724 79.9878 4.06126C80.0417 3.32383 79.9164 2.58473 79.6259 1.90596ZM36.5479 32.8746C37.0775 30.7478 37.4809 28.5883 37.7498 26.4129L38.1101 23.6718C38.4845 20.6903 38.7003 18.7663 38.7003 17.878V17.4272C38.8015 16.404 38.5409 15.3774 37.9682 14.5302C37.1007 13.7442 35.9777 13.3093 34.8139 13.3118C32.9106 13.1434 30.9964 13.0923 29.0873 13.1534H12.94C13.0462 12.6389 13.1176 12.1193 13.155 11.5948C13.1957 11.3518 13.2944 11.1213 13.4438 10.9269C13.6215 10.6964 13.8929 10.5607 14.1793 10.5607C14.8616 10.4844 15.5506 10.461 16.2378 10.4895H30.6744C32.3204 10.5305 33.9622 10.4534 35.5975 10.2565C36.4035 10.1844 37.1945 9.98751 37.9424 9.67326C39.0398 9.0565 39.8358 8.00651 40.1454 6.77634C40.7256 4.55987 41.129 2.29982 41.3474 0.0196522H14.1087C12.2734 -0.031465 10.4373 0.0171381 8.60788 0.165462C7.56033 0.206523 6.54682 0.539203 5.67193 1.12747C4.79206 1.92607 4.1969 2.99618 3.97611 4.17104C3.51957 6.25595 3.1726 8.36517 2.94184 10.4895L2.56914 13.1534C2.13585 16.1249 1.83371 18.059 1.68927 19.0218V19.9093C1.63117 20.8151 1.89181 21.7143 2.42471 22.4433C3.28134 23.0811 4.30813 23.4414 5.37311 23.4774C6.26211 23.552 7.7305 23.6358 9.70273 23.6358H27.6911C27.6479 24.1068 27.5741 24.5752 27.4753 25.0361C27.4628 25.3612 27.3582 25.673 27.174 25.9369C26.9914 26.1188 26.7631 26.2436 26.5116 26.3023C26.2966 26.3023 25.7064 26.3743 24.8265 26.3743H0.677422C0.345396 28.4911 0.122934 30.6246 0.0166852 32.7674C-0.0571907 33.6397 0.115464 34.5179 0.510576 35.2989C1.04514 35.8796 1.72994 36.2986 2.48281 36.5165C4.88337 36.7545 7.29471 36.8517 9.70273 36.8081H25.8019C28.2132 36.8517 30.6212 36.7545 33.0218 36.5165C33.9573 36.302 34.8222 35.8377 35.5236 35.1757C35.9901 34.4743 36.3379 33.6967 36.5479 32.8746Z" fill="#E51F2D"/>
</svg>
