<svg width="80" height="80" viewBox="0 0 80 80" fill="none" xmlns="http://www.w3.org/2000/svg">
<path d="M20.4697 37.8635C10.2631 37.8635 0 41.7692 0 53.5925C0 54.1657 0.0530647 54.7388 0.0530647 55.2588H12.0851C11.979 54.7388 11.979 54.1657 11.979 53.5925C11.979 48.7493 14.8976 45.6254 20.4166 45.6254C25.9355 45.6254 28.8542 48.7493 28.8542 53.5925C28.8542 54.1657 28.8011 54.7388 28.7516 55.2588H40.8332C40.8862 54.7388 40.8862 54.1657 40.8862 53.5925C40.9888 41.7692 30.7292 37.8635 20.4697 37.8635Z" fill="#027FFF"/>
<path d="M20.4698 34.5308C28.6456 34.5308 36.8215 32.0296 39.7897 25H26.3531C24.9486 26.1462 22.9675 26.822 20.4698 26.822C17.9721 26.822 15.991 26.1462 14.5829 25H1.19946C4.16767 32.0296 12.3435 34.5308 20.4698 34.5308Z" fill="#027FFF"/>
<path d="M68.1237 25V41.4578L56.0421 25H43.5962V55.2056H55.4159V38.8009L67.448 55.2056H80V25H68.1237Z" fill="#027FFF"/>
</svg>
