<svg width="24" height="24" viewBox="0 0 24 24" fill="none" xmlns="http://www.w3.org/2000/svg">
<path fill-rule="evenodd" clip-rule="evenodd" d="M16.4028 9.1979L17.3821 7.96995C17.3821 7.96995 17.5479 7.1928 17.0142 6.74593C17.0142 6.74593 16.3977 6.01668 15.1775 6.74593C15.1775 6.74593 14.0118 7.48035 12.6051 10.5424L5.99138 6.5037C5.99138 6.5037 5.02381 5.67603 4.27643 6.62545C4.27643 6.62545 3.51351 7.59693 4.52253 8.3404L7.70634 10.4232V10.545C7.70634 10.545 7.33847 10.5152 6.84885 11.0346C6.84885 11.0346 6.29966 11.7638 6.84885 12.5047C6.84885 12.5047 6.14293 12.4775 5.86963 13.4853C5.83544 13.6485 5.85226 13.8184 5.91783 13.9717C5.9834 14.1251 6.09454 14.2546 6.23619 14.3427C5.98026 14.4792 5.7795 14.7001 5.66804 14.9679C5.55658 15.2357 5.54131 15.5338 5.62482 15.8116C5.62482 15.8116 6.08853 16.4204 6.481 16.6691C6.481 16.6691 9.22439 18.3413 10.0339 18.6288C10.0339 18.6288 11.008 18.9617 11.6258 18.8736L15.6671 13.8518C15.6671 13.8518 15.3381 10.7872 16.4028 9.1979Z" fill="url(#paint0_linear_7963_43600)"/>
<path fill-rule="evenodd" clip-rule="evenodd" d="M19.3248 15.6496L17.2615 14.217C17.1201 14.1234 16.949 14.0857 16.7814 14.1114C16.6138 14.137 16.4617 14.2241 16.3548 14.3556L12.3161 19.4227C12.264 19.485 12.2255 19.5574 12.2031 19.6354C12.1806 19.7134 12.1748 19.7953 12.1859 19.8757C12.197 19.9561 12.2248 20.0332 12.2675 20.1023C12.3102 20.1713 12.3669 20.2306 12.434 20.2763L14.4986 21.7089C14.64 21.8025 14.8111 21.8402 14.9787 21.8146C15.1463 21.789 15.2984 21.7019 15.4053 21.5703L19.4414 16.5032C19.4936 16.4411 19.5322 16.3687 19.5547 16.2907C19.5772 16.2128 19.5832 16.131 19.5722 16.0506C19.5612 15.9702 19.5335 15.893 19.4909 15.8239C19.4483 15.7549 19.3917 15.6955 19.3248 15.6496Z" fill="#EF7E00"/>
<path fill-rule="evenodd" clip-rule="evenodd" d="M12.9356 5.86767C13.0287 5.90255 13.1318 5.8991 13.2224 5.85807C13.3129 5.81702 13.3835 5.74177 13.4187 5.64877L14.3824 3.08541C14.3995 3.03941 14.4074 2.99048 14.4055 2.94143C14.4037 2.89238 14.3921 2.84419 14.3715 2.79963C14.3509 2.75507 14.3217 2.71504 14.2855 2.68183C14.2494 2.64862 14.207 2.6229 14.1609 2.60615C14.0678 2.57127 13.9647 2.57472 13.8741 2.61576C13.7835 2.65679 13.7129 2.73205 13.6778 2.82505L12.7141 5.38842C12.6969 5.4344 12.6891 5.48335 12.6909 5.5324C12.6928 5.58145 12.7044 5.62962 12.725 5.6742C12.7456 5.71875 12.7748 5.75877 12.8109 5.792C12.8471 5.8252 12.8894 5.85092 12.9356 5.86767Z" fill="#EDA823"/>
<path fill-rule="evenodd" clip-rule="evenodd" d="M8.40961 5.64881C8.44478 5.74181 8.51538 5.81708 8.60596 5.85811C8.6965 5.89916 8.79966 5.90261 8.89275 5.86771C8.93878 5.85083 8.981 5.82503 9.017 5.79176C9.05303 5.75851 9.0821 5.71846 9.10255 5.67391C9.12303 5.62936 9.13448 5.58121 9.13625 5.53223C9.13805 5.48323 9.13013 5.43438 9.11295 5.38846L8.15056 2.82511C8.11513 2.73201 8.04428 2.65673 7.95351 2.61571C7.86273 2.5747 7.75941 2.57128 7.66613 2.60621C7.62011 2.62308 7.57788 2.6489 7.54186 2.68216C7.50586 2.71542 7.47678 2.75548 7.45631 2.80002C7.43586 2.84456 7.42441 2.89271 7.42261 2.9417C7.42083 2.99069 7.42876 3.03955 7.44593 3.08546L8.40961 5.64881Z" fill="#EDA823"/>
<path fill-rule="evenodd" clip-rule="evenodd" d="M10.552 4.93248C10.5527 5.03178 10.5925 5.1268 10.6629 5.19688C10.7332 5.26698 10.8283 5.30648 10.9276 5.30683C10.9768 5.3075 11.0257 5.2984 11.0713 5.28C11.1169 5.2616 11.1584 5.23433 11.1934 5.1997C11.2284 5.1651 11.2561 5.12388 11.275 5.07845C11.2938 5.033 11.3035 4.98428 11.3033 4.93508V2.19685C11.3026 2.09756 11.2628 2.00255 11.1924 1.93246C11.1221 1.86236 11.0269 1.82286 10.9276 1.82252C10.8785 1.82218 10.8299 1.83153 10.7844 1.85004C10.7389 1.86856 10.6975 1.89587 10.6626 1.9304C10.6277 1.96494 10.6 2.00603 10.581 2.05131C10.562 2.09658 10.5522 2.14517 10.552 2.19426V4.93248Z" fill="#EDA823"/>
<defs>
<linearGradient id="paint0_linear_7963_43600" x1="10.2995" y1="5.24211" x2="12.6711" y2="18.6897" gradientUnits="userSpaceOnUse">
<stop stop-color="#F5B043"/>
<stop offset="1" stop-color="#ED6D20"/>
</linearGradient>
</defs>
</svg>
