<svg width="53" height="80" viewBox="0 0 53 80" fill="none" xmlns="http://www.w3.org/2000/svg">
<path d="M32.598 22.67H22.091L27.032 9.80881H15.1284C9.71526 9.80881 5.31958 5.41978 5.31958 0H41.3029L32.598 22.67Z" fill="#B1CB43"/>
<path d="M26.4273 27.1323C24.4854 27.1323 20.3225 27.1323 20.3225 27.1323L16.5519 36.9411C16.5519 36.9411 24.4389 36.9411 26.4273 36.9411C35.5977 36.9411 43.0524 44.3958 43.0524 53.5662C43.0524 62.7366 35.5977 70.1913 26.4273 70.1913C17.2635 70.1913 9.80215 62.7366 9.80215 53.5662C9.80215 52.6884 9.88196 51.8372 10.015 50.9993H0.126352C0.0399019 51.8438 0 52.7017 0 53.5662C0 68.1431 11.857 80.0001 26.4273 80.0001C41.0041 80.0001 52.8612 68.1431 52.8612 53.5662C52.8612 38.9893 41.0041 27.1323 26.4273 27.1323Z" fill="#E13A5C"/>
</svg>
