<svg width="80" height="80" fill="none" xmlns="http://www.w3.org/2000/svg"><path d="M71.633 36.665h-61.48v2.38h2.1V67.21h13.939V61.5h-7.828V39.045h53.27v-2.38ZM0 2v5.804h4.487v23.6h6.11v-23.6h4.486V2H0Zm66.061 0v29.402H80v-5.708h-7.828v-6.09h6.205v-5.71h-6.204v-6.09H80V2H66.061Zm1.277 54.267c1.24-1.426 1.91-3.33 1.91-5.327 0-4.663-3.82-8.47-8.498-8.47h-6.587v29.402h6.681c5.061 0 9.166-4.09 9.166-9.133 0-2.57-.954-4.855-2.672-6.472Zm-6.874-8.088a2.767 2.767 0 0 1 2.769 2.76 2.766 2.766 0 0 1-2.77 2.76h-.094v-5.426h.095v-.096.002Zm3.532 14.56c0 1.901-1.528 3.33-3.34 3.33h-.287v-6.757h.286c1.813 0 3.34 1.524 3.34 3.425v.002ZM27.11 2A10.758 10.758 0 0 1 37.9 12.753c0 3.425-1.526 6.375-4.009 8.373l5.155 10.276h-6.778l-3.913-7.993c-.478.095-.86.095-1.241.095h-.479v7.898h-6.11V2h6.588Zm-.477 5.804V17.89h.096c2.769 0 5.06-2.285 5.06-5.043 0-2.761-2.291-5.044-5.06-5.044h-.096ZM54.32 23.79a2.766 2.766 0 0 1-2.769 2.76c-1.528 0-2.864-1.237-2.864-2.76V2H42.58v21.314c0 4.853 4.01 8.85 8.878 8.85 4.869 0 8.879-3.997 8.879-8.85V2h-6.114v21.79h.098Zm-5.3 52.175h22.613v2.378h-61.48v-2.378h18.795l6.313-29.022h7.447l6.313 29.022Zm-6.21 0-.677-2.95h-6.3l-.677 2.95h7.655ZM39.08 58.17l-1.91 9.039h3.819l-1.91-9.04Z" fill="#fff"/></svg>