<svg version="1.2" xmlns="http://www.w3.org/2000/svg" viewBox="0 0 80 80" width="80" height="80">
	<title>urgentgames (1)-svg</title>
	<style>
		.s0 { fill: #ffffff } 
	</style>
	<path fill-rule="evenodd" class="s0" d="m39.7 60.5c0.1 0.2-0.1 0.3-0.2 0.4q-0.2 0-0.4 0.1-2 0.5-4.1 0.9-0.3 0.1-0.5 0.1c-0.3-0.1-0.4-0.5-0.2-0.7q0.1-0.1 0.2-0.2 0.3-0.3 0.1-0.6-0.1-0.3-0.2-0.6-0.3-0.4-0.5-0.9-1.1 0.3-2.3 0.5v-0.9q1-0.2 1.9-0.4 0-0.2-0.1-0.3-1.5-3-3-6.1-0.1-0.2-0.1-0.4 0-0.3 0-0.7 1.8-0.4 3.5-0.8 0.9 1.8 1.8 3.6-0.2 0-0.3 0.1 0 0.1 0.2 0.2c0.1 0 0.1-0.1 0.1-0.2q0.1 0.1 0.1 0.2 1.4 2.7 2.7 5.4 0.1 0.2 0.2 0.4 0.2 0.4 0.6 0.5 0.1 0 0.3 0 0.2 0.1 0.2 0.4zm-9.2-9.2v0.1q0.2-0.1 0-0.1zm2.7 0.1q-0.1-0.1-0.1-0.1 0 0-0.1 0 0 0 0 0.1 0 0 0 0 0 0 0.1 0 0 0 0 0 0 0 0.1 0zm-0.5 7.6q-0.1-0.1-0.1 0.1 0.1-0.1 0.1-0.1zm1.2-4.1c-0.3 0.1-0.3 0.2-0.3 0.3 0.3 0 0.3 0 0.3-0.3zm0.2-3.3c-0.1 0-0.2-0.1-0.2 0 0 0.1 0 0.1 0.1 0.1 0.1 0.1 0.1 0 0.1-0.1zm0.2 5.3c-0.1 0.1-0.2 0.2-0.2 0.2 0 0.2 0 0.2 0.2 0.2 0-0.1 0.1-0.2 0-0.4zm0.3-1.2c-0.1 0.2-0.1 0.3 0.1 0.4 0-0.2 0-0.3-0.1-0.4zm0.2-3.2q0 0-0.1 0 0 0.2 0.1 0.1 0 0 0-0.1zm0.5 8.4q-0.1-0.1-0.1-0.1c0 0-0.1 0-0.1 0 0 0.1 0.1 0.2 0.1 0.2q0.1-0.1 0.1-0.1zm0.5-3.6q-0.1 0-0.1 0.1 0.1 0 0.1-0.1zm0.8 1.8q-0.1 0-0.2 0c-0.2 0-0.2 0.1-0.2 0.3 0.1 0.1 0.2 0.1 0.3 0q0-0.1 0.1-0.3zm0-2.7q0.1-0.2 0-0.3c0 0.1-0.1 0.1 0 0.3zm0.1 2.7q0 0.1 0 0.2 0 0 0 0 0.1-0.1 0-0.2zm2.1 1.6c0-0.1 0-0.1 0-0.2-0.1 0.1-0.1 0.1-0.1 0.1q0 0.1 0.1 0.1z"/>
	<path fill-rule="evenodd" class="s0" d="m72.6 49.9q0.1 0.8-0.2 1.5c0 0.1 0 0.2-0.2 0.2 0.1 0.2 0.1 0.2 0 0.3-0.5 1-1.3 1.7-2.4 2.1q-0.3 0.2-0.6 0.3-0.2-0.5-0.3-0.9 0.3-0.2 0.6-0.4c0.2-0.2 0.4-0.4 0.5-0.8 0.2-0.5 0-1.1-0.5-1.4-0.4-0.2-0.8-0.3-1.1-0.4q-1.1-0.2-2.1-0.4-0.8-0.1-1.5-0.5-0.6-0.3-1-0.8c-0.1-0.1-0.1-0.2-0.2-0.3-0.1-0.1-0.2-0.2-0.3-0.3q-0.1-0.1 0.1-0.2c-0.3-0.1-0.3-0.3-0.4-0.5-0.2-0.9-0.3-1.7 0-2.6q0.1-0.3 0.3-0.6c0 0 0-0.1 0.2 0-0.1-0.2-0.1-0.3 0-0.4q0.4-0.5 1.1-0.9c0.1-0.1 0.2-0.2 0.3 0 0-0.1 0-0.2 0-0.2q0.5-0.3 1.1-0.5 0.1 0.5 0.2 0.9-0.1 0-0.1 0.1-0.3 0.2-0.5 0.5c-0.4 0.6-0.2 1.4 0.4 1.7q0 0.1 0.1 0.2c0 0-0.1 0.1-0.1 0.2q0.2-0.1 0.3-0.2c0.6 0.3 1.3 0.4 1.9 0.5 0.8 0.1 1.5 0.3 2.2 0.6 1.4 0.6 2.1 1.7 2.2 3.2zm-9.5-3.5q-0.1 0-0.2-0.1c0 0.1 0 0.1 0 0.2 0.1 0 0.1 0 0.2-0.1zm0.2 0q0-0.1-0.1-0.1 0 0 0 0.1 0 0 0 0 0 0 0.1 0 0 0 0 0 0 0 0 0zm0.3 0.4q0 0-0.1-0.1 0 0.1 0 0.1 0 0 0 0.1 0.1-0.1 0.1-0.1zm0.9-3.8q0.1 0 0.1 0 0 0 0-0.1 0 0 0 0-0.1 0.1-0.1 0.1zm-0.8 2.2q0.1 0 0.1-0.1 0 0 0 0 0 0-0.1 0.1zm0 1.1q0.1-0.1 0.1-0.1c0 0-0.1-0.1-0.1-0.1q0 0-0.1 0.1 0.1 0 0.1 0.1zm0.3 1.1q0 0 0-0.1-0.1 0-0.1 0c-0.1 0.1-0.1 0.2-0.1 0.2 0 0.1 0.1 0.1 0.2 0.1q0-0.1 0-0.2zm-0.1-3.7q0 0.1 0.1 0.1c0-0.1 0-0.1-0.1-0.1zm0.3 5.1c0 0 0-0.1-0.1-0.1q0 0.1 0 0.1 0 0.1 0 0.1c0.1 0 0.1-0.1 0.1-0.1zm0.3-3.4q-0.1 0-0.1-0.1-0.1 0.1-0.1 0.1 0 0 0 0 0 0 0 0 0.1 0.1 0.1 0.1 0 0 0.1-0.1zm0-1.9q-0.1-0.1-0.2-0.1c0 0.1-0.1-0.1-0.2 0q0.1 0.2 0.3 0.2 0.1 0 0.1-0.1zm0 4.4q0.2 0 0.1-0.1-0.1 0-0.1 0.1zm0.1 0.3q0 0.1-0.1 0.2 0.2 0 0.1-0.2zm0.2-1c0 0-0.1-0.1-0.1 0q-0.1 0 0.1 0.1 0-0.1 0-0.1zm0-1.1q0-0.1 0-0.1 0 0-0.1 0 0 0 0 0 0 0.1 0.1 0.1zm0.5-0.7q0 0 0-0.1-0.2 0.1 0 0.1zm0.2 4q-0.1 0-0.3 0.1v0.2q0.2 0 0.3-0.1c0-0.1 0-0.1 0-0.2zm0.1-3.3q-0.1 0-0.1 0.2 0.2-0.1 0.1-0.2zm4 7.7c-0.1 0-0.1 0-0.2 0 0.1 0.2 0.2 0.2 0.2 0zm0.4-4.8q0.1 0.2 0.3 0.3c-0.1-0.2-0.1-0.3-0.3-0.3zm-0.9-2c0 0.1 0.1 0.1 0.1 0.1q0.1 0 0.1-0.1-0.1 0-0.2 0zm-2.9-0.7q0.1 0 0.1 0.1 0.1-0.1 0-0.2c0 0-0.1 0.1-0.1 0.1zm0.1 2.2h-0.1c0 0 0 0.1 0 0.1q0.1-0.1 0.1-0.1zm0.1-1.9c-0.1-0.1-0.2 0-0.2 0.1q0.1-0.1 0.2-0.1zm0.2 2.3q0 0-0.1 0 0 0-0.1 0 0.1 0 0.1 0c0 0 0.1 0 0.1 0zm0-0.3c0-0.1 0-0.1-0.1-0.1 0 0 0 0-0.1 0q0.1 0.1 0.1 0.1 0.1 0 0.1 0zm0.2-0.3q-0.1-0.1-0.1-0.1-0.1 0.1 0 0.1 0.1 0.1 0.1 0zm0.1-1.8c-0.1 0.1-0.3 0.1-0.2 0.3 0.3 0 0.3-0.1 0.2-0.3zm0.1 3.4q0 0.1 0 0.2c0 0 0 0 0 0q0-0.1 0-0.2zm0.2-3.6q0.1 0 0.1 0 0-0.1 0-0.2h-0.1q0 0.1 0 0.2zm0.3 2.2q-0.1-0.1-0.2 0 0 0 0 0.1 0.1-0.1 0.2-0.1zm0.1 0.2q0 0 0 0 0.1 0 0.1 0 0 0-0.1 0 0 0 0 0zm0.1 0.6h-0.1c0 0.1 0.1 0.1 0.1 0zm0.2-1.1q-0.1-0.2-0.3-0.1c0 0.2 0.1 0.2 0.3 0.1zm0.3-1.4q0 0 0-0.1 0 0 0 0-0.1 0-0.1 0c0 0.1 0.1 0.1 0.1 0.1zm0.2 2.2c0 0-0.1 0-0.1 0q-0.1 0-0.1 0.1 0 0 0 0.2 0.1-0.1 0.1-0.1 0.1-0.1 0.1-0.2zm0 1.2q0 0 0 0 0 0 0 0.1c0.1-0.1 0.1-0.1 0-0.1zm0.4-3.7q0-0.1 0-0.2-0.1 0-0.2-0.1c0 0.2 0 0.2 0.2 0.3zm0 0.8q0-0.2-0.1-0.2 0 0 0 0 0 0.1 0 0.1 0 0 0.1 0.1zm0.1 3.1q0-0.1-0.1-0.1h-0.1q0 0.1 0 0.1 0.1 0 0.2 0zm0-3.8q0 0.1 0 0.2c0.1-0.1 0.2-0.1 0-0.2zm0.5 3.7q-0.1-0.1-0.1-0.1c-0.1 0-0.2 0-0.3 0.1 0.1 0.2 0.2 0 0.3 0q0 0 0.1 0zm0.2-3c-0.1 0.1-0.1 0.1-0.2 0.1 0.1 0 0.2 0 0.2-0.1zm0.1 2.5q0 0-0.1-0.1 0 0.1 0 0.2 0.2 0 0.1-0.1zm0.2-1.3q-0.1-0.1-0.2-0.1c0 0 0 0 0 0q-0.1 0.1 0 0.1c0 0.1 0.1 0.1 0.2 0zm0 0.5q0.1 0 0.2-0.1c-0.1-0.1-0.1-0.2-0.2-0.2-0.1 0-0.1 0-0.1 0.1q0 0.1 0.1 0.2zm0.4 1.2c-0.2 0-0.4 0.1-0.3 0.2q0 0 0.1 0.1 0.1-0.1 0.2-0.3zm-0.1 3.1c-0.2 0-0.2 0-0.2 0.2q0.2-0.1 0.2-0.2zm0.2 0.2q-0.2 0-0.2 0.1 0.1 0 0.2-0.1zm1.4-4.8q0 0.1 0.1 0.2c0.1-0.2 0-0.2-0.1-0.2zm-0.3 2.7q-0.1 0-0.1 0 0 0.1 0 0.2 0.1 0 0.2-0.1c0.1-0.1 0-0.1-0.1-0.1zm-0.1-0.8q-0.1 0.1-0.1 0.2c0.1 0.1 0.1 0 0.2 0q0-0.1 0-0.1c0 0-0.1-0.1-0.1-0.1zm0-2.6q0 0 0.1 0.1c0-0.1 0-0.1-0.1-0.2q0 0 0 0.1zm-0.2 0.9q0 0 0.1 0.1 0-0.1 0-0.2 0 0-0.1 0zm-0.1 0.3q0 0.1 0 0.2c0 0 0.1 0 0.1-0.1 0 0 0-0.1-0.1-0.1zm0 0.9q-0.1 0-0.2 0.1 0.2 0 0.2-0.1zm-0.1 1.9q0 0.2-0.1 0.3 0.1 0 0.1 0c0.1-0.1 0.1-0.1 0-0.3zm-0.1-3.2q0.1 0 0.2 0.1 0-0.1 0-0.2c0 0-0.1 0-0.1 0q0 0-0.1 0.1zm-0.2 4.6q0-0.2-0.2 0 0.1 0 0.2 0c0 0 0 0 0 0zm0.5-0.4c0-0.1 0-0.2-0.1-0.2q-0.1-0.1-0.3-0.1v0.3q0.1 0 0.2-0.1 0.1 0.1 0.2 0.2 0-0.1 0-0.1zm0.1-0.4q0 0.1-0.1 0.2c0.1 0 0.2 0 0.2-0.1q0-0.1-0.1-0.1zm0.4-0.6q-0.1-0.1-0.2-0.1 0 0-0.1 0.1-0.1 0.1 0 0.2 0 0.1 0.2 0c0.1 0 0.1-0.1 0.1-0.2zm0.3-1c0-0.1-0.1-0.1-0.1-0.1 0 0-0.1 0-0.1 0-0.1 0.1 0 0.1 0.1 0.1q0 0 0.1 0 0 0 0 0z"/>
	<path fill-rule="evenodd" class="s0" d="m53 57.2q0.1 0.3-0.1 0.5-0.2 0.1-0.4 0.2-1.9 0.4-3.8 0.9-0.3 0-0.6 0.1-0.2 0-0.3 0-0.3-0.1-0.3-0.3-0.1-0.3 0.1-0.5 0.1 0 0.2-0.1 0.4-0.2 0.3-0.6-0.2-1-0.5-2-0.9-4-1.9-8.1 0 0 0-0.1 0.6-0.2 1.1-0.3 1.2-0.3 2.3-0.5c0 0 0.1-0.1 0.1 0.1 0.3-0.3 0.6-0.3 0.9-0.3 0.2 0 0.4 0.2 0.4 0.4q0.1 0.2-0.2 0.4-0.1 0.1-0.2 0.2-0.3 0.2-0.2 0.5 0 0.1 0 0.3 0 0-0.1 0.1c0.1 0 0.2 0.1 0.2 0.3q0.7 2.8 1.3 5.6c-0.1 0-0.1 0.1-0.3 0.1 0.1 0.3 0.1 0.4 0.5 0.4q0 0.2 0 0.4 0.2 0.7 0.4 1.5 0 0.1 0 0.1c0.1 0.3 0.3 0.4 0.5 0.4q0.2 0 0.3 0.1 0.3 0 0.3 0.2zm-6.4-7.6q0-0.2 0-0.3c-0.2 0-0.3 0-0.3 0 0 0.1 0 0.3 0.1 0.4q0.1 0 0.1 0c0 0 0.1-0.1 0.1-0.1zm0-1c-0.2-0.1-0.3 0-0.4 0.2q0.1 0.2 0.2 0.1 0.2-0.1 0.2-0.3zm0.5-0.2q0-0.1-0.1-0.2c0 0-0.1 0-0.1 0 0 0 0 0.1 0 0.1q0.1 0.1 0.1 0.1 0.1 0 0.1 0zm0.9-1q-0.1 0-0.2-0.1 0 0.1 0 0.2 0.1-0.1 0.2-0.1zm0.5 3.8q0 0 0 0.1c0 0 0.1-0.1 0.1-0.1q0 0-0.1-0.1 0 0.1 0 0.1zm0 7.3q0-0.1-0.1-0.1-0.1-0.1-0.1 0c-0.1 0.1-0.1 0.2 0 0.3 0.1 0 0.2-0.1 0.2-0.1q0 0 0-0.1zm0.1-6.5q0-0.2-0.2-0.1c0 0.2 0.1 0.2 0.2 0.1zm0.4-5.3q-0.1 0 0 0.1 0-0.1 0-0.1zm0.5 6.6q0 0 0-0.1 0 0 0 0 0 0.1 0 0.1 0 0 0 0zm0.4-6.1q0.1-0.1 0.2-0.2c-0.2-0.1-0.3 0-0.4 0.1 0 0.1 0.1 0.1 0.2 0.1zm0.1 8.8q0-0.1-0.2-0.1c0 0.1 0 0.2 0.1 0.2 0 0 0.1 0 0.1-0.1zm0.3-4q-0.2-0.1-0.3-0.2c-0.1 0.2-0.1 0.3 0 0.4q0.1 0 0.3-0.2zm0.1 3.8c-0.2 0.1-0.1 0.3-0.1 0.4q0.1 0.1 0.2 0 0-0.2-0.1-0.4zm0.5-2.1c-0.1 0.1-0.1 0.2 0.1 0.2 0-0.1 0-0.2-0.1-0.2z"/>
	<path fill-rule="evenodd" class="s0" d="m58.5 56.5q-0.1 0-0.2 0-1.6 0.4-3.2 0.8-0.2 0-0.5 0-0.2 0-0.3-0.3-0.1-0.3 0.1-0.4 0.2-0.1 0.3-0.2 0.3-0.2 0.2-0.6-0.1-0.5-0.2-0.9-0.6-2.8-1.3-5.6 0-0.1 0.1-0.3c-0.2 0-0.2-0.2-0.2-0.3q-0.2-0.8-0.4-1.5 0-0.1 0-0.1c-0.1-0.4-0.2-0.5-0.6-0.5q-0.1 0-0.2 0-0.3-0.1-0.3-0.3-0.1-0.3 0.1-0.5 0.2-0.1 0.4-0.2 1-0.2 1.9-0.4 1.1-0.2 2.1-0.5c0.1 0.2 0.2 0.4 0.1 0.6 0.1 0 0.1 0.1 0.1 0.2q0.3 1 0.5 2 0 0.1 0.1 0.2 0 0.1-0.1 0.2c0.1 0 0.1 0.2 0.2 0.3q0.5 2.2 1 4.4 0.3 1.4 0.7 2.7 0 0.1 0 0.1-0.2 0-0.3 0.1c-0.1 0-0.3 0-0.4 0-0.1 0.2 0.1 0.3 0.2 0.4q-0.2 0.1-0.2 0.3 0 0.1 0 0.2c0.1 0.1 0.3-0.2 0.3 0.1zm-4.5-8.5q0 0.1 0.1 0.1 0 0 0.1-0.1-0.1 0-0.1 0 0 0-0.1 0zm0.2 2.2q-0.1-0.1-0.2 0.1 0.1 0 0.2 0.1c0-0.1 0.1-0.2 0-0.2zm0.3 0.7c0.1-0.1 0.1-0.1 0.1-0.2 0.1 0 0-0.1-0.1-0.1q-0.1 0-0.1 0.1c0 0.1 0 0.2 0.1 0.2zm0.2 0.8q-0.1 0-0.1 0-0.1 0-0.1 0.1 0 0 0.1 0 0 0 0.1-0.1zm0.6-3.6c-0.1 0 0 0.1-0.1 0.1q0.1 0.1 0.2 0.1 0.1-0.2-0.1-0.2zm0.4-1.8q0 0-0.1-0.1 0 0.1-0.1 0.1 0 0.1 0.1 0.2 0-0.1 0.1-0.2zm0.3 3.1q0.1-0.2-0.1-0.3c0 0.2 0 0.2 0.1 0.3zm0.1 5.9q-0.1 0-0.1-0.1-0.1 0.2 0.1 0.1zm0.1-10c-0.2 0-0.2 0-0.2 0.2q0.1-0.1 0.2-0.2zm0-0.2q-0.1-0.1-0.1 0 0 0.1 0 0.1 0.1-0.1 0.1-0.1zm0.7 3.5q0-0.1 0.1-0.1-0.1 0-0.1 0.1zm-0.2 1.2c0-0.1-0.1-0.2-0.3-0.2q-0.1 0.1 0.1 0.2 0.1 0.1 0.2 0zm0-3.4h-0.3q0 0.2 0.1 0.1c0.1 0 0.2 0 0.2-0.1zm0.2 2.7q-0.1 0-0.1 0 0 0-0.1 0.1c0 0 0.1 0 0.1 0q0 0 0.1-0.1zm0.1 2.9q-0.1-0.1-0.1-0.1c-0.1 0.1-0.1 0.1 0 0.2q0.1 0 0.1-0.1zm0.3 2.6q-0.1 0-0.2 0c0.1 0.1 0.2 0.1 0.2 0.2q0.1-0.2 0-0.2zm0.3 1.8q0-0.1-0.1-0.1 0 0-0.1 0.1 0.1 0 0.1 0 0 0.1 0.1 0c0 0 0 0 0 0zm0.1-2.3c0-0.1-0.1-0.2-0.1-0.3 0 0.1-0.1 0.2-0.1 0.2q0.1 0.1 0.2 0.1zm0.1-0.3q0 0.1 0.1 0.1 0-0.1-0.1-0.1zm0.1 2.4q0 0-0.1 0 0 0 0 0 0 0.1 0.1 0.1c0 0 0 0 0-0.1z"/>
	<path fill-rule="evenodd" class="s0" d="m46.1 52c0 0.3 0 0.6 0 0.9q0 0.8-0.1 1.6-0.1 1.6-0.2 3.2 0 0.8-0.1 1.5 0 0.1 0 0.3-0.2 0-0.4 0.1-0.1-0.2-0.3-0.4 0.1 0 0.2 0c0-0.2-0.1-0.3-0.3-0.2q-1.5-2.4-3-4.9 0.3 0 0.3-0.3 0.1-0.1 0-0.2c-0.2 0-0.4 0.1-0.4 0.3q-0.1-0.1-0.2-0.2-1-1.6-1.9-3.1-0.3-0.4-0.6-0.7c-0.1-0.1-0.3-0.2-0.5-0.2q-0.1 0.1-0.2 0-0.3 0-0.4-0.2c-0.1-0.2 0-0.4 0.1-0.5q0.2-0.1 0.4-0.2 1-0.2 2-0.4 0.5-0.1 1-0.3c0.1 0.1 0.1 0.3 0.3 0.3q0-0.1 0-0.2-0.1 0-0.2-0.1 0 0 0 0 0.5-0.1 0.9-0.2 1.4 2.2 2.8 4.4 0.1-0.1 0.1-0.1 0-0.2 0-0.3 0-1 0.1-1.9 0-0.1 0-0.3 0.1 0.3 0.2 0.6 0.1 0.9 0.4 1.7zm-3.9 0.3q0-0.1 0-0.2-0.1 0-0.1 0c0 0-0.1 0.1 0.1 0.2zm2.4 0.9c0.2 0 0.2 0 0.2-0.2q-0.1 0.1-0.2 0.2zm-2.1-4.1c-0.2 0.1-0.2 0.2 0 0.2zm0 3.2q0.1 0 0.1 0 0-0.1 0.1-0.1-0.1 0-0.2 0 0 0 0 0.1c0 0 0 0 0 0zm0.1 0.3q0 0.1 0 0.2 0.1 0 0.1 0c0-0.1 0-0.1-0.1-0.2zm0.1-0.8q0 0.1 0 0.2 0.1-0.2 0-0.2zm0.5 2.7c-0.1 0-0.2-0.1-0.2 0 0 0 0 0.1 0 0.1 0.1 0 0.1 0 0.2-0.1zm0-0.7q-0.1-0.1-0.1-0.1 0 0 0 0.1c0 0 0 0 0 0q0 0 0.1 0zm0.1-1.6q0-0.1 0.1-0.1 0-0.1-0.2-0.2 0 0.1 0 0.2c0 0 0.1 0.1 0.1 0.1zm0.2 1.4c-0.1-0.1-0.1-0.1-0.2-0.1 0 0.1 0 0.1 0.2 0.1zm0 0.9q0 0 0-0.1-0.1 0.1-0.1 0.1 0 0 0.1 0 0 0 0 0zm0.1-2.7q0-0.1 0.1-0.1c0.1 0 0.1-0.1 0.1-0.2q0-0.3 0.1-0.6-0.1-0.1-0.3-0.2-0.1 0.1-0.1 0.2c0.1 0.2 0.1 0.3 0 0.5q0 0.1-0.1 0.1 0 0.2 0.2 0.3zm0.1 0.4q0.1-0.1 0.2-0.1-0.1-0.1-0.2-0.1-0.1-0.1-0.1 0.1 0 0.1 0.1 0.1zm0.2-0.1c-0.1 0.2-0.1 0.2 0.1 0.2q0.1-0.1-0.1-0.2zm0.1-1.1c0.2-0.1 0.1-0.2 0.1-0.2q-0.1 0-0.1 0 0 0.1 0 0.2zm0.1 3.4c0 0.1 0 0.2 0.1 0.2q0-0.2-0.1-0.2zm0.3 0.2c0.1 0 0.2 0.1 0.2 0 0-0.1-0.1-0.1-0.2-0.2zm0 0.8c0.1 0.2 0.2 0.2 0.3 0.3 0-0.1 0-0.2-0.1-0.2q0-0.1-0.2-0.1zm0.2 2.1q0 0 0 0 0 0-0.1 0 0 0 0 0 0 0 0 0.1 0 0 0 0 0.1 0 0.1-0.1zm0.4-0.2q0-0.2-0.1-0.3 0-0.1-0.1-0.1-0.1 0-0.2 0.1 0 0.2 0.1 0.3 0.2 0.1 0.3 0zm0.4 0.5c0 0.1-0.1 0.1-0.1 0.2 0 0 0.1 0 0.2 0.1q0-0.2-0.1-0.3zm0.1-5.9q0.1-0.1 0.1-0.1 0-0.1 0-0.1c-0.1 0-0.1 0-0.1 0.1q0 0 0 0.1zm0.2 0.5q0 0 0 0h-0.2q0 0.1 0.1 0.1c0.1 0 0.1-0.1 0.1-0.1z"/>
	<path fill-rule="evenodd" class="s0" d="m23.1 64.1q0.1 0.4 0.2 0.8-0.4 0.1-0.8 0.1-0.2-0.2-0.3-0.3-0.1 0.1-0.2 0.3c-0.7-0.1-1.4-0.4-2-0.7v-0.2q-0.1 0-0.1 0.1-0.5-0.3-1-0.8-0.2-0.3-0.5-0.6c-0.1-0.1-0.2-0.2-0.1-0.3q0-0.1 0-0.1c-0.2 0-0.3-0.1-0.3-0.2q-0.5-0.8-0.7-1.6-0.1 0-0.1-0.1 0.1 0 0.2-0.1 0 0 0-0.1 0-0.1-0.1-0.2 0 0-0.1 0 0 0-0.1 0 0 0 0 0-0.1-0.5-0.2-1 0-0.3 0-0.7 0-0.1 0-0.2 0 0 0 0c-0.1-0.4 0-0.8 0.1-1.2q0.2-1.5 1.1-2.6 0.8-1.1 2-1.5 0.2 0 0.4-0.1 0 0.2 0 0.2c-0.1 0-0.1 0.1-0.1 0.1 0 0.1 0 0.1 0.2 0.1q0 0.2 0.1 0.5c-0.4 0.2-0.5 0.6-0.5 1q-0.1 0-0.2-0.1 0 0.2 0.1 0.3 0.1 0 0.1 0.1 0.2 1 0.5 2.1 0 0.1 0 0.2 0.1 0.2 0.1 0.3 0 0 0 0-0.1 0-0.1 0-0.1 0-0.1 0.1 0.1 0 0.2 0.1 0-0.1 0-0.2 0 0 0 0 0.1 0.5 0.2 0.9 0 0.1 0.1 0.3c0 0.1 0 0.2-0.1 0.3 0 0 0 0.1 0 0.1q0.1 0 0.2 0 0 0 0 0 0.1 0.6 0.3 1.2c0 0.1-0.1 0.2 0 0.4 0.1 0 0.1 0.2 0.1 0.3q0 0.1 0 0.3 0.1 0.1 0.1 0.2 0.1 0.3 0.2 0.6-0.1 0-0.1 0 0.1 0.1 0.1 0.1 0 0.1 0 0.1 0.1 0.2 0.1 0.3c0.1 0.2 0.1 0.4 0.2 0.6 0.2 0.4 0.4 0.6 0.8 0.7 0.1 0 0.1 0.1 0.1 0.1zm-2.6-10.5q0 0-0.1 0.1 0.2 0.1 0.1-0.1zm-0.2-0.2c0.1 0.1 0.1 0.1 0.2 0zm-3.1 4.5c0-0.1-0.1-0.1-0.1 0 0 0-0.1 0.1 0 0.1q0.1-0.1 0.1-0.1zm0.1-0.8h-0.2q0 0 0 0c0.1 0 0.1 0 0.2 0zm0-0.4q0 0-0.1-0.1-0.1 0.2 0 0.2 0.1 0 0.1-0.1zm4.2 5q-0.1 0-0.1 0c0 0 0 0.1 0 0.1q0 0 0.1 0 0 0 0.1-0.1-0.1 0-0.1 0zm-0.4 1q0.1-0.1 0.2-0.2c-0.2 0-0.2 0-0.2 0.2zm0.1-0.5q0-0.1 0.1-0.1-0.1-0.1-0.1-0.1-0.1 0.1-0.1 0.1c0 0 0 0 0 0.1q0 0 0.1 0zm0 0.6q0.1 0 0.2 0c0 0 0.1 0 0.1-0.1q0 0 0 0-0.2-0.1-0.3 0.1zm0.1-2.3q0 0 0 0 0.1 0 0.1-0.1-0.2 0-0.1 0.1zm-0.1 0.2q0.1 0.1 0.2-0.1-0.1-0.1-0.2 0.1zm-0.1-0.7q0 0.1 0 0.2 0 0 0.1 0c0-0.1 0-0.1-0.1-0.2zm-0.3-1.7q-0.1 0-0.2 0.1 0.1 0.1 0.2 0.1c0.1-0.1 0-0.1 0-0.2zm-0.1 0.9c0.1 0 0.1-0.1 0.1-0.2h-0.2q-0.1 0.2 0.1 0.2zm0 3.5c0 0 0.1 0.1 0.2 0.1 0-0.1 0-0.1-0.2-0.1zm-0.2-4.6c0.1 0 0.2 0.1 0.2 0 0.1 0 0.1-0.1 0.1-0.1q-0.1-0.1-0.2-0.1 0 0.1-0.1 0.2zm-0.3 1.8q0 0 0.1 0 0-0.1-0.1-0.2-0.1 0.1 0 0.2zm0-1.1q0 0 0.1 0-0.1-0.1-0.1-0.1 0 0-0.1 0.1 0 0 0.1 0zm0.1 0.8q0-0.1-0.1-0.1 0 0.2 0.1 0.1zm-0.3-1.1q0.1 0.1 0.3 0c-0.1 0-0.2 0-0.3 0zm0 0.4q0 0.1 0 0.1 0 0 0 0 0 0 0 0 0 0 0-0.1zm0.1-3.7c0 0 0.1 0 0-0.2q0 0.1 0 0.2zm-0.2 1.9q0.1 0 0.2 0.1 0 0 0-0.1 0 0 0-0.1-0.1-0.1-0.2 0.1zm-0.7 0.4q0.2 0 0.4 0.1c0.1-0.2 0-0.3-0.1-0.4q-0.2 0-0.3 0.3zm0.4-1.8q0.1-0.2 0-0.2c-0.1 0-0.1 0-0.1 0q-0.1 0.1 0.1 0.2zm-0.5 3.9c0 0.1 0 0.1 0.1 0.1q0.1 0 0.1-0.1-0.1 0-0.2 0zm0.2 1.4c0 0 0 0.1 0 0.1q0.1 0 0.1-0.2c0 0-0.1 0-0.1 0.1zm-0.1 0.3q0.1 0 0.3 0.1 0-0.2-0.1-0.2-0.1 0-0.2 0.1zm0.3-1.5q0.1 0.1 0.2 0c0-0.1-0.1-0.2-0.1-0.2q-0.1 0.1-0.2 0.1 0 0 0 0 0 0.1 0.1 0.1zm0.3-2.3c0.1-0.1 0.1-0.1-0.1-0.3q0 0.3 0.1 0.3zm0.1-3.3q-0.1 0-0.2 0 0.1 0.1 0.2 0zm-0.2-1q0.1 0.1 0.3 0.1c-0.1-0.2-0.2-0.2-0.3-0.1zm-0.2 1.8c0.1 0.1 0.2 0 0.3 0.1-0.2-0.2-0.2-0.2-0.3-0.1zm-0.1-1.1q0.1 0 0.2 0c0 0 0-0.1 0-0.1q0-0.1-0.1-0.1-0.1 0-0.1 0.2zm-0.3 3.2c0.1 0.1 0.1 0.1 0.2 0.2 0-0.2 0-0.2-0.2-0.2zm-0.1-1.9q0.1 0 0.1-0.1 0-0.1-0.1 0c0 0 0 0.1 0 0.1zm0.1 0.8q-0.1-0.1-0.1 0 0 0 0 0 0 0 0.1 0c0 0 0 0 0 0zm-0.2 3q0 0.2 0.2 0.1-0.1-0.1-0.2-0.1zm0 0.3c0 0-0.1 0.1-0.1 0.1 0.1 0.1 0.1 0.1 0.2 0.1q0 0 0 0 0.1-0.1 0.1-0.1-0.1-0.1-0.2-0.1zm-1-1.9q0.1 0 0.1 0 0-0.1 0.1-0.1-0.1 0-0.1 0 0 0-0.1 0.1zm-0.3-2.1q0 0 0.1 0.1 0 0 0.1-0.1-0.1 0-0.1 0 0 0-0.1 0zm-0.1 1.5q0.1-0.2 0.2-0.3c-0.1 0-0.1 0-0.2 0zm0.1-0.6v-0.2q-0.1-0.1-0.1 0c0 0.1 0 0.2 0.1 0.2zm-0.1-0.5c0.1 0 0.1 0 0.1-0.1q0 0 0 0-0.1 0-0.1 0.1zm0 1.9q0 0-0.1 0 0 0 0 0.1 0 0 0 0 0.1 0 0.1-0.1zm0.1-0.5q0.1 0 0.2 0.1 0-0.1 0-0.3c-0.1 0-0.1 0.1-0.2 0.2zm0.1 0.8q0.1 0.1 0.2 0.3 0.1-0.2 0.1-0.3c0 0 0-0.1-0.1-0.1q-0.1 0.1-0.2 0.1zm0.1 2.4q0.2-0.1 0.3-0.3-0.2 0-0.3 0.1-0.1 0.1 0 0.2zm0 0.3q0.1 0.1 0.2 0.1 0-0.1-0.1-0.2-0.1 0-0.1 0.1zm0.4 0.8q0-0.1-0.1-0.1-0.1 0-0.1 0.1-0.1 0-0.1 0.1 0.1 0.1 0.1 0.2 0.1-0.2 0.2-0.3zm0.3-2.9q0 0 0 0 0-0.1 0-0.1c-0.1 0-0.2 0-0.3 0q0.1 0.2 0.3 0.1zm0 1.7q-0.1 0-0.2 0.2 0.2 0 0.2-0.2zm0-1c-0.1 0-0.1 0-0.2 0.2 0.1-0.1 0.2-0.1 0.2-0.2zm0-1c0 0 0 0 0 0q0 0-0.1 0 0.1 0.1 0.1 0.1 0 0 0-0.1zm0.3-0.9q0 0 0.1-0.1-0.1 0-0.1-0.1-0.1 0-0.1 0.1 0 0 0 0 0 0 0 0 0 0.1 0.1 0.1zm0.2 3.3c0.1-0.1 0.1-0.3 0.2-0.4q-0.2 0-0.4-0.1c0 0.1 0 0.3 0.2 0.5zm0.2 1.3c0 0 0 0.1 0 0.1 0.1 0 0.1 0 0.2-0.1q-0.2 0-0.2 0zm-0.3-0.5q0.1 0 0.2 0-0.1-0.3-0.2-0.2c-0.1 0 0 0.1 0 0.2zm0.2 1.3q-0.2 0.1-0.2 0.2 0.2 0 0.2-0.2zm0.2 0.7c-0.1-0.1-0.1-0.1-0.2-0.1 0.1 0.1 0.1 0.2 0.2 0.1zm0.1-0.5q-0.1-0.1-0.2 0c-0.1 0.1-0.1 0.2 0 0.3q0.1-0.2 0.2-0.3zm0.1-1.1q0-0.1-0.1-0.1-0.1-0.1-0.1 0c0 0 0 0 0 0q0 0.1 0.1 0.2 0.1 0 0.1-0.1zm0.1 0.7q0.1-0.2-0.1-0.3 0 0.2 0.1 0.3zm0.1 0.6c0 0-0.1 0-0.1 0 0 0.1 0.1 0.1 0.2 0.1q0-0.1-0.1-0.1zm0.1-2.5q0 0-0.1 0.1c0 0 0 0 0.1 0q0.1 0 0-0.1zm0.2-0.9q0 0 0 0 0 0 0-0.1-0.1 0-0.2 0c0 0 0 0.1 0 0.1q0.1 0 0.2 0zm0.2 3.4c-0.1 0-0.1-0.1-0.2-0.1-0.1 0.1-0.1 0.2 0 0.2q0.1 0.1 0.2-0.1zm-0.1-1.3c0.1-0.1 0.1-0.1 0.1-0.2q-0.1 0-0.2 0 0.1 0.1 0.1 0.2zm0.1-0.6q0-0.1 0-0.1-0.1 0-0.1 0.1 0 0 0 0 0.1 0 0.1 0zm0.2-0.8q-0.1-0.1-0.1-0.1-0.1 0.1-0.1 0.1 0.1 0.1 0.2 0zm0.2 3.8q0 0-0.1 0 0 0 0 0c0 0 0 0.1 0 0.1q0.1 0 0.1-0.1zm0.3-1.2h-0.2q0 0 0 0c0 0 0.1 0.1 0.2 0zm0-3.3q-0.2 0-0.2 0.1 0 0.1 0.1 0.1 0.1-0.1 0.1-0.2zm0 4.4q0.1 0 0.2 0.1 0-0.2-0.2-0.1zm0.4 0.2c-0.1-0.1-0.1-0.1-0.1-0.1q-0.1 0-0.1 0 0 0 0 0.1 0 0 0 0 0 0 0 0-0.1 0-0.1 0 0 0 0 0.1 0 0 0.1 0 0-0.1 0-0.1 0 0 0 0 0 0 0 0 0.1 0.1 0.2 0zm0.1-0.3q-0.1-0.1-0.2-0.1c0.1 0.2 0.1 0.2 0.2 0.1zm0.1-0.3q0 0-0.1 0 0 0 0 0 0.1 0 0.1 0.1 0-0.1 0-0.1zm0.2-1.5q0.1 0 0.1-0.1h-0.1q0-0.1-0.1-0.3-0.1 0.2-0.1 0.3 0 0.1 0.1 0.1c0 0.1 0.1 0 0.1 0zm0.5 2.3q0 0 0-0.1 0 0-0.1 0 0 0.1 0.1 0.2 0 0 0-0.1zm0-0.2c0-0.1 0-0.1-0.1 0q0 0 0 0 0 0 0 0 0 0-0.1 0 0 0 0 0 0 0 0 0 0 0 0 0 0.1-0.1 0.1-0.2c-0.1-0.1-0.3-0.1-0.4 0q0.1 0.2 0.2 0.4 0-0.1 0.1-0.1 0-0.1 0-0.1 0 0 0 0 0 0 0 0 0.1 0 0.1 0 0 0 0.1 0zm-0.2 0q0 0 0 0 0 0 0 0 0 0 0 0zm0.5-0.2c-0.1-0.1-0.1-0.1-0.2 0.1 0.1-0.1 0.2 0 0.2-0.1z"/>
	<path class="s0" d="m22 64.2z"/>
	<path class="s0" d="m22 64.2z"/>
	<path fill-rule="evenodd" class="s0" d="m27.6 62c0.1 0.2 0.1 0.2-0.1 0.3-0.1 0.1-0.1 0.1-0.1 0.2 0 0.1-0.1 0.1-0.1 0.1q-0.5 0.7-1.2 1.2-0.6 0.4-1.2 0.7c-0.1 0-0.1 0-0.3-0.1-0.1 0.1-0.3 0.3-0.5 0.3q-0.1-0.4-0.2-0.8 0-0.1 0.1-0.1 0.5-0.4 0.4-1-0.3-1.2-0.6-2.3-0.1-0.4-0.1-0.7c-0.1-0.3-0.2-0.3-0.4-0.3q-0.3 0-0.5 0-0.3-0.1-0.4-0.4-0.1-0.2 0.1-0.4 0.2-0.1 0.3-0.1 0.3-0.1 0.6-0.1c0.1-0.1 0.2-0.1 0.2-0.1q1.3-0.3 2.5-0.6 0.3-0.1 0.6-0.1 0.4-0.1 0.5 0.1c0.2 0.2 0.1 0.5 0 0.7q0 0-0.1 0-0.2 0.3-0.1 0.6 0.3 1.4 0.6 2.9zm-4.7-3.2q0 0 0 0c-0.1-0.1-0.1 0-0.2 0.1q0.1 0 0.2-0.1zm1-0.4q0 0.1 0 0.1 0 0 0.1-0.1-0.1 0-0.1 0 0 0 0 0zm-0.2 1.2q0 0 0-0.1-0.1 0.1-0.1 0.1 0.1 0 0.1 0 0 0 0 0zm0.1-0.8c0.1 0 0.2-0.1 0.2-0.1q0-0.1-0.3-0.1 0 0.3 0.1 0.2zm0.1 1.2q0.1 0.1 0.2 0.2c0-0.2 0-0.2-0.2-0.2zm0.4 0.2q-0.1 0-0.1 0.1 0.1 0 0.2 0.1 0-0.2-0.1-0.2zm0 4.2c0-0.1-0.1-0.1-0.1-0.1q-0.1 0.1-0.1 0.1 0 0.1 0.1 0.2 0.1-0.2 0.1-0.2zm0.3-0.5q0 0 0 0-0.1 0-0.1 0 0 0.1 0.1 0.1 0 0 0-0.1zm1-4.2c0.1-0.1 0.1-0.1 0-0.2zm-0.7-1.1c0-0.1 0-0.1-0.2-0.1q0.1 0.2 0.2 0.1zm0.2 4.3c-0.1 0-0.2 0-0.2 0.2 0.2 0 0.3 0 0.2-0.2zm0.1-1.6c0-0.1-0.1-0.1-0.2-0.1q0.1 0.1 0.2 0.2c0 0 0 0 0 0q0.1-0.1 0-0.1zm0.1-2.7q-0.1 0.1-0.2 0.2 0.2 0 0.2-0.2zm0.3 3.3q0 0-0.1-0.1-0.1 0.1-0.1 0.1c0 0 0.1 0.1 0.1 0.1q0-0.1 0.1-0.1zm0.1-2c-0.1-0.1-0.1-0.1-0.2-0.1q0.1 0.1 0.1 0.1c0 0 0.1 0 0.1 0zm0 3.4c0-0.1 0 0 0 0q-0.1 0.1 0 0.1c0.1-0.1 0.1-0.1 0-0.1zm0.3-2.5c0.1 0 0.1-0.1 0.2-0.1-0.1-0.1-0.1-0.2-0.3-0.1q0 0.1 0.1 0.2zm0.2 2.7q-0.1-0.1-0.1 0c0 0 0 0 0 0q0 0 0.1 0zm0.2-0.7c0-0.1-0.1-0.1-0.2-0.1q0 0.2 0.1 0.2c0 0 0.1-0.1 0.1-0.1zm-0.1-3.2q0 0.1 0 0.1 0.1-0.1 0-0.1zm0.2-1.3c0-0.1 0-0.1-0.1-0.2-0.1 0-0.1 0.1-0.1 0.2 0.1 0 0.2 0.1 0.2 0zm0.2 4.4q0 0 0 0 0 0.1 0.1 0.1c0-0.1 0-0.1-0.1-0.1zm0.5-0.4c-0.1 0-0.2 0-0.2 0.1 0 0 0.1 0 0.1 0q0.1 0.1 0.1-0.1z"/>
	<path fill-rule="evenodd" class="s0" d="m32.3 62.1q0.1 0.3-0.2 0.4-0.1 0.1-0.3 0.2-1.1 0.3-2.2 0.5-0.2 0-0.4 0-0.3 0-0.4-0.3c0-0.2 0-0.3 0.2-0.4q0 0 0-0.1c0.5-0.3 0.8-0.7 0.9-1.2q0-0.4 0.1-0.8 0.1-2.5 0.2-5 0-1.1 0-2.1 0-0.1 0-0.2 0.1 0 0.1 0 0.2 0.6 0.5 1.1 0.3 0.5 0.3 1-0.1 2.4-0.2 4.8 0 0.5 0 0.9c0 0.5 0.3 0.7 0.7 0.8q0.2 0.1 0.4 0.1 0.2 0.1 0.3 0.3zm-1.8-7.4q0.1 0 0.2 0c0-0.2-0.1-0.3-0.2-0.3-0.1 0-0.1 0.1 0 0.3zm0.1 5.1q-0.1 0-0.1 0.2 0.1-0.1 0.1-0.2zm0.1-3.9q0 0 0 0-0.1 0-0.1 0 0 0.1 0 0.1 0.1 0 0.1-0.1zm0.4 5.9c0 0-0.1-0.1-0.2-0.1q0.1 0.1 0.1 0.2 0-0.1 0.1-0.1z"/>
	<path fill-rule="evenodd" class="s0" d="m21.3 52.8q-0.1-0.1-0.1-0.2 0.2 0 0.4 0 1.1-0.2 2.2 0 0.4 0 0.5-0.3 0.1-0.1 0.2-0.3 0.1-0.2 0.3-0.2 0.4-0.1 0.5 0.3 0.2 0.7 0.4 1.5 0.1 0.4 0.2 0.8 0 0.1 0 0.3 0 0 0 0c0.1 0.2 0.1 0.3 0.1 0.5 0.1 0 0 0.1 0.1 0.2q0 0.1 0 0.2 0 0 0 0.1 0 0.1 0 0.1 0.1 0 0.1 0.1 0 0.2-0.2 0.3c-0.3 0.2-0.6 0.1-0.7-0.1q-0.2-0.2-0.2-0.3c-0.3-0.6-0.7-1.1-1.1-1.5-0.5-0.5-1.1-0.8-1.8-0.8q0-0.1 0-0.1c-0.1-0.1-0.1-0.1-0.1-0.1-0.1 0.2-0.2 0.1-0.3 0.1q-0.2 0.1-0.4 0.1-0.1-0.3-0.1-0.6 0.1-0.1 0.2-0.2c-0.1-0.1-0.1-0.1-0.3 0.1zm4.6 2.3q0.1 0 0.2 0-0.1-0.2-0.2 0zm-0.4 0.1c0.1 0 0.1-0.1 0.1-0.2q-0.1 0-0.1 0.2zm-0.1 0.4q0 0.1 0 0.1 0.1 0 0.1 0-0.1-0.1-0.1-0.1 0 0 0 0zm-0.3-1q0.1 0 0.2 0c0-0.1 0-0.1-0.1-0.1q0 0-0.1 0.1zm0 0.8q0 0 0.1 0.1c0-0.2 0-0.2-0.1-0.1zm-0.5-0.7q0 0 0 0 0.1 0 0.1-0.1-0.1 0-0.1 0 0 0 0 0.1zm-0.7-1.4q0.1-0.1 0.2-0.2c-0.2 0-0.2 0-0.2 0.2zm-0.1 0.6q0 0 0 0 0.1 0 0.1 0 0-0.1-0.1-0.1 0 0 0 0.1zm-1.1-0.5q0-0.1 0.1-0.2-0.1 0-0.2 0c0 0.1 0 0.2 0.1 0.2z"/>
	<path fill-rule="evenodd" class="s0" d="m44 59.4q0 0.3-0.2 0.4-0.1 0.1-0.3 0.2-1.1 0.2-2.2 0.5-0.2 0-0.5 0c-0.2-0.1-0.3-0.5-0.1-0.7q0.1-0.1 0.2-0.1 0.4-0.4 0.5-0.9 0-0.5-0.1-1-0.2-1.1-0.4-2.1-0.1 0-0.1-0.1 0.1 0 0.2 0c0.1-0.1-0.1-0.2 0-0.3q-0.1-0.1-0.3-0.1-0.2-1.2-0.5-2.4 0.1 0.1 0.1 0.1 0.3 0.5 0.6 1 0.3 0.4 0.5 0.8 0.2 0.3 0.3 0.6 0 0.2 0.1 0.4-0.1 0-0.2 0 0 0.3 0.2 0.2 0.2 0.8 0.4 1.6 0.2 0.6 0.5 1.1 0.3 0.3 0.8 0.5 0.1 0 0.2 0 0.3 0.1 0.3 0.3zm-3-4.4q0 0-0.1-0.1-0.1 0.1-0.1 0.2c0.1 0 0.1 0 0.2 0q0 0 0-0.1z"/>
	<path fill-rule="evenodd" class="s0" d="m68.2 53.6q0.1 0.4 0.2 0.8c-0.2 0.1-0.3 0.1-0.4 0-0.1 0.1-0.2 0.1-0.3 0.1-0.4 0-0.8 0-1.1-0.1q-0.2 0-0.4 0-0.4 0-0.5 0.3-0.1 0.1-0.1 0.2c-0.1 0.3-0.6 0.3-0.7 0q-0.1-0.1-0.2-0.3 0-0.2-0.1-0.4 0-0.1 0-0.2 0 0-0.1-0.2-0.2-1.1-0.5-2.3-0.1-0.2-0.1-0.4c0.1-0.3 0.4-0.5 0.8-0.4q0.2 0.1 0.3 0.4 0.4 0.7 0.9 1.4 0.4 0.4 0.9 0.6 0 0.1 0.1 0.1 0.1 0.1 0.2 0.1 0 0 0 0 0.5 0.3 1.1 0.3zm-3.8-1.6q0 0-0.1 0 0 0.1 0.1 0zm0.1-0.4q0 0.1 0.1 0.2 0.1-0.2-0.1-0.2zm0.9 1.2q0.1 0.1 0.1 0.1c0 0 0 0 0.1 0q-0.1-0.1-0.2-0.1 0 0 0 0zm-0.5 1q0 0-0.1-0.1c0 0.1 0 0.1 0 0.1q0 0.1 0.1 0zm0.1-1.6q0-0.1 0-0.1 0 0 0 0-0.1 0-0.1 0 0 0 0 0 0 0.1 0.1 0.1 0 0 0 0 0 0 0 0zm0 0.5q0.1-0.1 0.1-0.1 0-0.1 0-0.1-0.1 0.1-0.1 0.1 0 0 0 0.1zm0 0.4q0.1 0.1 0.2 0.1 0 0 0 0-0.1-0.1-0.1-0.1 0 0-0.1 0zm0.3 1.7q-0.1-0.1-0.1-0.1 0 0-0.1 0.1 0.1 0 0.1 0c0 0 0.1 0 0.1 0zm0.2-1.6q0.1-0.1 0.1-0.1c0-0.1 0-0.1-0.1-0.1 0 0-0.1 0-0.1 0 0-0.1-0.1-0.1-0.2-0.1q0.2 0.3 0.3 0.3zm0.1 1.4q0 0-0.1-0.1v0.2q0.1 0 0.1-0.1 0 0 0 0zm0.4-1.1q0 0 0 0-0.1 0-0.2 0.1 0.1 0.1 0.1 0.1 0.1-0.1 0.1-0.2zm0.4 0.4q0 0 0 0-0.1 0-0.1 0 0 0 0.1 0.1 0 0 0-0.1zm0.4-0.5h-0.1q0 0 0 0 0 0 0.1 0 0 0 0 0 0 0 0 0zm0.5 0.9q0-0.1-0.1-0.1c0 0 0 0.1 0 0.1q0 0.1 0.1 0z"/>
	<path fill-rule="evenodd" class="s0" d="m62.8 52.8q0.3 1.2 0.6 2.6-0.1 0-0.1 0-0.1-0.1-0.2-0.2c-0.1 0.1 0 0.2 0 0.2q-1.6 0.4-3.3 0.8-0.1-0.5-0.2-0.9 0.1 0 0.2 0c1-0.5 1.7-1.4 1.9-2.5q0.1-0.3 0.1-0.7 0.1-0.3 0.5-0.3 0.3 0 0.3 0.3 0.1 0.2 0.2 0.4c0 0.1-0.1 0.2-0.2 0.2q0.1 0.1 0.2 0.1zm-2.5 2.5c0 0-0.1 0-0.1 0 0 0.1 0.1 0.1 0.1 0.1q0.1 0 0.1 0 0-0.1-0.1-0.1zm0.9 0q0.1-0.1 0.2-0.1-0.1-0.1-0.2 0.1zm0.1 0.1c-0.1 0-0.2-0.1-0.3 0 0.1 0.2 0.2 0.2 0.4 0.2q0-0.2-0.1-0.2zm0.7-2.4q-0.1-0.1-0.2-0.1c0 0 0.1 0.2 0.2 0.1z"/>
	<path fill-rule="evenodd" class="s0" d="m67 42.9q-0.1-0.4-0.2-0.9 0.1 0 0.3 0 0.8-0.1 1.6 0.1 0.1 0 0.3 0 0.3 0.1 0.4-0.2 0-0.1 0.1-0.3 0.1-0.2 0.4-0.2 0.2 0 0.3 0.2 0.1 0.1 0.1 0.3 0.4 1.4 0.7 2.7 0 0.2 0 0.4 0 0.3-0.2 0.4c-0.2 0.1-0.4 0.1-0.6-0.1q-0.1-0.1-0.2-0.3-0.5-1.2-1.7-1.8c-0.1 0-0.1-0.1-0.2-0.2q0 0.1-0.1 0.1-0.5-0.1-1-0.2zm3.7 1.6c0 0.1 0 0.1 0.1 0.2q0 0 0-0.1 0.1-0.1 0-0.1 0 0-0.1 0zm-0.8-2.6q0 0.1 0 0.1 0.1 0 0.2-0.1c-0.1 0-0.2 0-0.2 0zm0 1.1c0 0.2 0.1 0.2 0.2 0q-0.1 0-0.2 0zm0.1 0.7q0-0.1-0.1-0.2 0 0 0 0c0 0.1 0 0.1 0.1 0.2zm-0.4 0.1q0 0 0 0 0 0 0.1 0-0.1 0-0.1 0 0 0 0 0zm-0.2-0.4c0-0.1 0.1-0.2 0.1-0.3q-0.2 0-0.1 0.3zm-1.5-0.5q0 0 0 0 0.1-0.1 0-0.1-0.1 0.1 0 0.1zm-0.5-0.5q0 0.2 0 0.2 0.1 0.1 0.1 0.1 0-0.1 0.1-0.2-0.1 0-0.2-0.1zm-0.3 0.1q0 0 0 0 0 0 0.1 0-0.1 0-0.1-0.1 0 0.1 0 0.1z"/>
	<path fill-rule="evenodd" class="s0" d="m57.3 45.4q-0.1-0.4-0.2-0.9 0.4-0.1 0.7-0.1c0 0 0.1 0 0.1 0 0 0.1 0.1 0.1 0.2 0.1q0.1-0.1 0.3-0.2 0-0.1 0.1-0.1 1-0.2 2-0.5 0 0 0.1 0 0 0.2 0 0.4 0.1 0.1 0.1 0.2 0.3 1.3 0.6 2.5c0.1 0.3 0 0.4-0.2 0.5-0.3 0.1-0.4 0.1-0.6-0.1q-0.1-0.1-0.1-0.2-0.3-0.5-0.8-0.9c-0.6-0.5-1.2-0.7-1.9-0.7q-0.2 0-0.4 0zm3.6 0.9q0 0.1 0 0.1 0.1 0 0.1 0 0.2-0.1 0-0.3 0 0.1-0.1 0.1 0 0.1 0 0.1zm-0.3-1.4q0.1 0 0.2 0c-0.1-0.1-0.1-0.1-0.2 0q0 0 0 0zm0 0.1c0.1 0.2 0.1 0.2 0.2 0.1q-0.1 0-0.2-0.1zm-0.2 1.2h0.3q-0.1-0.1-0.1-0.2c-0.1 0.1-0.1 0.2-0.2 0.2zm0-1.5c0.1 0 0.1 0 0.1-0.1q0.1-0.1 0-0.1-0.2 0-0.2 0.1 0 0 0.1 0.1zm-0.1 0.3q-0.2-0.1-0.4-0.2c0 0.3 0.1 0.4 0.4 0.4q0.1-0.2 0-0.2zm-0.3-0.4c0.2 0 0.2 0 0.2-0.1q-0.1 0-0.2 0.1zm-0.2 0.1c0.1 0 0.2 0 0.2 0v-0.4c-0.1 0-0.2 0-0.2 0.1 0 0.1-0.1 0.2 0 0.3zm-0.1 0.8q0-0.1 0-0.2c-0.1 0.1-0.1 0.1 0 0.2zm-0.2 0.3q0.1 0.1 0.1 0.1c0.1 0 0.1-0.1 0.1-0.1q0 0-0.1-0.1 0 0.1-0.1 0.1zm-0.4-0.9q0 0.2 0.1 0-0.1 0-0.1 0c0 0-0.1 0 0 0zm-0.4 0.3q0.1-0.1 0-0.1-0.1 0.1 0 0.1zm-0.7-0.5q0 0.1 0 0.1 0.1 0 0.1-0.1 0 0-0.1-0.1 0 0.1 0 0.1z"/>
	<path fill-rule="evenodd" class="s0" d="m60 51.8q-0.2-0.3-0.4-0.5-0.3-0.5-0.9-0.6-0.1 0-0.1 0 0 0-0.1-0.1-0.1-0.4-0.2-0.8 0-0.1 0.1-0.1c0.5-0.3 0.7-0.9 0.7-1.4q0-0.3 0-0.5 0.1-0.3 0.4-0.3 0.3-0.1 0.4 0.2 0.1 0.1 0.1 0.2 0.4 1.9 0.8 3.7 0.1 0.1 0.1 0.2 0 0.3-0.2 0.4c-0.2 0-0.4 0-0.5-0.1q-0.1-0.1-0.2-0.3zm0.2 0q0.1 0 0.2-0.1c-0.1 0-0.1-0.1-0.2 0 0 0 0 0 0 0.1z"/>
	<path class="s0" d="m58.7 55.8q0 0 0 0-0.1 0.2-0.1 0.5c0.1 0.1 0.3 0.1 0.5 0-0.1-0.3-0.2-0.7-0.2-0.7q-0.1 0.1-0.2 0.2z"/>
	<path fill-rule="evenodd" class="s0" d="m79.9 32.2q-0.1 0-0.1 0c0.1-0.2 0-0.3 0-0.5q-0.1-0.5-0.2-0.9c-0.1-0.3-0.2-0.7-0.3-1q0 0.1 0.1 0.2-0.1 0.1-0.2 0.2 0 0 0-0.1 0 0 0-0.1 0 0-0.1 0 0.1-0.2 0.2-0.3-0.1-0.5-0.2-1-0.2-0.8-0.4-1.6-0.1-0.4-0.2-0.8c0-0.1 0-0.2-0.2-0.2 0.1-0.1 0.1-0.3 0.1-0.4-0.1-0.2-0.1-0.5-0.2-0.7q-0.1-0.3-0.1-0.6 0-0.1-0.1-0.2 0 0-0.1 0 0-0.1 0.1-0.1-0.1-0.6-0.3-1.1 0 0-0.1-0.1 0 0 0 0 0.1-0.1 0-0.2 0-0.1 0-0.1 0 0 0 0 0 0 0 0-0.2 0.1-0.3 0.3-0.1 0-0.1-0.1 0.1-0.2 0.1-0.3 0 0 0 0 0 0 0 0 0 0-0.1 0c0.1-0.2 0.1-0.2 0.3-0.2q-0.1 0.1-0.2 0.2 0 0 0 0 0 0 0 0 0.2 0 0.3 0.1 0 0 0 0 0 0 0 0 0-0.1 0-0.1-0.1-0.7-0.3-1.3-0.1 0-0.1 0c-0.1-0.1-0.1-0.2 0.1-0.2q-0.1 0-0.1-0.1c0-0.2 0-0.4-0.1-0.6q-0.1 0-0.1-0.1c0.1-0.2 0-0.4-0.1-0.5 0-0.1-0.1-0.1-0.1-0.1q0-0.1 0.1-0.2-0.1-0.4-0.2-0.8 0-0.1 0-0.1-0.1-0.1-0.2-0.2 0 0 0 0 0 0 0 0.1c0.1 0.1 0.1 0.3 0.2 0.4q-0.2 0.1-0.3 0.2 0 0-0.1 0c0 0 0 0 0-0.1q0-0.2 0-0.4c0 0 0-0.1-0.1-0.2q0 0 0 0 0 0 0 0 0 0 0 0 0-0.1-0.1-0.1c0.1-0.1 0.1 0 0.2 0 0 0-0.1 0.1-0.1 0.1q0 0 0 0 0 0 0 0 0.2 0 0.3 0 0 0 0 0 0 0 0 0 0 0 0 0c0-0.1 0-0.2 0-0.2q0.1-0.2 0-0.3-0.8-2.3-3.2-2.7-0.2-0.1-0.4-0.1h-0.4q0.1 0 0.2 0.1c-0.1 0.1 0.2 0.2 0.1 0.3q-0.1 0-0.1-0.1-0.2 0.2-0.2-0.1 0-0.1 0-0.2h-0.1q-0.2 0-0.3 0.1c0 0.2 0 0.3-0.2 0.3q0-0.1 0-0.3-0.1 0-0.3 0-0.7 0.2-1.5 0.4c0 0-0.1 0-0.1 0-0.1 0.1-0.2 0.1-0.2 0.1-0.1 0.1-0.2 0-0.2 0q-0.4 0.1-0.7 0.2 0 0-0.1 0-0.2 0-0.4 0.2c-0.2-0.1-0.3 0-0.4 0q-0.1 0-0.1 0-0.1 0.1-0.3 0.1-1 0.2-2 0.4-0.4 0.1-0.8 0.2 0 0.1 0 0.3-0.1-0.1-0.3-0.2-0.5 0.1-1 0.2v0.3q0 0 0 0-0.1-0.1-0.2-0.2-0.1 0-0.2 0 0 0.1 0 0.2-0.1 0-0.1 0c-0.1-0.1-0.3-0.1-0.4-0.1q-0.1 0.1-0.2 0.1-1.5 0.3-3 0.7-4.5 1-9 2.1-2.8 0.6-5.6 1.3-4.8 1.1-9.7 2.2-0.7 0.2-1.4 0.4-0.8 0.1-1.5 0.3-0.7 0.2-1.5 0.3-0.7 0.2-1.4 0.4-0.8 0.1-1.5 0.3-0.7 0.2-1.4 0.3-0.8 0.2-1.5 0.4-0.9 0.2-1.9 0.4c-0.1 0-0.2 0.1-0.2 0.2-0.1 0-0.1 0-0.2 0.1q0-0.1-0.1-0.2-0.5 0.2-1 0.3c-0.4 0-0.7 0.2-1.1 0.2q-0.5 0.1-1 0.3 0 0.1-0.1 0.2c-0.1-0.1-0.2-0.2-0.4-0.1-0.1 0-0.2 0-0.2 0.2q-0.1 0-0.2 0c0-0.1-0.1-0.1-0.3-0.1q-1.3 0.3-2.7 0.7-0.1 0-0.3 0.1c0 0 0 0 0 0q-0.7 0.1-1.2 0.2-0.1 0.2-0.1 0.2c-0.1 0-0.3 0.1-0.4 0 0-0.1-0.1-0.1-0.1 0q-0.4 0.1-0.9 0.2c-0.1 0-0.2 0-0.2 0.2q0 0-0.1 0 0-0.1 0-0.1-0.2 0-0.2 0 0 0.1 0 0.3c-0.1-0.1-0.3-0.1-0.3-0.2q-0.1-0.1-0.2 0c-0.2 0.1-0.4 0.1-0.6 0.1-0.3 0.1-0.6 0.2-0.9 0.2q0 0.1-0.1 0.1 0.3 0.1 0.3 0.2-0.1 0.1-0.2 0.1-0.1-0.1-0.2-0.3 0 0-0.1 0-0.2 0.1-0.4 0.1-0.2 0.1-0.5 0.1-0.2 0.1-0.4 0.1-0.2 0.1-0.4 0.1-0.2 0.1-0.5 0.1-0.2 0.1-0.4 0.1c-0.1 0.2-0.3 0-0.4 0.1q-0.8 0.2-1.6 0.4 0 0-0.1 0 0 0.1 0 0.2h-0.2q0-0.1 0-0.1-0.9 0.2-1.7 0.4-1 0.2-1.7 0.9-0.2 0.1-0.3 0.3c0 0 0 0.1-0.1 0.2-0.1 0-0.1 0.1-0.2 0.3 0 0 0 0.1-0.1 0.1-0.1 0-0.1 0.1-0.2 0.1q-0.1 0.3-0.2 0.5 0 0.1 0 0.2c-0.1 0.2-0.2 0.4 0 0.5h-0.2q0 0.3-0.1 0.6v0.2c0.1 0.2 0.1 0.3 0.1 0.5q0.2 0.8 0.3 1.5 0.3 0.2 0.4 0.3c0 0.1 0 0.2 0.1 0.2 0.1 0 0 0.1 0 0.2q-0.1 0-0.3 0 0.1-0.1 0.1-0.2 0 0-0.1 0 0 0.1 0 0.3 0.2 0.9 0.4 1.8c0.1 0.1 0.1 0.1 0.1 0.2q0.1 0.3 0.1 0.5 0.1 0.5 0.3 1.1 0 0.2 0.1 0.4c0 0 0 0.1 0 0.1 0 0.3 0.2 0.6 0.2 0.9q0.1 0 0.2 0-0.1 0.2-0.1 0.2 0.2 0.9 0.4 1.8 0.2 0 0.1 0.2c-0.1 0.1 0 0.2 0 0.3q0 0.1 0.1 0.3c0 0.2 0.1 0.3 0.3 0.4 0 0 0 0 0 0.1q0 0 0 0 0 0 0 0c0.2 0 0.2 0 0.1 0.2q-0.1-0.2-0.1-0.2 0 0 0 0-0.1 0.1-0.2 0.2 0.3 1.1 0.6 2.3 0.1 0 0.1 0.1c0.1 0.1 0 0.1-0.1 0.2q0.1 0.2 0.1 0.5c0.1-0.2 0.2-0.1 0.3-0.1q0.2 0 0.2 0.1c-0.1 0.1-0.1 0.1-0.2 0.1-0.1 0-0.1-0.1-0.2 0 0.1 0.7 0.3 1.4 0.8 1.9 0.1-0.1 0.1-0.1 0.3 0q0 0.1-0.1 0.3 0.3 0.2 0.6 0.5 0.5 0.4 1.1 0.6 0.5 0.1 1 0.2c0.1 0 0.2-0.1 0.2-0.1 0.1 0 0.2 0.1 0.3 0.1q0.2-0.1 0.4-0.1 0 0 0-0.1c0 0.1 0.1 0.1 0.2 0.1q0.1 0 0.2-0.1 0.1 0 0.1 0c0.1-0.2 0.2-0.2 0.3-0.1 0.1 0.1 0.2 0 0.3 0q0.3-0.1 0.5-0.1c0.2-0.3 0.2-0.2 0.3-0.1q0 0 0.1 0 1.2-0.3 2.5-0.6c0.1 0 0.2 0 0.3-0.1q0.1 0 0.2 0 0.7-0.2 1.4-0.3c0-0.1 0-0.2 0.1-0.2q0 0 0.1 0.1 7.2-1.7 14.5-3.3c-0.1-0.2-0.1-0.4 0.1-0.5q0 0.1 0.1 0.2-0.1 0.1-0.2 0.2 0.2 0 0.3 0c0 0 0.1-0.1 0.2-0.1 0.1-0.1 0.2 0 0.3 0q0.4-0.1 0.8-0.2 0.9-0.2 1.7-0.4 0-0.1 0.1-0.2 0.1 0.1 0.1 0.1 3.4-0.7 6.7-1.5-0.1-0.1-0.1-0.3c0.2 0.1 0.2 0.2 0.2 0.3q0.6-0.2 1.1-0.3 1.1-0.3 2.2-0.5 2.9-0.7 5.8-1.4c0.1 0 0.2 0 0.2-0.2 0.1 0.2 0.2 0.1 0.3 0.1q2-0.4 4-0.9 0.3-0.1 0.6-0.1-0.1-0.1-0.1-0.2c0-0.2 0-0.2 0.2-0.2q0.3 0.1 0.6 0.2c-0.2-0.3-0.2-0.3-0.1-0.4q0.2 0.2 0.3 0.3 2.4-0.5 4.8-1.1-0.1 0-0.1-0.1c0 0-0.1-0.1-0.1-0.1q0.1-0.1 0.2-0.2c0.1 0 0.2 0.1 0.2 0.2q0.1 0.1 0.1 0.2 2.9-0.7 5.8-1.4-0.1-0.1-0.1-0.1c0.1-0.1 0.1-0.1 0.2 0.1 0.1-0.1 0-0.2 0.1-0.2q0 0.1 0.1 0.2 1-0.3 2-0.5-0.1-0.1-0.1-0.2c0.1 0 0.1 0.1 0.2 0.2q0.3-0.1 0.6-0.2c0.3-0.1 0.7-0.1 1-0.3q0.1 0 0.1 0 0.1 0 0.2 0 3.3-0.7 6.6-1.5c0.3-0.1 0.6-0.1 0.9-0.3 0.1 0 0.1 0 0.2 0q0.8-0.3 1.3-0.8c0.1-0.1 0.2-0.2 0.2-0.3 0.3-0.1 0.4-0.3 0.4-0.5q0 0 0.1-0.1c0.2-0.1 0.2-0.3 0.3-0.5q-0.1-0.1-0.2-0.2 0-0.1 0.1-0.2c0.1 0.1 0.2 0.1 0.3-0.1q0-0.3 0.1-0.5c0-0.1-0.1-0.2-0.1-0.4h0.1v-0.4q0-0.1 0-0.3c-0.1-0.1 0-0.2-0.1-0.3zm-2.3 2.4q-0.1 0-0.2 0.1v-0.2c-0.2 0.2-0.4 0.3-0.6 0.4-0.2 0.1-0.3 0.1-0.4 0.3q0 0-0.1 0 0-0.1 0-0.1-0.6 0.1-1.2 0.2 0 0.1 0 0.2 0 0 0 0-0.1-0.1-0.2-0.1-0.5 0.1-1 0.2 0 0 0 0.1 0 0.1 0 0.2c-0.1 0-0.2-0.1-0.2-0.2q-0.4 0.1-0.9 0.2-1.8 0.4-3.6 0.8c-0.1 0-0.2 0-0.2 0.1 0 0.1-0.1 0.1-0.1 0.1-0.1-0.1-0.2-0.1-0.3 0q-1.9 0.4-3.8 0.8-0.4 0.1-0.9 0.3-0.1 0-0.3 0.1c-0.1-0.1-0.2 0-0.3 0q-4.1 0.9-8.1 1.9-0.1 0-0.2 0 0 0.1 0 0.3-0.2 0-0.5 0 0-0.1 0-0.2 0 0 0 0-0.7 0.2-1.4 0.4-0.3 0-0.5 0.1c-0.1 0-0.1 0.1-0.2 0.1-0.1-0.1-0.2 0-0.3 0q-6.2 1.4-12.5 2.9-4.4 1-8.8 2-0.1 0.1-0.3 0.1c-0.1 0-0.2 0-0.2 0.1q-1.5 0.3-3 0.6-0.1 0.1-0.2 0.1 0 0.1 0.1 0.2-0.2 0-0.3 0-0.1-0.1-0.1-0.1 0 0-0.1 0-1.9 0.4-3.9 0.9-0.4 0.1-0.9 0.2-0.4 0.1-0.8 0.2-0.4 0.1-0.9 0.2c-0.1 0-0.2 0-0.1 0.1q-0.1 0.1-0.1 0.1c-0.2-0.1-0.3-0.1-0.5 0q-3 0.7-6 1.3c-0.1 0.1-0.3 0.1-0.3 0.3q-0.1-0.1-0.2-0.2-0.1 0.2-0.1 0.3-0.1 0-0.1-0.2-0.4 0.1-0.7 0.2 0 0.1-0.1 0.2c0-0.1-0.1-0.1-0.2-0.2q-0.2 0.1-0.6 0.2v0.2c-0.2-0.2-0.2-0.2-0.5-0.1q-1.1 0.2-2.1 0.5-0.1 0-0.2 0.1-0.1 0-0.1 0c-0.2 0-0.5 0.1-0.7 0.1q-0.1 0-0.1 0 0 0 0 0 0 0 0 0 0 0 0 0 0 0 0 0.1 0.1 0 0.1 0 0 0 0 0c-0.1 0.1-0.1 0.1-0.2 0q0.1 0 0.1-0.1 0 0 0 0-0.2 0-0.3 0-0.5-0.1-0.9-0.3-0.1 0-0.1 0.1 0-0.1-0.1-0.2 0 0-0.1-0.1 0 0.1-0.1 0.2 0.1 0.1 0.2 0.1c-0.2 0.1-0.4 0-0.6 0 0.1-0.2 0.1-0.4 0.3-0.5q-0.2-0.4-0.4-0.8c-0.1 0-0.1 0-0.2-0.1 0 0 0-0.1 0-0.1q-0.1-0.1-0.1-0.2c0.1-0.1 0.1 0.1 0.2 0.1q0-0.3-0.2-0.7-0.1 0-0.2 0 0-0.1 0-0.1 0.1 0 0.2 0-0.1-0.7-0.3-1.3-0.1 0-0.2 0.1-0.1-0.1-0.1-0.3c0.1 0 0.2-0.1 0.3 0q0-0.2-0.1-0.4-0.1-0.6-0.3-1.3c0-0.1 0-0.3-0.2-0.3 0.1-0.2 0.1-0.3 0-0.4q0-0.2-0.1-0.4 0 0 0 0 0 0 0 0 0 0.1-0.1 0.1 0 0-0.1-0.2 0.1 0 0.1 0c0 0 0.1 0.1 0.1 0.1q0 0 0 0 0 0 0 0 0 0 0 0 0 0 0 0-0.1-0.5-0.2-1.1-0.3-1.4-0.7-2.8 0-0.1 0-0.2c-0.2 0-0.3 0.1-0.5 0.1q0-0.2 0.1-0.3 0.1 0 0.3 0.1-0.2-0.9-0.3-1.7-0.1 0-0.2 0 0 0 0-0.1c0.1-0.1 0.1-0.2 0-0.4q-0.1-0.6-0.2-1.2-0.1-0.1-0.1-0.2c-0.1 0-0.2 0-0.2-0.2q0.1 0 0.2 0-0.1-0.3-0.2-0.7-0.2-0.7 0.1-1.4 0.1-0.1 0.2-0.2c-0.1 0-0.2-0.1-0.1-0.2q0.1-0.1 0.3-0.1 0.3-0.3 0.6-0.5 0.2 0 0.3 0 0.2-0.1 0.3-0.1c0.1 0 0.2 0 0.2-0.1 0-0.1 0.2-0.1 0.3-0.1q0.1 0.1 0.1 0 0.1-0.1 0.3-0.1 0 0 0 0.1 1.3-0.3 2.5-0.6c0-0.2 0.2-0.2 0.3-0.4 0.1 0 0.2 0.2 0.2 0.3q0.5-0.1 1-0.2 0.3-0.1 0.5-0.2 0 0 0 0c-0.1 0 0-0.1 0-0.2q0.1 0 0.1 0.1 0 0 0 0 0 0.1-0.1 0.1 0 0 0 0 0 0 0 0 0 0 0 0 0.1 0 0.1 0c0.1-0.1 0.2-0.1 0.3-0.1q0.1 0 0.2 0 0.5-0.1 1-0.2 0.3-0.1 0.6-0.1 0.3-0.1 0.6-0.2c0.1 0 0.3-0.1 0.3-0.3q0.1 0 0.1 0.2 0.3-0.1 0.7-0.1 0.2-0.1 0.4-0.1 0.1-0.1 0.2-0.1c0 0 0.1 0 0.1 0q0.7-0.2 1.4-0.3 0 0 0.1-0.1c0-0.1-0.1-0.2 0-0.3 0.1 0.1 0 0.2 0.1 0.3 0.3 0 0.6-0.1 0.9-0.2q0-0.1-0.1-0.2 0.1 0.1 0.2 0.1c0 0.1 0.1 0.1 0.2 0q4-0.9 8-1.8c0.1-0.1 0.3-0.1 0.5-0.1 0 0 0.1-0.1 0.2-0.1 0.3 0 0.5-0.1 0.8-0.2q0-0.1 0-0.1 0.1-0.1 0.2 0.1 0.3-0.1 0.6-0.1c0-0.3 0-0.3 0.2-0.3 0 0-0.1 0.1 0 0.2q0.5-0.1 0.9-0.2c0.1 0 0.1-0.1 0.2-0.2 0.1 0.2 0.2 0.1 0.3 0.1q4.5-1.1 9-2.1 4.2-1 8.5-2 3.5-0.8 7.1-1.6 0 0 0.1-0.1v-0.1c0 0 0.1 0 0.1 0 0.1 0.1 0.1 0.1 0.2 0.1q4.5-1.1 9-2.1 0.1-0.1 0.2-0.1 0.1 0 0.1 0c0.2 0 0.4-0.1 0.7-0.1 0-0.1 0.1-0.1 0.1-0.1 0-0.1 0.2-0.1 0.2-0.1 0.1 0.1 0.1 0 0.2 0q0.7-0.1 1.4-0.3 0.1 0 0.2-0.1 0.2 0 0.4 0 0.1-0.1 0.3-0.1c0.2 0 0.3-0.1 0.2-0.3q0.2 0 0.3 0.2 0.5-0.1 0.9-0.2 0.1-0.2 0.1-0.3c0.2 0 0.2 0.1 0.3 0.2q0.4-0.1 0.9-0.2 0.1-0.1 0.1-0.2h-0.3c0-0.1 0.1-0.2 0.2-0.1 0 0.1 0.1 0 0.2 0 0.1 0.2 0.1 0.2 0.3 0 0 0.1 0.1 0.1 0.3 0.1q0.3-0.1 0.6-0.1 0.2-0.1 0.4-0.3c0-0.1 0.1-0.1 0.2-0.1q0 0.1 0 0.2 0.2 0 0.4-0.1 0.1 0 0.2 0c0.1 0 0.3-0.1 0.3-0.2q0 0 0.1 0c0.1 0.1 0.2 0 0.3 0q0.2 0 0.4 0 0.1-0.1 0.1-0.3c0.2 0.1 0.3 0.1 0.3 0.3q0.7 0.2 1.2 0.8 0.2-0.1 0.3-0.2c0.1 0.2 0.2 0.3 0.2 0.5q-0.1 0-0.1 0c-0.1-0.1-0.1-0.1-0.2 0 0.1 0.1 0.1 0.1 0.2 0.2q0 0 0.1 0c0 0.1-0.1 0.1-0.1 0.2 0 0.2 0 0.3 0.2 0.3q0.1 0 0.2-0.1c0 0.2-0.1 0.3-0.1 0.4 0-0.1-0.1-0.1-0.1-0.2q-0.1 0.1-0.1 0.1c-0.1 0.1 0 0.1 0.3 0.1v0.2q0 0 0 0 0 0 0 0 0 0 0 0 0 0 0.1 0 0.1 0 0.1 0.1 0.2 0 0.3 0 0-0.1 0.1-0.2 0.1 0 0.2 0c0.1 0.1 0.1 0.3 0 0.4q-0.1 0.1-0.2 0.2c0 0.1-0.1 0.1-0.2 0.1-0.1 0-0.1-0.1-0.1-0.2q-0.1-0.1-0.1-0.2 0 0.1 0 0.1-0.1 0-0.1 0 0 0.1 0 0.1-0.1 0-0.1 0 0 0 0 0 0 0 0 0 0 0 0 0 0 0 0 0 0 0.2 0.1 0.3-0.1 0-0.2 0 0 0.2 0.1 0.4 0.1 0.1 0.2 0.1v-0.3q0.2 0 0.3 0.1c0.2-0.1 0.2-0.1 0.3 0 0.1 0.2 0.2 0.3 0.3 0.4q0.1 0.1 0 0.2c-0.1 0.1-0.2 0.2-0.4 0.2 0 0-0.1-0.1-0.2-0.1q0.1-0.1 0.2-0.1c0-0.1 0-0.2 0-0.2-0.1 0-0.1-0.2-0.2-0.1q-0.2 0.1-0.4 0 0 0 0 0c0 0.2 0 0.3 0.2 0.4-0.2 0.2-0.1 0.4 0 0.6 0 0.1 0.1 0.2 0.1 0.3 0 0.1 0 0.2 0 0.3 0.1 0 0 0.1 0.1 0.2q0 0.4 0.1 0.8 0.1 0.2 0.2 0.5 0 0.1 0 0.2c0.1 0.1 0.1 0.1 0.1 0.3q0 0 0 0.1 0.1 0.5 0.3 1.1c0 0.2 0.1 0.2 0.2 0.3q-0.1 0-0.1 0.1 0 0 0 0 0 0.1 0.1 0.1 0 0 0 0c-0.1 0.2 0 0.4 0 0.6q0.3 1.3 0.7 2.7 0 0.3 0.1 0.7 0.2 0 0.3 0.1 0 0 0 0-0.1 0-0.2 0 0.1 0.1 0.2 0.2c0 0.1-0.1 0.1-0.2 0.2 0.1 0.1 0 0.2 0.2 0.2 0 0 0 0.1 0 0.1q0 0.1 0 0.2 0 0.3 0.1 0.6 0.1-0.1 0.1-0.1 0.1 0.1 0.2 0.1 0 0.1 0 0.1c0.2 0 0.2 0.1 0.2 0.3q0 0 0 0 0 0 0 0 0 0 0 0c0.2 0 0.2 0.1 0.4 0.2q-0.3 0-0.5-0.1 0 0 0 0 0 0 0.1-0.1 0 0 0 0 0 0 0 0c-0.1 0-0.2 0.1-0.2 0q0 0 0 0c-0.1-0.1-0.2 0-0.2-0.1 0 0.2 0 0.3 0.1 0.4q-0.1 0.1 0 0.3c0.1 0.1 0.1 0.2 0.1 0.3 0 0.1 0 0.1 0 0.2 0.1 0.1 0.1 0.2 0.2 0.3q-0.1 0-0.2 0c-0.1 0.4-0.2 0.8-0.5 1.1q0.1 0 0.1-0.1c0.1 0.1 0.1 0.2 0 0.3zm-77.3-0.5q0 0-0.1-0.2 0.1 0 0.2 0c0.1 0 0.2 0 0.2 0.1 0 0 0 0.1-0.1 0.1q-0.1 0.1-0.2 0zm0.1 1.7q-0.1 0-0.2 0 0.1-0.2 0.2-0.1c0 0 0 0.1 0 0.1zm0-1.1c-0.1 0-0.1-0.1-0.3 0 0.1-0.2 0.2-0.1 0.3-0.2zm0-0.3c0 0 0-0.1 0-0.1 0 0 0 0 0 0 0.1 0 0.2 0 0.2 0.1q-0.1 0-0.2 0zm0.3 2.2q-0.1 0-0.1-0.1 0.1-0.1 0.1 0c0 0.1 0 0.1 0 0.1zm78.7-4.9q0 0 0.1 0.1-0.1 0-0.1 0-0.1 0-0.1 0 0.1 0 0.1-0.1zm-0.5-1.2c0 0 0 0.1 0 0.1q-0.2 0.1-0.3 0.1-0.1 0-0.2 0 0-0.1-0.1-0.2 0.1-0.2 0.2-0.2 0-0.1-0.1-0.2 0 0 0 0.1 0 0 0 0 0 0-0.1 0.1 0 0.1-0.1 0-0.1-0.1-0.1-0.2 0.1 0 0.2-0.1 0.1-0.1 0.2-0.1c0 0.1 0.2 0.1 0.2 0.3 0 0.1 0.1 0.2 0.2 0.3zm-0.7 0.9c0 0 0-0.1 0-0.1q0-0.1 0.2 0-0.1 0.1-0.2 0.1zm0.2 0.4q0 0-0.1 0 0 0 0 0 0 0 0-0.1 0.1 0.1 0.1 0.1zm0-0.6q0.2 0 0.2 0.1 0 0.1-0.1 0.1-0.2 0-0.1-0.2zm0.1-0.3q0.1 0 0.3 0c0 0.1-0.1 0.2-0.2 0.2 0 0 0 0-0.1-0.2zm-1.2-1.6q-0.1-0.1-0.1-0.3c0.1-0.1 0.1 0.2 0.2 0.1q0 0 0 0.1 0 0-0.1 0.1zm0.1 0.1c-0.1 0-0.1 0-0.2-0.1q0 0 0.1 0 0 0 0.1 0.1zm-1.2-5.8q0 0 0 0-0.4-0.2-0.1-0.4 0 0 0 0 0 0 0 0c-0.2 0-0.2 0-0.1-0.1q0 0 0.1 0.1 0 0 0 0 0 0 0 0c0.1 0.1 0.1 0.2 0.1 0.4zm-0.3-1.1q-0.1 0-0.1-0.1c0 0 0.1 0 0.1 0q0.1 0 0.1 0.1c0 0-0.1 0-0.1 0zm0.2-0.1c0 0-0.1-0.1-0.1-0.1 0.1-0.1 0-0.3 0-0.5 0 0 0 0 0.1-0.1 0 0.1 0.1 0.1 0.1 0.2 0 0.1 0.1 0.2 0.1 0.3 0 0.1-0.1 0.3-0.2 0.2zm1 1.4q0-0.1 0-0.2 0 0 0 0c0.2 0 0.1 0.1 0.1 0.2q0 0.1 0 0.1c0 0.1 0 0.2 0 0.2 0 0.1-0.1 0.1-0.2 0.2 0 0-0.1 0.1-0.2 0q0 0-0.1 0c0-0.1 0.1-0.1 0.2-0.2 0.2 0 0.2-0.1 0.2-0.3zm-0.2-1.7q0 0 0.1 0 0.1 0 0 0.1 0 0 0 0c-0.1 0-0.1 0-0.1-0.1zm0.2 1.4q0-0.1 0.1-0.1-0.1 0.1-0.1 0.1zm-0.3 2.2q0 0 0 0-0.2 0.1-0.2-0.1 0.1-0.1 0.2 0 0 0 0 0.1zm-0.1-3.4q0-0.1 0.1-0.2 0.2 0.2-0.1 0.2zm0 0.3c-0.1 0-0.1-0.1-0.2-0.1q0.1-0.1 0.2 0.1zm0 0.1q0 0.1 0 0.2-0.2 0-0.4-0.1c0-0.1 0.1-0.1 0.4-0.1zm-0.2 0.3q0 0.1 0.1 0.3-0.1 0-0.3 0.1 0-0.2-0.1-0.5 0.2 0.1 0.3 0.1zm-0.1 1.5q0 0 0.2 0-0.1 0.2-0.1 0.3-0.2 0-0.2-0.2c0 0 0-0.1 0.1-0.1zm0.2 0.4q0 0 0 0 0 0.1 0 0.2-0.1 0-0.2 0 0 0 0-0.1c0-0.1 0-0.1 0.2-0.1zm0.1 1.2q0.1-0.2 0.2-0.5 0.1 0.1 0.2 0.2 0 0.2 0 0.4 0 0 0 0 0 0 0.1-0.1 0.1 0.1 0.2 0.2c-0.1 0.1-0.1 0.1-0.2 0.1q-0.1 0-0.2 0-0.4 0.1-0.5-0.3 0.1 0 0.2 0zm0.9-0.3q-0.1 0.1-0.1 0.1 0 0 0 0.1-0.1 0-0.2 0.1c-0.1-0.2 0-0.4 0-0.6q0.2 0.1 0.3 0.2 0.1 0.1 0 0.1zm0 0.5c0 0.1-0.1 0.1-0.2 0.1q0-0.2 0.1-0.2c0 0 0.1 0.1 0.1 0.1zm-0.3 0.5q-0.3 0.1-0.1-0.2 0.1 0 0.1 0.2zm-0.4 0.9q0.1-0.1 0.1-0.2 0.1 0.1 0.1 0.1 0 0.2-0.1 0.2c0-0.1-0.1-0.1-0.1-0.1zm0.2-0.2q0-0.1 0.1-0.1c0 0 0 0 0 0.1q0 0-0.1 0.1 0-0.1 0-0.1zm0.2 1.3c-0.1 0-0.2 0-0.2-0.1 0.2 0 0.2 0.1 0.2 0.1zm0.1-0.1q0-0.1 0-0.2 0.1 0 0.1 0c0 0.1 0.1 0.2 0 0.2 0 0-0.1 0-0.1 0zm0.2 0.1q0 0.1 0 0.1 0 0-0.1 0c0 0 0 0 0 0q0 0 0.1-0.1zm-0.2-1.8q0 0 0 0 0.2-0.1 0.4-0.2c0 0.2-0.2 0.3 0 0.4-0.2 0-0.2-0.2-0.4-0.2zm0.5 1.2q0.1 0 0.2 0 0 0 0 0.1-0.1 0.1-0.2-0.1zm0.1 1.2q-0.1 0.1-0.2 0 0.1-0.1 0.2 0zm0-1.4c0 0 0-0.1 0.1-0.1q0.1 0 0.1 0.1-0.1 0.1-0.2 0zm0.1-0.2c-0.1-0.1-0.4-0.1-0.3-0.3q0.1-0.1 0.2-0.1c0.1 0.1 0.2 0.2 0.1 0.4zm-0.3 1.9v0.2c-0.1-0.1-0.2-0.1 0-0.2zm0.2 0.6q-0.1 0.2-0.1 0.3-0.2 0-0.3 0c0.1-0.3 0.2-0.3 0.4-0.3zm-0.1 0.4q0.1 0 0.2 0.1-0.1 0.1-0.2 0.2c-0.1 0-0.1-0.1-0.1-0.1 0-0.1 0-0.2 0.1-0.2zm0.1 0.4h0.1c0 0.1 0 0.1-0.1 0.1q-0.1 0 0-0.1zm0.1-2.3q0 0-0.1 0 0.1-0.1 0.1-0.1 0 0 0 0 0 0 0 0.1zm0.4-0.6q-0.1 0.1-0.2 0.1 0.1-0.2 0.2-0.1zm-0.2-0.2c0.1-0.1 0.2-0.2 0.3-0.2-0.1 0.1-0.1 0.2-0.3 0.2zm0 1.5q0-0.1 0-0.2 0.1 0 0.2 0v0.2zm0.5 0c0 0.1 0 0.2-0.2 0.2 0-0.1 0-0.2 0.2-0.2zm0-0.7c-0.1 0.1-0.3 0.1-0.3 0.3q-0.2-0.1-0.1-0.3c0.1 0 0.2-0.1 0.4 0zm-0.5-2.5q0 0 0.1 0-0.1 0.1-0.1 0.1 0 0 0-0.1 0 0 0 0zm0.1 0.8c0 0 0.2 0 0.2 0.1q0.1 0 0.1 0.2 0 0.1-0.1 0.2-0.1 0-0.2 0 0-0.1-0.1-0.2c0-0.1-0.1-0.1-0.2-0.1 0 0-0.1 0-0.1 0q0-0.1 0-0.1 0.1-0.1 0.2-0.1 0.1 0 0.2 0zm-0.4-0.2q0.2 0 0.1 0.2 0-0.1-0.1-0.2zm0.2-0.7q0 0.1 0 0.2-0.2 0.1-0.3 0.2 0 0 0 0c-0.1 0.1-0.2 0.1-0.3 0q0 0 0 0 0.2-0.3 0.4-0.6 0.1 0.1 0.2 0.2zm-0.4-1.4q0 0 0.1 0 0.1 0 0.1 0-0.1 0.1-0.1 0.1 0 0-0.1 0 0 0 0-0.1zm0 0.5c0.1-0.1 0.2 0.1 0.2 0.2 0 0.1-0.1 0.2-0.2 0.1q-0.1-0.1-0.2-0.2-0.1-0.1 0-0.2c0 0 0.1 0 0.1 0 0 0.1 0 0.1 0.1 0.1zm-0.1-0.2q0 0-0.2 0c0.1-0.1 0.2-0.1 0.2-0.1q0 0 0 0.1zm-0.2-0.4v-0.2c0.1-0.1 0.1-0.1 0.2 0 0 0 0 0.1 0 0.2 0 0.1-0.1 0-0.2 0zm0.2-0.3q0-0.1-0.1-0.1 0.1 0 0.1 0.1zm-0.3-1q0-0.1 0.1-0.2 0.1 0.1 0.1 0.3 0 0-0.1 0.1c0-0.1-0.2-0.1-0.1-0.2zm0.1 1.6q0 0 0 0 0 0.1-0.1 0.1-0.1 0-0.1 0-0.1 0-0.1-0.1c0.1 0 0.1-0.1 0.1-0.1q0.1 0 0.2 0.1zm-0.3-0.5c-0.1-0.2 0.1-0.2 0.1-0.3 0.1 0.2 0.1 0.2-0.1 0.3zm0.1-1.5q-0.1 0.1-0.2 0c0 0 0 0 0-0.1 0.1 0 0.1 0 0.2 0.1zm0.1-1.5c0 0.1-0.1 0.2-0.2 0.3 0-0.1 0-0.2 0-0.3q0.1 0 0.2 0zm-0.2-0.8c0 0 0 0.1 0 0.1-0.1 0.1-0.2 0-0.2 0q0.1-0.1 0.2-0.1zm-0.3-0.8q0 0.1 0 0.2-0.1 0-0.2-0.1 0-0.1 0.2-0.1zm0.1 1.2c0.1 0.1-0.1 0.1-0.1 0.2q-0.1 0.1-0.1 0.2c0.1 0.2 0.1 0.2-0.2 0.3q0.1-0.1 0.1-0.2c-0.1-0.2-0.2-0.2-0.4-0.2q0.1-0.2 0.1-0.3c0.1 0 0.2 0 0.3 0q0.1 0.1 0.3 0zm-0.4-0.8c0.1 0.1 0.1 0.2 0 0.2q-0.1 0-0.2-0.1 0.1-0.1 0.2-0.1zm-0.1-0.2q-0.1 0-0.1-0.2c0.1 0 0.2 0 0.1 0.2zm-0.1-0.9q0 0.1 0 0.3-0.2 0-0.2-0.1 0-0.2 0.2-0.2zm-0.1 0.3q0.1 0 0.2 0v0.2q-0.1 0-0.3-0.1c0 0 0-0.1 0.1-0.1zm-0.1-2q0.1 0 0.1 0.2-0.1 0.2-0.4 0.1 0-0.1 0.1-0.2 0-0.2 0.2-0.1zm-0.1 1.5c-0.1 0-0.1-0.1-0.1-0.1 0.1-0.1 0.1-0.1 0.1 0 0 0 0 0.1 0 0.1zm-0.4-0.8q0 0 0.1-0.1 0 0 0 0 0 0.1 0.1 0.1-0.1 0.1-0.1 0.1c-0.1 0-0.1 0-0.1 0q0-0.1 0-0.1zm0-0.2q0-0.1 0-0.1 0 0 0.1 0 0 0 0 0.1-0.1 0-0.1 0zm0.1-0.3c-0.1-0.2-0.1-0.2 0.1-0.2q-0.1 0.1-0.1 0.2zm-0.1-0.8q0.1-0.1 0.1-0.1 0 0.1 0 0.1 0 0-0.1 0 0.1 0.1 0.1 0.2-0.2-0.1-0.3-0.1c0.1-0.1 0.2-0.1 0.2-0.1q0 0 0 0zm-0.3 0.9q-0.1 0-0.2 0c-0.1-0.1 0-0.1 0.1-0.1-0.1-0.2 0-0.3 0.2-0.3q0 0 0.1 0c0.1 0.1-0.1 0.4-0.2 0.4zm0.1 0.8q-0.1 0-0.1 0.1c0 0 0 0 0 0q0-0.1 0-0.2 0 0 0.1 0.1zm-0.3 0.1q0 0 0 0-0.1-0.1 0-0.1c0.1 0 0.1 0.1 0 0.1zm0.4-2q-0.1 0-0.2-0.1c0.1-0.1 0.1 0 0.2 0.1zm-0.2 0.6q-0.1 0-0.1 0 0-0.1-0.1-0.2 0.1 0 0.2 0 0 0.1 0 0.2zm-0.1-0.6c-0.1 0-0.2 0-0.2-0.1 0.1 0 0.2 0 0.2 0.1zm-0.1 1.2q-0.1 0.2-0.1 0.3c-0.1 0.1-0.2 0-0.2-0.1 0.1-0.2 0.1-0.2 0.3-0.2zm-0.2-0.9q0 0.2-0.2 0.1 0.1-0.1 0.2-0.1zm-0.1-0.2q0 0.1-0.1 0.1c-0.1 0-0.2-0.1-0.2-0.2 0 0 0.1 0 0.1 0q0.2 0 0.2 0.1zm-0.3 0.6q-0.2 0-0.2-0.1 0-0.1 0-0.1 0.1-0.1 0.1-0.2c-0.2 0-0.2 0.2-0.4 0.2q0-0.2 0.1-0.3c0-0.1 0-0.1 0.1-0.1q0.1-0.1 0.3-0.1c0 0 0 0.2 0 0.2q0.1 0.1 0.1 0.3-0.1 0-0.2 0 0 0.1 0.1 0.2zm-0.5-0.7q0-0.1-0.1-0.2h0.3q0 0 0 0.1-0.1 0-0.2 0.1zm0.5-0.7c0 0 0 0 0 0 0.1 0.1 0.1 0.1 0.1 0.2 0 0.1 0 0.2 0 0.3q-0.1-0.1-0.1-0.1-0.1-0.2-0.1-0.3 0-0.1 0.1-0.1zm-0.1 0.3q0 0.1 0 0.1c0 0.1-0.1 0.1-0.1 0 0-0.1 0-0.1 0.1-0.1zm-0.2 0q0 0-0.1 0 0 0 0 0 0-0.1 0-0.1 0.1 0 0.1 0.1zm-0.3-0.8q0.1 0 0.1 0.2 0 0 0 0.1 0.1 0 0.1 0.1c0 0.1-0.1 0.1-0.2 0.1q0 0 0 0 0 0 0 0 0.1 0.1-0.1 0.1 0 0 0 0c0-0.1 0.1-0.1 0.1-0.1q0 0 0 0 0 0 0 0 0.1-0.1 0.1-0.2 0 0 0 0 0 0 0 0 0 0 0 0-0.2 0-0.2-0.1 0 0 0 0 0-0.1 0.1-0.2zm-0.2 1.3q0 0 0 0.1c-0.1-0.1-0.1-0.1-0.2-0.2q0.1 0 0.2 0.1zm-0.2-1.5q0.1 0 0.1 0.2c-0.1-0.1-0.2-0.1-0.2-0.1q0.1-0.1 0.1-0.1zm-0.2 1.1q0-0.1 0.1-0.1 0.1 0 0.1 0.1 0 0.2-0.1 0.2-0.1 0-0.1-0.2zm0 0.2c-0.1 0.1-0.1 0.1-0.2 0.2v-0.3c0.1 0.1 0.1 0.1 0.2 0.1zm-0.1-1.3q0.1 0 0.2 0.1-0.1 0.1-0.1 0.1-0.1-0.1-0.1-0.1 0 0 0-0.1zm-0.1 0.6q0.1 0 0.1 0.1c0.1 0 0.1 0.1 0.1 0.1 0 0-0.1 0.1-0.1 0.1q-0.1 0-0.1-0.1 0-0.1 0-0.2zm-0.6 0.4q0 0 0 0c-0.1 0.1-0.1 0-0.2 0q0.2-0.1 0.2 0zm-0.5-0.1q0 0 0 0 0-0.1-0.1-0.3 0.1 0 0.1 0 0.1 0.1 0.1 0.2c0 0 0.1 0.1 0 0.2 0 0-0.2 0-0.3 0q0 0-0.1-0.1 0.1-0.1 0.1-0.1 0.1 0.1 0.2 0.1zm0.2 0.4c-0.1 0.1-0.2 0.1-0.2-0.1q0.1 0.1 0.2 0.1zm-0.4-0.2q0 0.1 0 0.1 0 0-0.1 0.1 0 0-0.1 0c0-0.2 0-0.2 0.2-0.2zm0-0.8c0 0 0 0.1 0 0.1-0.1 0-0.2 0-0.2-0.1q0.1-0.1 0.2 0zm-0.4 0q-0.1 0.1-0.2-0.1 0.2 0 0.2 0.1zm-0.2 0.3q0.1-0.1 0.2 0.1c0 0.1-0.1 0.2-0.2 0.3q-0.1-0.2-0.1-0.3-0.1 0-0.1 0 0.1-0.1 0.2-0.1zm-0.4-0.3c0.1 0.2 0.1 0.2-0.1 0.3q-0.1-0.2 0.1-0.3zm0.1 0.4q-0.1 0.1-0.1 0.1 0 0 0-0.1c0 0 0 0 0 0q0.1 0 0.1 0zm-0.1 1c0-0.1-0.1-0.2 0-0.3q0.2 0.1 0.1 0.3c0 0-0.2 0.1-0.3 0.1q0.1-0.1 0.2-0.1zm-0.4-1.2q0.1 0 0.1 0.1 0.1 0 0.1 0 0 0.2-0.1 0.3 0 0-0.1 0 0 0-0.1 0c0-0.2 0-0.3 0.1-0.4zm-0.2-0.2c0 0.2 0 0.2-0.1 0.3q-0.1-0.1-0.1-0.3 0.1 0 0.2 0zm0 0.5q0 0-0.1 0.1 0-0.1 0-0.1c0 0 0-0.1 0-0.1q0.1 0 0.1 0.1zm-0.5 0.1q0-0.1 0-0.2 0.2 0.1 0.3 0.1c-0.1 0.1-0.2 0.2-0.1 0.4-0.1 0-0.2 0-0.2 0q0-0.1 0-0.2 0-0.1 0.1-0.1 0 0 0 0 0 0-0.1 0 0 0 0 0 0 0 0 0c-0.1 0-0.1 0-0.2-0.1 0.2-0.1 0.2 0 0.2 0.1zm-0.2 0c0 0.1 0 0.1 0.1 0.2q-0.1 0-0.1 0c-0.1-0.1-0.1-0.1 0-0.2zm-0.4-0.1q0.1 0 0.1 0.1 0.1 0 0 0.2-0.1-0.1-0.1-0.1 0-0.1 0-0.1c0-0.1 0-0.1 0-0.1zm0 1.2c-0.1 0-0.1 0-0.2-0.2h0.2q0 0.1 0 0.2zm0-1.4q0 0.1-0.1 0.1-0.1-0.1 0.1-0.1zm-0.2 0.4q0 0.1 0.1 0.2-0.3 0.1-0.3-0.1 0-0.1 0-0.1c0.1-0.1 0.1-0.1 0.2 0zm-0.3 0.4q0.1 0.1 0.2 0.2c0 0-0.1 0.1-0.1 0q-0.1 0-0.2-0.1 0-0.1 0.1-0.1zm-0.2-0.5q0 0.1-0.1 0.2 0-0.2 0.1-0.2zm0.2 1.3q0 0.2 0 0.3c-0.3 0-0.3 0-0.4-0.2q0.2 0 0.4-0.1zm-0.4 0.4c0 0-0.1 0-0.2 0q0-0.1 0.1-0.2 0.1 0 0.1 0.2zm-0.1-1.6q0 0 0 0-0.1 0-0.1-0.1 0.1 0 0.1 0.1zm-0.2-0.1q0 0 0 0.1 0 0-0.1 0 0 0 0-0.1 0 0 0.1 0zm-0.1 1.3c0 0-0.1 0-0.1 0q0-0.1 0.1-0.1 0 0 0 0.1zm-0.2-0.5c0-0.2 0-0.3 0.1-0.3 0.1 0.2 0.1 0.2-0.1 0.3zm0-0.8q0 0 0.1 0 0 0.1-0.1 0.2-0.1-0.1 0-0.2zm-1 0.5c0.2-0.1 0.2-0.1 0.1-0.2q0.1-0.1 0.2 0 0.2 0.1 0.4 0.1 0.1 0.2-0.1 0.2-0.1 0-0.2-0.2 0 0.2 0 0.3 0.1 0 0.1 0 0 0 0 0.1-0.1 0.1-0.2 0 0-0.1 0-0.1 0-0.1 0-0.1-0.1 0-0.2 0-0.1 0-0.1 0c0-0.1 0-0.1 0-0.1zm0-0.3q0 0 0.1 0 0 0.1 0 0.1-0.1 0-0.1 0zm0.6 1.2c0.1 0 0.1 0.1 0.1 0.2q-0.2-0.1-0.3-0.2-0.1-0.1 0-0.2 0.1 0 0.1-0.1 0 0 0.1 0 0 0 0 0c-0.1 0.1 0 0.2 0 0.3zm-0.3 0.3c0 0.1-0.1 0.1-0.2 0.1q-0.1-0.2 0-0.3 0.2 0 0.2 0.2zm-0.4-0.8q0.1 0 0.2 0.1c-0.1 0.1-0.2 0-0.2 0q0 0 0-0.1zm-0.3-0.3q0.1 0.1 0.3 0.1c-0.2 0.1-0.3 0.1-0.3-0.1zm-0.2-0.3c0.1 0.2 0.1 0.2-0.1 0.2q0-0.1 0.1-0.2zm-0.4 1.8q0 0 0 0 0-0.1 0.1-0.1 0.1 0.1-0.1 0.1zm0-1.4c0 0.2-0.1 0.2-0.2 0.1q0.1-0.1 0.2-0.1zm0 0.9c0 0 0.1 0.1 0 0.1 0 0.1-0.1 0.1-0.1 0.1q0-0.1-0.1-0.2 0.1 0 0.2 0zm-0.6-0.7c-0.1 0.1-0.1 0.1-0.3 0 0.1-0.1 0.2 0 0.3 0zm0.1 1.2q-0.1 0.2-0.2 0.2 0 0 0-0.1 0 0 0 0 0.1 0 0.2-0.1zm-0.6-0.3q0.1-0.1 0.2-0.1c0.1 0.1 0.2 0.2 0.2 0.3 0 0.1-0.1 0.1-0.2 0.1q-0.1 0-0.2-0.1c-0.1 0 0-0.1 0-0.2zm-0.7-0.9q0-0.1 0.2-0.1 0 0.2-0.1 0.3-0.2 0-0.1-0.2zm-0.3 1.2q0 0 0 0h-0.1zm-0.5-0.7q0 0.1 0 0.1 0 0 0 0.1 0 0 0 0 0 0 0 0c-0.1 0-0.1 0-0.1 0q0-0.1 0.1-0.2zm-0.1 0.8q0 0 0 0.1 0 0 0 0 0 0 0 0 0 0-0.1 0 0 0 0 0 0 0 0 0 0-0.1 0.1-0.1zm-0.4-0.7c0.1-0.1 0.1-0.1 0.2 0.1q-0.1 0-0.1 0.1c-0.1-0.1-0.2-0.1-0.1-0.2zm-0.5 1.2q0.1 0 0.2 0.1c-0.1 0.1-0.1 0.1-0.2 0.1q0 0-0.1-0.1c0 0 0.1-0.1 0.1-0.1zm-0.7-0.6q0.1 0 0.2 0 0 0 0 0-0.1 0.1-0.1 0.1-0.1 0-0.1-0.1 0 0 0 0zm-0.2 1.1c-0.2 0-0.2 0-0.2-0.2 0.1 0 0.2 0 0.2 0.2zm-0.9-1c0.1 0 0.2 0.1 0.2 0.1q-0.1 0.1-0.2 0.1c-0.1-0.1 0-0.2 0-0.2zm-0.1 1q0 0 0 0 0.1 0.1 0 0.2 0-0.1 0-0.1 0-0.1 0-0.1zm-0.2-0.2q0.1 0 0.1 0.1 0 0 0 0h-0.1q0 0 0 0 0 0 0-0.1zm-0.8-0.2q0.1 0.1 0 0.2 0-0.1 0-0.2zm-0.5 1q0 0.1 0 0.1 0 0-0.1 0.1 0-0.1 0-0.1 0 0 0.1-0.1zm-4.8 0.1q0.1 0.1 0.1 0.1c0 0.1-0.1 0.1-0.1 0.1q-0.1-0.1 0-0.2zm-4.6 0.3q0.1 0 0.1 0.1 0 0-0.1 0 0 0 0 0 0-0.1 0-0.1zm-5.2 1.8q0.1 0.1 0.1 0.2c-0.1-0.1-0.1-0.1-0.1-0.2zm-8.4 2.1q0.1 0.1 0.1 0.1-0.1 0-0.1 0.1 0-0.1 0-0.1 0 0 0-0.1zm-2.6 1.3q0 0 0 0c0 0.1 0 0.1-0.1 0.1q0-0.1 0.1-0.1zm-1.5 0.1q0 0.1 0 0.2h-0.2q0.1-0.1 0.2-0.2zm-0.6-1q0.1 0.1 0 0.2c-0.1-0.1-0.1-0.1 0-0.2zm-0.4 0.2q0.1 0 0.1 0.1-0.1 0.1-0.1 0 0 0 0-0.1zm-1.5 0.6q0 0 0.1 0.1 0 0-0.1 0.1 0-0.1 0-0.1 0 0 0-0.1zm-1.1 1.4c-0.1 0.1-0.1 0.1-0.2-0.1q0.1 0 0.2 0.1zm-0.7-0.9q0 0 0 0.1-0.1 0 0-0.1zm-0.7 1.1c0.1 0.1 0 0.1-0.1 0.1 0-0.1 0.1-0.1 0.1-0.1zm-0.3-0.9q0 0 0.1 0 0 0.1 0 0.1-0.1 0-0.1 0zm0 0.6q0 0-0.1 0 0-0.1 0.1 0zm-0.4 0.6c-0.1 0.1-0.2 0-0.2 0q0 0 0 0 0-0.1 0.1-0.1c0.1 0 0.1 0.1 0.1 0.1zm-0.2-0.3q0 0.1 0.1 0.1-0.1 0.1-0.1 0.1-0.1-0.1-0.1-0.1 0 0 0.1-0.1zm-0.5-0.7q0 0.1 0 0.1 0 0 0 0.1l-0.1-0.1c0 0 0 0 0.1-0.1zm-0.9 0.1q0.1 0.1 0.1 0.1 0 0.1-0.1 0.1 0 0 0 0zm0.3 0.7q0 0.2-0.2 0.1v-0.2q0.1 0 0.2 0.1zm-0.4 0.4q0-0.1 0-0.1 0 0 0.1 0 0 0 0 0c0 0 0 0.1 0 0.1q0 0 0 0-0.1 0-0.1 0 0 0 0 0zm-0.3 0.2q0 0-0.1 0.1 0-0.1 0-0.1 0 0 0-0.1 0.1 0.1 0.1 0.1zm-0.2-0.9q0-0.1 0-0.2 0.1 0.1 0 0.2zm-0.1 0v0.2c-0.2-0.1-0.2-0.1 0-0.2zm0 1.4q-0.1-0.1-0.1-0.2 0.1 0 0.1 0.2zm-0.3-0.4q0 0 0.1 0 0 0 0 0.1 0 0-0.1 0.1c0-0.1 0-0.1 0-0.2zm-0.7 0.3c0.2 0.1 0.1 0.2 0.1 0.3 0 0-0.1 0-0.1 0q0-0.1 0-0.3zm-0.3-1q0 0 0.1 0-0.1 0.1-0.1 0.1c0 0-0.1 0-0.1-0.1 0 0 0.1 0 0.1 0zm-1.1 0q0 0 0 0 0.2 0 0.2 0.1c0.1 0 0.1 0.1 0 0.1 0 0.1 0 0.1-0.1 0.1 0 0-0.1 0-0.1-0.1q0-0.1 0-0.2zm0 0.8c0.1 0 0.1 0.1 0.1 0.1q0 0 0 0.1-0.1 0-0.2 0 0-0.1 0-0.1c0 0 0.1-0.1 0.1-0.1zm-0.6-0.8c0.1 0 0.1 0 0.1 0q0 0-0.1 0.1 0-0.1 0-0.1 0 0 0 0zm-0.1 1.2q0.1-0.1 0.1-0.3h0.3q-0.1 0.2-0.1 0.4 0 0 0 0.1c-0.1 0-0.2 0.1-0.2 0q-0.1 0-0.1-0.2zm-0.3-0.6q0.1-0.1 0.1 0 0.1 0 0.1 0c0 0 0 0.1 0 0.1q-0.1 0-0.2-0.1 0 0 0 0zm0.2 0.5q-0.2 0-0.2-0.1 0.2-0.1 0.2 0.1zm-0.1 0.4q0 0.1 0.1 0.2c-0.2 0.1-0.2 0-0.2-0.1q0 0 0.1-0.1zm-0.8-1.2q0 0 0.1 0c0 0 0 0.1 0 0.1q0 0-0.1 0 0 0-0.1 0 0 0 0 0 0-0.1 0.1-0.1zm-0.4 0.1q0.1 0 0.1 0 0 0 0 0.1 0 0-0.1 0 0 0 0-0.1zm0 0.4c0.1 0.1 0.1 0.1 0.1 0.1 0.1 0 0.1 0.1 0.1 0.1-0.1 0.1-0.2 0-0.2 0q0-0.1 0-0.2zm-0.1 1.2q-0.1 0.1-0.2 0.1-0.1-0.1 0-0.3c0.1 0.1 0.1 0.1 0.2 0.2zm-0.2-0.4q0 0 0.1 0c0 0 0 0.1 0 0.1q0 0-0.1 0 0 0-0.1 0 0.1-0.1 0.1-0.1zm-0.5 0.2c0.1 0 0.1 0.1 0 0.2q-0.1 0-0.1-0.2c0 0 0.1 0 0.1 0zm-0.2-0.6c0.1 0.1 0.2 0.1 0.1 0.2 0 0 0 0-0.1 0 0 0 0-0.1 0-0.2zm0 0.4q0 0 0.1 0-0.1 0.1-0.1 0.1-0.1 0-0.1-0.1c0 0 0.1 0 0.1 0zm-0.5-0.7q0 0 0.1 0.1 0 0-0.1 0.1 0-0.1-0.1-0.1c0 0 0.1-0.1 0.1-0.1zm0 0.5q0 0 0 0.1 0 0 0 0-0.1 0-0.1-0.1 0 0 0.1 0zm-0.3 0.8q-0.1 0-0.2 0v-0.2q0 0 0 0c0.1 0.1 0.3 0 0.2 0.2zm-0.2-0.7c-0.1 0.1-0.1 0.1-0.2 0 0.1-0.1 0.2 0 0.2 0zm0 0.9c-0.2 0-0.2-0.1-0.2-0.2q0.1 0 0.1 0 0 0.1 0.1 0.2zm-0.6 0.2q0 0 0 0.1 0 0 0 0 0 0-0.1 0 0-0.1 0.1-0.1zm-0.7-1.1h0.2q0 0.1-0.1 0.1-0.1 0.1-0.1-0.1zm-0.1 0.9c0.1-0.1 0.2 0 0.3 0 0 0.1 0 0.2-0.1 0.2 0 0-0.1 0-0.1 0-0.1 0-0.1-0.1-0.1-0.2zm-0.3-0.9q0-0.1 0.1 0 0 0.1-0.1 0.1c0 0 0 0 0-0.1zm-0.1 0.4c0 0 0 0.1 0 0.1-0.1 0.1-0.1 0-0.2-0.1q0.1-0.1 0.2 0zm-0.2 1.1q-0.1 0.1-0.1 0-0.1-0.2 0.1-0.3 0 0.1 0 0.2c0 0 0.1 0 0 0.1zm-0.2-1.1q0.1 0 0.1 0 0.1 0 0.1 0-0.1 0-0.1 0.1-0.1-0.1-0.1-0.1zm-0.2 0.9q0 0 0 0 0 0 0 0.1 0 0 0 0 0-0.1 0-0.1zm-0.5-0.3c0 0.1 0 0.2-0.1 0.2-0.1-0.1 0-0.2 0.1-0.2zm-0.3-0.6q0.1 0.1 0.1 0.2-0.1 0-0.2 0 0.1-0.1 0.1-0.2zm-0.1 0.8q0-0.1 0.1-0.1 0.1 0.1 0.1 0.1 0 0-0.1 0c0 0.1-0.1 0.1-0.1 0q0 0 0 0zm-0.1-0.8q0 0 0 0.1 0 0 0 0-0.1 0-0.1 0 0-0.1 0.1-0.1zm0 0.7q0 0.1 0 0.1 0 0 0 0.1c-0.1-0.1-0.1-0.1 0-0.2zm-1.2 0.1c0.1 0 0.1 0.1 0.1 0.1-0.1 0.1-0.1 0.1-0.2 0.1q-0.1-0.1-0.1-0.2c0.1-0.1 0.2-0.1 0.2 0zm0 0.5c0 0-0.1 0.1-0.1 0.1q-0.1 0-0.1-0.2c0 0 0.1 0 0.2 0.1zm-0.4-0.9c0.1 0.1 0 0.1 0 0.2-0.1-0.1 0-0.1 0-0.2zm-0.4 0.3q0.1 0.1 0.2 0.2-0.1 0-0.2 0c0 0-0.1 0 0-0.2zm-0.6-0.1c0.2 0.1 0.2 0.2 0.1 0.4q-0.1 0-0.2 0 0-0.2 0.1-0.4zm0.1 0.5q0.1 0.1 0.1 0.1 0.1 0.1 0.1 0.2c-0.1 0-0.3 0.1-0.4-0.1q-0.1 0-0.2-0.1c0.2 0 0.3-0.2 0.4-0.1zm-0.4-0.3q0 0-0.1 0 0 0 0-0.1c0.1 0 0.1 0.1 0.1 0.1zm-0.4 1.4q0 0 0 0.2-0.1-0.1 0-0.2zm-0.2 0q0 0 0 0l-0.2 0.1q0-0.1 0-0.1 0.1 0 0.2 0zm-0.8-0.3q-0.1-0.1-0.2-0.1c0.2-0.1 0.2-0.1 0.2 0.1zm-0.2 0.1c-0.2 0-0.1-0.1-0.2-0.1q0.2 0 0.2 0.1zm-0.3-0.9c0.1 0.1 0.1 0.2 0 0.2q0-0.1 0-0.2zm-0.4-0.2q0.2 0.1 0.3 0.1 0 0.1-0.1 0.3c-0.2-0.1-0.3-0.2-0.2-0.4zm0.3 0.9q-0.1 0-0.1 0.1c-0.1-0.1-0.1-0.1 0-0.2q0 0 0.1 0 0 0 0 0.1zm-0.4-0.4q0.1 0 0.1 0 0 0 0 0-0.1 0-0.1 0 0 0 0 0zm0 0.1q0 0.1 0 0.2c-0.1 0.1-0.2 0.1-0.3 0q0.1-0.2 0.3-0.2zm-0.1 1.1c-0.1 0.1-0.1 0-0.2 0q0.2-0.1 0.2 0zm-0.4-1.4c0.1 0.1 0.1 0.1 0.2 0.1-0.1 0.1-0.2 0.1-0.2 0.1 0-0.1 0-0.1 0-0.2zm-0.3 0.4q0-0.1 0.2-0.1c-0.1 0 0 0.1-0.1 0.2q0 0-0.1 0 0 0 0 0 0-0.1 0-0.1 0 0 0 0zm0 0.8q-0.1 0-0.1 0-0.1 0-0.1-0.1 0.1 0 0.2 0.1zm-0.1-1q-0.1 0.1-0.1 0.2h-0.3q-0.1 0-0.1-0.1 0 0 0-0.1c0.2 0 0.3-0.2 0.5 0zm-0.2 0.9q-0.1 0-0.1 0c0 0-0.1 0 0 0q0-0.1 0-0.1 0 0 0.1 0.1zm-0.5-0.4q-0.1 0-0.1 0.1-0.1-0.1-0.1-0.1zm-0.5-0.3q0.1 0 0.2 0-0.1 0.1-0.1 0.1-0.1-0.1-0.1-0.1 0 0 0 0zm-0.2 0.6q0.1 0 0.1 0 0 0.1-0.1 0.1 0 0 0-0.1 0 0 0 0zm-0.2-0.4c0 0.1 0 0.1-0.1 0.1q0 0 0 0 0-0.1 0.1-0.1zm-0.2 0q-0.2 0.1-0.2 0 0.1 0 0.2 0zm0 0.9c-0.1 0.1-0.2 0-0.3 0q0.2-0.1 0.3 0zm-0.3-0.3c0-0.1 0-0.1 0.1-0.1v0.2q-0.1 0-0.1-0.1zm0.1-0.3c-0.1 0-0.1-0.1-0.2-0.1 0.1 0 0.2 0 0.2 0.1zm-0.4-0.1q0.1 0.1 0.2 0.1c-0.1 0.1-0.2 0.2-0.3 0.1q0.1-0.1 0.1-0.2zm0 0.4q-0.1 0.1-0.2 0.2c0-0.2 0-0.2 0.2-0.2zm-0.6 0.7q0 0.1-0.1 0.1 0 0 0 0 0-0.1 0.1-0.1zm-0.1-0.4q0 0.2-0.1 0.2c-0.1 0-0.1 0-0.1-0.1 0-0.1 0.1-0.1 0.2-0.1zm-0.5-0.4c0.1 0.1 0.1 0.2 0 0.2-0.1 0.1-0.1 0.1-0.2 0q0.1-0.1 0.2-0.2zm-0.1 1.2c0 0.1 0.1 0.2 0.1 0.3-0.1 0.1-0.2 0-0.3 0.1q-0.1-0.3 0.2-0.4zm-0.4-0.6q0 0.1-0.1 0.1c0 0-0.1 0-0.1-0.1zm-0.2 0.7q-0.1-0.2 0.1-0.3c0.1 0.1 0 0.2-0.1 0.3zm-0.2-0.9q0.1 0 0.1 0c0 0 0 0.1 0 0.1q0 0-0.1 0 0 0-0.1-0.1 0.1 0 0.1 0zm-0.2 0.9q0.1 0 0.2 0v0.3c-0.1 0-0.2 0-0.2-0.1 0-0.1 0-0.1-0.1-0.1q-0.1 0-0.1 0 0.1-0.2 0.2-0.1zm-0.4 0q0-0.1-0.1-0.1 0.1-0.1 0.1 0.1zm-0.4-0.9q0.1 0 0.1 0 0 0.1 0.1 0.2-0.1 0-0.2 0.1 0-0.2 0-0.3zm-0.2 0.5q0 0 0 0 0 0 0-0.1 0.1 0 0.2 0c0.2 0.1 0.3 0.2 0.1 0.4q-0.1 0-0.2 0c-0.2 0.1-0.3 0-0.3-0.1q0-0.1 0.2-0.2zm-0.2 0.7c0-0.2 0.1-0.3 0.3-0.3 0 0.1 0 0.2 0.1 0.2 0.1 0 0.1 0.1 0.1 0.2-0.1 0.2-0.3 0.3-0.6 0.2q0.1-0.1 0.1-0.2c0-0.1 0-0.1 0-0.1zm-0.1 3.4q0.1 0.1-0.1 0.1c0.1-0.2 0-0.4-0.2-0.6 0.2-0.1 0.3-0.2 0.5 0q0 0 0 0c0.2 0 0.2 0.1 0.1 0.3q0-0.1-0.1-0.2c0 0-0.2 0-0.2 0.2 0 0 0 0.1 0 0.2zm-0.2-3.1q0 0 0.1 0c0 0 0.1 0 0.1 0.1 0 0-0.1 0.1-0.1 0.1q-0.1-0.1-0.1-0.2zm0.4 1.3q0.1-0.1 0.1-0.1 0 0 0.1 0-0.1 0.1-0.1 0.1 0 0-0.1 0zm0.2 3.2q0.1 0.1 0 0.3-0.1-0.2-0.2-0.4c0.1 0 0.2 0 0.2 0.1zm0-1.4c0 0 0-0.1 0-0.1 0-0.1 0.1-0.1 0.1-0.1q0.1 0.2-0.1 0.2zm0.1-2.2q0 0 0 0 0.1 0 0 0.1 0-0.1 0-0.1zm-0.7-1.7c0.1 0 0.2 0.1 0.2 0.2 0 0.1-0.1 0.2-0.2 0.2q-0.1-0.1-0.2-0.1c0-0.2 0.1-0.2 0.2-0.3zm-0.2 0.7q0 0 0.1 0 0 0.1-0.1 0.1 0 0 0-0.1 0 0 0 0zm0.1 3.4q-0.2-0.1-0.1-0.2c0.1 0 0.1 0 0.1 0.2zm-0.3-1c0.1-0.1 0.2-0.1 0.2 0q0 0 0 0-0.1 0-0.2 0zm0.2 1.3q0.2-0.1 0.2 0.1-0.2 0-0.2-0.1zm0.3 3.1q-0.1-0.1-0.1-0.1 0 0 0.1-0.1 0 0.1 0 0.1 0 0 0 0.1zm-0.1-0.7q0.1 0 0.1 0 0.1 0.1 0.1 0.1 0 0.1 0 0.1-0.2 0-0.2-0.2zm0.3 1.4q-0.1 0-0.2 0 0.1-0.1 0.1-0.1c0 0 0.1 0 0.1 0q0 0.1 0 0.1zm0.2-2.4q-0.1 0-0.2-0.1 0 0 0 0 0 0 0 0 0 0.1 0 0.2 0 0.1-0.2 0.2-0.1 0-0.2-0.2 0 0 0-0.1c0.2 0 0.3-0.2 0.4-0.1q0 0 0 0 0 0 0 0c0.1-0.1 0.1-0.2 0.2-0.1q0.1 0 0 0.2zm0.1 0.6c0.1-0.2 0.1-0.2 0.3 0-0.2 0.1-0.2-0.1-0.3 0zm0.3 3q-0.1 0-0.1 0 0 0-0.1 0 0.1-0.1 0.1-0.1 0 0 0.1 0.1zm-0.2-0.2q0-0.1 0.1-0.1 0 0.1 0 0.1 0 0-0.1 0 0 0 0 0zm0.1 1.7q-0.1-0.1-0.1-0.3 0.2 0.1 0.1 0.3zm0.1-1c-0.1 0-0.2 0.1-0.2-0.1 0 0 0.1-0.1 0.1-0.1 0.1 0 0.1 0.1 0.1 0.2zm-0.1-4c-0.1 0-0.1-0.2-0.2-0.3 0.1 0 0.2 0 0.4 0q-0.1 0.2-0.2 0.3zm0.5 0.1q-0.1 0-0.1 0.1 0-0.2 0.1-0.1zm-0.1-0.5q0.1 0 0.1 0.1-0.1 0-0.1-0.1zm0 2q0 0.1-0.1 0.2c0-0.1 0-0.1 0.1-0.2zm-0.1 1.3c0 0-0.1 0-0.1 0q0-0.2 0.2-0.1c0 0.1 0 0.1-0.1 0.1zm0-3.6q-0.1 0-0.1 0-0.1-0.1-0.2-0.2c0.2-0.1 0.2 0 0.3 0q0 0.1 0 0.2zm-0.1 4.1c0-0.1 0-0.1 0.2 0q-0.1 0-0.2 0zm0.2-0.9q0-0.1 0-0.1 0.1 0 0.1 0 0 0.1 0 0.1-0.1 0-0.1 0zm0.7 0.8q-0.1 0-0.1-0.1c0 0 0 0 0 0q0 0 0.1 0 0 0 0.1 0-0.1 0.1-0.1 0.1zm0.2-0.1q0.1 0.1 0.1 0.1-0.1 0.2-0.2 0.2 0 0 0 0 0 0 0 0v0.2c-0.2 0-0.2-0.1-0.2-0.2q0 0 0 0 0.1-0.1 0.2 0 0 0 0 0 0-0.2 0.1-0.3zm-0.2 0.9c0 0.1-0.1 0.2-0.3 0.2q-0.1 0-0.1-0.1 0-0.2 0.2-0.2 0.2 0 0.2 0.1zm-0.4-0.9c0 0 0-0.1 0-0.1 0.1 0 0.1 0 0.1 0.1zm0 0.4c-0.2-0.1-0.1-0.2-0.1-0.2 0-0.1 0-0.1 0.1-0.2 0.1 0.2 0 0.3 0 0.4zm0.1 3.4q-0.1 0-0.1 0c-0.1-0.1-0.1-0.1 0-0.3q0.1 0 0.1-0.1 0.1 0 0.1 0 0 0.1 0 0.1c0.1 0.2 0.1 0.2-0.1 0.3zm0.2 0.1q0 0 0 0 0-0.1 0-0.1 0.1 0 0.1 0.1-0.1 0-0.1 0zm0-1.3q-0.1 0-0.2 0-0.2 0.1-0.2-0.1c-0.1-0.2-0.1-0.2 0.1-0.3q0.1 0 0.2 0 0.1 0.1 0.1 0.2 0.1 0 0.1 0 0 0 0 0.1 0.1 0 0.1 0-0.1 0-0.2 0.1zm0.4 3.5q-0.1-0.1-0.2-0.1 0.2-0.1 0.2 0.1zm-0.1-3.1q0-0.2 0.1-0.2c0 0.1 0 0.1-0.1 0.2zm0-1.1c-0.1 0-0.2 0-0.2-0.2q0 0 0-0.1c0.1 0 0.2-0.1 0.4 0q0 0.2-0.2 0.3zm0.1-1q0 0 0 0 0-0.1 0-0.1c0.1 0 0.1 0 0.1 0q0 0.1-0.1 0.1zm0.1 5.5c0-0.1 0.1-0.1 0.2 0q-0.1 0-0.2 0zm0.1-2.8q0 0-0.1 0c0-0.1 0-0.1 0.1-0.1q0 0 0.1 0.1 0 0 0 0 0 0-0.1 0zm0.3-1.3q0 0.1-0.1 0.1c-0.1-0.1-0.1-0.1 0.1-0.1zm0.5 2.9q0 0.1 0 0.1 0 0 0 0.1-0.1 0-0.2 0c0 0 0-0.1 0-0.1q0-0.1 0.2-0.1zm-0.1-0.3q0.1 0 0 0.1c-0.1 0-0.1-0.1 0-0.1zm-0.1 0.7q0.1 0.1 0.2 0.2c0 0 0 0.1 0 0.1q-0.1 0-0.2 0-0.1 0-0.1-0.1 0.1-0.1 0.1-0.2zm0 0.9q0-0.1 0.1-0.2 0 0.2-0.1 0.2zm-0.2-1.4q0-0.1 0.1-0.1c0.1 0 0.1 0.1-0.1 0.1zm0-0.7q-0.1-0.1-0.1-0.1 0-0.1 0.1-0.1 0 0 0 0.1 0 0 0 0.1zm0 2.4q-0.2-0.2-0.1-0.3 0.3 0 0.1 0.3zm-0.2 1.8q0 0 0-0.1 0 0 0-0.1 0.1 0 0.1 0.1c0 0 0 0-0.1 0.1zm0.1 0.2q0.1 0.1 0.2 0.1-0.1 0-0.2-0.1zm0.3-1.6q0 0.1-0.1 0.2c-0.1 0-0.1 0-0.1-0.1q0-0.1 0.1-0.2-0.1-0.1-0.1-0.2c0.2-0.2 0.3-0.2 0.5-0.1 0 0.2-0.1 0.3-0.3 0.4zm0.6 0.5q0.1-0.1 0.1-0.1c0 0 0 0 0 0q0 0.1-0.1 0.1zm0.1 0.7q-0.1 0.1-0.1 0.2 0-0.1 0-0.2 0 0 0.1 0zm-0.1-2.3c0 0.1-0.1 0.1-0.2 0.1q-0.1-0.1-0.2-0.2c0.1-0.1 0.2-0.1 0.4-0.1q0 0.1 0 0.2zm-0.6 3.5q0.1 0 0.2-0.1c-0.1 0.2-0.1 0.2-0.2 0.1zm0.3-1.7q-0.1-0.2-0.2-0.3c0.1 0 0.2 0 0.3 0.1q0 0.1-0.1 0.2zm0.1-0.3q0-0.1 0-0.1 0 0 0-0.1 0.1 0.1 0.1 0.1 0 0-0.1 0.1 0 0 0 0zm0 2.7q0.1-0.2 0.2-0.2c0 0.2 0 0.2-0.2 0.2zm0.3-1.2c0 0.1-0.1 0.1-0.2 0q-0.1-0.1 0-0.2 0.1-0.1 0.1-0.1c0.1 0.1 0.2 0.2 0.1 0.3zm0.3 1.1q-0.1-0.1-0.1-0.1c0 0 0-0.1 0-0.1q0.1 0.1 0.1 0.1 0 0 0 0.1zm-0.1-0.5q0-0.1 0-0.2 0.1 0 0.1 0 0.1 0.1-0.1 0.2zm0.1-0.7q-0.1-0.1-0.2-0.2 0.2-0.1 0.3-0.2c0 0.2 0 0.3-0.1 0.4zm-0.2-0.4q0.1-0.1 0.1-0.1 0 0 0 0 0.1 0 0.1 0.1-0.1 0-0.1 0 0 0-0.1 0zm0.1-0.3q0-0.1 0-0.1 0 0 0 0 0 0 0 0-0.1 0-0.2 0c0-0.2 0-0.2 0.2-0.2q0 0.1 0 0.2 0 0 0 0 0-0.1 0.1-0.2 0.1 0.1 0.1 0.2c0 0.1-0.1 0-0.2 0.1zm-0.1-0.4q0-0.1 0-0.1 0 0 0.1 0-0.1 0.1-0.1 0.1c0 0 0 0 0 0zm0.6 1.5q0 0 0.1 0-0.1 0.1-0.1 0zm0.1 1.5v-0.2c0.2 0.1 0.2 0.1 0 0.2zm0.4-0.1q0 0-0.1 0.1c0-0.2-0.2-0.3 0-0.5 0.1 0.2 0 0.3 0.1 0.4zm0.1-0.3c0 0-0.1 0-0.1 0q0 0 0.1-0.1 0 0 0.1 0.1-0.1 0-0.1 0zm0.3 0.2q0 0 0 0c0 0 0-0.1 0-0.1q0 0.1 0.1 0.1-0.1 0-0.1 0zm0.2-0.2c-0.1 0-0.2 0-0.2-0.1-0.1-0.1-0.1-0.1 0-0.1q0.1-0.2 0.3-0.1 0 0.2-0.1 0.3zm0-0.7c0-0.1 0-0.1 0-0.1q0.1-0.1 0.2-0.2 0.2 0 0.4 0.1-0.1 0.2-0.1 0.3c-0.2 0-0.2-0.2-0.3-0.2q-0.1 0-0.1 0.1zm0.4 0.4h-0.2q0-0.2 0.1-0.3c0.1 0.1 0.1 0.1 0.1 0.3zm-0.3 0.4q0.2-0.1 0.2 0.1c-0.1 0-0.1 0-0.2-0.1zm0.1 0.6q0-0.2 0.2-0.2 0 0.1 0 0.2-0.1 0-0.2 0zm0.3 0q0-0.1 0-0.1 0 0 0-0.1c0.1 0 0.1 0.1 0.1 0.1q0 0-0.1 0.1zm0.1-0.6c-0.1 0-0.2 0-0.2-0.1 0-0.1 0.1-0.1 0.2 0q0 0.1 0 0.1zm0.2 0.5q0 0 0 0 0 0 0-0.1 0 0 0.1 0.1 0 0 0 0 0 0-0.1 0zm0.2 0.3q-0.1 0-0.1 0-0.1-0.1 0.1-0.2zm-0.5-1.1q0-0.1 0.1-0.1-0.1-0.1-0.1-0.1 0.1-0.1 0.2-0.1c0.2 0 0.2 0 0.3 0.3-0.3 0.2-0.3 0.2-0.5 0zm0.5 1q0-0.1 0-0.2 0 0 0-0.1 0.1 0 0.2 0.1 0 0.1-0.2 0.2zm0.1-1.3q0 0 0-0.1c0-0.1 0-0.2 0-0.4 0.2 0.1 0.1 0.2 0.2 0.2q-0.1 0.2-0.2 0.3zm0.3 1c0.1-0.1 0.2 0.1 0.3 0.1-0.2 0.1-0.2 0.1-0.3-0.1zm0.3-1.3q-0.1 0-0.1 0 0-0.1 0-0.1 0.1 0 0.1 0 0 0.1 0 0.1zm0 0.2c0.1 0 0.1 0.1 0.1 0.2 0 0.1-0.1 0-0.2 0q0-0.2 0.1-0.2zm-0.1 0.6c0 0 0 0.1-0.1 0.1q0 0 0-0.1 0 0 0-0.1 0.1 0.1 0.1 0.1zm0.1-0.1q0.1 0 0.2-0.1-0.1 0.2-0.2 0.1zm0.2-0.9q0-0.1 0-0.1c0 0 0-0.1 0-0.1 0.1 0.1 0.1 0.1 0 0.2q0 0 0 0zm0.2 0.8q-0.1 0-0.2-0.1c0 0 0-0.1 0.1-0.1 0 0 0 0 0.1 0q0.1 0.1 0 0.2zm0.1 0.7c0-0.1 0-0.2 0.1-0.3q0.1 0.2 0.1 0.2c0 0.1-0.1 0.1-0.2 0.1zm0-0.5q0 0 0.1-0.1c0 0.2-0.1 0.1-0.1 0.1zm0.7 0.2q-0.1-0.1-0.1-0.2c-0.1-0.1-0.1-0.2 0-0.2q0.1-0.1 0.2 0 0.1 0.1 0.1 0.2c0 0.1-0.1 0.1-0.2 0.2zm-0.2-1.5q0 0 0-0.1 0.1 0 0.2 0.1-0.1 0-0.2 0zm0.3 1.1v-0.1q0.1 0 0 0.1zm0.2-0.8q-0.1-0.1-0.1-0.1 0.1 0 0.1-0.1 0 0.1 0 0.1 0 0 0 0.1zm0.2 0.5c0 0-0.1 0-0.1-0.1 0 0 0.1 0 0.1 0q0 0 0 0.1zm0.3 0.5q-0.1-0.1 0-0.2 0 0.1 0 0.1 0 0 0 0.1zm-0.1-0.3q0 0 0-0.1l0.1 0.1q0 0 0 0.1-0.1-0.1-0.1-0.1zm0-0.7c0-0.1 0-0.2 0.2-0.2 0 0.2 0 0.2-0.2 0.2zm0.6-0.2c-0.2-0.1-0.2-0.1 0-0.3zm0.1 0.9h-0.1q-0.1-0.1 0-0.1 0.2 0 0.1 0.1zm0-0.5q-0.1 0-0.1-0.1c0.1-0.1 0.1-0.1 0.2 0q0 0.1-0.1 0.1zm0.6 0.2q0 0.1-0.1 0.1 0 0-0.1 0 0.1-0.1 0.2-0.2 0 0 0 0 0 0.1 0 0.1zm0-0.6q0 0 0 0h0.2c-0.1 0.1-0.2 0-0.2 0zm0.4 0.9q0-0.1-0.1-0.3c0.1 0.1 0.2 0.1 0.3 0.2-0.1 0-0.2 0-0.2 0.1zm1.2-0.2c0-0.1 0-0.1 0.2-0.1 0 0.1-0.2 0.1-0.2 0.1zm0.4-0.7q-0.1 0-0.2 0.1c-0.1-0.2 0.1-0.3 0-0.5 0.2 0.1 0.3 0.2 0.3 0.4q-0.1 0-0.1 0zm1.6-0.5q0 0-0.1 0 0.1-0.1 0.2-0.2 0 0.1 0 0.2-0.1 0-0.1 0zm0.5-0.2q0-0.2 0-0.2 0 0 0 0 0.1 0 0.1 0.1 0 0-0.1 0.1zm2.7 0.4q0-0.1 0.1-0.2c0.1 0.1 0 0.1-0.1 0.2zm1-0.9c0-0.1 0.1-0.2 0.1-0.2q0.1 0 0.1 0-0.1 0.1-0.2 0.2zm0.4 0.2c0 0-0.1 0-0.1 0 0 0 0-0.1 0.1-0.1q0.1 0 0 0.1zm-0.2-0.3q0.2 0 0.2 0.2-0.1-0.1-0.2-0.2zm0.8-0.4q0 0-0.1 0 0 0 0.1-0.1 0 0 0 0.1 0 0 0 0zm0.3 0.2q0.1 0.1 0.2 0.1c-0.1 0.1-0.1 0.1-0.2-0.1zm0.8 0.1c0.1 0 0.1 0.1 0.1 0.2q-0.2 0-0.1-0.2zm0.2-0.2c-0.1 0-0.2 0-0.2-0.1 0-0.1 0.1-0.1 0.1-0.1 0.1 0 0.1 0.1 0.1 0.2zm0.3 0.4c-0.1 0.1-0.1 0.1-0.2 0 0-0.1 0.1-0.1 0.2-0.1 0 0 0.1 0.1 0 0.1zm1.6-0.5c0-0.1-0.1-0.2-0.1-0.3 0.2 0.1 0.2 0.1 0.1 0.3zm0.2-0.1c-0.1 0-0.1-0.1-0.1-0.1q0.1 0 0.2 0.1c0 0.1-0.1 0.1-0.1 0zm0.7-1.5q-0.1 0-0.1 0 0-0.1-0.1-0.2c0.1-0.1 0.1-0.1 0.2-0.1 0.1 0.1 0 0.2 0 0.3zm0.4 0c-0.1-0.1 0-0.1 0-0.2 0.1 0.1 0 0.1 0 0.2zm1.2-0.2q0.1 0.1 0 0.2 0-0.1 0-0.2zm0.1 0.6c-0.1-0.1 0-0.1 0.1-0.2q0 0 0.1 0-0.1 0.1-0.2 0.2zm1.7-0.2q-0.1 0-0.1-0.1c0-0.1 0.1-0.2 0.2-0.2 0.1 0 0.1 0 0.1 0.1 0 0.1-0.1 0.2-0.2 0.2zm0.5 0.5q-0.1 0-0.1 0 0-0.1 0-0.1 0 0 0.1 0 0 0 0 0 0 0.1 0 0.1zm1.7-0.5c-0.1 0-0.2 0.1-0.2 0.1q-0.2 0.1-0.2-0.1-0.1-0.2-0.1-0.4 0.2 0.1 0.3 0.2c0.1 0 0.2 0.1 0.2 0.2zm-0.2-1.2c-0.1 0.1-0.1 0.2-0.2 0.2 0-0.1 0-0.2 0.2-0.2zm0.1 0.6q-0.1-0.2 0.1-0.3 0.1 0 0.2 0.1c-0.1 0.1-0.2 0.2-0.3 0.2zm0.3-0.6q0 0 0 0 0-0.2 0.1-0.1 0 0.1-0.1 0.1zm0.9-0.3c-0.1 0-0.1 0-0.1 0-0.1-0.1 0-0.2 0.1-0.2q0 0.1 0 0.2zm0.8 0.3q0-0.1 0.1-0.2c0.1 0 0.1 0.1 0.1 0.2q-0.1 0-0.2 0zm0.6-1q0-0.1-0.1-0.2 0.1 0 0.1 0.2zm0.9 1.4c-0.1-0.1-0.1-0.2-0.1-0.2 0.1 0 0.1 0.1 0.1 0.2zm1-0.8q0 0.1-0.1 0.2c-0.2 0-0.2-0.1-0.2-0.2q0.1-0.2 0.1-0.4 0.1 0 0.2 0.1c0.1 0 0.1 0.1 0 0.3zm0.5 0.5c-0.3-0.2-0.3-0.2-0.3-0.4q0.3 0 0.4 0.2 0 0.2-0.1 0.2zm0-0.8v-0.2c0.1 0 0.1 0.1 0.2 0.2q-0.2 0-0.2 0zm0.1-0.8q0 0-0.1 0 0.1-0.2 0.1-0.2 0.1 0 0 0.2zm0.5 0.4c0 0 0 0-0.2 0q0.1-0.1 0.1-0.2c0.1 0 0.2 0.1 0.1 0.2zm1.7 0.2v-0.2q0 0 0 0 0.1 0 0.1 0.1 0 0.1-0.1 0.1zm0.3-0.2c0 0 0 0 0 0q0 0 0-0.1 0.1 0 0.1 0 0 0.1-0.1 0.1zm2.1-0.7q0-0.1 0-0.1 0 0 0 0 0 0 0-0.1 0 0.1 0 0.1 0 0 0.1 0 0 0-0.1 0.1zm0.7 0.4q0-0.1 0-0.1 0.1 0 0.1 0 0 0 0 0 0 0-0.1 0.1zm1.9-0.8c-0.1 0-0.1 0-0.1-0.1q0.1-0.1 0.1 0c0 0 0 0.1 0 0.1zm4.6-0.9q-0.1 0-0.2-0.1c0.2 0 0.2 0 0.2 0.1zm0.9-0.9q0-0.1 0-0.2 0.2 0.1 0.2 0.2zm0.7-0.1q-0.2 0.1-0.3 0c0-0.2-0.1-0.3 0-0.5 0.2 0.1 0.3 0.2 0.3 0.3q0.1 0.2 0 0.2zm0-0.4q-0.1-0.2 0-0.4c0 0.1 0.2 0 0.2 0.2q0 0.1-0.2 0.2zm0.4 1q-0.2 0-0.2-0.2 0.1 0 0.1-0.1c0 0.1 0.1 0.1 0.1 0.1q0 0.1 0 0.2zm0.2-0.6q-0.1 0.1-0.1 0.1 0 0 0-0.1 0 0 0-0.1 0.1 0.1 0.1 0.1zm0.8 0.6q-0.1 0-0.1-0.2c0.2 0 0.2 0.1 0.1 0.2zm2-1.5c0.1 0 0.1 0.1 0.1 0.2q-0.1 0-0.1-0.2zm0.1 0.8q0-0.2 0.1-0.3c0.1 0.2 0.1 0.3-0.1 0.3zm0.6-0.4q0 0-0.1 0 0.1-0.1 0.1-0.1 0 0 0.1 0.1-0.1 0-0.1 0zm0-0.8c0.1-0.1 0.2-0.1 0.3-0.1q0 0 0 0.1-0.2 0-0.3 0zm0.6 0.8q0-0.1 0-0.2 0.1 0 0.1 0c0 0.1 0 0.1-0.1 0.2zm1.3-0.3q0 0 0-0.1 0.1 0 0.3 0-0.1 0.2-0.3 0.1zm0.2-0.4q0 0 0 0 0 0 0.1 0-0.1 0.1-0.1 0.1 0-0.1 0-0.1zm0.9-0.6c0 0 0.1 0 0.1 0q0.1 0.1 0 0.2-0.2-0.1-0.1-0.2zm0.1 0.5q0.1 0 0 0.2 0-0.1-0.1-0.1 0-0.1 0.1-0.1zm0 0.5q0 0.1 0.1 0.2-0.2 0-0.1-0.2zm1-0.3q-0.1 0-0.1-0.1 0.1 0 0.2 0c0 0.1-0.1 0.1-0.1 0.1zm2.9-0.7q0 0-0.1 0 0 0 0-0.1 0 0 0.1 0zm0.5 0.3q-0.1-0.2-0.2-0.3 0.1-0.1 0.2-0.2c0.1 0.2 0.1 0.3 0 0.5zm-0.2-1.1q0-0.1 0.1 0-0.1 0-0.1 0zm1.2 0q-0.1 0-0.1 0 0.1-0.1 0.2-0.1 0 0 0 0c0 0 0 0.2-0.1 0.1zm0-0.6v-0.2c0 0 0.1 0 0.1 0.1q0 0.1-0.1 0.1 0 0 0 0zm0.3-0.3c-0.1 0.1-0.1 0-0.2-0.1q0.1 0 0.2-0.1 0.1 0.2 0 0.2zm0.9 0.8q0 0 0.1 0 0 0.1 0 0.2c-0.1-0.1-0.1-0.1-0.1-0.2zm0.9-0.9c0 0 0 0.1 0 0.1q-0.1-0.1-0.1-0.2 0.2 0 0.1 0.1zm0.4-0.2c-0.1-0.1-0.1-0.1-0.1-0.2h0.2c-0.1 0.1-0.1 0.1-0.1 0.2zm0.2 0.1q-0.1-0.1-0.1-0.1c0.1-0.1 0.1-0.1 0.2-0.1q0 0.1-0.1 0.2zm0.3-0.3q0.1-0.1 0.1-0.1 0 0 0.1 0.1-0.1 0-0.1 0-0.1 0-0.1 0zm0.3 0.5c-0.1 0.1-0.1 0-0.1 0q0.1-0.1 0.1 0 0 0 0 0zm2.6-0.6q-0.1-0.1 0-0.2 0.1 0.1 0 0.2zm0.2 0.7c-0.1 0-0.1-0.1-0.1-0.1 0.1-0.1 0.2-0.1 0.2 0 0 0.1 0 0.1-0.1 0.1zm0-1.6v-0.1q0.1 0 0.1 0 0 0 0 0.1 0 0-0.1 0zm1.9 0q-0.1 0.1-0.1 0 0-0.1 0.1-0.1 0 0.1 0 0.1zm0.2-0.2c0 0 0-0.1 0.1-0.1 0 0.1 0 0.1-0.1 0.1zm0.5 0.8q0.1 0 0.3 0c-0.2 0.1-0.2 0.1-0.3 0zm0.9 0.2q0 0-0.1 0 0-0.1 0.2-0.2-0.1 0.1-0.1 0.2zm-0.2-1.4q0.1-0.1 0.2-0.2 0.1 0.1 0.2 0.1 0 0.2-0.1 0.3c-0.1 0-0.2-0.1-0.3-0.2zm0.3 0.9v-0.2q0.2 0.1 0.2 0.3-0.1-0.1-0.2-0.1zm0.4-0.8q0 0-0.1 0 0 0 0-0.1 0.1 0 0.2 0 0 0.1-0.1 0.1zm0.1 0.7q0.1 0 0.1 0 0 0.1 0.1 0.2-0.2-0.1-0.2-0.2zm0.4-0.7q-0.1-0.1-0.1-0.2c0.1 0 0.1 0.1 0.1 0.2zm0 0.3c0.2 0 0.3 0 0.3 0.2-0.1 0-0.2-0.1-0.3-0.2zm0.6-0.5v-0.2c0.2 0.1 0.2 0.1 0 0.2zm0.9 0.1q-0.1-0.1 0-0.1 0 0 0 0.1zm0.5-0.5q0 0-0.1 0c0-0.1 0-0.1 0.1-0.2 0 0.1 0.1 0.1 0 0.2zm0.2 0.6q0 0 0-0.1 0 0 0-0.1 0.1 0 0.1 0 0 0.1-0.1 0.2zm0.4-0.1q0 0-0.1 0c-0.1 0-0.1 0-0.1-0.1q0.1-0.1 0.2-0.1 0.1 0 0.1 0-0.1 0.1-0.1 0.2zm-0.2-0.7q0 0 0.1-0.1 0 0.1-0.1 0.1zm0.3-0.2c0 0-0.1 0-0.1-0.1 0 0 0.1 0 0.1 0q0.1 0 0.2 0-0.1 0.1-0.2 0.1zm0.3 1.3c-0.1-0.2 0-0.2 0.2-0.2q-0.1 0.1-0.2 0.2zm0.5-0.5h0.2c-0.1 0.1-0.1 0.1-0.2 0zm-0.1-0.2q0 0 0-0.1 0.1 0 0.1 0 0 0 0 0.1 0 0-0.1 0zm0.3-0.1q0-0.1 0.2-0.1 0 0.1 0 0.2-0.1 0.1-0.2-0.1zm0.1 0.2c0.1 0 0.2 0 0.2 0.1-0.1 0.1-0.1 0-0.2-0.1zm0.3 0.5c0-0.1 0.1-0.1 0.2-0.1 0 0.1-0.1 0.1-0.2 0.1zm0.2-0.9q0 0 0-0.1 0 0 0-0.1 0.1 0.1 0.1 0.2 0 0-0.1 0zm0.4 0.5q0 0 0 0 0-0.1 0-0.1 0.1 0 0.1 0-0.1 0.1-0.1 0.1zm0.2-1q0 0-0.1-0.1c0 0 0.1 0 0.1 0q0 0 0.1 0-0.1 0.1-0.1 0.1zm0.1-0.5q0-0.1 0-0.1 0 0-0.1 0 0.1 0 0.1 0 0 0 0 0 0 0 0.1 0-0.1 0.1-0.1 0.1zm0.8 0q-0.1 0-0.1 0v-0.1q0 0 0.1 0 0 0.1 0 0.1zm-1.3-17.2q0-0.1 0-0.2 0.2 0.1 0 0.2zm-0.4 2.1q0 0 0 0-0.1 0-0.1-0.1 0 0 0.1 0 0 0 0 0.1zm-0.2 0q0 0.1-0.1 0c0 0 0-0.1 0.1-0.1q0 0 0 0.1zm0 1.7q0 0-0.1 0c-0.1-0.1-0.1-0.3-0.1-0.4q0.2 0.2 0.2 0.4zm2.2 14.4q0-0.1-0.1-0.2 0.1 0 0.1 0.2zm0.1-1q-0.2 0-0.1-0.1 0.1 0 0.1 0.1c0 0 0 0 0 0zm0.1 0.7c0-0.1 0-0.1 0.1-0.1q0 0-0.1 0.1zm0-1.1q0-0.1 0.1-0.1 0 0.1-0.1 0.1zm-0.2-0.8c0.1-0.1 0.2-0.1 0.3-0.1q0 0.1 0.1 0.2c-0.2 0-0.3 0.1-0.4-0.1zm0.7-1.5q-0.1 0.1-0.1 0.2-0.1 0-0.2-0.1c0.1-0.1 0.1-0.1 0.3-0.1zm-0.3 2.5q0 0.1 0 0.2-0.1-0.1 0-0.2zm0.1-0.5q-0.1 0 0-0.2 0-0.1 0.1-0.1 0-0.1 0.1-0.1 0 0.1 0 0.2-0.1 0.1-0.2 0.2zm0-1.4c0.1-0.1 0.2-0.2 0.3-0.2 0 0.2-0.2 0.2-0.3 0.2zm0.3-1.6c0-0.1 0-0.1 0.2-0.1q-0.1-0.1-0.1-0.1 0.1-0.3 0.3-0.3 0-0.1 0-0.2 0.1 0 0.1 0.1c0.1 0 0.1 0 0.1 0.1 0 0-0.1 0-0.1 0.1q0 0-0.1 0 0 0.1 0 0.3 0.1 0.1 0 0.1 0 0.1 0 0.1 0 0-0.1 0 0 0 0 0 0 0-0.1-0.1-0.1 0.1-0.1 0.1 0 0-0.1 0 0 0 0-0.1zm0.6 1.7c0 0.2-0.1 0.1-0.2 0.1q0.1 0 0.2-0.1zm-0.2-1.2q0 0-0.1 0 0 0 0 0 0-0.1 0-0.3 0.2 0.1 0.1 0.3zm-0.3 2.6q0 0 0 0 0-0.1 0.1-0.1 0 0.1-0.1 0.1zm0.2 0.3q-0.1-0.1-0.1-0.2 0 0 0.2-0.1 0 0.1 0.1 0.2-0.1 0-0.2 0.1zm0-0.9q0.1 0 0.2 0c-0.1 0.1-0.2 0.1-0.2 0zm0.4 0q-0.1-0.1-0.1-0.2 0 0 0 0 0 0 0 0-0.1 0-0.2 0 0-0.2 0.1-0.3c0.1 0 0.1 0 0.2 0.1q0 0.1 0 0.1 0 0.1-0.1 0.1 0 0 0 0 0 0 0 0 0.1 0 0.1 0 0 0.1 0.1 0.1 0 0.1-0.1 0.1zm0.1-1.4c0.1 0 0.1 0.1 0.1 0.1-0.2 0.1-0.2 0-0.1-0.1zm0.1-1.1c0.2 0.1 0.2 0.1 0.1 0.3-0.1-0.1-0.1-0.2-0.1-0.3zm0.1 2.4q-0.1-0.1 0-0.2c0.1 0 0.2 0.1 0.1 0.2 0 0.1-0.1 0-0.1 0zm0.2-1c0 0-0.1 0-0.1 0q0-0.1 0.1-0.2 0 0.1 0 0.2z"/>
	<path class="s0" d="m76.1 23.2z"/>
	<path fill-rule="evenodd" class="s0" d="m62.7 34.8q0 0 0 0.2-1.1 0.2-2.3 0.5-0.3-0.3-0.6-0.6 0-0.1 0-0.2c-0.1 0.1-0.1 0-0.2-0.1q-0.4-0.4-0.8-0.8-0.8-0.8-1.5-1.6-2.6-2.7-5.1-5.4c-0.3-0.3-0.5-0.4-0.9-0.5q-0.1 0-0.2 0-0.3 0-0.4-0.4-0.1-0.3 0.3-0.5 0.3-0.1 0.7-0.1 1.8-0.5 3.6-0.9c0.1 0 0.2 0 0.2 0.1q3.2 3.3 6.3 6.6 0 0.1 0.1 0.1-0.1 0.1-0.1 0.1c0 0 0 0.1 0 0.1 0.1 0 0.1 0.1 0.2 0.2q0.3 1.6 0.7 3.2zm-8.6-7.2q0.1-0.2-0.1-0.1c0 0-0.1 0 0 0 0 0.2 0.1 0.1 0.1 0.1zm2.4 1.8q0.1 0.1 0.2 0 0 0-0.1-0.1 0 0.1-0.1 0.1zm-0.1 1.7q0.1 0 0.1-0.2c-0.1 0-0.1 0-0.1 0.2zm0.5 0.2c0-0.1 0-0.1-0.1 0q0 0 0 0 0 0 0 0c0-0.1 0-0.2-0.1-0.3q-0.1 0.1-0.2 0.3 0 0 0.1 0 0 0 0.1 0 0 0 0 0 0 0 0.1 0 0 0 0 0 0 0 0 0-0.1 0.1 0 0.2 0 0 0.1 0.1 0-0.2 0-0.3zm0.4-3.8q0 0 0 0.1 0.1-0.1 0-0.1zm0.5 3.4q0 0-0.1-0.1 0 0.1 0 0.1 0 0.1 0 0.1 0.1 0 0.1-0.1zm0-1.4q0-0.2-0.2-0.2v0.2q0.1 0 0.2 0zm0.9 2.9c-0.1 0-0.2 0-0.1 0.1q0 0 0 0 0.1 0 0.1-0.1zm0.1-3.9c-0.1 0-0.1 0-0.2 0.1 0.1 0 0.1-0.1 0.2-0.1zm0.7 3.5q0-0.1 0-0.1 0 0-0.1 0 0.1 0.1 0.1 0.2 0.1-0.1 0-0.1zm0.5 1.6c0 0.1-0.1 0.2 0.1 0.3 0-0.1 0-0.2-0.1-0.3zm0.2-0.5q0 0 0-0.1-0.1 0.1-0.1 0.1 0 0 0 0.1 0.1-0.1 0.1-0.1zm0.9 2q0 0-0.1-0.1 0 0.1-0.1 0.1c0 0 0.1 0.1 0.1 0.1 0 0 0.1-0.1 0.1-0.1zm0.2-2.8q-0.1 0-0.2-0.1 0 0.1 0 0.3 0.1 0 0.2-0.2zm0.1 2.6q-0.1 0.1 0 0.2c0-0.1 0.1-0.1 0-0.2zm1.3 0q-0.1-0.1-0.1-0.1c-0.1 0-0.1 0.1 0 0.1q0 0 0.1 0z"/>
	<path fill-rule="evenodd" class="s0" d="m47.2 36.3q0.2 1.1 0.5 2.1-0.1 0.1-0.2 0.1-1.9 0.5-3.9 0.9-0.2 0.1-0.5 0c-0.1-0.1-0.2-0.2-0.2-0.4q0.1 0 0-0.1c0-0.1 0.1-0.2 0.2-0.3q0.1-0.1 0.3-0.2 0.2-0.1 0.1-0.4-0.1-0.7-0.3-1.4-0.2-1-0.4-1.9c0-0.1 0-0.2 0-0.4-0.2-0.1-0.2-0.2-0.2-0.4q-0.1-0.6-0.3-1.1 0.1-0.1 0.2-0.2-0.1 0-0.2 0 0-0.1 0-0.1-0.4-1.6-0.8-3.3 0 0 0 0c-0.1-0.4-0.2-0.5-0.6-0.5q-0.1 0-0.2 0-0.3-0.1-0.3-0.3c-0.1-0.2-0.1-0.3 0.1-0.4q0.1-0.2 0.3-0.2 2.1-0.5 4.1-1 0 0 0.1 0 0.1 0.7 0.3 1.3 0.9 3.9 1.8 7.8 0 0.1 0 0.1 0.1 0.1 0 0.2c-0.1 0 0 0.1 0 0.1q0 0 0.1 0zm-2.5-2.4c-0.1 0 0 0.1 0 0.1q0 0 0.1 0v-0.2q-0.1 0-0.1 0.1zm0.1-0.9c-0.1-0.1-0.1-0.2-0.3-0.2q0.1 0.3 0.3 0.2zm-0.1-2.1q0 0.1 0 0.1 0 0 0-0.1 0 0 0 0 0 0 0 0zm-1.5 2.5c0 0-0.1 0-0.1 0 0 0-0.1 0.1 0 0.2q0-0.1 0.1-0.1c0 0 0-0.1 0-0.1zm0.5 2.7q0-0.1-0.1-0.1 0 0-0.1 0.1c0.1 0 0.2 0 0.2 0zm-0.2 3c0 0.1 0 0.1 0.1 0.3 0-0.2 0-0.2-0.1-0.3zm0.2-2.5q0 0.1-0.1 0.2 0.2 0 0.1-0.2zm0.1-6q0.1 0 0.1-0.1c0-0.1 0-0.1-0.1-0.1-0.1 0.1-0.1 0.2 0 0.2zm0.2 6.8c0 0-0.1-0.1-0.1 0-0.1 0-0.1 0-0.1 0.1q0 0.1 0.2 0.1 0.1-0.1 0-0.2zm0.2-8q0-0.1-0.1-0.2c0 0.2 0 0.2 0.1 0.2zm0.2 2.2q0.2 0 0.2-0.1c0-0.1 0-0.2-0.1-0.3q-0.1-0.1-0.3 0 0.1 0.1 0.1 0.2 0 0 0 0.1c0 0 0.1 0.1 0.1 0.1zm0.1 3.8q0.1-0.1 0.2-0.2c-0.2 0-0.3 0-0.2 0.2zm0.3 3.6c0 0-0.1-0.1-0.2 0q0.1 0 0.2 0.1 0-0.1 0-0.1zm1.7-3.3c0.1 0 0.1 0.1 0.1 0.2 0.1-0.2 0.1-0.2-0.1-0.2zm-0.7-0.8q0 0.1 0.1 0.1 0.1-0.1-0.1-0.1zm-0.1-0.9q0 0 0 0.1 0.1-0.1 0.1-0.1 0 0 0-0.1-0.1 0.1-0.1 0.1zm-0.3 2.4c0 0.1 0.1 0.1 0.1 0.1 0.1 0 0.2 0 0.1-0.1q0 0-0.1-0.1-0.1 0.1-0.1 0.1zm-0.4-2.3q0.1 0 0.2 0c0-0.1 0-0.2-0.2-0.2zm0.2 3.4q-0.1 0.1 0 0.2 0-0.1 0-0.2zm0.2-1.2q0 0 0-0.1-0.1-0.1-0.1-0.1c-0.1 0.2-0.1 0.2 0.1 0.2zm0.3 0.4q-0.1 0.1-0.2 0.1-0.1 0.4-0.1 0.8 0.1 0 0.3 0.1 0-0.1 0-0.2-0.1-0.2 0-0.4 0.1-0.1 0.1-0.2 0-0.1-0.1-0.2zm0.3-0.3c0-0.1 0-0.1 0-0.1q-0.1 0-0.1 0.1 0 0.1 0.1 0.2 0-0.2 0-0.2zm0.2-1.7q0-0.1-0.1-0.1c0 0 0 0.1 0 0.1q0 0 0 0 0.1 0 0.1 0zm0-0.9q-0.1 0-0.1 0.2c0.1 0 0.1 0 0.2-0.1 0 0 0-0.1-0.1-0.1zm0.4 2.9q-0.1-0.1-0.1-0.2-0.1 0.2 0.1 0.2zm0.1-0.6q0 0.1-0.1 0.1 0 0 0 0.1 0.1 0 0.1 0c0-0.1 0-0.1 0-0.2z"/>
	<path fill-rule="evenodd" class="s0" d="m25.7 43q0.1 0.3-0.2 0.5-0.1 0.1-0.3 0.2-1.6 0.4-3.1 0.7-0.7 0.2-1.3 0.3-0.2 0-0.4 0-0.3-0.1-0.3-0.3-0.1-0.3 0.1-0.4 0.2-0.1 0.3-0.2 0.3-0.2 0.2-0.6-0.1-0.5-0.2-1 0 0 0 0 0.1 0 0.1 0c0.1-0.1 0.1-0.2 0-0.2-0.2-0.1-0.2-0.2-0.2-0.3q-0.5-2.3-1.1-4.5-0.3-1.3-0.6-2.6c-0.1-0.5-0.2-0.6-0.6-0.6q-0.1 0-0.2 0-0.2-0.1-0.3-0.3c-0.1-0.2-0.1-0.4 0.1-0.5q0.2-0.1 0.3-0.1 1.5-0.4 2.9-0.7 0.1 0 0.2 0 0.1 0 0.2-0.1 0 0 0 0 0.4-0.1 0.9-0.2 0 0.3 0.1 0.6-0.1 0.1-0.2 0.3 0.2 0 0.3 0.1 0.2 0.9 0.5 1.9 0 0.4 0.1 0.7 0 0.2 0.1 0.5 0.1 0.2 0.2 0.5 0 0.1 0 0.3 0 0.1 0.1 0.2 0.1 0.8 0.3 1.5 0.4 1.8 0.8 3.5 0.1 0.1 0.1 0.1 0.1 0.4 0.4 0.4 0.2 0 0.3 0.1 0.3 0 0.4 0.2zm-7.4-9.3q-0.1-0.1-0.2-0.2-0.1 0.1-0.2 0.3c0.2 0 0.3 0.1 0.4-0.1zm0.3-0.3c-0.1 0-0.1 0-0.2 0 0.1 0.1 0 0.2 0.1 0.3q0.1-0.1 0.1-0.3zm0.5-0.2h-0.1c0 0 0 0.1 0.1 0.2q0-0.1 0-0.2zm-0.2-0.3q0 0.1 0.1 0.1 0 0 0 0 0-0.1 0-0.1c-0.1 0-0.1 0-0.1 0zm0.1 1.3q-0.1 0-0.1-0.1-0.1 0-0.1 0.1 0 0 0.1 0.1 0 0 0.1-0.1zm0 0.6c-0.1 0-0.1 0.1-0.1 0.2q0.1-0.1 0.1-0.2zm0.2 0.1q-0.1 0.1-0.2 0.3c0.2 0 0.3-0.1 0.2-0.3zm3.7 2.2q0 0.2 0.2 0.2c0-0.1 0-0.2-0.2-0.2zm0 2.9q0.1 0 0.2 0c0-0.1-0.1-0.1-0.1-0.2q0 0.1-0.1 0.2zm0.1 2.1q0 0-0.1-0.1 0 0.2 0.1 0.2 0 0 0-0.1 0 0 0 0 0 0 0 0zm-0.1-0.3q0 0 0 0.1 0.1 0 0.1-0.1 0 0 0-0.1-0.1 0.1-0.1 0.1zm-0.2-2.3q0 0 0 0.1 0 0 0.1-0.1-0.1 0-0.1 0 0 0 0 0zm-0.3-4.5q0.1 0 0.2 0 0 0 0 0h-0.2q0 0 0 0zm0.1 2.9q0 0 0 0c0-0.1-0.1-0.1-0.2 0q0.1 0 0.2 0zm-0.1 2.2q0.1 0.1 0.2 0.1 0-0.1-0.1-0.1 0 0-0.1 0zm0.1-2.5q0-0.1 0-0.1c-0.1-0.1-0.1-0.1-0.2 0q0.1 0 0.1 0.1 0.1 0 0.1 0zm-0.2-1.2q0-0.2-0.1-0.1 0 0 0.1 0.1zm-0.2-3.1q0.1 0.2 0.3 0.1 0-0.1-0.1-0.2 0 0-0.1 0c0 0-0.1 0.1-0.1 0.1zm0 2q0 0.1 0.2 0.1 0.1 0 0.1-0.2c-0.1-0.1-0.1-0.1-0.3-0.1q0 0.1 0 0.2zm-0.2-0.1c0 0 0 0 0 0q0-0.1 0-0.1 0 0-0.1 0 0 0.1 0 0.1 0 0 0.1 0zm-0.2 2.5q-0.1 0-0.1 0 0.1 0.1 0.2 0.1 0 0 0-0.1-0.1 0-0.1 0zm0-4.7q0.1 0 0.1 0 0 0 0 0 0-0.1 0-0.1 0 0-0.1 0.1zm0 3.2q-0.1 0-0.1 0 0 0.1 0.1 0.1 0 0 0-0.1 0 0 0 0zm-0.2-0.7c0.2 0 0.2 0 0.1-0.2q0 0.1-0.1 0.2zm-0.1 0.2q0.1 0 0.1 0 0-0.1-0.1 0zm-0.2 0q0.1 0.1 0.1 0.2 0.1-0.1-0.1-0.2zm0.1-1.7c0-0.1 0-0.2-0.2-0.1q0.1 0 0.2 0.1zm0 8.8q0 0.1 0.1 0c0 0 0 0 0 0q-0.1-0.1-0.1 0zm-0.3-10.1c0 0.1 0 0.2 0.2 0.2v-0.2c-0.1 0-0.2 0-0.2 0zm0 0.6q0.1 0 0.2 0 0.1 0 0.1-0.1-0.1 0-0.1 0-0.1 0-0.2 0c0 0 0 0.1 0 0.1zm-0.1 0.5q0 0 0.1 0.1 0 0 0-0.1c0.1 0 0-0.1-0.1 0zm0.1 1.5q0-0.1 0-0.3c-0.1 0.2-0.1 0.2 0 0.3zm-0.5 0.3q0.1 0 0.1 0 0.1 0 0.1 0-0.1-0.1-0.1-0.1c0 0-0.1 0-0.1 0.1zm0.1-2.2q0.1-0.1 0-0.2-0.1 0.1 0 0.2zm-0.3-0.1q0.2 0.1 0.2-0.1c-0.2-0.1-0.2 0-0.2 0.1zm-0.2-0.7c0 0.1 0.1 0.2 0.1 0.3q0.1-0.1 0.1-0.1-0.1-0.1-0.2-0.2zm0.1 1.7q0 0.1 0 0.1 0.1-0.1 0-0.1zm0-0.5q0 0 0-0.1 0 0-0.1 0c0 0 0 0 0 0q0 0 0 0.1 0 0 0.1 0zm-0.3-0.7q0.1 0.1 0.1 0.1-0.1 0.2-0.1 0.3 0.1-0.1 0.2-0.2 0 0 0-0.1 0-0.1 0-0.1-0.1 0-0.2 0zm-0.1-0.1q0 0 0.1 0-0.1-0.2-0.1-0.1 0 0 0 0.1zm0 1q0 0 0 0 0 0 0.1 0c0 0 0-0.1 0-0.1q-0.1 0.1-0.1 0.1zm-0.2 2.7c0-0.1 0-0.2-0.1-0.2q-0.1 0.1-0.1 0.2 0.1 0 0.2 0zm0-3.7q-0.1 0-0.2 0.3c0.2 0 0.2 0 0.2-0.3zm0.2 4.4q-0.1 0-0.1 0 0 0-0.1 0 0.1 0.1 0.1 0.1 0 0 0.1-0.1zm0-2.8c-0.1-0.1-0.1-0.1-0.2 0zm0.4 3.5c0-0.1 0-0.1-0.4 0q0.1 0.1 0.2 0.2v-0.1q0.1 0 0.2-0.1zm0.1-1.1c0.1 0 0.1-0.1 0.2-0.1q-0.1-0.1-0.2-0.3c-0.1 0.1-0.1 0.2-0.1 0.3 0 0.1 0.1 0.1 0.1 0.1zm0.1 0.9q0-0.1 0-0.1 0-0.1 0-0.1-0.1 0.1-0.1 0.1 0 0 0.1 0.1zm0.1 0.2v-0.1q0 0-0.1 0.1 0 0 0 0 0.1 0 0.1 0zm0.1 3.2q0-0.1-0.1-0.1c0 0 0 0 0 0q-0.1 0.1 0.1 0.1zm0-3.6q0 0.1-0.1 0.2c0.1 0 0.2 0 0.2 0q0-0.1-0.1-0.2zm0.2-2.8q-0.2-0.1-0.2 0c0 0 0 0.1 0 0.1 0.1 0 0.1 0 0.2-0.1zm0-2.2q-0.1-0.1-0.2-0.1 0 0.1 0 0.2c0.1 0 0.2 0 0.2-0.1zm0.1 5.5q-0.1 0-0.1-0.1 0 0.1 0.1 0.1zm0.1 5.7q-0.1 0-0.1 0-0.1 0.1-0.1 0.2c0 0 0 0 0 0q0.1 0 0.2-0.1 0 0 0-0.1zm0-4.5q0-0.1 0.1-0.2c-0.2 0-0.2 0-0.2 0.1q0 0.1 0 0.1c0 0 0.1 0 0.1 0zm0.1 2.3q0-0.1 0-0.1-0.1 0-0.1 0.1 0 0 0.1 0 0 0 0 0zm0.1-5.8q0 0 0-0.1-0.1 0-0.1 0c0 0-0.1 0-0.1 0.1q0.1 0 0.1 0 0 0 0.1 0zm0 7.9q0 0.2 0.1 0.3 0.1-0.2-0.1-0.3zm0.3-0.4q-0.1 0-0.2 0 0 0 0 0v-0.2c-0.1 0-0.1 0.1-0.1 0.2 0 0 0.1 0 0.1 0q0 0 0 0 0 0 0 0 0 0.1 0 0.1 0 0.1 0.1 0.1 0-0.1 0.1-0.2zm0.1-3.1q0-0.1-0.1-0.1c-0.1 0-0.1 0-0.1 0.1q0 0.1 0.1 0.1 0 0 0.1 0 0-0.1 0-0.1zm0.1-0.6q0 0 0 0-0.1 0-0.1 0 0 0 0 0zm0-0.6c-0.1-0.1-0.2-0.1-0.2 0q0 0 0 0 0.1 0 0.2 0zm0.3 0.8q-0.2 0-0.3 0 0 0 0 0.1c0.1 0 0.2 0 0.3-0.1zm0 2.2q-0.1 0-0.1 0 0 0.1 0.1 0.2 0-0.1 0-0.2zm0.1-8q-0.1-0.1-0.2 0 0.1 0.1 0.1 0.1c0 0 0.1-0.1 0.1-0.1zm0.1 2.6q0 0 0-0.1 0 0-0.1 0c0 0 0 0 0 0q0 0.1 0.1 0.1zm0.1 1.6q-0.1 0-0.1 0-0.1 0.1 0 0.2 0.1-0.1 0.1-0.2zm0.2 3.3c-0.1 0-0.2 0-0.2 0.1q-0.1 0.1 0.1 0.2c0.1 0 0.2-0.1 0.1-0.3zm0.1 2.5q0 0 0 0c0 0-0.1 0-0.1 0q0 0 0.1 0.1 0-0.1 0-0.1zm0-8.2c-0.1 0-0.1 0-0.1 0.1 0.1 0.1 0.1 0.1 0.1-0.1zm0.2 4q0-0.1-0.1-0.2-0.1 0.2 0 0.2c0 0 0.1 0 0.1 0zm0.2 3.1q-0.1-0.1-0.1-0.2-0.1 0-0.1 0.1-0.1 0-0.1 0.1 0.1 0 0.1 0 0.1 0 0.2 0zm0.1-0.1q0 0.1 0 0.2 0.1-0.2 0-0.2zm0.1-0.3c-0.1 0.1-0.2 0.1-0.3 0.2q0.2 0 0.3 0 0-0.1 0-0.2zm0.5-0.5q-0.1 0.1-0.1 0.1 0 0.1 0 0.1c0 0 0 0 0 0q0.1 0 0.1-0.1 0 0 0-0.1zm0.2 0.9v0.1q0.1-0.1 0-0.1zm0.5-0.7v0.2q0.2-0.1 0-0.2zm0.5 0.7q0 0-0.1-0.1 0 0.1 0 0.1 0 0 0.1 0c0 0.1 0 0 0 0zm0.6 0.2c0 0 0 0 0 0q-0.1 0-0.1 0.1 0.1 0 0.1-0.1z"/>
	<path fill-rule="evenodd" class="s0" d="m13.7 45.7q0.1 0.4 0.2 0.8 0 0 0 0.1-0.8 0.1-1.6 0.2c-0.8 0.1-1.5 0-2.3-0.3q-0.1 0-0.2-0.1 0 0 0 0 0 0 0.1-0.1-0.1-0.1-0.1-0.1-0.1 0-0.1 0 0 0.1 0.1 0.2-0.1 0-0.1 0 0 0 0.1 0c-0.6-0.2-1.1-0.6-1.3-1.2q-0.2-0.6-0.3-1.3-0.4-1.8-0.9-3.7-0.1-0.7-0.3-1.4 0-0.1 0-0.2-0.1-0.1-0.1-0.3-0.1-0.5-0.3-1 0-0.1 0-0.2-0.1-0.2-0.2-0.2-0.2-0.1-0.4-0.2 0 0-0.1 0 0 0-0.1 0.1 0-0.2-0.1-0.3-0.1 0.1-0.1 0.1c-0.1-0.1-0.1-0.3-0.1-0.4q0.2 0 0.3-0.2c0-0.1 0.1-0.1 0.2-0.2q0.6-0.1 1.2-0.2 0.8-0.2 1.6-0.4 0.1 0.1 0.1 0.1c0.1 0 0-0.1 0.1-0.2q0.6-0.1 1.2-0.2 0.1-0.1 0.3-0.1 0.1 0 0.2 0 0.3 0.1 0.4 0.3c0 0.2 0 0.4-0.2 0.5q-0.2 0.2-0.4 0.3 0 0 0 0 0 0 0 0c-0.1-0.1-0.1-0.1-0.2-0.1 0 0.1 0.1 0.2 0.2 0.1q0 0 0 0 0 0 0 0-0.1 0.2-0.1 0.4c0.1 0.1 0 0.2 0 0.3 0.1 0 0.1 0.1 0.2 0.3q0.8 3.6 1.7 7.2 0.1 0.4 0.2 0.8 0.1 0.1 0.1 0.2 0.1 0 0.1 0.1 0.4 0.4 1 0.4 0 0 0 0.1zm-3.1-10.5q0.1 0 0.1-0.1 0 0 0 0-0.1 0-0.1 0.1zm-4.4 1.3c-0.1 0-0.1-0.1-0.2 0 0 0.1 0.1 0.1 0.2 0zm0-0.4c-0.1 0-0.2-0.1-0.3 0q0 0.1 0 0.1 0 0.1 0.1 0.1c0.2 0 0.2 0 0.2-0.2zm0.4 0.6q0-0.1-0.1-0.1 0 0-0.1 0.1 0.1 0 0.2 0zm1.7 3q0 0 0 0.1 0 0 0.1-0.1 0 0-0.1 0 0 0 0 0zm0 1c0 0 0 0 0 0q0.1 0 0.1-0.1-0.1 0-0.1 0 0 0 0 0.1zm-0.9-4.6q0.1 0 0.1-0.2 0-0.2 0.2-0.3-0.2 0-0.3 0c-0.1 0-0.2 0.1-0.1 0.3q0 0.1 0.1 0.2zm0.1 0.5q-0.1 0.1 0.1 0.2c0 0 0-0.1 0-0.1q0-0.1-0.1-0.1zm-0.1 3.4q0 0 0 0 0 0.1 0 0.2 0.2-0.2 0-0.2zm0.3-1.5q-0.1 0-0.1 0-0.1 0.1-0.1 0.1c0 0 0 0.1 0 0.1q0.1-0.1 0.1-0.1 0.1 0 0.1-0.1zm0.2 0.7c-0.1-0.1-0.1 0-0.1 0.1q0.1 0 0.1-0.1zm0.2-1.2c-0.1 0-0.2 0-0.2 0.1q-0.1 0 0 0.1 0 0 0.1-0.1 0 0 0.1-0.1zm0.2 2.8c-0.1 0.1-0.1 0.1-0.1 0.2-0.2 0-0.1 0.1 0 0.1q0.1 0 0.2 0 0-0.2-0.1-0.3zm1.1-4c0.1 0 0.2 0.1 0.3 0.1-0.1-0.2-0.1-0.2-0.3-0.1zm0.2 1.5q0 0.1-0.1 0.1 0 0 0.1 0.1 0-0.1 0.1-0.1-0.1-0.1-0.1-0.1zm-0.2 2c0.1-0.1 0.2-0.1 0.2-0.2q-0.2 0-0.2 0.2zm0-4.2q0-0.2 0-0.3c-0.1 0-0.2 0-0.2 0.1q0 0.1 0.2 0.2zm-0.2 0.8q0-0.1 0-0.1 0.1-0.1 0.1-0.1c0 0-0.1 0-0.1 0q0 0-0.1 0.1 0 0 0.1 0.1zm-0.5 0.4c0.1 0 0.1 0 0.1-0.1q0 0.1-0.1 0.1 0 0 0 0zm0.2 6.9q-0.1 0-0.1 0.1 0 0 0 0c0.1 0 0.1 0 0.1-0.1zm0.1-4.5c-0.1 0-0.1-0.1-0.2 0 0.1 0.1 0.1 0.1 0.2 0zm0.2-2.3q-0.1-0.1-0.2 0 0.1 0.1 0.2 0zm0.1 4q0 0-0.1 0 0 0-0.1 0 0.1 0 0.1 0.1 0 0 0.1 0c0 0 0-0.1 0-0.1zm0-3.4h-0.1c0 0.1 0 0.1 0.1 0.1q0 0 0-0.1zm0.3 2.7c0 0-0.1 0-0.1 0q0 0-0.1 0 0 0.1 0 0.2 0.1-0.1 0.1-0.1 0.1 0 0.1-0.1zm0-0.4q0 0.2 0 0.3c0.1-0.1 0.1-0.1 0-0.3zm0.2-3.7q0 0 0 0.1 0.1-0.1 0-0.1zm0.1 1.8q-0.1 0-0.2 0 0.1 0.1 0.2 0 0 0 0 0zm0.4 1.8c0 0 0.1 0 0.1 0q0 0 0.1 0-0.1-0.1-0.1-0.1-0.1 0-0.1 0.1zm-0.1 3.4q-0.1 0-0.1-0.1 0 0.2 0.1 0.1zm0-0.8q-0.1 0.1 0.1 0.2 0-0.2-0.1-0.2zm0.1-1.9c0.1 0 0.2 0 0.2-0.1q-0.1 0-0.2 0.1 0 0 0 0zm0.1 0.6q0.1 0 0.2 0 0-0.1-0.1-0.1 0-0.1-0.1-0.1c0 0 0 0.1 0 0.1q0 0.1 0 0.1zm0.2 2.3q0 0.1-0.2 0.1c0.1 0.1 0.2 0.1 0.2 0q0 0 0-0.1zm0-5.3q0 0 0 0 0 0.1-0.1 0.1 0 0 0.1 0.1 0-0.1 0-0.2zm0.3 0.6q0.1 0.1 0.1 0.1 0 0 0 0 0-0.1-0.1-0.2c0 0 0 0.1 0 0.1zm0.1 2.2q0 0 0-0.1c0 0 0 0 0 0q0 0.1 0 0.1zm0.1 4.4q0 0.1 0 0.1 0 0 0 0 0.1 0 0-0.1zm0.5-1.3c0.1-0.1 0.1-0.2 0-0.2q0 0.1 0 0.2zm0.2 1.5q-0.1 0-0.1-0.1 0 0.1 0 0.1 0 0 0 0.1 0.1-0.1 0.1-0.1zm-0.1-1.1c-0.1 0-0.1 0.1-0.1 0.1 0 0.1 0.1 0.1 0.2 0.1q0-0.2-0.1-0.2zm0.2-1.1q-0.1 0-0.1 0 0 0-0.1 0 0.1 0 0.1 0 0 0 0.1 0zm0.1 2.1q0 0.1-0.1 0.2 0.1 0.1 0.2 0c0-0.1 0-0.2-0.1-0.2zm1.6 0.2q-0.1-0.1-0.2-0.1c0 0-0.1 0-0.1 0.1z"/>
	<path class="s0" d="m10.5 35.9z"/>
	<path class="s0" d="m67.2 24.2z"/>
	<path fill-rule="evenodd" class="s0" d="m72.4 32.6q-0.1 0.1-0.3 0.2-0.1 0-0.4 0.1 0-0.1 0.1-0.2c-0.2 0-0.1 0.2-0.2 0.2q-0.6 0.2-1.3 0.3c-0.1 0-0.3 0.1-0.4 0.1-0.3 0-0.5 0.1-0.8 0.2q-0.1 0-0.3 0.1c-0.1 0-0.2 0-0.2-0.1q-0.1 0.1-0.1 0.1-0.4 0.1-0.9 0.2-0.2 0.1-0.3 0-0.3-0.1-0.4-0.3 0-0.3 0.2-0.4 0.1-0.1 0.1-0.1 0.2-0.1 0.4-0.3 0.1 0 0.2 0c0-0.1 0-0.2-0.1-0.3-0.1 0-0.1-0.1-0.1-0.1q-0.1-0.3-0.2-0.7 0-0.1 0-0.2 0-0.1-0.1-0.2-0.2-1.2-0.5-2.3-0.1-0.5-0.2-0.9 0-0.1 0-0.2h0.2c0-0.2 0-0.3-0.3-0.3q-0.2-0.5-0.3-1.1-0.1-0.5-0.2-1.1-0.2-0.5-0.3-1-0.1-0.6-0.2-1.1-0.2-0.5-0.3-1.1 0.4-0.1 0.7-0.2 0.7-0.1 1.3-0.2c0.1-0.1 0.1-0.1 0.2 0 0.1 0 0.2-0.1 0.2-0.2 0.1 0.1 0.1 0.2 0.2 0.2 0.1-0.2 0.1-0.2 0.3-0.3 0.1 0 0.2 0 0.3 0.1 0.1-0.3 0.4-0.2 0.6-0.3q-0.1 0.1-0.1 0.1c-0.1 0.2-0.1 0.4 0.1 0.5q0.2 0 0.2 0.1c0 0.3 0.1 0.5 0.2 0.8q0 0.1 0 0.2 0 0.1 0 0.1 0.1 0.1 0.1 0.3 0.2 1 0.5 2 0 0 0 0.1-0.1 0.1-0.1 0.2 0.1 0 0.2 0 0.1 0.7 0.3 1.4-0.1 0.1-0.2 0.1 0 0.2 0.2 0.2 0.2 0.5 0.3 1.1c0 0 0 0.1 0 0.2q0.1 0.1 0.1 0.2c0 0 0 0.1 0.1 0.2 0 0.1-0.1 0.1-0.1 0.2q0.1 0.1 0.1 0.1 0.1 0.1 0.1 0.2 0 0.1 0 0.3 0 0 0.1 0 0 0.1 0 0.1-0.1 0-0.1 0c-0.2 0-0.2 0-0.2 0.1q0.1 0.1 0.3 0.1 0.1 0.4 0.2 0.8c0 0.1-0.1 0.1-0.1 0.2q0.1 0 0.1 0 0.1 0.2 0.2 0.5-0.1 0.1-0.1 0.2-0.1-0.1-0.2-0.1c-0.2 0.1-0.1 0.3-0.2 0.5 0.2 0 0.4-0.1 0.5-0.2 0.1 0 0.1 0 0.2-0.1 0 0 0.1 0 0.1 0q0-0.1 0-0.1c0.2 0.1 0.4 0 0.6 0.2 0.2 0.1 0.2 0.4 0 0.6zm-6.8-10.3q0.1 0.1 0.2 0-0.1-0.1-0.1-0.1-0.1 0-0.1 0.1zm0.1 0.4q0 0.1-0.1 0.2c0.1 0 0.2 0 0.2-0.1q0.1-0.1-0.1-0.1zm5 7.5q0 0.1 0.1 0.1 0 0 0.1-0.1-0.1 0-0.1 0c0 0-0.1 0-0.1 0zm-0.7-2q0.3 0.1 0.5 0.1 0 0 0 0-0.1-0.2-0.2-0.4 0 0 0 0-0.1 0.1-0.3 0.3zm-1.6 0.5c0 0.1 0.1 0 0.1 0q0.1-0.1 0-0.2c-0.1 0.1-0.2 0.2-0.1 0.2zm-0.1-2.6q0 0.1 0 0.2 0.2-0.1 0-0.2zm0.1-0.7c0.1 0.1 0.1 0.2 0.2 0zm0.1-1.9q0 0 0.1 0 0 0 0-0.1-0.1 0-0.2 0.1 0.1 0 0.1 0zm0.2-0.6q0-0.1 0-0.1 0 0-0.1 0 0 0 0.1 0.1 0 0 0 0zm-0.1 3.2q0.1 0 0.1 0.1 0 0 0.1-0.1-0.1 0-0.1 0 0 0-0.1 0zm-0.2-0.5c0 0.1 0 0.2 0.2 0.1-0.1 0-0.1-0.1-0.2-0.1zm0.1 3.8q0.1 0 0.1 0 0.1 0 0.1 0 0-0.2-0.1-0.2c-0.1 0-0.1 0.1-0.1 0.2zm0.3-1.8q-0.2-0.2-0.3-0.2c0.1 0.1 0 0.2 0 0.2-0.1 0.2-0.1 0.3 0.2 0.3q0-0.2 0.1-0.3zm0-3.4q0 0 0 0-0.1 0-0.1 0 0 0.1 0.1 0.1 0 0 0-0.1zm0.2-0.7q0.1-0.1-0.1-0.1-0.1 0.1-0.2 0.2c0.1 0 0.1 0 0.3-0.1zm0.1-0.7c0 0-0.1 0-0.2 0.1q0.1 0 0.2-0.1zm-0.2 5.3q0.1 0 0.1 0 0 0 0.1 0-0.1-0.1-0.1-0.1 0 0-0.1 0 0 0 0 0 0 0.1 0 0.1zm0.1 0.4q0 0.1 0 0.2 0.1-0.2 0-0.2zm0.2-1.2q-0.1-0.1-0.2-0.1c0 0.1 0 0.1 0.1 0.1q0.1 0 0.1 0zm0-0.4q0-0.1-0.1-0.3 0 0.2 0 0.3 0.1 0 0.1 0zm0.1-1.5c0 0 0-0.1 0-0.1-0.1-0.1-0.1-0.1-0.2 0q0.2 0.2 0.2 0.1zm0 1q0 0 0-0.1 0 0.1 0 0.1zm0 0.5q0 0 0.1 0 0 0 0 0 0 0 0 0 0.1 0 0 0 0-0.1-0.1 0zm0.1 0.8q0 0.1 0 0.2c0.1 0 0.2 0 0.2-0.1-0.1-0.1-0.1-0.1-0.2-0.1zm0.1 2c0.1 0.1 0.1 0 0.2 0q-0.2-0.1-0.2 0zm0.3-0.7q0-0.1-0.1-0.1-0.1 0.1-0.2 0.2 0.2 0 0.3-0.1zm0.1-0.3q-0.1-0.1-0.2-0.1c0 0-0.1 0-0.1 0.1q0 0 0.1 0.1 0.1 0 0.2-0.1zm0.2-1.4c-0.2-0.1-0.2 0.1-0.3 0.1 0 0 0 0.1 0 0.1q0 0.1 0.1 0.1c0.1-0.1 0.1-0.2 0.2-0.3zm-0.2-0.1q0.1 0.1 0.2-0.1-0.2 0-0.3-0.1 0 0.1 0 0.1c0 0 0 0.1 0.1 0.1zm0.1 1.6q0 0 0 0 0.1 0 0.1 0 0 0 0.1 0c-0.1 0-0.1-0.1-0.1-0.1 0 0-0.1 0-0.1 0.1zm0 0.8q0.1 0.2 0.3 0.1 0 0 0-0.1 0 0-0.1 0 0 0-0.2 0zm0.4-0.2q-0.1-0.1-0.1-0.1-0.1 0-0.1 0c0 0.1 0.1 0.1 0.2 0.1zm0-0.4c0.1 0 0-0.1 0-0.1q-0.1 0-0.2 0 0 0 0 0.1c0 0 0.1 0.1 0.1 0.1 0 0 0.1 0 0.1-0.1zm0.1-0.4v-0.2q-0.1 0-0.2 0.1c0.1 0 0.1 0.1 0.2 0.1zm-0.1 1.4q0 0 0.1 0.1 0-0.1 0-0.2 0 0 0 0c0 0-0.1 0.1-0.1 0.1zm-0.5-3.4c0.1 0 0.2 0 0.2-0.1 0 0 0 0 0 0q-0.2-0.1-0.2 0.1zm-0.2 0.1q0.1 0.1 0.2 0.1c0.1 0 0.1 0 0.2 0q-0.2-0.2-0.4-0.1zm0-0.7q-0.1 0.1 0.1 0.2c0-0.1-0.1-0.1-0.1-0.2zm-0.1-0.6q0.1 0 0.1-0.1-0.1 0-0.2-0.1 0 0.2 0.1 0.2zm-0.3-1.8q0 0.2 0.2 0.2c0-0.2 0-0.2-0.2-0.2zm-0.1 0.6q0 0.1 0.1 0.1 0 0 0-0.1 0 0 0 0-0.1 0-0.1 0zm0-1.2c0-0.1 0-0.1-0.1-0.1q0 0.2 0 0.3 0.1 0 0.1 0c0-0.1 0.1-0.2 0-0.2zm-0.3-0.3c0.3 0.1 0.3 0.1 0.4-0.1q-0.2 0-0.4 0.1zm0.1-0.5q-0.1 0.1-0.1 0.2 0 0 0.1 0.1 0.1 0 0.1-0.1c0.1 0 0.1-0.1 0.1-0.2-0.1 0-0.2 0-0.2 0zm-0.1 0.2q0 0 0 0 0 0 0 0 0 0 0 0-0.1 0-0.3 0c0 0-0.1 0.1-0.1 0.1 0 0.1 0.1 0.1 0.1 0.1q0.1 0.1 0.2 0.1 0.1-0.1 0.1-0.2 0-0.1 0-0.1 0 0 0 0zm-0.1-0.3q0.1 0.1 0.1 0 0-0.1 0-0.2 0 0-0.1 0 0 0.1 0 0.2zm-0.4-0.1c0.2 0 0.2 0 0.3-0.2-0.1-0.1-0.2-0.1-0.3 0zm0 2.4q-0.1-0.1-0.2-0.1c0 0.1 0.1 0.1 0.2 0.1zm-0.3 3.3q-0.1-0.1-0.2-0.1c0 0 0 0.1-0.1 0.1 0.2 0.1 0.2 0.1 0.3 0zm-0.1 0.1q0 0 0 0-0.1 0.1-0.1 0.2 0 0 0 0c0.1 0 0.1 0 0.1 0q0-0.1 0-0.2zm-0.7-0.8q0.1 0 0.1 0.2 0.2-0.1 0.5-0.2-0.1-0.1-0.1-0.1-0.2 0.1-0.4 0 0 0-0.1 0.1zm0.2-0.8q0-0.1 0-0.1-0.1 0-0.1 0-0.1 0 0 0.1 0 0 0.1 0zm0.7 0.1c0 0 0-0.1 0-0.1q-0.1 0-0.1 0.1-0.1 0-0.1 0 0.1 0 0.1 0c0 0 0.1 0 0.1 0zm-0.1 1.9c0 0.1 0 0.1 0.1 0.1q0-0.1-0.1-0.1zm0-2.5q0 0.1-0.1 0.1 0 0 0 0.1 0 0 0.1 0c0-0.1 0.1-0.1 0-0.2zm0-1.2c-0.1-0.1-0.1-0.1-0.3-0.1 0.1 0.1 0.2 0.2 0.3 0.1zm-0.3 1.1c0 0.1 0 0.1 0.1 0.1q0 0 0.1 0 0-0.1 0-0.1-0.1 0-0.1 0-0.1 0-0.1 0zm-0.1 1.1c0.1 0 0.2 0 0.2-0.1-0.1 0-0.1 0-0.2 0.1zm0.4 2.7c0.2-0.1 0.2-0.1 0.1-0.2-0.1 0-0.1 0.1-0.1 0.2zm0-7.6c0 0 0.1 0 0.2 0q0 0 0.1-0.1-0.2 0-0.2 0c0 0-0.1 0-0.1 0.1zm-0.1 0.9q0 0.1 0.1 0.1 0 0 0-0.1 0 0 0 0 0 0-0.1 0zm-0.1 1h0.2q-0.1-0.1-0.1-0.1c0 0-0.1 0-0.1 0.1zm-0.1 0.4c0 0.1 0 0.1 0.1 0.1q0.1 0 0.2 0 0 0 0 0c0.1 0 0.1 0 0.1-0.1q0 0 0 0 0 0 0 0 0 0 0.1 0.1 0-0.1 0-0.2c-0.1 0-0.1 0-0.1 0.1q0 0 0 0 0 0 0 0-0.1 0-0.2 0 0-0.1-0.1-0.3-0.1 0.1-0.1 0.1c0 0.1-0.1 0.2 0 0.2zm-0.3 2.1q0 0.1 0 0.1 0.1 0.1 0.2 0.2 0-0.1 0.1-0.1c0-0.1 0-0.2-0.1-0.2 0 0-0.1 0-0.2 0zm0-4.2q0.1-0.1 0.1-0.2-0.2 0-0.1 0.2zm-0.3 0.8c-0.2 0-0.4 0-0.5 0.1q0.2 0.1 0.3 0.2 0.1 0 0.2 0 0.1-0.1 0-0.2 0 0 0-0.1zm0 0.7c-0.1-0.1 0-0.2-0.1-0.3-0.1 0-0.3 0-0.4-0.1 0 0-0.1 0-0.1 0 0 0.1 0.1 0.2 0.2 0.2 0 0.1 0.1 0.2 0.1 0.3 0.1 0 0.1 0 0.2 0.1q0-0.1 0.1-0.2zm-0.1 0.4q0 0 0 0 0 0 0 0.1 0 0 0 0 0-0.1 0-0.1zm-0.1-2.1c0 0.2 0 0.2 0.2 0.1q-0.1-0.1-0.2-0.1zm-0.3 0q0 0.1 0 0.1 0.1 0 0.1 0 0-0.1 0-0.1 0 0-0.1 0zm-0.1 0.4c0.1 0 0.2 0 0.3 0-0.1-0.1-0.1-0.1-0.2-0.2 0 0.1 0 0.1-0.1 0.2zm-0.1 0.5q0.1 0 0.1 0 0-0.1 0-0.1-0.1 0-0.1 0-0.1 0 0 0.1zm0 2.6c0.2 0.1 0.2 0.1 0.2-0.1q-0.1 0-0.2 0.1zm0.3 0.4q-0.1-0.1-0.2-0.1 0.1 0.1 0.2 0.1zm0.1-1q0 0 0 0 0 0-0.1 0 0 0 0.1 0.1 0 0 0-0.1zm0.1-0.4q0 0 0 0-0.2 0-0.2 0.1 0.1-0.1 0.2-0.1zm0.2-0.1q0 0 0 0 0 0 0 0 0 0.1 0 0.1c0.2 0.1 0.3 0.1 0.4 0q-0.1-0.1-0.2-0.3h-0.1q0 0.1-0.1 0.2 0 0 0 0c0-0.1 0-0.1-0.1-0.1q0 0 0 0c0 0.1 0 0.1 0.1 0.1zm0 0.8q0.1 0 0.2-0.1-0.2 0-0.2 0.1zm-0.1 0.9q0.2 0.1 0.3 0.1 0 0 0-0.1-0.2-0.1-0.3 0zm0.1 0.5q0 0.1 0.1 0.2c0 0 0 0.1 0.1 0.1q0-0.2 0-0.3 0-0.1-0.1-0.1-0.1 0-0.1 0.1zm0.2 1.1q0-0.1 0-0.1 0 0 0 0 0 0 0 0 0.1 0 0.1-0.1 0 0-0.1-0.1c-0.1 0.1 0 0.1 0 0.2q0 0 0 0 0 0 0 0-0.1-0.1-0.2-0.1c0 0.1 0.1 0.2 0.2 0.2zm0 3.2q0 0.1 0 0.1 0 0.1 0 0.1 0 0.1 0 0.1 0.1 0 0.1 0 0.1-0.1-0.1-0.3zm0.2-2.7q-0.1-0.1-0.2-0.1c0 0.1 0 0.2 0.1 0.2q0.1 0 0.1-0.1zm0.1 0.3c0-0.1 0-0.1 0-0.2q-0.1 0.1 0 0.2zm0.1-0.5c0-0.2-0.1-0.2-0.2-0.2 0 0.1 0 0.1 0 0.3q0.1-0.1 0.2-0.1zm0.2 5q-0.1-0.1-0.1-0.1 0 0-0.1 0.1c0 0 0.1 0 0.1 0q0 0 0.1 0zm0.2-1.9q-0.1-0.2-0.3-0.1c0 0.1 0 0.2 0.1 0.2q0.1 0.1 0.2-0.1zm0.2 1.6c-0.1 0-0.2-0.2-0.3 0q0.2 0.1 0.3 0zm0.3-0.7q-0.2 0-0.4 0c0 0.2 0.1 0.1 0.2 0.1v0.2q0.1-0.1 0.2-0.1zm0-1.1q-0.1 0-0.2 0c0 0.1 0 0.2 0.1 0.2q0-0.1 0.1-0.2zm0.1-0.3q-0.1-0.1-0.1-0.3 0 0 0 0-0.1 0-0.1 0 0 0 0 0 0 0 0 0 0 0 0 0 0 0 0 0 0-0.1-0.1-0.1 0 0-0.1 0 0.1 0.1 0.2 0.1 0 0 0 0 0 0 0 0-0.1 0.2-0.1 0.4 0.1 0 0.2 0.1 0-0.2 0.1-0.2zm0.1-1.4q0-0.1-0.2-0.1 0.1 0.1 0.2 0.1zm0.1 1.4c-0.1 0.1-0.1 0.2-0.1 0.3 0.1-0.1 0.1-0.1 0.1-0.3zm0-0.5c0.1 0 0.2 0.1 0.3 0-0.2-0.1-0.2-0.1-0.3 0zm0.1-0.2q0 0 0 0 0-0.1 0-0.1 0 0 0 0.1 0 0 0 0zm0.1-0.1q0 0 0.1 0.1 0-0.1 0-0.1c0 0 0 0 0 0q-0.1 0-0.1 0zm0.1-0.1q0 0 0 0 0-0.1 0-0.1 0 0-0.1 0 0.1 0.1 0.1 0.1zm-0.2 2.8q0 0 0.1 0 0 0 0-0.1-0.1 0.1-0.1 0.1 0 0 0 0zm0.1 1q0-0.1 0-0.1 0 0-0.1 0.1 0 0 0 0.1 0 0 0.1 0 0-0.1 0-0.1zm0.2-1.9q-0.1-0.1-0.2-0.1-0.1 0.1 0 0.1 0.1 0.1 0.2 0zm0.1-2.6c-0.1-0.1-0.2-0.1-0.2-0.1q-0.2 0.1-0.3 0.1c0.2 0.3 0.3 0.3 0.5 0zm0.6 2.5q0-0.1 0.1-0.2-0.1-0.2-0.4-0.2 0 0-0.1 0 0 0 0 0 0 0 0 0 0-0.2 0-0.3 0-0.2-0.3-0.1 0.1 0.2 0.1 0.4 0.1 0 0.2 0 0 0 0 0 0 0 0 0c-0.1 0.2-0.1 0.2 0.1 0.3q0.1 0 0.1 0.1c0.1 0 0.1 0.1 0.2 0zm-0.5 1.5q0 0.2 0.1 0.2 0.1 0 0.1-0.1 0-0.1-0.2-0.1zm-0.1-1.9q-0.1 0.2 0 0.3 0.1-0.2 0-0.3zm0.8 1.5q-0.1 0-0.1 0 0 0.2 0.1 0.1 0 0 0-0.1zm0.2-0.6c-0.2-0.1-0.2 0-0.3 0.1 0.1 0.1 0.2 0 0.3-0.1zm0.1-0.6c0 0-0.1 0-0.1 0q-0.1 0-0.1 0.1 0 0 0.1 0.1 0.1-0.1 0.1-0.2zm0.1 0.4c-0.1 0 0 0.1 0 0.2q0.1-0.1 0-0.2zm0.2-0.6q-0.1 0-0.2 0 0.1 0.1 0.1 0.2 0.1-0.1 0.1-0.2zm0.1-0.1q0.1 0 0.2 0.1 0.1-0.2-0.1-0.2c0 0 0 0-0.1 0.1zm0.7 1.4v0.2q0.1 0 0.1 0 0-0.2-0.1-0.2z"/>
	<path fill-rule="evenodd" class="s0" d="m31.3 40.7q0 0.2-0.1 0.3c-0.2 0.8-0.6 1.4-1.3 1.7q-0.8 0.4-1.7 0.4-1.3 0-1.9-1.2c-0.1-0.4-0.2-0.8-0.3-1.3q0.1 0 0.1-0.1c0 0 0-0.1-0.2-0.1q-0.1-0.3-0.1-0.6-0.1-0.3-0.2-0.6c-0.2-0.6-0.5-0.8-1.1-0.8q-0.2-0.4-0.3-0.9 0.2 0 0.3-0.1 0.4-0.2 0.5-0.7c0-0.3-0.1-0.5-0.1-0.7q-0.3-1-0.5-2 0 0 0-0.1-0.2-1-1.2-1.1 0 0-0.1 0-0.1-0.4-0.2-0.9 0.6-0.1 1.1-0.2 0 0.1 0 0.2c0.3 0.3 0.3 0.3 0.6 0.1q-0.1-0.2-0.1-0.4c0.1 0 0.2-0.1 0.4 0q0 0 0 0 0.1 0 0.2-0.1c0.1 0.2 0.2 0.3 0.3 0.2q0 0 0-0.1 0 0-0.1 0 0.2-0.1 0.4 0 0.6 0 1.1 0.2c0.1 0.1 0.1 0.1 0.2 0.3 0 0.1 0.1 0.2 0.2 0.3q0.1 0 0.3-0.1c0.1 0.2 0.3 0.3 0.4 0.6q0 0 0 0.1c0.1 0 0.2 0.1 0.2 0.2q0.3 0.6 0.3 1.3 0.1 1.1-0.8 1.9c-0.2 0.3-0.5 0.4-0.7 0.6q-0.1 0.1-0.2 0.1c-0.2-0.1-0.3 0-0.3 0.2q-0.1 0-0.2 0.1 0.1 0 0.2 0c0.4 0 0.9 0 1.3 0.1q1.5 0.2 1.8 1.5 0.2 0.8 0.4 1.5 0 0.1 0.1 0.3c0 0.1 0.1 0.1 0.2 0q0.1-0.1 0.1-0.1 0.1-0.1 0.1-0.2 0.2-0.3 0.5-0.2c0.2 0 0.4 0.2 0.4 0.4zm-3.4-7.4q0-0.1 0.1-0.1 0 0 0-0.1-0.1 0.1-0.1 0.1 0 0 0 0.1zm-0.7 2.1c0.1 0 0.1 0.2 0.3 0.1q-0.1-0.1-0.2-0.1 0 0-0.1 0zm-0.5-2.4q0.1 0.1 0.1 0.1l0.1-0.1q-0.1 0-0.1 0 0 0-0.1 0zm-0.2-0.6q0-0.1 0-0.2-0.1 0.2 0 0.2zm-0.1 3.4q0.1 0 0.2-0.1c-0.2 0-0.2 0-0.2 0.1zm-0.1-3.8q0 0 0 0.1 0.1-0.1 0.1-0.1 0 0-0.1-0.1 0 0 0 0.1zm-2.5 0.3q0 0-0.1 0 0.1 0.1 0.1 0.2 0-0.1 0-0.1zm0.1-0.1q0-0.1 0-0.3-0.3 0.1-0.5 0.2c0 0-0.1 0.1 0 0.2q0.1 0.1 0.2 0 0.1 0 0.3-0.1zm0.2 0.6c-0.2 0.1-0.2 0.1-0.2 0.1q0 0.1 0.1 0.1 0.1-0.1 0.1-0.2zm0.4 0.5q-0.1-0.1-0.2-0.1c0 0 0 0 0 0.1q0 0 0.1 0 0 0 0.1 0zm0.2 1.1q-0.1 0-0.1 0 0 0.1 0.1 0zm0.3-2c0.1 0.1 0.1 0.1 0.2 0zm0.1 0.4q0-0.1 0-0.2-0.2 0-0.3 0 0 0.2 0 0.3 0.1 0.1 0.2 0.1c0.1-0.1 0.1-0.1 0.1-0.2zm0.1 2.1q0.1 0 0.1-0.1-0.1-0.1-0.1 0 0 0 0 0.1zm0 1.7q0.1 0 0.1-0.1 0.1 0 0.1 0-0.1-0.1-0.1-0.1-0.1 0.1-0.1 0.1 0 0.1 0 0.1zm0.2 1.3q-0.1 0-0.1 0.1 0.1 0 0.1-0.1zm0.1 0.2q-0.1-0.1-0.1-0.1 0 0 0 0.1 0 0 0 0 0 0 0.1 0zm0.1-0.6q0 0 0 0 0 0 0 0-0.1 0-0.1 0 0 0 0 0.1 0 0 0.1 0 0 0 0-0.1zm0.2-4c0 0 0-0.1-0.1-0.1q-0.1 0-0.1 0.1 0 0 0.1 0.1 0 0 0.1-0.1zm0.4-0.2c0-0.2 0-0.2-0.1-0.2-0.1 0.1 0 0.1 0.1 0.2zm-0.2-0.8q0 0 0 0-0.1 0.1-0.1 0.1 0 0 0 0 0 0 0.1-0.1zm0 3.7q0 0.1 0.1 0.1c0 0 0 0 0-0.1q0 0 0 0-0.1 0-0.1 0zm0.2 2.4c0-0.2 0-0.2-0.2-0.1q0.1 0 0.2 0.1zm0.6 0.5q0-0.1 0-0.2zm0 2.3c0 0-0.1 0.1 0 0.1 0.1 0 0.1 0 0.1 0q0.1-0.1-0.1-0.1zm0.1-0.7q-0.2 0-0.3 0c0 0.2 0 0.2 0.2 0.2q0.1 0 0.2 0 0-0.2-0.1-0.2zm0.5-2.6c0 0 0 0 0 0q0 0 0.1 0-0.1-0.1-0.1-0.1 0 0 0 0.1zm-0.2 1.5q0 0 0.1 0 0.1 0.1 0.2 0.1c0 0.1 0.1 0.1 0.2 0 0 0 0-0.1 0-0.1q-0.1-0.1-0.1-0.2c-0.2 0-0.4 0-0.4 0.1q0 0.1 0 0.1zm0.4 0.8q0 0.1 0.1 0.2 0-0.1-0.1-0.2zm-0.3 1.5q-0.1 0-0.1 0.1 0 0 0.1 0 0.1 0 0-0.1zm0.2 0.2q0-0.1-0.1-0.1 0 0 0 0.1 0 0 0 0 0.1 0 0.1 0zm0.2-0.2c-0.1-0.1-0.2-0.1-0.3 0q0.1 0.1 0.3 0zm0-0.6q0 0-0.1 0.1 0.1 0 0.2 0.1 0-0.2-0.1-0.2zm0.3-2.1c-0.1 0-0.1-0.1-0.1-0.1q-0.1 0-0.1 0.1 0 0 0.1 0.1 0-0.1 0.1-0.1zm0-1.6q-0.1 0.2 0.1 0.3 0-0.1-0.1-0.3zm0.3 4.5q0 0-0.1 0-0.1 0.1 0 0.3 0.1-0.1 0.2-0.2c0 0 0-0.1-0.1-0.1zm0.5 0.2h-0.2c0 0 0 0.1 0.1 0.2 0-0.1 0.1-0.1 0.1-0.2zm-0.1-2.7q0.1 0.1 0.1 0.2 0 0 0-0.1c0.1 0 0.1-0.1-0.1-0.1zm0.7 1.6q-0.1 0-0.1 0.1c0 0.1 0.1 0.1 0.1 0.1 0.1 0 0.1-0.1 0-0.2zm0.3 1.5c0 0 0-0.1-0.1-0.1q0 0 0 0.1 0 0 0 0.1 0.1-0.1 0.1-0.1zm0.3-0.6q-0.2 0-0.2 0.1 0 0.1 0.2 0.1zm1.1-0.8c0-0.1 0-0.1-0.1-0.1q0 0.1 0.1 0.1z"/>
	<path fill-rule="evenodd" class="s0" d="m36.5 40.4q0.1 0.4 0.2 0.8-0.3 0.1-0.5 0.1c-1.3 0.1-2.4-0.3-3.3-1q-0.6-0.5-1.1-1.1-0.2-0.3-0.4-0.6-0.2-0.4-0.4-0.7-0.2-0.4-0.3-0.7-0.1-0.4-0.2-0.8-0.1-0.4-0.2-0.7c-0.1-1.2-0.1-2.3 0.3-3.4q0.3-0.8 0.8-1.5c0.1 0 0.2 0.1 0.3 0q-0.1-0.1-0.2-0.2c0.6-0.7 1.4-1.2 2.3-1.5q0.1 0.1 0.1 0.2 0 0.2 0.1 0.5c0 0.1 0 0.2-0.1 0.4-0.3 0.2-0.4 0.6-0.3 1q0.1 0.7 0.2 1.3 0.7 2.8 1.3 5.5c0 0.1-0.1 0.1-0.1 0.2q0.1 0 0.2 0.1 0 0 0 0 0.1 0.4 0.2 0.9 0.1 0.2 0.2 0.5c0.2 0.3 0.4 0.6 0.9 0.7zm-5.2-9.2q0.1 0 0.1 0 0.1-0.1 0.2-0.1c0 0 0-0.1-0.1-0.1q-0.1 0-0.1 0.1-0.1 0-0.1 0.1zm0.2 3.3q-0.1 0-0.2 0 0 0.1 0 0.1 0.1 0 0.1 0 0 0 0.1-0.1zm0-2.3q-0.1-0.1-0.2-0.1 0 0.1 0.1 0.1c0 0 0.1 0 0.1 0zm0.3 2.2q-0.1-0.1-0.2-0.1c0 0.1 0 0.2 0 0.3 0.1-0.1 0.1-0.2 0.2-0.2zm0-2.4q0-0.1-0.1 0c0 0-0.1 0 0 0q0 0.1 0.1 0.1 0 0 0-0.1zm0.3 1.8q-0.1-0.1-0.2-0.1c0 0.1 0 0.1 0.2 0.1zm0.3 2.7c0-0.1 0-0.1-0.1-0.1q0 0-0.1 0 0.1 0.1 0.2 0.1zm0.1 2.7q-0.2 0.1-0.1 0.1 0 0 0.1 0 0 0 0-0.1zm0.3-0.6q-0.1-0.1-0.2 0c0 0.2 0 0.2 0.2 0.2 0.1-0.1 0.1-0.2 0-0.2zm0.4-5.6q0 0.1 0.1 0.2 0-0.1-0.1-0.2zm0 6c0 0.1 0 0.2 0.1 0.3 0.1-0.1 0.1-0.2-0.1-0.3zm1.4-2.3q0 0 0 0 0.1 0 0.1-0.1 0 0 0 0-0.1 0.1-0.1 0.1zm-0.6 3.5q-0.1-0.1-0.2-0.1 0 0.2 0.1 0.2c0.1 0 0.1-0.1 0.1-0.1zm0.9-2.5c0-0.1-0.1-0.2-0.2-0.2q0 0.1-0.1 0.2c0 0 0.1 0.1 0.2 0.1q0.1 0 0.1-0.1zm0.3 2.6q0 0 0 0-0.1 0-0.1 0.1 0 0 0 0 0.1 0 0.1-0.1z"/>
	<path fill-rule="evenodd" class="s0" d="m41 38.3q0.1 0.2 0 0.3c-0.9 1.2-2 2-3.3 2.4q-0.1 0.1-0.3 0.1 0-0.2 0-0.5c0-0.1-0.1-0.2-0.2-0.4q0.1 0 0.1-0.1 0.6-0.4 0.4-1-0.3-1.3-0.6-2.6 0-0.2-0.1-0.3c0-0.3-0.1-0.4-0.4-0.4q-0.2 0-0.3 0-0.1 0-0.3 0c-0.2-0.1-0.4-0.5-0.1-0.7q0.2-0.2 0.5-0.2 1.2-0.3 2.4-0.6 0.6-0.1 1.2-0.3 0 0 0.1 0c0.2 0 0.4 0 0.5 0.2 0.1 0.2 0.1 0.4 0 0.6q-0.1 0.1-0.2 0.2-0.1 0.2-0.1 0.4 0.2 0.8 0.4 1.5c0 0.1 0 0.2-0.1 0.3 0.2 0.1 0.2 0.2 0.2 0.3q0.1 0.4 0.2 0.8zm-4.8-3q0-0.1 0-0.1c0-0.1 0-0.2 0-0.2-0.1 0-0.2 0.1-0.2 0.2q0 0.1 0.2 0.1zm0.2 0.1q-0.2 0-0.3 0.1 0.2 0.1 0.3-0.1zm1.9-0.9q0 0.1 0.1 0.2 0-0.1-0.1-0.2zm0.9 1.7q-0.1 0-0.2 0.2 0.1 0.1 0.2 0.2c0.2-0.2 0.2-0.3 0-0.4z"/>
	<path fill-rule="evenodd" class="s0" d="m16.8 42c0.2 1 0.2 1.9-0.3 2.8q-0.5 1-1.5 1.4-0.1 0.1-0.2 0.1 0 0-0.1 0-0.1-0.4-0.2-0.8 0-0.1 0.1-0.1 0.2-0.2 0.5-0.4c0.7-0.6 1-1.4 0.9-2.3-0.1-0.6-0.2-1.2-0.4-1.8q-0.4-1.8-0.8-3.7 0.1 0 0.2 0c-0.1-0.1-0.1-0.3-0.3-0.2-0.1-0.4-0.2-0.8-0.4-1.2q0 0 0.1-0.1-0.1-0.1-0.2 0-0.1-0.1-0.1-0.2-0.3-0.3-0.7-0.4-0.2-0.1-0.3-0.1-0.2-0.1-0.3-0.3 0-0.3 0.2-0.4 0.3-0.2 0.7-0.2c0.1 0 0.2-0.1 0.3-0.1q0.5-0.1 0.9-0.2 0.3-0.1 0.7-0.2 0.2 0 0.4 0.1c0.3 0 0.3 0.4 0.2 0.6q-0.4 0.3-0.7 0.6 0 0.1 0 0.1c-0.1 0.5-0.1 0.9 0 1.3q0.1 0.4 0.2 0.8-0.1 0.1-0.2 0.1c0.3 0.1 0.3 0.3 0.3 0.5q0 0.1 0 0.2-0.1-0.1-0.2-0.1c0 0.2 0 0.2 0.2 0.1q0.1 0.2 0.1 0.3 0.5 1.9 0.9 3.8zm-3.7-7.4q0 0 0 0 0 0-0.1 0 0.1 0 0.1 0 0 0 0 0zm0.3 0q0-0.1 0-0.1 0 0-0.1 0 0.1 0.1 0.1 0.1 0 0 0 0zm0-0.3q0 0.2 0.2 0.2c0-0.2 0-0.2-0.2-0.2zm0.7 1q-0.1-0.1-0.1-0.2-0.2 0-0.1 0.1c0 0.1 0.1 0.1 0.1 0.1q0 0 0.1 0zm0.6-0.5h-0.3q0 0.1 0.1 0.1c0.1 0 0.2 0 0.2-0.1zm0.5 1.1q0.2 0 0.1-0.1 0 0-0.1 0.1zm-0.2-2q0 0 0.1 0.1 0 0 0-0.1 0.1 0 0-0.1 0 0.1-0.1 0.1zm0.3 2.2q0 0 0.1 0 0 0 0 0-0.1-0.1-0.1-0.1c-0.1 0-0.1 0.1-0.2 0-0.1 0-0.1 0.1-0.2 0.2q0 0 0 0 0 0 0 0 0 0 0 0 0 0-0.1-0.1c0 0.1 0 0.2 0.1 0.2q0 0 0-0.1 0 0 0 0 0 0 0 0 0 0.1 0.1 0.1 0.1-0.1 0.3-0.2zm-0.4 0.1q0 0 0 0 0 0 0 0zm0.2 0.3q0-0.1 0-0.1-0.1 0-0.1 0.1 0 0 0.1 0 0 0 0 0zm0.2 1.9q0 0 0-0.1 0-0.1-0.1 0c0 0.1 0 0.1 0.1 0.1zm0.2 0.4c-0.2 0-0.2 0-0.2 0.2 0.1 0 0.1 0 0.2-0.2zm0 0.6q0 0 0 0-0.1 0-0.1 0 0 0 0 0 0 0.1 0 0.1 0.1 0 0.1 0 0 0 0-0.1zm0.3-0.5q0-0.1 0.1-0.2-0.1 0-0.2 0 0.1 0.1 0.1 0.2zm0.2 2.1q-0.1-0.1-0.1-0.1-0.1 0.1 0.1 0.1zm0.5 2.5q0-0.1-0.2 0.1 0.2 0 0.2 0 0-0.1 0-0.1z"/>
	<path fill-rule="evenodd" class="s0" d="m56.6 36q0.1 0.2-0.1 0.3-0.2 0.2-0.4 0.2c-0.3 0.1-0.6 0.2-0.8 0.2-0.2 0-0.4 0.1-0.5 0.1q-0.5 0.1-0.9 0.2-0.2 0-0.4 0-0.2 0-0.3-0.3 0-0.2 0.1-0.4 0.1-0.1 0.2-0.1 0.4-0.3 0.5-0.8 0.1-0.6 0-1.1-0.6-2.4-1.1-4.8-0.1-0.1-0.1-0.2c0.1 0 0.2 0 0.2-0.1q0-0.1-0.1-0.2c0 0-0.1 0-0.2 0q-0.1-0.4-0.2-0.8 0.1 0 0.2 0.1 0.4 0.5 0.9 1 0.2 0.2 0.2 0.4 0.5 2.2 1.1 4.4 0.1 0.6 0.5 1.1 0.3 0.3 0.6 0.4 0.2 0 0.3 0 0.3 0.1 0.3 0.4zm-3-4.9q0-0.1 0-0.1c-0.1 0-0.2 0-0.2 0.1q0.1 0 0.2 0zm1 4.8q-0.1-0.2-0.2 0 0.1 0 0.2 0z"/>
	<path fill-rule="evenodd" class="s0" d="m34.8 29.8q-0.1-0.4-0.2-0.8 0.3-0.1 0.7-0.1 0.8-0.1 1.7 0 0.1 0 0.2 0c0.3 0.1 0.4-0.1 0.5-0.3q0.1-0.1 0.1-0.2 0.1-0.2 0.4-0.3 0.3-0.1 0.5 0.3 0 0.2 0.1 0.4 0.3 1.6 0.7 3.1 0 0.1 0 0.2 0.1 0.4-0.2 0.5c-0.2 0.1-0.5 0.1-0.6-0.1q-0.1-0.1-0.2-0.3-0.2-0.3-0.4-0.7c-0.4-0.5-0.8-1-1.4-1.3q-0.8-0.5-1.8-0.4-0.1 0-0.1 0zm4.5 2.6q0 0.1 0.1 0.1c0-0.1 0-0.2-0.1-0.2 0 0 0 0 0 0.1zm-0.4 0.2c0.1-0.1 0.1-0.1 0.1-0.4q-0.2-0.1-0.2 0-0.1 0.2 0.1 0.4zm-1.6-2.8q0.1-0.1 0.1-0.1c0.1-0.1 0-0.1-0.1-0.2z"/>
	<path fill-rule="evenodd" class="s0" d="m58.1 23.8q0.2-0.1 0.4-0.1 1.1-0.3 2.2-0.5 0.2-0.1 0.4 0c0.3 0 0.4 0.4 0.2 0.6q-0.1 0.2-0.2 0.3-0.5 0.4-0.5 1.1c-0.1 0.4 0 0.8 0.1 1.2q0.4 1.7 0.8 3.4 0 0 0 0 0 0 0 0.1-0.1-0.2-0.2-0.3-0.4-0.4-0.9-0.9-0.1-0.2-0.1-0.3-0.3-1.1-0.5-2.2-0.1-0.4-0.4-0.8-0.3-0.6-0.9-0.7-0.1-0.1-0.3-0.1c-0.3-0.2-0.4-0.6-0.1-0.8zm2.9 5.2q0.1 0 0.2 0.1 0 0 0.1 0c0-0.1 0-0.1 0-0.1q0-0.1-0.1-0.2-0.1 0-0.2 0.2zm-0.8-4.5q0 0 0.1 0.1 0.1-0.1 0.1-0.1 0 0-0.1-0.1c0 0-0.1 0.1-0.1 0.1z"/>
	<path fill-rule="evenodd" class="s0" d="m52 37.3q0 0 0 0.2-1.8 0.4-3.6 0.8-0.1-0.5-0.2-0.8c0.4-0.3 0.7-0.5 1.1-0.7q0 0 0.1 0.1 0-0.1 0-0.2 0.1-0.1 0.1-0.1c0.1 0 0.2 0 0.1-0.1q0 0 0-0.1 0.3-0.4 0.6-0.8 0 0 0 0 0.1-0.1 0.1-0.1c-0.1-0.1-0.1-0.2 0-0.4q0-0.3 0.1-0.6 0-0.1 0.1-0.3 0.1-0.3 0.4-0.3 0.3 0 0.4 0.3 0.1 0.5 0.2 0.9 0.2 1.1 0.5 2.2zm-0.8-1.9q0-0.1 0-0.2-0.1 0.1 0 0.2 0 0 0 0z"/>
	<path class="s0" d="m46.4 27.5q1.1 0 2 0.8 0.3 0.4 0.6 0.8 0.1 0.1 0.1 0.2 0.2 0.1 0.3 0.2c0.3 0 0.6-0.3 0.5-0.6q-0.3-1.4-0.7-2.9 0-0.1 0-0.2-1.8 0.4-3.5 0.8 0.1 0.5 0.2 0.9 0.2 0 0.5 0z"/>
	<path fill-rule="evenodd" class="s0" d="m64.6 23.1q0.1 0.1 0 0.1c-0.4 0.6-0.6 1.3-0.6 2q0 0.3 0.1 0.7 0 0.2 0 0.4-0.1 0.4-0.5 0.5c-0.3 0-0.5-0.1-0.5-0.4q-0.1-0.3-0.2-0.6c0.1-0.1 0.2-0.1 0.2-0.2 0-0.1-0.2-0.1-0.2-0.1q-0.4-1.3-0.7-2.7 1.1-0.3 2.3-0.5 0.1 0.4 0.1 0.8zm-1.6 1.1c-0.1 0-0.2 0-0.3 0q0.1 0.1 0.1 0.2c0.1-0.1 0.1-0.1 0.2-0.2zm0.2 0.7c0 0 0 0 0 0q-0.1 0-0.2 0 0.2 0.1 0.2 0zm0.2-0.4q0-0.1 0-0.1-0.1 0-0.1 0 0 0.1 0 0.1c0 0 0 0 0 0q0.1 0 0.1 0zm0.2 0.6c0 0 0-0.1-0.1-0.1q0 0.1 0.1 0.1zm0-1.9q0.1 0 0.1 0.1 0-0.1 0-0.1 0 0 0-0.1-0.1 0.1-0.1 0.1zm0.3 3.3q-0.1 0-0.2-0.1 0 0.1 0 0.1 0 0 0.1 0.1 0 0 0.1-0.1zm0.2-3.9q0-0.1 0-0.1-0.1 0-0.1 0.1c0 0 0.1 0 0.1 0q0 0 0 0z"/>
	<path fill-rule="evenodd" class="s0" d="m48.4 33.3q-0.1 0-0.2 0c-0.3-0.3-0.6-0.5-1.1-0.5q-0.1-0.5-0.2-0.9c0.2-0.2 0.4-0.3 0.5-0.5 0.2-0.3 0.3-0.6 0.3-1q0-0.2 0-0.4 0-0.2 0.2-0.3c0.3-0.2 0.5-0.1 0.6 0.1q0.1 0.3 0.2 0.6 0.4 1.7 0.8 3.3 0 0.1 0 0.2 0 0.3-0.2 0.4-0.3 0.1-0.5-0.1-0.1-0.1-0.2-0.2-0.1-0.2-0.2-0.5 0-0.1 0-0.2zm-0.8-0.6q0-0.2-0.2-0.2 0.1 0.1 0.1 0.2 0.1 0 0.1 0zm0.6-1.3q0 0-0.1-0.1 0 0 0 0.1 0 0 0 0 0.1 0 0.1 0zm0.4 1.6q-0.1-0.1-0.2-0.1-0.1-0.1-0.2-0.2c-0.1 0.2 0.1 0.3 0.1 0.4 0.2 0.1 0.3 0.1 0.3-0.1z"/>
	<path fill-rule="evenodd" class="s0" d="m72.8 24.1q0.1 0.4-0.2 0.5-0.3 0.2-0.6-0.1c-0.1-0.1 0.1-0.1 0.1-0.1q0-0.1-0.1-0.2-0.1 0.1-0.2 0.2 0-0.1-0.1-0.3-0.1-0.2-0.2-0.5 0 0 0 0 0 0 0 0 0.1 0 0.1 0c0.1-0.1 0.1-0.1 0-0.2q-0.1 0.1-0.1 0.2 0 0 0 0c0 0 0-0.1 0-0.1 0-0.1 0-0.1-0.1-0.2 0 0 0-0.1 0-0.1-0.2 0-0.2-0.2-0.3-0.3-0.1-0.1-0.1-0.3-0.1-0.4q-0.1 0-0.1 0-0.1 0-0.2-0.1-0.1 0-0.1-0.1 0 0 0 0 0 0 0 0-0.3-0.2-0.6-0.4 0 0-0.1-0.1c0-0.2-0.1-0.4-0.1-0.6q0-0.1 0-0.1 0.2-0.1 0.5-0.2c-0.1 0.2-0.1 0.3-0.2 0.4h-0.1q-0.1 0.1 0.1 0.3c0-0.1 0.1-0.2 0.2-0.1 0.1-0.1 0-0.4 0.3-0.4q-0.1-0.1-0.1-0.2c0.1-0.1 0.2 0 0.3 0-0.1 0.1-0.1 0.1 0.1 0.1q0 0 0 0v0.1c0.1 0.1 0.2 0.1 0.2-0.1h-0.2q0 0 0 0 0 0 0.1-0.1-0.1 0-0.2-0.1 0 0 0 0 0.3-0.1 0.6-0.1c0.1-0.1 0.2 0 0.3 0.1 0 0.1 0.1 0.2 0.3 0.2q0-0.1 0.1 0 0.1 0.6 0.3 1.2-0.1 0-0.2 0 0 0.1 0.2 0.1 0 0.1 0 0.1 0.2 0.9 0.4 1.7zm-2.2-1.8q0.1-0.1 0.2-0.1-0.1-0.2-0.2-0.1-0.1 0.1 0 0.2zm-0.1-1q0.1 0 0.1 0 0 0 0 0h-0.1q0 0 0 0zm0.3 0.2q-0.1-0.1-0.1-0.1-0.1 0-0.2 0c0 0.2 0.1 0.2 0.3 0.1zm0.2 0.3q0-0.1 0-0.1-0.1 0-0.2 0 0 0.1 0 0.1 0.1 0 0.2 0zm1.4 1.9c-0.2 0.1-0.2 0.1-0.2 0.2 0.1 0 0.2-0.1 0.2-0.2zm-0.2-1.3q0 0.1 0.1 0.1c0 0 0-0.1 0-0.1q0 0 0 0 0 0-0.1 0zm-0.7-1q0.1 0.1 0.1 0.2c0.1-0.1 0.2 0.1 0.3-0.1q0-0.1-0.1-0.1c0-0.1-0.1-0.1-0.1-0.1-0.1 0-0.2 0-0.2 0.1zm0-0.2q0 0 0 0 0 0 0.1-0.1-0.1 0-0.1 0 0 0.1 0 0.1zm-0.3-0.3q0.1 0 0.1 0 0 0 0.1 0-0.1 0-0.1-0.1 0 0-0.1 0.1zm-0.1 0.5q0-0.1 0-0.1-0.1 0-0.1 0.1 0 0 0.1 0.1 0-0.1 0-0.1zm0.2 0.8c0.1 0.1 0.2 0 0.2-0.1 0-0.1 0-0.1-0.1-0.1 0 0-0.2 0.1-0.2 0.1 0 0.1 0.1 0.1 0.1 0.1zm0.1 0.5q-0.1 0-0.1 0.1 0 0.1 0.1 0.2c0.1 0 0.1-0.1 0.2-0.2 0 0-0.1-0.1-0.2-0.1zm0.2-0.6c0.3 0.1 0.4 0 0.4-0.2-0.3 0-0.3-0.1-0.3-0.3q-0.1 0.1-0.1 0.1 0 0.2 0 0.4zm0.2 0.2q-0.1-0.1-0.2 0 0 0.2 0.2 0.1c0 0 0 0 0-0.1zm0.3 1.4q-0.1 0-0.2 0.1 0.1-0.1 0.2-0.1zm0.2-0.4q0-0.1 0-0.2-0.1 0-0.3 0 0-0.1 0-0.2-0.2 0.1-0.2 0.2c0 0.1 0.1 0.1 0.2 0.1q0 0.3 0.3 0.1zm0.2 1.2q0-0.1-0.1-0.2 0 0.1 0 0.2-0.1-0.1-0.2-0.1c-0.1 0.1 0 0.1 0 0.3q0.2-0.1 0.3-0.2zm0-0.6q0 0 0 0-0.1 0.2-0.1 0.3 0.1 0.1 0.2 0.2c0.1-0.2 0-0.4-0.1-0.5z"/>
	<path class="s0" d="m77.7 31.6q0.1 0.1 0.1 0.2 0 0 0.1-0.1c-0.1 0 0-0.2-0.2-0.1z"/>
	<path class="s0" d="m77.8 31.8z"/>
	<path class="s0" d="m78.2 30.1c0.1 0.1 0.1 0.1 0.2 0.1-0.1-0.1-0.1-0.1-0.2-0.1z"/>
	<path class="s0" d="m78.4 30.2z"/>
	<path class="s0" d="m78.4 30.2z"/>
</svg>