<svg width="82" height="60" viewBox="0 0 82 60" fill="none" xmlns="http://www.w3.org/2000/svg">
<path d="M79.9154 28.372H81.0001V26.3485V24.3249H75.9394H70.8787V26.3485V28.372H71.9633H73.3443H73.64V28.6677V32.5883V36.2133H75.9394H78.2388V32.5883V28.6677V28.372H78.5345H79.9154Z" fill="white" stroke="black"/>
<path d="M69.9204 29.474C69.9204 30.0814 69.9979 30.5563 70.1966 31.1416C70.3734 31.6607 70.4728 32.246 70.4834 32.7209L70.5059 33.4719L70.5828 32.8093C70.6271 32.4448 70.7046 31.4951 70.7484 30.6889C70.8259 29.2641 70.8146 29.22 70.6053 29.22C70.4834 29.22 70.2735 29.0874 70.1522 28.9328L69.9204 28.6346V29.474Z" fill="#D82D2E"/>
<path d="M68.3304 28.9438C68.606 29.1537 68.7059 29.1537 68.7059 28.9438C68.7059 28.8334 68.5953 28.7782 68.4073 28.7782C68.1204 28.7782 68.1204 28.7892 68.3304 28.9438Z" fill="#D82D2E"/>
<path d="M38.5992 0.0636182C34.8001 0.405984 31.4758 1.34473 28.0079 3.04552C20.2661 6.85574 14.6446 13.7141 12.4358 22.0634L12.0603 23.4771H12.48H12.8886L13.1758 22.3395C14.8655 15.6799 19.239 9.53945 25.0813 5.64087C28.8473 3.12282 32.8453 1.62083 37.4506 0.991321C39.306 0.726262 42.8512 0.726262 44.7397 0.991321C51.2115 1.8638 56.9544 4.69108 61.5159 9.2302C65.7563 13.449 68.6282 19.0263 69.5887 24.9128C69.6661 25.3655 69.7874 25.9067 69.8649 26.1276C69.9867 26.481 70.0086 26.3595 70.0529 24.9128C70.1079 23.4108 70.086 23.234 69.7874 22.0413C69.0807 19.2582 67.5347 15.7904 65.8888 13.3165C61.1622 6.20413 53.8289 1.53248 45.4023 0.2845C43.7126 0.0304857 40.1895 -0.0799551 38.5992 0.0636182Z" fill="#D82D2E"/>
<path d="M39.1956 2.06256C36.7438 2.22822 33.8834 2.8246 31.6415 3.6529C28.9357 4.64686 25.6114 6.5575 23.4357 8.3687C19.1286 11.9691 15.9258 16.9279 14.479 22.2511C14.3023 22.8917 14.1698 23.4328 14.1808 23.4439C14.2139 23.4659 16.7209 23.4991 18.5211 23.4881L20.0783 23.477L20.4317 22.4499C22.254 17.1377 26.4286 12.444 31.52 9.95906C43.2708 4.24928 57.3852 10.0364 61.7477 22.3505C62.0239 23.1346 62.1564 23.3666 62.2776 23.3113C62.3663 23.2782 62.885 23.2009 63.4261 23.1457C65.0164 22.98 66.8279 23.2672 67.7996 23.8194L68.1639 24.0292L68.087 23.6095C67.7996 21.975 66.8392 19.3134 65.8119 17.2481C63.7573 13.1287 60.6211 9.51727 56.833 6.88881C53.5308 4.60269 49.5881 3.01235 45.5018 2.32761C44.5299 2.173 41.4375 1.93003 40.7639 1.96316C40.6093 1.96316 39.9024 2.00734 39.1956 2.06256ZM41.6253 4.74626C41.8241 5.24325 41.9787 5.69605 41.9787 5.74023C41.9787 5.77336 41.7578 5.8065 41.4928 5.8065C41.1615 5.8065 40.9847 5.75127 40.9406 5.64083C40.8633 5.431 40.5871 5.41995 40.4657 5.62979C40.4104 5.72919 40.0239 5.79545 39.295 5.85067C38.2569 5.91694 38.2016 5.90589 38.1464 5.69605C38.0691 5.38682 37.9145 5.41995 37.9697 5.74023C38.0139 5.97218 37.9807 6.0053 37.5721 6.04948C37.042 6.09366 37.053 6.10466 36.9426 4.96714L36.8763 4.18301L37.4065 4.09466C37.7267 4.05049 37.9587 4.06153 37.9807 4.12779C37.9918 4.18301 38.0691 4.31554 38.1464 4.41494C38.2789 4.59164 38.29 4.56956 38.2789 4.29345C38.2789 4.01735 38.3231 3.98422 38.6876 3.95109C39.1293 3.91796 39.1293 3.90691 39.284 5.12176C39.3613 5.79545 39.4275 5.77336 39.7147 4.92297C40.1122 3.73021 40.0349 3.81856 40.6866 3.81856H41.2829L41.6253 4.74626ZM43.9446 3.98422C44.0108 4.01735 44.0771 4.18301 44.0771 4.35972C44.0771 4.63582 44.0329 4.69104 43.7789 4.72417C43.4917 4.75731 43.4697 4.79044 43.4365 5.35369C43.4034 5.89485 43.3813 5.939 43.1604 5.87276C43.0279 5.83963 42.807 5.8065 42.6745 5.8065C42.4426 5.8065 42.4205 5.75127 42.4205 5.19907C42.4205 4.66895 42.3984 4.59164 42.1996 4.59164C42.0229 4.59164 41.9787 4.51434 41.9787 4.21615V3.84065L42.8954 3.89587C43.3923 3.91796 43.8672 3.96213 43.9446 3.98422ZM45.2809 4.21615C45.3251 4.26032 45.0932 5.90589 45.0269 6.01636C44.9937 6.06048 44.7729 6.07154 44.5299 6.04948C44.0108 5.99424 44.0108 5.99424 44.2096 4.80148L44.3311 4.0284L44.7839 4.10571C45.0379 4.13884 45.2588 4.19406 45.2809 4.21615ZM36.3241 4.54747C36.5892 4.72417 36.6444 5.13281 36.4346 5.34264C36.3352 5.44204 36.3683 5.54144 36.6113 5.79545C36.8874 6.0826 36.8985 6.12678 36.7107 6.17095C36.0149 6.36973 35.8824 6.36973 35.7278 6.17095C35.5732 5.98318 35.5732 5.98318 35.5952 6.18201C35.6173 6.34767 35.529 6.42496 35.2087 6.50226C34.9768 6.5575 34.7559 6.57956 34.7228 6.54644C34.6675 6.4802 34.2479 4.77939 34.281 4.74626C34.3252 4.70209 35.7499 4.39285 35.9045 4.38181C36.0039 4.37076 36.1916 4.44807 36.3241 4.54747ZM47.1694 4.54747C47.6885 4.75731 47.832 4.96714 47.832 5.53039C47.832 6.09366 47.4345 6.46914 46.8381 6.46914C45.6343 6.46914 44.9827 5.431 45.7227 4.69104C46.0981 4.31554 46.4957 4.28241 47.1694 4.54747ZM34.0712 5.32055C34.1043 5.49726 34.1484 5.71814 34.1926 5.81754C34.2479 5.96112 34.1706 6.03842 33.8613 6.13783C33.3422 6.31455 33.4195 6.39185 33.9497 6.22619C34.4025 6.0826 34.4135 6.09366 34.5129 6.43602C34.5792 6.64586 34.5019 6.70103 33.7288 6.95511C33.2539 7.1097 32.8342 7.24224 32.79 7.24224C32.7127 7.24224 32.1053 5.48622 32.1605 5.431C32.3151 5.30951 33.8834 4.8567 33.9497 4.92297C33.9939 4.9561 34.0491 5.14385 34.0712 5.32055ZM49.2126 5.14385C49.4113 5.22116 49.4886 5.3316 49.4997 5.55248C49.5218 5.81754 49.5218 5.82858 49.566 5.6077C49.6212 5.3316 49.7427 5.30951 50.2397 5.48622L50.571 5.59666L50.3059 6.39185C50.1624 6.83357 50.0188 7.25329 49.9857 7.31953C49.9525 7.42995 49.809 7.41895 49.4113 7.26429C48.9254 7.08758 48.8813 7.0434 48.9033 6.74521L48.9364 6.41391L48.804 6.69004C48.7266 6.84463 48.6604 6.97716 48.6604 6.99922C48.6493 7.01028 48.4505 6.94405 48.2296 6.85569C47.7547 6.65692 47.7547 6.6348 48.1744 5.51935C48.4284 4.8567 48.4395 4.8567 49.2126 5.14385ZM32.0169 5.86172C32.1826 6.22619 32.1826 6.24825 31.9949 6.24825C31.7078 6.24825 31.6856 6.45808 31.9286 6.97716C32.0501 7.26429 32.1384 7.50731 32.1274 7.51831C32.0611 7.5846 31.2329 7.90485 31.2218 7.88279C30.78 6.88881 30.7138 6.78939 30.4929 6.91093C30.3162 7.01028 30.2499 6.97717 30.1063 6.69004L29.9296 6.35873L30.5702 6.0826C30.9236 5.928 31.3101 5.76232 31.4316 5.7071C31.7851 5.54144 31.8844 5.56353 32.0169 5.86172ZM52.095 6.27037L52.6031 6.52438L52.5258 7.35265C52.4154 8.62271 52.4264 8.61171 51.9073 8.34664C51.6754 8.22516 51.4766 8.04845 51.4766 7.97115C51.4766 7.77232 51.1342 7.63978 51.0348 7.79444C50.9465 7.93797 50.1292 7.5956 50.1734 7.44101C50.2176 7.30847 51.4103 6.06048 51.4987 6.03842C51.5428 6.03842 51.8079 6.13783 52.095 6.27037ZM30.1726 7.30847C30.6696 8.2141 30.6696 8.16992 30.018 8.52335C29.7308 8.67794 29.6756 8.67794 29.51 8.52335C29.2891 8.31352 29.0572 8.28034 29.2559 8.47917C29.3332 8.55647 29.3885 8.66688 29.3885 8.73318C29.3885 8.89884 28.7258 9.27432 28.6154 9.16391C28.4718 9.00925 27.6988 7.56248 27.7429 7.52937C27.765 7.50731 27.9859 7.38577 28.2399 7.26429L28.6927 7.0324L28.9246 7.27535C29.0572 7.40789 29.1676 7.45207 29.1676 7.38577C29.1676 7.30847 29.1234 7.22012 29.0572 7.187C28.7921 7.02134 29.0903 6.69004 29.6867 6.4802C29.6977 6.46914 29.9186 6.84463 30.1726 7.30847ZM53.8952 7.20912C54.083 7.31953 54.2376 7.44101 54.2376 7.49625C54.2376 7.54042 54.1051 7.78338 53.9505 8.03739C53.7627 8.32452 53.6965 8.51229 53.7738 8.54541C53.8511 8.56753 54.0057 8.66689 54.1382 8.77736C54.337 8.94301 54.3481 8.99825 54.2266 9.26326C54.1493 9.42898 54.0609 9.55045 54.0278 9.53939C53.6854 9.37374 52.4706 8.64483 52.4706 8.60065C52.4706 8.46811 53.3762 7.02134 53.4645 7.02134C53.5087 7.02134 53.7075 7.1097 53.8952 7.20912ZM27.8975 8.58959L28.4276 9.3848L28.1074 9.63881C27.9306 9.78235 27.7208 9.88176 27.6325 9.8707C27.5441 9.84864 27.257 9.50627 27.003 9.09761L26.517 8.34664L26.9367 8.07051C27.1576 7.91591 27.3453 7.79444 27.3564 7.79444C27.3674 7.79444 27.6104 8.14786 27.8975 8.58959ZM57.0318 9.32956C57.3742 9.59463 57.6613 9.83758 57.6613 9.88176C57.6613 9.92594 57.584 10.0695 57.4846 10.202C57.3189 10.445 57.2968 10.445 57.098 10.2683C56.8993 10.0916 56.8771 10.0916 56.6784 10.3456C56.5679 10.4892 56.3802 10.7211 56.2697 10.8536L56.0599 11.0966L55.6844 10.7763L55.3089 10.456L55.6733 10.0032C56.0157 9.57251 56.0267 9.53939 55.839 9.34062C55.6623 9.14179 55.6623 9.11973 55.8611 8.86572C56.0157 8.64483 56.093 8.62271 56.2256 8.72212C56.3249 8.78842 56.6784 9.06449 57.0318 9.32956ZM25.6777 9.41792C25.8764 9.69399 25.8764 9.71611 25.6997 9.84864C25.4789 10.0032 25.5673 10.2462 25.9537 10.5996C26.274 10.8867 26.2409 11.0193 25.8323 11.3285L25.4789 11.5825L25.0813 11.1298C24.7058 10.688 24.6837 10.6769 24.496 10.8536C24.3082 11.0414 24.2861 11.0414 24.0873 10.7763C23.9658 10.6217 23.8775 10.4781 23.8775 10.445C23.8885 10.3787 25.3353 9.13073 25.4126 9.13073C25.4457 9.13073 25.5673 9.25226 25.6777 9.41792ZM58.6221 10.688C59.0749 11.1408 59.2075 11.3396 59.2075 11.6046C59.2075 12.0133 59.0308 12.212 58.6884 12.212C58.5448 12.212 58.4344 12.2783 58.4344 12.3446C58.4344 12.4219 58.4012 12.5986 58.3681 12.7311L58.3018 12.9851L59.0528 12.698C60.2124 12.2452 60.2124 12.2452 60.6211 12.7532L60.9854 13.206L60.6873 13.7251C60.5217 14.0233 60.2899 14.4098 60.1793 14.6086L59.9693 14.962L59.6381 14.5866C59.4504 14.3767 59.3289 14.1558 59.3731 14.0895C59.4615 13.9349 59.2185 13.6257 59.0749 13.714C59.0197 13.7472 58.6442 13.449 58.2466 13.0514C57.7055 12.4992 57.5398 12.2562 57.584 12.0906C57.6392 11.9028 57.6171 11.8918 57.4846 12.0022C57.341 12.1127 57.2526 12.0795 56.9655 11.7924L56.6231 11.45L57.2306 10.7874C57.5619 10.434 57.8711 10.1358 57.9374 10.1247C57.9926 10.1247 58.3018 10.3677 58.6221 10.688ZM24.0431 11.0524C24.0652 11.1076 23.9106 11.2844 23.7008 11.4389C23.4909 11.5936 23.3142 11.7593 23.3142 11.8034C23.3142 11.8587 23.4468 11.7924 23.6235 11.682C24.1094 11.3285 24.5733 11.3175 24.75 11.6598C24.9156 11.9801 24.6064 12.5986 24.0984 12.941C23.6787 13.2281 23.4689 13.2613 23.2038 13.0956C23.0713 13.0183 23.0823 12.9631 23.259 12.7532C23.3805 12.6207 23.5903 12.4771 23.7339 12.4219C23.8664 12.3667 23.9769 12.2783 23.9769 12.212C23.9769 12.0795 23.8775 12.1237 23.4026 12.4661C23.0271 12.7422 22.5743 12.6538 22.4749 12.2673C22.3865 11.936 22.7731 11.2844 23.1817 11.0524C23.502 10.8757 23.9989 10.8757 24.0431 11.0524ZM22.6405 13.1066L23.5351 13.449L23.2369 13.8245C23.0823 14.0343 22.8835 14.1889 22.8062 14.1558C22.6295 14.0895 22.3865 14.3767 22.4638 14.5644C22.497 14.6417 22.3865 14.8737 22.2209 15.0725L21.9116 15.4479L21.4036 14.5976C21.1165 14.1337 20.8845 13.7251 20.8845 13.692C20.8845 13.5926 21.5803 12.7642 21.6687 12.7642C21.7129 12.7642 22.1546 12.9189 22.6405 13.1066ZM62.1782 14.7411C62.6088 15.4148 62.6313 15.9781 62.2445 16.3536C61.9133 16.6849 61.4384 16.707 61.0628 16.4088C60.7535 16.1659 60.0356 15.1056 60.113 15.0172C60.1462 14.9952 60.4886 14.7522 60.8754 14.4761C61.659 13.9349 61.659 13.9349 62.1782 14.7411ZM20.7078 14.4761C20.9177 14.6307 20.9066 14.719 20.5974 15.1939C20.4538 15.4148 20.4649 15.4148 20.6968 15.1498C20.9287 14.8847 20.995 14.8626 21.2048 14.962C21.4809 15.1166 21.492 15.1829 21.249 15.5142C21.0834 15.7572 21.0834 15.7903 21.2711 15.9228C21.4478 16.0554 21.4478 16.0885 21.2159 16.453C21.0834 16.6739 20.9508 16.8505 20.9287 16.8505C20.8625 16.8505 19.3384 15.8345 19.3384 15.7903C19.3384 15.702 20.3544 14.3104 20.4207 14.3104C20.4649 14.3104 20.5863 14.3877 20.7078 14.4761ZM20.0894 16.6959C20.4759 16.9168 20.7741 17.1267 20.752 17.1598C20.2992 18.0765 20.2992 18.0765 19.9458 18.0102C19.6476 17.955 19.6366 17.955 19.8354 18.0765C19.9568 18.1538 20.0673 18.22 20.0894 18.2421C20.1225 18.2642 19.8132 18.9379 19.7139 19.0483C19.6586 19.1146 18.002 18.1538 18.0352 18.0875C18.499 17.1598 18.488 17.1708 18.8414 17.2371C19.1396 17.2923 19.1506 17.2923 18.9519 17.1708C18.8304 17.0935 18.7199 17.0272 18.6978 17.0162C18.6757 17.0052 18.753 16.8064 18.8635 16.5855C19.0733 16.1327 19.0623 16.1217 20.0894 16.6959ZM63.3824 16.6186L63.6248 17.0494L62.8081 17.5463L61.9908 18.0543L61.7033 17.6126L61.4165 17.1819L61.8252 16.9279C62.6419 16.4309 63.0175 16.21 63.0837 16.199C63.1168 16.1879 63.2493 16.3867 63.3824 16.6186ZM64.1222 17.955L64.3209 18.3967L64.056 18.6949L63.791 18.982L64.0997 18.7833C64.2653 18.6728 64.4203 18.6066 64.4422 18.6287C64.5415 18.7391 64.8508 19.4128 64.8177 19.4459C64.6521 19.5895 63.1499 20.2742 63.0837 20.23C63.0399 20.1969 62.9075 19.965 62.7969 19.722L62.5869 19.2582L62.8631 19.0373C63.1062 18.8274 63.0506 18.8274 62.5981 19.0042C62.5207 19.0373 62.4101 18.9379 62.3438 18.7612C62.2776 18.5845 62.2114 18.4078 62.1782 18.3525C62.1339 18.2421 63.7354 17.3917 63.8573 17.469C63.8904 17.4801 64.0116 17.701 64.1222 17.955ZM18.7088 18.9047C19.1396 19.1256 19.5151 19.3244 19.5372 19.3355C19.5592 19.3576 19.4819 19.5674 19.3715 19.8214L19.1727 20.2632L18.3555 19.8766C17.9026 19.6668 17.5051 19.468 17.4719 19.4459C17.4277 19.3907 17.7922 18.5072 17.8695 18.5072C17.8916 18.5072 18.2671 18.6838 18.7088 18.9047ZM18.1788 20.1638C18.6095 20.4178 18.9629 20.6387 18.9739 20.6497C18.996 20.6718 18.9187 20.8816 18.8193 21.1467C18.6537 21.5774 18.6205 21.5995 18.3002 21.5443L17.9579 21.478L18.2671 21.6547C18.5101 21.7983 18.5653 21.8866 18.499 22.0744C18.3002 22.726 18.2339 22.8254 18.0352 22.7702C17.9357 22.7481 17.483 22.6818 17.0522 22.6487C16.6105 22.6045 16.246 22.5604 16.246 22.5382C16.246 22.5272 16.3233 22.3284 16.4117 22.1075C16.5773 21.732 16.6215 21.6989 16.9418 21.7541L17.2952 21.8093L16.997 21.6879C16.6657 21.5443 16.6326 21.4338 16.7982 20.9921C16.8866 20.7602 16.9529 20.716 17.2069 20.7712C17.483 20.8375 17.494 20.8264 17.2952 20.7049C17.1737 20.6276 17.0633 20.5613 17.0412 20.5393C16.9749 20.4951 17.2731 19.6226 17.3394 19.6558C17.3725 19.6778 17.7591 19.9098 18.1788 20.1638ZM64.9395 20.23C65.2376 20.4399 65.6019 21.2019 65.6132 21.6106C65.6132 21.7652 65.5138 21.986 65.392 22.0965C65.182 22.2842 65.1714 22.2842 65.0608 21.975C64.9833 21.7983 64.9064 21.5222 64.8733 21.3455C64.8289 21.1246 64.7515 21.0473 64.564 21.0473C64.2103 21.0473 64.0116 21.3124 64.1772 21.5664C64.2766 21.732 64.299 21.732 64.2435 21.5774C64.1991 21.4117 64.3653 21.2682 64.619 21.2682C64.6852 21.2682 65.0608 22.1628 65.0608 22.3174C65.0608 22.3284 64.8508 22.4057 64.6078 22.483C64.166 22.6377 64.1441 22.6266 63.8904 22.3395C63.6248 22.0302 63.4042 21.4007 63.4042 20.9589C63.4042 20.8154 63.548 20.5503 63.7242 20.3736C64.0997 20.0091 64.5415 19.954 64.9395 20.23Z" fill="#D82D2E"/>
<path d="M35.3523 5.1439C35.3523 5.19912 35.4075 5.25434 35.4627 5.25434C35.529 5.25434 35.5732 5.19912 35.5732 5.1439C35.5732 5.07763 35.529 5.03345 35.4627 5.03345C35.4075 5.03345 35.3523 5.07763 35.3523 5.1439Z" fill="#D82D2E"/>
<path d="M46.4849 5.30954C46.3854 5.53043 46.3854 5.61878 46.4959 5.72922C46.5953 5.82862 46.6505 5.82862 46.7278 5.69609C46.8714 5.47521 46.8714 5.17701 46.7278 5.08866C46.6726 5.05553 46.5622 5.14388 46.4849 5.30954Z" fill="#D82D2E"/>
<path d="M33.4197 5.69609C33.3865 5.76235 33.4307 5.7734 33.5191 5.74027C33.7179 5.66296 33.751 5.58565 33.5964 5.58565C33.5301 5.58565 33.4528 5.62983 33.4197 5.69609Z" fill="#D82D2E"/>
<path d="M58.1584 11.3285C58.1915 11.3838 58.2467 11.439 58.2799 11.439C58.3019 11.439 58.3241 11.3838 58.3241 11.3285C58.3241 11.2623 58.2688 11.2181 58.2025 11.2181C58.1474 11.2181 58.1252 11.2623 58.1584 11.3285Z" fill="#D82D2E"/>
<path d="M21.9338 13.8687C21.9669 13.9239 22.0221 13.9792 22.0553 13.9792C22.0773 13.9792 22.0994 13.9239 22.0994 13.8687C22.0994 13.8025 22.0442 13.7583 21.978 13.7583C21.9227 13.7583 21.9007 13.8025 21.9338 13.8687Z" fill="#D82D2E"/>
<path d="M61.3722 15.3597C61.2066 15.4811 61.1842 15.5584 61.2835 15.6578C61.4272 15.8014 61.7478 15.5916 61.7478 15.3486C61.7478 15.1498 61.6372 15.1609 61.3722 15.3597Z" fill="#D82D2E"/>
<path d="M38.9971 12.179C37.1527 12.4109 34.8887 13.1067 33.2542 13.9239C32.2602 14.4209 30.5705 15.5253 29.9851 16.0444C29.6649 16.3426 29.6538 16.3868 29.698 17.0384L29.7422 17.712L30.1177 17.4912C30.6478 17.1819 32.0835 17.2371 32.5695 17.5906L32.8897 17.8335L33.4309 17.5575C33.9168 17.3144 34.0715 17.2813 34.9108 17.3255C35.4299 17.3586 36.8214 17.3807 38.0142 17.3807C40.5212 17.3917 40.5654 17.4139 40.3555 18.209C40.2782 18.463 40.1899 18.7612 40.1568 18.8606C40.1015 19.0042 40.1346 19.0594 40.2562 19.0594C40.3887 19.0594 40.4328 19.1699 40.4328 19.5564C40.4328 20.0865 40.6979 20.716 41.0955 21.1247C41.7581 21.8315 43.0172 22.0303 43.9449 21.5885C44.4639 21.3345 45.0493 20.6276 45.1487 20.1307C45.1929 19.9319 45.2591 19.8436 45.3585 19.8767C45.491 19.9208 45.5131 19.5895 45.5131 18.0102C45.5131 16.2211 45.5242 16.0775 45.7229 15.9671C45.8445 15.9119 46.6727 15.8566 47.6115 15.8566C48.5502 15.8566 49.3786 15.9119 49.5 15.9671C49.6657 16.0554 49.7099 16.21 49.7099 16.6297V17.1819H51.6094H53.498L53.2881 16.95C52.9458 16.5745 51.4769 15.4149 50.6928 14.9069C49.6326 14.2111 47.9207 13.3938 46.7611 12.9962C44.8505 12.3667 43.7903 12.19 41.4821 12.1569C40.3335 12.1348 39.2069 12.1458 38.9971 12.179ZM43.989 17.6126C45.0603 18.3526 45.2922 19.8656 44.486 20.7934C43.4037 22.0303 41.5373 21.7873 40.8636 20.3295C40.3666 19.2582 40.8084 18.0765 41.9238 17.4691C42.4097 17.204 43.4921 17.2813 43.989 17.6126Z" fill="#D82D2E"/>
<path d="M42.1998 18.5514C42.1336 18.6397 42.0894 18.8606 42.1004 19.0263C42.1225 19.1919 42.0452 19.4681 41.9347 19.6337C41.7139 19.9761 41.7691 20.3295 42.0783 20.4951C42.1887 20.5504 42.6085 20.5835 43.0171 20.5725C43.5803 20.5504 43.746 20.5172 43.757 20.3847C43.757 20.2963 43.768 20.0534 43.7791 19.8546C43.8012 19.5564 43.757 19.5012 43.5582 19.5012C43.4257 19.5012 43.3042 19.5674 43.2711 19.6337C43.238 19.7441 43.1938 19.7441 43.0833 19.6447C42.984 19.5564 43.006 19.4681 43.1827 19.2914C43.4589 19.0152 43.4809 18.8054 43.238 18.5735C43.0281 18.3526 42.3765 18.3415 42.1998 18.5514ZM42.8625 18.8827C42.8625 18.971 42.8183 19.0705 42.7631 19.1146C42.6305 19.1919 42.498 18.9821 42.5863 18.8385C42.6858 18.6729 42.8625 18.706 42.8625 18.8827ZM42.6416 20.0976C42.5532 20.1859 42.498 20.1749 42.4207 20.0534C42.2882 19.8325 42.4096 19.6889 42.5974 19.8436C42.7189 19.9429 42.7299 20.0092 42.6416 20.0976Z" fill="#D82D2E"/>
<path d="M45.9548 18.5624V20.716H46.7832H47.6114V20.1086V19.5012H48.3293H49.0472V18.8385V18.1759H48.3293C47.7661 18.1759 47.6114 18.1428 47.6114 18.0102C47.6114 17.8777 47.7771 17.8446 48.4398 17.8446H49.2681V17.1267V16.4088H47.6114H45.9548V18.5624Z" fill="#D82D2E"/>
<path d="M26.0753 16.685C26.0753 16.7181 26.0642 17.6458 26.0642 18.7502V20.7712L27.6766 20.8044L29.2781 20.8375V20.219V19.6116H28.4497C27.6877 19.6116 27.6215 19.5895 27.6215 19.3797C27.6215 19.1698 27.6766 19.1588 28.3172 19.1809L29.0019 19.214L29.035 18.6949L29.0682 18.1759H28.3503C27.776 18.1759 27.6215 18.1427 27.6215 18.0102C27.6215 17.8777 27.776 17.8445 28.3945 17.8445H29.1676V17.2372V16.6297H27.6215C26.771 16.6297 26.0753 16.6518 26.0753 16.685Z" fill="#D82D2E"/>
<path d="M55.2649 17.6789C55.066 17.7673 54.9004 17.8888 54.9004 17.955C54.9004 18.0102 54.8562 18.0655 54.801 18.0655C54.7458 18.0655 54.7237 17.9661 54.7568 17.8446C54.812 17.6458 54.7568 17.6237 54.1494 17.6237H53.4757L53.4425 19.1699L53.4094 20.716H54.1494H54.8893L54.9225 19.7441C54.9445 18.9821 54.9887 18.7833 55.1213 18.7833C55.2538 18.7833 55.298 18.9821 55.32 19.7441L55.3532 20.716H56.1152H56.8883V19.5674C56.8883 18.1759 56.8 17.8888 56.2809 17.6789C55.8171 17.4801 55.7176 17.4801 55.2649 17.6789Z" fill="#D82D2E"/>
<path d="M49.4888 18.9048C49.4888 20.1638 49.4888 20.1859 49.8091 20.5062C50.2066 20.8927 50.803 20.9369 51.3442 20.6056L51.6976 20.3847V20.6277C51.6976 20.8375 51.7418 20.8485 52.3161 20.7934C52.6584 20.7602 52.9456 20.7161 52.9566 20.6939C52.9677 20.6719 52.9566 19.9761 52.9345 19.1368L52.8903 17.6237H52.1835H51.4877L51.4546 18.5845C51.4215 19.4018 51.3884 19.5564 51.2337 19.5895C51.057 19.6227 51.035 19.5232 51.035 18.6287V17.6237H50.2619H49.4888V18.9048Z" fill="#D82D2E"/>
<path d="M30.3051 17.8998C30.1174 17.9771 29.9076 18.1428 29.8413 18.2753C29.5983 18.7281 29.6646 18.7612 30.6033 18.695C31.3322 18.6397 31.4869 18.6508 31.4869 18.7833C31.4869 18.949 31.3322 19.0042 30.5481 19.1036C29.7419 19.2141 29.3222 20.0976 29.8302 20.6056C30.1395 20.9148 30.9126 20.9038 31.3102 20.5945L31.5973 20.3737V20.6056C31.5973 20.8265 31.6415 20.8375 32.2157 20.8044L32.8453 20.7712L32.8232 19.6668C32.8011 18.4188 32.6796 18.1428 32.0943 17.8888C31.6194 17.69 30.769 17.701 30.3051 17.8998ZM31.4427 19.8988C31.3544 20.1307 30.9347 20.0976 30.9347 19.8546C30.9347 19.5895 31.4095 19.3466 31.4648 19.5785C31.4869 19.6668 31.4758 19.8104 31.4427 19.8988Z" fill="#D82D2E"/>
<path d="M33.7179 17.8998C33.3092 18.0765 33.0994 18.4961 33.243 18.8717C33.3755 19.2251 33.5522 19.3465 34.248 19.5785C34.6234 19.7 34.8554 19.8436 34.8554 19.9429C34.8554 20.0534 34.767 20.0976 34.5793 20.0754C33.7289 19.965 33.1436 19.9319 33.1436 19.9981C33.1436 20.219 33.4307 20.5283 33.751 20.6718C34.1375 20.8265 35.1978 20.8596 35.6727 20.7271C36.0703 20.6166 36.3905 20.1307 36.3022 19.7883C36.2027 19.3797 35.8936 19.1478 35.2088 18.949C34.8554 18.8385 34.6345 18.706 34.6345 18.6176C34.6345 18.5072 34.7229 18.463 34.9106 18.4851C36.3243 18.6618 36.3795 18.6508 36.1254 18.1759C35.8936 17.7452 34.4578 17.5795 33.7179 17.8998Z" fill="#D82D2E"/>
<path d="M36.5232 18.0875C36.5563 18.2311 36.733 18.7392 36.9097 19.2141C37.0864 19.7 37.2299 20.1417 37.2299 20.1859C37.2299 20.2412 37.0864 20.3405 36.9207 20.4178C36.6225 20.5393 36.6225 20.5725 36.7109 21.0363L36.8103 21.5112L37.484 21.4339C38.2571 21.3566 38.6988 21.1467 38.9418 20.7823C39.0412 20.6387 39.3062 19.9098 39.5382 19.1809L39.9689 17.8335L39.2289 17.8666L38.5 17.8998L38.4116 18.695C38.3565 19.1367 38.2792 19.5012 38.2239 19.5012C38.1798 19.5012 38.1025 19.203 38.0693 18.8275C37.9478 17.8335 37.9699 17.8446 37.1527 17.8446C36.4679 17.8446 36.4459 17.8556 36.5232 18.0875Z" fill="#D82D2E"/>
<path d="M48.1414 20.462C48.1194 20.8706 48.0531 21.0142 47.8654 21.1025C47.6445 21.213 47.6555 21.2461 48.2298 21.7431C48.5501 22.0302 49.036 22.5382 49.29 22.8696L49.7649 23.477H52.8904C54.6575 23.477 56.1042 23.5212 56.2147 23.5875C56.3583 23.6537 56.6896 24.6698 57.4405 27.3093C58.0038 29.2972 58.5118 30.976 58.5671 31.0311C58.6885 31.1858 58.6775 29.2972 58.5339 27.7952C58.3462 25.7632 57.6173 23.212 56.8 21.7762L56.5018 21.2461L53.1555 21.224L49.7981 21.213L49.4225 20.8044C49.2127 20.5725 49.0471 20.2853 49.0471 20.1638C49.0471 19.9761 48.9698 19.9429 48.6163 19.9429H48.1746L48.1414 20.462Z" fill="#D82D2E"/>
<path d="M33.2097 21.1467C33.1655 21.213 31.7077 21.2572 29.4215 21.2572C26.0089 21.2683 25.6887 21.2793 25.5782 21.456C25.523 21.5664 25.291 22.0524 25.0702 22.5383L24.6726 23.4218L27.2569 23.4771C29.3553 23.5212 29.8522 23.5654 29.9406 23.698C30.029 23.8305 30.0621 23.8305 30.2498 23.6648C30.4155 23.5212 30.6695 23.4771 31.4537 23.4771H32.4476L32.9777 22.8144C33.2759 22.45 33.7398 21.964 34.0159 21.7321L34.5129 21.3234L34.1374 21.2572C33.9275 21.2241 33.6403 21.1578 33.5079 21.1136C33.3753 21.0694 33.2428 21.0915 33.2097 21.1467Z" fill="#D82D2E"/>
<path d="M61.1736 32.2767H59.2771L59.3145 32.6944C59.3145 32.6945 59.3145 32.6945 59.3145 32.6945V32.6945C59.3549 33.143 59.5107 33.6549 59.7375 34.123C59.9654 34.5932 60.2522 34.9935 60.5367 35.2342L60.5379 35.2357C61.5734 36.126 62.6569 36.4786 64.5648 36.4895C66.3473 36.4894 67.2409 36.2722 68.1434 35.667V35.667C70.3216 34.2083 70.0448 30.6864 67.6431 29.5437C67.3462 29.4116 66.4017 29.1201 65.5448 28.9113C65.1107 28.811 64.7026 28.7049 64.3933 28.6148C64.2389 28.5699 64.1053 28.5281 64.0047 28.4922C63.9545 28.4744 63.9083 28.4566 63.8699 28.4393C63.8504 28.4308 63.8297 28.4206 63.809 28.409C63.793 28.3999 63.7581 28.3795 63.7256 28.3467C63.6351 28.2564 63.5547 28.1332 63.5452 27.9812C63.5346 27.8189 63.6091 27.686 63.7078 27.5961C63.8847 27.435 64.165 27.3781 64.4424 27.3781C64.647 27.3781 64.8274 27.3908 64.9876 27.4539C65.1603 27.5221 65.2763 27.6352 65.3803 27.7651L65.5122 27.9303H67.5461H69.3771L69.3398 27.621C69.2346 26.7508 68.9684 26.06 68.5438 25.5209C68.1198 24.9826 67.5224 24.5754 66.7205 24.2976L66.7181 24.2969C66.2509 24.131 65.4259 24.0293 64.5524 24.0115C63.683 23.9938 62.8183 24.0604 62.2778 24.2043C60.9631 24.5621 60.128 25.2208 59.6755 26.1954C59.5011 26.5831 59.4483 26.8351 59.4483 27.6186C59.4483 28.8037 59.6817 29.553 60.228 30.0883C60.7898 30.6392 61.7302 31.0132 63.2731 31.3152C64.0964 31.4744 64.66 31.6152 64.9924 31.7734C65.1532 31.8501 65.3182 31.9572 65.4016 32.1252C65.4998 32.3245 65.4436 32.5168 65.3561 32.6568C65.265 32.8023 65.1142 32.8865 64.9859 32.9359C64.8504 32.9884 64.6949 33.0189 64.5417 33.0309C64.2484 33.054 63.8841 33.0143 63.6286 32.8467V32.8467L63.6227 32.8426C63.5245 32.7744 63.4328 32.6854 63.3601 32.5974C63.2944 32.5182 63.23 32.4225 63.1904 32.3251C63.1655 32.3199 63.1253 32.3132 63.0626 32.3071C62.784 32.2799 62.2482 32.2767 61.1736 32.2767Z" fill="white" stroke="black"/>
<path d="M1.00045 24.1287H1.00047L1.00112 24.1309C1.0001 24.1268 0.999558 24.1259 1.00045 24.1287ZM1.05879 24.3516C1.0551 24.3519 1.05148 24.3522 1.04791 24.3525C1.06533 24.4428 1.08784 24.5621 1.11486 24.7071C1.17537 25.0318 1.25898 25.4878 1.35978 26.0415C1.56139 27.149 1.83201 28.6484 2.12467 30.2719L2.12484 30.2728C2.41193 31.896 2.67964 33.3891 2.87969 34.4845C2.97973 35.0323 3.06274 35.4801 3.12275 35.7948C3.15187 35.9474 3.17538 36.0678 3.1927 36.1527C3.26894 36.164 3.38245 36.1746 3.54488 36.1833C3.94437 36.2049 4.5883 36.2133 5.57759 36.2133H7.91868L7.93583 36.1003H7.93571L7.93695 36.0932C7.95014 36.0184 7.9767 35.7079 8.01053 35.2424C8.04359 34.7883 8.08214 34.21 8.12076 33.6196C8.18706 32.4376 8.28665 31.1404 8.33178 30.734C8.33184 30.7338 8.33184 30.7336 8.33184 30.7334L8.40908 30.0166L8.99854 30.0364L9.03166 30.8647H9.03171L9.03183 30.8693C9.04266 31.3135 9.13042 32.7529 9.22984 34.0565C9.22984 34.0566 9.22984 34.0567 9.22984 34.0568L9.39596 36.1581H11.7733H14.1625L15.1373 30.3307L15.1373 30.3305C15.4189 28.6574 15.6756 27.1226 15.8619 25.9965C15.9551 25.4334 16.0306 24.9728 16.0828 24.6484C16.1004 24.5385 16.1154 24.4446 16.1274 24.3677C16.0737 24.3626 16.0078 24.3579 15.9277 24.3535C15.5573 24.3332 14.9438 24.3249 13.9821 24.3249H11.7929V24.4268C11.7929 25.0147 11.5715 28.4877 11.46 29.4712L11.383 30.2966L10.793 30.2776L10.7709 29.5045H10.7709L10.7708 29.4992C10.7654 28.9885 10.7079 27.8306 10.6429 26.7374C10.5777 25.6399 10.5068 24.6399 10.4759 24.4268C10.4758 24.4263 10.4758 24.4259 10.4757 24.4255L10.46 24.3249H8.52635H6.61923L6.56861 25.2275H6.56864L6.56838 25.2313C6.52488 25.8619 6.49176 27.2235 6.49176 28.248C6.49176 28.8305 6.4807 29.301 6.46086 29.6285C6.45102 29.7908 6.4386 29.9256 6.42276 30.0237C6.41521 30.0705 6.40472 30.1232 6.38809 30.1701C6.38041 30.1918 6.36497 30.2312 6.33584 30.2708C6.31134 30.304 6.23042 30.3992 6.08562 30.3992C5.9536 30.3992 5.87215 30.3206 5.84115 30.2846C5.8066 30.2446 5.78581 30.2024 5.77376 30.1747C5.74854 30.1165 5.73155 30.0495 5.71944 29.9874C5.69439 29.8588 5.67947 29.6931 5.67947 29.5181C5.67947 29.212 5.60072 28.0142 5.51052 26.8264C5.46571 26.2364 5.41854 25.6545 5.37778 25.1957C5.33609 24.7264 5.30293 24.4089 5.28733 24.3286H5.2873L5.28666 24.3251L5.28663 24.3249H3.09268C1.95359 24.3249 1.36161 24.3279 1.05879 24.3516ZM3.21925 36.275C3.22085 36.281 3.22074 36.2796 3.21892 36.2738C3.21905 36.2742 3.21916 36.2747 3.21925 36.275Z" fill="white" stroke="black"/>
<path d="M17.6465 30.2691V36.2133H19.9461H22.2458V30.2691V24.3249H19.9461H17.6465V30.2691Z" fill="white" stroke="black"/>
<path d="M27.9429 30.7042C27.9492 30.6852 27.9729 30.6151 28.0422 30.5589C28.105 30.5075 28.1925 30.4771 28.2882 30.4935C28.3738 30.5081 28.4288 30.5544 28.4513 30.5755C28.4979 30.6189 28.5257 30.6703 28.5385 30.6949C28.5699 30.7554 28.5981 30.8331 28.6221 30.911L28.6257 30.9229L28.6284 30.935C28.759 31.5337 29.7902 35.6153 29.8945 36.0104L29.9533 36.2133H32.5363H35.0567V30.2691V24.3249H32.9669H30.8776L30.9321 25.7519L30.9322 25.7529C30.965 26.7049 31.0744 27.8919 31.1596 28.3946C31.2685 28.9718 31.3278 29.4023 31.3243 29.5818C31.3239 29.6061 31.3222 29.6419 31.3144 29.6788C31.3107 29.6965 31.3025 29.7297 31.2835 29.7662C31.2668 29.7981 31.2188 29.8765 31.1151 29.9133C30.9979 29.9548 30.8989 29.9135 30.8495 29.8816C30.8042 29.8524 30.7768 29.8176 30.7649 29.8016C30.7391 29.7668 30.7222 29.7303 30.7125 29.7083C30.6726 29.6169 30.6253 29.4549 30.5706 29.2364C30.3285 28.2678 29.5569 25.3577 29.3693 24.6841C29.3691 24.6837 29.369 24.6833 29.3689 24.6829L29.2656 24.3249H26.6829H24.1624V30.2691V36.2133H26.2522H28.3432L28.287 34.4987C28.2426 33.3898 28.1435 32.1469 28.0506 31.7241L28.0506 31.7241L28.0493 31.7173C28.0044 31.4873 27.9673 31.2681 27.9455 31.1012C27.9347 31.0188 27.9269 30.9426 27.9244 30.882C27.9233 30.8531 27.9228 30.8171 27.9266 30.7819C27.9285 30.765 27.9324 30.7364 27.9429 30.7042ZM31.2563 29.4754C31.2563 29.4755 31.256 29.4748 31.2554 29.4735C31.2559 29.4747 31.2562 29.4753 31.2563 29.4754Z" fill="white" stroke="black"/>
<path d="M42.3634 24.347L37.9675 24.3263V30.2691V36.2133H40.2119H42.4563V34.7972V33.0854V32.7896H42.752H44.6295H46.2113V31.0974V29.4052H44.6295H42.752H42.4563V29.1095V28.8334V28.5573V28.2646L42.749 28.2616L44.9011 28.2395H44.9026L46.7746 28.2108V26.2932V24.3781L42.3641 24.347H42.3634Z" fill="white" stroke="black"/>
<path d="M48.3486 30.0741L48.3486 30.0744C47.8793 31.7139 47.4488 33.2348 47.1313 34.3649C46.9727 34.9301 46.8423 35.3973 46.7496 35.7327C46.7033 35.9005 46.6664 36.035 46.6402 36.132C46.6318 36.1632 46.6245 36.1903 46.6184 36.2133H48.8042H51.1082L51.2433 35.6171L51.4196 34.7907L51.4695 34.5567H51.7088H52.7911H53.8734H54.1134L54.1628 34.7915L54.2951 35.4198C54.3484 35.6637 54.4047 35.9076 54.4428 36.0733C54.4503 36.1057 54.4571 36.1352 54.4631 36.161C54.5027 36.1686 54.5676 36.1775 54.6708 36.1851C55.0161 36.2103 55.6508 36.2133 56.8443 36.2133C57.5549 36.2133 58.1975 36.205 58.6611 36.19C58.8162 36.1849 58.9495 36.1792 59.0577 36.1729C59.0424 36.117 59.0251 36.0542 59.0059 35.9847C58.9174 35.6646 58.7892 35.2065 58.6305 34.6442C58.3131 33.5196 57.8743 31.9795 57.3885 30.2958L57.3882 30.2948L55.7037 24.3777L52.8443 24.347L52.8432 24.347L49.9877 24.3265L48.3486 30.0741ZM53.4108 30.3692L53.4109 30.3698L53.5104 30.8116L53.5915 31.1723H53.2219H52.8463C52.7287 31.1723 52.6138 31.1632 52.5207 31.1442C52.4768 31.1352 52.4209 31.1207 52.3688 31.0949C52.3431 31.0822 52.3028 31.0592 52.2653 31.0203C52.2261 30.9795 52.1751 30.9045 52.1751 30.7992C52.1751 30.7648 52.1817 30.7131 52.1862 30.6773C52.1922 30.6309 52.2006 30.5704 52.2108 30.5002C52.2313 30.3594 52.2594 30.1748 52.2905 29.9762C52.3528 29.5792 52.4277 29.1215 52.4778 28.8372L52.4787 28.8324C52.494 28.7536 52.5108 28.669 52.5305 28.6112C52.5359 28.5952 52.5451 28.5703 52.5595 28.5439L52.5597 28.5436C52.5687 28.5272 52.6057 28.4594 52.6868 28.4156C52.7363 28.389 52.8018 28.3716 52.8751 28.3826C52.945 28.393 52.9959 28.4253 53.0272 28.4521C53.0819 28.4987 53.1065 28.5532 53.1138 28.5697C53.1329 28.6126 53.1437 28.6594 53.1502 28.6899C53.1579 28.7264 53.1654 28.7697 53.173 28.818C53.1882 28.9148 53.2059 29.0469 53.2279 29.2146L53.228 29.2146L53.2287 29.2213C53.2719 29.6209 53.3586 30.1395 53.4108 30.3692Z" fill="white" stroke="black"/>
<path d="M16.688 26.3705C16.688 26.3927 16.2904 28.734 15.8045 31.5944C15.0534 36.0562 14.8988 36.8072 14.7111 36.9287C14.5012 37.0722 14.5012 37.1054 14.9872 38.5301C15.6056 40.3634 16.9862 43.1686 17.9912 44.6816C22.464 51.3854 29.2119 55.6705 37.2299 56.9074C38.8203 57.1504 43.0502 57.1835 44.6295 56.9626C50.8473 56.0901 56.1484 53.4948 60.5219 49.1766C63.7137 46.029 65.9776 42.3734 67.3805 38.1325C67.5792 37.5361 67.7116 37.0171 67.6785 36.9949C67.6454 36.9618 67.358 37.0171 67.0268 37.1164C66.1101 37.4036 63.9787 37.4588 62.8745 37.238C62.3771 37.1385 61.9022 37.0281 61.8253 36.9949C61.7254 36.9618 61.626 37.0944 61.5491 37.3704C61.3392 38.0773 59.9695 40.6837 59.2739 41.7329C57.1424 44.9025 54.1273 47.5199 50.6374 49.2208C44.9387 52.0038 38.2681 52.1364 32.4037 49.5963C27.3565 47.4095 23.215 43.268 21.0393 38.2208L20.5644 37.1164L18.7863 37.0612C17.1629 37.006 16.9862 36.9839 16.8426 36.7851C16.699 36.5974 16.6769 35.8022 16.7101 31.4508C16.7321 28.6456 16.7321 26.3485 16.7211 26.3485C16.699 26.3485 16.688 26.3595 16.688 26.3705ZM18.6207 37.8012C18.7863 38.1877 18.7864 38.2319 18.6096 38.3534C18.4992 38.4307 18.3667 38.4969 18.3004 38.4969C18.2452 38.4969 18.2231 38.519 18.2562 38.5522C18.2894 38.5853 18.4329 38.5632 18.5876 38.508C18.8305 38.4196 18.8858 38.4417 19.0404 38.7731C19.206 39.1264 19.206 39.1486 18.9741 39.3142L18.7311 39.4909L19.0072 39.4357C19.2613 39.3915 19.3275 39.4688 19.703 40.2308C19.9349 40.6837 20.0895 41.1034 20.0343 41.1475C19.9902 41.1917 19.6146 41.4126 19.206 41.6334L18.455 42.0421L18.2341 41.6776C18.1127 41.4788 18.0133 41.258 18.0133 41.2028C18.0133 41.1365 18.3446 40.9266 18.7422 40.7168C19.1398 40.518 19.449 40.3303 19.4269 40.3192C19.4048 40.2971 19.0514 40.3523 18.6207 40.4407C18.201 40.529 17.8034 40.5732 17.7261 40.5512C17.5494 40.4849 17.2843 39.6786 17.4279 39.6345C17.4942 39.6124 17.6378 39.513 17.7482 39.4246C17.947 39.27 17.947 39.259 17.6819 39.3363C17.5273 39.3695 17.3616 39.4136 17.3065 39.4246C17.2623 39.4246 17.1297 39.2259 17.0193 38.9829L16.8205 38.519L17.6047 37.9668C18.0464 37.6576 18.4109 37.4036 18.4219 37.3925C18.444 37.3925 18.5323 37.5803 18.6207 37.8012ZM64.288 37.8012C64.288 37.8453 64.1886 38.0883 64.0561 38.3534C63.8681 38.751 63.8462 38.8614 63.9674 39.005C64.1224 39.1927 64.5198 39.1706 64.586 38.9829C64.6079 38.9056 64.5198 38.8724 64.343 38.9056C64.0118 38.9719 63.9787 38.7951 64.2548 38.2208C64.4648 37.7902 64.586 37.757 65.0609 38C65.4365 38.1988 65.4584 38.3644 65.2159 39.0823C65.0278 39.6345 64.5198 40.1535 64.1661 40.1535C63.7912 40.1535 63.3269 39.8443 63.1832 39.4909C62.9183 38.8614 63.4594 37.7239 64.023 37.7239C64.1661 37.7239 64.288 37.757 64.288 37.8012ZM63.7025 40.2308C64.1111 40.4517 64.4648 40.6505 64.4867 40.6616C64.5086 40.6726 64.4092 40.8935 64.2661 41.1365C64.078 41.4678 63.9455 41.5893 63.7356 41.5893C63.4925 41.6003 63.4819 41.6114 63.6581 41.7108C63.8905 41.8543 63.8905 41.8985 63.6362 42.3292L63.4156 42.6716L62.5871 42.2298C62.1234 41.9979 61.7479 41.766 61.7479 41.7329C61.7479 41.6997 61.8584 41.4788 61.9909 41.2359C62.2115 40.8604 62.2778 40.8052 62.5539 40.8493L62.8745 40.8935L62.6314 40.7057C62.3996 40.529 62.3884 40.507 62.5652 40.1757C62.6645 39.9768 62.797 39.8222 62.852 39.8222C62.9076 39.8222 63.2938 40.01 63.7025 40.2308ZM20.5424 41.777C20.7964 42.1636 20.7964 42.2078 20.6307 42.4949L20.454 42.8041L20.708 42.6385C20.962 42.4728 20.9731 42.4838 21.205 42.8704C21.3375 43.0913 21.4369 43.279 21.4148 43.2901C21.0504 43.5441 19.8797 44.2398 19.8355 44.2398C19.8135 44.2398 19.6588 44.0411 19.4931 43.7871L19.206 43.3343L19.4711 43.0471L19.7251 42.76L19.4158 42.9587C19.2391 43.0692 19.0845 43.1354 19.0735 43.1134C19.0624 43.0913 18.9409 42.9256 18.8084 42.7268L18.5655 42.3845L19.3606 41.8764C19.8024 41.6003 20.1889 41.3684 20.2221 41.3684C20.2552 41.3684 20.3988 41.5561 20.5424 41.777ZM62.4434 42.4507C62.852 42.7158 63.1832 42.9587 63.1832 42.9919C63.1832 43.0803 62.7308 43.7981 62.6752 43.7981C62.6421 43.7981 61.2948 42.9808 61.0961 42.8483C61.0411 42.8041 61.5598 41.9096 61.626 41.9427C61.6704 41.9648 62.024 42.1967 62.4434 42.4507ZM61.9135 43.7098C62.1453 43.9858 62.1896 44.1294 62.1453 44.3945C62.0572 44.8473 61.2174 45.9296 61.0186 45.8523C60.7762 45.7529 59.6494 44.8804 59.6494 44.792C59.6494 44.6485 60.5106 43.5993 60.7206 43.4778C61.1292 43.2459 61.6041 43.3343 61.9135 43.7098ZM22.1327 44.1294C22.4199 44.4939 22.6518 44.8362 22.6518 44.9025C22.6518 44.9577 22.5413 45.0682 22.4088 45.1344C22.199 45.2449 22.1327 45.2228 21.9339 44.9688C21.8124 44.8142 21.6688 44.6816 21.6136 44.6816C21.5695 44.6816 21.6357 44.8142 21.7682 44.9798L22.0002 45.2891L21.7682 45.4768C21.5363 45.6646 21.5253 45.6535 21.2713 45.3774C21.0504 45.1124 20.9952 45.0902 20.8295 45.2338C20.6749 45.3664 20.6197 45.3442 20.3877 45.0571C20.2331 44.8804 20.1227 44.6816 20.1227 44.6264C20.1227 44.516 21.4259 43.4778 21.5584 43.4667C21.5915 43.4667 21.8566 43.7649 22.1327 44.1294ZM23.4138 45.6424C23.6016 45.8744 23.7562 46.1063 23.7562 46.1615C23.7562 46.2057 23.5463 46.6254 23.3034 47.0782L22.8506 47.9065L22.5303 47.5973C22.3536 47.4206 22.221 47.2107 22.2321 47.1113C22.2763 46.8684 22.1217 46.6695 21.8897 46.6695C21.7903 46.6695 21.5584 46.526 21.3817 46.3382L21.0724 46.018L21.7241 45.7308C22.0775 45.5762 22.475 45.4105 22.5966 45.3553C22.961 45.1786 23.0604 45.2118 23.4138 45.6424ZM60.1244 45.6866C60.5881 45.8744 60.9749 46.0622 60.9749 46.1063C60.9749 46.2499 60.3675 46.7579 60.1463 46.8021C60.0026 46.8242 59.9257 46.9235 59.9257 47.0893C59.9257 47.2328 59.6604 47.5862 59.2629 47.9948C58.7107 48.547 58.5671 48.6354 58.3351 48.5802C58.0922 48.525 58.0701 48.536 58.1805 48.6796C58.291 48.8121 58.2578 48.9005 57.9817 49.1655L57.6394 49.4858L56.9767 48.7679C56.6012 48.3703 56.3914 48.1937 56.5018 48.3703C56.6896 48.6796 56.6896 48.7017 56.5018 48.8342C56.3141 48.9778 56.3141 48.9999 56.5792 49.3422C57.0209 49.9386 57.0209 49.9496 56.6123 50.2699C56.2257 50.5571 56.2147 50.5571 56.0711 50.3583C55.5962 49.6846 55.4858 49.5963 55.298 49.7508C55.1434 49.8834 55.0882 49.8723 54.9004 49.7067C54.779 49.5963 54.6796 49.4527 54.6796 49.3864C54.6796 49.3201 54.9888 49.044 55.3532 48.779C55.7177 48.5139 56.3914 47.9838 56.8442 47.5973C57.4295 47.1003 57.7609 46.8904 57.9817 46.8904C58.3462 46.8904 58.545 47.0671 58.545 47.4095C58.545 47.6304 58.8763 47.8844 59.1634 47.8844C59.1966 47.8844 59.0199 47.4979 58.7769 47.034L58.3241 46.1836L58.7327 45.764C58.9536 45.532 59.1745 45.3442 59.2076 45.3442C59.2407 45.3442 59.6494 45.4989 60.1244 45.6866ZM25.0373 47.2659C25.5343 47.7629 25.6005 47.9286 25.4128 48.2157C25.3134 48.3483 25.2361 48.3151 24.9158 47.9728C24.4851 47.5089 24.4188 47.542 24.7501 48.0501C25.1477 48.6464 24.9821 49.0992 24.3857 49.0992C23.9218 49.0992 23.204 48.3703 23.204 47.9065C23.204 47.3984 23.3696 47.3984 23.8003 47.9065C24.2642 48.4366 24.3194 48.3814 23.9218 47.7961C23.5905 47.3212 23.5905 47.2439 23.8335 46.9788C24.1317 46.6475 24.5072 46.7358 25.0373 47.2659ZM26.6276 48.5691C27.0473 48.8894 27.3897 49.1766 27.3897 49.2097C27.3897 49.2428 27.3013 49.3864 27.1909 49.541C26.9811 49.795 26.97 49.8061 26.7712 49.6183C26.5614 49.4416 26.5393 49.4527 26.1858 49.9276L25.8104 50.4245L25.4791 50.1705C25.3023 50.027 25.1367 49.8613 25.1146 49.795C25.0925 49.7398 25.225 49.4968 25.4238 49.2539C25.7551 48.8342 25.7551 48.8232 25.5343 48.6796C25.3134 48.536 25.3134 48.5139 25.5011 48.2599C25.6005 48.1163 25.7331 47.9948 25.7772 47.9948C25.8325 47.9948 26.208 48.2599 26.6276 48.5691ZM28.9137 50.4687C28.8254 50.6012 28.5935 50.9657 28.4057 51.2749C28.2069 51.5952 28.0192 51.8603 27.986 51.8603C27.9419 51.8603 27.4891 51.5621 27.1909 51.3523C27.1688 51.3301 27.3897 50.9436 27.6768 50.4908L28.1959 49.6625L28.6266 49.9496C29.0242 50.2147 29.0463 50.2478 28.9137 50.4687ZM53.531 50.7007C53.8513 51.2529 53.8733 51.2639 54.1715 51.032C54.4808 50.8 54.6243 50.8221 54.779 51.1534C54.8452 51.3191 54.8894 51.4627 54.8784 51.4737C54.5802 51.6836 53.4647 52.302 53.3764 52.302C53.277 52.302 52.3162 50.7559 52.3824 50.7007C52.4376 50.6565 53.1886 50.2036 53.2107 50.2036C53.2217 50.2036 53.3653 50.4245 53.531 50.7007ZM29.8194 50.6454C30.1838 50.8221 30.239 50.8994 30.1948 51.1645C30.1507 51.4516 30.1617 51.4516 30.2832 51.2529C30.3605 51.1314 30.4268 51.0209 30.4379 50.9988C30.4599 50.9767 30.7139 51.0872 31.0011 51.2418C31.6637 51.5731 33.2651 52.1916 34.3364 52.5118C35.0763 52.7327 35.1316 52.7769 35.0653 52.9978C35.0211 53.1303 34.9438 53.2518 34.8996 53.2739C34.8444 53.296 34.8002 53.4064 34.8002 53.528C34.8002 53.804 34.5794 53.8813 34.2038 53.7378C34.0271 53.6715 33.9278 53.6715 33.9719 53.7378C34.0051 53.793 34.2038 53.8703 34.4137 53.9144C34.7671 53.9807 34.7892 54.0139 34.734 54.2789C34.6898 54.4335 34.6456 54.5771 34.6346 54.5882C34.5683 54.6875 32.8123 54.036 32.8123 53.9144C32.8123 53.8371 32.9117 53.4838 33.0332 53.1303C33.2872 52.3793 33.3093 52.1253 33.0774 52.556C32.9448 52.81 32.8785 52.8432 32.7019 52.7438C32.5141 52.6444 32.4589 52.6775 32.3153 53.0309C32.227 53.2518 32.1497 53.4727 32.1497 53.528C32.1497 53.7157 31.9177 53.7378 31.5423 53.5831C31.1005 53.3954 31.0894 53.3622 31.3214 52.8211C31.5423 52.302 31.5312 52.2247 31.2661 52.1585C31.0784 52.1143 31.0563 52.0591 31.1557 51.8161C31.3545 51.2749 31.1557 51.5289 30.7692 52.302C30.5593 52.7217 30.3495 53.0751 30.3164 53.0751C30.2943 53.0751 30.0623 52.9757 29.8194 52.8432C29.4218 52.6444 29.3776 52.5781 29.4328 52.3241C29.4991 52.0259 29.4991 52.0259 29.3224 52.2689L29.1567 52.5008L28.7702 52.28C28.5604 52.1585 28.3947 52.0369 28.3947 52.0149C28.3947 51.8492 29.1899 50.4245 29.2893 50.4245C29.3445 50.4245 29.5875 50.5239 29.8194 50.6454ZM53.1334 52.4346C53.1334 52.5781 52.5702 52.7769 52.1394 52.788C51.8744 52.799 51.7529 52.8542 51.7529 52.9647C51.7529 53.1082 50.9577 53.5831 50.8694 53.4948C50.8473 53.4727 50.8031 53.0089 50.7589 52.4677L50.6816 51.4627L51.2228 51.2418L51.7529 51.0099L52.4487 51.6836C52.8242 52.048 53.1334 52.3904 53.1334 52.4346ZM50.3724 52.545C50.527 52.9868 50.6595 53.4064 50.6816 53.4727C50.7037 53.55 50.4828 53.6825 50.1956 53.782C49.6987 53.9476 49.6766 53.9476 49.4778 53.7046C49.2569 53.4396 49.2017 53.5169 49.3784 53.8482C49.4667 54.0139 49.4336 54.0691 49.1354 54.1685C48.9477 54.2347 48.7379 54.29 48.6605 54.29C48.5612 54.29 48.009 52.8874 47.9979 52.5892C47.9979 52.534 48.2188 52.4125 48.4838 52.3241C48.9587 52.1695 48.9808 52.1695 49.1796 52.4235L49.3894 52.6775L49.3232 52.3793C49.2569 52.1143 49.2901 52.0591 49.6103 51.9155C49.8202 51.8271 50.0079 51.7609 50.0521 51.7498C50.0852 51.7498 50.2288 52.1143 50.3724 52.545ZM47.8101 52.9647C48.0973 53.2408 48.2298 53.8593 48.0531 54.1795C47.9096 54.4446 47.1475 54.8311 46.7499 54.8422C46.3634 54.8422 45.8553 54.5329 45.778 54.2458C45.6455 53.6936 45.778 53.2629 46.1646 52.9978C46.6616 52.6665 47.4678 52.6444 47.8101 52.9647ZM36.2691 52.9757C37.241 53.1745 37.6165 53.6936 37.1195 54.1575C36.9317 54.3342 36.9097 54.4115 37.0201 54.7207C37.0864 54.9195 37.1306 55.0851 37.1084 55.1072C37.0864 55.1183 36.8544 55.0962 36.5894 55.041C36.258 54.9637 36.0813 54.8642 36.0151 54.6986C35.9267 54.4888 35.9157 54.4777 35.9157 54.6655C35.9046 54.8422 35.8494 54.8642 35.4408 54.798C35.1868 54.7538 34.9659 54.7096 34.9438 54.6986C34.9328 54.6765 34.9991 54.2568 35.1095 53.7598C35.3082 52.7549 35.2751 52.7769 36.2691 52.9757ZM45.4577 53.4838C45.5019 53.7157 45.5682 54.1243 45.6235 54.4004C45.6786 54.6765 45.6897 54.9305 45.6455 54.9747C45.6013 55.0189 45.3694 55.0631 45.1264 55.0851L44.6847 55.1183L44.5522 54.2347C44.4748 53.7488 44.4528 53.3181 44.4969 53.2739C44.5411 53.2408 44.7289 53.1856 44.9055 53.1524C45.0933 53.1303 45.27 53.0972 45.3142 53.0862C45.3584 53.0862 45.4246 53.2629 45.4577 53.4838ZM38.7099 53.6494L38.8645 54.0139L38.8755 53.7046C38.8866 53.4285 38.9197 53.4064 39.3394 53.4064H39.8032L39.7259 54.3673C39.6817 54.8974 39.6265 55.3502 39.6044 55.3723C39.5823 55.3944 39.3062 55.3833 39.008 55.3391C38.5 55.2729 38.4448 55.2397 38.4337 54.9747L38.4227 54.6765L38.3454 54.9526C38.3012 55.1183 38.1908 55.2287 38.0803 55.2177C37.2852 55.1845 37.3183 55.2066 37.3846 54.7538C37.4177 54.5329 37.4729 54.1133 37.506 53.8151L37.5723 53.296H38.0693C38.511 53.296 38.5663 53.3291 38.7099 53.6494ZM44.276 53.6494C44.254 53.9144 44.1877 54.0249 44.022 54.047C43.8233 54.0691 43.8011 54.1464 43.8343 54.6765C43.8784 55.2508 43.8674 55.2839 43.6134 55.2839C43.4809 55.2839 43.2489 55.3171 43.1164 55.3502C42.8845 55.4164 42.8624 55.3833 42.8624 54.9747C42.8624 54.3562 42.774 54.1795 42.4648 54.1795C42.2329 54.1795 42.1998 54.1243 42.1998 53.793V53.4175L42.8956 53.3733C43.2711 53.3512 43.746 53.3291 43.9447 53.3181C44.2982 53.296 44.3092 53.3071 44.276 53.6494ZM41.9899 54.3452C42.3985 55.3833 42.3985 55.3944 41.8132 55.3944C41.5371 55.3944 41.3163 55.3391 41.3163 55.2839C41.3163 55.2177 41.2169 55.1735 41.1064 55.1735C40.9849 55.1735 40.8524 55.2177 40.8192 55.2839C40.753 55.3833 39.7701 55.4496 39.7701 55.3502C39.7701 55.3281 39.8363 55.1404 39.9136 54.9415C40.002 54.7317 40.1566 54.3231 40.256 54.036L40.4548 53.5058L41.0733 53.5389L41.6918 53.5721L41.9899 54.3452Z" fill="#D82D2E"/>
<path d="M60.7537 44.3283C60.7537 44.3835 60.853 44.516 60.9749 44.6265C61.1736 44.8142 61.1954 44.8142 61.2617 44.6265C61.306 44.516 61.2729 44.3945 61.1848 44.3393C60.9861 44.2178 60.7537 44.2068 60.7537 44.3283Z" fill="#D82D2E"/>
<path d="M57.5069 47.7629C57.4627 47.8182 57.4848 47.8955 57.54 47.9286C57.5952 47.9728 57.6725 47.9507 57.7057 47.8955C57.7498 47.8402 57.7278 47.7629 57.6725 47.7298C57.6174 47.6856 57.54 47.7078 57.5069 47.7629Z" fill="#D82D2E"/>
<path d="M46.7278 53.6715C46.7278 54.0139 47.0039 54.2569 47.1033 54.0139C47.1806 53.8151 46.9928 53.4065 46.8382 53.4065C46.772 53.4065 46.7278 53.5279 46.7278 53.6715Z" fill="#D82D2E"/>
<path d="M36.1255 53.6274C36.1255 53.6825 36.1807 53.7378 36.247 53.7378C36.3022 53.7378 36.3243 53.6825 36.2911 53.6274C36.258 53.5611 36.2028 53.5169 36.1697 53.5169C36.1476 53.5169 36.1255 53.5611 36.1255 53.6274Z" fill="#D82D2E"/>
<path d="M70.3729 33.8585C70.3623 34.2229 69.9205 35.1506 69.5556 35.5814C69.4012 35.7581 69.1913 36.2329 69.0919 36.6305C67.3692 43.4999 63.0838 49.541 57.1313 53.5169C53.5861 55.8803 49.9747 57.305 45.5681 58.067C44.3312 58.2769 43.7238 58.31 41.2057 58.31C38.014 58.321 36.9427 58.2106 34.4137 57.6032C24.5402 55.2508 16.6769 47.9286 13.5845 38.1878L13.2201 37.0612H12.8114H12.4028L12.6568 37.9116C13.8275 41.7108 15.6167 45.1345 17.969 48.1053C18.9299 49.3091 21.3375 51.7167 22.5413 52.6776C26.8595 56.1122 32.238 58.3542 37.6606 58.9837C39.4498 59.1937 42.7519 59.1937 44.5632 58.9837C52.9456 58.0008 60.4112 53.55 65.3702 46.6033C67.7891 43.2017 69.5225 39.0713 70.3067 34.8193C70.406 34.2892 70.4616 33.7922 70.4285 33.7149C70.406 33.6376 70.3729 33.7039 70.3729 33.8585Z" fill="#D82D2E"/>
<path d="M52.0402 36.0341C51.8083 37.0502 51.7972 37.0612 50.0412 37.0612H48.5392L48.1527 37.4588C47.9539 37.6687 47.4459 38.0773 47.0373 38.3423C43.0834 40.9819 37.8817 40.6947 34.2923 37.6576L33.5966 37.0612H31.5866C29.8637 37.0612 29.5434 37.0391 29.3667 36.8735C29.179 36.7078 29.1569 36.7078 28.9691 36.8735C28.7924 37.0281 28.4942 37.0612 27.0364 37.0612C26.0866 37.0612 25.3025 37.1054 25.3025 37.1496C25.3025 37.3263 26.4511 39.2259 27.0364 40.0321C27.8316 41.1144 29.7643 43.025 30.8797 43.8202C35.7281 47.266 42.1005 48.039 47.6226 45.8413C51.2119 44.4165 54.3705 41.6666 56.3474 38.2429L56.999 37.1165L55.5411 37.0833C53.8293 37.0502 53.752 37.006 53.5532 36.0562L53.4207 35.4046H52.8022H52.1727L52.0402 36.0341ZM32.8456 39.0713L33.7291 39.1044L33.0554 39.5793C32.6799 39.8443 32.3707 40.1204 32.3707 40.1977C32.3707 40.2861 32.437 40.5401 32.5143 40.772C32.6026 41.015 32.702 41.3463 32.7462 41.523L32.8235 41.8433L32.459 41.5672C32.2603 41.4236 31.94 41.1806 31.7412 41.0371L31.3878 40.7831L30.7693 41.2469C30.4269 41.512 30.1177 41.6997 30.0846 41.6666C30.0625 41.6335 30.1398 41.269 30.2613 40.8604C30.3828 40.4407 30.4491 40.0762 30.4049 40.0321C30.3607 39.9989 30.0515 39.778 29.7202 39.5351L29.1127 39.1044L29.9962 39.0491L30.8687 38.994L31.1227 38.2209C31.2553 37.7901 31.3768 37.4257 31.3768 37.3925C31.3878 37.3594 31.5203 37.7238 31.686 38.1877L31.9731 39.0381L32.8456 39.0713ZM52.2831 39.0713L53.1667 39.1044L52.493 39.5793C52.1175 39.8443 51.8083 40.0984 51.8083 40.1535C51.8083 40.1977 51.9076 40.5622 52.0291 40.9487C52.1507 41.3242 52.25 41.6777 52.25 41.7218C52.25 41.777 51.9518 41.5893 51.5763 41.3132C51.2008 41.0371 50.8695 40.8162 50.8254 40.8162C50.7922 40.8162 50.4719 41.0371 50.1296 41.3132C49.7761 41.5893 49.489 41.755 49.489 41.6777C49.489 41.6003 49.5884 41.2138 49.7099 40.8273C49.8314 40.4297 49.8976 40.0873 49.8534 40.0431C49.7983 39.9989 49.489 39.778 49.1577 39.5351L48.5503 39.1044L49.4338 39.0491L50.3063 38.994L50.5603 38.2209C50.6928 37.7901 50.8143 37.4257 50.8143 37.3925C50.8254 37.3594 50.9579 37.7238 51.1235 38.1877L51.4107 39.0381L52.2831 39.0713ZM46.6286 41.5009L46.7722 42.031H47.6336C48.1085 42.031 48.495 42.0642 48.495 42.1084C48.495 42.1636 48.2852 42.3292 48.0201 42.5059C47.0814 43.1134 47.1256 43.014 47.3796 43.8533C47.5121 44.2619 47.6115 44.6374 47.6115 44.6927C47.6115 44.7479 47.3464 44.6043 47.0373 44.3724C46.7169 44.1405 46.3967 43.9196 46.3304 43.8754C46.2642 43.8312 45.9107 44.019 45.5573 44.2951C45.2039 44.5601 44.8947 44.7589 44.8726 44.7369C44.8505 44.7147 44.9389 44.3724 45.0603 43.9638C45.1929 43.5552 45.2922 43.1907 45.2922 43.1465C45.2922 43.1023 44.983 42.8483 44.6075 42.5722L43.9118 42.0863L44.8063 42.0531L45.7009 42.02L45.9549 41.1696L46.2089 40.3192L46.3525 40.6506C46.4298 40.8273 46.5513 41.2138 46.6286 41.5009ZM36.2803 41.3021L36.4791 42.02L37.3847 42.0531L38.2793 42.0863L37.5946 42.5722C37.208 42.8483 36.8988 43.0913 36.8988 43.1244C36.8988 43.1686 36.9982 43.511 37.1196 43.9085C37.2411 44.3061 37.3405 44.6706 37.3405 44.7147C37.3405 44.77 37.1196 44.6374 36.8436 44.4387C36.5674 44.2399 36.2472 44.0079 36.1478 43.9306C35.9711 43.8202 35.8496 43.8643 35.2863 44.2841C34.9329 44.5601 34.6237 44.7589 34.6016 44.7369C34.5795 44.7147 34.6679 44.3724 34.7894 43.9638C34.9219 43.5552 35.0213 43.1907 35.0213 43.1465C35.0213 43.1023 34.7121 42.8483 34.3365 42.5722L33.6408 42.0863L34.5354 42.0531L35.4299 42.02L35.6287 41.3353C35.7391 40.9597 35.8496 40.6174 35.8717 40.5622C35.9711 40.3855 36.1036 40.6174 36.2803 41.3021ZM41.4268 42.3182L41.6919 43.1465L42.5534 43.1134C43.0283 43.0913 43.4147 43.1023 43.4037 43.1354C43.4037 43.1686 43.1056 43.4005 42.7411 43.6545C42.3877 43.9196 42.0895 44.1847 42.0895 44.2619C42.0895 44.3392 42.1889 44.7037 42.2993 45.0682C42.4098 45.4326 42.4871 45.7529 42.465 45.775C42.4429 45.7971 42.1557 45.6093 41.8244 45.3553C41.4931 45.1123 41.1728 44.9025 41.1176 44.9025C41.0624 44.9025 40.7532 45.1013 40.4329 45.3443C40.1126 45.5872 39.8034 45.786 39.7702 45.786C39.7261 45.786 39.8034 45.4326 39.9469 44.9909C40.0905 44.5491 40.212 44.1847 40.212 44.1736C40.212 44.1736 39.9028 43.9417 39.5273 43.6766L38.8315 43.1907L39.6819 43.1575L40.5433 43.1244L40.7863 42.3072C40.9299 41.8543 41.0734 41.4788 41.1066 41.4788C41.1397 41.4788 41.2832 41.8543 41.4268 42.3182Z" fill="#D82D2E"/>
</svg>
