<svg version="1.2" xmlns="http://www.w3.org/2000/svg" viewBox="0 0 80 80" width="80" height="80">
	<title>zillion11</title>
	<defs>
		<clipPath clipPathUnits="userSpaceOnUse" id="cp1">
			<path d="m0 0h80v80h-80z"/>
		</clipPath>
	</defs>
	<style>
		.s0 { fill: #ff5522 } 
	</style>
	<g id="Clip-Path" clip-path="url(#cp1)">
		<g>
			<path fill-rule="evenodd" class="s0" d="m40 57.8c-22.1 0-40 3.9-40 8.9v4.4c0 4.9 17.9 8.9 40 8.9 22.1 0 40-4 40-8.9v-4.4c0-4.9-17.9-8.9-40-8.9z"/>
			<path fill-rule="evenodd" class="s0" d="m41.4 51c21.9-2.9 39.2-9.2 38.5-14l-0.5-4.4c-0.7-4.9-19-6.5-40.9-3.6-21.9 2.9-39.1 9.2-38.4 14l0.5 4.4c0.7 4.9 18.9 6.5 40.8 3.6z"/>
			<path fill-rule="evenodd" class="s0" d="m40 0c-22.1 0-40 4-40 8.9v4.4c0 4.9 17.9 8.9 40 8.9 22.1 0 40-4 40-8.9v-4.4c0-4.9-17.9-8.9-40-8.9z"/>
		</g>
	</g>
</svg>